<svg width="517" height="346" viewBox="0 0 517 346" fill="none" xmlns="http://www.w3.org/2000/svg">
<path d="M38.7165 95.2306L1.87451 109.913L-29.275 85.3665L-23.5617 46.0885L13.2802 31.4058L44.4297 55.9527L38.7027 95.196L38.7165 95.2306ZM2.51631 105.488L35.2071 92.4601L40.2577 57.6555L12.6384 35.8307L-20.0523 48.859L-25.103 83.6637L2.50252 105.454L2.51631 105.488Z" fill="#DA0000" fill-opacity="0.1"/>
<path d="M113.034 106.182L76.192 120.864L45.0425 96.3175L50.7696 57.0741L87.6115 42.3914L118.761 66.9383L113.034 106.182ZM76.8338 116.439L109.525 103.411L114.575 68.6065L86.9697 46.8163L54.279 59.8446L49.2283 94.6493L76.8338 116.439Z" fill="#DA0000" fill-opacity="0.1"/>
<path d="M65.9174 163.483L29.0754 178.166L-2.07406 153.619L3.65301 114.376L40.495 99.6932L71.6445 124.24L65.9174 163.483ZM29.7172 173.741L62.408 160.713L67.4587 125.908L39.8532 104.118L7.16241 117.146L2.11175 151.951L29.7172 173.741Z" fill="#DA0000" fill-opacity="0.1"/>
<path d="M475.446 294.95L502.029 294.95L515.32 317.972L502.029 340.994L475.446 340.994L462.154 317.972L475.446 294.95Z" stroke="#DA0000" stroke-width="2"/>
</svg>
