<svg width="311" height="307" viewBox="0 0 311 307" fill="none" xmlns="http://www.w3.org/2000/svg">
<path d="M128.102 147.903H42.7275L0 73.9915L42.7275 0H128.102L170.83 73.9114L128.102 147.823V147.903ZM47.5373 139.566H123.292L161.13 73.9915L123.292 8.33707H47.5373L9.69987 73.9114L47.5373 139.486V139.566Z" fill="#DA0000" fill-opacity="0.1"/>
<path d="M267.989 229.029H182.614L139.886 155.118L182.614 81.2065H267.989L310.716 155.118L267.989 229.029ZM187.424 220.692H263.179L301.016 155.118L263.179 89.5436H187.424L149.586 155.118L187.424 220.692Z" fill="#DA0000" fill-opacity="0.1"/>
<path d="M128.102 306.067H42.7275L0 232.155L42.7275 158.244H128.102L170.83 232.155L128.102 306.067ZM47.5373 297.73H123.292L161.13 232.155L123.292 166.581H47.5373L9.69987 232.155L47.5373 297.73Z" fill="#DA0000" fill-opacity="0.1"/>
</svg>
