<svg width="100" height="100" viewBox="0 0 100 100" fill="none" xmlns="http://www.w3.org/2000/svg">
<path d="M92.8018 25.2881V74.7109L50 99.4229L7.19922 74.7109V25.2881L50 0.576172L92.8018 25.2881Z" fill="white" stroke="#989898"/>
<path d="M45.733 67.4773C43.1875 67.4773 40.9205 67.0398 38.9318 66.1648C36.9545 65.2784 35.392 64.0625 34.2443 62.517C33.108 60.9602 32.5227 59.1648 32.4886 57.1307H39.9205C39.9659 57.983 40.2443 58.733 40.7557 59.3807C41.2784 60.017 41.9716 60.5114 42.8352 60.8636C43.6989 61.2159 44.6705 61.392 45.75 61.392C46.875 61.392 47.8693 61.1932 48.733 60.7955C49.5966 60.3977 50.2727 59.8466 50.7614 59.142C51.25 58.4375 51.4943 57.625 51.4943 56.7045C51.4943 55.7727 51.233 54.9489 50.7102 54.233C50.1989 53.5057 49.4602 52.9375 48.4943 52.5284C47.5398 52.1193 46.4034 51.9148 45.0852 51.9148H41.8295V46.4943H45.0852C46.1989 46.4943 47.1818 46.3011 48.0341 45.9148C48.8977 45.5284 49.5682 44.9943 50.0455 44.3125C50.5227 43.6193 50.7614 42.8125 50.7614 41.892C50.7614 41.017 50.5511 40.25 50.1307 39.5909C49.7216 38.9205 49.142 38.3977 48.392 38.0227C47.6534 37.6477 46.7898 37.4602 45.8011 37.4602C44.8011 37.4602 43.8864 37.642 43.0568 38.0057C42.2273 38.358 41.5625 38.8636 41.0625 39.5227C40.5625 40.1818 40.2955 40.9545 40.2614 41.8409H33.1875C33.2216 39.8295 33.7955 38.0568 34.9091 36.5227C36.0227 34.9886 37.5227 33.7898 39.4091 32.9261C41.3068 32.0511 43.4489 31.6136 45.8352 31.6136C48.2443 31.6136 50.3523 32.0511 52.1591 32.9261C53.9659 33.8011 55.3693 34.983 56.3693 36.4716C57.3807 37.9489 57.8807 39.608 57.8693 41.4489C57.8807 43.4034 57.2727 45.0341 56.0455 46.3409C54.8295 47.6477 53.2443 48.4773 51.2898 48.8295V49.1023C53.858 49.4318 55.8125 50.3239 57.1534 51.7784C58.5057 53.2216 59.1761 55.0284 59.1648 57.1989C59.1761 59.1875 58.6023 60.9545 57.4432 62.5C56.2955 64.0455 54.7102 65.2614 52.6875 66.1477C50.6648 67.0341 48.3466 67.4773 45.733 67.4773Z" fill="#DA0000"/>
</svg>
