<svg width="100" height="100" viewBox="0 0 100 100" fill="none" xmlns="http://www.w3.org/2000/svg">
<path d="M92.8018 25.2881V74.7109L50 99.4229L7.19922 74.7109V25.2881L50 0.576172L92.8018 25.2881Z" fill="white" stroke="#989898"/>
<path d="M49.5795 68.4773C47.1705 68.4773 45.0227 68.0341 43.1364 67.1477C41.2614 66.2614 39.7727 65.0398 38.6705 63.483C37.5682 61.9261 36.9943 60.142 36.9489 58.1307H44.108C44.1875 59.483 44.7557 60.5795 45.8125 61.4205C46.8693 62.2614 48.125 62.6818 49.5795 62.6818C50.7386 62.6818 51.7614 62.4261 52.6477 61.9148C53.5455 61.392 54.2443 60.6705 54.7443 59.75C55.2557 58.8182 55.5114 57.75 55.5114 56.5455C55.5114 55.3182 55.25 54.2386 54.7273 53.3068C54.2159 52.375 53.5057 51.6477 52.5966 51.125C51.6875 50.6023 50.6477 50.3352 49.4773 50.3239C48.4545 50.3239 47.4602 50.5341 46.4943 50.9545C45.5398 51.375 44.7955 51.9489 44.2614 52.6761L37.6989 51.5L39.3523 33.0909H60.6932V39.125H45.4375L44.5341 47.8693H44.7386C45.3523 47.0057 46.2784 46.2898 47.517 45.7216C48.7557 45.1534 50.142 44.8693 51.6761 44.8693C53.7784 44.8693 55.6534 45.3636 57.3011 46.3523C58.9489 47.3409 60.25 48.6989 61.2045 50.4261C62.1591 52.142 62.6307 54.1193 62.6193 56.358C62.6307 58.7102 62.0852 60.8011 60.983 62.6307C59.892 64.4489 58.3636 65.8807 56.3977 66.9261C54.4432 67.9602 52.1705 68.4773 49.5795 68.4773Z" fill="#DA0000"/>
</svg>
