<svg width="100" height="100" viewBox="0 0 100 100" fill="none" xmlns="http://www.w3.org/2000/svg">
<path d="M92.8018 25.2881V74.7109L50 99.4229L7.19922 74.7109V25.2881L50 0.576172L92.8018 25.2881Z" fill="white" stroke="#989898"/>
<path d="M50.2273 67.4773C48.4318 67.4659 46.6989 67.1648 45.0284 66.5739C43.3693 65.983 41.8807 65.0227 40.5625 63.6932C39.2443 62.3636 38.1989 60.6023 37.4261 58.4091C36.6648 56.2159 36.2841 53.5227 36.2841 50.3295C36.2955 47.3977 36.6307 44.7784 37.2898 42.4716C37.9602 40.1534 38.9148 38.1875 40.1534 36.5739C41.4034 34.9602 42.8977 33.733 44.6364 32.892C46.375 32.0398 48.3239 31.6136 50.483 31.6136C52.8125 31.6136 54.8693 32.0682 56.6534 32.9773C58.4375 33.875 59.8693 35.0966 60.9489 36.642C62.0398 38.1875 62.6989 39.9205 62.9261 41.8409H55.6477C55.3636 40.625 54.767 39.6705 53.858 38.9773C52.9489 38.2841 51.8239 37.9375 50.483 37.9375C48.2102 37.9375 46.483 38.9261 45.3011 40.9034C44.1307 42.8807 43.5341 45.5682 43.5114 48.9659H43.75C44.2727 47.9318 44.9773 47.0511 45.8636 46.3239C46.7614 45.5852 47.7784 45.0227 48.9148 44.6364C50.0625 44.2386 51.2727 44.0398 52.5455 44.0398C54.6136 44.0398 56.4545 44.5284 58.0682 45.5057C59.6818 46.4716 60.9545 47.8011 61.8864 49.4943C62.8182 51.1875 63.2841 53.125 63.2841 55.3068C63.2841 57.6705 62.733 59.7727 61.6307 61.6136C60.5398 63.4545 59.0114 64.8977 57.0455 65.9432C55.0909 66.9773 52.8182 67.4886 50.2273 67.4773ZM50.1932 61.6818C51.3295 61.6818 52.3466 61.4091 53.2443 60.8636C54.142 60.3182 54.8466 59.5795 55.358 58.6477C55.8693 57.7159 56.125 56.6705 56.125 55.5114C56.125 54.3523 55.8693 53.3125 55.358 52.392C54.858 51.4716 54.1648 50.7386 53.2784 50.1932C52.392 49.6477 51.3807 49.375 50.2443 49.375C49.392 49.375 48.6023 49.5341 47.875 49.8523C47.1591 50.1705 46.5284 50.6136 45.983 51.1818C45.4489 51.75 45.0284 52.4091 44.7216 53.1591C44.4148 53.8977 44.2614 54.6875 44.2614 55.5284C44.2614 56.6534 44.517 57.6818 45.0284 58.6136C45.5511 59.5455 46.2557 60.2898 47.142 60.8466C48.0398 61.4034 49.0568 61.6818 50.1932 61.6818Z" fill="#DA0000"/>
</svg>
