<svg width="100" height="100" viewBox="0 0 100 100" fill="none" xmlns="http://www.w3.org/2000/svg">
<path d="M92.8018 25.2881V74.7109L50 99.4229L7.19922 74.7109V25.2881L50 0.576172L92.8018 25.2881Z" fill="white" stroke="#989898"/>
<path d="M49.8523 67.4773C47.2273 67.4773 44.892 67.0511 42.8466 66.1989C40.8125 65.3352 39.2159 64.1591 38.0568 62.6705C36.8977 61.1818 36.3182 59.4943 36.3182 57.608C36.3182 56.1534 36.6477 54.8182 37.3068 53.6023C37.9773 52.375 38.8864 51.358 40.0341 50.5511C41.1818 49.733 42.4659 49.2102 43.8864 48.983V48.7443C42.0227 48.3693 40.5114 47.4659 39.3523 46.0341C38.1932 44.5909 37.6136 42.9148 37.6136 41.0057C37.6136 39.1989 38.142 37.5909 39.1989 36.1818C40.2557 34.7614 41.7045 33.6477 43.5455 32.8409C45.3977 32.0227 47.5 31.6136 49.8523 31.6136C52.2045 31.6136 54.3011 32.0227 56.142 32.8409C57.9943 33.6591 59.4489 34.7784 60.5057 36.1989C61.5625 37.608 62.0966 39.2102 62.108 41.0057C62.0966 42.9261 61.5057 44.6023 60.3352 46.0341C59.1648 47.4659 57.6648 48.3693 55.8352 48.7443V48.983C57.233 49.2102 58.5 49.733 59.6364 50.5511C60.7841 51.358 61.6932 52.375 62.3636 53.6023C63.0455 54.8182 63.392 56.1534 63.4034 57.608C63.392 59.4943 62.8068 61.1818 61.6477 62.6705C60.4886 64.1591 58.8864 65.3352 56.8409 66.1989C54.8068 67.0511 52.4773 67.4773 49.8523 67.4773ZM49.8523 62.0568C51.0227 62.0568 52.0455 61.8466 52.9205 61.4261C53.7955 60.9943 54.4773 60.4034 54.9659 59.6534C55.4659 58.892 55.7159 58.017 55.7159 57.0284C55.7159 56.017 55.4602 55.125 54.9489 54.3523C54.4375 53.5682 53.7443 52.9545 52.8693 52.5114C51.9943 52.0568 50.9886 51.8295 49.8523 51.8295C48.7273 51.8295 47.7216 52.0568 46.8352 52.5114C45.9489 52.9545 45.25 53.5682 44.7386 54.3523C44.2386 55.125 43.9886 56.017 43.9886 57.0284C43.9886 58.017 44.233 58.892 44.7216 59.6534C45.2102 60.4034 45.8977 60.9943 46.7841 61.4261C47.6705 61.8466 48.6932 62.0568 49.8523 62.0568ZM49.8523 46.4602C50.8295 46.4602 51.6989 46.2614 52.4602 45.8636C53.2216 45.4659 53.8182 44.9148 54.25 44.2102C54.6818 43.5057 54.8977 42.6932 54.8977 41.7727C54.8977 40.8636 54.6818 40.0682 54.25 39.3864C53.8182 38.6932 53.2273 38.1534 52.4773 37.767C51.7273 37.3693 50.8523 37.1705 49.8523 37.1705C48.8636 37.1705 47.9886 37.3693 47.2273 37.767C46.4659 38.1534 45.8693 38.6932 45.4375 39.3864C45.017 40.0682 44.8068 40.8636 44.8068 41.7727C44.8068 42.6932 45.0227 43.5057 45.4545 44.2102C45.8864 44.9148 46.483 45.4659 47.2443 45.8636C48.0057 46.2614 48.875 46.4602 49.8523 46.4602Z" fill="#DA0000"/>
</svg>
