<svg width="100" height="100" viewBox="0 0 100 100" fill="none" xmlns="http://www.w3.org/2000/svg">
<path d="M92.8018 25.2881V74.7109L50 99.4229L7.19922 74.7109V25.2881L50 0.576172L92.8018 25.2881Z" fill="white" stroke="#989898"/>
<path d="M49.4602 31.6136C51.2557 31.6136 52.983 31.9148 54.642 32.517C56.3125 33.1193 57.8011 34.0795 59.108 35.3977C60.4261 36.7159 61.4659 38.4659 62.2273 40.6477C63 42.8182 63.392 45.483 63.4034 48.642C63.4034 51.608 63.0682 54.2557 62.3977 56.5852C61.7386 58.9034 60.7898 60.875 59.5511 62.5C58.3125 64.125 56.8182 65.3636 55.0682 66.2159C53.3182 67.0568 51.3636 67.4773 49.2045 67.4773C46.875 67.4773 44.8182 67.0284 43.0341 66.1307C41.25 65.2216 39.8125 63.9886 38.7216 62.4318C37.642 60.8636 36.9886 59.1023 36.7614 57.1477H44.0398C44.3239 58.4205 44.9205 59.4091 45.8295 60.1136C46.7386 60.8068 47.8636 61.1534 49.2045 61.1534C51.4773 61.1534 53.2045 60.1648 54.3864 58.1875C55.5682 56.1989 56.1648 53.4773 56.1761 50.0227H55.9375C55.4148 51.0455 54.7102 51.9261 53.8239 52.6648C52.9375 53.392 51.9205 53.9545 50.7727 54.3523C49.6364 54.75 48.4261 54.9489 47.142 54.9489C45.0852 54.9489 43.25 54.4659 41.6364 53.5C40.0227 52.5341 38.75 51.2045 37.8182 49.5114C36.8864 47.8182 36.4205 45.8864 36.4205 43.7159C36.4091 41.375 36.9489 39.2898 38.0398 37.4602C39.1307 35.6307 40.6534 34.1989 42.608 33.1648C44.5739 32.1193 46.858 31.6023 49.4602 31.6136ZM49.5114 37.4091C48.3636 37.4091 47.3409 37.6818 46.4432 38.2273C45.5568 38.7727 44.8523 39.5057 44.3295 40.4261C43.8182 41.3466 43.5682 42.375 43.5795 43.5114C43.5795 44.6591 43.8295 45.6932 44.3295 46.6136C44.8409 47.5227 45.5341 48.25 46.4091 48.7955C47.2955 49.3295 48.3068 49.5966 49.4432 49.5966C50.2955 49.5966 51.0852 49.4375 51.8125 49.1193C52.5398 48.8011 53.1705 48.3636 53.7045 47.8068C54.25 47.2386 54.6761 46.5852 54.983 45.8466C55.2898 45.108 55.4432 44.3239 55.4432 43.4943C55.4318 42.392 55.1705 41.3807 54.6591 40.4602C54.1477 39.5398 53.4432 38.8011 52.5455 38.2443C51.6477 37.6875 50.6364 37.4091 49.5114 37.4091Z" fill="#DA0000"/>
</svg>
