<svg width="100" height="97" viewBox="0 0 100 97" fill="none" xmlns="http://www.w3.org/2000/svg">
<path d="M25.5674 7.49805L74.4316 7.49804L98.8359 48.5L74.4316 89.5019L25.5674 89.502L1.16308 48.5L25.5674 7.49805Z" stroke="#DA0000" stroke-width="2"/>
<path d="M48.2299 63.7668C48.1079 63.7667 47.9872 63.7415 47.8754 63.6926C47.7636 63.6437 47.6631 63.5721 47.5803 63.4825L30.0661 44.5372C29.9493 44.4109 29.8719 44.2533 29.8433 44.0837C29.8148 43.914 29.8363 43.7398 29.9052 43.5822C29.9741 43.4246 30.0875 43.2905 30.2314 43.1964C30.3754 43.1022 30.5436 43.0521 30.7157 43.0521H39.146C39.2726 43.0521 39.3977 43.0793 39.5129 43.1317C39.6281 43.1842 39.7307 43.2608 39.8137 43.3563L45.6671 50.0903C46.2997 48.7381 47.5242 46.4866 49.6731 43.743C52.85 39.6871 58.759 33.722 68.8688 28.3372C69.0642 28.2332 69.2915 28.2061 69.5058 28.2615C69.7202 28.3169 69.906 28.4506 70.0265 28.6363C70.1471 28.822 70.1936 29.0461 70.157 29.2645C70.1203 29.4828 70.0031 29.6794 69.8286 29.8156C69.79 29.8457 65.892 32.9154 61.406 38.5379C57.2773 43.712 51.789 52.1725 49.0883 63.0948C49.0409 63.2867 48.9305 63.4572 48.7749 63.579C48.6193 63.7009 48.4273 63.7671 48.2296 63.7671L48.2299 63.7668Z" fill="#DA0000"/>
</svg>
