<svg width="67" height="67" viewBox="0 0 67 67" fill="none" xmlns="http://www.w3.org/2000/svg">
<path fill-rule="evenodd" clip-rule="evenodd" d="M22.0605 0H44.7513L64.7809 20.0334V58.5034C64.7809 63.1749 60.9595 67 56.2843 67H22.0606C17.3892 67 13.5679 63.1749 13.5679 58.5034V8.49657C13.5679 3.82515 17.3892 0 22.0605 0Z" fill="#E5252A"/>
<path fill-rule="evenodd" clip-rule="evenodd" d="M44.7515 0L64.7811 20.0334H46.911C45.7202 20.0334 44.7515 19.0608 44.7515 17.87V0Z" fill="#B71D21"/>
<path fill-rule="evenodd" clip-rule="evenodd" d="M4.0835 28.5303H50.2269C51.2531 28.5303 52.0916 29.3688 52.0916 30.395V47.323C52.0916 48.3492 51.2531 49.1877 50.2269 49.1877H4.0835C3.0573 49.1877 2.21875 48.3492 2.21875 47.323V30.395C2.21875 29.3688 3.05743 28.5303 4.0835 28.5303Z" fill="#B71D21"/>
<path d="M15.4099 31.9814H11.9293C11.332 31.9814 10.8477 32.4658 10.8477 33.0631V38.7683V40.1735V44.6497C10.8477 45.2471 11.332 45.7314 11.9293 45.7314C12.5267 45.7314 13.011 45.2471 13.011 44.6497V41.2552H15.4098C17.9254 41.2552 19.9721 39.2085 19.9721 36.693V36.5437C19.9722 34.0281 17.9256 31.9814 15.4099 31.9814ZM17.8089 36.6929C17.8089 38.0156 16.7327 39.0917 15.4099 39.0917H13.011V38.7682V34.1447H15.4098C16.7325 34.1447 17.8087 35.2209 17.8087 36.5435V36.6929H17.8089ZM27.0501 31.9814H23.5697C22.9723 31.9814 22.488 32.4658 22.488 33.0631V44.6497C22.488 45.2471 22.9723 45.7314 23.5697 45.7314H27.0501C29.5658 45.7314 31.6124 43.6847 31.6124 41.1692V36.5437C31.6124 34.0281 29.5658 31.9814 27.0501 31.9814ZM29.4491 41.1691C29.4491 42.4918 28.3729 43.5679 27.0501 43.5679H24.6514V34.1447H27.0501C28.3729 34.1447 29.4491 35.2209 29.4491 36.5435V41.1691ZM36.502 34.1448V37.1391H41.5161C42.1135 37.1391 42.5978 37.6234 42.5978 38.2208C42.5978 38.8182 42.1135 39.3025 41.5161 39.3025H36.502V44.6497C36.502 45.2471 36.0177 45.7314 35.4203 45.7314C34.8229 45.7314 34.3386 45.2471 34.3386 44.6497V33.0631C34.3386 32.4658 34.8229 31.9814 35.4203 31.9814H42.3814C42.9787 31.9814 43.463 32.4658 43.463 33.0631C43.463 33.6605 42.9787 34.1448 42.3814 34.1448H36.502Z" fill="white"/>
</svg>
