<svg width="70" height="70" viewBox="0 0 70 70" fill="none" xmlns="http://www.w3.org/2000/svg">
<path d="M67.8382 29.647C67.8382 22.1323 61.7647 16.0588 54.25 16.0588C53.9412 16.0588 53.6323 16.0588 53.3235 16.0588C52.1912 8.74995 45.9117 3.29407 38.397 3.29407C32.1176 3.29407 26.4559 7.20583 24.2941 12.9705C18.1176 10.397 10.8088 14.9264 10.8088 22.1323V22.9558C5.86763 23.6764 2.16174 27.897 2.16174 33.0441C2.16174 38.7058 6.7941 43.2352 12.3529 43.2352H16.0588V54.0441H10.5C10.0882 52.2941 8.44116 50.9558 6.48527 50.9558C4.22057 50.9558 2.36763 52.8088 2.36763 55.0735C2.36763 57.3382 4.22057 59.1911 6.48527 59.1911C8.44116 59.1911 9.98527 57.8529 10.5 56.1029H17.0882C17.7059 56.1029 18.1176 55.6911 18.1176 55.0735V53.0147H26.8676V58.5735C25.1176 58.9852 23.7794 60.6323 23.7794 62.5882C23.7794 64.8529 25.6323 66.7058 27.897 66.7058C30.1617 66.7058 32.0147 64.8529 32.0147 62.5882C32.0147 60.6323 30.6764 59.0882 28.9264 58.5735V51.9852C28.9264 51.3676 28.5147 50.9558 27.897 50.9558H18.1176V43.2352H27.4853C28 52.2941 35.5147 59.4999 44.7794 59.4999C54.3529 59.4999 62.0735 51.7794 62.0735 42.2058C62.0735 41.6911 62.0735 41.2794 61.9706 40.7647C65.6765 38.2941 67.8382 34.0735 67.8382 29.647ZM6.69116 57.2352C5.5588 57.2352 4.63233 56.3088 4.63233 55.1764C4.63233 54.0441 5.5588 53.1176 6.69116 53.1176C7.82351 53.1176 8.74998 54.0441 8.74998 55.1764C8.74998 56.3088 7.82351 57.2352 6.69116 57.2352ZM30.0588 62.5882C30.0588 63.7205 29.1323 64.647 28 64.647C26.8676 64.647 25.9412 63.7205 25.9412 62.5882C25.9412 61.4558 26.8676 60.5294 28 60.5294C29.1323 60.5294 30.0588 61.4558 30.0588 62.5882ZM44.7794 57.4411C36.3382 57.4411 29.5441 50.647 29.5441 42.2058C29.5441 33.7647 36.3382 26.9705 44.7794 26.9705C53.2206 26.9705 60.0147 33.8676 60.0147 42.2058C60.0147 50.647 53.2206 57.4411 44.7794 57.4411ZM61.6617 38.5C59.9117 30.7794 53.0147 24.9117 44.7794 24.9117C35.6176 24.9117 28.1029 32.1176 27.4853 41.1764H12.3529C7.82351 41.1764 4.22057 37.4705 4.22057 33.0441C4.22057 28.6176 7.61763 25.1176 12.0441 24.9117C12.6617 24.9117 13.0735 24.397 12.9706 23.7794C12.8676 23.2647 12.8676 22.7499 12.8676 22.2352C12.8676 16.2647 19.3529 12.5588 24.397 15.4411C25.0147 15.75 25.7353 15.4411 25.9412 14.8235C27.4853 9.26466 32.6323 5.45583 38.5 5.45583C45.2941 5.45583 50.9559 10.6029 51.5735 17.397C51.5735 18.0147 52.1912 18.4264 52.8088 18.3235C53.3235 18.2205 53.8382 18.2205 54.4559 18.2205C60.8382 18.2205 65.9853 23.3676 65.9853 29.7499C65.7794 33.0441 64.2353 36.3382 61.6617 38.5Z" fill="#5C4444"/>
<path d="M19.4558 32.8381C18.8382 32.8381 18.4264 33.3528 18.4264 33.8675C18.4264 34.3823 18.8382 34.897 19.4558 34.897C20.0735 34.897 20.4852 34.3823 20.4852 33.8675C20.4852 33.2499 20.0735 32.8381 19.4558 32.8381Z" fill="#5C4444"/>
<path d="M14.3088 32.8381C13.6912 32.8381 13.2794 33.3528 13.2794 33.8675C13.2794 34.3823 13.6912 34.897 14.3088 34.897C14.9265 34.897 15.3382 34.3823 15.3382 33.8675C15.3382 33.2499 14.9265 32.8381 14.3088 32.8381Z" fill="#5C4444"/>
<path d="M9.16174 32.8381C8.54409 32.8381 8.13232 33.3528 8.13232 33.8675C8.13232 34.3823 8.54409 34.897 9.16174 34.897C9.77938 34.897 10.1911 34.3823 10.1911 33.8675C10.1911 33.2499 9.77938 32.8381 9.16174 32.8381Z" fill="#5C4444"/>
<path d="M51.4706 37.3676H50.75C50.75 35.5147 50.75 35.8235 50.75 35.8235C50.75 32.5294 48.0735 29.8529 44.7794 29.8529C41.4853 29.8529 38.8088 32.5294 38.8088 35.8235V37.3676H38.0882C36.9559 37.3676 36.0294 38.2941 36.0294 39.4264V50.647C36.0294 51.7794 36.9559 52.7058 38.0882 52.7058H51.4706C52.6029 52.7058 53.5294 51.7794 53.5294 50.647V39.4264C53.5294 38.2941 52.6029 37.3676 51.4706 37.3676ZM40.8677 35.8235C40.8677 33.6617 42.6177 31.9117 44.7794 31.9117C46.9412 31.9117 48.6912 33.6617 48.6912 35.8235V37.3676H40.7647L40.8677 35.8235ZM38.0882 50.647V39.4264H51.4706V50.647H38.0882Z" fill="#5C4444"/>
<path d="M44.7793 40.7646C42.9264 40.7646 41.4852 42.2058 41.4852 44.0588C41.4852 45.4999 42.4117 46.7352 43.7499 47.147V48.2794C43.7499 48.897 44.1617 49.3088 44.7793 49.3088C45.397 49.3088 45.8088 48.897 45.8088 48.2794V47.147C47.147 46.7352 48.0735 45.4999 48.0735 44.0588C48.0735 42.2058 46.5293 40.7646 44.7793 40.7646ZM44.7793 45.1911C44.1617 45.1911 43.5441 44.6764 43.5441 43.9558C43.5441 43.2352 44.0588 42.7205 44.7793 42.7205C45.4999 42.7205 46.0146 43.2352 46.0146 43.9558C46.0146 44.6764 45.397 45.1911 44.7793 45.1911Z" fill="#5C4444"/>
<path d="M38.2941 8.33813C34.2794 8.33813 30.6765 10.7058 29.2353 14.5146C29.0294 15.0293 29.2353 15.647 29.8529 15.8528C30.3676 16.0587 30.9853 15.8528 31.1912 15.2352C32.4265 12.2499 35.2059 10.397 38.3971 10.397C39.0147 10.397 39.4265 9.98519 39.4265 9.36755C39.4265 8.7499 38.9118 8.33813 38.2941 8.33813Z" fill="#5C4444"/>
</svg>
