<svg width="70" height="70" viewBox="0 0 70 70" fill="none" xmlns="http://www.w3.org/2000/svg">
<path d="M50.3121 19.1285L51.6379 17.8027C51.8366 17.5956 51.9463 17.3189 51.9433 17.0319C51.9404 16.7449 51.825 16.4706 51.6221 16.2676C51.4191 16.0647 51.1447 15.9494 50.8578 15.9465C50.5708 15.9435 50.2941 16.0532 50.087 16.2519L46.9148 19.4242C46.8129 19.526 46.7321 19.6469 46.677 19.7799C46.6219 19.9129 46.5935 20.0556 46.5935 20.1996C46.5935 20.3436 46.6219 20.4862 46.677 20.6192C46.7321 20.7523 46.8129 20.8732 46.9148 20.975L50.0871 24.1473C50.1888 24.2493 50.3097 24.3301 50.4427 24.3853C50.5758 24.4404 50.7185 24.4687 50.8625 24.4685C51.0778 24.4651 51.2874 24.3987 51.4655 24.2776C51.6435 24.1565 51.7823 23.986 51.8647 23.787C51.9471 23.5881 51.9695 23.3694 51.9292 23.1578C51.8889 22.9463 51.7876 22.7512 51.6378 22.5965L50.3661 21.3247C53.8985 21.4706 57.2381 22.975 59.6879 25.524C62.1377 28.073 63.5085 31.4696 63.5141 35.005C62.7585 53.1948 36.8463 53.1835 36.0967 35.0049C36.0918 30.7889 34.4149 26.7469 31.4337 23.7658C28.4525 20.7846 24.4106 19.1077 20.1946 19.1028C-0.581602 19.9149 -1.04032 49.4257 19.688 50.8815L18.3621 52.2073C18.26 52.3091 18.179 52.4299 18.1237 52.5631C18.0684 52.6962 18.0399 52.8389 18.0398 52.983C18.0397 53.1271 18.068 53.2699 18.1232 53.403C18.1783 53.5362 18.2591 53.6572 18.361 53.7592C18.4629 53.8611 18.5839 53.9419 18.7171 53.997C18.8503 54.0521 18.993 54.0804 19.1372 54.0803C19.2813 54.0802 19.424 54.0517 19.5571 53.9964C19.6902 53.9411 19.8111 53.8601 19.9129 53.7581L23.0852 50.5858C23.187 50.484 23.2678 50.3631 23.323 50.2301C23.3781 50.097 23.4065 49.9544 23.4065 49.8104C23.4065 49.6664 23.3781 49.5238 23.323 49.3907C23.2678 49.2577 23.187 49.1368 23.0852 49.035L19.9129 45.8627C19.7058 45.6639 19.4291 45.5542 19.1421 45.5571C18.8551 45.56 18.5806 45.6753 18.3777 45.8783C18.1747 46.0813 18.0594 46.3557 18.0565 46.6427C18.0536 46.9297 18.1633 47.2065 18.3622 47.4135L19.6339 48.6853C1.86542 47.291 2.34877 21.9891 20.1947 21.2962C23.8292 21.3003 27.3137 22.746 29.8836 25.316C32.4536 27.886 33.8992 31.3705 33.9033 35.005C33.9081 39.221 35.5851 43.263 38.5663 46.2442C41.5474 49.2253 45.5894 50.9023 49.8054 50.9071C70.5814 50.0951 71.0404 20.5842 50.3121 19.1285Z" fill="#5C4444"/>
<path d="M28.9725 32.4292H28.2903C27.9178 31.2675 27.3014 30.1987 26.4825 29.2944L26.8273 28.6958C27.0675 28.2735 27.1313 27.7736 27.005 27.3045C26.8786 26.8355 26.5723 26.4352 26.1526 26.1907L24.861 25.4442C24.4392 25.2021 23.9386 25.1366 23.4687 25.2623C22.9987 25.3879 22.5976 25.6943 22.3528 26.1147L22.01 26.7059C20.8177 26.447 19.5838 26.4463 18.3912 26.7037C18.0751 26.1008 17.6579 25.401 16.9335 25.2536C16.0329 24.9141 14.9856 25.7996 14.2463 26.1832C13.8248 26.4272 13.5173 26.8284 13.3912 27.2988C13.2652 27.7692 13.3308 28.2705 13.5738 28.6925L13.9165 29.2859C13.0947 30.1877 12.4763 31.2557 12.1033 32.4174H11.4168C10.9298 32.4179 10.4629 32.6115 10.1185 32.9559C9.77416 33.3003 9.5805 33.7672 9.58008 34.2542V35.745C9.5805 36.232 9.77416 36.6989 10.1185 37.0433C10.4629 37.3877 10.9298 37.5813 11.4168 37.5817H12.0991C12.4714 38.7432 13.0878 39.8117 13.9069 40.7155L13.562 41.3142C13.3219 41.7364 13.2581 42.2363 13.3844 42.7054C13.5107 43.1744 13.817 43.5747 14.2368 43.8192L15.5284 44.5657C15.9501 44.8085 16.4509 44.8743 16.921 44.7486C17.3912 44.6229 17.7923 44.3161 18.0367 43.8952L18.3783 43.304C19.5709 43.5632 20.8052 43.5643 21.9983 43.3072L22.3421 43.9027C22.5868 44.3231 22.988 44.6296 23.4579 44.7552C23.9279 44.8808 24.4285 44.8154 24.8503 44.5732C25.5475 44.1112 26.8427 43.6659 26.9997 42.7106C27.063 42.3611 27.0485 42.002 26.9575 41.6587C26.8664 41.3154 26.7009 40.9963 26.4728 40.724C27.2947 39.8222 27.9131 38.7542 28.2861 37.5924H28.9726C29.4596 37.592 29.9265 37.3984 30.2708 37.054C30.6152 36.7097 30.8088 36.2428 30.8093 35.7558V34.265C30.8087 33.7782 30.6149 33.3114 30.2706 32.9673C29.9262 32.6231 29.4594 32.4296 28.9725 32.4292ZM28.6159 35.3991C27.7961 35.4103 26.5808 35.1925 26.3668 36.2773C26.092 37.6089 25.3931 38.8155 24.3747 39.7163C23.5376 40.4342 24.3427 41.4019 24.7368 42.1057L24.0619 42.4955C23.7072 41.9349 23.3424 40.8689 22.5251 40.9297C21.1247 41.3917 19.616 41.4104 18.2047 40.9831C17.1661 40.6147 16.7284 41.796 16.3165 42.488L15.6418 42.0982C16.0388 41.3938 16.8353 40.4229 16.0058 39.7099C14.9893 38.8065 14.2921 37.5987 14.0181 36.2666C13.8125 35.1857 12.5789 35.3978 11.7733 35.3884V34.6109C12.5933 34.5997 13.8085 34.8174 14.0224 33.7326C14.2972 32.4011 14.9961 31.1945 16.0145 30.2937C16.8519 29.5755 16.0462 28.6076 15.6514 27.9043L16.3272 27.5144L16.9141 28.533C17.04 28.7523 17.2381 28.9212 17.4746 29.0109C17.7111 29.1005 17.9714 29.1054 18.2111 29.0246C19.502 28.5972 20.8964 28.5983 22.1866 29.0278C23.2234 29.392 23.6613 28.2139 24.0726 27.5219L24.7474 27.9118C24.3507 28.6156 23.5536 29.5874 24.3833 30.299C25.4038 31.2 26.1019 32.4099 26.3711 33.7444C26.4214 33.9922 26.5558 34.215 26.7516 34.3751C26.9473 34.5351 27.1924 34.6226 27.4453 34.6226H28.6159V35.3991Z" fill="#5C4444"/>
<path d="M20.1945 30.2069C18.93 30.2192 17.7214 30.7301 16.8316 31.6286C15.9418 32.5271 15.4426 33.7405 15.4426 35.005C15.4426 36.2696 15.9418 37.483 16.8317 38.3815C17.7215 39.2799 18.9301 39.7908 20.1946 39.803C21.4591 39.7908 22.6676 39.2799 23.5574 38.3814C24.4473 37.4829 24.9464 36.2694 24.9464 35.0049C24.9464 33.7404 24.4472 32.5269 23.5573 31.6285C22.6675 30.73 21.4589 30.2191 20.1945 30.2069ZM20.1945 37.6096C19.5086 37.6021 18.8535 37.3243 18.3712 36.8366C17.8889 36.349 17.6184 35.6908 17.6184 35.0049C17.6184 34.3191 17.8889 33.6609 18.3712 33.1732C18.8535 32.6856 19.5087 32.4079 20.1945 32.4003C20.8807 32.4073 21.5364 32.6849 22.0191 33.1726C22.5019 33.6603 22.7726 34.3188 22.7726 35.005C22.7726 35.6912 22.5018 36.3497 22.0191 36.8374C21.5363 37.3251 20.8806 37.6026 20.1945 37.6096Z" fill="#5C4444"/>
<path d="M42.9563 39.577C43.1633 39.7761 43.4402 39.8861 43.7274 39.8833C44.0146 39.8806 44.2892 39.7652 44.4923 39.5621C44.6954 39.359 44.8107 39.0844 44.8135 38.7972C44.8162 38.51 44.7062 38.2331 44.5071 38.0262L41.4859 35.005L44.5072 31.9837C44.7128 31.778 44.8283 31.4991 44.8283 31.2083C44.8283 30.9174 44.7128 30.6385 44.5072 30.4329C44.3015 30.2272 44.0226 30.1117 43.7318 30.1117C43.4409 30.1117 43.162 30.2272 42.9563 30.4329L39.1597 34.2296C39.0578 34.3314 38.977 34.4522 38.9219 34.5853C38.8668 34.7183 38.8384 34.8609 38.8384 35.005C38.8384 35.149 38.8668 35.2916 38.9219 35.4246C38.977 35.5577 39.0578 35.6785 39.1597 35.7804L42.9563 39.577Z" fill="#5C4444"/>
<path d="M55.1036 39.577C55.2054 39.6789 55.3263 39.7597 55.4594 39.8148C55.5924 39.87 55.735 39.8983 55.879 39.8983C56.0231 39.8983 56.1657 39.87 56.2987 39.8148C56.4318 39.7597 56.5526 39.6789 56.6544 39.577L60.4511 35.7804C60.553 35.6785 60.6338 35.5577 60.6889 35.4246C60.744 35.2916 60.7724 35.149 60.7724 35.005C60.7724 34.8609 60.744 34.7183 60.6889 34.5853C60.6338 34.4522 60.553 34.3314 60.4511 34.2296L56.6544 30.4329C56.5526 30.331 56.4317 30.2503 56.2987 30.1952C56.1656 30.1401 56.023 30.1117 55.879 30.1117C55.735 30.1117 55.5924 30.1401 55.4594 30.1952C55.3264 30.2503 55.2055 30.331 55.1036 30.4329C55.0018 30.5347 54.921 30.6556 54.8659 30.7886C54.8108 30.9217 54.7825 31.0643 54.7825 31.2083C54.7825 31.3523 54.8108 31.4949 54.8659 31.6279C54.921 31.761 55.0018 31.8819 55.1036 31.9837L58.1249 35.005L55.1036 38.0262C55.0018 38.128 54.921 38.2489 54.8658 38.382C54.8107 38.515 54.7823 38.6576 54.7823 38.8016C54.7823 38.9456 54.8107 39.0883 54.8658 39.2213C54.921 39.3543 55.0018 39.4752 55.1036 39.577Z" fill="#5C4444"/>
<path d="M49.4456 40.965L52.2923 29.5761C52.3565 29.2962 52.3084 29.0023 52.1583 28.7575C52.0081 28.5127 51.7679 28.3366 51.4893 28.267C51.2107 28.1975 50.916 28.24 50.6684 28.3854C50.4208 28.5309 50.2401 28.7677 50.1653 29.0449L47.3186 40.4338C47.2481 40.7159 47.2926 41.0144 47.4422 41.2636C47.5919 41.5129 47.8344 41.6925 48.1165 41.7629C48.3985 41.8334 48.697 41.7889 48.9463 41.6393C49.1955 41.4896 49.3751 41.2471 49.4456 40.965Z" fill="#5C4444"/>
</svg>
