<svg width="70" height="70" viewBox="0 0 70 70" fill="none" xmlns="http://www.w3.org/2000/svg">
<path d="M32.9369 25.5213V22.6311C32.9369 18.952 29.9441 15.9578 26.2637 15.9578C22.5846 15.9578 19.5904 18.9506 19.5904 22.6311V25.5213C18.3709 25.5855 17.3975 26.5959 17.3975 27.8318V37.2613C17.3975 38.5383 18.4365 39.5787 19.7148 39.5787H32.8125C34.0908 39.5787 35.1299 38.5396 35.1299 37.2613V27.8318C35.1299 26.5959 34.1564 25.5855 32.9369 25.5213ZM26.2637 17.5998C29.0377 17.5998 31.2963 19.857 31.2963 22.6324V25.5158H21.2324V22.6324C21.2324 19.857 23.4896 17.5998 26.2637 17.5998ZM33.4893 37.2613C33.4893 37.6346 33.1857 37.9381 32.8125 37.9381H19.7148C19.3416 37.9381 19.0381 37.6346 19.0381 37.2613V27.8318C19.0381 27.4586 19.3416 27.1551 19.7148 27.1551H32.8125C33.1857 27.1551 33.4893 27.4586 33.4893 27.8318V37.2613ZM26.2637 29.024C24.9238 29.024 23.8328 30.115 23.8328 31.4549C23.8328 32.5076 24.5055 33.4031 25.4434 33.7408V35.2488C25.4434 35.7014 25.8111 36.0691 26.2637 36.0691C26.7162 36.0691 27.084 35.7014 27.084 35.2488V33.7408C28.0219 33.4031 28.6945 32.5076 28.6945 31.4549C28.6945 30.115 27.6049 29.024 26.2637 29.024ZM26.2637 30.6646C26.6998 30.6646 27.0539 31.0188 27.0539 31.4549C27.0539 31.891 26.6998 32.2451 26.2637 32.2451C25.8275 32.2451 25.4734 31.891 25.4734 31.4549C25.4734 31.0188 25.8289 30.6646 26.2637 30.6646ZM66.6517 47.2473L63.7451 46.6211C63.5824 46.1549 63.3896 45.6928 63.1723 45.2375L64.7855 42.741C65.2094 42.0848 65.1191 41.2412 64.5682 40.6889L61.44 37.5607C60.8877 37.0084 60.0441 36.9195 59.3879 37.3434L56.89 38.9566C56.443 38.7406 55.9809 38.5492 55.5078 38.3824L54.883 35.4771C54.7189 34.7129 54.0586 34.1797 53.2779 34.1797H50.4793V10.5396C50.4793 10.1855 50.251 9.87109 49.9146 9.76035L26.5193 2.0918C26.3539 2.03711 26.1748 2.03711 26.008 2.0918L2.61543 9.76035C2.2791 9.87109 2.05078 10.1855 2.05078 10.5396V36.8238V36.8457C2.30508 46.6307 15.7664 55.1154 25.8699 60.6457C25.993 60.7127 26.1283 60.7469 26.2637 60.7469C26.399 60.7469 26.5344 60.7127 26.6574 60.6457C30.3242 58.6387 33.4059 56.7916 36.065 55.0088L38.3824 55.5078C38.5451 55.974 38.7379 56.4361 38.9553 56.8914L37.342 59.3879C36.9182 60.0441 37.0084 60.8877 37.5594 61.44L40.6875 64.5682C41.2398 65.1205 42.0834 65.2107 42.7396 64.7855L45.2375 63.1723C45.6832 63.3869 46.1467 63.5797 46.6197 63.7465L47.2445 66.6518C47.4086 67.416 48.0689 67.9492 48.8496 67.9492H53.2738C54.0545 67.9492 54.7148 67.416 54.8789 66.6518L55.5037 63.7451C55.9699 63.5811 56.432 63.3896 56.8873 63.1723L59.3838 64.7855C60.04 65.2094 60.8836 65.1205 61.4359 64.5682L64.5641 61.44C65.1164 60.8877 65.2053 60.0441 64.7814 59.3879L63.1682 56.89C63.3842 56.443 63.5756 55.9809 63.7424 55.5078L66.6477 54.883C67.4119 54.7189 67.9451 54.0586 67.9451 53.2779V48.8537C67.9492 48.0717 67.416 47.4113 66.6517 47.2473ZM26.2637 58.99C22.0746 56.685 16.152 53.2342 11.4611 49.2037C6.41074 44.8643 3.79668 40.6957 3.69141 36.8129V11.1344L26.2637 3.73516L48.8359 11.1344V34.1797C48.0621 34.1865 47.4086 34.717 47.2459 35.4758L46.9301 36.9441C46.9328 36.8949 46.9369 36.8457 46.9383 36.7979C46.9383 36.7896 46.9383 36.7801 46.9383 36.7719V13.1018C46.9383 12.7477 46.71 12.4332 46.3736 12.3225L26.5193 5.81328C26.3539 5.75859 26.1748 5.75859 26.008 5.81328L6.15234 12.3225C5.81602 12.4332 5.58769 12.7477 5.58769 13.1018V36.7719V36.7979C5.7709 42.4867 12.5918 49.1477 25.8617 56.5961C25.9861 56.6658 26.1242 56.7014 26.2637 56.7014C26.4031 56.7014 26.5398 56.6658 26.6656 56.5961C29.4971 55.0061 31.9703 53.4967 34.1797 52.0078V53.2752C34.1797 53.5883 34.2672 53.8809 34.4189 54.1311C32.0674 55.6732 29.385 57.2715 26.2637 58.99ZM37.3434 42.741L38.9566 45.2389C38.7406 45.6859 38.5492 46.148 38.3824 46.6211L35.4771 47.2459C34.7129 47.41 34.1797 48.0703 34.1797 48.851V50.0199C31.8814 51.6168 29.2838 53.2314 26.2637 54.9391C10.7639 46.1727 7.34726 40.2213 7.22832 36.7596V13.6965L26.2637 7.45664L45.299 13.6965V36.7596C45.2771 37.3953 45.1473 38.0611 44.9107 38.7461L42.741 37.3434C42.0848 36.9195 41.2412 37.0084 40.6889 37.5607L37.5607 40.6889C37.0084 41.2412 36.9195 42.0861 37.3434 42.741ZM66.3072 53.2779L63.4019 53.9027C62.8387 54.023 62.3875 54.4209 62.1975 54.965C62.0539 55.3752 61.8844 55.7826 61.6943 56.1777C61.4441 56.6973 61.481 57.2975 61.7941 57.7828L63.4074 60.282L60.2779 63.4102L57.7814 61.7969C57.2961 61.4838 56.6973 61.4469 56.1764 61.6971C55.7826 61.8871 55.3752 62.0553 54.9637 62.2002C54.4195 62.3916 54.023 62.8414 53.9014 63.4047L53.2766 66.3086L48.851 66.3072L48.2262 63.402C48.1045 62.8387 47.708 62.3875 47.1639 62.1975C46.7537 62.0539 46.3449 61.8844 45.9512 61.6943C45.7228 61.5836 45.4795 61.5303 45.2361 61.5303C44.9258 61.5303 44.6182 61.6191 44.3461 61.7955L41.8469 63.4088L38.7187 60.2793L40.332 57.7828C40.6451 57.2988 40.6834 56.6986 40.4318 56.1777C40.2418 55.784 40.0723 55.3766 39.9287 54.965C39.7373 54.4209 39.2875 54.0244 38.7242 53.9027L35.8203 53.2766L35.8217 48.851L38.727 48.2262C39.2902 48.1045 39.7414 47.708 39.9314 47.1639C40.075 46.7537 40.2445 46.3463 40.4346 45.9512C40.6848 45.4316 40.6478 44.8314 40.3348 44.3461L38.7215 41.8469L41.851 38.7188L44.3475 40.332C44.8328 40.6451 45.4316 40.6834 45.9525 40.4318C46.3463 40.2418 46.7551 40.0723 47.1652 39.9287C47.7094 39.7373 48.1059 39.2875 48.2275 38.7242L48.8482 35.8176H48.8537L53.2793 35.8189L53.9041 38.7242C54.0244 39.2875 54.4223 39.7387 54.9664 39.9287C55.3766 40.0723 55.784 40.2418 56.1777 40.4318C56.6973 40.682 57.2975 40.6451 57.7828 40.332L60.282 38.7188L63.4101 41.8496L61.7969 44.3461C61.4838 44.8301 61.4455 45.4303 61.6971 45.9512C61.8871 46.3449 62.0566 46.7523 62.2002 47.1625C62.3902 47.7066 62.8414 48.1031 63.4047 48.2248L66.3113 48.851L66.3072 53.2779ZM51.0644 41.8633C45.9908 41.8633 41.8619 45.9908 41.8619 51.0645C41.8619 56.1381 45.9894 60.2656 51.0644 60.2656C56.1381 60.2656 60.2656 56.1381 60.2656 51.0645C60.2656 45.9908 56.1381 41.8633 51.0644 41.8633ZM51.0644 58.625C46.8945 58.625 43.5025 55.233 43.5025 51.0645C43.5025 46.8945 46.8945 43.5039 51.0644 43.5039C55.233 43.5039 58.625 46.8959 58.625 51.0645C58.625 55.233 55.2344 58.625 51.0644 58.625ZM51.8848 45.5383V52.5656C51.8848 53.0182 51.517 53.3859 51.0644 53.3859C50.6119 53.3859 50.2441 53.0182 50.2441 52.5656V45.5383C50.2441 45.0857 50.6119 44.718 51.0644 44.718C51.517 44.718 51.8848 45.0844 51.8848 45.5383ZM51.8848 56.5318V56.5906C51.8848 57.0432 51.517 57.4109 51.0644 57.4109C50.6119 57.4109 50.2441 57.0432 50.2441 56.5906V56.5318C50.2441 56.0793 50.6119 55.7115 51.0644 55.7115C51.517 55.7115 51.8848 56.0793 51.8848 56.5318Z" fill="#5C4444"/>
</svg>
