<svg width="70" height="70" viewBox="0 0 70 70" fill="none" xmlns="http://www.w3.org/2000/svg">
<g clip-path="url(#clip0_279_1231)">
<path d="M23.0645 34.2255L24.469 32.4574C23.3207 31.5452 22.3272 30.494 21.4691 29.3548H26.3624C26.8749 30.9389 27.5083 32.3727 28.2467 33.6124C27.5287 34.0776 26.8467 34.6218 26.2178 35.2506L27.8143 36.8471C31.7772 32.8842 38.2228 32.8842 42.1857 36.8471L43.7822 35.2506C43.1533 34.6218 42.4714 34.0787 41.7533 33.6124C42.4917 32.3727 43.1251 30.9389 43.6377 29.3548H48.5309C47.6785 30.485 46.694 31.5294 45.557 32.436L46.9661 34.2006C51.559 30.5347 54.193 25.0645 54.193 19.1935C54.193 8.61 45.583 0 34.9995 0C24.4159 0 15.8059 8.61 15.8059 19.1935C15.8059 25.0803 18.4512 30.5584 23.0645 34.2255ZM34.9995 2.25806C37.5195 2.25806 39.8024 4.95306 41.2611 9.03226H28.7378C30.1966 4.95306 32.4795 2.25806 34.9995 2.25806ZM41.9543 11.2903C42.4759 13.3463 42.7966 15.6461 42.8756 18.0645H27.1245C27.2035 15.6461 27.5241 13.3463 28.0457 11.2903H41.9543ZM51.8785 18.0645H45.1325C45.0614 15.6495 44.769 13.3677 44.2835 11.2903H49.967C51.052 13.3361 51.7159 15.6314 51.8785 18.0645ZM42.8688 20.3226C42.792 22.7127 42.4849 25.0171 41.9565 27.0968H28.0424C27.514 25.0171 27.208 22.7127 27.1301 20.3226H42.8688ZM24.8675 18.0645H18.1216C18.283 15.6314 18.948 13.3361 20.033 11.2903H25.7166C25.2311 13.3677 24.9387 15.6495 24.8675 18.0645ZM20.0375 27.0968C18.939 25.0194 18.2864 22.7229 18.1272 20.3226H24.8732C24.9466 22.689 25.2424 24.9787 25.7391 27.0968H20.0375ZM39.7482 32.5602C36.7145 31.3092 33.2845 31.3092 30.2507 32.5602C29.6761 31.6185 29.168 30.546 28.739 29.3548H41.2588C40.8309 30.546 40.3228 31.6185 39.7482 32.5602ZM44.2598 27.0968C44.7565 24.9787 45.0535 22.689 45.1257 20.3226H51.8717C51.7136 22.7229 51.0599 25.0194 49.9603 27.0968H44.2598ZM48.5162 9.03226H43.6524C42.9095 6.74823 41.9272 4.78484 40.7553 3.28661C43.8703 4.4179 46.5562 6.43097 48.5162 9.03226ZM29.2448 3.28661C28.0717 4.78484 27.0895 6.74823 26.3477 9.03226H21.4838C23.4438 6.43097 26.1298 4.4179 29.2448 3.28661Z" fill="#5C4444"/>
<path d="M48.5478 60.9677V48.5484C48.5478 45.4356 46.0154 42.9032 42.9027 42.9032H38.1788C37.7114 41.5924 36.4694 40.6451 34.9994 40.6451C33.5294 40.6451 32.2875 41.5924 31.8201 42.9032H27.0962C23.9835 42.9032 21.4511 45.4356 21.4511 48.5484V60.9677C19.5836 60.9677 18.064 62.4874 18.064 64.3548C18.064 67.4676 20.5964 70 23.7091 70H46.2898C49.4025 70 51.9349 67.4676 51.9349 64.3548C51.9349 62.4874 50.4164 60.9677 48.5478 60.9677ZM34.9994 42.9032C35.6227 42.9032 36.1285 43.409 36.1285 44.0322C36.1285 44.6555 35.6227 45.1613 34.9994 45.1613C34.3762 45.1613 33.8704 44.6555 33.8704 44.0322C33.8704 43.409 34.3774 42.9032 34.9994 42.9032ZM23.7091 48.5484C23.7091 46.6809 25.2288 45.1613 27.0962 45.1613H31.8201C32.2875 46.4721 33.5294 47.4193 34.9994 47.4193C36.4694 47.4193 37.7114 46.4721 38.1788 45.1613H42.9027C44.7701 45.1613 46.2898 46.6809 46.2898 48.5484V60.9677H23.7091V48.5484ZM46.2898 67.7419H23.7091C21.8417 67.7419 20.322 66.2222 20.322 64.3548C20.322 63.7316 20.8278 63.2258 21.4511 63.2258H48.5478C49.1711 63.2258 49.6769 63.7316 49.6769 64.3548C49.6769 66.2222 48.1583 67.7419 46.2898 67.7419Z" fill="#5C4444"/>
<path d="M25.9672 49.6774V56.4516C25.9672 57.6969 26.9799 58.7096 28.2252 58.7096H41.7736C43.0189 58.7096 44.0317 57.6969 44.0317 56.4516V49.6774C44.0317 48.4321 43.0189 47.4193 41.7736 47.4193H34.9994H28.2252C26.981 47.4193 25.9672 48.4321 25.9672 49.6774ZM41.7736 49.6774V56.4516H28.2252V49.6774H41.7736Z" fill="#5C4444"/>
<path d="M9.03175 15.8064C10.8992 15.8064 12.4188 14.2867 12.4188 12.4193C12.4188 10.5519 10.8992 9.03223 9.03175 9.03223C7.16433 9.03223 5.64465 10.5519 5.64465 12.4193C5.64465 14.2867 7.16433 15.8064 9.03175 15.8064ZM9.03175 11.2903C9.65498 11.2903 10.1608 11.7961 10.1608 12.4193C10.1608 13.0425 9.65498 13.5484 9.03175 13.5484C8.40852 13.5484 7.90272 13.0425 7.90272 12.4193C7.90272 11.7961 8.40965 11.2903 9.03175 11.2903Z" fill="#5C4444"/>
<path d="M13.0229 8.42821L14.6194 6.83176C13.1279 5.33918 11.1431 4.51611 9.03179 4.51611C6.9205 4.51611 4.93567 5.33918 3.44421 6.83176L5.04067 8.42821C6.1076 7.3624 7.52454 6.77418 9.03179 6.77418C10.5391 6.77418 11.9571 7.3624 13.0229 8.42821Z" fill="#5C4444"/>
<path d="M16.218 5.23425L17.8145 3.6378C12.9721 -1.20462 5.09254 -1.20462 0.250122 3.6378L1.84657 5.23425C5.80948 1.27134 12.2551 1.27134 16.218 5.23425Z" fill="#5C4444"/>
<path d="M64.3543 12.4193C64.3543 10.5519 62.8346 9.03223 60.9672 9.03223C59.0998 9.03223 57.5801 10.5519 57.5801 12.4193C57.5801 14.2867 59.0998 15.8064 60.9672 15.8064C62.8346 15.8064 64.3543 14.2867 64.3543 12.4193ZM60.9672 13.5484C60.3439 13.5484 59.8381 13.0425 59.8381 12.4193C59.8381 11.7961 60.3439 11.2903 60.9672 11.2903C61.5904 11.2903 62.0962 11.7961 62.0962 12.4193C62.0962 13.0425 61.5904 13.5484 60.9672 13.5484Z" fill="#5C4444"/>
<path d="M66.5559 6.83176C65.0634 5.33918 63.0785 4.51611 60.9672 4.51611C58.8559 4.51611 56.8711 5.33918 55.3796 6.83176L56.9761 8.42821C58.043 7.3624 59.46 6.77418 60.9672 6.77418C62.4745 6.77418 63.8925 7.3624 64.9583 8.42821L66.5559 6.83176Z" fill="#5C4444"/>
<path d="M68.1535 5.23425L69.7499 3.6378C64.9075 -1.20462 57.028 -1.20462 52.1855 3.6378L53.782 5.23425C57.7449 1.27134 64.1905 1.27134 68.1535 5.23425Z" fill="#5C4444"/>
<path d="M29.4119 38.4447L31.0083 40.0411C32.0741 38.9753 33.4922 38.3871 34.9994 38.3871C36.5067 38.3871 37.9248 38.9753 38.9906 40.0411L40.587 38.4447C39.0956 36.9521 37.1107 36.129 34.9994 36.129C32.8882 36.129 30.9033 36.9521 29.4119 38.4447Z" fill="#5C4444"/>
<path d="M65.4833 35H63.2252V53.0645H65.9146L61.3985 62.0968H60.5359L56.0198 53.0645H58.7091V35H56.451V50.8065H52.3662L59.1404 64.3548H62.794L69.5681 50.8065H65.4833V35Z" fill="#5C4444"/>
<path d="M7.20498 33.871L0.430786 47.4194H4.51562V63.2258H6.77369V45.1613H4.08433L8.60046 36.129H9.46304L13.9792 45.1613H11.2898V63.2258H13.5479V47.4194H17.6327L10.8585 33.871H7.20498Z" fill="#5C4444"/>
<path d="M59.8382 25.9678C59.8382 26.591 59.3323 27.0968 58.7091 27.0968H55.322V29.3549H58.7091C60.5765 29.3549 62.0962 27.8352 62.0962 25.9678V18.0646H59.8382V25.9678Z" fill="#5C4444"/>
<path d="M11.2898 29.3549H14.6769V27.0968H11.2898C10.6666 27.0968 10.1608 26.591 10.1608 25.9678V18.0646H7.90271V25.9678C7.90271 27.8352 9.42239 29.3549 11.2898 29.3549Z" fill="#5C4444"/>
</g>
<defs>
<clipPath id="clip0_279_1231">
<rect width="70" height="70" fill="white"/>
</clipPath>
</defs>
</svg>
