<svg width="70" height="70" viewBox="0 0 70 70" fill="none" xmlns="http://www.w3.org/2000/svg">
<path d="M67.617 64.024L54.3143 39.7209C54.79 38.351 55.1373 36.9373 55.3848 35.4976H59.191L62.3451 41.1168C61.7107 41.7211 61.3156 42.5728 61.3156 43.5162C61.3156 45.3455 62.8031 46.833 64.6324 46.833C66.4617 46.833 67.9492 45.3455 67.9492 43.5162C67.9492 41.6869 66.4617 40.1994 64.6324 40.1994C64.3357 40.1994 64.0486 40.239 63.7752 40.3129L60.3873 34.2767C60.2424 34.0183 59.9689 33.8584 59.6723 33.8584H55.624C55.8551 31.958 55.9371 30.0289 55.9385 28.1148H61.168C61.5344 29.5476 62.8359 30.6113 64.3822 30.6113C66.2115 30.6113 67.699 29.1238 67.699 27.2945C67.699 25.4652 66.2115 23.9777 64.3822 23.9777C62.8359 23.9777 61.5344 25.0414 61.168 26.4742H55.9221C55.8906 24.9375 55.8195 23.4213 55.7443 21.9474H59.6709C59.9279 21.9474 60.1699 21.8271 60.3244 21.6234L63.3432 17.6449C63.7396 17.8131 64.1758 17.906 64.6324 17.906C66.4617 17.906 67.9492 16.4185 67.9492 14.5892C67.9492 12.7599 66.4617 11.2724 64.6324 11.2724C62.8031 11.2724 61.3156 12.7599 61.3156 14.5892C61.3156 15.3685 61.5863 16.0849 62.0375 16.6523L59.2635 20.3082H55.6596C55.6541 20.2084 55.6486 20.1086 55.6445 20.0088L55.4436 15.9523C55.4244 15.5668 55.1387 15.2455 54.7572 15.184L50.8416 14.5428L56.0492 8.35623C56.4853 8.56814 56.9748 8.68709 57.4916 8.68709C59.3209 8.68709 60.8084 7.19959 60.8084 5.37029C60.8084 3.54099 59.3209 2.05349 57.4916 2.05349C55.6623 2.05349 54.1748 3.54099 54.1748 5.37029C54.1748 6.08943 54.4059 6.75525 54.7955 7.29939L49.2639 13.8687C48.9685 13.5693 48.7443 13.1537 48.5283 12.5617L47.3252 9.25173C47.2076 8.92771 46.8986 8.71169 46.5541 8.71169H23.4445C23.1 8.71169 22.791 8.92771 22.6734 9.25173L21.4703 12.5617C21.2557 13.1537 21.0301 13.5693 20.7348 13.8687L15.2031 7.29802C15.5928 6.75388 15.8238 6.08806 15.8238 5.36892C15.8238 3.53962 14.3363 2.05212 12.507 2.05212C10.6777 2.05212 9.19023 3.53962 9.19023 5.36892C9.19023 7.19822 10.6777 8.68572 12.507 8.68572C13.0238 8.68572 13.5133 8.56677 13.9494 8.35486L19.157 14.5414L15.2414 15.1826C14.86 15.2455 14.5742 15.5654 14.5551 15.951L14.3541 20.0074C14.3486 20.1072 14.3445 20.207 14.3391 20.3068H10.7365L7.9625 16.651C8.41367 16.0836 8.68437 15.3672 8.68437 14.5879C8.68437 12.7586 7.19687 11.2711 5.36758 11.2711C3.53828 11.2697 2.05078 12.7586 2.05078 14.5879C2.05078 16.4172 3.53828 17.9047 5.36758 17.9047C5.82422 17.9047 6.26035 17.8117 6.65684 17.6435L9.67558 21.622C9.83008 21.8271 10.0721 21.9461 10.3291 21.9461H14.2557C14.1805 23.4199 14.1094 24.9361 14.0779 26.4728H8.83203C8.46562 25.0387 7.16406 23.9763 5.61777 23.9763C3.78848 23.9763 2.30098 25.4638 2.30098 27.2931C2.30098 29.1224 3.78848 30.6099 5.61777 30.6099C7.16406 30.6099 8.46562 29.5463 8.83203 28.1135H14.0615C14.0629 30.0262 14.1449 31.9553 14.376 33.857H10.3291C10.0324 33.857 9.75898 34.017 9.61406 34.2754L6.22617 40.3115C5.95273 40.2377 5.66562 40.198 5.36895 40.198C3.53965 40.198 2.05215 41.6855 2.05215 43.5148C2.05215 45.3441 3.53965 46.8316 5.36895 46.8316C7.19824 46.8316 8.68574 45.3441 8.68574 43.5148C8.68574 42.5715 8.28926 41.7197 7.65625 41.1154L10.8104 35.4963H14.618C14.8941 37.1027 15.292 38.6791 15.858 40.1967C16.759 42.6152 18.0141 44.7549 19.4975 46.6703L13.7895 51.5867C13.2508 51.2094 12.5973 50.9879 11.8918 50.9879C10.0625 50.9879 8.575 52.4754 8.575 54.3047C8.575 56.134 10.0625 57.6215 11.8918 57.6215C13.7211 57.6215 15.2086 56.134 15.2086 54.3047C15.2086 53.7742 15.0828 53.2738 14.8613 52.8295L20.5393 47.939C23.8355 51.7221 28.0137 54.5795 31.9785 56.9762L33.6205 57.9687L30.3064 64.0226C29.8457 64.8648 29.8621 65.8219 30.3516 66.6476C30.841 67.4734 31.6723 67.9478 32.6334 67.9478H65.2928C66.2525 67.9478 67.0852 67.4734 67.5746 66.6476C68.0613 65.8232 68.0777 64.8662 67.617 64.024ZM66.3086 43.5162C66.3086 44.4404 65.5566 45.1924 64.6324 45.1924C63.7082 45.1924 62.9562 44.4404 62.9562 43.5162C62.9562 42.592 63.7082 41.84 64.6324 41.84C65.5566 41.84 66.3086 42.592 66.3086 43.5162ZM64.3822 25.617C65.3064 25.617 66.0584 26.3689 66.0584 27.2931C66.0584 28.2174 65.3064 28.9693 64.3822 28.9693C63.458 28.9693 62.706 28.2174 62.706 27.2931C62.706 26.3689 63.458 25.617 64.3822 25.617ZM64.6324 12.9103C65.5566 12.9103 66.3086 13.6623 66.3086 14.5865C66.3086 15.5107 65.5566 16.2627 64.6324 16.2627C63.7082 16.2627 62.9562 15.5107 62.9562 14.5865C62.9562 13.6623 63.7082 12.9103 64.6324 12.9103ZM3.69141 14.5879C3.69141 13.6636 4.44336 12.9117 5.36758 12.9117C6.2918 12.9117 7.04375 13.6636 7.04375 14.5879C7.04375 15.5121 6.2918 16.264 5.36758 16.264C4.44336 16.264 3.69141 15.5121 3.69141 14.5879ZM5.61777 28.9693C4.69355 28.9693 3.9416 28.2174 3.9416 27.2931C3.9416 26.3689 4.69355 25.617 5.61777 25.617C6.54199 25.617 7.29394 26.3689 7.29394 27.2931C7.29394 28.2174 6.54199 28.9693 5.61777 28.9693ZM5.36758 45.1924C4.44336 45.1924 3.69141 44.4404 3.69141 43.5162C3.69141 42.592 4.44336 41.84 5.36758 41.84C6.2918 41.84 7.04375 42.592 7.04375 43.5162C7.04375 44.4404 6.2918 45.1924 5.36758 45.1924ZM11.8891 55.9822C10.9648 55.9822 10.2129 55.2303 10.2129 54.306C10.2129 53.3818 10.9648 52.6299 11.8891 52.6299C12.8133 52.6299 13.5652 53.3818 13.5652 54.306C13.5652 55.2303 12.8133 55.9822 11.8891 55.9822ZM57.4916 3.69138C58.4158 3.69138 59.1678 4.44333 59.1678 5.36755C59.1678 6.29177 58.4158 7.04373 57.4916 7.04373C56.5674 7.04373 55.8154 6.29177 55.8154 5.36755C55.8154 4.44333 56.5674 3.69138 57.4916 3.69138ZM10.8322 5.36755C10.8322 4.44333 11.5842 3.69138 12.5084 3.69138C13.4326 3.69138 14.1846 4.44333 14.1846 5.36755C14.1846 6.29177 13.4326 7.04373 12.5084 7.04373C11.5842 7.04373 10.8322 6.29177 10.8322 5.36755ZM32.8234 55.5721C26.7668 51.9121 20.1975 47.1543 17.392 39.6252C15.2797 33.9541 15.6105 27.5242 15.9305 21.3062C15.951 20.8988 15.9728 20.4914 15.992 20.0881L16.1602 16.6947L19.5139 16.1451C21.3254 15.8484 22.3385 14.972 23.0111 13.1209L24.0187 10.351H45.9799L46.9875 13.1209C47.6601 14.972 48.6732 15.8484 50.4848 16.1451L53.8385 16.6947L54.0066 20.0881C54.0271 20.4914 54.0476 20.8988 54.0682 21.3062C54.3525 26.8365 54.6437 32.5349 53.2178 37.7193L51.2859 34.1892C51.1137 33.8748 50.8881 33.6068 50.6256 33.3935C51.0904 29.6844 50.8867 25.5623 50.631 20.4053L50.6242 20.2562C50.6051 19.8707 50.3193 19.5494 49.9379 19.4879C46.9055 18.9916 44.8984 17.2867 43.8047 14.2789C43.6871 13.9549 43.3781 13.7388 43.0336 13.7388H26.9664C26.6219 13.7388 26.3129 13.9549 26.1953 14.2789C25.1016 17.2867 23.0959 18.9916 20.0621 19.4879C19.6807 19.5508 19.3949 19.8707 19.3758 20.2562L19.3689 20.4039C18.9916 28.0178 18.7182 33.5193 20.5857 38.4931C22.5354 43.6857 26.7203 47.9267 34.5762 52.6736C34.7061 52.7529 34.8537 52.7912 35 52.7912C35.1463 52.7912 35.2939 52.7515 35.4238 52.6736C35.9939 52.3291 36.5449 51.9859 37.0795 51.6441L34.4066 56.5277L32.8234 55.5721ZM38.798 48.5064C37.6619 49.3199 36.3877 50.1607 35 51.0111C27.7594 46.576 23.8971 42.6426 22.1211 37.9162C20.4121 33.3648 20.6281 28.1422 20.9822 20.9795C24.0693 20.2877 26.2678 18.4078 27.5269 15.3781H42.4717C43.7309 18.4078 45.9293 20.2877 49.0164 20.9795C49.2475 25.6525 49.417 29.4519 49.0424 32.8125C49.015 32.8111 48.9877 32.8097 48.9603 32.8097C47.976 32.8097 47.1064 33.3252 46.6334 34.1879L38.798 48.5064ZM66.1609 65.8123C65.9682 66.1363 65.6674 66.3086 65.2914 66.3086H32.6307C32.2533 66.3086 31.9525 66.1377 31.7611 65.8123C31.5684 65.4883 31.5629 65.141 31.7434 64.8115L48.073 34.9767C48.259 34.6377 48.5734 34.4504 48.9603 34.4504C49.3473 34.4504 49.6617 34.6377 49.8477 34.9767L66.1773 64.8115C66.3592 65.1424 66.3523 65.4883 66.1609 65.8123ZM48.8975 42.3049C48.0184 42.3049 47.1406 42.6931 46.55 43.3439C46.0086 43.94 45.7502 44.692 45.824 45.4603L46.9301 56.9119C46.9711 57.333 47.3238 57.6529 47.7463 57.6529H50.0459C50.4684 57.6529 50.8225 57.3316 50.8621 56.9119L51.9682 45.4603C52.042 44.692 51.785 43.9414 51.2435 43.3439C50.6529 42.6931 49.7766 42.3049 48.8975 42.3049ZM50.3357 45.3017L49.3021 56.0123H48.4928L47.4592 45.3017C47.4223 44.9148 47.6055 44.6222 47.7654 44.4459C48.0498 44.1328 48.4736 43.9455 48.8975 43.9455C49.3213 43.9455 49.7451 44.1328 50.0295 44.4459C50.1894 44.6222 50.374 44.9148 50.3357 45.3017ZM48.8975 59.3933C47.6191 59.3933 46.5801 60.4324 46.5801 61.7107C46.5801 62.989 47.6191 64.0281 48.8975 64.0281C50.1758 64.0281 51.2148 62.989 51.2148 61.7107C51.2148 60.4324 50.1744 59.3933 48.8975 59.3933ZM48.8975 62.3861C48.5242 62.3861 48.2207 62.0826 48.2207 61.7094C48.2207 61.3361 48.5242 61.0326 48.8975 61.0326C49.2707 61.0326 49.5742 61.3361 49.5742 61.7094C49.5742 62.0826 49.2707 62.3861 48.8975 62.3861Z" fill="#5C4444"/>
</svg>
