<svg width="204" height="45" viewBox="0 0 204 45" fill="none" xmlns="http://www.w3.org/2000/svg">
<path d="M18.8919 21.7457H6.30123L0 10.8787L6.30123 0H18.8919L25.1931 10.8669L18.8919 21.7339V21.7457ZM7.01056 20.5199H18.1825L23.7626 10.8787L18.1825 1.22577H7.01056L1.43049 10.8669L7.01056 20.5081V20.5199Z" fill="#DA0000"/>
<path d="M39.5216 33.6733H26.9309L20.6297 22.8064L26.9309 11.9395H39.5216L45.8228 22.8064L39.5216 33.6733ZM27.6403 32.4476H38.8122L44.3923 22.8064L38.8122 13.1652H27.6403L22.0602 22.8064L27.6403 32.4476Z" fill="#DA0000"/>
<path d="M18.8919 45.0002H6.30123L0 34.1333L6.30123 23.2664H18.8919L25.1931 34.1333L18.8919 45.0002ZM7.01056 43.7745H18.1825L23.7626 34.1333L18.1825 24.4921H7.01056L1.43049 34.1333L7.01056 43.7745Z" fill="#DA0000"/>
<path d="M56.4789 32.8631V14.2774H49.5184V11.7864H66.2625V14.2774H59.2858V32.8631H56.4951H56.4789Z" fill="#DA0000"/>
<path d="M67.9661 32.8631V11.7864H70.5621V19.3404C71.7789 17.9493 73.3041 17.2375 75.1537 17.2375C76.2894 17.2375 77.2792 17.464 78.1066 17.9007C78.9503 18.3536 79.5344 18.9683 79.9076 19.7447C80.2645 20.5373 80.443 21.6696 80.443 23.1578V32.8308H77.847V23.1578C77.847 21.8637 77.5712 20.9256 77.0033 20.3271C76.4355 19.7447 75.6404 19.4374 74.6183 19.4374C73.8557 19.4374 73.1256 19.6315 72.4441 20.0359C71.7627 20.4403 71.276 20.9741 71.0001 21.6535C70.7081 22.3328 70.5621 23.271 70.5621 24.468V32.8146H67.9661V32.8631Z" fill="#DA0000"/>
<path d="M104.147 27.9458L106.825 28.2693C106.403 29.8383 105.624 31.0353 104.472 31.9088C103.336 32.7661 101.86 33.2028 100.091 33.2028C97.8522 33.2028 96.0837 32.5234 94.7695 31.1323C93.4553 29.7574 92.8063 27.8325 92.8063 25.3415C92.8063 22.8505 93.4715 20.78 94.802 19.3565C96.1324 17.9331 97.8522 17.2375 99.9615 17.2375C102.071 17.2375 103.677 17.9331 104.975 19.3242C106.273 20.7153 106.922 22.6725 106.922 25.1959C106.922 25.3415 106.922 25.5841 106.922 25.8915H95.4996C95.597 27.5737 96.0675 28.8516 96.9274 29.7412C97.7873 30.6309 98.8419 31.0838 100.124 31.0838C101.081 31.0838 101.892 30.8412 102.557 30.3397C103.223 29.8383 103.758 29.0457 104.164 27.9619L104.147 27.9458ZM95.6294 23.7563H104.18C104.066 22.4784 103.742 21.5079 103.206 20.8609C102.379 19.858 101.308 19.3727 99.9939 19.3727C98.8095 19.3727 97.8036 19.7771 96.9923 20.5697C96.1811 21.3623 95.7268 22.4299 95.6457 23.7563H95.6294Z" fill="#DA0000"/>
<path d="M120.048 30.9867C119.091 31.7955 118.166 32.3778 117.273 32.7175C116.381 33.0572 115.424 33.2189 114.418 33.2189C112.73 33.2189 111.449 32.8145 110.54 31.9896C109.631 31.1646 109.177 30.1294 109.177 28.8515C109.177 28.1075 109.356 27.4281 109.696 26.7972C110.037 26.1826 110.491 25.6811 111.043 25.3091C111.595 24.937 112.211 24.6459 112.909 24.468C113.412 24.3386 114.191 24.2091 115.213 24.0797C117.306 23.8371 118.847 23.5298 119.837 23.1901C119.837 22.8342 119.837 22.6078 119.837 22.5107C119.837 21.4593 119.593 20.7152 119.107 20.2785C118.442 19.6962 117.452 19.405 116.154 19.405C114.937 19.405 114.028 19.6153 113.444 20.052C112.86 20.4726 112.438 21.2328 112.146 22.3166L109.615 21.9769C109.842 20.8932 110.232 20.0197 110.751 19.3565C111.286 18.6933 112.049 18.1757 113.039 17.8198C114.045 17.4639 115.197 17.286 116.511 17.286C117.825 17.286 118.88 17.4316 119.691 17.7389C120.502 18.0463 121.102 18.4345 121.492 18.9036C121.881 19.3727 122.141 19.955 122.303 20.6667C122.384 21.1034 122.433 21.896 122.433 23.0445V26.4899C122.433 28.9001 122.482 30.4206 122.595 31.0514C122.709 31.6823 122.92 32.2969 123.244 32.8792H120.535C120.259 32.3454 120.096 31.7146 120.015 31.0029L120.048 30.9867ZM119.837 25.212C118.896 25.6002 117.484 25.9238 115.602 26.1826C114.531 26.3281 113.785 26.5061 113.347 26.7002C112.909 26.8943 112.568 27.1693 112.325 27.5413C112.081 27.9133 111.968 28.3177 111.968 28.7707C111.968 29.4662 112.227 30.0323 112.747 30.5014C113.266 30.9544 114.045 31.197 115.051 31.197C116.056 31.197 116.933 30.9867 117.711 30.55C118.49 30.1132 119.058 29.5147 119.431 28.7545C119.707 28.1722 119.853 27.3149 119.853 26.1664V25.212H119.837Z" fill="#DA0000"/>
<path d="M132.119 30.55L132.492 32.8307C131.762 32.9763 131.113 33.0572 130.529 33.0572C129.588 33.0572 128.858 32.9116 128.339 32.6043C127.819 32.3131 127.446 31.9249 127.235 31.4396C127.024 30.9544 126.911 29.9353 126.911 28.3825V19.5991H125.013V17.5934H126.911V12.9995L129.912 13.048V17.5772H132.087V19.583H129.474V28.5119C129.474 29.2559 129.523 29.725 129.604 29.9353C129.702 30.1456 129.848 30.3073 130.058 30.4367C130.269 30.5662 130.561 30.6309 130.951 30.6309C131.243 30.6309 131.616 30.5985 132.087 30.5338L132.119 30.55Z" fill="#DA0000"/>
<path d="M134.845 32.8631V11.7864H142.779C144.401 11.7864 145.683 11.9967 146.657 12.4334C147.63 12.854 148.393 13.5172 148.944 14.4068C149.496 15.2965 149.772 16.2185 149.772 17.189C149.772 18.0948 149.528 18.936 149.042 19.7286C148.555 20.5212 147.808 21.1682 146.819 21.6535C148.101 22.0255 149.074 22.6725 149.772 23.5622C150.453 24.468 150.81 25.5194 150.81 26.7488C150.81 27.7355 150.599 28.6575 150.177 29.4986C149.755 30.3397 149.236 31.0029 148.62 31.4558C148.003 31.9088 147.241 32.2646 146.3 32.4911C145.375 32.7337 144.239 32.8469 142.892 32.8469H134.829L134.845 32.8631ZM137.636 20.6506H142.211C143.444 20.6506 144.336 20.5697 144.872 20.4079C145.586 20.1977 146.121 19.8418 146.478 19.3565C146.835 18.8713 147.013 18.2566 147.013 17.5125C147.013 16.817 146.851 16.2023 146.51 15.6685C146.17 15.1347 145.699 14.7789 145.066 14.5686C144.434 14.3745 143.363 14.2774 141.854 14.2774H137.636V20.6506ZM137.636 30.3883H142.892C143.801 30.3883 144.434 30.3559 144.791 30.2912C145.44 30.178 145.975 29.9839 146.413 29.7089C146.851 29.4339 147.208 29.0457 147.484 28.5442C147.76 28.0266 147.906 27.4443 147.906 26.7649C147.906 25.9723 147.711 25.293 147.306 24.7106C146.9 24.1283 146.348 23.7239 145.634 23.4813C144.92 23.2387 143.882 23.1254 142.535 23.1254H137.652V30.3721L137.636 30.3883Z" fill="white"/>
<path d="M154.234 32.8631V11.7864H156.829V32.8631H154.234Z" fill="white"/>
<path d="M159.847 25.2282C159.847 22.3975 160.642 20.3108 162.216 18.9521C163.53 17.8198 165.137 17.2537 167.035 17.2537C169.144 17.2537 170.864 17.9492 172.194 19.3241C173.525 20.6991 174.206 22.5916 174.206 25.0179C174.206 26.9752 173.914 28.528 173.314 29.6603C172.73 30.7926 171.87 31.6661 170.734 32.2807C169.598 32.8954 168.365 33.2189 167.035 33.2189C164.893 33.2189 163.157 32.5396 161.843 31.1646C160.529 29.7897 159.864 27.8163 159.864 25.2444L159.847 25.2282ZM162.508 25.2282C162.508 27.1854 162.93 28.6412 163.79 29.6118C164.65 30.5823 165.721 31.0676 167.019 31.0676C168.317 31.0676 169.371 30.5823 170.231 29.5956C171.091 28.6251 171.513 27.1207 171.513 25.1312C171.513 23.2386 171.075 21.8152 170.215 20.8446C169.355 19.8741 168.284 19.3888 167.002 19.3888C165.721 19.3888 164.634 19.8741 163.774 20.8446C162.914 21.8152 162.492 23.271 162.492 25.2282H162.508Z" fill="white"/>
<path d="M187.186 27.2663L189.733 27.5898C189.458 29.3368 188.744 30.7117 187.592 31.7146C186.44 32.7013 185.028 33.2027 183.357 33.2027C181.264 33.2027 179.577 32.5234 178.311 31.1485C177.046 29.7897 176.397 27.8325 176.397 25.2767C176.397 23.6268 176.672 22.1872 177.224 20.9579C177.776 19.7285 178.603 18.7903 179.723 18.1757C180.842 17.561 182.059 17.2537 183.373 17.2537C185.028 17.2537 186.391 17.6742 187.446 18.5154C188.5 19.3565 189.182 20.5373 189.474 22.0901L186.959 22.4784C186.716 21.4593 186.294 20.6829 185.677 20.1653C185.061 19.6476 184.331 19.3888 183.471 19.3888C182.156 19.3888 181.102 19.8579 180.291 20.7961C179.479 21.7343 179.057 23.2063 179.057 25.2282C179.057 27.2501 179.447 28.7706 180.242 29.6927C181.037 30.6147 182.059 31.0838 183.325 31.0838C184.347 31.0838 185.19 30.7764 185.872 30.1456C186.553 29.5309 186.991 28.5604 187.17 27.2663H187.186Z" fill="white"/>
<path d="M191.177 32.8631V11.7864H193.773V23.8048L199.923 17.5934H203.281L197.424 23.2548L203.865 32.8631H200.669L195.607 25.0665L193.773 26.8135V32.8631H191.177Z" fill="white"/>
<path d="M92.4656 17.4963C91.9626 17.3345 91.4596 17.2537 90.9567 17.2537C90.3077 17.2537 89.7236 17.4316 89.1882 17.7713C88.6527 18.111 88.0686 18.8227 87.4359 19.9065V17.5933H84.9535V32.8631H87.7117V24.8723C87.7117 23.7724 87.8577 22.7695 88.166 21.8475C88.3769 21.249 88.7176 20.7799 89.1882 20.4241C89.6749 20.0844 90.2103 19.9065 90.8106 19.9065C91.3623 19.9065 91.9139 20.0359 92.4493 20.2785V17.4639L92.4656 17.4963Z" fill="#DA0000"/>
<path d="M122.514 29.7089C122.514 29.7089 122.4 30.9221 124.38 30.5824V32.9926C124.38 32.9926 120.681 34.6263 120.307 32.0544C120.113 30.7765 121.719 29.0295 121.719 29.0295L122.514 29.7089Z" fill="#DA0000"/>
</svg>
