<svg width="31" height="28" viewBox="0 0 31 28" fill="none" xmlns="http://www.w3.org/2000/svg">
<path d="M6.10132 13.5088H22.288C22.5713 14.5657 23.5274 15.3455 24.6632 15.3455C26.0201 15.3455 27.1237 14.2305 27.1237 12.8593C27.1237 11.4882 26.0201 10.3731 24.6632 10.3731C23.562 10.3731 22.6289 11.1064 22.3156 12.1167H20.0809L15.0816 2.63984C14.6485 1.81809 13.8053 0 12.8838 0C11.9622 0 11.119 1.81809 10.6859 2.63984L9.15849 5.53575L5.49311 12.4845C5.38022 12.701 5.38483 12.9594 5.50923 13.1713C5.63364 13.3808 5.85711 13.5088 6.09901 13.5088H6.10132ZM24.6609 11.7652C25.2576 11.7652 25.7437 12.2564 25.7437 12.8593C25.7437 13.4623 25.2576 13.9534 24.6609 13.9534C24.0642 13.9534 23.5781 13.4623 23.5781 12.8593C23.5781 12.2564 24.0642 11.7652 24.6609 11.7652ZM9.69297 7.48653L10.1353 6.64849L11.9023 3.29631C12.0982 2.92384 12.4668 2.70037 12.8838 2.70037C13.3008 2.70037 13.6694 2.92384 13.8652 3.29631L16.0746 7.48653L18.5166 12.1167H7.24862L9.69067 7.48653H9.69297ZM27.9807 15.5457C26.8633 15.5457 25.9188 16.3023 25.6193 17.3359H10.9509C10.6974 17.3359 10.4624 17.4779 10.3426 17.7037L6.39851 25.1809C6.06446 25.8164 5.50463 26.282 4.8227 26.4892C4.14076 26.6987 3.42197 26.6265 2.79303 26.289C2.16409 25.9514 1.70332 25.3858 1.49598 24.6967C1.28863 24.01 1.35775 23.2813 1.6918 22.6458L2.84371 20.4646C3.00729 20.4995 3.17546 20.5181 3.34825 20.5181C4.7052 20.5181 5.80873 19.4031 5.80873 18.0319C5.80873 16.6608 4.7052 15.5457 3.34825 15.5457C1.9913 15.5457 0.88777 16.6608 0.88777 18.0319C0.88777 18.728 1.17344 19.3565 1.6296 19.8081L0.47769 21.9917C-0.0314542 22.9554 -0.13743 24.0612 0.178193 25.1041C0.493817 26.147 1.19187 27.0037 2.14566 27.5181C2.74004 27.8394 3.38742 28 4.044 28C4.43796 28 4.83652 27.9395 5.22586 27.8208C6.26028 27.5042 7.10809 26.7965 7.61723 25.8351L11.3655 18.728H14.4043L18.1526 25.8351C18.6617 26.7988 19.5096 27.5042 20.544 27.8208C20.9333 27.9395 21.3296 28 21.7258 28C22.3801 28 23.0298 27.837 23.6219 27.5181C25.587 26.4613 26.3358 23.982 25.2898 21.9917L23.5666 18.728H25.617C25.9165 19.7616 26.861 20.5181 27.9784 20.5181C29.3353 20.5181 30.4389 19.4031 30.4389 18.0319C30.4389 16.6608 29.3353 15.5457 27.9784 15.5457H27.9807ZM3.35055 16.9401C3.94724 16.9401 4.43335 17.4313 4.43335 18.0343C4.43335 18.6372 3.94724 19.1284 3.35055 19.1284C2.75386 19.1284 2.26776 18.6372 2.26776 18.0343C2.26776 17.4313 2.75386 16.9401 3.35055 16.9401ZM24.0757 22.6482C24.7646 23.9588 24.2715 25.5953 22.9745 26.2913C22.3479 26.6289 21.6268 26.701 20.9471 26.4915C20.2652 26.282 19.7054 25.8164 19.3713 25.1832L15.9663 18.7303H22.0069L24.0757 22.6482ZM27.9807 19.1284C27.384 19.1284 26.8979 18.6372 26.8979 18.0343C26.8979 17.4313 27.384 16.9401 27.9807 16.9401C28.5774 16.9401 29.0635 17.4313 29.0635 18.0343C29.0635 18.6372 28.5774 19.1284 27.9807 19.1284Z" fill="url(#paint0_linear_106_353)"/>
<defs>
<linearGradient id="paint0_linear_106_353" x1="15.2198" y1="28.6541" x2="15.2198" y2="0.835716" gradientUnits="userSpaceOnUse">
<stop stop-color="#1C75BC"/>
<stop offset="0.13" stop-color="#2384B9"/>
<stop offset="0.72" stop-color="#47C7AD"/>
<stop offset="1" stop-color="#55E2A9"/>
</linearGradient>
</defs>
</svg>
