<svg width="39" height="39" viewBox="0 0 39 39" fill="none" xmlns="http://www.w3.org/2000/svg">
<path d="M15.98 18.45H5.33L0 9.23L5.33 0H15.98L21.31 9.22L15.98 18.44V18.45ZM5.93 17.41H15.38L20.1 9.23L15.38 1.04H5.93L1.21 9.22L5.93 17.4V17.41Z" fill="#DA0000"/>
<path d="M33.43 28.5699H22.78L17.45 19.3499L22.78 10.1299H33.43L38.76 19.3499L33.43 28.5699ZM23.38 27.5299H32.83L37.55 19.3499L32.83 11.1699H23.38L18.66 19.3499L23.38 27.5299Z" fill="#DA0000"/>
<path d="M15.98 38.18H5.33L0 28.96L5.33 19.74H15.98L21.31 28.96L15.98 38.18ZM5.93 37.14H15.38L20.1 28.96L15.38 20.78H5.93L1.21 28.96L5.93 37.14Z" fill="#DA0000"/>
</svg>
