<svg width="167" height="39" viewBox="0 0 167 39" fill="none" xmlns="http://www.w3.org/2000/svg">
<path d="M15.98 18.45H5.33L0 9.23L5.33 0H15.98L21.31 9.22L15.98 18.44V18.45ZM5.93 17.41H15.38L20.1 9.23L15.38 1.04H5.93L1.21 9.22L5.93 17.4V17.41Z" fill="#DA0000"/>
<path d="M33.43 28.57H22.78L17.45 19.35L22.78 10.13H33.43L38.76 19.35L33.43 28.57ZM23.38 27.53H32.83L37.55 19.35L32.83 11.17H23.38L18.66 19.35L23.38 27.53Z" fill="#DA0000"/>
<path d="M15.98 38.18H5.33L0 28.96L5.33 19.74H15.98L21.31 28.96L15.98 38.18ZM5.93 37.14H15.38L20.1 28.96L15.38 20.78H5.93L1.21 28.96L5.93 37.14Z" fill="#DA0000"/>
<path d="M41.8876 20.8824V5.11351H36V3H50.1632V5.11351H44.2619V20.8824H41.9013H41.8876Z" fill="#DA0000"/>
<path d="M51.6042 20.8824V3H53.8001V9.40913C54.8294 8.22886 56.1195 7.625 57.684 7.625C58.6447 7.625 59.4819 7.81714 60.1818 8.18769C60.8954 8.57196 61.3895 9.09348 61.7052 9.75223C62.0071 10.4247 62.158 11.3854 62.158 12.648V20.855H59.9622V12.648C59.9622 11.5501 59.7289 10.7541 59.2485 10.2463C58.7682 9.75223 58.0957 9.49148 57.2311 9.49148C56.5861 9.49148 55.9685 9.65616 55.3921 9.99926C54.8157 10.3424 54.404 10.7953 54.1706 11.3717C53.9236 11.9481 53.8001 12.7441 53.8001 13.7597V20.8413H51.6042V20.8824Z" fill="#DA0000"/>
<path d="M82.2089 16.7103L84.4733 16.9848C84.1165 18.316 83.4578 19.3316 82.4834 20.0727C81.5227 20.8001 80.2738 21.1706 78.7779 21.1706C76.8839 21.1706 75.388 20.5942 74.2764 19.414C73.1647 18.2474 72.6158 16.6143 72.6158 14.5008C72.6158 12.3872 73.1785 10.6306 74.3038 9.42285C75.4292 8.21514 76.8839 7.625 78.6681 7.625C80.4522 7.625 81.8109 8.21514 82.9088 9.3954C84.0067 10.5757 84.5557 12.2363 84.5557 14.3772C84.5557 14.5008 84.5557 14.7066 84.5557 14.9674H74.894C74.9763 16.3947 75.3743 17.4789 76.1017 18.2337C76.8291 18.9885 77.7211 19.3728 78.8053 19.3728C79.615 19.3728 80.3012 19.1669 80.8639 18.7415C81.4266 18.316 81.8795 17.6436 82.2226 16.724L82.2089 16.7103ZM75.0038 13.1558H82.2363C82.1403 12.0716 81.8658 11.2482 81.4129 10.6992C80.713 9.8483 79.8072 9.43657 78.6955 9.43657C77.6937 9.43657 76.8428 9.77968 76.1566 10.4522C75.4704 11.1246 75.0861 12.0304 75.0175 13.1558H75.0038Z" fill="#DA0000"/>
<path d="M95.6585 19.2904C94.8487 19.9766 94.0665 20.4707 93.3116 20.7589C92.5568 21.0471 91.7471 21.1844 90.8962 21.1844C89.4689 21.1844 88.3847 20.8413 87.6162 20.1413C86.8476 19.4414 86.4633 18.5631 86.4633 17.4789C86.4633 16.8476 86.6143 16.2712 86.9025 15.7359C87.1907 15.2144 87.575 14.789 88.0416 14.4733C88.5082 14.1576 89.0297 13.9106 89.6199 13.7597C90.0453 13.6499 90.7041 13.5401 91.5687 13.4303C93.3391 13.2244 94.6429 12.9637 95.4801 12.6754C95.4801 12.3735 95.4801 12.1814 95.4801 12.099C95.4801 11.207 95.2742 10.5757 94.8625 10.2051C94.2998 9.71106 93.4626 9.46402 92.3647 9.46402C91.3354 9.46402 90.5668 9.64244 90.0728 10.013C89.5787 10.3698 89.2219 11.0148 88.9748 11.9343L86.8339 11.6461C87.026 10.7266 87.3554 9.98554 87.7946 9.42285C88.2475 8.86016 88.8925 8.42099 89.7297 8.11906C90.5806 7.81714 91.555 7.66617 92.6666 7.66617C93.7783 7.66617 94.6703 7.78969 95.3565 8.05045C96.0427 8.3112 96.5505 8.64058 96.8799 9.03857C97.2093 9.43657 97.4289 9.93064 97.5661 10.5345C97.6347 10.905 97.6759 11.5775 97.6759 12.5519V15.4752C97.6759 17.52 97.7171 18.8101 97.8131 19.3453C97.9092 19.8806 98.0876 20.4021 98.3621 20.8962H96.0702C95.8369 20.4433 95.6996 19.908 95.631 19.3042L95.6585 19.2904ZM95.4801 14.391C94.6841 14.7203 93.4901 14.9948 91.8981 15.2144C90.9923 15.3379 90.361 15.4889 89.9904 15.6536C89.6199 15.8183 89.3317 16.0516 89.1258 16.3672C88.92 16.6829 88.8239 17.026 88.8239 17.4102C88.8239 18.0004 89.0435 18.4807 89.4826 18.8787C89.9218 19.263 90.5806 19.4689 91.4315 19.4689C92.2823 19.4689 93.0234 19.2904 93.6822 18.9199C94.341 18.5493 94.8213 18.0416 95.1369 17.3965C95.3703 16.9025 95.4938 16.1751 95.4938 15.2007V14.391H95.4801Z" fill="#DA0000"/>
<path d="M105.869 18.9199L106.185 20.855C105.567 20.9785 105.018 21.0471 104.524 21.0471C103.728 21.0471 103.111 20.9236 102.671 20.6629C102.232 20.4158 101.917 20.0864 101.738 19.6747C101.56 19.263 101.464 18.3984 101.464 17.0809V9.62872H99.858V7.92694H101.464V4.0293L104.003 4.07047V7.91321H105.842V9.61499H103.632V17.1907C103.632 17.822 103.673 18.22 103.742 18.3984C103.824 18.5768 103.948 18.714 104.126 18.8238C104.305 18.9336 104.552 18.9885 104.881 18.9885C105.128 18.9885 105.444 18.9611 105.842 18.9062L105.869 18.9199Z" fill="#DA0000"/>
<path d="M108.175 20.8824V3H114.886C116.258 3 117.342 3.17841 118.166 3.54896C118.989 3.90578 119.634 4.46847 120.101 5.2233C120.568 5.97812 120.801 6.76039 120.801 7.58383C120.801 8.35238 120.595 9.06603 120.183 9.73851C119.772 10.411 119.14 10.9599 118.303 11.3717C119.387 11.6873 120.211 12.2363 120.801 12.9911C121.377 13.7597 121.679 14.6517 121.679 15.6947C121.679 16.5319 121.501 17.3142 121.144 18.0278C120.787 18.7415 120.348 19.3042 119.827 19.6884C119.305 20.0727 118.66 20.3746 117.864 20.5668C117.082 20.7726 116.121 20.8687 114.982 20.8687H108.161L108.175 20.8824ZM110.535 10.5208H114.406C115.449 10.5208 116.203 10.4522 116.656 10.3149C117.26 10.1365 117.713 9.83458 118.015 9.42286C118.317 9.01114 118.468 8.48962 118.468 7.85832C118.468 7.26818 118.331 6.74666 118.042 6.29377C117.754 5.84088 117.356 5.53895 116.821 5.36054C116.286 5.19585 115.38 5.11351 114.104 5.11351H110.535V10.5208ZM110.535 18.7827H114.982C115.75 18.7827 116.286 18.7552 116.588 18.7003C117.137 18.6042 117.589 18.4396 117.96 18.2062C118.331 17.9729 118.633 17.6436 118.866 17.2181C119.099 16.7789 119.223 16.2849 119.223 15.7085C119.223 15.036 119.058 14.4596 118.715 13.9655C118.372 13.4714 117.905 13.1284 117.301 12.9225C116.697 12.7166 115.819 12.6206 114.68 12.6206H110.549V18.7689L110.535 18.7827Z" fill="#252525"/>
<path d="M124.575 20.8824V3H126.771V20.8824H124.575Z" fill="#252525"/>
<path d="M129.324 14.4047C129.324 12.003 129.996 10.2326 131.327 9.07976C132.439 8.11907 133.798 7.63873 135.403 7.63873C137.187 7.63873 138.642 8.22887 139.768 9.39541C140.893 10.562 141.469 12.1677 141.469 14.2263C141.469 15.8869 141.222 17.2044 140.715 18.1651C140.22 19.1258 139.493 19.8669 138.532 20.3884C137.572 20.9099 136.529 21.1844 135.403 21.1844C133.592 21.1844 132.123 20.608 131.012 19.4414C129.9 18.2749 129.337 16.6005 129.337 14.4184L129.324 14.4047ZM131.574 14.4047C131.574 16.0653 131.931 17.3005 132.658 18.1239C133.386 18.9474 134.292 19.3591 135.39 19.3591C136.488 19.3591 137.38 18.9473 138.107 18.1102C138.834 17.2867 139.191 16.0104 139.191 14.3223C139.191 12.7166 138.821 11.5089 138.093 10.6855C137.366 9.86203 136.46 9.45031 135.376 9.45031C134.292 9.45031 133.372 9.86203 132.645 10.6855C131.917 11.5089 131.561 12.7441 131.561 14.4047H131.574Z" fill="#252525"/>
<path d="M152.449 16.1339L154.603 16.4084C154.37 17.8906 153.766 19.0571 152.792 19.908C151.817 20.7452 150.623 21.1706 149.21 21.1706C147.439 21.1706 146.012 20.5942 144.942 19.4277C143.871 18.2749 143.322 16.6143 143.322 14.4459C143.322 13.046 143.555 11.8246 144.022 10.7815C144.489 9.73851 145.189 8.94252 146.136 8.421C147.082 7.89949 148.112 7.63873 149.223 7.63873C150.623 7.63873 151.776 7.99556 152.668 8.70921C153.56 9.42286 154.137 10.4247 154.384 11.7422L152.256 12.0716C152.051 11.207 151.694 10.5482 151.172 10.1091C150.651 9.66989 150.033 9.45031 149.306 9.45031C148.194 9.45031 147.302 9.8483 146.616 10.6443C145.93 11.4403 145.573 12.6892 145.573 14.4047C145.573 16.1202 145.902 17.4103 146.575 18.1925C147.247 18.9748 148.112 19.3728 149.182 19.3728C150.047 19.3728 150.761 19.112 151.337 18.5768C151.913 18.0553 152.284 17.2318 152.435 16.1339H152.449Z" fill="#252525"/>
<path d="M155.825 20.8824V3H158.021V13.197L163.222 7.92694H166.063L161.108 12.7304L166.557 20.8824H163.853L159.571 14.2674L158.021 15.7496V20.8824H155.825Z" fill="#252525"/>
<path d="M72.3276 7.84459C71.9021 7.70735 71.4767 7.63873 71.0512 7.63873C70.5023 7.63873 70.0082 7.7897 69.5553 8.0779C69.1024 8.36611 68.6083 8.96997 68.0731 9.88948V7.92694H65.9733V20.8824H68.3064V14.1028C68.3064 13.1695 68.4299 12.3186 68.6907 11.5364C68.8691 11.0286 69.1573 10.6306 69.5553 10.3286C69.967 10.0404 70.4199 9.88948 70.9277 9.88948C71.3943 9.88948 71.8609 9.99927 72.3138 10.2051V7.81714L72.3276 7.84459Z" fill="#DA0000"/>
<path d="M97.7445 18.2063C97.7445 18.2063 97.6484 19.2356 99.3228 18.9474V20.9922C99.3228 20.9922 96.1937 22.3784 95.878 20.1962C95.7134 19.112 97.072 17.6298 97.072 17.6298L97.7445 18.2063Z" fill="#DA0000"/>
<path d="M42.503 34H40.6342V28.2273H42.5622C43.1278 28.2273 43.6136 28.3428 44.0195 28.574C44.4254 28.8032 44.7364 29.133 44.9525 29.5633C45.1705 29.9918 45.2795 30.5057 45.2795 31.1052C45.2795 31.7065 45.1695 32.2233 44.9497 32.6555C44.7317 33.0877 44.416 33.4203 44.0026 33.6533C43.5892 33.8844 43.0893 34 42.503 34ZM41.5052 33.2389H42.4551C42.8948 33.2389 43.2603 33.1563 43.5516 32.9909C43.8428 32.8237 44.0608 32.5822 44.2055 32.2665C44.3502 31.9489 44.4226 31.5618 44.4226 31.1052C44.4226 30.6523 44.3502 30.268 44.2055 29.9523C44.0627 29.6366 43.8494 29.397 43.5657 29.2336C43.2819 29.0701 42.9296 28.9883 42.5087 28.9883H41.5052V33.2389ZM46.3625 34V28.2273H49.9818V28.9771H47.2335V30.7359H49.7929V31.4829H47.2335V33.2502H50.0156V34H46.3625ZM51.1452 34V28.2273H54.725V28.9771H52.0162V30.7359H54.4685V31.4829H52.0162V34H51.1452ZM55.7961 34V28.2273H59.4153V28.9771H56.6671V30.7359H59.2264V31.4829H56.6671V33.2502H59.4491V34H55.7961ZM65.2381 28.2273V34H64.4375L61.5033 29.7663H61.4497V34H60.5787V28.2273H61.3849L64.322 32.4666H64.3755V28.2273H65.2381ZM68.3774 34H66.5086V28.2273H68.4366C69.0022 28.2273 69.488 28.3428 69.8939 28.574C70.2998 28.8032 70.6108 29.133 70.8269 29.5633C71.0448 29.9918 71.1538 30.5057 71.1538 31.1052C71.1538 31.7065 71.0439 32.2233 70.8241 32.6555C70.6061 33.0877 70.2904 33.4203 69.877 33.6533C69.4636 33.8844 68.9637 34 68.3774 34ZM67.3796 33.2389H68.3295C68.7692 33.2389 69.1347 33.1563 69.426 32.9909C69.7172 32.8237 69.9352 32.5822 70.0799 32.2665C70.2246 31.9489 70.297 31.5618 70.297 31.1052C70.297 30.6523 70.2246 30.268 70.0799 29.9523C69.9371 29.6366 69.7238 29.397 69.4401 29.2336C69.1563 29.0701 68.804 28.9883 68.383 28.9883H67.3796V33.2389ZM73.1079 28.2273V34H72.2369V28.2273H73.1079ZM79.0357 28.2273V34H78.2352L75.3009 29.7663H75.2473V34H74.3763V28.2273H75.1825L78.1196 32.4666H78.1731V28.2273H79.0357ZM84.2129 30.051C84.1584 29.88 84.0852 29.7268 83.9931 29.5915C83.9029 29.4544 83.7948 29.3378 83.6689 29.242C83.543 29.1443 83.3993 29.0701 83.2377 29.0193C83.0779 28.9686 82.9022 28.9432 82.7106 28.9432C82.3855 28.9432 82.0923 29.0268 81.8311 29.1941C81.5699 29.3613 81.3632 29.6066 81.211 29.9298C81.0607 30.2511 80.9855 30.6448 80.9855 31.1108C80.9855 31.5787 81.0616 31.9743 81.2138 32.2975C81.366 32.6207 81.5746 32.8659 81.8396 33.0332C82.1045 33.2004 82.4061 33.284 82.7444 33.284C83.0582 33.284 83.3316 33.2202 83.5646 33.0924C83.7995 32.9646 83.9809 32.7842 84.1086 32.5512C84.2383 32.3163 84.3031 32.0401 84.3031 31.7225L84.5286 31.7648H82.8769V31.046H85.1459V31.7027C85.1459 32.1876 85.0426 32.6085 84.8359 32.9655C84.6311 33.3207 84.3473 33.595 83.9846 33.7886C83.6238 33.9821 83.2104 34.0789 82.7444 34.0789C82.222 34.0789 81.7635 33.9587 81.3689 33.7181C80.9761 33.4776 80.6698 33.1365 80.45 32.6949C80.2301 32.2515 80.1202 31.7253 80.1202 31.1165C80.1202 30.6561 80.1841 30.2427 80.3118 29.8762C80.4396 29.5098 80.6191 29.1988 80.8502 28.9432C81.0832 28.6858 81.3566 28.4894 81.6705 28.3541C81.9862 28.2169 82.331 28.1483 82.7049 28.1483C83.0169 28.1483 83.3072 28.1944 83.5759 28.2865C83.8465 28.3785 84.087 28.5091 84.2975 28.6783C84.5098 28.8474 84.6855 29.0485 84.8246 29.2815C84.9637 29.5126 85.0576 29.7691 85.1065 30.051H84.2129ZM88.0675 28.9771V28.2273H92.5352V28.9771H90.734V34H89.8659V28.9771H88.0675ZM98.2889 31.1136C98.2889 31.73 98.1761 32.2599 97.9507 32.7034C97.7252 33.145 97.416 33.4851 97.0233 33.7238C96.6324 33.9605 96.188 34.0789 95.69 34.0789C95.1902 34.0789 94.7439 33.9605 94.3512 33.7238C93.9603 33.4851 93.6521 33.1441 93.4266 32.7006C93.2011 32.2571 93.0884 31.7281 93.0884 31.1136C93.0884 30.4973 93.2011 29.9683 93.4266 29.5267C93.6521 29.0832 93.9603 28.7431 94.3512 28.5063C94.7439 28.2677 95.1902 28.1483 95.69 28.1483C96.188 28.1483 96.6324 28.2677 97.0233 28.5063C97.416 28.7431 97.7252 29.0832 97.9507 29.5267C98.1761 29.9683 98.2889 30.4973 98.2889 31.1136ZM97.4264 31.1136C97.4264 30.6439 97.3503 30.2483 97.1981 29.927C97.0477 29.6037 96.841 29.3595 96.5779 29.1941C96.3167 29.0268 96.0208 28.9432 95.69 28.9432C95.3574 28.9432 95.0605 29.0268 94.7993 29.1941C94.5381 29.3595 94.3314 29.6037 94.1792 29.927C94.0289 30.2483 93.9537 30.6439 93.9537 31.1136C93.9537 31.5834 94.0289 31.9799 94.1792 32.3031C94.3314 32.6245 94.5381 32.8688 94.7993 33.036C95.0605 33.2014 95.3574 33.284 95.69 33.284C96.0208 33.284 96.3167 33.2014 96.5779 33.036C96.841 32.8688 97.0477 32.6245 97.1981 32.3031C97.3503 31.9799 97.4264 31.5834 97.4264 31.1136ZM99.3748 28.2273H100.432L102.27 32.7147H102.337L104.175 28.2273H105.232V34H104.403V29.8227H104.35L102.647 33.9915H101.96L100.257 29.8198H100.204V34H99.3748V28.2273ZM111.513 31.1136C111.513 31.73 111.4 32.2599 111.175 32.7034C110.949 33.145 110.64 33.4851 110.247 33.7238C109.856 33.9605 109.412 34.0789 108.914 34.0789C108.414 34.0789 107.968 33.9605 107.575 33.7238C107.184 33.4851 106.876 33.1441 106.651 32.7006C106.425 32.2571 106.312 31.7281 106.312 31.1136C106.312 30.4973 106.425 29.9683 106.651 29.5267C106.876 29.0832 107.184 28.7431 107.575 28.5063C107.968 28.2677 108.414 28.1483 108.914 28.1483C109.412 28.1483 109.856 28.2677 110.247 28.5063C110.64 28.7431 110.949 29.0832 111.175 29.5267C111.4 29.9683 111.513 30.4973 111.513 31.1136ZM110.65 31.1136C110.65 30.6439 110.574 30.2483 110.422 29.927C110.272 29.6037 110.065 29.3595 109.802 29.1941C109.541 29.0268 109.245 28.9432 108.914 28.9432C108.581 28.9432 108.285 29.0268 108.023 29.1941C107.762 29.3595 107.555 29.6037 107.403 29.927C107.253 30.2483 107.178 30.6439 107.178 31.1136C107.178 31.5834 107.253 31.9799 107.403 32.3031C107.555 32.6245 107.762 32.8688 108.023 33.036C108.285 33.2014 108.581 33.284 108.914 33.284C109.245 33.284 109.541 33.2014 109.802 33.036C110.065 32.8688 110.272 32.6245 110.422 32.3031C110.574 31.9799 110.65 31.5834 110.65 31.1136ZM112.599 34V28.2273H114.656C115.104 28.2273 115.475 28.3043 115.77 28.4584C116.067 28.6125 116.288 28.8258 116.435 29.0983C116.582 29.3689 116.655 29.6817 116.655 30.0369C116.655 30.3902 116.581 30.7012 116.432 30.9699C116.286 31.2367 116.064 31.4444 115.767 31.5928C115.472 31.7413 115.101 31.8155 114.654 31.8155H113.095V31.0657H114.575C114.857 31.0657 115.086 31.0253 115.262 30.9445C115.441 30.8637 115.572 30.7463 115.654 30.5922C115.737 30.4381 115.778 30.253 115.778 30.0369C115.778 29.8189 115.736 29.6301 115.651 29.4703C115.569 29.3106 115.438 29.1885 115.26 29.1039C115.083 29.0175 114.851 28.9742 114.563 28.9742H113.47V34H112.599ZM115.449 31.3955L116.875 34H115.883L114.485 31.3955H115.449ZM117.715 34V28.2273H119.772C120.22 28.2273 120.591 28.3043 120.886 28.4584C121.183 28.6125 121.404 28.8258 121.551 29.0983C121.698 29.3689 121.771 29.6817 121.771 30.0369C121.771 30.3902 121.697 30.7012 121.548 30.9699C121.402 31.2367 121.18 31.4444 120.883 31.5928C120.588 31.7413 120.217 31.8155 119.77 31.8155H118.211V31.0657H119.691C119.973 31.0657 120.202 31.0253 120.378 30.9445C120.557 30.8637 120.688 30.7463 120.77 30.5922C120.853 30.4381 120.894 30.253 120.894 30.0369C120.894 29.8189 120.852 29.6301 120.767 29.4703C120.685 29.3106 120.554 29.1885 120.376 29.1039C120.199 29.0175 119.967 28.9742 119.679 28.9742H118.586V34H117.715ZM120.564 31.3955L121.991 34H120.999L119.6 31.3955H120.564ZM127.845 31.1136C127.845 31.73 127.732 32.2599 127.507 32.7034C127.281 33.145 126.972 33.4851 126.58 33.7238C126.189 33.9605 125.744 34.0789 125.246 34.0789C124.747 34.0789 124.3 33.9605 123.907 33.7238C123.517 33.4851 123.208 33.1441 122.983 32.7006C122.757 32.2571 122.645 31.7281 122.645 31.1136C122.645 30.4973 122.757 29.9683 122.983 29.5267C123.208 29.0832 123.517 28.7431 123.907 28.5063C124.3 28.2677 124.747 28.1483 125.246 28.1483C125.744 28.1483 126.189 28.2677 126.58 28.5063C126.972 28.7431 127.281 29.0832 127.507 29.5267C127.732 29.9683 127.845 30.4973 127.845 31.1136ZM126.983 31.1136C126.983 30.6439 126.907 30.2483 126.754 29.927C126.604 29.6037 126.397 29.3595 126.134 29.1941C125.873 29.0268 125.577 28.9432 125.246 28.9432C124.914 28.9432 124.617 29.0268 124.356 29.1941C124.094 29.3595 123.888 29.6037 123.736 29.927C123.585 30.2483 123.51 30.6439 123.51 31.1136C123.51 31.5834 123.585 31.9799 123.736 32.3031C123.888 32.6245 124.094 32.8688 124.356 33.036C124.617 33.2014 124.914 33.284 125.246 33.284C125.577 33.284 125.873 33.2014 126.134 33.036C126.397 32.8688 126.604 32.6245 126.754 32.3031C126.907 31.9799 126.983 31.5834 126.983 31.1136ZM129.992 34L128.391 28.2273H129.307L130.431 32.6978H130.485L131.655 28.2273H132.562L133.732 32.7006H133.786L134.908 28.2273H135.826L134.223 34H133.346L132.131 29.6761H132.086L130.871 34H129.992ZM136.882 33.2108L136.84 33.518C136.812 33.7435 136.764 33.9784 136.696 34.2227C136.63 34.4688 136.562 34.6972 136.49 34.9076C136.421 35.1181 136.363 35.2853 136.318 35.4094H135.721C135.745 35.2929 135.779 35.135 135.822 34.9358C135.865 34.7385 135.908 34.5177 135.949 34.2734C135.99 34.0291 136.021 33.7801 136.042 33.5265L136.07 33.2108H136.882ZM139.863 28.9771V28.2273H144.33V28.9771H142.529V34H141.661V28.9771H139.863ZM150.084 31.1136C150.084 31.73 149.971 32.2599 149.746 32.7034C149.52 33.145 149.211 33.4851 148.819 33.7238C148.428 33.9605 147.983 34.0789 147.485 34.0789C146.985 34.0789 146.539 33.9605 146.146 33.7238C145.756 33.4851 145.447 33.1441 145.222 32.7006C144.996 32.2571 144.884 31.7281 144.884 31.1136C144.884 30.4973 144.996 29.9683 145.222 29.5267C145.447 29.0832 145.756 28.7431 146.146 28.5063C146.539 28.2677 146.985 28.1483 147.485 28.1483C147.983 28.1483 148.428 28.2677 148.819 28.5063C149.211 28.7431 149.52 29.0832 149.746 29.5267C149.971 29.9683 150.084 30.4973 150.084 31.1136ZM149.222 31.1136C149.222 30.6439 149.146 30.2483 148.993 29.927C148.843 29.6037 148.636 29.3595 148.373 29.1941C148.112 29.0268 147.816 28.9432 147.485 28.9432C147.153 28.9432 146.856 29.0268 146.595 29.1941C146.333 29.3595 146.127 29.6037 145.974 29.927C145.824 30.2483 145.749 30.6439 145.749 31.1136C145.749 31.5834 145.824 31.9799 145.974 32.3031C146.127 32.6245 146.333 32.8688 146.595 33.036C146.856 33.2014 147.153 33.284 147.485 33.284C147.816 33.284 148.112 33.2014 148.373 33.036C148.636 32.8688 148.843 32.6245 148.993 32.3031C149.146 31.9799 149.222 31.5834 149.222 31.1136ZM153.039 34H151.17V28.2273H153.098C153.664 28.2273 154.149 28.3428 154.555 28.574C154.961 28.8032 155.272 29.133 155.488 29.5633C155.706 29.9918 155.815 30.5057 155.815 31.1052C155.815 31.7065 155.705 32.2233 155.486 32.6555C155.268 33.0877 154.952 33.4203 154.538 33.6533C154.125 33.8844 153.625 34 153.039 34ZM152.041 33.2389H152.991C153.431 33.2389 153.796 33.1563 154.087 32.9909C154.379 32.8237 154.597 32.5822 154.741 32.2665C154.886 31.9489 154.958 31.5618 154.958 31.1052C154.958 30.6523 154.886 30.268 154.741 29.9523C154.599 29.6366 154.385 29.397 154.102 29.2336C153.818 29.0701 153.465 28.9883 153.045 28.9883H152.041V33.2389ZM157.099 34H156.175L158.252 28.2273H159.258L161.336 34H160.411L158.779 29.2758H158.734L157.099 34ZM157.254 31.7394H160.253V32.4723H157.254V31.7394ZM161.135 28.2273H162.124L163.632 30.8515H163.694L165.202 28.2273H166.192L164.097 31.7338V34H163.229V31.7338L161.135 28.2273Z" fill="#555555"/>
</svg>
