<?xml version="1.0" encoding="UTF-8"?>
<svg id="Layer_2" data-name="Layer 2" xmlns="http://www.w3.org/2000/svg" viewBox="0 0 834.1 201.88">
  <defs>
    <style>
      .cls-1 {
        fill: #4db9ef;
      }

      .cls-1, .cls-2, .cls-3, .cls-4, .cls-5, .cls-6, .cls-7, .cls-8, .cls-9, .cls-10 {
        stroke-width: 0px;
      }

      .cls-2 {
        fill: #7840c1;
      }

      .cls-3 {
        fill: #3d9cc1;
      }

      .cls-4 {
        fill: #d67838;
      }

      .cls-5 {
        fill: #a7a9ac;
      }

      .cls-6 {
        fill: #d13470;
      }

      .cls-7 {
        fill: #9768f2;
      }

      .cls-8 {
        fill: #fff;
      }

      .cls-9 {
        fill: #ef994b;
      }

      .cls-10 {
        fill: #f75cbc;
      }
    </style>
  </defs>
  <g id="Layer_1-2" data-name="Layer 1">
    <g>
      <polygon class="cls-9" points="154.27 105.29 140.54 129.01 135.64 137.47 130.37 146.6 130.37 146.61 130 147.22 126.51 153.25 69.36 153.25 81.15 129.01 119.3 129.01 119.83 128.08 133.01 105.29 154.27 105.29"/>
      <polygon class="cls-4" points="153.04 201.88 96.99 201.88 87.16 184.56 82.54 176.43 81.37 174.39 69.36 153.25 126.51 153.25 138.29 175.9 138.58 176.43 145.07 187.85 153.04 201.88"/>
      <polygon class="cls-2" points="168.02 89.53 131.81 89.53 118.08 60.87 153.27 60.87 168.02 89.53"/>
      <polygon class="cls-6" points="119.3 129.01 81.15 129.01 66.38 98.72 30.41 98.72 26.48 91.82 14.06 68.85 87.01 68.85 119.3 129.01"/>
      <polygon class="cls-1" points="66.38 98.72 47.3 137.47 .08 137.47 4.95 129.01 18.68 105.29 22.48 98.72 66.38 98.72"/>
      <polygon class="cls-10" points="122.51 7.49 113.11 23.72 111.47 26.57 99.47 47.32 87.01 68.85 14.06 68.85 17.75 62.45 26.51 47.32 31.88 38.02 38.51 26.57 46.04 13.55 49.56 7.49 122.51 7.49"/>
      <polygon class="cls-7" points="169.24 33.26 153.27 60.87 118.08 60.87 134.05 33.26 169.24 33.26"/>
      <polygon class="cls-3" points="68.31 176.43 22.1 176.43 8.91 153.25 5.48 147.22 0 137.58 .08 137.47 47.3 137.47 68.31 176.43"/>
      <path class="cls-8" d="M236.1,64.01c4.36-2.53,9.58-3.79,15.65-3.79,7.29,0,13.86,1.94,19.71,5.81,5.85,3.87,10.46,9.49,13.83,16.84,3.37,7.36,5.05,16.03,5.05,26.02s-1.68,18.67-5.05,26.02c-3.37,7.36-7.98,12.97-13.83,16.84-5.85,3.87-12.42,5.81-19.71,5.81-6.07,0-11.29-1.26-15.65-3.79-4.36-2.53-7.7-5.98-10.02-10.36v58.45h-36.77V61.4h36.77v12.97c2.32-4.38,5.66-7.83,10.02-10.36ZM249.27,97.11c-2.54-2.81-5.8-4.21-9.77-4.21s-7.23,1.41-9.77,4.21c-2.54,2.81-3.81,6.74-3.81,11.79s1.27,8.98,3.81,11.79c2.54,2.81,5.8,4.21,9.77,4.21s7.23-1.4,9.77-4.21c2.54-2.81,3.81-6.74,3.81-11.79s-1.27-8.98-3.81-11.79Z"/>
      <rect class="cls-8" x="301.94" y="61.4" width="36.77" height="95"/>
      <path class="cls-8" d="M416.56,156.4l-15.73-21.39-11.76,21.39h-40.41l31.3-50.03-32.96-44.97h41.08l15.73,21.56,11.93-21.56h40.41l-32.3,48.85,33.79,46.15h-41.08Z"/>
      <g>
        <path class="cls-8" d="M476.92,151c-6.46-4.49-10.08-10.89-10.86-19.2h7.75c.56,5.95,3.28,10.67,8.17,14.15,4.88,3.48,11.54,5.22,19.96,5.22,6.96,0,12.49-1.77,16.59-5.31,4.1-3.54,6.15-7.89,6.15-13.05,0-3.59-1.09-6.54-3.28-8.84-2.19-2.3-4.91-4.07-8.17-5.31-3.26-1.23-7.69-2.58-13.31-4.04-6.74-1.79-12.19-3.56-16.34-5.31-4.16-1.74-7.69-4.35-10.61-7.83-2.92-3.48-4.38-8.14-4.38-13.98,0-4.27,1.29-8.22,3.87-11.88,2.58-3.65,6.17-6.54,10.78-8.67,4.6-2.13,9.82-3.2,15.66-3.2,9.54,0,17.27,2.39,23.16,7.16,5.9,4.77,9.07,11.37,9.52,19.79h-7.58c-.34-6.06-2.7-11-7.07-14.82-4.38-3.82-10.44-5.73-18.19-5.73-6.51,0-11.9,1.68-16.17,5.05-4.27,3.37-6.4,7.47-6.4,12.3,0,4.27,1.21,7.72,3.62,10.36,2.41,2.64,5.39,4.66,8.93,6.06,3.54,1.41,8.22,2.89,14.06,4.46,6.4,1.68,11.54,3.34,15.41,4.97,3.87,1.63,7.16,3.99,9.85,7.07,2.69,3.09,4.04,7.22,4.04,12.38,0,4.72-1.29,8.99-3.87,12.8-2.58,3.82-6.18,6.8-10.78,8.93-4.61,2.13-9.77,3.2-15.5,3.2-10.22,0-18.56-2.25-25.01-6.74Z"/>
        <path class="cls-8" d="M556.09,85.82c3.76-7.07,8.98-12.52,15.67-16.34,6.68-3.82,14.29-5.73,22.82-5.73,9.66,0,17.85,2.36,24.59,7.07,6.74,4.72,11.45,10.72,14.15,18.02v-23.92h7.58v91.46h-7.58v-24.09c-2.7,7.41-7.44,13.5-14.23,18.28-6.8,4.77-14.96,7.16-24.51,7.16-8.53,0-16.14-1.94-22.82-5.81-6.68-3.87-11.9-9.37-15.67-16.51-3.76-7.13-5.64-15.41-5.64-24.85s1.88-17.69,5.64-24.76ZM628.35,89.44c-3.31-6.12-7.83-10.84-13.56-14.15-5.73-3.31-12.13-4.97-19.2-4.97s-13.93,1.6-19.54,4.8c-5.62,3.2-10,7.83-13.14,13.9-3.15,6.06-4.72,13.25-4.72,21.56s1.57,15.5,4.72,21.56c3.14,6.06,7.55,10.72,13.22,13.98,5.67,3.26,12.15,4.88,19.46,4.88s13.5-1.66,19.29-4.97c5.78-3.31,10.3-8.03,13.56-14.15,3.25-6.12,4.88-13.22,4.88-21.31s-1.66-15.02-4.97-21.14Z"/>
        <path class="cls-8" d="M736.4,73.1c6.85,6.68,10.27,16.59,10.27,29.73v53.56h-7.41v-53.06c0-10.89-2.75-19.23-8.25-25.01-5.5-5.78-12.97-8.67-22.4-8.67s-17.77,3.15-23.67,9.43c-5.9,6.29-8.84,15.61-8.84,27.96v49.35h-7.58v-91.46h7.58v19.37c2.58-6.85,6.88-12.1,12.89-15.75,6.01-3.65,12.94-5.47,20.8-5.47,10.89,0,19.76,3.34,26.61,10.02Z"/>
        <path class="cls-8" d="M778.93,151c-6.46-4.49-10.08-10.89-10.86-19.2h7.75c.56,5.95,3.28,10.67,8.17,14.15,4.88,3.48,11.54,5.22,19.96,5.22,6.96,0,12.49-1.77,16.59-5.31,4.1-3.54,6.15-7.89,6.15-13.05,0-3.59-1.09-6.54-3.28-8.84-2.19-2.3-4.91-4.07-8.17-5.31-3.26-1.23-7.69-2.58-13.31-4.04-6.74-1.79-12.19-3.56-16.34-5.31-4.16-1.74-7.69-4.35-10.61-7.83-2.92-3.48-4.38-8.14-4.38-13.98,0-4.27,1.29-8.22,3.87-11.88,2.58-3.65,6.17-6.54,10.78-8.67,4.6-2.13,9.82-3.2,15.66-3.2,9.54,0,17.27,2.39,23.16,7.16,5.9,4.77,9.07,11.37,9.52,19.79h-7.58c-.34-6.06-2.7-11-7.07-14.82-4.38-3.82-10.44-5.73-18.19-5.73-6.51,0-11.9,1.68-16.17,5.05-4.27,3.37-6.4,7.47-6.4,12.3,0,4.27,1.21,7.72,3.62,10.36,2.41,2.64,5.39,4.66,8.93,6.06,3.54,1.41,8.22,2.89,14.06,4.46,6.4,1.68,11.54,3.34,15.41,4.97,3.87,1.63,7.16,3.99,9.85,7.07,2.69,3.09,4.04,7.22,4.04,12.38,0,4.72-1.29,8.99-3.87,12.8-2.58,3.82-6.18,6.8-10.78,8.93-4.61,2.13-9.77,3.2-15.5,3.2-10.22,0-18.56-2.25-25.01-6.74Z"/>
      </g>
      <polygon class="cls-5" points="340.07 47.65 314.23 47.65 304.43 27.2 329.55 27.2 340.07 47.65"/>
      <polygon class="cls-8" points="340.95 7.49 329.55 27.2 304.43 27.2 315.82 7.49 340.95 7.49"/>
    </g>
  </g>
</svg>