<?xml version="1.0" encoding="UTF-8"?>
<svg id="Layer_1" xmlns="http://www.w3.org/2000/svg" version="1.1" viewBox="0 0 512 512">
  <!-- Generator: Adobe Illustrator 29.8.1, SVG Export Plug-In . SVG Version: 2.1.1 Build 2)  -->
  <defs>
    <style>
      .st0 {
        fill: #da0000;
      }
    </style>
  </defs>
  <g>
    <path class="st0" d="M77.82,369.78c-1.59,0-3.19-.23-4.66-.68l-54.5-15.13c-4.55-1.25-8.31-4.21-10.7-8.42-2.28-4.1-2.84-8.99-1.59-13.54l42.1-146.09c2.62-9.22,12.4-14.68,21.73-12.06l54.5,15.13c4.55,1.25,8.42,4.21,10.7,8.42s2.84,8.99,1.59,13.54l-42.1,146.09c-2.28,7.62-9.44,12.74-17.07,12.74ZM76.12,358.17c3.3.91,6.71-1.02,7.74-4.32l42.1-146.09c.46-1.59.23-3.3-.57-4.78s-2.16-2.5-3.75-2.96l-54.5-15.25c-3.3-.91-6.71,1.02-7.74,4.32l-42.1,146.09c-.46,1.59-.23,3.3.57,4.78.8,1.48,2.16,2.5,3.75,2.96l54.5,15.25Z"/>
    <path class="st0" d="M85.11,244.05c-1.71,0-3.41-.23-5.12-.68-4.89-1.37-8.99-4.55-11.49-8.99s-3.19-9.56-1.82-14.45c2.84-10.13,13.43-16.04,23.55-13.31s16.04,13.43,13.31,23.55c-1.37,4.89-4.55,8.99-8.99,11.49-3.07,1.59-6.26,2.39-9.44,2.39h0ZM84.99,217.2c-1.37,0-2.62.34-3.75,1.02-1.82,1.02-3.07,2.62-3.64,4.66-1.14,4.1,1.25,8.31,5.35,9.44,1.93.57,4.1.34,5.92-.68s3.07-2.62,3.64-4.66c1.14-4.1-1.25-8.31-5.35-9.44-.8-.23-1.48-.34-2.16-.34h0Z"/>
    <g>
      <path class="st0" d="M434.18,369.78c-7.62,0-14.79-5.01-16.95-12.74l-42.1-146.09c-1.25-4.55-.8-9.33,1.59-13.54s6.14-7.17,10.7-8.42l54.5-15.13c9.33-2.62,19,2.84,21.73,12.06l42.1,146.09c1.25,4.55.8,9.33-1.59,13.54-2.28,4.1-6.14,7.17-10.7,8.42l-54.5,15.13c-1.59.46-3.19.68-4.78.68h0ZM446.58,184.55c-.57,0-1.14.11-1.71.23l-54.5,15.13c-1.59.46-2.96,1.48-3.75,2.96s-1.02,3.19-.57,4.78l42.1,146.09c.91,3.3,4.44,5.23,7.74,4.32l54.5-15.13c1.59-.46,2.96-1.48,3.75-2.96s1.02-3.19.57-4.78l-42.1-146.09c-.8-2.73-3.41-4.55-6.03-4.55h0Z"/>
      <path class="st0" d="M426.55,244.05c-8.31,0-16.04-5.58-18.43-13.99-1.37-4.89-.68-10.01,1.71-14.45,2.5-4.44,6.6-7.62,11.49-8.99,10.13-2.84,20.71,3.19,23.55,13.31s-3.19,20.71-13.31,23.55c-1.59.34-3.3.57-5.01.57ZM426.55,217.2c-.68,0-1.37.11-2.05.34-1.93.57-3.64,1.82-4.66,3.64s-1.25,3.87-.68,5.8,1.82,3.64,3.64,4.66,3.87,1.25,5.8.68c4.1-1.14,6.49-5.35,5.35-9.44-.91-3.41-3.98-5.69-7.4-5.69h0Z"/>
    </g>
    <g>
      <path class="st0" d="M366.93,370.46c-3.07,0-5.58-2.39-5.69-5.46-.11-3.19,2.28-5.8,5.46-5.92.34,0,28.44-1.25,50.4-16.5,2.62-1.82,6.14-1.14,7.96,1.48s1.14,6.14-1.48,7.96c-24.8,17.18-55.18,18.43-56.43,18.43h-.23,0Z"/>
      <g>
        <g>
          <path class="st0" d="M110.25,363.86c-1.48,0-2.96-.57-3.98-1.71l-16.84-16.84c-2.16-2.28-2.16-5.8,0-8.08s5.8-2.28,8.08,0l16.84,16.84c2.16,2.28,2.16,5.8,0,8.08-1.14,1.14-2.62,1.71-4.1,1.71Z"/>
          <path class="st0" d="M221.98,465.92c-7.4,0-14.9-2.84-20.48-8.53l-9.67-9.67c-2.16-2.28-2.16-5.8,0-8.08s5.8-2.28,8.08,0l9.67,9.67c6.83,6.83,18.09,6.83,24.92,0,3.3-3.3,5.12-7.74,5.12-12.4,0-2.28-.46-4.55-1.25-6.6-.91-2.16-2.16-4.1-3.87-5.8-2.16-2.28-2.16-5.8,0-8.08s5.8-2.28,8.08,0l21.62,21.62c6.83,6.83,18.09,6.83,24.92,0,3.3-3.3,5.12-7.74,5.12-12.52s-1.82-9.1-5.12-12.52c-2.28-2.28-2.28-5.8,0-8.08s5.8-2.28,8.08,0c5.46,5.46,8.53,12.74,8.53,20.48s-2.96,15.02-8.53,20.48c-11.26,11.26-29.7,11.26-40.96,0l-5.35-5.35c-.8,6.26-3.64,12.17-8.31,16.73-5.8,5.8-13.2,8.65-20.59,8.65Z"/>
          <path class="st0" d="M318.92,430.99c-7.4,0-14.79-2.84-20.48-8.53l-53.02-53.02c-2.16-2.28-2.16-5.8,0-8.08s5.8-2.28,8.08,0l53.02,53.02c6.83,6.83,18.09,6.83,24.92,0s6.83-18.09,0-24.92l-53.02-53.02c-2.28-2.28-2.28-5.8,0-8.08s5.8-2.28,8.08,0l53.02,53.02c11.26,11.26,11.26,29.7,0,40.96-5.69,5.92-13.2,8.65-20.59,8.65Z"/>
          <path class="st0" d="M343.95,390.14c-7.74,0-15.02-2.96-20.48-8.53-2.28-2.28-2.28-5.8,0-8.08s5.8-2.28,8.08,0c3.3,3.3,7.74,5.12,12.52,5.12s9.1-1.82,12.52-5.12c2.62-2.62,4.32-6.03,4.89-9.67.11-.91.23-1.82.23-2.84,0-4.66-1.82-9.1-5.12-12.52l-84.31-84.31c-6.14-6.14-15.13-8.42-23.44-6.14-4.32,1.25-8.08,3.53-11.15,6.83l-26.4,28.67c-.11,0-.11.11-.11.11-12.4,12.4-32.43,12.4-44.83,0-9.9-9.9-12.17-24.92-5.58-37.32,8.42-15.82,22.98-37.66,44.6-51.2.11,0,.11-.11.23-.11,17.75-11.15,37.21-14.79,57.8-11.15,3.07.46,45.97,7.05,79.64,30.04l36.41-15.7c2.84-1.25,6.26.11,7.51,2.96s-.11,6.26-2.96,7.51l-39.37,16.95c-1.82.8-3.98.57-5.58-.57-32.2-23.21-76.91-29.92-77.37-29.92h-.23c-17.86-3.3-34.7,0-49.95,9.67-.11,0-.11.11-.23.11-19.34,12.29-32.65,32.2-40.39,46.76-4.21,7.96-2.73,17.52,3.53,23.89,7.85,7.85,20.71,7.96,28.67.11l26.17-28.44c4.44-4.78,10.13-8.31,16.38-10.13,12.29-3.41,25.6,0,34.59,8.99l84.31,84.31c5.46,5.46,8.53,12.74,8.53,20.48,0,1.59-.11,3.19-.34,4.66-.91,6.03-3.75,11.49-8.08,15.93-5.69,5.58-12.97,8.65-20.71,8.65h0Z"/>
        </g>
        <path class="st0" d="M129.37,223c-2.62,0-4.89-1.82-5.58-4.44-.68-3.07,1.25-6.14,4.32-6.83,36.98-8.42,78.62-7.4,80.44-7.28,3.07.11,5.58,2.62,5.58,5.69s-2.62,5.8-5.8,5.69c-1.71,0-41.98-1.14-77.6,7.05-.57,0-.91.11-1.37.11h0Z"/>
      </g>
    </g>
    <g>
      <path class="st0" d="M123.45,386.5c-5.58,0-10.81-2.16-14.79-6.14s-6.14-9.22-6.14-14.79,2.16-10.81,6.14-14.79l17.98-17.98c8.08-8.08,21.39-8.08,29.47,0,3.98,3.98,6.14,9.22,6.14,14.79s-2.16,10.81-6.14,14.79c-2.16,2.28-5.8,2.28-8.08,0-2.16-2.28-2.16-5.8,0-8.08,1.82-1.82,2.73-4.21,2.73-6.71s-1.02-4.89-2.73-6.71c-3.75-3.75-9.67-3.75-13.43,0l-17.98,17.98c-1.82,1.82-2.73,4.21-2.73,6.71s1.02,4.89,2.73,6.71c1.82,1.82,4.21,2.73,6.71,2.73s4.89-1.02,6.71-2.73c2.16-2.28,5.8-2.28,8.08,0,2.16,2.28,2.16,5.8,0,8.08-3.87,3.98-9.1,6.14-14.68,6.14h0Z"/>
      <path class="st0" d="M138.58,414.38c-5.35,0-10.7-2.05-14.79-6.14-3.98-3.98-6.14-9.22-6.14-14.79s2.16-10.81,6.14-14.79l24.35-24.35c8.08-8.08,21.39-8.08,29.47,0,3.98,3.98,6.14,9.22,6.14,14.79s-2.16,10.81-6.14,14.79c-2.16,2.28-5.8,2.28-8.08,0-2.16-2.28-2.16-5.8,0-8.08,1.82-1.82,2.73-4.21,2.73-6.71s-1.02-4.89-2.73-6.71c-3.75-3.75-9.78-3.75-13.43,0l-24.23,24.46c-1.82,1.82-2.73,4.21-2.73,6.71s1.02,4.89,2.73,6.71c3.75,3.75,9.67,3.75,13.43,0,2.16-2.28,5.8-2.28,8.08,0s2.16,5.8,0,8.08c-4.1,3.98-9.44,6.03-14.79,6.03h0Z"/>
      <path class="st0" d="M152.92,442.94c-5.58,0-10.81-2.16-14.79-6.14s-6.14-9.22-6.14-14.79,2.16-10.81,6.14-14.79l31.4-31.4c8.08-8.08,21.39-8.08,29.47,0,3.98,3.98,6.14,9.22,6.14,14.79s-2.16,10.81-6.14,14.79l-31.4,31.4c-3.87,3.98-9.1,6.14-14.68,6.14ZM184.43,381.16c-2.39,0-4.89.91-6.71,2.73l-31.52,31.4c-1.82,1.82-2.73,4.21-2.73,6.71s1.02,4.89,2.73,6.71c1.82,1.82,4.21,2.73,6.71,2.73s4.89-1.02,6.71-2.73l31.4-31.4c1.82-1.82,2.73-4.21,2.73-6.71s-1.02-4.89-2.73-6.71c-1.82-1.82-4.21-2.73-6.6-2.73Z"/>
      <path class="st0" d="M183.52,455.22c-5.58,0-10.81-2.16-14.79-6.14s-6.14-9.22-6.14-14.79,2.16-10.81,6.14-14.79c2.16-2.28,5.8-2.28,8.08,0,2.16,2.28,2.16,5.8,0,8.08-1.82,1.82-2.73,4.21-2.73,6.71s1.02,4.89,2.73,6.71c1.82,1.82,4.21,2.73,6.71,2.73s4.89-1.02,6.71-2.73l22.3-22.3c3.75-3.75,3.75-9.67,0-13.43s-9.67-3.75-13.43,0c-2.16,2.28-5.8,2.28-8.08,0-2.16-2.28-2.16-5.8,0-8.08,8.08-8.08,21.39-8.08,29.47,0s8.08,21.39,0,29.47l-22.3,22.3c-3.87,4.1-9.1,6.26-14.68,6.26h0Z"/>
    </g>
  </g>
  <path class="st0" d="M313.57,220.27c-1.14,0-2.39-.34-3.41-1.14-2.5-1.93-2.96-5.46-1.14-7.96,16.38-21.5,24.92-47.45,24.92-74.64v-48.36l-77.94-30.26-77.94,30.26v48.36c0,25.37,7.51,49.72,21.85,70.31,1.82,2.62,1.14,6.14-1.48,7.96s-6.14,1.14-7.96-1.48c-15.59-22.53-23.89-49.15-23.89-76.8v-52.22c0-2.39,1.48-4.44,3.64-5.35l83.63-32.54c1.37-.46,2.84-.46,4.1,0l83.63,32.54c2.16.91,3.64,2.96,3.64,5.35v52.22c0,29.81-9.44,57.91-27.31,81.58-.91,1.48-2.62,2.16-4.32,2.16h0Z"/>
  <path class="st0" d="M284.33,210.15c-1.37,0-2.73-.46-3.87-1.48-2.28-2.16-2.5-5.69-.34-8.08,16.04-17.52,24.92-40.28,24.92-64.06v-28.44l-49.04-19.11-49.04,19.11v28.44c0,22.64,8.08,44.6,22.87,61.78,2.05,2.39,1.82,6.03-.57,8.08s-6.03,1.82-8.08-.57c-16.5-19.23-25.6-43.8-25.6-69.18v-32.54c0-2.39,1.48-4.44,3.64-5.35l54.73-21.28c1.37-.46,2.84-.46,4.1,0l54.73,21.28c2.16.91,3.64,2.96,3.64,5.35v32.43c0,26.62-9.9,52.11-27.88,71.79-1.25,1.25-2.73,1.82-4.21,1.82h0Z"/>
  <path class="st0" d="M244.85,173.74c-1.48,0-2.96-.57-3.98-1.71l-15.82-15.82c-2.16-2.16-2.16-5.8,0-8.08,2.16-2.16,5.8-2.16,8.08,0l11.83,11.83,34.13-34.13c2.28-2.16,5.8-2.16,8.08,0s2.28,5.8,0,8.08l-38.12,38.12c-1.25,1.14-2.73,1.71-4.21,1.71h0Z"/>
</svg>