<svg width="148" height="148" viewBox="0 0 148 148" fill="none" xmlns="http://www.w3.org/2000/svg">
<path fill-rule="evenodd" clip-rule="evenodd" d="M132.21 46.7837C131.714 46.2361 131.009 45.9351 130.257 45.9351H130.017C128.784 45.9351 127.743 46.7405 127.455 47.9366L120.938 73.9698C119.913 78.0576 118.04 81.3334 115.03 84.2795L108.273 90.8889C108.802 92.0433 109.01 93.3291 108.882 94.6342C108.674 96.5348 107.761 98.2383 106.272 99.4376L89.3638 113.126C89.0116 113.412 88.5954 113.549 88.163 113.549C87.6186 113.549 87.0743 113.309 86.6898 112.844C86.0332 112.029 86.1614 110.833 86.9781 110.173L103.886 96.4836C104.575 95.9247 105.007 95.1273 105.103 94.2355C105.199 93.3436 104.943 92.4725 104.383 91.7825C103.214 90.351 101.116 90.1302 99.6753 91.2894L80.3654 106.925C78.4281 108.489 76.9389 110.33 75.8982 112.399L76.1865 132.405C76.2987 132.409 76.4106 132.413 76.5228 132.418C81.246 132.565 86.0655 132.514 90.7411 132.466C93.0786 132.44 95.5126 132.416 97.8984 132.416C99.0993 132.416 100.108 131.433 100.124 130.224C100.236 122.97 101.149 121.775 106 116.666C106.769 115.854 107.633 114.935 108.642 113.853C111.028 111.259 113.381 109.238 115.671 107.288C119.418 104.085 122.94 101.061 125.774 96.0174C130.722 87.1566 131.603 71.1418 132.307 58.275C132.483 54.8645 132.659 51.6461 132.9 48.7977C132.963 48.0452 132.723 47.3295 132.21 46.7837ZM72.3749 132.416L72.1026 112.364C71.19 110.285 69.9729 108.828 67.6194 106.925L48.3095 91.2894C46.8846 90.1302 44.7711 90.351 43.6022 91.7825C43.0579 92.4725 42.8015 93.3436 42.8818 94.2355C42.978 95.1273 43.4101 95.9247 44.0986 96.4836L61.0067 110.173C61.8234 110.833 61.9513 112.029 61.295 112.844C60.9268 113.31 60.3665 113.552 59.8221 113.552C59.3897 113.552 58.9735 113.412 58.6213 113.129L41.7132 99.4376C40.24 98.2383 39.3114 96.5348 39.1033 94.6342C38.9752 93.3291 39.1832 92.0436 39.7279 90.8889L32.9551 84.2795C29.9451 81.3334 28.0717 78.0573 27.0469 73.9698L20.5462 47.9366C20.2419 46.7405 19.2172 45.9351 17.9843 45.9351H17.728C16.9755 45.9351 16.2871 46.2361 15.7747 46.7837C15.2623 47.3313 15.0222 48.0452 15.0862 48.798C15.3262 51.6464 15.5024 54.868 15.6948 58.2753C16.3992 71.1454 17.2639 87.1569 22.2275 96.0177C25.0454 101.061 28.5841 104.086 32.3308 107.288C34.6044 109.239 36.9582 111.259 39.36 113.853C40.3527 114.935 41.2174 115.854 41.9858 116.663C46.8372 121.775 47.7498 122.97 47.862 130.225C47.8779 131.433 48.8867 132.416 50.0876 132.416H72.3749ZM136.693 49.1117C136.453 51.9075 136.277 55.1001 136.085 58.4801C135.364 71.7392 134.468 88.2423 129.088 97.8715C125.933 103.509 122.139 106.748 118.136 110.176C115.942 112.056 113.669 114 111.427 116.427C110.418 117.529 109.538 118.459 108.753 119.281C104.286 123.998 104.013 124.279 103.918 130.285C103.87 133.556 101.164 136.218 97.8972 136.218C95.5274 136.218 93.1097 136.242 90.7722 136.267C88.4184 136.293 86.0326 136.319 83.6149 136.319C81.2132 136.319 78.8114 136.293 76.4097 136.218C75.8653 136.198 75.353 136.175 74.8406 136.138C74.6645 136.189 74.4884 136.218 74.2962 136.218H50.087C46.8206 136.218 44.1146 133.557 44.0667 130.285C43.9707 124.279 43.6984 123.998 39.2312 119.277C38.4468 118.459 37.5659 117.529 36.5571 116.427C34.3155 114 32.0419 112.056 29.8483 110.176C25.8455 106.748 22.0508 103.509 18.9126 97.8715C13.5168 88.242 12.6199 71.7424 11.8994 58.4831C11.7073 55.1031 11.5312 51.9072 11.3071 49.1114C11.163 47.3165 11.7556 45.5266 12.9724 44.2088C14.1893 42.8928 15.9185 42.1338 17.728 42.1338H17.9843C20.9464 42.1338 23.5083 44.1416 24.2287 47.014L30.7295 73.0504C31.5781 76.4257 33.1312 79.1285 35.6129 81.5607L42.1776 87.983C44.7235 86.2571 48.1979 86.3065 50.6956 88.3338L70.0214 103.971C71.5905 105.24 72.9355 106.513 74.0562 108.114C75.1289 106.596 76.4419 105.21 77.9791 103.971L97.2889 88.3338C98.7618 87.1394 100.635 86.5886 102.525 86.7887C103.725 86.9151 104.846 87.3265 105.807 87.983L112.372 81.5607C114.853 79.1285 116.406 76.4257 117.255 73.0504L123.756 47.014C124.476 44.1416 127.054 42.1338 130.016 42.1338H130.256C132.066 42.1338 133.795 42.8928 135.011 44.2088C136.229 45.5298 136.837 47.3168 136.693 49.1117ZM37.8862 53.6476C46.3402 48.1876 50.5834 37.9579 48.4697 28.1188C58.3007 30.2373 68.5322 25.9989 73.992 17.5463C78.5231 24.5496 86.321 28.6599 94.4547 28.6599C96.136 28.6599 97.833 28.4838 99.5303 28.1188C97.4008 37.9579 101.644 48.1876 110.098 53.6476C101.644 59.1091 97.4005 69.3404 99.5303 79.1797C89.6832 77.0615 79.4517 81.2982 73.992 89.7537C69.4768 82.7504 61.6789 78.6401 53.5292 78.6401C51.8479 78.6401 50.1506 78.8147 48.4697 79.1797C50.5834 69.3407 46.3402 59.1094 37.8862 53.6476ZM32.026 53.6476C32.026 52.9032 32.4581 52.2242 33.1466 51.9169C42.9777 47.4737 47.7009 36.0863 43.8902 25.9894C43.6182 25.2911 43.7943 24.5035 44.3227 23.9736C44.8511 23.4468 45.6357 23.2771 46.3402 23.5412C56.4276 27.3519 67.8278 22.6366 72.2627 12.799C72.567 12.1203 73.2395 11.6816 73.992 11.6816C74.7444 11.6816 75.4169 12.1203 75.7212 12.799C80.1724 22.6366 91.5566 27.3519 101.66 23.5412C102.348 23.2771 103.133 23.4468 103.662 23.9736C104.19 24.5038 104.366 25.2914 104.11 25.9894C100.283 36.0863 105.007 47.4737 114.838 51.9169C115.526 52.2245 115.959 52.9032 115.959 53.6476C115.959 54.3953 115.526 55.0744 114.838 55.3816C105.007 59.8231 100.283 71.2138 104.11 81.3074C104.366 82.0071 104.19 82.7948 103.662 83.3249C103.133 83.8518 102.348 84.0214 101.66 83.7573C91.5566 79.9452 80.1724 84.6637 75.7212 94.4962C75.4169 95.1785 74.7444 95.6139 73.992 95.6139C73.2392 95.6139 72.567 95.1785 72.2627 94.4962C67.8275 84.6637 56.4273 79.9449 46.3402 83.7573C45.6357 84.0217 44.8511 83.8518 44.3227 83.3249C43.7943 82.7951 43.6182 82.0071 43.8902 81.3074C47.7009 71.2138 42.9777 59.8231 33.1466 55.3816C32.4584 55.0744 32.026 54.3956 32.026 53.6476ZM54.9065 53.6476C54.9065 43.1248 63.4727 34.5636 73.9923 34.5636C84.5118 34.5636 93.078 43.1251 93.078 53.6476C93.078 64.1737 84.5118 72.7349 73.9923 72.7349C63.4727 72.7352 54.9065 64.1737 54.9065 53.6476ZM51.1118 53.6476C51.1118 41.0289 61.3753 30.7624 73.9923 30.7624C86.6093 30.7624 96.8728 41.0289 96.8728 53.6476C96.8728 66.2697 86.6093 76.5361 73.9923 76.5361C61.375 76.5361 51.1118 66.2697 51.1118 53.6476ZM62.9441 56.1231C62.1916 55.3816 62.1916 54.1778 62.9441 53.4348C63.6805 52.6933 64.8814 52.6933 65.6181 53.4348L70.934 58.7442L82.2219 44.5211C82.8625 43.6997 84.0634 43.5605 84.8797 44.2135C85.7124 44.8653 85.8402 46.0612 85.2 46.8826L72.583 62.7772C72.2467 63.1999 71.7504 63.4609 71.206 63.4911C71.174 63.4944 71.1421 63.4958 71.0938 63.4958C70.5974 63.4958 70.117 63.2958 69.7488 62.9385L62.9441 56.1231Z" fill="#DA0000"/>
</svg>
