<?xml version="1.0" encoding="UTF-8"?>
<svg id="Layer_1" xmlns="http://www.w3.org/2000/svg" version="1.1" viewBox="0 0 512 512">
  <!-- Generator: Adobe Illustrator 29.8.1, SVG Export Plug-In . SVG Version: 2.1.1 Build 2)  -->
  <defs>
    <style>
      .st0 {
        fill: #da0000;
      }
    </style>
  </defs>
  <path class="st0" d="M256,333.37c-79.3,0-143.93-64.51-143.93-143.93S176.7,45.51,256,45.51s143.93,64.51,143.93,143.93-64.63,143.93-143.93,143.93ZM256,56.89c-73.05,0-132.55,59.51-132.55,132.55s59.51,132.55,132.55,132.55,132.55-59.51,132.55-132.55-59.51-132.55-132.55-132.55Z"/>
  <path class="st0" d="M256,373.19c-101.38,0-183.75-82.49-183.75-183.75S154.62,5.69,256,5.69s183.75,82.49,183.75,183.75-82.38,183.75-183.75,183.75ZM256,17.07c-95.12,0-172.37,77.37-172.37,172.37s77.26,172.37,172.37,172.37,172.37-77.37,172.37-172.37S351,17.07,256,17.07Z"/>
  <g>
    <path class="st0" d="M256.34,228.92c-25.83,0-47.9-21.96-49.15-48.92v-.11l-.68-31.52c0-1.93.91-3.75,2.5-4.89l12.63-8.42c6.94-4.66,15.93-5.12,23.32-1.25,9.78,5.12,29.7,12.97,52.91,8.87,1.59-.34,3.3.11,4.55,1.14s2.05,2.62,2.16,4.21l1.02,31.52v.46c-1.37,26.97-23.44,48.92-49.27,48.92h0ZM218.45,179.54c1.02,20.59,18.32,38,37.77,38s36.75-17.29,37.77-37.89l-.8-24.92c-23.67,2.39-43.46-5.58-53.59-10.92-3.75-1.93-8.31-1.71-11.83.68l-10.01,6.71.68,28.33Z"/>
    <path class="st0" d="M153.14,287.52c-1.02,0-2.05-.23-2.96-.8-2.73-1.59-3.53-5.12-1.82-7.85,5.69-9.22,13.88-16.5,23.78-21.05l54.16-24.8c1.59-1.25,2.5-3.07,2.5-5.12v-11.04c0-3.19,2.5-5.69,5.69-5.69s5.69,2.5,5.69,5.69v11.04c0,5.92-2.96,11.49-7.85,14.79-.23.11-.57.34-.8.46l-54.73,25.03c-7.85,3.53-14.34,9.33-18.77,16.61-1.14,1.71-2.96,2.73-4.89,2.73h0Z"/>
    <path class="st0" d="M358.86,287.52c-1.93,0-3.75-1.02-4.89-2.73-4.44-7.28-10.92-13.08-18.77-16.61l-54.73-25.03c-.34-.11-.57-.34-.8-.46-4.89-3.3-7.85-8.87-7.85-14.79v-10.7c0-3.19,2.5-5.69,5.69-5.69s5.69,2.5,5.69,5.69v10.7c0,2.05.91,3.87,2.5,5.12l54.16,24.8c9.9,4.44,18.09,11.72,23.78,21.05,1.59,2.73.8,6.14-1.93,7.85-.8.46-1.82.8-2.84.8Z"/>
    <g>
      <path class="st0" d="M227.56,288.43c-.68,0-1.37-.11-2.05-.23-2.96-.57-5.46-2.62-6.83-5.23l-15.82-32.77c-1.37-2.84-.23-6.26,2.62-7.62s6.26-.23,7.62,2.62l15.02,30.95,51.2-42.55c2.39-2.05,6.03-1.71,7.96.68,2.05,2.39,1.71,6.03-.68,7.96l-52.57,43.8c-1.93,1.59-4.21,2.39-6.49,2.39Z"/>
      <path class="st0" d="M284.44,288.43c-2.28,0-4.55-.8-6.26-2.28l-52.68-43.8c-2.39-2.05-2.73-5.58-.68-7.96s5.58-2.73,7.96-.68l51.2,42.55,15.36-30.83c1.37-2.84,4.78-3.98,7.62-2.62s3.98,4.78,2.62,7.62l-16.16,32.54c-1.37,2.73-3.87,4.66-6.83,5.23-.8.11-1.48.23-2.16.23h0Z"/>
    </g>
    <path class="st0" d="M299.58,180.79c-2.05,0-4.1-1.14-5.12-3.19-1.37-2.73-.34-6.14,2.39-7.51,6.94-4.21,13.99-19.57,13.08-35.27-.57-11.04-5.23-25.94-24.01-34.25-13.2-5.92-27.88-7.74-42.33-5.58-18.43,2.84-40.73,11.26-41.98,34.93-.11.91-.34,1.82-.8,2.62-.57,1.37-7.96,20.94,15.13,37.66,2.5,1.82,3.07,5.35,1.25,7.96-1.82,2.5-5.35,3.07-7.96,1.25-15.25-11.04-19.91-23.67-21.05-32.2-1.14-8.31.46-15.47,2.16-19.11,1.93-23.78,20.14-39.48,51.54-44.26,16.61-2.5,33.45-.34,48.58,6.37,18.66,8.31,29.58,23.89,30.72,44.03,1.02,18.89-7.17,38.91-18.77,45.74-.11.11-.23.11-.34.23-.68.34-1.59.57-2.5.57h0Z"/>
  </g>
  <path class="st0" d="M256,333.37c-3.19,0-5.69-2.5-5.69-5.69v-67.36c0-3.19,2.5-5.69,5.69-5.69s5.69,2.5,5.69,5.69v67.36c0,3.19-2.5,5.69-5.69,5.69Z"/>
  <g>
    <path class="st0" d="M161.11,506.31c-1.82,0-3.53-.91-4.55-2.28l-28.56-38.8-47.45,8.65c-2.05.34-4.21-.46-5.46-2.05-1.25-1.71-1.59-3.98-.68-5.8l63.83-140.86c1.25-2.84,4.66-4.1,7.51-2.84,2.84,1.25,4.1,4.66,2.84,7.51l-59.39,130.84,40.16-7.28c2.16-.34,4.32.46,5.58,2.28l24.92,33.91,57.91-127.32c1.25-2.84,4.66-4.1,7.51-2.84s4.1,4.66,2.84,7.51l-62.01,136.08c-.8,1.82-2.62,3.07-4.55,3.3h-.46Z"/>
    <path class="st0" d="M350.89,506.31h-.57c-2.05-.23-3.75-1.48-4.55-3.3l-62.01-136.08c-1.25-2.84,0-6.26,2.84-7.51s6.26,0,7.51,2.84l57.91,127.32,24.92-33.91c1.25-1.71,3.41-2.62,5.58-2.28l40.16,7.28-59.28-130.96c-1.25-2.84,0-6.26,2.84-7.51s6.26,0,7.51,2.84l63.83,140.86c.91,1.93.57,4.21-.68,5.8-1.25,1.71-3.41,2.5-5.46,2.05l-47.33-8.65-28.56,38.91c-1.14,1.48-2.84,2.28-4.66,2.28h0Z"/>
  </g>
</svg>