<?xml version="1.0" encoding="UTF-8"?>
<svg id="Layer_1" xmlns="http://www.w3.org/2000/svg" version="1.1" viewBox="0 0 512 512">
  <!-- Generator: Adobe Illustrator 29.8.1, SVG Export Plug-In . SVG Version: 2.1.1 Build 2)  -->
  <defs>
    <style>
      .st0 {
        fill: #da0000;
      }
    </style>
  </defs>
  <path class="st0" d="M307.42,445.25h-102.84c-14.87,0-26.97-12.1-26.97-26.97v-70.35c0-21.74-8.81-42.29-24.81-57.85-28.89-28.12-44.8-65.79-44.8-106.08s16.99-79.96,46.62-107.83c30.04-28.26,69.36-42.42,110.71-39.88,37.1,2.28,71.65,18.16,97.28,44.71,25.62,26.54,40.3,61.63,41.33,98.8,1.15,41.54-15.31,81.89-45.17,110.7-15.49,14.95-24.37,35.6-24.37,56.66v71.12c-.01,14.87-12.11,26.97-26.98,26.97ZM255.91,46c-35.31,0-68.56,13.12-94.43,37.46-28.04,26.36-43.48,62.07-43.48,100.54s14.83,72.7,41.77,98.9c17.69,17.21,27.84,40.91,27.84,65.02v70.35c0,9.36,7.61,16.97,16.97,16.97h102.84c9.36,0,16.97-7.61,16.97-16.97v-71.12c0-23.76,10-47.03,27.43-63.85,27.84-26.87,43.2-64.49,42.12-103.23-1.99-71.88-57.55-129.4-129.22-133.8-2.95-.18-5.89-.27-8.81-.27h0Z"/>
  <g>
    <g>
      <path class="st0" d="M96.55,138.74c-.64,0-1.29-.12-1.91-.38l-21.81-9.03c-2.55-1.06-3.76-3.98-2.71-6.53,1.06-2.55,3.98-3.76,6.53-2.71l21.81,9.03c2.55,1.06,3.76,3.98,2.71,6.53-.8,1.93-2.66,3.09-4.62,3.09Z"/>
      <path class="st0" d="M86.55,189h-23.61c-2.76,0-5-2.24-5-5s2.24-5,5-5h23.61c2.76,0,5,2.24,5,5s-2.24,5-5,5Z"/>
      <path class="st0" d="M74.74,248.29c-1.96,0-3.82-1.16-4.62-3.09-1.06-2.55.15-5.48,2.71-6.53l21.81-9.03c2.55-1.05,5.48.16,6.53,2.71,1.06,2.55-.15,5.48-2.71,6.53l-21.81,9.03c-.63.25-1.27.38-1.91.38h0Z"/>
    </g>
    <g>
      <path class="st0" d="M415.46,138.74c-1.96,0-3.82-1.16-4.62-3.09-1.06-2.55.15-5.48,2.71-6.53l21.81-9.03c2.55-1.06,5.48.15,6.53,2.71s-.15,5.48-2.71,6.53l-21.81,9.03c-.63.26-1.28.38-1.91.38h0Z"/>
      <path class="st0" d="M449.06,189h-23.61c-2.76,0-5-2.24-5-5s2.24-5,5-5h23.61c2.76,0,5,2.24,5,5s-2.24,5-5,5Z"/>
      <path class="st0" d="M437.26,248.29c-.64,0-1.29-.12-1.91-.38l-21.81-9.03c-2.55-1.06-3.76-3.98-2.71-6.53,1.06-2.55,3.98-3.76,6.53-2.71l21.81,9.03c2.55,1.06,3.76,3.98,2.71,6.53-.8,1.92-2.66,3.09-4.62,3.09h0Z"/>
    </g>
  </g>
  <path class="st0" d="M255.97,476c-19.72,0-35.76-16.04-35.76-35.76,0-2.76,2.24-5,5-5s5,2.24,5,5c0,14.2,11.56,25.76,25.76,25.76s25.76-11.56,25.76-25.76c0-2.76,2.24-5,5-5s5,2.24,5,5c0,19.72-16.04,35.76-35.76,35.76h0Z"/>
  <path class="st0" d="M329.39,375.87h-146.78c-2.76,0-5-2.24-5-5s2.23-5,5-5h146.79c2.76,0,5,2.24,5,5s-2.25,5-5.01,5Z"/>
  <path class="st0" d="M329.4,410.55h-146.8c-2.76,0-5-2.24-5-5s2.24-5,5-5h146.8c2.76,0,5,2.24,5,5s-2.24,5-5,5Z"/>
  <g>
    <path class="st0" d="M256,218.63c-19.1,0-34.63-15.54-34.63-34.63s15.54-34.63,34.63-34.63,34.63,15.54,34.63,34.63-15.53,34.63-34.63,34.63ZM256,159.37c-13.58,0-24.63,11.05-24.63,24.63s11.05,24.63,24.63,24.63,24.63-11.05,24.63-24.63-11.05-24.63-24.63-24.63Z"/>
    <path class="st0" d="M269.46,263.83h-26.93c-2.76,0-5-2.24-5-5v-15.22c-3.46-1.03-7-2.52-10.59-4.45l-10.81,10.81c-.94.94-2.21,1.46-3.54,1.46s-2.6-.53-3.54-1.46l-19.04-19.04c-.94-.94-1.46-2.21-1.46-3.54s.53-2.6,1.46-3.54l10.82-10.82c-1.78-3.38-3.24-6.91-4.37-10.57h-15.31c-2.76,0-5-2.24-5-5v-26.93c0-2.76,2.24-5,5-5h15.31c1.13-3.66,2.59-7.19,4.37-10.57l-10.82-10.82c-1.95-1.95-1.95-5.12,0-7.07l19.04-19.04c.94-.94,2.21-1.46,3.54-1.46s2.6.53,3.54,1.46l10.82,10.82c3.49-1.86,7.03-3.34,10.58-4.41v-15.26c0-2.76,2.24-5,5-5h26.93c2.76,0,5,2.24,5,5v15.31c3.66,1.13,7.19,2.59,10.57,4.37l10.82-10.82c1.95-1.95,5.12-1.95,7.07,0l19.04,19.04c1.95,1.95,1.95,5.12,0,7.07l-10.82,10.82c1.78,3.38,3.24,6.91,4.37,10.57h15.31c2.76,0,5,2.24,5,5v26.93c0,2.76-2.24,5-5,5h-15.31c-1.13,3.66-2.59,7.19-4.37,10.57l10.82,10.82c.94.94,1.46,2.21,1.46,3.54s-.53,2.6-1.46,3.54l-19.04,19.04c-1.95,1.95-5.12,1.95-7.07,0l-10.82-10.82c-3.38,1.78-6.91,3.24-10.57,4.37v15.31c0,2.75-2.24,4.99-5,4.99h0ZM247.54,253.83h16.93v-14.12c0-2.31,1.58-4.32,3.83-4.86,5.31-1.28,10.35-3.36,14.98-6.2,1.97-1.21,4.51-.91,6.15.73l9.98,9.98,11.97-11.97-9.98-9.98c-1.63-1.63-1.94-4.18-.73-6.15,2.83-4.63,4.92-9.67,6.2-14.98.54-2.25,2.55-3.83,4.86-3.83h14.12v-16.93h-14.12c-2.31,0-4.32-1.58-4.86-3.83-1.28-5.31-3.36-10.35-6.2-14.98-1.21-1.97-.91-4.51.73-6.15l9.98-9.98-11.97-11.97-9.98,9.98c-1.63,1.63-4.17,1.94-6.15.73-4.63-2.83-9.67-4.92-14.98-6.2-2.25-.54-3.83-2.55-3.83-4.86v-14.12h-16.93v14.12c0,2.35-1.63,4.38-3.93,4.88-4.96,1.09-9.96,3.17-14.88,6.17-1.97,1.21-4.51.9-6.15-.73l-9.98-9.98-11.97,11.97,9.98,9.98c1.63,1.63,1.94,4.18.73,6.15-2.83,4.63-4.92,9.67-6.2,14.98-.54,2.25-2.55,3.83-4.86,3.83h-14.12v16.93h14.12c2.31,0,4.32,1.58,4.86,3.83,1.28,5.31,3.36,10.35,6.2,14.98,1.21,1.97.9,4.51-.73,6.15l-9.98,9.98,11.97,11.97,9.98-9.98c1.63-1.63,4.18-1.94,6.15-.73,5.18,3.17,10.15,5.24,14.77,6.15,2.34.46,4.03,2.52,4.03,4.91v14.13h0Z"/>
  </g>
</svg>