<?xml version="1.0" encoding="UTF-8"?>
<svg id="Layer_1" xmlns="http://www.w3.org/2000/svg" version="1.1" viewBox="0 0 512 512">
  <!-- Generator: Adobe Illustrator 29.8.1, SVG Export Plug-In . SVG Version: 2.1.1 Build 2)  -->
  <defs>
    <style>
      .st0 {
        fill: #da0000;
      }
    </style>
  </defs>
  <path class="st0" d="M256,403.23c-81.24,0-147.23-65.99-147.23-147.23s65.99-147.23,147.23-147.23,147.23,65.99,147.23,147.23-65.99,147.23-147.23,147.23ZM256,120.15c-74.87,0-135.85,60.98-135.85,135.85s60.98,135.85,135.85,135.85,135.85-60.98,135.85-135.85-60.98-135.85-135.85-135.85Z"/>
  <path class="st0" d="M121.74,216.75c-34.13,0-61.9-27.76-61.9-61.9v-40.39c0-3.19,2.5-5.69,5.69-5.69s5.69,2.5,5.69,5.69v40.39c0,27.88,22.64,50.52,50.52,50.52,3.19,0,5.69,2.5,5.69,5.69s-2.5,5.69-5.69,5.69Z"/>
  <path class="st0" d="M390.26,216.75c-3.19,0-5.69-2.5-5.69-5.69s2.5-5.69,5.69-5.69c27.88,0,50.52-22.64,50.52-50.52v-40.39c0-3.19,2.5-5.69,5.69-5.69s5.69,2.5,5.69,5.69v40.39c0,34.13-27.76,61.9-61.9,61.9Z"/>
  <path class="st0" d="M446.46,403.23c-3.19,0-5.69-2.5-5.69-5.69v-40.39c0-27.88-22.64-50.52-50.52-50.52-3.19,0-5.69-2.5-5.69-5.69s2.5-5.69,5.69-5.69c34.13,0,61.9,27.76,61.9,61.9v40.39c0,3.07-2.5,5.69-5.69,5.69Z"/>
  <path class="st0" d="M65.54,403.23c-3.19,0-5.69-2.5-5.69-5.69v-40.39c0-34.13,27.76-61.9,61.9-61.9,3.19,0,5.69,2.5,5.69,5.69s-2.5,5.69-5.69,5.69c-27.88,0-50.52,22.64-50.52,50.52v40.39c0,3.07-2.62,5.69-5.69,5.69Z"/>
  <path class="st0" d="M446.46,120.15c-13.65,0-24.8-11.15-24.8-24.8s11.15-24.8,24.8-24.8,24.8,11.15,24.8,24.8-11.15,24.8-24.8,24.8ZM446.46,82.03c-7.4,0-13.43,6.03-13.43,13.43s6.03,13.43,13.43,13.43,13.43-6.03,13.43-13.43-6.03-13.43-13.43-13.43Z"/>
  <g>
    <path class="st0" d="M462.51,261.69h-64.97c-3.19,0-5.69-2.5-5.69-5.69s2.5-5.69,5.69-5.69h64.97c3.19,0,5.69,2.5,5.69,5.69s-2.5,5.69-5.69,5.69Z"/>
    <path class="st0" d="M114.46,261.69H49.49c-3.19,0-5.69-2.5-5.69-5.69s2.5-5.69,5.69-5.69h64.97c3.19,0,5.69,2.5,5.69,5.69s-2.5,5.69-5.69,5.69Z"/>
    <path class="st0" d="M481.62,280.8h-1.48c-13.65-.8-24.12-12.52-23.32-26.17s12.52-24.01,26.17-23.32c13.65.8,24.12,12.52,23.32,26.17-.8,13.08-11.72,23.32-24.69,23.32ZM481.51,242.57c-7.05,0-12.97,5.46-13.31,12.63-.23,3.53,1.02,6.94,3.41,9.67s5.69,4.21,9.22,4.44,6.94-1.02,9.67-3.41,4.21-5.69,4.44-9.22-1.02-6.94-3.41-9.67-5.69-4.21-9.22-4.44c-.23.11-.46,0-.8,0h0Z"/>
    <path class="st0" d="M30.49,280.8h-1.48c-13.65-.8-24.12-12.52-23.32-26.17s12.52-24.01,26.17-23.32c13.65.8,24.01,12.52,23.32,26.17-.8,13.08-11.72,23.32-24.69,23.32ZM30.49,242.57c-7.05,0-12.97,5.46-13.31,12.63-.46,7.4,5.23,13.65,12.63,14.11,3.53.23,7.05-1.02,9.67-3.41s4.21-5.69,4.44-9.22c.46-7.4-5.23-13.65-12.63-14.11-.34.11-.57,0-.8,0Z"/>
  </g>
  <g>
    <path class="st0" d="M256,468.2c-3.19,0-5.69-2.5-5.69-5.69v-64.97c0-3.19,2.5-5.69,5.69-5.69s5.69,2.5,5.69,5.69v64.97c0,3.19-2.5,5.69-5.69,5.69Z"/>
    <path class="st0" d="M256,120.15c-3.19,0-5.69-2.5-5.69-5.69V49.49c0-3.19,2.5-5.69,5.69-5.69s5.69,2.5,5.69,5.69v64.97c0,3.19-2.5,5.69-5.69,5.69Z"/>
    <path class="st0" d="M256,506.31h-1.48c-13.65-.8-24.01-12.52-23.32-26.17.8-13.65,12.52-24.12,26.17-23.32s24.12,12.52,23.32,26.17c-.8,13.08-11.72,23.32-24.69,23.32ZM242.69,480.82c-.46,7.4,5.23,13.65,12.63,14.11,3.53.23,7.05-1.02,9.67-3.41s4.21-5.69,4.44-9.22-1.02-6.94-3.41-9.67-5.69-4.21-9.22-4.44-6.94,1.02-9.67,3.41c-2.73,2.28-4.32,5.58-4.44,9.22Z"/>
    <path class="st0" d="M256,55.18h-1.48c-13.65-.8-24.01-12.52-23.32-26.17.8-13.65,12.52-24.01,26.17-23.32s24.12,12.52,23.32,26.17c-.8,13.2-11.72,23.32-24.69,23.32ZM242.69,29.7c-.46,7.4,5.23,13.65,12.63,14.11s13.65-5.23,14.11-12.63c.23-3.53-1.02-7.05-3.41-9.67s-5.69-4.21-9.22-4.44c-7.4-.34-13.77,5.23-14.11,12.63Z"/>
  </g>
  <path class="st0" d="M446.46,441.34h-1.48c-13.65-.8-24.12-12.52-23.32-26.17s12.52-24.12,26.17-23.32,24.12,12.52,23.32,26.17c-.68,13.2-11.61,23.32-24.69,23.32ZM445.67,429.97c7.4.46,13.65-5.23,14.11-12.63.23-3.53-1.02-6.94-3.41-9.67s-5.69-4.21-9.22-4.44-6.94,1.02-9.67,3.41-4.21,5.69-4.44,9.22,1.02,6.94,3.41,9.67c2.39,2.62,5.69,4.21,9.22,4.44Z"/>
  <path class="st0" d="M65.54,441.34h-1.48c-13.65-.8-24.12-12.52-23.32-26.17s12.52-24.12,26.17-23.32c13.65.8,24.12,12.52,23.32,26.17-.8,13.2-11.72,23.32-24.69,23.32ZM64.74,429.97c7.4.46,13.65-5.23,14.11-12.63s-5.23-13.65-12.63-14.11c-3.53-.23-7.05,1.02-9.67,3.41s-4.21,5.69-4.44,9.22c-.34,7.28,5.23,13.65,12.63,14.11Z"/>
  <path class="st0" d="M65.54,120.15h-1.48c-13.65-.8-24.12-12.52-23.32-26.17s12.52-24.12,26.17-23.32c6.6.34,12.63,3.3,17.07,8.31,4.44,4.89,6.6,11.26,6.26,17.86-.8,13.2-11.72,23.32-24.69,23.32ZM64.74,108.77c7.4.46,13.65-5.23,14.11-12.63.23-3.53-1.02-7.05-3.41-9.67s-5.69-4.21-9.22-4.44-7.05,1.02-9.67,3.41-4.21,5.69-4.44,9.22c-.34,7.28,5.23,13.65,12.63,14.11Z"/>
  <g>
    <path class="st0" d="M256,303.9c-26.06,0-47.22-21.5-47.22-47.9s21.16-47.9,47.22-47.9,47.22,21.5,47.22,47.9-21.16,47.9-47.22,47.9ZM256,219.48c-19.8,0-35.84,16.38-35.84,36.52s16.04,36.52,35.84,36.52,35.84-16.38,35.84-36.52-16.04-36.52-35.84-36.52h0Z"/>
    <path class="st0" d="M276.48,362.84h-40.85c-3.19,0-5.69-2.5-5.69-5.69v-17.64c-5.01-1.59-9.78-3.53-14.45-6.03l-12.52,12.52c-1.02,1.02-2.5,1.71-3.98,1.71s-2.96-.57-3.98-1.71l-28.9-28.9c-1.02-1.02-1.71-2.5-1.71-3.98s.57-2.96,1.71-3.98l12.52-12.52c-2.39-4.66-4.44-9.44-6.03-14.45h-17.64c-3.19,0-5.69-2.5-5.69-5.69v-40.96c0-3.19,2.5-5.69,5.69-5.69h17.64c1.59-5.01,3.53-9.78,6.03-14.45l-12.52-12.52c-1.02-1.02-1.71-2.5-1.71-3.98s.57-2.96,1.71-3.98l28.9-28.9c2.16-2.16,5.8-2.16,8.08,0l12.52,12.52c4.66-2.39,9.44-4.44,14.45-6.03v-17.64c0-3.19,2.5-5.69,5.69-5.69h40.85c3.19,0,5.69,2.5,5.69,5.69v17.64c5.01,1.59,9.78,3.53,14.45,6.03l12.52-12.52c1.02-1.02,2.5-1.71,3.98-1.71s2.96.57,3.98,1.71l28.9,28.9c2.28,2.16,2.28,5.8,0,8.08l-12.52,12.52c2.39,4.66,4.44,9.44,6.03,14.45h17.64c3.19,0,5.69,2.5,5.69,5.69v40.85c0,3.19-2.5,5.69-5.69,5.69h-17.64c-1.59,5.01-3.53,9.78-6.03,14.45l12.52,12.52c2.28,2.28,2.28,5.8,0,8.08l-29.01,28.67c-2.28,2.28-5.8,2.28-8.08,0l-12.52-12.52c-4.66,2.39-9.44,4.44-14.45,6.03v17.64c.11,3.19-2.5,5.8-5.58,5.8h0ZM241.32,351.46h29.47v-16.27c0-2.62,1.71-4.89,4.32-5.46,6.83-1.71,13.43-4.55,19.68-8.19,2.28-1.37,5.12-.91,6.94.91l11.49,11.49,20.82-20.82-11.72-11.61c-1.82-1.82-2.16-4.66-.91-6.94,3.64-6.14,6.37-12.74,8.19-19.68.68-2.5,2.96-4.32,5.46-4.32h16.27v-29.47h-16.27c-2.62,0-4.89-1.71-5.46-4.32-1.71-6.83-4.55-13.43-8.19-19.68-1.37-2.28-1.02-5.12.91-6.94l11.49-11.49-20.82-20.82-11.49,11.83c-1.82,1.82-4.66,2.16-6.94.91-6.14-3.64-12.74-6.37-19.68-8.19-2.5-.68-4.32-2.96-4.32-5.46v-16.27h-29.35v16.27c0,2.62-1.71,4.89-4.32,5.46-6.83,1.82-13.43,4.55-19.68,8.19-2.28,1.37-5.12,1.02-6.94-.91l-11.49-11.49-20.82,20.82,11.49,11.49c1.82,1.82,2.16,4.66.91,6.94-3.64,6.14-6.37,12.74-8.19,19.68-.68,2.5-2.96,4.32-5.46,4.32h-16.27v29.35h16.27c2.62,0,4.89,1.71,5.46,4.32,1.82,6.83,4.55,13.43,8.19,19.68,1.37,2.28,1.02,5.12-.91,6.94l-11.49,11.49,20.82,20.82,11.49-11.49c1.82-1.82,4.66-2.16,6.94-.91,6.14,3.64,12.74,6.37,19.68,8.19,2.5.68,4.32,2.96,4.32,5.46l.11,16.16Z"/>
  </g>
</svg>