<svg width="70" height="70" viewBox="0 0 70 70" fill="none" xmlns="http://www.w3.org/2000/svg">
<g clip-path="url(#clip0_32_683)">
<path d="M46.6285 29.2317C47.7949 28.0773 48.5188 26.4768 48.5188 24.71C48.5188 21.2007 45.6631 18.3457 42.1531 18.3457C39.4484 18.3457 37.0512 20.0603 36.1561 22.5728C35.7809 22.5036 35.3949 22.4656 35 22.4656C34.605 22.4656 34.2192 22.5036 33.8439 22.5728C32.9488 20.0602 30.5514 18.3457 27.8468 18.3457C24.3368 18.3457 21.4811 21.2007 21.4811 24.71C21.4811 26.4768 22.2052 28.0773 23.3716 29.2317C20.5737 30.8255 18.7726 33.8434 18.7726 37.1256C18.7726 37.6921 19.2317 38.151 19.798 38.151C20.3643 38.151 20.8234 37.6921 20.8234 37.1256C20.8234 34.2268 22.6383 31.5944 25.3435 30.562C26.1124 30.8922 26.9585 31.0757 27.8469 31.0757C28.2382 31.0757 28.6257 31.0379 29.0049 30.9679C29.3291 31.8745 29.8527 32.6866 30.5235 33.3511C27.7002 34.9496 25.926 37.9453 25.926 41.246C25.926 41.8124 26.3851 42.2714 26.9514 42.2714C27.5177 42.2714 27.9768 41.8124 27.9768 41.246C27.9768 38.4168 29.6607 35.8764 32.2665 34.7742C32.3363 34.7447 32.4007 34.7079 32.46 34.6659C33.2386 35.0062 34.0973 35.1963 35 35.1963C35.8886 35.1963 36.7349 35.0126 37.5038 34.6823C40.2077 35.7147 42.0231 38.3498 42.0231 41.246C42.0231 41.8124 42.4822 42.2714 43.0485 42.2714C43.6148 42.2714 44.0739 41.8124 44.0739 41.246C44.0739 37.9667 42.2723 34.9463 39.4753 33.352C40.1466 32.6874 40.6707 31.8749 40.995 30.9679C41.3744 31.0379 41.7617 31.0757 42.153 31.0757C43.0414 31.0757 43.8876 30.8922 44.6563 30.562C47.3615 31.5944 49.1764 34.2265 49.1764 37.1256C49.1764 37.6921 49.6355 38.151 50.2018 38.151C50.7681 38.151 51.2272 37.6921 51.2272 37.1256C51.2275 33.8433 49.4263 30.8255 46.6285 29.2317ZM28.6348 28.831C28.6348 28.8713 28.6372 28.911 28.6379 28.951C28.3796 28.9992 28.115 29.0249 27.8469 29.0249C25.4677 29.0249 23.5321 27.0893 23.5321 24.71C23.5321 22.3316 25.4677 20.3965 27.8469 20.3965C29.6825 20.3965 31.3085 21.5612 31.9137 23.2666C29.9599 24.3547 28.6348 26.4406 28.6348 28.831ZM30.6856 28.831C30.6856 26.4521 32.621 24.5165 35.0001 24.5165C37.3792 24.5165 39.3146 26.4519 39.3146 28.831C39.3146 31.2101 37.3792 33.1455 35.0001 33.1455C32.621 33.1455 30.6856 31.2099 30.6856 28.831ZM41.3622 28.951C41.3629 28.911 41.3652 28.8712 41.3652 28.831C41.3652 26.4406 40.0401 24.3548 38.0864 23.2668C38.6915 21.5613 40.3175 20.3966 42.1531 20.3966C44.5323 20.3966 46.468 22.3316 46.468 24.7101C46.468 27.0893 44.5323 29.025 42.1531 29.025C41.885 29.0249 41.6205 28.9992 41.3622 28.951Z" fill="#5C4444"/>
<path d="M61.5551 44.3159V25.6773C64.111 25.195 66.0508 22.9467 66.0508 20.2527C66.0508 17.2079 63.5739 14.731 60.5291 14.731C58.8558 14.731 57.355 15.4802 56.3417 16.6596L40.2105 7.34553C40.4111 6.77418 40.5216 6.16058 40.5216 5.52142C40.5216 2.47695 38.0446 0 35 0C31.9554 0 29.4783 2.47695 29.4783 5.52156C29.4783 6.16072 29.5887 6.77418 29.7894 7.34567L13.6582 16.6596C12.6449 15.4802 11.1441 14.731 9.47079 14.731C6.42604 14.731 3.9491 17.2079 3.9491 20.2527C3.9491 22.9467 5.88887 25.1948 8.44485 25.6773V44.3159C5.88887 44.7982 3.9491 47.0464 3.9491 49.7405C3.9491 52.7852 6.42604 55.2622 9.47079 55.2622C11.1415 55.2622 12.6401 54.5153 13.6535 53.3392L29.7892 62.6549C29.5887 63.2261 29.4783 63.8396 29.4783 64.4784C29.4783 67.5232 31.9553 70.0001 35 70.0001C38.0448 70.0001 40.5217 67.5232 40.5217 64.4784C40.5217 63.8396 40.4114 63.2261 40.2108 62.6549L56.3466 53.3392C57.36 54.5154 58.8585 55.2622 60.5293 55.2622C63.574 55.2622 66.0509 52.7852 66.0509 49.7405C66.0508 47.0463 64.1109 44.7982 61.5551 44.3159ZM60.5291 16.7818C62.4429 16.7818 64 18.3389 64 20.2527C64 22.1665 62.4429 23.7236 60.5291 23.7236C58.6153 23.7236 57.0582 22.1665 57.0582 20.2527C57.0582 18.3389 58.6153 16.7818 60.5291 16.7818ZM35 2.05079C36.9138 2.05079 38.4709 3.60776 38.4709 5.52156C38.4709 7.43358 36.9167 8.98945 35.0054 8.99232C35.0036 8.99232 35.0018 8.99204 35 8.99204C34.9982 8.99204 34.9965 8.99232 34.9947 8.99232C33.0834 8.98945 31.5291 7.43358 31.5291 5.52156C31.5291 3.60776 33.0861 2.05079 35 2.05079ZM5.99989 20.2527C5.99989 18.3389 7.55699 16.7818 9.47079 16.7818C11.3846 16.7818 12.9417 18.3389 12.9417 20.2527C12.9417 22.1665 11.3846 23.7236 9.47079 23.7236C7.55699 23.7236 5.99989 22.1665 5.99989 20.2527ZM9.47079 53.2113C7.55699 53.2113 5.99989 51.6542 5.99989 49.7403C5.99989 47.8265 7.55699 46.2695 9.47079 46.2695C11.3846 46.2695 12.9417 47.8265 12.9417 49.7403C12.9417 51.6542 11.3846 53.2113 9.47079 53.2113ZM35 67.9492C33.0862 67.9492 31.5291 66.3921 31.5291 64.4783C31.5291 62.5645 33.0862 61.0074 35 61.0074C36.9138 61.0074 38.4709 62.5645 38.4709 64.4783C38.4709 66.3921 36.9138 67.9492 35 67.9492ZM39.183 60.8801C38.3822 59.9504 37.2782 59.2899 36.0253 59.0537V55.1033C36.0253 54.5369 35.5662 54.0779 34.9999 54.0779C34.4336 54.0779 33.9745 54.5369 33.9745 55.1033V59.0537C32.7217 59.2901 31.6177 59.9504 30.8168 60.8801L14.6813 51.5646C14.882 50.9931 14.9923 50.3797 14.9923 49.7405C14.9923 49.1008 14.8817 48.4866 14.6808 47.9147L18.1029 45.9385C18.5933 45.6552 18.7612 45.028 18.478 44.5376C18.1949 44.0472 17.5677 43.8795 17.0772 44.1625L13.6521 46.1405C12.8513 45.2117 11.7477 44.5518 10.4955 44.3157V25.6774C11.7481 25.4413 12.852 24.7811 13.6528 23.8518L17.0825 25.8325C17.244 25.9257 17.4203 25.97 17.5944 25.97C17.9486 25.97 18.2933 25.7861 18.4832 25.4573C18.7665 24.9669 18.5985 24.3396 18.108 24.0565L14.6809 22.0773C14.8816 21.5057 14.9921 20.892 14.9921 20.2527C14.9921 19.6161 14.8826 19.005 14.6834 18.4355L30.8168 9.12015C31.6176 10.0496 32.7215 10.7099 33.9741 10.9462V14.897C33.9741 15.4634 34.4332 15.9224 34.9995 15.9224C35.5658 15.9224 36.0249 15.4634 36.0249 14.897V10.9462C37.2775 10.7099 38.3814 10.0496 39.1821 9.12015L55.3156 18.4355C55.1165 19.005 55.0069 19.6161 55.0069 20.2527C55.0069 20.892 55.1173 21.5057 55.318 22.0773L51.8909 24.0565C51.4005 24.3396 51.2325 24.9669 51.5157 25.4573C51.7056 25.7861 52.0503 25.97 52.4046 25.97C52.5785 25.97 52.755 25.9257 52.9164 25.8325L56.3462 23.8518C57.1471 24.7811 58.251 25.4413 59.5034 25.6774V44.3157C58.2512 44.5518 57.1478 45.2117 56.3469 46.1405L52.9218 44.1625C52.4314 43.8797 51.8042 44.0472 51.5209 44.5376C51.2377 45.028 51.4057 45.6552 51.8961 45.9385L55.3182 47.9147C55.1172 48.4866 55.0066 49.1008 55.0066 49.7405C55.0066 50.3797 55.1169 50.9933 55.3176 51.5646L39.183 60.8801ZM60.5291 53.2113C58.6153 53.2113 57.0582 51.6542 57.0582 49.7403C57.0582 47.8265 58.6153 46.2695 60.5291 46.2695C62.4429 46.2695 64 47.8265 64 49.7403C64 51.6542 62.4429 53.2113 60.5291 53.2113Z" fill="#5C4444"/>
<path d="M43.5884 45.5946H40.5369C39.9706 45.5946 39.5115 46.0536 39.5115 46.62C39.5115 47.1864 39.9706 47.6454 40.5369 47.6454H43.5884C44.1547 47.6454 44.6138 47.1864 44.6138 46.62C44.6138 46.0536 44.1547 45.5946 43.5884 45.5946Z" fill="#5C4444"/>
<path d="M43.5884 49.6107H26.4115C25.8452 49.6107 25.3861 50.0697 25.3861 50.6361C25.3861 51.2025 25.8452 51.6615 26.4115 51.6615H43.5886C44.1549 51.6615 44.614 51.2025 44.614 50.6361C44.614 50.0697 44.1547 49.6107 43.5884 49.6107Z" fill="#5C4444"/>
<path d="M26.4115 47.6454H26.4257C26.992 47.6454 27.4511 47.1864 27.4511 46.62C27.4511 46.0536 26.992 45.5946 26.4257 45.5946H26.4115C25.8452 45.5946 25.3861 46.0536 25.3861 46.62C25.3861 47.1864 25.8452 47.6454 26.4115 47.6454Z" fill="#5C4444"/>
<path d="M29.9774 47.6454C30.5436 47.6454 31.0027 47.1864 31.0027 46.62C31.0027 46.0536 30.5436 45.5946 29.9774 45.5946H29.9631C29.3968 45.5946 28.9377 46.0536 28.9377 46.62C28.9377 47.1864 29.3968 47.6454 29.9631 47.6454H29.9774Z" fill="#5C4444"/>
<path d="M33.5291 47.6454C34.0954 47.6454 34.5545 47.1864 34.5545 46.62C34.5545 46.0536 34.0954 45.5946 33.5291 45.5946H33.5149C32.9486 45.5946 32.4895 46.0536 32.4895 46.62C32.4895 47.1864 32.9486 47.6454 33.5149 47.6454H33.5291Z" fill="#5C4444"/>
</g>
<defs>
<clipPath id="clip0_32_683">
<rect width="70" height="70" fill="white"/>
</clipPath>
</defs>
</svg>
