<svg width="648" height="656" viewBox="0 0 648 656" fill="none" xmlns="http://www.w3.org/2000/svg">
<g filter="url(#filter0_d_320_8849)">
<path d="M75.9101 0L644 0.336294V648H4V576.937V71.8492C28.719 47.1121 52.5226 24.3319 75.9101 0Z" fill="white"/>
</g>
<path d="M138.927 215.148C138.774 215.148 138.624 215.067 138.542 214.927C138.418 214.713 138.49 214.442 138.702 214.319L227.074 163.068C227.288 162.941 227.559 163.016 227.683 163.228C227.806 163.441 227.735 163.712 227.523 163.836L139.151 215.086C139.08 215.128 139.003 215.148 138.927 215.148Z" fill="#DBDEE4"/>
<path d="M220.06 161.699C216.837 163.556 216.819 166.569 220.021 168.426C223.223 170.283 228.435 170.282 231.658 168.425C234.881 166.568 234.897 163.557 231.695 161.7C228.493 159.843 223.283 159.842 220.06 161.699Z" fill="white"/>
<path d="M225.831 170.253C223.642 170.253 221.457 169.772 219.796 168.809C218.11 167.832 217.183 166.505 217.185 165.073C217.186 163.634 218.128 162.298 219.836 161.313C223.179 159.391 228.599 159.391 231.918 161.314C233.606 162.293 234.533 163.62 234.531 165.052C234.53 166.491 233.588 167.826 231.881 168.811C230.209 169.774 228.019 170.253 225.831 170.253ZM220.282 162.084C218.86 162.903 218.077 163.966 218.076 165.075C218.074 166.175 218.845 167.228 220.245 168.041C223.317 169.822 228.34 169.82 231.436 168.039C232.856 167.221 233.639 166.159 233.641 165.05C233.642 163.949 232.872 162.896 231.471 162.082C228.399 160.303 223.378 160.3 220.282 162.084Z" fill="#DBDEE4"/>
<path d="M225.841 167.183C227.097 167.183 228.313 166.897 229.177 166.4C229.871 166 230.269 165.509 230.27 165.053C230.27 164.602 229.88 164.117 229.199 163.722C228.342 163.225 227.131 162.94 225.876 162.94C224.621 162.94 223.405 163.225 222.542 163.723C221.848 164.123 221.449 164.614 221.448 165.071C221.448 165.522 221.838 166.007 222.518 166.401C223.375 166.898 224.586 167.183 225.841 167.183Z" fill="#DA0000"/>
<path d="M201.696 180.902C203.045 180.902 204.351 180.595 205.279 180.061C206.024 179.631 206.451 179.104 206.452 178.614C206.453 178.13 206.034 177.609 205.302 177.185C204.382 176.651 203.081 176.345 201.733 176.345C200.385 176.345 199.08 176.652 198.153 177.186C197.407 177.615 196.979 178.143 196.979 178.634C196.978 179.118 197.397 179.639 198.128 180.063C199.047 180.596 200.348 180.902 201.696 180.902Z" fill="#383C43"/>
<path d="M148.2 265.732C148.124 265.732 148.047 265.713 147.976 265.671L107.872 242.384C107.004 241.88 106.485 240.98 106.487 239.976C106.487 238.972 107.008 238.071 107.879 237.569L148.263 214.272C148.472 214.15 148.745 214.222 148.872 214.435C148.994 214.647 148.921 214.92 148.709 215.044L108.325 238.341C107.733 238.681 107.378 239.295 107.378 239.977C107.377 240.66 107.73 241.272 108.322 241.616L148.425 264.903C148.638 265.026 148.709 265.297 148.585 265.511C148.503 265.652 148.354 265.732 148.2 265.732Z" fill="#DBDEE4"/>
<path d="M495.978 402.665C495.825 402.665 495.675 402.585 495.592 402.443C495.47 402.231 495.543 401.958 495.755 401.835L543.729 374.166C544.009 374.004 544.176 373.716 544.176 373.394C544.178 373.071 544.011 372.781 543.731 372.617L475.512 333.085C475.298 332.962 475.227 332.691 475.351 332.479C475.472 332.265 475.749 332.192 475.958 332.317L544.178 371.849C544.736 372.172 545.069 372.751 545.067 373.396C545.067 374.039 544.733 374.616 544.174 374.937L496.2 402.606C496.131 402.646 496.054 402.665 495.978 402.665Z" fill="#DBDEE4"/>
<path d="M504.881 402.901C508.104 401.045 508.122 398.035 504.92 396.18C501.717 394.325 496.506 394.326 493.282 396.181C490.059 398.036 490.044 401.044 493.246 402.9C496.448 404.755 501.657 404.756 504.881 402.901Z" fill="white"/>
<path d="M499.056 404.728C496.867 404.728 494.683 404.246 493.021 403.284C491.335 402.307 490.407 400.981 490.409 399.549C490.411 398.112 491.352 396.778 493.059 395.794C496.404 393.874 501.822 393.871 505.142 395.796C506.829 396.772 507.756 398.099 507.754 399.528C507.753 400.969 506.809 402.302 505.102 403.285C503.432 404.246 501.243 404.728 499.056 404.728ZM499.11 395.23C497.083 395.23 495.054 395.674 493.505 396.566C492.085 397.382 491.302 398.444 491.3 399.551C491.299 400.651 492.069 401.702 493.47 402.516C496.545 404.297 501.565 404.295 504.657 402.514C506.079 401.697 506.862 400.636 506.864 399.527C506.865 398.429 506.096 397.376 504.696 396.564C503.159 395.674 501.135 395.23 499.11 395.23Z" fill="#DBDEE4"/>
<path d="M499.101 397.42C497.844 397.42 496.628 397.706 495.764 398.203C495.071 398.602 494.672 399.093 494.672 399.548C494.671 399.999 495.062 400.483 495.743 400.878C496.6 401.374 497.811 401.659 499.066 401.659C500.321 401.659 501.536 401.374 502.4 400.877C503.094 400.478 503.493 399.987 503.493 399.53C503.494 399.08 503.104 398.595 502.423 398.201C501.567 397.705 500.356 397.42 499.101 397.42Z" fill="#DA0000"/>
<path d="M504.881 402.9C508.104 401.045 508.122 398.035 504.92 396.18C501.717 394.324 496.506 394.325 493.282 396.18C490.059 398.036 490.044 401.044 493.246 402.899C496.448 404.755 501.657 404.756 504.881 402.9Z" fill="white"/>
<path d="M499.056 404.727C496.867 404.727 494.683 404.246 493.021 403.283C491.335 402.307 490.407 400.981 490.409 399.549C490.411 398.112 491.352 396.777 493.059 395.794C496.404 393.874 501.822 393.87 505.142 395.795C506.829 396.772 507.756 398.098 507.754 399.528C507.753 400.969 506.809 402.301 505.102 403.285C503.432 404.246 501.243 404.727 499.056 404.727ZM499.11 395.229C497.083 395.229 495.054 395.674 493.505 396.565C492.085 397.382 491.302 398.444 491.3 399.551C491.299 400.651 492.069 401.702 493.47 402.515C496.545 404.296 501.565 404.295 504.657 402.514C506.079 401.697 506.862 400.635 506.864 399.527C506.865 398.428 506.096 397.375 504.696 396.564C503.159 395.674 501.135 395.229 499.11 395.229Z" fill="#DBDEE4"/>
<path d="M499.101 397.42C497.844 397.42 496.628 397.705 495.764 398.202C495.071 398.602 494.672 399.092 494.672 399.548C494.671 399.998 495.062 400.483 495.743 400.878C496.6 401.374 497.811 401.659 499.066 401.659C500.321 401.659 501.536 401.374 502.4 400.877C503.094 400.477 503.493 399.986 503.493 399.53C503.494 399.079 503.104 398.595 502.423 398.2C501.567 397.704 500.356 397.42 499.101 397.42Z" fill="#DA0000"/>
<path d="M524.461 383.193C523.111 383.193 521.805 383.5 520.878 384.034C520.132 384.463 519.705 384.989 519.704 385.479C519.704 385.963 520.123 386.483 520.854 386.907C521.774 387.44 523.075 387.746 524.423 387.746C525.771 387.746 527.076 387.44 528.003 386.906C528.749 386.477 529.177 385.95 529.178 385.459C529.178 384.976 528.76 384.455 528.028 384.032C527.109 383.499 525.809 383.193 524.461 383.193Z" fill="#383C43"/>
<path d="M367.945 389.032C367.792 389.032 367.642 388.952 367.561 388.811C367.437 388.598 367.508 388.326 367.721 388.203L501.838 310.419C502.05 310.293 502.323 310.367 502.446 310.579C502.57 310.793 502.499 311.064 502.286 311.187L368.17 388.971C368.098 389.013 368.022 389.032 367.945 389.032Z" fill="#DBDEE4"/>
<path d="M375.182 390.339C378.405 388.482 378.424 385.469 375.221 383.613C372.019 381.755 366.807 381.756 363.584 383.613C360.361 385.47 360.345 388.481 363.547 390.338C366.75 392.195 371.959 392.196 375.182 390.339Z" fill="white"/>
<path d="M369.357 392.168C367.168 392.168 364.985 391.687 363.323 390.723C361.636 389.744 360.709 388.417 360.711 386.985C360.713 385.546 361.654 384.211 363.361 383.228C366.702 381.304 372.124 381.303 375.444 383.228C377.13 384.206 378.058 385.532 378.056 386.964C378.054 388.405 377.111 389.741 375.404 390.724C373.734 391.687 371.545 392.168 369.357 392.168ZM369.411 382.661C367.384 382.661 365.355 383.106 363.807 383.999C362.387 384.816 361.604 385.878 361.602 386.986C361.6 388.088 362.371 389.141 363.772 389.954C366.846 391.739 371.867 391.737 374.959 389.953C376.38 389.134 377.163 388.073 377.165 386.962C377.167 385.862 376.398 384.809 374.997 383.996C373.461 383.106 371.437 382.661 369.411 382.661Z" fill="#DBDEE4"/>
<path d="M369.403 384.854C368.146 384.854 366.93 385.14 366.066 385.638C365.372 386.037 364.974 386.528 364.974 386.985C364.973 387.435 365.363 387.921 366.045 388.316C366.901 388.813 368.112 389.097 369.368 389.097C370.623 389.097 371.838 388.812 372.702 388.315C373.396 387.915 373.794 387.423 373.795 386.966C373.796 386.516 373.406 386.031 372.725 385.636C371.869 385.139 370.658 384.854 369.403 384.854Z" fill="#DA0000"/>
<path d="M393.545 371.138C392.195 371.138 390.889 371.444 389.962 371.979C389.216 372.408 388.789 372.935 388.788 373.425C388.788 373.909 389.207 374.43 389.938 374.855C390.858 375.388 392.159 375.694 393.507 375.694C394.855 375.694 396.16 375.388 397.087 374.854C397.833 374.424 398.261 373.896 398.262 373.405C398.262 372.921 397.844 372.4 397.112 371.976C396.193 371.444 394.892 371.138 393.545 371.138Z" fill="#383C43"/>
<path d="M536.338 529.393C536.262 529.393 536.185 529.374 536.114 529.332L402.006 451.556C401.794 451.432 401.722 451.161 401.846 450.947C401.967 450.735 402.239 450.661 402.455 450.788L536.563 528.564C536.775 528.688 536.846 528.959 536.723 529.172C536.641 529.313 536.492 529.393 536.338 529.393Z" fill="#DBDEE4"/>
<path d="M529.1 530.701C525.877 528.844 525.859 525.832 529.061 523.975C532.263 522.118 537.474 522.119 540.697 523.976C543.92 525.832 543.936 528.843 540.734 530.7C537.532 532.557 532.323 532.558 529.1 530.701Z" fill="white"/>
<path d="M534.924 532.531C532.737 532.531 530.548 532.049 528.878 531.087C527.169 530.103 526.227 528.767 526.226 527.326C526.224 525.895 527.151 524.569 528.836 523.592C532.163 521.668 537.58 521.667 540.921 523.59C542.628 524.575 543.569 525.91 543.571 527.349C543.573 528.779 542.645 530.106 540.959 531.085C539.299 532.049 537.113 532.531 534.924 532.531ZM534.87 523.024C532.845 523.024 530.821 523.469 529.285 524.36C527.884 525.172 527.115 526.225 527.117 527.324C527.118 528.435 527.901 529.497 529.323 530.315C532.415 532.099 537.435 532.099 540.51 530.317C541.911 529.504 542.682 528.451 542.68 527.35C542.678 526.242 541.895 525.18 540.475 524.362C538.926 523.47 536.898 523.024 534.87 523.024Z" fill="#DBDEE4"/>
<path d="M534.881 525.217C536.137 525.217 537.353 525.502 538.217 526C538.911 526.4 539.309 526.891 539.31 527.347C539.31 527.797 538.92 528.282 538.239 528.678C537.382 529.174 536.171 529.459 534.916 529.459C533.661 529.459 532.446 529.174 531.583 528.676C530.888 528.277 530.49 527.785 530.489 527.328C530.489 526.877 530.879 526.392 531.559 525.998C532.415 525.501 533.626 525.217 534.881 525.217Z" fill="#DA0000"/>
<path d="M513.961 513.375C515.311 513.375 516.616 513.681 517.544 514.216C518.289 514.645 518.717 515.172 518.717 515.662C518.718 516.146 518.299 516.667 517.567 517.091C516.647 517.625 515.347 517.931 513.999 517.931C512.65 517.931 511.346 517.624 510.418 517.09C509.673 516.66 509.245 516.133 509.244 515.642C509.244 515.158 509.662 514.637 510.394 514.213C511.313 513.68 512.613 513.375 513.961 513.375Z" fill="#383C43"/>
<path d="M310.862 533.942C310.785 533.942 310.708 533.923 310.637 533.881L176.527 456.105C176.315 455.981 176.244 455.71 176.367 455.497C176.489 455.285 176.76 455.211 176.976 455.337L311.086 533.113C311.298 533.237 311.37 533.508 311.246 533.722C311.164 533.862 311.015 533.942 310.862 533.942Z" fill="#DBDEE4"/>
<path d="M303.624 535.251C300.401 533.394 300.383 530.381 303.585 528.525C306.787 526.668 311.999 526.669 315.222 528.525C318.445 530.382 318.46 533.393 315.258 535.25C312.056 537.107 306.848 537.108 303.624 535.251Z" fill="white"/>
<path d="M309.449 537.078C307.262 537.08 305.072 536.599 303.402 535.636C301.695 534.653 300.752 533.316 300.75 531.876C300.748 530.444 301.676 529.118 303.36 528.14C306.682 526.216 312.102 526.216 315.445 528.14C317.152 529.125 318.094 530.46 318.095 531.899C318.097 533.329 317.17 534.656 315.484 535.635C313.822 536.597 311.636 537.078 309.449 537.078ZM309.393 527.573C307.368 527.573 305.346 528.018 303.809 528.908C302.408 529.721 301.639 530.774 301.641 531.874C301.643 532.984 302.426 534.046 303.848 534.865C306.941 536.647 311.961 536.649 315.035 534.866C316.435 534.053 317.206 533 317.204 531.9C317.203 530.791 316.42 529.73 315 528.911C313.451 528.018 311.42 527.573 309.393 527.573Z" fill="#DBDEE4"/>
<path d="M309.404 529.766C310.661 529.766 311.877 530.051 312.741 530.549C313.434 530.948 313.832 531.439 313.833 531.895C313.834 532.346 313.443 532.831 312.762 533.226C311.906 533.723 310.695 534.008 309.44 534.008C308.184 534.008 306.969 533.723 306.106 533.225C305.412 532.825 305.013 532.334 305.013 531.877C305.012 531.426 305.402 530.941 306.083 530.547C306.939 530.05 308.149 529.766 309.404 529.766Z" fill="#DA0000"/>
<path d="M288.483 517.924C289.833 517.924 291.139 518.231 292.067 518.765C292.811 519.194 293.239 519.722 293.24 520.212C293.24 520.696 292.821 521.217 292.09 521.641C291.17 522.174 289.869 522.48 288.521 522.48C287.173 522.48 285.868 522.174 284.941 521.64C284.195 521.21 283.767 520.683 283.767 520.192C283.766 519.708 284.185 519.187 284.916 518.763C285.835 518.23 287.136 517.924 288.483 517.924Z" fill="#383C43"/>
<g opacity="0.1">
<path d="M170.58 504.607C167.729 506.25 167.714 508.91 170.546 510.553L202.507 529.097C205.34 530.74 209.939 530.74 212.791 529.097L284.504 487.761C287.355 486.118 287.37 483.458 284.537 481.815L252.576 463.271C249.744 461.628 245.144 461.628 242.293 463.271L170.58 504.607Z" fill="#010101"/>
</g>
<path d="M202.515 512.013L170.551 493.476C169.139 492.667 168.433 491.588 168.433 490.531L168.474 501.938C168.474 502.996 169.18 504.074 170.593 504.883L202.536 523.441C203.967 524.264 205.838 524.672 207.709 524.668V513.253C205.827 513.264 203.945 512.852 202.515 512.013Z" fill="#BEC4CD"/>
<path d="M207.684 525.113C205.664 525.113 203.758 524.656 202.314 523.827L170.368 505.267C168.882 504.416 168.029 503.201 168.029 501.938L167.987 490.551C167.987 490.546 167.987 490.539 167.987 490.533V490.532C167.987 490.287 168.186 490.087 168.433 490.087C168.678 490.087 168.876 490.285 168.878 490.53V490.547C168.885 491.479 169.574 492.403 170.771 493.089L202.74 511.629C202.74 511.629 202.74 511.629 202.742 511.629C204.038 512.391 205.773 512.809 207.637 512.809C207.659 512.809 207.682 512.809 207.706 512.809H207.708C207.826 512.809 207.939 512.855 208.023 512.937C208.107 513.022 208.154 513.135 208.154 513.253V524.668C208.154 524.913 207.955 525.113 207.708 525.113C207.701 525.113 207.693 525.113 207.684 525.113ZM168.887 492.714L168.92 501.936C168.92 502.874 169.611 503.807 170.815 504.497L202.761 523.057C203.971 523.753 205.556 524.159 207.263 524.216V513.693C205.385 513.639 203.635 513.186 202.291 512.397L170.326 493.859C169.745 493.527 169.261 493.138 168.887 492.714Z" fill="#383C43"/>
<path d="M286.653 467.7C286.653 468.778 285.947 469.856 284.514 470.686L212.797 512.011C211.382 512.83 209.546 513.241 207.71 513.252V524.666C209.561 524.662 211.413 524.254 212.839 523.439L284.535 482.093C285.968 481.264 286.695 480.186 286.695 479.107L286.653 467.7Z" fill="#DBDEE4"/>
<path d="M207.709 525.111C207.591 525.111 207.478 525.064 207.394 524.981C207.311 524.897 207.264 524.784 207.264 524.666V513.251C207.264 513.006 207.462 512.808 207.707 512.806C209.547 512.796 211.276 512.377 212.574 511.625L284.292 470.299C285.527 469.585 286.208 468.661 286.208 467.7C286.208 467.455 286.406 467.255 286.653 467.255C286.898 467.255 287.097 467.453 287.099 467.698V467.7C287.099 467.701 287.099 467.701 287.099 467.703L287.14 479.104C287.14 480.39 286.295 481.587 284.76 482.477L213.062 523.825C211.621 524.649 209.721 525.106 207.711 525.111C207.709 525.111 207.709 525.111 207.709 525.111ZM208.155 513.686V524.213C209.844 524.146 211.416 523.742 212.618 523.053L284.313 481.707C285.562 480.984 286.249 480.06 286.249 479.106L286.216 469.888C285.837 470.322 285.341 470.722 284.737 471.069L213.02 512.396C211.697 513.161 209.983 513.615 208.155 513.686Z" fill="#383C43"/>
<path d="M170.58 487.531C167.729 489.174 167.714 491.834 170.546 493.477L202.507 512.02C205.34 513.664 209.939 513.664 212.791 512.02L284.504 470.685C287.355 469.042 287.37 466.382 284.537 464.739L252.576 446.195C249.744 444.552 245.144 444.552 242.293 446.195L170.58 487.531Z" fill="white"/>
<path d="M207.642 513.688C205.698 513.688 203.758 513.26 202.283 512.404L170.322 493.861C168.814 492.985 167.984 491.797 167.985 490.511C167.989 489.22 168.831 488.024 170.357 487.145L242.069 445.809C245.038 444.097 249.849 444.096 252.8 445.811L284.762 464.353C286.269 465.229 287.099 466.418 287.097 467.702C287.094 468.995 286.252 470.19 284.726 471.07L213.013 512.405C211.529 513.26 209.584 513.688 207.642 513.688ZM247.441 445.404C245.659 445.404 243.876 445.795 242.515 446.581L170.803 487.916C169.562 488.63 168.878 489.552 168.877 490.512C168.875 491.466 169.548 492.382 170.772 493.093L202.732 511.636C205.432 513.203 209.847 513.205 212.568 511.634L284.281 470.298C285.521 469.584 286.205 468.663 286.207 467.702C286.209 466.748 285.537 465.832 284.314 465.121L252.352 446.579C251.001 445.795 249.223 445.404 247.441 445.404Z" fill="#383C43"/>
<path d="M213.066 491.077L203.096 485.293L202.949 433.476L212.919 439.26L213.066 491.077Z" fill="#F1F2F5"/>
<path d="M213.066 491.523C212.99 491.523 212.911 491.502 212.842 491.462L202.873 485.677C202.737 485.599 202.652 485.453 202.652 485.295L202.504 433.477C202.504 433.318 202.589 433.17 202.727 433.09C202.866 433.01 203.035 433.012 203.174 433.091L213.144 438.876C213.28 438.954 213.366 439.1 213.366 439.258L213.512 491.076C213.512 491.236 213.426 491.383 213.289 491.464C213.219 491.504 213.143 491.523 213.066 491.523ZM203.543 485.036L212.619 490.303L212.475 439.518L203.396 434.251L203.543 485.036Z" fill="#383C43"/>
<path d="M212.919 439.262L202.949 433.478L238.782 412.824L248.751 418.608L212.919 439.262Z" fill="white"/>
<path d="M212.92 439.707C212.843 439.707 212.765 439.686 212.696 439.646L202.725 433.861C202.588 433.781 202.504 433.636 202.504 433.477C202.504 433.318 202.589 433.172 202.727 433.092L238.56 412.438C238.699 412.358 238.868 412.359 239.007 412.439L248.976 418.224C249.114 418.304 249.197 418.45 249.197 418.608C249.197 418.768 249.112 418.914 248.975 418.994L213.143 439.648C213.073 439.688 212.997 439.707 212.92 439.707ZM203.838 433.479L212.92 438.748L247.863 418.606L238.783 413.338L203.838 433.479Z" fill="#383C43"/>
<path d="M248.751 418.608L248.899 470.424L213.066 491.078L212.919 439.261L248.751 418.608Z" fill="white"/>
<path d="M213.066 491.523C212.99 491.523 212.913 491.504 212.843 491.464C212.706 491.384 212.621 491.238 212.621 491.08L212.475 439.262C212.475 439.103 212.56 438.955 212.697 438.875L248.529 418.221C248.668 418.141 248.835 418.141 248.975 418.221C249.112 418.301 249.197 418.447 249.197 418.605L249.345 470.422C249.345 470.582 249.26 470.73 249.123 470.81L213.289 491.464C213.219 491.504 213.143 491.523 213.066 491.523ZM213.365 439.518L213.51 490.308L248.454 470.167L248.308 419.376L213.365 439.518Z" fill="#383C43"/>
<path d="M337.845 168.168C344.019 164.609 349.04 167.466 349.06 174.549L349.538 361.121C349.558 368.204 344.57 376.83 338.395 380.389L120.878 505.765C114.704 509.323 109.683 506.467 109.663 499.384L109.186 312.812C109.166 305.729 114.154 297.103 120.328 293.544L337.845 168.168Z" fill="#DBDEE4"/>
<path d="M115.861 507.745C114.718 507.745 113.658 507.478 112.721 506.939C110.472 505.646 109.228 502.963 109.218 499.385L108.739 312.813C108.72 305.6 113.819 296.783 120.106 293.158L337.623 167.781C340.762 165.971 343.738 165.691 346.003 166.993C348.251 168.285 349.496 170.968 349.506 174.546L349.985 361.119C350.004 368.334 344.905 377.15 338.618 380.775L121.101 506.15C119.262 507.21 117.478 507.745 115.861 507.745ZM342.859 167.078C341.401 167.078 339.768 167.573 338.068 168.553L120.551 293.93C114.511 297.41 109.611 305.882 109.63 312.81L110.109 499.382C110.119 502.632 111.203 505.04 113.166 506.168C115.141 507.302 117.802 507.024 120.655 505.379L338.173 380.004C344.213 376.523 349.113 368.052 349.094 361.122L348.615 174.55C348.605 171.301 347.521 168.892 345.558 167.764C344.759 167.305 343.849 167.078 342.859 167.078Z" fill="#383C43"/>
<path d="M337.18 346.57L121.826 470.679C120.006 471.728 117.731 470.421 117.725 468.323L117.344 310.695C117.323 308.397 119.791 304.152 121.803 302.993L336.839 179.052C338.659 178.003 340.934 179.31 340.94 181.408L341.328 339.374C341.337 342.341 339.754 345.086 337.18 346.57Z" fill="white"/>
<path d="M120.459 471.494C119.916 471.494 119.371 471.352 118.875 471.067C117.88 470.497 117.283 469.47 117.28 468.325L116.899 310.697C116.876 308.243 119.415 303.857 121.581 302.608L336.617 178.666C337.609 178.095 338.796 178.093 339.791 178.665C340.786 179.234 341.383 180.262 341.387 181.407L341.775 339.372C341.783 342.491 340.109 345.396 337.404 346.955L122.05 471.065C121.552 471.352 121.005 471.494 120.459 471.494ZM338.208 179.127C337.814 179.127 337.421 179.232 337.063 179.438L122.027 303.38C120.146 304.462 117.771 308.563 117.79 310.692L118.171 468.321C118.174 469.147 118.603 469.886 119.32 470.297C120.035 470.709 120.889 470.706 121.604 470.294L336.959 346.184C339.388 344.785 340.893 342.177 340.885 339.376L340.496 181.411C340.493 180.585 340.065 179.847 339.348 179.435C338.991 179.23 338.599 179.127 338.208 179.127Z" fill="#383C43"/>
<path d="M345.797 167.382C343.775 166.207 340.964 166.391 337.841 168.17L120.338 293.544C117.27 295.305 114.514 298.313 112.493 301.744C110.453 305.265 109.186 309.246 109.186 312.804L109.663 499.389C109.682 502.911 110.913 505.387 112.934 506.542L99.3928 498.765C97.3717 497.609 96.1406 495.133 96.1224 491.611L95.6447 305.027C95.6262 301.468 96.8941 297.525 98.9336 294.021C100.936 290.572 103.711 287.546 106.797 285.785L324.3 160.392C327.424 158.595 330.235 158.448 332.256 159.622L345.797 167.382Z" fill="#BEC4CD"/>
<path d="M112.933 506.988C112.858 506.988 112.782 506.969 112.712 506.929C112.712 506.929 112.712 506.929 112.71 506.929L99.1692 499.151C96.9348 497.872 95.6943 495.196 95.6769 491.613L95.1984 305.029C95.181 301.526 96.3711 297.538 98.5482 293.798C100.687 290.114 103.539 287.131 106.575 285.4L324.077 160.008C327.228 158.195 330.211 157.921 332.48 159.238L345.955 166.96C345.977 166.972 345.998 166.985 346.021 166.998C346.233 167.122 346.305 167.393 346.183 167.605C346.06 167.817 345.788 167.888 345.576 167.768L345.52 167.737C343.574 166.635 340.928 166.924 338.062 168.556L120.56 293.93C117.687 295.577 114.959 298.434 112.877 301.97C110.784 305.583 109.63 309.432 109.63 312.805L110.109 499.388C110.125 502.63 111.2 505.03 113.138 506.147L113.156 506.158C113.368 506.281 113.441 506.552 113.319 506.764C113.238 506.908 113.086 506.988 112.933 506.988ZM329.307 159.307C327.849 159.307 326.22 159.801 324.522 160.779L107.018 286.171C104.114 287.827 101.379 290.694 99.3166 294.245C97.2197 297.85 96.0731 301.678 96.0889 305.025L96.5673 491.61C96.5829 494.861 97.6652 497.266 99.6126 498.38L110.424 504.588C109.644 503.219 109.228 501.455 109.218 499.391L108.739 312.806C108.739 309.277 109.935 305.27 112.107 301.522C114.268 297.852 117.111 294.882 120.114 293.158L337.618 167.784C339.454 166.739 341.222 166.206 342.821 166.19L332.034 160.007C331.227 159.54 330.306 159.307 329.307 159.307Z" fill="#383C43"/>
<path d="M216.546 431.61C216.546 433.793 215.019 436.439 213.115 437.534C211.217 438.622 209.677 437.755 209.67 435.573C209.663 433.39 211.197 430.743 213.094 429.649C214.992 428.554 216.539 429.427 216.546 431.61Z" fill="#383C43"/>
<path d="M211.571 438.45C211.166 438.45 210.788 438.353 210.451 438.16C209.664 437.707 209.229 436.787 209.226 435.574C209.219 433.22 210.82 430.448 212.871 429.263C213.936 428.648 214.961 428.559 215.759 429.02C216.549 429.473 216.988 430.393 216.991 431.609V431.611C216.991 433.97 215.385 436.742 213.337 437.92C212.723 438.273 212.121 438.45 211.571 438.45ZM214.637 429.619C214.244 429.619 213.793 429.76 213.317 430.035C211.545 431.056 210.11 433.539 210.117 435.571C210.118 436.455 210.395 437.1 210.896 437.389C211.403 437.682 212.113 437.597 212.894 437.149C214.662 436.132 216.101 433.647 216.101 431.611C216.097 430.726 215.819 430.08 215.316 429.79C215.117 429.677 214.888 429.619 214.637 429.619Z" fill="#383C43"/>
<path d="M232.8 422.242C232.8 424.425 231.272 427.072 229.368 428.166C227.471 429.254 225.931 428.388 225.924 426.205C225.917 424.022 227.451 421.376 229.348 420.281C231.246 419.186 232.793 420.06 232.8 422.242Z" fill="#383C43"/>
<path d="M227.825 429.084C227.419 429.084 227.042 428.986 226.706 428.794C225.918 428.34 225.481 427.421 225.478 426.208C225.471 423.853 227.072 421.082 229.125 419.897C230.191 419.282 231.213 419.193 232.013 419.652C232.803 420.105 233.242 421.025 233.245 422.241V422.243C233.245 424.602 231.639 427.374 229.591 428.552C228.975 428.905 228.375 429.084 227.825 429.084ZM230.891 420.253C230.498 420.253 230.047 420.392 229.57 420.668C227.799 421.69 226.362 424.175 226.369 426.205C226.372 427.089 226.649 427.734 227.15 428.022C227.662 428.318 228.368 428.227 229.146 427.781C230.915 426.764 232.354 424.281 232.354 422.244C232.351 421.358 232.073 420.712 231.568 420.423C231.371 420.309 231.143 420.253 230.891 420.253Z" fill="#383C43"/>
<path d="M249.054 412.872C249.054 415.055 247.526 417.702 245.622 418.796C243.725 419.884 242.184 419.018 242.178 416.835C242.171 414.652 243.705 412.006 245.602 410.911C247.499 409.816 249.047 410.689 249.054 412.872Z" fill="#383C43"/>
<path d="M244.08 419.713C243.674 419.713 243.295 419.616 242.959 419.423C242.173 418.97 241.736 418.05 241.732 416.837C241.725 414.483 243.327 411.711 245.38 410.526C246.446 409.913 247.475 409.826 248.267 410.283C249.058 410.736 249.497 411.656 249.5 412.872V412.874C249.5 415.234 247.894 418.005 245.846 419.183C245.23 419.536 244.63 419.713 244.08 419.713ZM247.146 410.882C246.751 410.882 246.302 411.023 245.825 411.298C244.054 412.319 242.617 414.804 242.624 416.834C242.627 417.718 242.904 418.363 243.405 418.651C243.915 418.947 244.623 418.858 245.403 418.412C247.171 417.395 248.61 414.912 248.61 412.875C248.606 411.989 248.328 411.343 247.823 411.052C247.625 410.94 247.396 410.882 247.146 410.882Z" fill="#383C43"/>
<path d="M115.012 297.725C113.928 298.954 112.972 300.293 112.146 301.724C111.116 303.485 110.29 305.337 109.72 307.208L96.5098 299.614C97.0979 297.744 97.9245 295.891 98.935 294.148C99.7801 292.718 100.735 291.342 101.82 290.113L115.012 297.725Z" fill="#F1F2F5"/>
<path d="M112.933 506.988C112.858 506.988 112.782 506.969 112.712 506.929C112.712 506.929 112.712 506.929 112.71 506.929L99.1692 499.151C96.9348 497.872 95.6943 495.196 95.6769 491.613L95.1984 305.029C95.181 301.526 96.3711 297.538 98.5482 293.798C100.687 290.114 103.539 287.131 106.575 285.4L324.077 160.008C327.228 158.195 330.211 157.921 332.48 159.238L345.955 166.96C345.977 166.972 345.998 166.985 346.021 166.998C346.233 167.122 346.305 167.393 346.183 167.605C346.06 167.817 345.788 167.888 345.576 167.768L345.52 167.737C343.574 166.635 340.928 166.924 338.062 168.556L120.56 293.93C117.687 295.577 114.959 298.434 112.877 301.97C110.784 305.583 109.63 309.432 109.63 312.805L110.109 499.388C110.125 502.63 111.2 505.03 113.138 506.147L113.156 506.158C113.368 506.281 113.441 506.552 113.319 506.764C113.238 506.908 113.086 506.988 112.933 506.988ZM329.307 159.307C327.849 159.307 326.22 159.801 324.522 160.779L107.018 286.171C104.114 287.827 101.379 290.694 99.3166 294.245C97.2197 297.85 96.0731 301.678 96.0889 305.025L96.5673 491.61C96.5829 494.861 97.6652 497.266 99.6126 498.38L110.424 504.588C109.644 503.219 109.228 501.455 109.218 499.391L108.739 312.806C108.739 309.277 109.935 305.27 112.107 301.522C114.268 297.852 117.111 294.882 120.114 293.158L337.618 167.784C339.454 166.739 341.222 166.206 342.821 166.19L332.034 160.007C331.227 159.54 330.306 159.307 329.307 159.307Z" fill="#383C43"/>
<path d="M317.396 180.501C317.322 180.501 317.245 180.482 317.176 180.441L303.634 172.681C303.42 172.56 303.347 172.287 303.469 172.075C303.591 171.859 303.866 171.79 304.076 171.909L317.618 179.67C317.832 179.791 317.905 180.064 317.783 180.276C317.701 180.421 317.549 180.501 317.396 180.501Z" fill="#383C43"/>
<path d="M109.185 330.4C109.11 330.4 109.034 330.381 108.964 330.34L95.4801 322.613C95.2659 322.491 95.193 322.218 95.3147 322.006C95.4364 321.793 95.7098 321.718 95.9221 321.841L109.406 329.569C109.62 329.69 109.693 329.963 109.571 330.175C109.49 330.32 109.338 330.4 109.185 330.4Z" fill="#383C43"/>
<path d="M109.185 472.009C109.11 472.009 109.034 471.99 108.964 471.95L95.4801 464.224C95.2659 464.103 95.193 463.83 95.3147 463.618C95.4364 463.404 95.7098 463.331 95.9221 463.453L109.406 471.179C109.62 471.3 109.693 471.573 109.571 471.785C109.49 471.929 109.338 472.009 109.185 472.009Z" fill="#383C43"/>
<path d="M257.779 293.812C257.626 293.812 257.477 293.732 257.393 293.59C257.272 293.378 257.343 293.105 257.557 292.982L286.411 276.322L292.809 264.803C292.849 264.732 292.906 264.675 292.976 264.633L316.914 250.81C317.123 250.689 317.396 250.76 317.523 250.973C317.645 251.185 317.574 251.458 317.36 251.582L293.528 265.342L287.129 276.861C287.089 276.932 287.032 276.99 286.962 277.032L258.002 293.753C257.933 293.793 257.856 293.812 257.779 293.812Z" fill="#DBDEE4"/>
<path d="M257.859 328.614C257.706 328.614 257.556 328.534 257.472 328.392C257.351 328.18 257.422 327.907 257.636 327.784L286.596 311.064C286.74 310.98 286.918 310.986 287.059 311.074L293.335 315.08L317.039 301.394C317.248 301.274 317.521 301.342 317.648 301.557C317.769 301.769 317.698 302.042 317.484 302.165L293.546 315.987C293.401 316.07 293.224 316.065 293.083 315.976L286.806 311.971L258.081 328.555C258.012 328.595 257.935 328.614 257.859 328.614Z" fill="#DBDEE4"/>
<path d="M141.433 351.715C141.28 351.715 141.13 351.635 141.047 351.492C140.925 351.28 140.996 351.007 141.21 350.884L165.157 337.056C165.303 336.972 165.479 336.976 165.62 337.066L171.896 341.065L200.611 324.482C200.819 324.36 201.093 324.432 201.22 324.645C201.342 324.857 201.271 325.13 201.057 325.253L172.107 341.97C171.961 342.053 171.785 342.048 171.644 341.959L165.368 337.961L141.656 351.656C141.586 351.696 141.509 351.715 141.433 351.715Z" fill="#DBDEE4"/>
<path d="M141.558 402.298C141.405 402.298 141.255 402.218 141.172 402.075C141.05 401.863 141.121 401.591 141.335 401.467L165.174 387.701L171.574 376.172C171.614 376.101 171.672 376.044 171.741 376.002L200.691 359.285C200.9 359.165 201.173 359.233 201.3 359.449C201.422 359.661 201.35 359.933 201.136 360.057L172.295 376.711L165.894 388.24C165.855 388.312 165.797 388.369 165.727 388.411L141.781 402.239C141.711 402.279 141.634 402.298 141.558 402.298Z" fill="#DBDEE4"/>
<path d="M255.762 312.154C255.609 312.154 255.459 312.074 255.377 311.933C255.253 311.72 255.325 311.449 255.537 311.325L317.435 275.387C317.648 275.26 317.921 275.335 318.044 275.547C318.168 275.76 318.097 276.031 317.884 276.155L255.986 312.093C255.915 312.135 255.838 312.154 255.762 312.154Z" fill="#DBDEE4"/>
<path d="M143.354 376.067C143.201 376.067 143.052 375.987 142.97 375.846C142.846 375.632 142.918 375.361 143.13 375.238L205.028 339.298C205.24 339.173 205.513 339.245 205.637 339.457C205.76 339.671 205.689 339.942 205.477 340.066L143.579 376.006C143.507 376.048 143.431 376.067 143.354 376.067Z" fill="#DBDEE4"/>
<path d="M268.164 298.424C269.138 298.123 269.85 298.728 269.853 299.888L269.872 306.359C269.875 307.54 269.168 308.943 268.196 309.777L260.397 316.291C259.59 321.144 258.101 326.108 256.055 330.933L260.371 336.2C260.92 336.867 260.796 338.216 260.07 339.462L256.099 346.342C255.685 347.071 255.13 347.645 254.57 347.969C254.173 348.198 253.772 348.302 253.417 348.246L246.662 347.204C243.504 351.395 239.943 355.179 236.134 358.32L234.413 368.298C234.198 369.553 233.318 370.867 232.29 371.461L226.659 374.712C225.649 375.295 224.764 375 224.534 374.002L222.762 366.041C218.948 367.312 215.386 367.641 212.214 367.095L205.487 375.921C205.13 376.389 204.729 376.747 204.331 376.977C203.77 377.301 203.212 377.37 202.785 377.126L198.787 374.848C198.067 374.437 197.945 373.23 198.479 371.937L202.741 361.717C200.684 359.261 199.172 356.03 198.331 352.128L190.53 354.622C189.546 354.918 188.834 354.334 188.831 353.153L188.813 346.682C188.809 345.522 189.516 344.098 190.498 343.269L198.288 336.761C199.103 331.903 200.592 326.938 202.629 322.118L198.322 316.846C197.783 316.173 197.898 314.83 198.614 313.579L202.585 306.699C203.008 305.973 203.561 305.406 204.121 305.083C204.521 304.852 204.925 304.745 205.286 304.794L212.04 305.826C215.199 301.625 218.751 297.847 222.56 294.715L224.281 284.748C224.505 283.488 225.385 282.163 226.395 281.58L232.025 278.329C233.053 277.735 233.938 278.041 234.159 279.044L235.932 286.994C239.745 285.745 243.316 285.411 246.488 285.935L253.215 277.12C253.571 276.656 253.973 276.298 254.372 276.067C254.931 275.745 255.484 275.672 255.899 275.915L259.897 278.193C260.627 278.61 260.758 279.811 260.215 281.109L255.943 291.334C258.009 293.785 259.522 297.017 260.353 300.924L268.164 298.424ZM229.398 344.828C238.186 339.754 245.303 327.424 245.275 317.326C245.246 307.217 238.082 303.145 229.295 308.219C220.498 313.298 213.39 325.612 213.419 335.72C213.447 345.819 220.602 349.907 229.398 344.828Z" fill="#DA0000"/>
<path d="M315.354 246.604C318.095 245.022 320.323 246.294 320.332 249.444C320.34 252.588 318.128 256.427 315.387 258.01C312.645 259.593 310.418 258.318 310.409 255.173C310.4 252.023 312.613 248.187 315.354 246.604Z" fill="#DA0000"/>
<path d="M315.354 271.02C318.095 269.437 320.323 270.709 320.332 273.86C320.34 277.004 318.128 280.843 315.387 282.426C312.645 284.008 310.418 282.733 310.409 279.589C310.4 276.439 312.613 272.603 315.354 271.02Z" fill="#DA0000"/>
<path d="M315.354 296.82C318.095 295.237 320.323 296.51 320.332 299.66C320.34 302.804 318.128 306.643 315.387 308.226C312.645 309.809 310.418 308.533 310.409 305.389C310.4 302.239 312.613 298.403 315.354 296.82Z" fill="#DA0000"/>
<path d="M143.338 344.255C146.079 342.672 148.306 343.945 148.315 347.095C148.324 350.239 146.111 354.078 143.37 355.661C140.629 357.244 138.401 355.969 138.393 352.824C138.384 349.674 140.596 345.838 143.338 344.255Z" fill="#DA0000"/>
<path d="M143.338 368.672C146.079 367.089 148.306 368.362 148.315 371.512C148.324 374.656 146.111 378.495 143.37 380.078C140.629 381.661 138.401 380.386 138.393 377.241C138.384 374.091 140.596 370.255 143.338 368.672Z" fill="#DA0000"/>
<path d="M143.338 394.471C146.079 392.888 148.306 394.161 148.315 397.311C148.324 400.455 146.111 404.294 143.37 405.877C140.629 407.46 138.401 406.184 138.393 403.04C138.384 399.89 140.596 396.054 143.338 394.471Z" fill="#DA0000"/>
<g opacity="0.1">
<path d="M421.56 313.508C398.148 327.02 398.024 348.937 421.295 362.456C444.565 375.974 482.405 375.968 505.817 362.456C529.24 348.938 529.385 327.021 506.114 313.502C482.844 299.984 444.982 299.99 421.56 313.508Z" fill="#383C43"/>
</g>
<path d="M523.515 328.491C523.535 337.407 517.654 346.342 505.853 353.136C496.72 358.411 485.405 361.623 473.605 362.772C467.062 363.433 460.362 363.434 453.82 362.811C441.902 361.682 430.491 358.451 421.338 353.136C409.771 346.42 403.987 337.641 403.968 328.842L403.929 307.176C403.948 315.994 409.732 324.773 421.299 331.489C430.471 336.823 441.902 340.054 453.82 341.164C460.363 341.787 467.062 341.787 473.605 341.125C485.386 339.976 496.7 336.745 505.814 331.489C517.595 324.715 523.476 315.799 523.476 306.864L523.515 328.491Z" fill="#BEC4CD"/>
<path d="M473.605 341.127V362.774C467.062 363.435 460.363 363.435 453.82 362.813V341.166C460.363 341.789 467.062 341.789 473.605 341.127Z" fill="#F1F2F5"/>
<path d="M463.538 363.701C448.151 363.701 432.787 360.311 421.11 353.527C409.79 346.954 403.542 338.183 403.514 328.836L403.476 307.187V307.185C403.476 306.94 403.674 306.74 403.919 306.74C403.921 306.74 403.921 306.74 403.921 306.74C404.166 306.74 404.367 306.938 404.367 307.183C404.391 316.2 410.483 324.697 421.519 331.109C444.622 344.529 482.338 344.531 505.594 331.107C516.847 324.612 523.039 316.009 523.03 306.877V306.835V306.834C523.03 306.589 523.228 306.389 523.474 306.389C523.475 306.389 523.475 306.389 523.475 306.389C523.721 306.389 523.921 306.587 523.921 306.832C523.921 306.847 523.921 306.863 523.921 306.877L523.961 328.483C523.987 337.962 517.636 346.857 506.078 353.528C494.329 360.309 478.922 363.701 463.538 363.701ZM404.377 313.23L404.405 328.835C404.431 337.853 410.523 346.349 421.559 352.759C444.662 366.179 482.376 366.181 505.632 352.757C516.901 346.253 523.094 337.632 523.07 328.485L523.04 312.933C520.931 320.085 515.077 326.661 506.04 331.879C482.538 345.44 444.422 345.441 421.07 331.877C412.232 326.742 406.484 320.27 404.377 313.23Z" fill="#383C43"/>
<path d="M421.56 282.547C398.148 296.059 398.024 317.976 421.295 331.494C444.565 345.013 482.405 345.007 505.817 331.494C529.24 317.976 529.385 296.06 506.114 282.541C482.844 269.022 444.982 269.029 421.56 282.547Z" fill="white"/>
<path d="M463.498 342.052C448.111 342.052 432.748 338.661 421.07 331.878C409.711 325.278 403.462 316.478 403.476 307.098C403.488 297.656 409.832 288.799 421.336 282.159C444.853 268.592 482.985 268.59 506.339 282.156C517.689 288.75 523.935 297.545 523.921 306.92C523.907 316.367 517.557 325.231 506.04 331.879C494.291 338.66 478.882 342.052 463.498 342.052ZM421.782 282.931C410.565 289.405 404.379 297.988 404.367 307.098C404.353 316.148 410.445 324.675 421.519 331.11C444.622 344.53 482.338 344.531 505.595 331.108C516.825 324.626 523.018 316.035 523.03 306.918C523.042 297.875 516.956 289.353 505.89 282.924C482.784 269.499 445.052 269.504 421.782 282.931Z" fill="#383C43"/>
<path d="M421.56 282.547C398.148 296.059 398.024 317.976 421.295 331.494C444.565 345.013 482.405 345.007 505.817 331.494C529.24 317.976 529.385 296.06 506.114 282.541C482.844 269.022 444.982 269.029 421.56 282.547Z" fill="white"/>
<path d="M463.498 342.052C448.111 342.052 432.748 338.661 421.07 331.878C409.711 325.278 403.462 316.478 403.476 307.098C403.488 297.656 409.832 288.799 421.336 282.159C444.853 268.592 482.985 268.59 506.339 282.156C517.689 288.75 523.935 297.545 523.921 306.92C523.907 316.367 517.557 325.231 506.04 331.879C494.291 338.66 478.882 342.052 463.498 342.052ZM421.782 282.931C410.565 289.405 404.379 297.988 404.367 307.098C404.353 316.148 410.445 324.675 421.519 331.11C444.622 344.53 482.338 344.531 505.595 331.108C516.825 324.626 523.018 316.035 523.03 306.918C523.042 297.875 516.956 289.353 505.89 282.924C482.784 269.499 445.052 269.504 421.782 282.931Z" fill="#383C43"/>
<path d="M421.56 282.547C398.148 296.059 398.024 317.976 421.295 331.494C444.565 345.013 482.405 345.007 505.817 331.494C529.24 317.976 529.385 296.06 506.114 282.541C482.844 269.022 444.982 269.029 421.56 282.547Z" fill="white"/>
<path d="M463.498 342.052C448.111 342.052 432.748 338.661 421.07 331.878C409.711 325.278 403.462 316.478 403.476 307.098C403.488 297.656 409.832 288.799 421.336 282.159C444.853 268.592 482.985 268.59 506.339 282.156C517.689 288.75 523.935 297.545 523.921 306.92C523.907 316.367 517.557 325.231 506.04 331.879C494.291 338.66 478.882 342.052 463.498 342.052ZM421.782 282.931C410.565 289.405 404.379 297.988 404.367 307.098C404.353 316.148 410.445 324.675 421.519 331.11C444.622 344.53 482.338 344.531 505.595 331.108C516.825 324.626 523.018 316.035 523.03 306.918C523.042 297.875 516.956 289.353 505.89 282.924C482.784 269.499 445.052 269.504 421.782 282.931Z" fill="#383C43"/>
<g opacity="0.1">
<path d="M487.919 294.657C500.063 301.666 500.112 313.034 488.048 320.043C475.983 327.052 456.364 327.052 444.22 320.043C432.076 313.034 431.997 301.666 444.062 294.657C456.127 287.648 475.776 287.648 487.919 294.657Z" fill="#383C43"/>
</g>
<path d="M389.607 121.978L413.739 107.959C414.647 107.432 415.867 107.417 417.235 107.98C425.06 111.171 432.059 110.969 437.37 107.883L413.238 121.902C407.927 124.987 400.928 125.19 393.103 121.999C391.735 121.435 390.516 121.451 389.607 121.978Z" fill="#383C43"/>
<path d="M403.867 124.733C400.429 124.733 396.731 123.958 392.934 122.409C391.732 121.916 390.632 121.897 389.832 122.361C389.616 122.484 389.344 122.411 389.223 122.201C389.099 121.987 389.17 121.716 389.383 121.593C389.384 121.591 389.384 121.591 389.386 121.591L413.514 107.575C414.56 106.965 415.942 106.965 417.405 107.568C424.946 110.643 431.773 110.617 437.146 107.498C437.36 107.371 437.632 107.446 437.755 107.658C437.879 107.871 437.808 108.143 437.595 108.266L413.462 122.284C410.655 123.916 407.398 124.733 403.867 124.733ZM391.854 121.186C392.311 121.254 392.788 121.386 393.273 121.586C400.815 124.665 407.639 124.637 413.013 121.516L432.323 110.3C427.779 111.283 422.601 110.647 417.066 108.392C415.863 107.893 414.763 107.879 413.963 108.343L391.854 121.186Z" fill="#383C43"/>
<path d="M551.576 192.06L551.497 214.554C551.417 240.38 545.224 261.696 534.137 276.845C529.902 282.673 524.048 287.563 517.336 291.434L493.204 305.485C499.897 301.593 505.75 296.664 510.005 290.876C521.092 275.727 527.285 254.411 527.345 228.565L527.405 206.091C527.425 204.574 526.985 202.957 526.226 201.421C525.307 199.525 523.929 197.768 522.311 196.571C513.94 190.324 506.549 181.302 501.175 171.343C496.541 162.741 493.424 153.54 492.405 144.738C492.166 142.742 491.327 140.666 490.148 138.93C489.189 137.533 488.03 136.355 486.732 135.617L428.899 102.226C427.341 101.328 425.903 101.228 424.884 101.847L449.036 87.8157C450.055 87.237 451.473 87.3167 453.051 88.2348L510.884 121.586C512.162 122.324 513.321 123.522 514.28 124.899C515.479 126.655 516.318 128.731 516.557 130.707C517.556 139.509 520.652 148.75 525.287 157.312C530.681 167.291 538.052 176.313 546.462 182.56C548.06 183.757 549.439 185.513 550.358 187.41C551.117 188.927 551.576 190.563 551.576 192.06Z" fill="#383C43"/>
<path d="M493.205 305.929C493.052 305.929 492.902 305.851 492.82 305.709C492.696 305.497 492.768 305.224 492.98 305.1L493.064 305.052C499.899 301.066 505.631 296.073 509.647 290.612C520.874 275.27 526.841 253.813 526.9 228.563L526.959 206.089C526.976 204.699 526.585 203.154 525.826 201.617C524.906 199.716 523.564 198.051 522.047 196.928C513.87 190.827 506.32 181.816 500.783 171.553C496.015 162.705 492.965 153.45 491.962 144.788C491.738 142.916 490.964 140.925 489.779 139.18C488.809 137.766 487.678 136.668 486.511 136.002L428.676 102.611C427.346 101.843 426.088 101.692 425.19 102.183L425.109 102.23C424.898 102.355 424.628 102.284 424.501 102.074C424.376 101.864 424.444 101.592 424.653 101.466C424.684 101.447 424.717 101.427 424.75 101.41L448.81 87.4302C450.034 86.7369 451.619 86.8847 453.275 87.8507L511.107 121.2C512.355 121.923 513.578 123.113 514.645 124.644C515.92 126.512 516.755 128.644 516.999 130.653C517.977 139.271 520.979 148.414 525.678 157.099C531.193 167.301 538.668 176.215 546.728 182.203C548.35 183.416 549.78 185.197 550.758 187.215C551.584 188.865 552.021 190.542 552.021 192.059V192.061L551.941 214.555C551.863 239.99 545.83 261.618 534.497 277.106C530.394 282.752 524.695 287.703 517.559 291.819L493.495 305.83C493.478 305.841 493.459 305.851 493.44 305.861L493.429 305.868C493.358 305.91 493.281 305.929 493.205 305.929ZM427.097 101.075C427.746 101.186 428.432 101.441 429.121 101.839L486.954 135.23C488.235 135.96 489.467 137.152 490.515 138.678C491.778 140.54 492.606 142.673 492.846 144.685C493.838 153.238 496.852 162.381 501.566 171.132C507.044 181.282 514.505 190.189 522.578 196.214C524.208 197.42 525.645 199.201 526.627 201.225C527.446 202.885 527.869 204.57 527.85 206.096L527.791 228.566C527.732 254.004 521.706 275.641 510.366 291.137C508.133 294.171 505.384 297.063 502.218 299.72L517.112 291.049C524.14 286.995 529.746 282.128 533.776 276.583C544.998 261.246 550.972 239.796 551.05 214.551L551.13 192.057C551.13 190.698 550.714 189.117 549.959 187.607C549.039 185.709 547.702 184.045 546.194 182.915C538.035 176.852 530.469 167.834 524.895 157.523C520.141 148.739 517.105 139.484 516.115 130.757C515.887 128.891 515.105 126.898 513.91 125.148C512.92 123.727 511.796 122.626 510.661 121.971L452.828 88.6203C451.458 87.8226 450.19 87.6716 449.254 88.2014L427.097 101.075Z" fill="#383C43"/>
<path d="M486.742 135.615C489.644 137.289 492.002 141.165 492.41 144.716C493.42 153.531 496.539 162.762 501.172 171.335C506.558 181.303 513.938 190.318 522.32 196.574C525.221 198.728 527.439 202.706 527.429 206.085L527.365 228.57C527.292 254.411 521.08 275.726 510.01 290.876C499.558 305.148 479.488 313.915 460.712 315.837C459.656 315.948 458.463 315.619 457.271 314.931C456.078 314.243 454.887 313.196 453.836 311.868C435.131 288.314 415.176 256.448 404.84 230.178C393.871 202.308 387.821 173.916 387.894 148.075L387.958 125.59C387.968 122.211 390.201 120.802 393.104 121.998C401.475 125.411 408.901 124.941 414.326 121.213C418.973 117.996 422.154 112.4 423.21 104.778C423.637 101.709 425.989 100.552 428.911 102.238L486.742 135.615Z" fill="white"/>
<path d="M460.302 316.301C459.289 316.301 458.174 315.966 457.048 315.316C455.783 314.584 454.551 313.488 453.486 312.143C432.857 286.166 414.057 254.82 404.426 230.34C393.248 201.94 387.377 173.492 387.448 148.072L387.512 125.588C387.518 123.807 388.123 122.424 389.218 121.694C390.284 120.985 391.725 120.949 393.274 121.585C401.25 124.841 408.639 124.58 414.073 120.846C418.747 117.609 421.755 112.031 422.768 104.717C422.994 103.099 423.741 101.904 424.87 101.353C426.06 100.773 427.571 100.951 429.133 101.852L486.965 135.229C489.946 136.951 492.42 140.918 492.852 144.664C493.835 153.245 496.847 162.396 501.564 171.122C507.054 181.286 514.521 190.198 522.586 196.218C525.659 198.498 527.883 202.649 527.874 206.086L527.81 228.572C527.739 253.989 521.707 275.623 510.369 291.138C500.572 304.515 481.562 314.148 460.758 316.279C460.608 316.294 460.457 316.301 460.302 316.301ZM391.179 122.022C390.622 122.022 390.124 122.16 389.712 122.434C388.873 122.994 388.409 124.114 388.403 125.592L388.339 148.075C388.268 173.383 394.116 201.717 405.254 230.014C414.856 254.419 433.605 285.677 454.185 311.59C455.181 312.849 456.326 313.87 457.493 314.545C458.625 315.198 459.712 315.504 460.666 315.393C481.228 313.288 499.999 303.793 509.649 290.613C520.876 275.251 526.848 253.796 526.919 228.568L526.984 206.082C526.992 202.906 524.918 199.057 522.054 196.93C513.886 190.834 506.331 181.819 500.782 171.546C496.01 162.719 492.963 153.459 491.968 144.765C491.566 141.278 489.274 137.59 486.52 136L428.688 102.623C427.39 101.874 426.172 101.705 425.262 102.152C424.406 102.569 423.835 103.523 423.652 104.838C422.603 112.406 419.466 118.194 414.58 121.577C408.89 125.487 401.205 125.784 392.935 122.408C392.312 122.151 391.718 122.022 391.179 122.022Z" fill="#383C43"/>
<path d="M400.052 148.112C399.971 171.96 405.54 198.804 416.152 225.729C425.103 248.484 443.269 278.83 462.59 303.367C477.677 301.16 491.489 294.257 499.002 285.228L499.023 285.207C499.427 284.722 499.832 284.216 500.197 283.71C509.959 270.348 515.143 251.278 515.224 228.543L515.285 206.639C515.204 206.497 515.103 206.355 515.042 206.315C505.402 199.108 496.917 189.026 490.477 177.102C485.009 166.98 481.505 156.27 480.371 146.249C480.331 146.148 480.25 145.986 480.169 145.844L433.569 118.939L432.01 118.049C430.835 120.64 429.397 123.009 427.696 125.134C427.433 125.499 427.129 125.863 426.785 126.207C426.562 126.491 426.299 126.794 426.036 127.058C425.104 128.07 424.092 129.001 423.018 129.871C422.431 130.358 421.823 130.803 421.216 131.228C420.709 131.572 420.183 131.917 419.636 132.22C419.13 132.544 418.603 132.828 418.076 133.091C417.833 133.233 417.57 133.354 417.287 133.475C417.185 133.536 417.064 133.597 416.942 133.637C416.598 133.8 416.254 133.961 415.889 134.103C415.666 134.204 415.444 134.306 415.2 134.386C414.674 134.589 414.107 134.791 413.56 134.954C413.034 135.136 412.507 135.298 411.961 135.419C411.798 135.479 411.616 135.52 411.434 135.56C410.867 135.702 410.28 135.824 409.712 135.925C409.611 135.945 409.49 135.966 409.368 135.986C408.72 136.107 408.072 136.188 407.404 136.269C407.302 136.269 407.201 136.29 407.1 136.29C406.432 136.371 405.743 136.411 405.075 136.431H404.994C404.629 136.451 404.244 136.451 403.88 136.451C402.624 136.451 401.349 136.391 400.073 136.249L400.052 148.112Z" fill="#383C43"/>
<path d="M404.972 143.192C404.891 167.04 410.46 193.885 421.072 220.81C430.023 243.564 448.189 273.911 467.509 298.447C479.721 296.666 491.123 291.807 499.001 285.228L499.021 285.207C499.426 284.722 499.831 284.216 500.196 283.71C509.957 270.348 515.141 251.278 515.223 228.543L515.283 206.639C515.202 206.497 515.101 206.355 515.04 206.315C505.401 199.108 496.915 189.026 490.475 177.102C485.007 166.98 481.503 156.27 480.37 146.249C480.329 146.148 480.248 145.986 480.167 145.844L433.568 118.939L432.008 118.049C430.834 120.64 429.396 123.009 427.695 125.134C427.411 125.499 427.108 125.863 426.783 126.207C426.561 126.491 426.297 126.794 426.034 127.058C425.103 128.07 424.09 129.001 423.016 129.871C422.429 130.358 421.842 130.803 421.214 131.228C420.708 131.572 420.181 131.917 419.634 132.22C419.128 132.544 418.602 132.828 418.075 133.091C417.832 133.233 417.548 133.354 417.285 133.475C417.184 133.536 417.062 133.597 416.941 133.637C416.596 133.8 416.252 133.961 415.888 134.103C415.665 134.204 415.442 134.306 415.199 134.386C414.672 134.589 414.126 134.791 413.559 134.954C413.032 135.136 412.505 135.278 411.959 135.419C411.797 135.479 411.614 135.52 411.432 135.56C410.865 135.702 410.298 135.824 409.711 135.925C409.61 135.945 409.488 135.966 409.367 135.986C408.719 136.087 408.07 136.188 407.402 136.269C407.301 136.269 407.2 136.29 407.098 136.29C406.43 136.35 405.762 136.411 405.073 136.431H404.992L404.972 143.192Z" fill="#DA0000"/>
<path d="M461.87 169.12C443.059 158.265 427.749 166.942 427.688 188.591C427.626 210.195 442.837 236.529 461.648 247.385C480.458 258.24 495.768 249.519 495.83 227.915C495.891 206.265 480.679 179.975 461.87 169.12Z" fill="white"/>
<path d="M461.801 185.227C466.833 188.13 470.92 195.203 470.904 201.005C470.893 205.076 468.854 207.456 465.868 207.454L470.153 231.005C470.491 232.908 469.367 233.904 467.827 233.016L455.502 225.907C453.961 225.018 452.846 222.731 453.195 221.224L457.599 202.686C454.623 199.248 452.605 194.528 452.616 190.457C452.632 184.654 456.747 182.312 461.801 185.227Z" fill="#383C43"/>
<g opacity="0.1">
<path d="M533.775 468.95C539.224 472.093 539.253 477.19 533.838 480.332L429.967 540.616C424.552 543.758 415.759 543.748 410.309 540.606L361.497 512.543C356.047 509.401 356.001 504.314 361.415 501.171L465.287 440.888C470.701 437.745 479.512 437.745 484.963 440.888L533.775 468.95Z" fill="#383C43"/>
</g>
<path d="M537.887 447.307L537.75 467.692C537.75 469.713 536.412 471.769 533.719 473.328L429.826 533.608C428.59 534.328 427.167 534.876 425.658 535.253C423.959 535.698 422.124 535.92 420.289 535.955C418.608 535.972 416.927 535.818 415.331 535.475C413.445 535.098 411.678 534.482 410.168 533.608L361.374 505.561C358.613 503.951 357.258 501.895 357.258 499.805L357.361 479.455C357.361 481.51 358.767 483.583 361.477 485.176L410.306 513.223C411.781 514.08 413.496 514.714 415.331 515.09C416.927 515.45 418.607 515.604 420.289 515.604C422.124 515.587 423.942 515.381 425.657 514.953C427.218 514.559 428.676 513.994 429.963 513.257L533.856 452.977C536.515 451.418 537.887 449.363 537.887 447.307Z" fill="#BEC4CD"/>
<path d="M425.657 514.953V535.252C423.959 535.697 422.124 535.92 420.289 535.954C418.607 535.971 416.926 535.817 415.331 535.474V515.09C416.926 515.449 418.607 515.604 420.289 515.604C422.124 515.586 423.942 515.381 425.657 514.953Z" fill="#F1F2F5"/>
<path d="M420.06 536.401C416.229 536.401 412.646 535.548 409.945 533.992L361.151 505.945C358.352 504.313 356.812 502.132 356.812 499.804L356.916 479.452C356.918 479.207 357.116 479.009 357.362 479.009C357.362 479.009 357.362 479.009 357.363 479.009C357.609 479.009 357.807 479.209 357.807 479.454C357.807 481.391 359.227 483.336 361.703 484.79L410.528 512.836C413.098 514.336 416.518 515.158 420.168 515.158C420.208 515.158 420.247 515.158 420.287 515.158C423.854 515.141 427.211 514.329 429.741 512.871L533.632 452.593C536.065 451.165 537.415 449.311 537.441 447.363V447.307V447.304C537.443 447.06 537.641 446.862 537.887 446.862H537.888C538.134 446.862 538.332 447.062 538.332 447.307C538.332 447.309 538.332 447.309 538.332 447.311C538.332 447.332 538.332 447.352 538.332 447.373L538.196 467.694C538.196 469.986 536.686 472.125 533.942 473.713L430.051 533.991C427.472 535.489 424.009 536.344 420.296 536.4C420.217 536.399 420.139 536.401 420.06 536.401ZM357.791 482.384L357.703 499.806C357.703 501.804 359.086 503.71 361.599 505.175L410.391 533.221C412.959 534.7 416.384 535.511 420.057 535.511C420.132 535.511 420.208 535.51 420.285 535.51C423.845 535.456 427.155 534.644 429.601 533.223L533.494 472.943C535.952 471.52 537.305 469.655 537.305 467.69L537.42 450.311C536.703 451.446 535.576 452.483 534.083 453.361L430.187 513.641C427.523 515.175 424.01 516.028 420.29 516.047C420.25 516.047 420.21 516.047 420.17 516.047C416.361 516.047 412.783 515.182 410.081 513.606L361.254 485.56C359.692 484.641 358.521 483.56 357.791 482.384Z" fill="#383C43"/>
<path d="M533.774 441.584C539.223 444.726 539.252 449.824 533.837 452.966L429.966 513.249C424.551 516.392 415.758 516.381 410.308 513.239L361.496 485.176C356.046 482.034 356 476.947 361.414 473.805L465.286 413.521C470.7 410.379 479.512 410.378 484.962 413.521L533.774 441.584Z" fill="white"/>
<path d="M420.165 516.034C416.521 516.034 412.872 515.232 410.086 513.626L361.274 485.562C358.481 483.952 356.939 481.785 356.936 479.463C356.932 477.161 358.444 475.015 361.19 473.421L465.062 413.138C470.592 409.927 479.62 409.929 485.185 413.136L533.996 441.198C536.785 442.807 538.322 444.972 538.325 447.296C538.329 449.603 536.813 451.753 534.062 453.349L430.191 513.633C427.433 515.233 423.803 516.034 420.165 516.034ZM475.11 411.605C471.628 411.605 468.153 412.373 465.511 413.906L361.639 474.189C359.179 475.618 357.825 477.489 357.826 479.461C357.83 481.453 359.211 483.347 361.719 484.791L410.532 512.854C415.851 515.923 424.471 515.928 429.742 512.865L533.613 452.581C536.08 451.149 537.436 449.273 537.434 447.297C537.432 445.304 536.052 443.411 533.55 441.969L484.739 413.907C482.081 412.373 478.592 411.605 475.11 411.605Z" fill="#383C43"/>
<path d="M398.06 464.352L459.649 479.307L453.024 483.132L434.709 478.404L416.354 489.003L424.733 499.468L418.568 503.027L391.803 467.964L398.06 464.352ZM428.208 476.704L411.541 472.347C406.505 471.019 402.43 469.877 399.363 468.894C401.6 470.833 403.605 472.905 405.335 475.083L413.303 485.31L428.208 476.704Z" fill="#DA0000"/>
<path d="M444.336 438.108C446.865 437.072 449.298 436.408 451.776 436.142C454.208 435.903 456.82 436.036 459.523 436.593C462.225 437.098 464.604 438.001 466.798 439.276C470.5 441.428 472.457 443.952 472.671 446.794C472.838 449.663 469.84 452.877 463.629 456.463L452.359 462.97L470.092 473.277L464.295 476.624L420.693 451.282L437.254 441.72C440.152 440.047 442.545 438.825 444.336 438.108ZM447.194 459.969L458.557 453.408C462.283 451.257 464.265 449.318 464.504 447.591C464.698 445.891 463.514 444.298 461 442.836C459.172 441.774 457.159 441.136 454.914 440.897C452.713 440.685 450.603 440.897 448.673 441.535C447.433 441.933 445.456 442.915 442.833 444.43L431.609 450.911L447.194 459.969Z" fill="#DA0000"/>
<path d="M462.602 427.083L506.204 452.425L512 449.078L468.398 423.736L462.602 427.083Z" fill="#DA0000"/>
<path d="M97.7561 209.351C94.6607 211.137 94.6444 214.035 97.7196 215.821L137.059 238.664C140.135 240.45 145.143 240.45 148.238 238.664L187.835 215.821C190.931 214.036 190.947 211.137 187.872 209.351L148.532 186.508C145.457 184.723 140.449 184.723 137.353 186.508L97.7561 209.351Z" fill="white"/>
<path d="M142.643 240.44C140.538 240.44 138.434 239.977 136.836 239.049L97.4965 216.205C95.8714 215.262 94.9769 213.981 94.9785 212.596C94.9804 211.204 95.8869 209.915 97.533 208.964L137.13 186.123C140.346 184.27 145.559 184.268 148.757 186.124L188.097 208.968C189.722 209.909 190.615 211.192 190.613 212.575C190.611 213.967 189.705 215.256 188.059 216.207L148.462 239.05C146.854 239.977 144.747 240.44 142.643 240.44ZM97.9785 209.736C96.6195 210.52 95.8711 211.536 95.8695 212.598C95.8676 213.651 96.6055 214.659 97.9455 215.437L137.285 238.281C140.233 239.989 145.048 239.991 148.016 238.279L187.614 215.435C188.973 214.652 189.723 213.635 189.723 212.573C189.724 211.52 188.988 210.514 187.649 209.736L148.309 186.892C145.358 185.181 140.541 185.181 137.576 186.894L97.9785 209.736Z" fill="#DBDEE4"/>
<path d="M158.653 203.372C167.468 208.457 167.514 216.698 158.742 221.792C149.984 226.876 135.745 226.877 126.93 221.792C118.13 216.715 118.084 208.474 126.841 203.389C135.613 198.295 149.853 198.295 158.653 203.372Z" fill="white"/>
<path d="M142.858 226.037C137.016 226.037 131.169 224.751 126.708 222.177C122.295 219.632 119.861 216.217 119.855 212.566C119.85 208.935 122.252 205.539 126.617 203.004C135.495 197.852 149.966 197.845 158.875 202.987C163.295 205.536 165.733 208.952 165.738 212.605C165.743 216.238 163.337 219.637 158.966 222.176C154.534 224.749 148.699 226.037 142.858 226.037ZM142.751 200.012C137.067 200.012 131.383 201.265 127.066 203.772C122.986 206.142 120.743 209.265 120.746 212.565C120.752 215.885 123.028 219.025 127.153 221.406C135.831 226.412 149.901 226.41 158.517 221.407C162.604 219.034 164.851 215.909 164.847 212.606C164.842 209.284 162.562 206.142 158.43 203.758C154.1 201.259 148.424 200.012 142.751 200.012Z" fill="#383C43"/>
<path d="M128.223 166.092L128.394 211.069C128.4 213.202 129.805 215.333 132.613 216.964C138.253 220.239 147.424 220.239 153.101 216.964C155.952 215.319 157.376 213.159 157.37 211.001L157.199 166.024C157.205 168.182 155.781 170.342 152.93 171.987C147.253 175.263 138.082 175.262 132.442 171.987C129.634 170.357 128.229 168.226 128.223 166.092Z" fill="white"/>
<path d="M132.442 171.986C135.244 173.613 138.917 174.428 142.6 174.438V219.406C138.975 219.371 135.371 218.564 132.613 216.963C129.805 215.332 128.4 213.201 128.394 211.068L128.223 166.091C128.229 168.224 129.634 170.356 132.442 171.986Z" fill="#DBDEE4"/>
<path d="M142.843 219.853C139.051 219.853 135.265 219.019 132.388 217.347C129.533 215.69 127.955 213.46 127.948 211.071L127.777 166.105C127.777 166.103 127.777 166.1 127.777 166.098V166.095C127.777 165.848 127.976 165.648 128.221 165.648H128.223C128.468 165.648 128.666 165.846 128.668 166.091C128.673 168.152 130.093 170.109 132.665 171.603C138.171 174.8 147.164 174.804 152.707 171.601C155.323 170.093 156.76 168.114 156.753 166.027C156.753 165.78 156.951 165.58 157.197 165.58H157.198C157.444 165.58 157.642 165.778 157.644 166.023L157.814 210.999C157.821 213.418 156.227 215.674 153.323 217.349C150.428 219.019 146.633 219.853 142.843 219.853ZM128.68 169.132L128.839 211.067C128.846 213.128 130.266 215.087 132.837 216.579C138.343 219.777 147.334 219.78 152.878 216.578C155.493 215.069 156.93 213.09 156.924 211.003L156.765 169.059C156.012 170.298 154.79 171.428 153.153 172.373C147.36 175.713 137.97 175.715 132.216 172.371C130.622 171.445 129.427 170.341 128.68 169.132Z" fill="#383C43"/>
<path d="M132.499 160.123C126.822 163.398 126.792 168.706 132.442 171.987C138.082 175.262 147.253 175.262 152.93 171.987C158.598 168.717 158.628 163.409 152.987 160.134C147.338 156.854 138.167 156.854 132.499 160.123Z" fill="white"/>
<path d="M142.672 174.876C138.881 174.876 135.094 174.042 132.216 172.37C129.351 170.706 127.774 168.467 127.777 166.07C127.781 163.659 129.378 161.409 132.275 159.738C138.059 156.399 147.452 156.408 153.212 159.75C156.074 161.411 157.648 163.647 157.644 166.045C157.641 168.457 156.045 170.704 153.153 172.372C150.258 174.042 146.462 174.876 142.672 174.876ZM132.721 160.509C130.111 162.015 128.672 163.991 128.668 166.071C128.665 168.139 130.085 170.102 132.665 171.602C138.171 174.799 147.164 174.803 152.708 171.6C155.314 170.097 156.75 168.125 156.753 166.045C156.757 163.977 155.34 162.013 152.763 160.517C147.251 157.32 138.261 157.315 132.721 160.509Z" fill="#383C43"/>
<path d="M133.104 134.968L133.218 164.758C133.222 166.177 134.157 167.595 136.024 168.679C139.775 170.857 145.874 170.857 149.649 168.679C151.545 167.585 152.492 166.148 152.488 164.713L152.375 134.923C152.379 136.358 151.431 137.795 149.536 138.888C145.76 141.066 139.661 141.066 135.91 138.888C134.043 137.804 133.109 136.387 133.104 134.968Z" fill="white"/>
<path d="M135.91 138.889C137.757 139.961 140.173 140.5 142.601 140.516V170.3C140.212 170.267 137.842 169.735 136.024 168.679C134.157 167.595 133.222 166.178 133.218 164.759L133.104 134.968C133.109 136.387 134.043 137.804 135.91 138.889Z" fill="#DBDEE4"/>
<path d="M142.828 170.749C140.28 170.749 137.735 170.187 135.8 169.063C133.853 167.932 132.777 166.404 132.774 164.76L132.659 134.97C132.658 134.725 132.858 134.525 133.103 134.523H133.105C133.35 134.523 133.548 134.721 133.55 134.966C133.556 136.283 134.474 137.54 136.136 138.506C139.757 140.607 145.668 140.607 149.313 138.504C151.003 137.529 151.934 136.259 151.931 134.926C151.931 134.679 152.129 134.479 152.374 134.479H152.376C152.621 134.479 152.82 134.678 152.821 134.922L152.934 164.711C152.938 166.378 151.851 167.923 149.872 169.064C147.926 170.187 145.375 170.749 142.828 170.749ZM133.56 137.472L133.664 164.757C133.668 166.072 134.585 167.329 136.248 168.295C139.869 170.399 145.784 170.401 149.426 168.293C151.117 167.32 152.046 166.048 152.043 164.715L151.938 137.423C151.423 138.11 150.689 138.737 149.758 139.276C145.869 141.517 139.554 141.519 135.686 139.274C134.783 138.749 134.068 138.139 133.56 137.472Z" fill="#383C43"/>
<path d="M135.948 130.999C132.173 133.177 132.153 136.707 135.91 138.889C139.661 141.067 145.76 141.067 149.536 138.889C153.305 136.714 153.325 133.184 149.574 131.007C145.817 128.825 139.718 128.824 135.948 130.999Z" fill="#DA0000"/>
<path d="M142.712 140.956C140.165 140.956 137.619 140.395 135.686 139.273C133.732 138.138 132.657 136.604 132.658 134.954C132.662 133.295 133.751 131.752 135.726 130.612C139.613 128.372 145.925 128.371 149.798 130.621C151.748 131.754 152.822 133.286 152.82 134.935C152.817 136.595 151.731 138.134 149.758 139.274C147.813 140.395 145.262 140.956 142.712 140.956ZM136.172 131.383C134.482 132.358 133.551 133.627 133.549 134.954C133.548 136.275 134.466 137.535 136.135 138.505C139.756 140.606 145.667 140.606 149.313 138.503C150.999 137.53 151.928 136.263 151.93 134.935C151.932 133.616 151.015 132.356 149.35 131.389C145.728 129.286 139.814 129.283 136.172 131.383Z" fill="#383C43"/>
<path d="M151.808 111.973V134.862C151.762 136.17 150.873 137.455 149.167 138.459C145.59 140.515 139.838 140.515 136.285 138.459C134.578 137.455 133.713 136.17 133.666 134.862V111.973H151.808Z" fill="url(#paint0_linear_320_8849)"/>
<defs>
<filter id="filter0_d_320_8849" x="0" y="0" width="648" height="656" filterUnits="userSpaceOnUse" color-interpolation-filters="sRGB">
<feFlood flood-opacity="0" result="BackgroundImageFix"/>
<feColorMatrix in="SourceAlpha" type="matrix" values="0 0 0 0 0 0 0 0 0 0 0 0 0 0 0 0 0 0 127 0" result="hardAlpha"/>
<feOffset dy="4"/>
<feGaussianBlur stdDeviation="2"/>
<feComposite in2="hardAlpha" operator="out"/>
<feColorMatrix type="matrix" values="0 0 0 0 0 0 0 0 0 0 0 0 0 0 0 0 0 0 0.25 0"/>
<feBlend mode="normal" in2="BackgroundImageFix" result="effect1_dropShadow_320_8849"/>
<feBlend mode="normal" in="SourceGraphic" in2="effect1_dropShadow_320_8849" result="shape"/>
</filter>
<linearGradient id="paint0_linear_320_8849" x1="142.737" y1="141.061" x2="142.737" y2="113.261" gradientUnits="userSpaceOnUse">
<stop stop-color="#E5684C"/>
<stop offset="1" stop-color="white"/>
</linearGradient>
</defs>
</svg>
