<svg width="648" height="656" viewBox="0 0 648 656" fill="none" xmlns="http://www.w3.org/2000/svg">
<g filter="url(#filter0_d_399_2148)">
<path d="M75.9101 0L644 0.336294V648H4V576.937V71.8492C28.719 47.1121 52.5226 24.3319 75.9101 0Z" fill="white"/>
</g>
<path d="M269.233 301.051C269.079 301.051 268.93 300.971 268.848 300.829C268.724 300.615 268.796 300.343 269.008 300.219L382.199 234.513C382.412 234.39 382.685 234.461 382.809 234.675C382.932 234.889 382.861 235.161 382.648 235.285L269.457 300.991C269.386 301.031 269.309 301.051 269.233 301.051Z" fill="#DBDEE4"/>
<path d="M337.421 258.44C336.08 258.44 334.783 258.745 333.861 259.277C333.121 259.703 332.696 260.228 332.695 260.715C332.695 261.196 333.111 261.714 333.838 262.136C334.752 262.667 336.044 262.971 337.383 262.971C338.722 262.971 340.019 262.666 340.94 262.135C341.68 261.708 342.106 261.183 342.106 260.695C342.107 260.214 341.69 259.696 340.964 259.275C340.051 258.744 338.76 258.44 337.421 258.44Z" fill="#383C43"/>
<path d="M443.668 274.373C443.591 274.373 443.514 274.354 443.443 274.313L376.209 235.285C375.997 235.161 375.925 234.889 376.049 234.675C376.171 234.461 376.443 234.391 376.658 234.513L443.892 273.541C444.105 273.665 444.176 273.937 444.053 274.151C443.971 274.294 443.821 274.373 443.668 274.373Z" fill="#DBDEE4"/>
<path d="M421.439 258.44C422.78 258.44 424.077 258.745 424.999 259.277C425.739 259.703 426.164 260.228 426.165 260.715C426.165 261.196 425.749 261.714 425.022 262.136C424.108 262.667 422.816 262.971 421.477 262.971C420.138 262.971 418.841 262.666 417.92 262.135C417.18 261.708 416.754 261.183 416.754 260.695C416.753 260.214 417.17 259.696 417.896 259.275C418.809 258.744 420.1 258.44 421.439 258.44Z" fill="#383C43"/>
<path d="M389.889 347.442C389.735 347.442 389.586 347.363 389.504 347.22C389.38 347.006 389.452 346.734 389.664 346.61L470.434 299.723C470.647 299.6 470.92 299.671 471.044 299.885C471.167 300.099 471.096 300.371 470.884 300.495L390.114 347.382C390.042 347.423 389.965 347.442 389.889 347.442Z" fill="#DBDEE4"/>
<path d="M397.135 348.753C400.363 346.892 400.381 343.873 397.175 342.012C393.968 340.151 388.749 340.151 385.522 342.012C382.294 343.874 382.279 346.891 385.485 348.753C388.692 350.614 393.908 350.615 397.135 348.753Z" fill="white"/>
<path d="M391.304 350.586C389.113 350.586 386.924 350.103 385.26 349.137C383.573 348.157 382.643 346.827 382.645 345.392C382.646 343.949 383.59 342.611 385.299 341.625C388.646 339.695 394.073 339.695 397.399 341.625C399.087 342.605 400.015 343.934 400.014 345.369C400.012 346.813 399.068 348.152 397.358 349.138V349.139C395.686 350.103 393.493 350.586 391.304 350.586ZM391.358 341.056C389.327 341.056 387.295 341.504 385.745 342.398C384.322 343.217 383.538 344.282 383.536 345.393C383.535 346.496 384.306 347.551 385.71 348.366C388.786 350.154 393.815 350.153 396.912 348.366C396.912 348.366 396.912 348.366 396.912 348.366C398.335 347.545 399.12 346.48 399.122 345.367C399.123 344.265 398.352 343.21 396.95 342.396C395.412 341.503 393.387 341.056 391.358 341.056Z" fill="#DBDEE4"/>
<path d="M391.349 343.256C390.091 343.256 388.873 343.542 388.008 344.041C387.314 344.441 386.915 344.934 386.914 345.391C386.914 345.843 387.304 346.329 387.987 346.725C388.845 347.223 390.057 347.508 391.314 347.508C392.571 347.508 393.788 347.222 394.652 346.724C395.348 346.323 395.746 345.83 395.747 345.372C395.748 344.92 395.357 344.434 394.676 344.039C393.818 343.541 392.606 343.256 391.349 343.256Z" fill="#DA0000"/>
<path d="M417.04 328.426C415.689 328.426 414.381 328.733 413.452 329.269C412.706 329.699 412.278 330.227 412.277 330.719C412.277 331.204 412.696 331.726 413.429 332.151C414.35 332.686 415.653 332.993 417.002 332.993C418.353 332.993 419.659 332.686 420.588 332.15C421.334 331.72 421.763 331.191 421.764 330.699C421.764 330.214 421.345 329.692 420.613 329.267C419.692 328.732 418.39 328.426 417.04 328.426Z" fill="#383C43"/>
<path d="M499.522 350.514C499.369 350.514 499.219 350.434 499.135 350.291C499.014 350.078 499.087 349.806 499.299 349.683L546.717 322.317C547.13 322.079 547.377 321.652 547.377 321.176C547.377 320.699 547.132 320.272 546.721 320.033L479.041 280.778C478.827 280.654 478.755 280.381 478.879 280.168C479.001 279.953 479.276 279.882 479.487 280.006L547.167 319.262C547.858 319.662 548.269 320.378 548.269 321.176C548.268 321.975 547.855 322.69 547.164 323.088L499.745 350.454C499.675 350.495 499.599 350.514 499.522 350.514Z" fill="#DBDEE4"/>
<path d="M508.439 350.754C511.667 348.894 511.685 345.878 508.479 344.018C505.272 342.159 500.053 342.16 496.826 344.019C493.598 345.879 493.583 348.894 496.789 350.753C499.995 352.613 505.212 352.613 508.439 350.754Z" fill="white"/>
<path d="M502.609 352.586C500.418 352.586 498.229 352.104 496.567 351.14C494.878 350.16 493.948 348.83 493.949 347.397C493.951 345.955 494.895 344.618 496.603 343.633C499.951 341.705 505.379 341.705 508.702 343.633C510.391 344.612 511.321 345.942 511.318 347.375C511.316 348.818 510.374 350.155 508.664 351.141C506.99 352.103 504.798 352.585 502.609 352.586ZM502.663 343.065C500.632 343.065 498.6 343.512 497.05 344.406C495.627 345.225 494.843 346.288 494.841 347.398C494.84 348.5 495.611 349.555 497.013 350.368C500.094 352.154 505.12 352.153 508.219 350.367C509.641 349.548 510.425 348.485 510.427 347.374C510.429 346.272 509.657 345.217 508.257 344.404C506.717 343.511 504.692 343.065 502.663 343.065Z" fill="#DBDEE4"/>
<path d="M502.654 345.262C501.396 345.262 500.178 345.548 499.313 346.046C498.618 346.446 498.22 346.938 498.219 347.394C498.218 347.846 498.609 348.332 499.291 348.727C500.149 349.225 501.362 349.51 502.618 349.51C503.875 349.51 505.092 349.225 505.957 348.727C506.652 348.326 507.051 347.834 507.052 347.376C507.052 346.925 506.662 346.439 505.98 346.044C505.123 345.547 503.911 345.262 502.654 345.262Z" fill="#DA0000"/>
<path d="M508.439 350.754C511.667 348.894 511.685 345.878 508.479 344.018C505.272 342.159 500.053 342.16 496.826 344.019C493.598 345.879 493.583 348.894 496.789 350.753C499.995 352.613 505.212 352.613 508.439 350.754Z" fill="white"/>
<path d="M502.609 352.586C500.418 352.586 498.229 352.104 496.567 351.14C494.878 350.16 493.948 348.83 493.949 347.397C493.951 345.955 494.895 344.618 496.603 343.633C499.951 341.705 505.379 341.705 508.702 343.633C510.391 344.612 511.321 345.942 511.318 347.375C511.316 348.818 510.374 350.155 508.664 351.141C506.99 352.103 504.798 352.585 502.609 352.586ZM502.663 343.065C500.632 343.065 498.6 343.512 497.05 344.406C495.627 345.225 494.843 346.288 494.841 347.398C494.84 348.5 495.611 349.555 497.013 350.368C500.094 352.154 505.12 352.153 508.219 350.367C509.641 349.548 510.425 348.485 510.427 347.374C510.429 346.272 509.657 345.217 508.257 344.404C506.717 343.511 504.692 343.065 502.663 343.065Z" fill="#DBDEE4"/>
<path d="M502.654 345.262C501.396 345.262 500.178 345.548 499.313 346.046C498.618 346.446 498.22 346.938 498.219 347.394C498.218 347.846 498.609 348.332 499.291 348.727C500.149 349.225 501.362 349.51 502.618 349.51C503.875 349.51 505.092 349.225 505.957 348.727C506.652 348.326 507.051 347.834 507.052 347.376C507.052 346.925 506.662 346.439 505.98 346.044C505.123 345.547 503.911 345.262 502.654 345.262Z" fill="#DA0000"/>
<path d="M528.046 331C526.695 331 525.387 331.307 524.458 331.842C523.712 332.272 523.284 332.8 523.283 333.291C523.283 333.775 523.702 334.297 524.435 334.722C525.356 335.256 526.659 335.563 528.008 335.563C529.358 335.563 530.665 335.256 531.594 334.721C532.34 334.291 532.769 333.762 532.77 333.271C532.77 332.786 532.351 332.265 531.619 331.84C530.698 331.306 529.396 331 528.046 331Z" fill="#383C43"/>
<path d="M199.895 524.804C199.742 524.804 199.592 524.724 199.508 524.581C199.386 524.368 199.46 524.095 199.672 523.972L246.712 496.824C247.12 496.588 247.364 496.165 247.364 495.694C247.365 495.223 247.122 494.8 246.714 494.564L179.572 455.62C179.358 455.497 179.286 455.224 179.41 455.011C179.532 454.796 179.807 454.725 180.018 454.849L247.162 493.792C247.848 494.191 248.257 494.902 248.255 495.695C248.255 496.488 247.844 497.199 247.158 497.595L200.118 524.744C200.049 524.785 199.972 524.804 199.895 524.804Z" fill="#DBDEE4"/>
<path d="M208.742 525.038C211.944 523.193 211.962 520.2 208.781 518.356C205.6 516.511 200.423 516.512 197.22 518.357C194.019 520.201 194.003 523.192 197.184 525.037C200.365 526.882 205.54 526.883 208.742 525.038Z" fill="white"/>
<path d="M202.954 526.857C200.781 526.857 198.609 526.379 196.96 525.422C195.281 524.449 194.36 523.13 194.361 521.707C194.363 520.275 195.298 518.948 196.996 517.969C200.316 516.058 205.704 516.056 209.003 517.969C210.68 518.941 211.602 520.262 211.6 521.685C211.598 523.118 210.661 524.446 208.963 525.424C207.303 526.379 205.128 526.857 202.954 526.857ZM203.008 517.413C200.995 517.413 198.98 517.856 197.442 518.742C196.032 519.555 195.255 520.607 195.253 521.708C195.252 522.8 196.016 523.845 197.406 524.65C200.461 526.421 205.445 526.421 208.517 524.65C209.928 523.838 210.707 522.784 210.708 521.683C210.71 520.591 209.945 519.547 208.557 518.74C207.03 517.856 205.02 517.413 203.008 517.413Z" fill="#DBDEE4"/>
<path d="M202.999 519.589C201.751 519.589 200.543 519.872 199.685 520.367C198.996 520.764 198.6 521.251 198.6 521.705C198.599 522.153 198.987 522.635 199.664 523.027C200.515 523.521 201.718 523.804 202.964 523.804C204.211 523.804 205.419 523.52 206.276 523.026C206.966 522.629 207.362 522.14 207.363 521.687C207.363 521.239 206.976 520.757 206.299 520.365C205.449 519.872 204.246 519.589 202.999 519.589Z" fill="#DA0000"/>
<path d="M208.742 525.038C211.944 523.193 211.962 520.2 208.781 518.356C205.6 516.511 200.423 516.512 197.22 518.357C194.019 520.201 194.003 523.192 197.184 525.037C200.365 526.882 205.54 526.883 208.742 525.038Z" fill="white"/>
<path d="M202.954 526.857C200.781 526.857 198.609 526.379 196.96 525.422C195.281 524.449 194.36 523.13 194.361 521.707C194.363 520.275 195.298 518.948 196.996 517.969C200.316 516.058 205.704 516.056 209.003 517.969C210.68 518.941 211.602 520.262 211.6 521.685C211.598 523.118 210.661 524.446 208.963 525.424C207.303 526.379 205.128 526.857 202.954 526.857ZM203.008 517.413C200.995 517.413 198.98 517.856 197.442 518.742C196.032 519.555 195.255 520.607 195.253 521.708C195.252 522.8 196.016 523.845 197.406 524.65C200.461 526.421 205.445 526.421 208.517 524.65C209.928 523.838 210.707 522.784 210.708 521.683C210.71 520.591 209.945 519.547 208.557 518.74C207.03 517.856 205.02 517.413 203.008 517.413Z" fill="#DBDEE4"/>
<path d="M202.999 519.589C201.751 519.589 200.543 519.872 199.685 520.367C198.996 520.764 198.6 521.251 198.6 521.705C198.599 522.153 198.987 522.635 199.664 523.027C200.515 523.521 201.718 523.804 202.964 523.804C204.211 523.804 205.419 523.52 206.276 523.026C206.966 522.629 207.362 522.14 207.363 521.687C207.363 521.239 206.976 520.757 206.299 520.365C205.449 519.872 204.246 519.589 202.999 519.589Z" fill="#DA0000"/>
<path d="M228.19 505.44C226.849 505.44 225.552 505.745 224.631 506.276C223.89 506.702 223.466 507.226 223.465 507.713C223.464 508.194 223.881 508.711 224.607 509.133C225.521 509.663 226.813 509.967 228.152 509.967C229.492 509.967 230.788 509.662 231.709 509.132C232.45 508.705 232.875 508.181 232.876 507.693C232.876 507.212 232.46 506.695 231.734 506.274C230.821 505.744 229.529 505.44 228.19 505.44Z" fill="#383C43"/>
<path d="M444.85 551.295C443.498 551.295 442.147 550.945 440.94 550.245L195.621 407.84C195.409 407.716 195.337 407.444 195.461 407.231C195.583 407.015 195.855 406.945 196.071 407.069L441.389 549.473C443.521 550.715 446.175 550.715 448.31 549.473L491.068 524.654C491.281 524.531 491.554 524.601 491.678 524.816C491.801 525.029 491.73 525.302 491.518 525.425L448.76 550.245C447.553 550.945 446.201 551.295 444.85 551.295Z" fill="#DBDEE4"/>
<path d="M306.844 469.309C308.184 469.309 309.482 469.613 310.403 470.145C311.143 470.572 311.568 471.096 311.569 471.583C311.57 472.065 311.153 472.583 310.426 473.005C309.512 473.535 308.221 473.839 306.881 473.839C305.542 473.839 304.246 473.535 303.325 473.003C302.584 472.576 302.159 472.052 302.158 471.564C302.158 471.082 302.574 470.565 303.3 470.143C304.213 469.613 305.504 469.309 306.844 469.309Z" fill="#383C43"/>
<g opacity="0.1">
<path d="M305.83 423.393L287.866 413.074C286.563 412.326 284.962 412.326 283.659 413.073L103.461 516.415C100.631 518.038 100.63 522.119 103.458 523.744L118.216 532.223C121.477 534.097 125.487 534.099 128.75 532.229L305.827 430.723C308.658 429.1 308.659 425.018 305.83 423.393Z" fill="#010101"/>
</g>
<path d="M306.347 109.094C306.205 109.013 306.064 108.952 305.922 108.892C305.761 108.811 305.579 108.73 305.417 108.69C305.356 108.649 305.316 108.649 305.255 108.629C305.073 108.568 304.911 108.528 304.709 108.487C304.507 108.427 304.284 108.406 304.062 108.387C302.404 108.205 300.443 108.69 298.361 109.883L128.458 207.974C127.427 208.561 126.457 209.289 125.507 210.158C121.969 213.292 119.118 218.002 117.905 222.652C117.481 224.249 117.258 225.846 117.258 227.362L117.986 517.077C117.986 517.401 118.006 517.745 118.027 518.048C118.047 518.25 118.067 518.452 118.087 518.654C118.108 518.816 118.128 518.978 118.148 519.14C118.168 519.18 118.168 519.241 118.168 519.281C118.209 519.403 118.229 519.524 118.249 519.665C118.33 520.049 118.411 520.393 118.552 520.737V520.757C118.633 521 118.714 521.242 118.835 521.465C119.078 522.031 119.381 522.516 119.725 522.941C119.826 523.082 119.947 523.203 120.069 523.325C120.251 523.527 120.432 523.688 120.635 523.85C120.756 523.952 120.897 524.052 121.039 524.153L99.4481 511.396C97.4263 510.224 96.1728 507.737 96.1728 504.2L95.4453 214.484C95.4453 212.968 95.6676 211.371 96.0921 209.774C97.3051 205.124 100.156 200.413 103.694 197.28C104.644 196.41 105.614 195.683 106.645 195.097L276.548 97.0042C279.661 95.185 282.492 95.023 284.534 96.2154L306.347 109.094Z" fill="#BEC4CD"/>
<path d="M125.507 210.158C121.969 213.292 119.118 218.003 117.905 222.653L96.0918 209.774C97.3048 205.124 100.155 200.414 103.693 197.28" fill="#F1F2F5"/>
<path d="M121.262 524.275C121.201 524.255 121.14 524.214 121.08 524.174C121.059 524.174 121.059 524.154 121.039 524.154C120.898 524.052 120.756 523.952 120.635 523.851C120.837 524.013 121.039 524.154 121.262 524.275Z" fill="#BEC4CD"/>
<path d="M120.635 523.851C120.837 524.012 121.039 524.154 121.262 524.275C121.201 524.255 121.14 524.214 121.08 524.174C121.059 524.174 121.059 524.154 121.039 524.154C120.898 524.052 120.756 523.952 120.635 523.851Z" fill="#BEC4CD"/>
<path d="M121.262 524.275C121.201 524.255 121.14 524.214 121.08 524.174C121.059 524.174 121.059 524.154 121.039 524.154C120.898 524.052 120.756 523.952 120.635 523.851C120.837 524.013 121.039 524.154 121.262 524.275Z" fill="#BEC4CD"/>
<path d="M310.349 406.027C310.369 413.143 305.356 421.816 299.149 425.415L129.246 523.507C126.133 525.306 123.303 525.468 121.261 524.275C121.2 524.255 121.139 524.214 121.079 524.174C121.059 524.174 121.059 524.154 121.038 524.154C120.897 524.052 120.756 523.952 120.634 523.851C120.432 523.689 120.25 523.528 120.068 523.325C119.947 523.203 119.826 523.082 119.725 522.941C119.381 522.517 119.078 522.031 118.835 521.465C118.714 521.243 118.633 521 118.552 520.757V520.737C118.43 520.394 118.33 520.05 118.249 519.666C118.229 519.525 118.208 519.403 118.168 519.282C118.168 519.241 118.168 519.18 118.148 519.14C118.127 518.978 118.107 518.817 118.087 518.655C118.067 518.453 118.046 518.25 118.026 518.048C118.006 517.745 117.986 517.401 117.986 517.078L117.258 227.363C117.238 220.246 122.252 211.553 128.458 207.975L298.361 109.883C300.443 108.69 302.404 108.205 304.062 108.387C304.284 108.407 304.507 108.427 304.709 108.488C304.911 108.528 305.073 108.569 305.255 108.629C305.315 108.65 305.356 108.65 305.416 108.69C305.578 108.731 305.76 108.812 305.922 108.892C308.186 109.944 309.601 112.531 309.622 116.312L310.349 406.027Z" fill="#DBDEE4"/>
<path d="M119.443 496.447C119.387 496.428 119.33 496.391 119.274 496.353C119.255 496.353 119.255 496.334 119.236 496.334C119.105 496.24 118.973 496.147 118.86 496.053C119.048 496.203 119.236 496.334 119.443 496.447Z" fill="white"/>
<path d="M119.444 496.894C119.395 496.894 119.346 496.886 119.299 496.869C119.198 496.835 119.116 496.782 119.05 496.74C119.047 496.738 119.045 496.736 119.042 496.735C119.021 496.724 119 496.712 118.981 496.698C118.838 496.598 118.698 496.498 118.577 496.397C118.388 496.24 118.362 495.962 118.516 495.773C118.671 495.582 118.949 495.552 119.139 495.705C119.308 495.839 119.475 495.956 119.66 496.058C119.862 496.17 119.945 496.418 119.851 496.629C119.778 496.794 119.616 496.894 119.444 496.894Z" fill="#383C43"/>
<path d="M118.86 496.053C119.048 496.203 119.236 496.334 119.443 496.447C119.387 496.428 119.33 496.391 119.274 496.353C119.255 496.353 119.255 496.334 119.236 496.334C119.104 496.24 118.973 496.147 118.86 496.053Z" fill="white"/>
<path d="M119.444 496.894C119.395 496.894 119.346 496.886 119.299 496.869C119.198 496.835 119.116 496.782 119.05 496.74C119.047 496.738 119.045 496.736 119.042 496.735C119.021 496.724 119 496.712 118.981 496.698C118.838 496.598 118.698 496.498 118.577 496.397C118.388 496.24 118.362 495.962 118.516 495.773C118.671 495.582 118.949 495.552 119.139 495.705C119.308 495.839 119.475 495.956 119.66 496.058C119.862 496.17 119.945 496.418 119.851 496.629C119.778 496.794 119.616 496.894 119.444 496.894Z" fill="#383C43"/>
<path d="M119.443 496.447C119.387 496.428 119.33 496.391 119.274 496.353C119.255 496.353 119.255 496.334 119.236 496.334C119.105 496.24 118.973 496.147 118.86 496.053C119.048 496.203 119.236 496.334 119.443 496.447Z" fill="white"/>
<path d="M119.444 496.894C119.395 496.894 119.346 496.886 119.299 496.869C119.198 496.835 119.116 496.782 119.05 496.74C119.047 496.738 119.045 496.736 119.042 496.735C119.021 496.724 119 496.712 118.981 496.698C118.838 496.598 118.698 496.498 118.577 496.397C118.388 496.24 118.362 495.962 118.516 495.773C118.671 495.582 118.949 495.552 119.139 495.705C119.308 495.839 119.475 495.956 119.66 496.058C119.862 496.17 119.945 496.418 119.851 496.629C119.778 496.794 119.616 496.894 119.444 496.894Z" fill="#383C43"/>
<path d="M310.349 406.027C310.369 413.143 305.356 421.816 299.149 425.415L129.246 523.507C126.133 525.306 123.303 525.468 121.261 524.275C121.2 524.255 121.139 524.214 121.079 524.174C121.059 524.174 121.059 524.154 121.038 524.154C120.897 524.052 120.756 523.952 120.634 523.851C120.432 523.689 120.25 523.528 120.068 523.325C119.947 523.203 119.826 523.082 119.725 522.941C119.381 522.517 119.078 522.031 118.835 521.465C118.714 521.243 118.633 521 118.552 520.757V520.737C118.43 520.394 118.33 520.05 118.249 519.666C118.229 519.525 118.208 519.403 118.168 519.282C118.168 519.241 118.168 519.18 118.148 519.14C118.127 518.978 118.107 518.817 118.087 518.655C118.067 518.453 118.046 518.25 118.026 518.048C118.006 517.745 117.986 517.401 117.986 517.078L117.258 227.363C117.238 220.246 122.252 211.553 128.458 207.975L298.361 109.883C300.443 108.69 302.404 108.205 304.062 108.387C304.284 108.407 304.507 108.427 304.709 108.488C304.911 108.528 305.073 108.569 305.255 108.629C305.315 108.65 305.356 108.65 305.416 108.69C305.578 108.731 305.76 108.812 305.922 108.892C308.186 109.944 309.601 112.531 309.622 116.312L310.349 406.027Z" fill="#383C43"/>
<path d="M124.226 525.493C123.065 525.493 121.988 525.216 121.036 524.66C121.039 524.653 120.929 524.609 120.853 524.56C120.827 524.548 120.801 524.533 120.776 524.515C120.597 524.387 120.464 524.291 120.35 524.194C120.134 524.022 119.937 523.845 119.737 523.625C119.613 523.501 119.477 523.362 119.362 523.2C118.984 522.735 118.673 522.218 118.425 521.64C118.312 521.439 118.223 521.181 118.134 520.92C118.127 520.897 118.12 520.868 118.114 520.839C117.995 520.493 117.894 520.145 117.812 519.759C117.791 519.613 117.776 519.518 117.744 519.422C117.728 519.376 117.721 519.329 117.721 519.282L117.582 518.091C117.559 517.766 117.539 517.412 117.539 517.078L116.811 227.363C116.791 220.102 121.917 211.232 128.235 207.587L298.136 109.497C300.254 108.283 302.314 107.75 304.11 107.943C304.342 107.964 304.589 107.986 304.836 108.06C305.016 108.094 305.193 108.139 305.394 108.205C305.453 108.221 305.515 108.237 305.585 108.273C305.74 108.317 305.911 108.388 306.12 108.493C308.605 109.646 310.047 112.497 310.066 116.309L310.794 406.025C310.815 413.266 305.691 422.136 299.371 425.8L129.469 523.892C127.63 524.956 125.846 525.493 124.226 525.493ZM121.266 523.77C121.285 523.778 121.304 523.789 121.323 523.801C121.353 523.811 121.459 523.874 121.485 523.89C123.474 525.054 126.153 524.781 129.023 523.121L298.925 425.029C304.998 421.508 309.923 412.984 309.903 406.028C309.903 406.027 309.903 406.027 309.903 406.027L309.175 116.313C309.157 112.862 307.903 110.304 305.733 109.296C305.547 109.203 305.411 109.148 305.31 109.123C305.26 109.11 305.214 109.09 305.171 109.062C304.95 108.998 304.803 108.961 304.622 108.925C304.406 108.862 304.215 108.848 304.021 108.831C302.409 108.647 300.531 109.152 298.581 110.269L128.681 208.36C122.609 211.862 117.683 220.386 117.703 227.362L118.431 517.077C118.431 517.391 118.451 517.724 118.471 518.018L118.582 519.034C118.603 519.099 118.61 519.161 118.612 519.21C118.648 519.334 118.669 519.461 118.69 519.606C118.761 519.938 118.857 520.264 118.972 520.59C118.981 520.615 118.988 520.641 118.991 520.668C119.063 520.879 119.129 521.072 119.227 521.25C119.458 521.79 119.73 522.239 120.071 522.659C120.174 522.802 120.279 522.905 120.383 523.009C120.564 523.209 120.729 523.356 120.912 523.503C121.02 523.592 121.136 523.675 121.254 523.76L121.252 523.763C121.257 523.765 121.261 523.767 121.266 523.77Z" fill="#383C43"/>
<path d="M124.227 522.24C123.671 522.24 123.179 522.127 122.761 521.906L122.22 521.363L122.063 521.362L121.952 521.247C121.698 520.928 121.538 520.662 121.41 520.362L121.317 520.165L121.191 519.8C121.118 519.592 121.056 519.384 121.003 519.157C120.992 519.087 120.981 519.02 120.969 518.954V518.635L120.881 518.428L120.812 517.772C120.804 517.619 120.786 517.341 120.786 517.079L120.059 227.356C120.042 221.239 124.528 213.475 129.857 210.402L299.761 112.308C301.08 111.553 302.331 111.151 303.369 111.151C303.5 111.151 303.629 111.158 303.755 111.172L304.011 111.197C304.087 111.215 304.146 111.228 304.191 111.239L304.269 111.293L304.744 111.409C306.049 112.04 306.808 113.824 306.821 116.327L307.549 406.035C307.565 412.135 303.075 419.901 297.745 422.992L127.845 521.082C126.534 521.84 125.283 522.24 124.227 522.24Z" fill="#F1F2F5"/>
<path d="M124.227 522.686C123.599 522.686 123.034 522.555 122.553 522.298C122.514 522.278 122.479 522.251 122.447 522.22L122.034 521.806C121.925 521.799 121.82 521.752 121.744 521.671L121.632 521.556C121.333 521.184 121.146 520.879 121 520.536L120.77 519.944C120.693 519.724 120.627 519.501 120.57 519.258L120.47 518.601C120.453 518.561 120.443 518.518 120.437 518.474L120.368 517.818C120.368 517.81 120.362 517.697 120.361 517.688C120.353 517.525 120.341 517.296 120.341 517.078L119.613 227.356C119.596 221.098 124.185 213.156 129.634 210.015L299.539 111.922C301.115 111.019 302.588 110.579 303.807 110.729L304.299 110.806C304.349 110.819 304.398 110.841 304.441 110.869L304.849 110.976C306.404 111.717 307.254 113.654 307.266 116.324L307.994 406.034C308.01 412.274 303.419 420.216 297.968 423.377L128.069 521.468C126.69 522.265 125.361 522.686 124.227 522.686ZM123.029 521.541C124.097 522.068 125.8 521.751 127.623 520.696L297.523 422.606C302.73 419.585 307.119 411.997 307.103 406.036L306.375 116.327C306.365 114.012 305.698 112.366 304.55 111.81L304.163 111.725C304.111 111.712 304.062 111.691 304.019 111.661L303.712 111.616C303.596 111.602 303.483 111.597 303.369 111.597C302.409 111.597 301.239 111.976 299.983 112.695L130.081 210.787C124.873 213.79 120.488 221.376 120.506 227.354L121.234 517.077C121.234 517.28 121.244 517.492 121.253 517.643L121.38 518.461C121.403 518.516 121.415 518.575 121.415 518.634V518.954C121.415 518.952 121.416 518.951 121.416 518.951C121.423 518.951 121.434 519.019 121.444 519.089C121.488 519.264 121.544 519.458 121.613 519.651L121.814 520.17C121.929 520.439 122.063 520.662 122.261 520.918C122.366 520.928 122.463 520.973 122.536 521.047L123.029 521.541Z" fill="#383C43"/>
<path d="M129.998 227.33C129.992 224.746 132.56 220.315 134.822 219.011L296.901 125.436L297.61 406.06C297.617 408.636 295.031 413.075 292.759 414.394L130.708 507.953L129.998 227.33Z" fill="white"/>
<path d="M121.017 524.596C120.949 524.596 120.878 524.578 120.812 524.538L99.2215 511.781C96.9678 510.474 95.7261 507.782 95.7261 504.2L95 214.486C95 212.932 95.223 211.309 95.6619 209.66C96.907 204.886 99.7999 200.132 103.398 196.947C104.394 196.034 105.385 195.301 106.425 194.709L276.325 96.6193C279.474 94.7766 282.473 94.4963 284.758 95.8313L306.573 108.71C306.784 108.835 306.856 109.107 306.732 109.319C306.61 109.531 306.34 109.604 306.126 109.481C306.009 109.415 305.891 109.364 305.776 109.315C305.548 109.203 305.412 109.148 305.311 109.123C305.26 109.111 305.215 109.091 305.172 109.063C304.95 108.999 304.804 108.962 304.623 108.926C304.407 108.863 304.215 108.849 304.022 108.832C302.409 108.648 300.532 109.153 298.581 110.27L128.682 208.361C127.703 208.917 126.765 209.612 125.808 210.488C122.329 213.568 119.539 218.157 118.337 222.766C117.916 224.346 117.703 225.893 117.703 227.364L118.431 517.078C118.431 517.392 118.452 517.725 118.471 518.019L118.583 519.036C118.603 519.1 118.61 519.162 118.612 519.211C118.649 519.335 118.67 519.462 118.691 519.607C118.76 519.932 118.835 520.254 118.964 520.568C118.976 520.601 118.987 520.634 118.992 520.669C119.063 520.881 119.13 521.073 119.227 521.251C119.459 521.791 119.73 522.24 120.072 522.661C120.175 522.803 120.279 522.906 120.383 523.011C120.565 523.21 120.73 523.357 120.913 523.504C121.021 523.593 121.136 523.676 121.254 523.761C121.448 523.9 121.519 524.183 121.389 524.383C121.301 524.517 121.162 524.596 121.017 524.596ZM281.575 95.8932C280.11 95.8932 278.475 96.3957 276.773 97.39L106.869 195.482C105.885 196.042 104.946 196.738 103.995 197.609C100.519 200.687 97.7271 205.276 96.5238 209.887C96.1042 211.463 95.8917 213.01 95.8917 214.485L96.6181 504.199C96.6181 507.45 97.7031 509.869 99.6711 511.011L118.738 522.277C118.623 522.073 118.52 521.862 118.426 521.64C118.313 521.44 118.224 521.182 118.135 520.921C118.13 520.902 118.123 520.878 118.118 520.855C117.974 520.489 117.892 520.128 117.813 519.759C117.792 519.614 117.777 519.518 117.745 519.422C117.73 519.377 117.722 519.33 117.722 519.282L117.583 518.092C117.56 517.766 117.54 517.413 117.54 517.078L116.812 227.364C116.812 225.815 117.035 224.191 117.475 222.538C118.719 217.766 121.612 213.013 125.211 209.825C126.212 208.909 127.203 208.175 128.24 207.587L298.137 109.497C300.001 108.428 301.829 107.9 303.456 107.904L284.307 96.5996C283.497 96.1273 282.576 95.8932 281.575 95.8932Z" fill="#383C43"/>
<path d="M184.48 186.383L184.403 204.024C184.403 204.554 184.338 205.045 184.209 205.459C184.183 205.536 184.157 205.614 184.131 205.691C184.015 206.014 183.86 206.286 183.666 206.518C183.627 206.583 183.576 206.635 183.511 206.686C183.459 206.751 183.395 206.816 183.33 206.868C183.278 206.919 183.201 206.971 183.136 207.023C183.123 207.023 183.123 207.036 183.11 207.036C183.097 207.036 183.084 207.049 183.071 207.061C182.205 207.592 180.977 207.54 179.633 206.751L167.999 200.029L168.051 184.974L146.156 172.288L146.208 153.454L175.135 170.199C180.318 173.185 184.493 180.437 184.48 186.383Z" fill="#383C43"/>
<path d="M181.738 207.843C180.997 207.843 180.203 207.602 179.406 207.135L167.776 200.415C167.637 200.335 167.553 200.187 167.553 200.027L167.603 185.23L145.933 172.674C145.794 172.594 145.71 172.446 145.71 172.287L145.762 153.453C145.762 153.294 145.847 153.147 145.985 153.068C146.124 152.989 146.295 152.989 146.431 153.069L175.357 169.813C180.646 172.859 184.939 180.293 184.925 186.383C184.925 186.384 184.925 186.384 184.925 186.384L184.849 204.025C184.849 204.608 184.777 205.136 184.634 205.59L184.554 205.833C184.416 206.21 184.241 206.525 184.009 206.803C183.969 206.883 183.863 206.976 183.789 207.034C183.782 207.058 183.694 207.147 183.608 207.215C183.596 207.231 183.533 207.281 183.469 207.329C183.453 207.34 183.436 207.352 183.415 207.364C183.368 207.406 183.31 207.438 183.249 207.458C182.785 207.717 182.275 207.843 181.738 207.843ZM183.196 207.473C183.168 207.478 183.139 207.481 183.111 207.481C183.14 207.481 183.17 207.478 183.196 207.473ZM183.335 207.409C183.308 207.425 183.28 207.441 183.254 207.456C183.301 207.439 183.341 207.415 183.37 207.39C183.358 207.397 183.348 207.403 183.335 207.409ZM168.446 199.772L179.856 206.365C180.991 207.03 182.08 207.148 182.837 206.681C182.867 206.654 182.895 206.635 182.923 206.621C182.977 206.578 183.044 206.525 183.051 206.519C183.09 206.489 183.132 206.447 183.165 206.406C183.177 206.385 183.307 206.252 183.323 206.234C183.487 206.036 183.614 205.809 183.711 205.54L183.786 205.316C183.898 204.962 183.957 204.512 183.957 204.023L184.034 186.381C184.048 180.576 179.955 173.49 174.911 170.586L146.652 154.227L146.602 172.031L168.274 184.588C168.413 184.668 168.497 184.816 168.497 184.976L168.446 199.772Z" fill="#383C43"/>
<path d="M182.486 189.675C182.399 186.956 179.432 185.324 177.09 186.706L165.193 193.721C160.058 196.684 155.892 203.884 155.91 209.809L155.937 237.329C155.955 243.236 160.139 245.624 165.292 242.662L270.335 181.593C275.488 178.613 279.636 171.412 279.618 165.505L279.591 137.985C279.573 132.06 275.389 129.672 270.236 132.652L263.917 136.338C264.294 137.685 264.492 139.031 264.492 140.324L264.474 144.921L269.392 142.043C271.331 140.93 272.911 141.81 272.911 144.037L272.938 167.139C272.938 169.365 271.376 172.076 269.437 173.19L166.136 233.253C164.197 234.385 162.634 233.487 162.617 231.26L162.608 208.158C162.59 205.931 164.152 203.238 166.091 202.124L180.821 192.815C181.893 192.137 182.526 190.943 182.486 189.675Z" fill="#DA0000"/>
<path d="M264.494 140.02L264.475 144.8L264.419 157.666C264.419 159.179 263.878 160.243 263.037 160.728L183.134 207.02C183.19 206.964 183.283 206.927 183.32 206.871C183.395 206.814 183.451 206.759 183.507 206.684C183.582 206.628 183.619 206.591 183.656 206.516C183.862 206.292 184.011 206.012 184.123 205.695C184.16 205.62 184.179 205.545 184.198 205.452C184.329 205.041 184.403 204.555 184.403 204.032L184.459 191.334L184.478 186.386C184.478 185.098 184.291 183.735 183.918 182.372C182.629 177.479 179.174 172.531 175.141 170.196L146.197 153.446L226.213 107.099L255.138 123.83C259.153 126.146 262.57 131.038 263.896 135.874C264.288 137.275 264.494 138.675 264.494 140.02Z" fill="white"/>
<path d="M183.133 207.465C182.999 207.465 182.866 207.404 182.779 207.291C182.644 207.113 182.659 206.863 182.818 206.704C182.839 206.682 182.95 206.598 182.974 206.581C183.093 206.483 183.121 206.456 183.154 206.412C183.178 206.379 183.208 206.35 183.241 206.325C183.26 206.287 183.298 206.245 183.326 206.214C183.48 206.048 183.601 205.829 183.702 205.546C183.735 205.47 183.744 205.444 183.758 205.369C183.892 204.936 183.957 204.492 183.957 204.032L184.031 186.383C184.031 185.118 183.849 183.807 183.488 182.488C182.196 177.584 178.753 172.801 174.918 170.582L145.974 153.831C145.837 153.752 145.751 153.605 145.751 153.445C145.751 153.286 145.836 153.14 145.974 153.06L225.99 106.712C226.125 106.632 226.3 106.632 226.435 106.712L255.36 123.444C259.332 125.733 262.934 130.681 264.326 135.756C264.732 137.209 264.939 138.644 264.939 140.019C264.939 140.019 264.939 140.019 264.939 140.02L264.864 157.668C264.864 159.268 264.279 160.525 263.26 161.114L183.356 207.405C183.286 207.446 183.21 207.465 183.133 207.465ZM147.087 153.446L175.364 169.81C179.39 172.14 183.002 177.142 184.35 182.257C184.73 183.649 184.923 185.039 184.923 186.385L184.848 204.033C184.848 204.582 184.77 205.12 184.622 205.586C184.621 205.603 184.617 205.624 184.61 205.648L262.815 160.342C263.551 159.916 263.973 158.941 263.973 157.666L264.048 140.017C264.048 138.724 263.853 137.371 263.466 135.994C262.134 131.129 258.697 126.397 254.915 124.216L226.213 107.614L147.087 153.446Z" fill="#383C43"/>
<path d="M120.061 487.116C119.984 487.116 119.908 487.097 119.838 487.056L96.2793 473.455C96.0668 473.332 95.9937 473.06 96.1157 472.846C96.2394 472.631 96.5162 472.56 96.7252 472.684L120.284 486.285C120.496 486.407 120.569 486.68 120.447 486.893C120.364 487.036 120.214 487.116 120.061 487.116Z" fill="#383C43"/>
<path d="M140.941 329.42C140.68 329.42 140.417 329.351 140.178 329.214C139.698 328.938 139.41 328.443 139.408 327.89L139.354 308.498C139.354 308.339 139.44 308.191 139.578 308.112L287.639 222.621C287.778 222.541 287.945 222.542 288.085 222.621C288.222 222.7 288.307 222.847 288.307 223.006L288.361 241.876C288.365 243.514 287.487 245.04 286.069 245.858L141.707 329.212C141.467 329.351 141.204 329.42 140.941 329.42ZM140.246 308.755L140.3 327.888C140.302 328.118 140.422 328.326 140.622 328.441C140.821 328.556 141.063 328.556 141.261 328.441L285.624 245.087C286.766 244.427 287.473 243.198 287.47 241.878L287.417 223.778L140.246 308.755Z" fill="#DBDEE4"/>
<path d="M139.801 308.943C139.724 308.943 139.648 308.923 139.578 308.884C139.44 308.805 139.355 308.658 139.355 308.498L139.294 287.233C139.294 287.073 139.379 286.925 139.517 286.846L287.578 201.355C287.718 201.275 287.885 201.276 288.024 201.354C288.162 201.433 288.247 201.581 288.247 201.74L288.308 223.006C288.308 223.166 288.223 223.314 288.085 223.393L140.024 308.883C139.954 308.923 139.878 308.943 139.801 308.943ZM140.186 287.489L140.245 307.727L287.417 222.75L287.357 202.511L140.186 287.489Z" fill="#DBDEE4"/>
<path d="M139.738 287.678C139.662 287.678 139.585 287.658 139.515 287.619C139.378 287.539 139.292 287.392 139.292 287.233L139.238 268.363C139.235 266.725 140.113 265.198 141.53 264.381L285.892 181.026C286.371 180.75 286.943 180.748 287.422 181.025C287.902 181.301 288.19 181.795 288.192 182.348C288.192 182.348 288.192 182.348 288.192 182.349L288.246 201.74C288.246 201.899 288.16 202.047 288.022 202.127L139.961 287.618C139.892 287.658 139.815 287.678 139.738 287.678ZM286.659 181.712C286.549 181.712 286.438 181.74 286.338 181.798L141.976 265.152C140.834 265.811 140.127 267.041 140.13 268.361L140.182 286.461L287.354 201.484L287.3 182.351C287.298 182.12 287.178 181.913 286.977 181.797C286.878 181.741 286.769 181.712 286.659 181.712Z" fill="#DBDEE4"/>
<path d="M140.95 329.416C140.687 329.416 140.425 329.347 140.185 329.21C139.706 328.934 139.419 328.438 139.417 327.885L139.248 268.359C139.245 266.721 140.122 265.196 141.54 264.376L157.97 254.89C158.109 254.81 158.276 254.811 158.416 254.889C158.554 254.968 158.639 255.115 158.639 255.275L158.82 319.075C158.82 319.234 158.735 319.382 158.597 319.461L141.716 329.208C141.476 329.347 141.213 329.416 140.95 329.416ZM157.749 256.046L141.986 265.148C140.843 265.808 140.136 267.038 140.14 268.357L140.309 327.883C140.309 328.114 140.429 328.321 140.63 328.436C140.832 328.551 141.068 328.551 141.27 328.436L157.929 318.818L157.749 256.046Z" fill="#DBDEE4"/>
<path d="M250.904 266.095C250.828 266.095 250.751 266.075 250.681 266.035C250.544 265.956 250.459 265.809 250.459 265.65L250.277 201.85C250.277 201.691 250.363 201.543 250.5 201.463L269.007 190.778C269.146 190.697 269.313 190.698 269.452 190.777C269.59 190.856 269.675 191.003 269.675 191.163L269.857 254.962C269.857 255.122 269.771 255.27 269.634 255.349L251.127 266.035C251.058 266.075 250.981 266.095 250.904 266.095ZM251.169 202.106L251.349 264.878L268.965 254.707L268.785 191.934L251.169 202.106Z" fill="#DBDEE4"/>
<path d="M232.401 276.78C232.325 276.78 232.248 276.76 232.178 276.721C232.041 276.642 231.956 276.495 231.956 276.335L231.774 212.535C231.774 212.376 231.86 212.228 231.997 212.149L250.504 201.463C250.643 201.383 250.81 201.384 250.949 201.462C251.087 201.541 251.173 201.689 251.173 201.848L251.354 265.648C251.354 265.807 251.268 265.955 251.131 266.035L232.625 276.72C232.555 276.76 232.478 276.78 232.401 276.78ZM232.666 212.791L232.846 275.564L250.462 265.392L250.282 202.62L232.666 212.791Z" fill="#DBDEE4"/>
<path d="M213.893 287.466C213.816 287.466 213.739 287.446 213.67 287.407C213.532 287.327 213.447 287.18 213.447 287.021L213.266 223.221C213.266 223.062 213.351 222.914 213.489 222.834L231.995 212.149C232.134 212.069 232.301 212.069 232.441 212.148C232.578 212.227 232.663 212.374 232.663 212.534L232.845 276.333C232.845 276.493 232.759 276.641 232.622 276.72L214.116 287.406C214.046 287.446 213.969 287.466 213.893 287.466ZM214.158 223.477L214.337 286.249L231.953 276.078L231.774 213.305L214.158 223.477Z" fill="#DBDEE4"/>
<path d="M195.384 298.15C195.307 298.15 195.23 298.13 195.161 298.091C195.023 298.012 194.938 297.865 194.938 297.705L194.757 233.906C194.757 233.746 194.842 233.598 194.98 233.519L213.486 222.834C213.625 222.754 213.793 222.755 213.932 222.833C214.07 222.913 214.155 223.06 214.155 223.219L214.336 287.019C214.336 287.178 214.251 287.326 214.113 287.406L195.607 298.09C195.537 298.13 195.461 298.15 195.384 298.15ZM195.649 234.161L195.828 296.934L213.444 286.763L213.265 223.991L195.649 234.161Z" fill="#DBDEE4"/>
<path d="M176.882 308.836C176.805 308.836 176.729 308.816 176.659 308.777C176.521 308.698 176.436 308.55 176.436 308.391L176.255 244.591C176.255 244.432 176.34 244.284 176.478 244.205L194.984 233.519C195.123 233.439 195.291 233.44 195.43 233.518C195.568 233.597 195.653 233.744 195.653 233.904L195.834 297.704C195.834 297.863 195.749 298.011 195.611 298.09L177.105 308.776C177.036 308.816 176.959 308.836 176.882 308.836ZM177.147 244.847L177.326 307.619L194.942 297.448L194.763 234.676L177.147 244.847Z" fill="#DBDEE4"/>
<path d="M158.376 319.52C158.3 319.52 158.223 319.5 158.153 319.461C158.016 319.382 157.93 319.235 157.93 319.075L157.749 255.276C157.749 255.116 157.834 254.969 157.972 254.889L176.478 244.204C176.618 244.123 176.785 244.124 176.924 244.203C177.061 244.282 177.147 244.429 177.147 244.589L177.328 308.388C177.328 308.548 177.243 308.696 177.105 308.775L158.599 319.461C158.53 319.5 158.453 319.52 158.376 319.52ZM158.641 255.532L158.821 318.304L176.437 308.132L176.257 245.36L158.641 255.532Z" fill="#DBDEE4"/>
<path d="M269.413 255.409C269.336 255.409 269.26 255.389 269.19 255.35C269.053 255.27 268.967 255.123 268.967 254.964L268.786 191.164C268.786 191.005 268.871 190.857 269.009 190.777L285.89 181.031C286.369 180.753 286.94 180.754 287.419 181.028C287.899 181.304 288.187 181.799 288.189 182.352C288.189 182.352 288.189 182.352 288.189 182.353L288.358 241.88C288.362 243.517 287.484 245.042 286.066 245.862L269.636 255.348C269.567 255.388 269.49 255.409 269.413 255.409ZM269.678 191.42L269.857 254.192L285.62 245.091C286.763 244.431 287.47 243.201 287.466 241.882L287.297 182.356C287.296 182.124 287.176 181.917 286.975 181.801C286.773 181.686 286.538 181.687 286.336 181.802L269.678 191.42Z" fill="#DBDEE4"/>
<path d="M176.113 295.672C174.972 295.672 173.908 295.403 172.962 294.865L158.197 286.436C156.504 285.476 154.196 285.745 151.695 287.188L150.804 285.643C153.872 283.871 156.814 283.602 159.078 284.886L173.845 293.315C175.543 294.281 177.849 294.017 180.346 292.572C182.999 291.041 185.496 288.396 187.38 285.127L202.062 259.698C204.103 256.164 206.836 253.29 209.756 251.603C212.829 249.829 215.762 249.566 218.026 250.852L232.801 259.273C234.49 260.243 236.796 259.976 239.299 258.534C241.951 257.001 244.452 254.357 246.337 251.085L261.018 225.656C263.056 222.125 265.785 219.253 268.704 217.567C271.774 215.795 274.716 215.525 276.978 216.809L276.101 218.361C274.404 217.4 272.097 217.669 269.596 219.112C266.943 220.643 264.446 223.284 262.562 226.547L247.882 251.976C245.842 255.514 243.111 258.392 240.191 260.078C237.115 261.854 234.179 262.118 231.915 260.821L217.141 252.402C215.456 251.439 213.149 251.705 210.648 253.148C207.995 254.681 205.493 257.323 203.605 260.59L188.925 286.018C186.887 289.554 184.156 292.43 181.238 294.117C179.449 295.15 177.706 295.672 176.113 295.672Z" fill="#DA0000"/>
<path d="M276.52 211.416C278.677 210.17 280.433 211.171 280.44 213.643C280.447 216.121 278.702 219.144 276.545 220.389C274.401 221.628 272.645 220.627 272.638 218.148C272.631 215.676 274.376 212.654 276.52 211.416Z" fill="#383C43"/>
<path d="M240.788 253.577C242.944 252.331 244.701 253.332 244.708 255.804C244.715 258.282 242.97 261.305 240.813 262.551C238.669 263.789 236.912 262.788 236.905 260.309C236.898 257.838 238.644 254.815 240.788 253.577Z" fill="#383C43"/>
<path d="M210.456 247.352C212.612 246.107 214.369 247.108 214.376 249.579C214.383 252.058 212.638 255.081 210.481 256.326C208.337 257.564 206.58 256.563 206.573 254.084C206.566 251.613 208.311 248.59 210.456 247.352Z" fill="#383C43"/>
<path d="M183.745 287.748C185.901 286.502 187.658 287.503 187.665 289.975C187.672 292.453 185.927 295.476 183.77 296.721C181.626 297.96 179.869 296.959 179.862 294.48C179.855 292.008 181.601 288.985 183.745 287.748Z" fill="#383C43"/>
<path d="M151.229 280.996C153.386 279.75 155.142 280.751 155.149 283.223C155.156 285.701 153.411 288.724 151.254 289.969C149.11 291.208 147.354 290.207 147.347 287.728C147.34 285.257 149.085 282.234 151.229 280.996Z" fill="#383C43"/>
<path d="M139.803 342.466L139.922 384.545L176.513 363.403L176.393 321.324L139.803 342.466Z" fill="#DA0000"/>
<path d="M186.047 321.728C185.585 321.728 185.137 321.49 184.889 321.063C184.517 320.425 184.734 319.606 185.371 319.235L284.298 261.592C284.943 261.22 285.758 261.437 286.129 262.075C286.5 262.713 286.284 263.531 285.646 263.903L186.719 321.546C186.507 321.67 186.275 321.728 186.047 321.728Z" fill="#DBDEE4"/>
<path d="M186.047 338.549C185.585 338.549 185.137 338.311 184.889 337.884C184.517 337.246 184.734 336.427 185.371 336.056L283.713 278.754C284.358 278.38 285.173 278.599 285.544 279.236C285.915 279.875 285.699 280.693 285.061 281.065L186.719 338.367C186.507 338.49 186.275 338.549 186.047 338.549Z" fill="#DBDEE4"/>
<path d="M186.047 355.37C185.585 355.37 185.137 355.132 184.888 354.704C184.517 354.066 184.733 353.248 185.373 352.876L263.004 307.727C263.641 307.357 264.462 307.572 264.833 308.211C265.204 308.849 264.988 309.668 264.349 310.04L186.717 355.189C186.507 355.311 186.275 355.37 186.047 355.37Z" fill="#DBDEE4"/>
<path d="M139.803 397.751L139.922 439.829L176.513 418.687L176.393 376.608L139.803 397.751Z" fill="#DA0000"/>
<path d="M186.047 377.012C185.585 377.012 185.137 376.774 184.889 376.348C184.517 375.709 184.734 374.891 185.371 374.519L284.298 316.877C284.943 316.504 285.758 316.722 286.129 317.359C286.5 317.997 286.284 318.816 285.646 319.188L186.719 376.83C186.507 376.953 186.275 377.012 186.047 377.012Z" fill="#DBDEE4"/>
<path d="M186.047 393.832C185.585 393.832 185.137 393.594 184.889 393.168C184.517 392.529 184.734 391.711 185.371 391.339L283.713 334.037C284.358 333.664 285.173 333.882 285.544 334.519C285.915 335.158 285.699 335.976 285.061 336.348L186.719 393.65C186.507 393.774 186.275 393.832 186.047 393.832Z" fill="#DBDEE4"/>
<path d="M186.047 410.654C185.585 410.654 185.137 410.416 184.888 409.989C184.517 409.35 184.733 408.532 185.373 408.16L263.004 363.011C263.641 362.641 264.462 362.857 264.833 363.495C265.204 364.133 264.988 364.952 264.349 365.324L186.717 410.473C186.507 410.596 186.275 410.654 186.047 410.654Z" fill="#DBDEE4"/>
<path d="M139.803 453.035L139.922 495.114L176.513 473.972L176.393 431.893L139.803 453.035Z" fill="#DA0000"/>
<path d="M186.047 432.296C185.585 432.296 185.137 432.058 184.889 431.632C184.517 430.993 184.734 430.175 185.371 429.803L284.298 372.161C284.943 371.788 285.758 372.006 286.129 372.643C286.5 373.281 286.284 374.1 285.646 374.472L186.719 432.114C186.507 432.238 186.275 432.296 186.047 432.296Z" fill="#DBDEE4"/>
<path d="M186.047 449.116C185.585 449.116 185.137 448.878 184.889 448.452C184.517 447.813 184.734 446.995 185.371 446.623L283.713 389.321C284.358 388.948 285.173 389.166 285.544 389.804C285.915 390.442 285.699 391.26 285.061 391.632L186.719 448.934C186.507 449.058 186.275 449.116 186.047 449.116Z" fill="#DBDEE4"/>
<path d="M186.047 465.937C185.585 465.937 185.137 465.7 184.888 465.272C184.517 464.634 184.733 463.815 185.373 463.443L263.004 418.294C263.641 417.924 264.462 418.14 264.833 418.778C265.204 419.417 264.988 420.235 264.349 420.607L186.717 465.756C186.507 465.879 186.275 465.937 186.047 465.937Z" fill="#DBDEE4"/>
<path d="M156.15 366.688C156.008 366.688 155.865 366.654 155.736 366.586L146.964 361.983C146.528 361.754 146.359 361.215 146.589 360.779C146.817 360.341 147.359 360.178 147.793 360.403L155.75 364.579L168.568 338.159C168.784 337.716 169.312 337.531 169.761 337.746C170.203 337.961 170.388 338.494 170.174 338.937L156.954 366.185C156.847 366.402 156.659 366.568 156.429 366.643C156.339 366.673 156.245 366.688 156.15 366.688Z" fill="white"/>
<path d="M156.15 421.973C156.008 421.973 155.865 421.939 155.736 421.871L146.964 417.268C146.528 417.039 146.359 416.5 146.589 416.064C146.817 415.627 147.359 415.465 147.793 415.689L155.75 419.864L168.568 393.444C168.784 393.001 169.312 392.816 169.761 393.031C170.203 393.247 170.388 393.779 170.174 394.223L156.954 421.471C156.847 421.687 156.659 421.853 156.429 421.929C156.339 421.959 156.245 421.973 156.15 421.973Z" fill="white"/>
<path d="M147.464 482.933C147.313 482.933 147.159 482.895 147.018 482.814C146.592 482.567 146.445 482.022 146.693 481.596L168.083 444.517C168.325 444.09 168.87 443.943 169.3 444.191C169.727 444.437 169.873 444.982 169.626 445.409L148.236 482.487C148.072 482.773 147.772 482.933 147.464 482.933Z" fill="white"/>
<path d="M168.923 470.006C168.779 470.006 168.632 469.971 168.497 469.897L146.967 458.146C146.534 457.91 146.375 457.368 146.612 456.935C146.849 456.504 147.387 456.346 147.82 456.58L169.35 468.331C169.784 468.567 169.942 469.109 169.705 469.542C169.543 469.838 169.239 470.006 168.923 470.006Z" fill="white"/>
<g opacity="0.1">
<path d="M307.42 548.838C314.715 553.054 326.51 553.054 333.75 548.838L424.198 496.186C454.025 512.06 500.592 511.495 529.627 494.61C559.4 477.278 559.454 449.355 529.764 432.232C500.082 415.119 451.867 415.265 422.085 432.588C399.134 445.948 393.852 465.612 406.256 481.759L401.284 478.89L307.329 533.592C300.089 537.799 300.125 544.63 307.42 548.838Z" fill="#010101"/>
</g>
<path d="M407.708 455.234L407.528 425.8C407.471 416.826 413.359 407.838 425.181 400.956C448.675 387.292 486.73 387.169 510.155 400.682C521.817 407.387 527.666 416.213 527.72 425.071L527.9 454.505C527.846 445.648 521.987 436.839 510.336 430.116C486.91 416.603 448.855 416.726 425.361 430.391C413.539 437.272 407.651 446.26 407.708 455.234Z" fill="#383C43"/>
<path d="M407.708 455.68C407.462 455.68 407.263 455.482 407.262 455.236C407.262 455.236 407.262 455.236 407.262 455.235L407.082 425.803C407.021 416.277 413.369 407.317 424.956 400.571C448.543 386.851 486.863 386.731 510.38 400.297C521.792 406.857 528.109 415.655 528.167 425.068L528.346 454.502C528.348 454.749 528.149 454.949 527.904 454.951C527.902 454.951 527.9 454.951 527.9 454.951C527.655 454.951 527.456 454.753 527.454 454.508C527.398 445.448 521.24 436.923 510.113 430.502C486.844 417.079 448.926 417.201 425.587 430.777C414.288 437.354 408.096 446.038 408.154 455.231C408.155 455.478 407.962 455.64 407.708 455.68ZM468.031 391.08C452.613 391.08 437.16 394.504 425.405 401.342C414.106 407.919 407.915 416.604 407.974 425.797L408.117 449.132C410.203 441.927 416.065 435.287 425.137 430.006C448.72 416.286 487.042 416.163 510.559 429.73C519.469 434.871 525.272 441.36 527.417 448.426L527.275 425.073C527.219 415.991 521.061 407.466 509.934 401.069C498.383 394.406 483.225 391.08 468.031 391.08Z" fill="#383C43"/>
<g opacity="0.6">
<path d="M425.245 414.834C401.751 428.502 401.713 450.546 425.144 464.059C448.574 477.571 486.644 477.46 510.137 463.792C533.643 450.117 533.669 428.065 510.238 414.552C486.808 401.04 448.751 401.159 425.245 414.834Z" fill="#DA0000"/>
</g>
<path d="M391.48 425.891L391.671 455.329C391.727 466.551 399.137 477.727 413.89 486.224C425.952 493.186 441.063 497.289 456.758 498.545C459.291 498.746 461.836 498.881 464.381 498.937C466.6 498.993 468.82 498.982 471.028 498.914C473.573 498.847 476.118 498.701 478.651 498.477C494.357 497.121 509.479 492.917 521.575 485.877C536.552 477.155 544.007 465.765 543.929 454.398L543.749 425.117C543.749 436.428 536.306 447.762 521.373 456.439C509.345 463.456 494.278 467.649 478.651 469.005C476.129 469.241 473.573 469.387 471.028 469.465C468.809 469.544 466.589 469.555 464.381 469.499C461.836 469.454 459.291 469.319 456.758 469.129C440.996 467.884 425.817 463.77 413.71 456.787C398.958 448.289 391.548 437.113 391.48 425.891Z" fill="#BEC4CD"/>
<path d="M456.758 469.129V498.545C459.291 498.747 461.836 498.881 464.381 498.937C466.6 498.993 468.82 498.982 471.028 498.915C473.573 498.848 476.118 498.702 478.651 498.478V469.006C476.129 469.241 473.573 469.387 471.028 469.465C468.809 469.544 466.589 469.555 464.381 469.499C461.836 469.454 459.291 469.32 456.758 469.129Z" fill="#F1F2F5"/>
<path d="M467.261 499.42C466.281 499.42 465.316 499.408 464.366 499.384C445.211 498.963 427.204 494.427 413.665 486.612C399.254 478.312 391.284 467.204 391.223 455.333L391.033 425.895C391.033 425.896 391.033 425.894 391.033 425.895C391.032 425.648 391.23 425.448 391.476 425.447C391.477 425.447 391.477 425.447 391.479 425.447C391.725 425.447 391.923 425.644 391.925 425.89V425.91C392.005 437.445 399.819 448.273 413.931 456.401C427.408 464.178 445.327 468.672 464.387 469.054C466.578 469.111 468.805 469.098 471.01 469.021C489.955 468.463 507.761 463.859 521.147 456.055C535.433 447.752 543.302 436.766 543.302 425.119C543.302 424.873 543.5 424.674 543.746 424.673H543.748C543.993 424.673 544.192 424.871 544.193 425.116V425.119L544.373 454.397C544.456 466.42 536.438 477.737 521.798 486.263C508.205 494.172 490.18 498.824 471.038 499.362C469.766 499.4 468.503 499.42 467.261 499.42ZM391.969 432.75L392.115 455.328C392.174 466.868 399.985 477.705 414.111 485.839C427.523 493.582 445.378 498.075 464.389 498.492C466.523 498.548 468.752 498.538 471.012 498.47C490.008 497.936 507.885 493.328 521.35 485.493C535.702 477.134 543.562 466.093 543.482 454.404L543.344 431.822C540.925 441.254 533.413 449.959 521.597 456.826C508.084 464.703 490.13 469.351 471.04 469.912C468.816 469.991 466.575 470.001 464.367 469.946C445.162 469.56 427.091 465.024 413.486 457.174C401.894 450.497 394.466 442.001 391.969 432.75Z" fill="#383C43"/>
<path d="M521.381 456.443C491.615 473.76 443.403 473.912 413.716 456.792C384.03 439.672 384.082 411.745 413.848 394.428C443.626 377.103 491.839 376.951 521.525 394.071C551.211 411.191 551.16 439.118 521.381 456.443ZM425.174 400.96C401.681 414.628 401.643 436.672 425.073 450.185C448.504 463.697 486.574 463.586 510.067 449.918C533.573 436.243 533.598 414.191 510.168 400.678C486.737 387.166 448.68 387.284 425.174 400.96Z" fill="white"/>
<path d="M467.093 469.952C447.661 469.953 428.271 465.699 413.494 457.179C399.039 448.841 391.064 437.692 391.043 425.785C391.02 413.8 399.04 402.528 413.625 394.042C443.474 376.676 491.977 376.516 521.749 393.684C536.203 402.021 544.176 413.168 544.199 425.074C544.221 437.062 536.198 448.338 521.607 456.829C506.577 465.572 486.811 469.952 467.093 469.952ZM468.157 381.791C448.594 381.791 428.987 386.137 414.074 394.813C399.775 403.131 391.912 414.13 391.935 425.783C391.956 437.359 399.77 448.234 413.94 456.406C443.463 473.432 491.561 473.277 521.157 456.057C535.463 447.734 543.33 436.732 543.307 425.076C543.284 413.502 535.472 402.628 521.304 394.458C506.654 386.008 487.426 381.791 468.157 381.791ZM467.224 460.672C451.863 460.672 436.534 457.309 424.851 450.571C413.411 443.973 407.101 435.144 407.083 425.71C407.064 416.216 413.411 407.289 424.95 400.574C448.537 386.853 486.866 386.725 510.393 400.291C521.835 406.891 528.148 415.724 528.166 425.161C528.183 434.658 521.837 443.587 510.294 450.304C498.419 457.211 482.806 460.672 467.224 460.672ZM425.399 401.345C414.145 407.893 407.958 416.546 407.975 425.708C407.992 434.812 414.144 443.366 425.297 449.798C448.582 463.228 486.51 463.108 509.844 449.532C521.102 442.983 527.291 434.328 527.274 425.163C527.256 416.057 521.103 407.498 509.947 401.065C486.667 387.64 448.738 387.767 425.399 401.345Z" fill="#383C43"/>
<path d="M373.433 479.701L404.157 461.848C405.349 461.154 406.997 461.24 408.822 462.272C412.48 464.339 415.475 469.453 415.502 473.675C415.516 475.809 414.773 477.313 413.566 478.016L382.842 495.869C384.049 495.166 384.792 493.662 384.778 491.528C384.751 487.306 381.756 482.192 378.098 480.125C376.273 479.093 374.625 479.007 373.433 479.701Z" fill="#383C43"/>
<path d="M382.842 496.315C382.688 496.315 382.539 496.236 382.457 496.093C382.333 495.881 382.405 495.608 382.617 495.485C382.617 495.484 382.617 495.484 382.617 495.484L382.621 495.482C383.735 494.832 384.343 493.428 384.333 491.531C384.306 487.452 381.41 482.51 377.878 480.514C376.258 479.598 374.759 479.447 373.656 480.087C373.44 480.208 373.169 480.139 373.047 479.925C372.923 479.713 372.995 479.44 373.207 479.316L403.932 461.463C405.318 460.658 407.132 460.805 409.042 461.884C412.823 464.021 415.92 469.31 415.947 473.673C415.961 475.905 415.195 477.585 413.79 478.403L383.066 496.255V496.255C382.995 496.296 382.918 496.315 382.842 496.315ZM375.795 478.844C376.595 478.946 377.446 479.245 378.317 479.737C382.096 481.874 385.195 487.162 385.224 491.526C385.229 492.56 385.069 493.476 384.754 494.243L413.34 477.631C414.459 476.981 415.068 475.577 415.056 473.678C415.032 469.6 412.135 464.657 408.603 462.661C406.984 461.746 405.484 461.592 404.382 462.233L375.795 478.844Z" fill="#383C43"/>
<path d="M371.5 484.024C371.473 479.802 374.426 478.05 378.097 480.125C381.755 482.192 384.75 487.307 384.777 491.528C384.804 495.766 381.851 497.517 378.194 495.45C374.523 493.375 371.527 488.261 371.5 484.024Z" fill="white"/>
<path d="M381.097 496.767C380.13 496.767 379.068 496.456 377.976 495.839C374.188 493.697 371.084 488.399 371.055 484.027C371.041 481.813 371.802 480.143 373.195 479.324C374.587 478.506 376.403 478.656 378.317 479.737C382.096 481.874 385.195 487.162 385.224 491.526C385.238 493.749 384.475 495.426 383.079 496.247C382.488 496.595 381.818 496.767 381.097 496.767ZM371.946 484.021C371.972 488.109 374.876 493.062 378.414 495.062C380.032 495.977 381.527 496.126 382.627 495.478C383.738 494.825 384.344 493.423 384.332 491.531C384.306 487.452 381.41 482.509 377.878 480.514C376.251 479.594 374.748 479.446 373.646 480.093C372.538 480.744 371.934 482.14 371.946 484.021Z" fill="#383C43"/>
<path d="M297.692 512.188L386.581 460.439C389.058 458.997 392.481 459.175 396.273 461.319C403.87 465.613 410.094 476.238 410.149 485.008C410.177 489.442 408.635 492.566 406.127 494.026L317.238 545.775C319.747 544.315 321.289 541.191 321.261 536.757C321.206 527.987 314.982 517.363 307.384 513.068C303.592 510.925 300.169 510.747 297.692 512.188Z" fill="white"/>
<path d="M317.237 546.222C317.084 546.222 316.934 546.142 316.853 546C316.729 545.787 316.8 545.515 317.013 545.391V545.39C319.491 543.949 320.841 540.885 320.814 536.761C320.76 528.134 314.635 517.681 307.164 513.457C303.644 511.465 300.363 511.155 297.921 512.571L297.916 512.573C297.916 512.574 297.916 512.573 297.916 512.574C297.7 512.696 297.428 512.625 297.307 512.413C297.183 512.2 297.255 511.927 297.467 511.803L386.356 460.055C389.085 458.469 392.681 458.778 396.492 460.931C404.213 465.295 410.538 476.095 410.595 485.006C410.623 489.461 409.117 492.801 406.351 494.411L317.473 546.155C317.469 546.156 317.466 546.159 317.462 546.162C317.39 546.202 317.314 546.222 317.237 546.222ZM301.323 510.804C303.259 510.804 305.396 511.434 307.603 512.68C315.323 517.044 321.649 527.843 321.706 536.755C321.724 539.526 321.147 541.866 320.045 543.626L405.902 493.641C408.38 492.198 409.73 489.133 409.703 485.011C409.649 476.385 403.524 465.932 396.053 461.707C392.53 459.717 389.245 459.404 386.805 460.824L300.941 510.812C301.068 510.806 301.196 510.804 301.323 510.804Z" fill="#383C43"/>
<path d="M297.692 512.633C297.538 512.633 297.389 512.554 297.307 512.412C297.183 512.199 297.255 511.926 297.467 511.802L379.118 464.259C379.33 464.133 379.604 464.206 379.727 464.419C379.851 464.632 379.779 464.905 379.567 465.028L297.916 512.572C297.845 512.614 297.768 512.633 297.692 512.633Z" fill="#383C43"/>
<path d="M293.681 521.167C293.626 512.397 299.759 508.758 307.386 513.069C314.983 517.363 321.207 527.988 321.262 536.758C321.318 545.561 315.184 549.2 307.587 544.906C299.96 540.595 293.737 529.97 293.681 521.167Z" fill="#383C43"/>
<path d="M313.615 547.159C311.687 547.159 309.562 546.533 307.368 545.293C299.631 540.92 293.292 530.097 293.235 521.169C293.207 516.75 294.701 513.429 297.442 511.818C300.175 510.212 303.784 510.52 307.605 512.679C315.325 517.043 321.651 527.842 321.708 536.754C321.736 541.194 320.238 544.529 317.49 546.145C316.337 546.822 315.029 547.159 313.615 547.159ZM301.326 511.695C300.065 511.695 298.907 511.991 297.895 512.586C295.438 514.03 294.1 517.076 294.126 521.164C294.18 529.807 300.318 540.284 307.806 544.517C311.324 546.505 314.6 546.807 317.037 545.377C319.5 543.929 320.842 540.869 320.816 536.76C320.762 528.134 314.637 517.68 307.165 513.456C305.097 512.286 303.109 511.695 301.326 511.695Z" fill="#383C43"/>
<path d="M300.334 524.936C300.306 520.398 303.48 518.514 307.426 520.745C311.358 522.968 314.579 528.466 314.607 533.004C314.636 537.56 311.462 539.443 307.53 537.221C303.584 534.99 300.363 529.492 300.334 524.936Z" fill="#DA0000"/>
<g opacity="0.1">
<path d="M447.946 276.427C429.22 287.244 429.121 304.789 447.734 315.611C466.346 326.434 496.612 326.429 515.337 315.612C534.071 304.79 534.188 287.244 515.575 276.422C496.962 265.6 466.68 265.605 447.946 276.427Z" fill="#383C43"/>
</g>
<path d="M529.494 288.421C529.509 295.559 524.806 302.712 515.367 308.151C508.062 312.374 499.013 314.945 489.574 315.865C484.341 316.394 478.983 316.394 473.75 315.896C464.218 314.992 455.091 312.405 447.77 308.15C438.518 302.774 433.892 295.746 433.877 288.702L433.846 271.357C433.861 278.416 438.487 285.444 447.739 290.821C455.075 295.091 464.218 297.678 473.75 298.566C478.983 299.065 484.341 299.065 489.575 298.535C498.998 297.616 508.047 295.029 515.336 290.821C524.759 285.398 529.463 278.26 529.463 271.107L529.494 288.421Z" fill="#BEC4CD"/>
<path d="M489.574 298.535V315.864C484.341 316.394 478.983 316.394 473.75 315.896V298.566C478.983 299.065 484.341 299.065 489.574 298.535Z" fill="#F1F2F5"/>
<path d="M481.521 316.696C469.198 316.696 456.893 313.978 447.541 308.541C438.461 303.26 433.447 296.212 433.424 288.697L433.393 271.365V271.364C433.393 271.118 433.591 270.918 433.837 270.918C433.838 270.918 433.838 270.918 433.838 270.918C434.084 270.918 434.284 271.116 434.284 271.362C434.305 278.549 439.162 285.323 447.959 290.437C466.413 301.169 496.539 301.168 515.115 290.438C524.086 285.255 529.021 278.395 529.016 271.118V271.085C529.016 271.084 529.016 271.084 529.016 271.084V271.083C529.016 270.837 529.214 270.638 529.46 270.637C529.462 270.637 529.462 270.637 529.462 270.637C529.708 270.637 529.908 270.835 529.908 271.082C529.908 271.094 529.908 271.107 529.908 271.119L529.939 288.414C529.962 296.036 524.866 303.184 515.592 308.541C506.182 313.978 493.843 316.696 481.521 316.696ZM434.294 276.785L434.315 288.694C434.336 295.881 439.193 302.656 447.99 307.77C466.442 318.5 496.568 318.499 515.146 307.77C524.132 302.579 529.068 295.706 529.047 288.416L529.027 276.551C527.198 282.082 522.574 287.159 515.561 291.21C496.739 302.083 466.213 302.082 447.51 291.209C440.653 287.222 436.116 282.227 434.294 276.785Z" fill="#383C43"/>
<path d="M447.946 251.639C429.22 262.456 429.121 280.001 447.734 290.824C466.346 301.646 496.612 301.641 515.337 290.824C534.071 280.002 534.188 262.456 515.575 251.634C496.962 240.811 466.68 240.817 447.946 251.639Z" fill="white"/>
<path d="M481.49 299.364C469.166 299.365 456.86 296.647 447.508 291.209C438.394 285.909 433.38 278.837 433.391 271.294C433.401 263.702 438.492 256.585 447.722 251.253C466.556 240.373 497.095 240.374 515.799 251.248C524.906 256.545 529.917 263.613 529.906 271.151C529.895 278.748 524.8 285.872 515.559 291.21C506.149 296.647 493.812 299.364 481.49 299.364ZM448.168 252.024C439.225 257.191 434.293 264.035 434.282 271.296C434.272 278.507 439.129 285.305 447.957 290.438C466.411 301.17 496.537 301.169 515.113 290.439C524.066 285.265 529.004 278.416 529.014 271.151C529.024 263.943 524.172 257.149 515.349 252.02C496.891 241.286 466.751 241.29 448.168 252.024Z" fill="#383C43"/>
<path d="M447.946 251.639C429.22 262.456 429.121 280.001 447.734 290.824C466.346 301.646 496.612 301.641 515.337 290.824C534.071 280.002 534.188 262.456 515.575 251.634C496.962 240.811 466.68 240.817 447.946 251.639Z" fill="white"/>
<path d="M481.49 299.364C469.166 299.365 456.86 296.647 447.508 291.209C438.394 285.909 433.38 278.837 433.391 271.294C433.401 263.702 438.492 256.585 447.722 251.253C466.556 240.373 497.095 240.374 515.799 251.248C524.906 256.545 529.917 263.613 529.906 271.151C529.895 278.748 524.8 285.872 515.559 291.21C506.149 296.647 493.812 299.364 481.49 299.364ZM448.168 252.024C439.225 257.191 434.293 264.035 434.282 271.296C434.272 278.507 439.129 285.305 447.957 290.438C466.411 301.17 496.537 301.169 515.113 290.439C524.066 285.265 529.004 278.416 529.014 271.151C529.024 263.943 524.172 257.149 515.349 252.02C496.891 241.286 466.751 241.29 448.168 252.024Z" fill="#383C43"/>
<path d="M447.946 251.639C429.22 262.456 429.121 280.001 447.734 290.824C466.346 301.646 496.612 301.641 515.337 290.824C534.071 280.002 534.188 262.456 515.575 251.634C496.962 240.811 466.68 240.817 447.946 251.639Z" fill="white"/>
<path d="M481.49 299.364C469.166 299.365 456.86 296.647 447.508 291.209C438.394 285.909 433.38 278.837 433.391 271.294C433.401 263.702 438.492 256.585 447.722 251.253C466.556 240.373 497.095 240.374 515.799 251.248C524.906 256.545 529.917 263.613 529.906 271.151C529.895 278.748 524.8 285.872 515.559 291.21C506.149 296.647 493.812 299.364 481.49 299.364ZM448.168 252.024C439.225 257.191 434.293 264.035 434.282 271.296C434.272 278.507 439.129 285.305 447.957 290.438C466.411 301.17 496.537 301.169 515.113 290.439C524.066 285.265 529.004 278.416 529.014 271.151C529.024 263.943 524.172 257.149 515.349 252.02C496.891 241.286 466.751 241.29 448.168 252.024Z" fill="#383C43"/>
<g opacity="0.1">
<path d="M501.023 261.335C510.736 266.946 510.775 276.047 501.125 281.658C491.475 287.269 475.783 287.269 466.07 281.658C456.357 276.047 456.294 266.946 465.944 261.335C475.594 255.724 491.31 255.724 501.023 261.335Z" fill="#383C43"/>
</g>
<path d="M422.391 123.096L441.692 111.873C442.418 111.451 443.394 111.438 444.488 111.889C450.746 114.444 456.345 114.282 460.592 111.812L441.291 123.035C437.043 125.505 431.445 125.667 425.187 123.112C424.092 122.661 423.117 122.673 422.391 123.096Z" fill="#383C43"/>
<path d="M433.797 125.391C431.034 125.391 428.067 124.769 425.017 123.524C424.086 123.14 423.23 123.122 422.615 123.481C422.401 123.602 422.128 123.532 422.006 123.319C421.882 123.106 421.954 122.834 422.166 122.71L441.466 111.487C442.329 110.985 443.462 110.983 444.659 111.477C450.66 113.927 456.096 113.911 460.368 111.426C460.58 111.303 460.854 111.374 460.977 111.588C461.101 111.801 461.029 112.073 460.817 112.198L441.515 123.42C439.256 124.733 436.635 125.391 433.797 125.391ZM424.444 122.417C424.742 122.478 425.047 122.572 425.357 122.7C431.36 125.15 436.796 125.134 441.066 122.649L456.101 113.908C452.55 114.543 448.506 114.011 444.319 112.302C443.384 111.916 442.529 111.9 441.916 112.259L424.444 122.417Z" fill="#383C43"/>
<path d="M519.393 122.778L473.135 96.0749C471.866 95.3525 470.745 95.2777 469.924 95.7514L450.604 106.985C451.426 106.487 452.571 106.562 453.816 107.284L500.073 134.012C501.109 134.608 502.041 135.555 502.798 136.663L522.107 125.435C521.347 124.324 520.416 123.373 519.393 122.778Z" fill="#383C43"/>
<path d="M502.8 137.108C502.657 137.108 502.518 137.039 502.432 136.914C501.671 135.801 500.779 134.932 499.851 134.399L453.595 107.67C452.546 107.062 451.589 106.945 450.892 107.335L450.831 107.371C450.618 107.493 450.349 107.424 450.223 107.212C450.098 107.001 450.165 106.73 450.376 106.603C450.399 106.588 450.423 106.575 450.448 106.561L469.701 95.3658C470.692 94.7954 471.986 94.9094 473.358 95.6879L519.617 122.393C519.617 122.393 519.617 122.393 519.618 122.393C520.648 122.991 521.635 123.956 522.474 125.183C522.544 125.285 522.568 125.412 522.542 125.533C522.515 125.654 522.438 125.758 522.332 125.821L503.024 137.048C502.953 137.089 502.877 137.108 502.8 137.108ZM452.631 106.323C453.089 106.43 453.565 106.622 454.042 106.899L500.297 133.627C501.241 134.169 502.145 135.01 502.927 136.072L521.459 125.296C520.761 124.364 519.977 123.633 519.171 123.164L472.914 96.4616C471.836 95.8494 470.855 95.73 470.148 96.1375L452.631 106.323Z" fill="#383C43"/>
<path d="M547.847 171.602C541.125 166.595 535.225 159.371 530.918 151.375C527.208 144.525 524.719 137.127 523.922 130.077C523.741 128.493 523.063 126.835 522.105 125.436L502.797 136.663C503.751 138.058 504.422 139.715 504.603 141.312C505.424 148.361 507.914 155.734 511.624 162.609C515.931 170.581 521.831 177.804 528.528 182.811C529.823 183.762 530.928 185.168 531.666 186.69L550.964 175.469C550.224 173.954 549.126 172.551 547.847 171.602Z" fill="#383C43"/>
<path d="M531.666 187.136C531.623 187.136 531.579 187.13 531.536 187.117C531.417 187.08 531.32 186.997 531.266 186.884C530.531 185.372 529.465 184.053 528.265 183.171C521.73 178.286 515.683 171.061 511.232 162.821C507.416 155.751 504.971 148.331 504.161 141.364C503.992 139.882 503.377 138.302 502.43 136.915C502.36 136.813 502.336 136.686 502.362 136.565C502.389 136.444 502.466 136.34 502.573 136.277L521.88 125.05C522.082 124.931 522.34 124.992 522.472 125.185C523.51 126.7 524.182 128.42 524.365 130.027C525.142 136.899 527.542 144.207 531.309 151.163C535.699 159.312 541.668 166.444 548.113 171.244C549.413 172.208 550.567 173.639 551.363 175.274C551.466 175.484 551.39 175.738 551.188 175.855L531.891 187.076C531.821 187.116 531.745 187.136 531.666 187.136ZM503.428 136.812C504.308 138.218 504.879 139.781 505.046 141.262C505.844 148.117 508.254 155.426 512.016 162.398C516.408 170.525 522.366 177.648 528.794 182.455C529.993 183.333 531.065 184.606 531.849 186.069L550.374 175.296C549.652 173.942 548.671 172.767 547.583 171.96C547.581 171.96 547.581 171.96 547.581 171.96C541.033 167.083 534.975 159.847 530.526 151.587C526.705 144.532 524.268 137.112 523.481 130.127C523.326 128.782 522.791 127.342 521.964 126.034L503.428 136.812Z" fill="#383C43"/>
<path d="M531.666 186.69C532.262 187.917 532.623 189.22 532.611 190.433L532.561 208.418C532.512 229.118 527.557 246.181 518.694 258.312C515.283 262.945 510.603 266.881 505.25 269.995L524.544 258.76C529.922 255.647 534.602 251.736 537.988 247.078C546.851 234.946 551.806 217.883 551.88 197.209L551.93 179.199C551.93 177.995 551.562 176.695 550.963 175.469L531.666 186.69Z" fill="#383C43"/>
<path d="M505.25 270.441C505.097 270.441 504.947 270.361 504.865 270.219C504.742 270.006 504.813 269.734 505.026 269.61L505.078 269.58C510.621 266.348 515.082 262.469 518.337 258.048C527.302 245.777 532.067 228.615 532.116 208.418L532.166 190.432C532.175 189.345 531.864 188.119 531.266 186.885C531.163 186.675 531.242 186.422 531.442 186.305L550.739 175.084C550.848 175.021 550.978 175.007 551.092 175.043C551.211 175.079 551.31 175.163 551.364 175.273C552.026 176.629 552.376 177.987 552.376 179.2L552.327 197.21C552.254 217.591 547.419 234.925 538.349 247.341C535.064 251.86 530.494 255.832 524.768 259.147L505.527 270.35C505.51 270.36 505.492 270.37 505.474 270.381C505.403 270.422 505.327 270.441 505.25 270.441ZM532.241 186.872C532.787 188.104 533.067 189.329 533.058 190.437L533.008 208.419C532.957 228.806 528.133 246.15 519.056 258.575C517.432 260.779 515.52 262.849 513.331 264.774L524.321 258.376C529.941 255.123 534.416 251.234 537.628 246.816C546.588 234.552 551.362 217.398 551.435 197.208L551.484 179.199C551.484 178.249 551.237 177.186 550.765 176.101L532.241 186.872Z" fill="#383C43"/>
<path d="M500.082 134.013C502.403 135.354 504.289 138.457 504.615 141.3C505.423 148.356 507.918 155.746 511.624 162.61C515.932 170.59 521.834 177.807 528.538 182.814C530.858 184.539 532.632 187.724 532.625 190.428L532.574 208.429C532.515 229.116 527.547 246.18 518.692 258.308C510.333 269.734 494.28 276.752 479.262 278.291C478.418 278.38 477.464 278.117 476.51 277.566C475.556 277.015 474.603 276.176 473.763 275.114C458.802 256.257 442.842 230.746 434.575 209.716C425.802 187.405 420.962 164.676 421.021 143.988L421.072 125.988C421.08 123.283 422.866 122.155 425.188 123.112C431.883 125.845 437.823 125.468 442.162 122.483C445.879 119.908 448.423 115.428 449.268 109.327C449.61 106.87 451.491 105.943 453.828 107.293L500.082 134.013Z" fill="white"/>
<path d="M478.936 278.753C478.11 278.753 477.201 278.479 476.286 277.951C475.263 277.358 474.268 276.472 473.413 275.389C456.906 254.584 441.866 229.481 434.159 209.878C425.215 187.128 420.517 164.343 420.575 143.986L420.625 125.986C420.63 124.529 421.129 123.396 422.029 122.795C422.908 122.21 424.089 122.176 425.357 122.699C431.71 125.292 437.59 125.085 441.909 122.115C445.626 119.539 448.019 115.095 448.825 109.265C449.01 107.939 449.624 106.959 450.556 106.503C451.535 106.026 452.775 106.17 454.05 106.906L500.305 133.627C502.71 135.015 504.71 138.221 505.058 141.247C505.843 148.109 508.25 155.422 512.015 162.397C516.402 170.521 522.366 177.645 528.804 182.456C531.284 184.299 533.078 187.652 533.071 190.428L533.019 208.429C532.963 228.794 528.134 246.132 519.053 258.57C511.202 269.3 495.974 277.026 479.308 278.733C479.186 278.747 479.063 278.753 478.936 278.753ZM423.649 123.223C423.22 123.223 422.839 123.327 422.524 123.537C421.878 123.968 421.521 124.839 421.517 125.989L421.467 143.988C421.409 164.234 426.085 186.906 434.988 209.552C442.665 229.079 457.657 254.094 474.113 274.836C474.899 275.832 475.804 276.642 476.733 277.179C477.623 277.692 478.476 277.924 479.216 277.847C495.639 276.165 510.628 268.576 518.332 258.044C527.302 245.76 532.072 228.602 532.127 208.427L532.18 190.426C532.187 187.91 530.542 184.859 528.271 183.171C521.73 178.284 515.678 171.057 511.232 162.82C507.412 155.746 504.971 148.322 504.173 141.349C503.854 138.581 502.04 135.658 499.859 134.398L453.604 107.678C452.592 107.093 451.645 106.961 450.948 107.304C450.292 107.626 449.851 108.365 449.71 109.387C448.867 115.471 446.345 120.127 442.416 122.849C437.841 125.997 431.664 126.235 425.018 123.524C424.53 123.323 424.067 123.223 423.649 123.223Z" fill="#383C43"/>
<path d="M430.745 144.017C430.68 163.109 435.135 184.599 443.622 206.154C450.782 224.37 465.311 248.664 480.764 268.307C492.832 266.541 503.879 261.014 509.888 253.786L509.904 253.77C510.228 253.381 510.552 252.976 510.844 252.571C518.651 241.874 522.798 226.607 522.863 208.407L522.911 190.871C522.846 190.758 522.765 190.644 522.717 190.612C515.007 184.842 508.22 176.771 503.069 167.225C498.695 159.122 495.893 150.548 494.986 142.526C494.954 142.445 494.889 142.315 494.824 142.202L457.552 120.663L456.305 119.95C455.366 122.025 454.216 123.921 452.855 125.623C452.644 125.914 452.401 126.206 452.126 126.482C451.948 126.708 451.737 126.951 451.527 127.162C450.782 127.972 449.972 128.718 449.113 129.415C448.643 129.804 448.157 130.161 447.672 130.501C447.266 130.776 446.846 131.052 446.408 131.295C446.003 131.554 445.582 131.781 445.161 131.992C444.966 132.105 444.756 132.203 444.529 132.3C444.448 132.348 444.351 132.397 444.254 132.429C443.979 132.559 443.703 132.689 443.412 132.802C443.233 132.883 443.055 132.964 442.861 133.029C442.44 133.191 441.986 133.353 441.549 133.483C441.128 133.629 440.707 133.759 440.27 133.856C440.14 133.904 439.994 133.936 439.848 133.969C439.395 134.083 438.925 134.18 438.471 134.261C438.39 134.277 438.293 134.293 438.196 134.309C437.678 134.406 437.159 134.471 436.625 134.536C436.544 134.536 436.463 134.552 436.382 134.552C435.847 134.617 435.297 134.649 434.762 134.666H434.697C434.406 134.682 434.098 134.682 433.807 134.682C432.802 134.682 431.782 134.634 430.761 134.52L430.745 144.017Z" fill="#383C43"/>
<path d="M434.68 140.079C434.616 159.171 439.07 180.661 447.558 202.216C454.717 220.432 469.247 244.727 484.7 264.369C494.467 262.943 503.586 259.054 509.888 253.786L509.904 253.77C510.228 253.381 510.552 252.976 510.843 252.571C518.651 241.874 522.798 226.607 522.862 208.407L522.911 190.871C522.846 190.758 522.765 190.644 522.716 190.612C515.006 184.842 508.219 176.771 503.068 167.225C498.695 159.122 495.893 150.548 494.985 142.526C494.953 142.445 494.888 142.315 494.824 142.202L457.552 120.663L456.305 119.95C455.365 122.025 454.215 123.921 452.854 125.623C452.628 125.914 452.385 126.206 452.126 126.482C451.947 126.708 451.737 126.951 451.526 127.162C450.781 127.972 449.971 128.718 449.113 129.415C448.643 129.804 448.173 130.161 447.671 130.501C447.266 130.776 446.845 131.052 446.408 131.295C446.003 131.554 445.582 131.781 445.16 131.992C444.966 132.105 444.739 132.203 444.529 132.3C444.448 132.348 444.35 132.397 444.253 132.429C443.978 132.559 443.703 132.689 443.411 132.802C443.233 132.883 443.055 132.964 442.86 133.029C442.439 133.191 442.002 133.353 441.549 133.483C441.127 133.629 440.706 133.742 440.269 133.856C440.139 133.904 439.993 133.936 439.848 133.969C439.394 134.083 438.941 134.18 438.471 134.261C438.39 134.277 438.293 134.293 438.196 134.309C437.677 134.39 437.159 134.471 436.625 134.536C436.544 134.536 436.463 134.552 436.381 134.552C435.847 134.601 435.313 134.649 434.761 134.666H434.697L434.68 140.079Z" fill="#DA0000"/>
<path d="M456.571 179.226C456.469 193.361 466.436 210.653 478.742 217.771C490.947 224.788 501.015 219.095 501.015 204.957C501.117 190.819 491.151 173.632 478.945 166.615C466.64 159.496 456.571 165.192 456.571 179.226Z" fill="white"/>
<path d="M478.789 183.492C477.832 182.941 476.964 182.885 476.336 183.242C475.706 183.601 475.317 184.373 475.314 185.47L475.303 189.446L476.295 190.018L476.306 186.042C476.31 184.478 477.425 183.846 478.785 184.631C480.148 185.417 481.253 187.328 481.249 188.893L481.237 192.868L482.229 193.44L482.241 189.465C482.247 187.267 480.704 184.597 478.789 183.492Z" fill="#383C43"/>
<path d="M474.348 188.336C474.073 188.178 473.851 188.307 473.85 188.622L473.823 199.163C473.822 199.478 474.043 199.862 474.318 200.021L483.208 205.148C483.481 205.306 483.705 205.178 483.706 204.863L483.733 194.322C483.734 194.007 483.511 193.621 483.238 193.464L474.348 188.336Z" fill="#DA0000"/>
<path d="M478.69 194.377C479.27 194.712 479.741 195.527 479.739 196.196C479.738 196.665 479.503 196.939 479.159 196.939L479.653 199.654C479.692 199.873 479.562 199.988 479.385 199.885L477.964 199.066C477.787 198.963 477.658 198.7 477.698 198.526L478.206 196.389C477.863 195.993 477.631 195.449 477.632 194.98C477.633 194.311 478.108 194.041 478.69 194.377Z" fill="#383C43"/>
<path d="M480.24 524.121C477.015 525.982 476.997 529.002 480.2 530.864C483.404 532.725 488.617 532.724 491.841 530.863C495.066 529.001 495.081 525.983 491.878 524.121C488.675 522.259 483.464 522.259 480.24 524.121Z" fill="white"/>
<path d="M486.013 532.698C483.824 532.698 481.638 532.216 479.977 531.251C478.291 530.27 477.363 528.941 477.364 527.505C477.366 526.061 478.308 524.722 480.017 523.736C483.357 521.805 488.781 521.806 492.103 523.736C493.791 524.718 494.718 526.047 494.716 527.483C494.714 528.925 493.772 530.264 492.065 531.25C490.393 532.215 488.202 532.698 486.013 532.698ZM486.065 523.167C484.04 523.167 482.011 523.613 480.463 524.507C479.041 525.328 478.258 526.393 478.256 527.506C478.254 528.609 479.024 529.666 480.426 530.479C483.498 532.266 488.523 532.265 491.619 530.478C493.04 529.657 493.822 528.593 493.824 527.482C493.826 526.378 493.056 525.322 491.654 524.508C490.116 523.614 488.093 523.167 486.065 523.167Z" fill="#DBDEE4"/>
<path d="M486.022 529.619C487.279 529.619 488.495 529.333 489.359 528.834C490.053 528.434 490.452 527.942 490.452 527.484C490.453 527.032 490.063 526.546 489.381 526.15C488.524 525.652 487.313 525.366 486.057 525.366C484.801 525.366 483.585 525.652 482.722 526.151C482.027 526.552 481.629 527.044 481.628 527.502C481.627 527.955 482.018 528.441 482.698 528.836C483.555 529.334 484.766 529.619 486.022 529.619Z" fill="#DA0000"/>
<path d="M457.639 545.776C458.988 545.776 460.295 545.469 461.223 544.933C461.968 544.502 462.396 543.974 462.397 543.483C462.397 542.997 461.978 542.475 461.246 542.049C460.326 541.515 459.025 541.208 457.676 541.208C456.328 541.208 455.022 541.515 454.095 542.051C453.349 542.481 452.921 543.01 452.92 543.502C452.919 543.988 453.338 544.51 454.069 544.935C454.989 545.469 456.29 545.776 457.639 545.776Z" fill="#383C43"/>
<path d="M339.464 233.568C336.751 235.134 336.737 237.677 339.432 239.243L373.91 259.282C376.605 260.848 380.994 260.848 383.707 259.282L418.41 239.244C421.123 237.677 421.137 235.135 418.442 233.568L383.964 213.53C381.269 211.964 376.88 211.964 374.167 213.53L339.464 233.568Z" fill="white"/>
<path d="M378.802 260.896C376.948 260.896 375.095 260.487 373.686 259.668L339.207 239.63C337.765 238.792 336.973 237.65 336.975 236.415C336.976 235.174 337.781 234.026 339.24 233.183L373.945 213.146C376.777 211.509 381.371 211.509 384.189 213.146L418.667 233.184C420.109 234.022 420.902 235.164 420.9 236.398C420.898 237.64 420.092 238.787 418.633 239.63L383.93 259.668C382.514 260.487 380.657 260.896 378.802 260.896ZM339.686 233.954C338.514 234.632 337.868 235.506 337.866 236.417C337.865 237.32 338.5 238.187 339.657 238.859L374.135 258.897C376.702 260.391 380.896 260.391 383.484 258.897L418.187 238.859C419.361 238.181 420.007 237.307 420.008 236.396C420.01 235.494 419.374 234.626 418.218 233.955L383.74 213.917C381.173 212.423 376.975 212.425 374.391 213.917L339.686 233.954Z" fill="#DBDEE4"/>
<path d="M392.836 228.323C400.561 232.784 400.602 240.013 392.914 244.481C385.239 248.942 372.76 248.942 365.034 244.481C357.322 240.028 357.281 232.799 364.956 228.338C372.644 223.87 385.123 223.87 392.836 228.323Z" fill="white"/>
<path d="M378.993 248.26C373.864 248.26 368.728 247.13 364.811 244.868C360.926 242.625 358.784 239.613 358.778 236.389C358.775 233.183 360.889 230.187 364.731 227.953C372.523 223.426 385.231 223.417 393.058 227.938C396.951 230.184 399.096 233.198 399.1 236.424C399.105 239.632 396.987 242.63 393.138 244.868C389.246 247.129 384.122 248.26 378.993 248.26ZM378.901 225.431C373.927 225.431 368.958 226.529 365.181 228.725C361.623 230.791 359.667 233.513 359.67 236.387C359.675 239.281 361.659 242.017 365.257 244.096C372.847 248.476 385.151 248.478 392.689 244.096C396.252 242.026 398.213 239.301 398.208 236.425C398.205 233.531 396.217 230.791 392.612 228.709C388.828 226.524 383.863 225.431 378.901 225.431Z" fill="#383C43"/>
<path d="M366.164 195.622L366.314 235.075C366.319 236.947 367.551 238.816 370.012 240.247C374.955 243.119 382.992 243.119 387.968 240.247C390.466 238.804 391.715 236.909 391.709 235.016L391.559 195.562C391.565 197.455 390.316 199.35 387.818 200.793C382.842 203.666 374.805 203.666 369.862 200.793C367.401 199.363 366.169 197.494 366.164 195.622Z" fill="white"/>
<path d="M369.862 200.793C372.317 202.22 375.537 202.936 378.765 202.945V242.39C375.588 242.359 372.429 241.651 370.012 240.247C367.551 238.816 366.319 236.947 366.314 235.076L366.164 195.622C366.17 197.493 367.401 199.363 369.862 200.793Z" fill="#DBDEE4"/>
<path d="M378.978 242.836C375.644 242.836 372.316 242.102 369.787 240.632C367.267 239.167 365.874 237.195 365.869 235.077L365.719 195.63C365.719 195.63 365.719 195.629 365.719 195.628V195.624C365.719 195.624 365.719 195.624 365.719 195.623C365.719 195.377 365.917 195.177 366.163 195.176H366.165C366.41 195.176 366.609 195.375 366.61 195.621V195.629C366.619 197.413 367.854 199.111 370.087 200.408C374.897 203.205 382.75 203.203 387.595 200.408C389.867 199.094 391.118 197.374 391.113 195.565V195.565C391.113 195.565 391.113 195.565 391.113 195.564C391.113 195.318 391.311 195.118 391.557 195.117H391.559C391.804 195.117 392.003 195.316 392.004 195.561L392.154 235.015C392.159 237.158 390.752 239.154 388.19 240.633C385.646 242.102 382.309 242.836 378.978 242.836ZM366.621 198.478L366.76 235.074C366.765 236.862 368 238.562 370.236 239.861C375.047 242.658 382.9 242.656 387.745 239.861C390.017 238.548 391.268 236.828 391.263 235.017L391.123 198.415C390.453 199.446 389.413 200.387 388.041 201.179C382.95 204.12 374.693 204.118 369.637 201.179C368.303 200.403 367.285 199.485 366.621 198.478Z" fill="#383C43"/>
<path d="M369.911 190.386C364.935 193.259 364.909 197.915 369.861 200.793C374.804 203.666 382.841 203.666 387.817 200.793C392.784 197.925 392.81 193.269 387.867 190.396C382.915 187.518 374.878 187.518 369.911 190.386Z" fill="white"/>
<path d="M378.827 203.383C375.493 203.383 372.165 202.649 369.636 201.179C367.106 199.708 365.714 197.728 365.718 195.602C365.721 193.466 367.132 191.477 369.689 190.001C374.774 187.063 383.027 187.068 388.092 190.01C390.617 191.478 392.007 193.457 392.003 195.581C392.002 197.717 390.593 199.705 388.04 201.179C385.495 202.649 382.158 203.383 378.827 203.383ZM378.886 188.68C375.72 188.68 372.55 189.377 370.134 190.772C367.863 192.084 366.611 193.799 366.609 195.604C366.606 197.397 367.841 199.104 370.085 200.408C374.895 203.205 382.748 203.203 387.593 200.408C389.859 199.099 391.11 197.384 391.111 195.58C391.115 193.787 389.882 192.083 387.642 190.782C385.232 189.381 382.059 188.68 378.886 188.68Z" fill="#383C43"/>
<path d="M370.442 168.32L370.542 194.452C370.546 195.697 371.365 196.94 373.001 197.891C376.288 199.801 381.634 199.802 384.942 197.891C386.604 196.931 387.434 195.671 387.43 194.412L387.331 168.28C387.334 169.539 386.504 170.799 384.843 171.759C381.534 173.669 376.189 173.669 372.901 171.759C371.265 170.808 370.446 169.565 370.442 168.32Z" fill="white"/>
<path d="M372.901 171.759C374.52 172.699 376.637 173.172 378.765 173.186V199.312C376.671 199.284 374.594 198.816 373.001 197.89C371.365 196.939 370.546 195.696 370.542 194.452L370.442 168.319C370.446 169.564 371.265 170.807 372.901 171.759Z" fill="#DBDEE4"/>
<path d="M378.969 199.761C376.725 199.761 374.484 199.266 372.781 198.277C371.057 197.274 370.104 195.916 370.1 194.453L370.001 168.321C370.001 168.321 370.001 168.321 370.001 168.32C370.001 168.075 370.199 167.875 370.445 167.874H370.447C370.692 167.874 370.891 168.072 370.893 168.318V168.324C370.898 169.455 371.694 170.539 373.131 171.374C376.286 173.209 381.445 173.209 384.625 171.374C386.088 170.528 386.893 169.431 386.889 168.283V168.282C386.889 168.282 386.889 168.282 386.889 168.282C386.889 168.036 387.088 167.836 387.333 167.835H387.335C387.58 167.835 387.779 168.033 387.781 168.279L387.882 194.411C387.885 195.892 386.922 197.265 385.17 198.277C383.457 199.266 381.212 199.761 378.969 199.761ZM370.902 170.677L370.992 194.45C370.996 195.583 371.79 196.668 373.23 197.505C376.386 199.341 381.544 199.341 384.724 197.505C386.189 196.659 386.994 195.561 386.99 194.413L386.898 170.636C386.449 171.194 385.836 171.704 385.071 172.145C381.647 174.124 376.088 174.124 372.681 172.145C371.941 171.714 371.344 171.219 370.902 170.677Z" fill="#383C43"/>
<path d="M372.939 164.839C369.63 166.749 369.612 169.846 372.905 171.76C376.193 173.67 381.538 173.67 384.847 171.76C388.15 169.852 388.167 166.756 384.88 164.845C381.588 162.932 376.242 162.931 372.939 164.839Z" fill="#DA0000"/>
<path d="M378.869 173.629C376.626 173.629 374.385 173.134 372.681 172.145C370.95 171.138 369.999 169.776 370.001 168.307C370.003 166.831 370.967 165.462 372.716 164.452C376.142 162.475 381.698 162.479 385.106 164.459C386.833 165.463 387.783 166.825 387.781 168.294C387.779 169.769 386.816 171.137 385.071 172.145C383.359 173.134 381.112 173.629 378.869 173.629ZM373.162 165.224C371.701 166.069 370.895 167.163 370.893 168.308C370.891 169.446 371.685 170.534 373.131 171.373C376.286 173.209 381.445 173.209 384.625 171.373C386.083 170.53 386.887 169.436 386.889 168.292C386.891 167.155 386.098 166.068 384.656 165.23C381.496 163.392 376.337 163.391 373.162 165.224Z" fill="#383C43"/>
<path d="M386.836 148.148V168.227C386.795 169.374 386.016 170.502 384.52 171.383C381.385 173.186 376.345 173.186 373.23 171.383C371.735 170.502 370.977 169.374 370.936 168.227V148.148H386.836Z" fill="url(#paint0_linear_399_2148)"/>
<path d="M386.836 148.148V168.227C386.795 169.374 386.016 170.502 384.52 171.383C381.385 173.186 376.345 173.186 373.23 171.383C371.735 170.502 370.977 169.374 370.936 168.227V148.148H386.836Z" fill="url(#paint1_linear_399_2148)"/>
<defs>
<filter id="filter0_d_399_2148" x="0" y="0" width="648" height="656" filterUnits="userSpaceOnUse" color-interpolation-filters="sRGB">
<feFlood flood-opacity="0" result="BackgroundImageFix"/>
<feColorMatrix in="SourceAlpha" type="matrix" values="0 0 0 0 0 0 0 0 0 0 0 0 0 0 0 0 0 0 127 0" result="hardAlpha"/>
<feOffset dy="4"/>
<feGaussianBlur stdDeviation="2"/>
<feComposite in2="hardAlpha" operator="out"/>
<feColorMatrix type="matrix" values="0 0 0 0 0 0 0 0 0 0 0 0 0 0 0 0 0 0 0.25 0"/>
<feBlend mode="normal" in2="BackgroundImageFix" result="effect1_dropShadow_399_2148"/>
<feBlend mode="normal" in="SourceGraphic" in2="effect1_dropShadow_399_2148" result="shape"/>
</filter>
<linearGradient id="paint0_linear_399_2148" x1="378.885" y1="173.665" x2="378.885" y2="149.279" gradientUnits="userSpaceOnUse">
<stop stop-color="#4CB1E5"/>
<stop offset="1" stop-color="white"/>
</linearGradient>
<linearGradient id="paint1_linear_399_2148" x1="378.886" y1="173.665" x2="378.886" y2="149.279" gradientUnits="userSpaceOnUse">
<stop stop-color="#E5684C"/>
<stop offset="1" stop-color="white"/>
</linearGradient>
</defs>
</svg>
