<svg width="648" height="656" viewBox="0 0 648 656" fill="none" xmlns="http://www.w3.org/2000/svg">
<g filter="url(#filter0_d_399_1260)">
<path d="M75.9101 0L644 0.336294V648H4V576.937V71.8492C28.719 47.1121 52.5226 24.3319 75.9101 0Z" fill="white"/>
</g>
<path d="M339.22 395.23C339.066 395.23 338.917 395.15 338.835 395.008C338.712 394.795 338.783 394.522 338.995 394.398L435.367 338.366C438.118 336.767 442.607 336.766 445.375 338.365L479.243 357.936C479.455 358.059 479.528 358.332 479.406 358.545C479.279 358.759 479.004 358.829 478.797 358.708L444.93 339.137C442.405 337.68 438.316 337.681 435.816 339.137L339.444 395.169C339.373 395.21 339.296 395.23 339.22 395.23Z" fill="#DBDEE4"/>
<path d="M327.05 355.359C326.898 355.359 326.752 355.282 326.669 355.144C326.542 354.933 326.609 354.659 326.82 354.532L457.526 275.637C459.003 274.777 459.918 273.186 459.918 271.482V183.535C459.918 183.288 460.118 183.089 460.363 183.089C460.609 183.089 460.809 183.288 460.809 183.535V271.482C460.809 273.503 459.725 275.389 457.98 276.404L327.279 355.295C327.208 355.339 327.128 355.359 327.05 355.359Z" fill="#DBDEE4"/>
<path d="M167.053 509.141C165.595 509.141 164.137 508.765 162.835 508.013L99.991 471.696C99.7788 471.573 99.7056 471.3 99.8275 471.087C99.9509 470.872 100.226 470.802 100.436 470.924L163.28 507.241C165.617 508.591 168.516 508.585 170.844 507.23L233.26 470.924C233.472 470.801 233.745 470.871 233.869 471.085C233.992 471.298 233.921 471.571 233.708 471.694L171.292 508.001C169.986 508.761 168.519 509.141 167.053 509.141Z" fill="#DBDEE4"/>
<path d="M111.651 471.22C114.872 473.081 114.891 476.101 111.69 477.963C108.49 479.824 103.281 479.824 100.06 477.962C96.8389 476.101 96.8234 473.082 100.024 471.221C103.224 469.359 108.43 469.358 111.651 471.22Z" fill="white"/>
<path d="M105.884 479.796C103.697 479.796 101.508 479.314 99.8375 478.348C98.1324 477.362 97.191 476.024 97.1895 474.581C97.1876 473.146 98.1133 471.816 99.7994 470.835C103.117 468.905 108.536 468.903 111.875 470.834C113.581 471.82 114.523 473.159 114.524 474.604C114.526 476.038 113.599 477.368 111.914 478.348C110.254 479.313 108.071 479.796 105.884 479.796ZM105.83 470.265C103.806 470.265 101.784 470.712 100.248 471.606C98.8471 472.421 98.0783 473.476 98.0799 474.58C98.0817 475.692 98.8629 476.756 100.283 477.576C103.376 479.366 108.396 479.365 111.465 477.578C112.866 476.764 113.634 475.709 113.633 474.605C113.631 473.492 112.848 472.428 111.428 471.607C109.882 470.712 107.855 470.265 105.83 470.265Z" fill="#DBDEE4"/>
<path d="M105.874 476.718C104.618 476.718 103.403 476.432 102.539 475.933C101.846 475.532 101.448 475.04 101.447 474.583C101.447 474.131 101.837 473.644 102.518 473.248C103.374 472.75 104.584 472.465 105.838 472.465C107.093 472.465 108.307 472.751 109.17 473.249C109.864 473.65 110.262 474.143 110.263 474.601C110.263 475.053 109.874 475.539 109.193 475.935C108.338 476.432 107.128 476.718 105.874 476.718Z" fill="#DA0000"/>
<path d="M134.231 492.873C132.883 492.873 131.577 492.566 130.65 492.03C129.906 491.6 129.478 491.071 129.478 490.58C129.477 490.095 129.896 489.572 130.627 489.147C131.546 488.612 132.846 488.306 134.193 488.306C135.541 488.306 136.845 488.613 137.771 489.148C138.517 489.579 138.944 490.108 138.945 490.6C138.946 491.085 138.527 491.607 137.797 492.032C136.878 492.566 135.578 492.873 134.231 492.873Z" fill="#373B42"/>
<path d="M250.254 547.368C250.101 547.368 249.951 547.288 249.87 547.146C249.746 546.933 249.817 546.66 250.03 546.536L319.585 506.079C320.253 505.69 320.651 504.997 320.65 504.225C320.65 503.453 320.249 502.761 319.581 502.375L249.552 461.906C249.339 461.783 249.266 461.511 249.388 461.297C249.511 461.083 249.788 461.012 249.997 461.134L320.027 501.602C320.973 502.15 321.539 503.13 321.541 504.224C321.542 505.318 320.979 506.299 320.034 506.849L250.479 547.308C250.407 547.348 250.331 547.368 250.254 547.368Z" fill="#DBDEE4"/>
<path d="M255.562 549.84C258.783 547.978 258.801 544.958 255.601 543.097C252.401 541.235 247.192 541.236 243.971 543.098C240.75 544.959 240.734 547.977 243.935 549.839C247.135 551.701 252.341 551.701 255.562 549.84Z" fill="white"/>
<path d="M249.74 551.672C247.555 551.672 245.369 551.19 243.71 550.225C242.024 549.243 241.098 547.914 241.1 546.479C241.101 545.036 242.043 543.697 243.748 542.712C247.089 540.781 252.507 540.782 255.826 542.711C257.511 543.692 258.438 545.021 258.435 546.456C258.433 547.901 257.492 549.239 255.785 550.225C254.116 551.189 251.927 551.672 249.74 551.672ZM249.796 542.142C247.769 542.142 245.742 542.589 244.193 543.483C242.773 544.304 241.992 545.368 241.991 546.479C241.989 547.582 242.758 548.639 244.159 549.453C247.231 551.241 252.246 551.239 255.339 549.453C256.759 548.632 257.542 547.567 257.544 546.455C257.546 545.352 256.777 544.296 255.378 543.482C253.843 542.589 251.819 542.142 249.796 542.142Z" fill="#DBDEE4"/>
<path d="M249.786 544.342C248.53 544.342 247.315 544.628 246.451 545.127C245.758 545.528 245.36 546.02 245.359 546.477C245.359 546.929 245.749 547.415 246.43 547.811C247.286 548.309 248.496 548.595 249.75 548.595C251.005 548.595 252.219 548.309 253.082 547.81C253.776 547.409 254.174 546.917 254.175 546.458C254.176 546.006 253.786 545.52 253.105 545.125C252.25 544.627 251.04 544.342 249.786 544.342Z" fill="#DA0000"/>
<path d="M278.145 528.186C276.796 528.186 275.491 528.493 274.563 529.029C273.819 529.459 273.391 529.987 273.391 530.479C273.39 530.964 273.809 531.486 274.54 531.911C275.459 532.446 276.759 532.753 278.106 532.753C279.454 532.753 280.758 532.446 281.685 531.91C282.43 531.48 282.858 530.951 282.858 530.459C282.859 529.974 282.44 529.451 281.71 529.027C280.791 528.492 279.491 528.186 278.145 528.186Z" fill="#373B42"/>
<path d="M465.186 540.228C463.831 540.228 462.477 539.877 461.27 539.174L294.683 442.18C294.471 442.056 294.4 441.783 294.524 441.57C294.645 441.357 294.918 441.286 295.132 441.409L461.719 538.402C463.854 539.647 466.512 539.648 468.651 538.404L517.149 510.196C517.363 510.072 517.634 510.143 517.758 510.358C517.881 510.57 517.81 510.844 517.598 510.967L469.099 539.176C467.892 539.877 466.538 540.228 465.186 540.228Z" fill="#DBDEE4"/>
<path d="M346.894 469.03C345.545 469.03 344.24 469.338 343.312 469.873C342.568 470.304 342.14 470.832 342.14 471.323C342.139 471.809 342.558 472.331 343.289 472.756C344.209 473.291 345.508 473.598 346.856 473.598C348.203 473.598 349.507 473.29 350.434 472.755C351.179 472.324 351.607 471.795 351.607 471.304C351.608 470.818 351.189 470.296 350.459 469.871C349.54 469.337 348.24 469.03 346.894 469.03Z" fill="#373B42"/>
<path d="M505.424 510.161C502.203 512.023 502.184 515.043 505.385 516.904C508.585 518.766 513.793 518.765 517.015 516.903C520.236 515.042 520.251 512.024 517.051 510.162C513.851 508.301 508.645 508.3 505.424 510.161Z" fill="white"/>
<path d="M511.193 518.738C509.006 518.738 506.823 518.255 505.163 517.29C503.478 516.31 502.551 514.98 502.553 513.545C502.555 512.1 503.496 510.762 505.203 509.776C508.542 507.845 513.96 507.846 517.278 509.776C518.964 510.758 519.889 512.087 519.888 513.522C519.886 514.965 518.945 516.304 517.24 517.289C515.569 518.255 513.38 518.738 511.193 518.738ZM505.648 510.547C504.228 511.368 503.445 512.433 503.443 513.546C503.442 514.649 504.211 515.705 505.611 516.518C508.681 518.305 513.7 518.306 516.794 516.518C518.214 515.697 518.995 514.633 518.996 513.521C518.998 512.418 518.229 511.362 516.828 510.548C513.756 508.759 508.742 508.759 505.648 510.547Z" fill="#DBDEE4"/>
<path d="M511.202 515.659C512.458 515.659 513.673 515.373 514.536 514.874C515.229 514.473 515.627 513.981 515.628 513.524C515.629 513.072 515.239 512.586 514.558 512.19C513.702 511.692 512.491 511.406 511.237 511.406C509.982 511.406 508.768 511.692 507.905 512.191C507.212 512.592 506.813 513.084 506.813 513.543C506.812 513.995 507.202 514.481 507.882 514.877C508.737 515.374 509.948 515.659 511.202 515.659Z" fill="#DA0000"/>
<path d="M482.845 531.814C484.193 531.814 485.499 531.507 486.426 530.971C487.17 530.541 487.598 530.013 487.599 529.521C487.599 529.036 487.18 528.514 486.449 528.089C485.53 527.554 484.23 527.247 482.883 527.247C481.535 527.247 480.231 527.554 479.304 528.09C478.559 528.52 478.132 529.049 478.131 529.541C478.13 530.027 478.549 530.549 479.279 530.973C480.198 531.508 481.498 531.814 482.845 531.814Z" fill="#373B42"/>
<path d="M369.384 154.645C362.331 150.519 352.53 151.116 341.768 157.304C335.998 160.65 330.502 165.28 325.602 170.734L302.953 157.607C307.9 152.107 313.395 147.476 319.165 144.176C329.928 137.942 339.682 137.346 346.735 141.472L369.384 154.645Z" fill="#373B42"/>
<path d="M325.603 171.18C325.526 171.18 325.449 171.16 325.38 171.12L302.73 157.992C302.613 157.925 302.533 157.809 302.512 157.676C302.491 157.544 302.531 157.408 302.622 157.309C307.764 151.591 313.255 147.042 318.944 143.788C329.518 137.665 339.468 136.704 346.959 141.087L369.524 154.21C369.551 154.226 369.581 154.243 369.609 154.26C369.821 154.384 369.892 154.657 369.769 154.869C369.645 155.082 369.372 155.153 369.16 155.03V155.03C369.158 155.029 369.158 155.029 369.158 155.028L369.082 154.984C361.882 150.82 352.263 151.781 341.991 157.69C336.35 160.96 330.948 165.45 325.934 171.032C325.846 171.129 325.726 171.18 325.603 171.18ZM303.652 157.497L325.514 170.167C330.523 164.639 335.915 160.183 341.546 156.918C349.72 152.218 357.513 150.578 364.097 152.085L346.51 141.857C339.306 137.642 329.672 138.604 319.388 144.561C313.916 147.692 308.625 152.042 303.652 157.497Z" fill="#373B42"/>
<path d="M321.434 150.565C318.091 148.593 313.466 148.869 308.383 151.848C304.536 154.048 300.918 157.533 297.987 161.52L275.384 148.393C278.315 144.359 281.934 140.875 285.734 138.675C290.863 135.742 295.489 135.466 298.832 137.391L321.434 150.565Z" fill="#373B42"/>
<path d="M297.987 161.965C297.91 161.965 297.833 161.946 297.764 161.905L275.161 148.778C275.051 148.714 274.973 148.608 274.948 148.484C274.922 148.361 274.948 148.232 275.023 148.13C278.073 143.934 281.797 140.438 285.511 138.288C290.615 135.369 295.422 134.914 299.055 137.004L321.577 150.132C321.603 150.147 321.63 150.163 321.657 150.179L321.658 150.179C321.658 150.18 321.66 150.18 321.66 150.181C321.872 150.306 321.942 150.578 321.819 150.79C321.691 151.002 321.424 151.073 321.21 150.95L321.208 150.949C321.208 150.948 321.206 150.948 321.206 150.948L321.131 150.904C317.794 148.981 313.354 149.451 308.607 152.232C304.999 154.296 301.355 157.688 298.346 161.784C298.258 161.902 298.124 161.965 297.987 161.965ZM276.036 148.257L297.867 160.934C300.939 156.83 304.492 153.558 308.162 151.46C311.548 149.475 314.805 148.613 317.695 148.901L298.608 137.776C295.264 135.851 290.77 136.308 285.955 139.061C282.467 141.081 278.957 144.336 276.036 148.257Z" fill="#373B42"/>
<path d="M130.38 355.687L107.763 342.531C100.795 338.478 96.4802 329.856 96.4455 317.598C96.3757 292.947 113.687 262.901 135.178 250.482C138.043 248.825 140.881 247.557 143.572 246.675L166.19 259.831C163.498 260.713 160.661 261.982 157.795 263.638C136.304 276.057 118.993 306.103 119.063 330.754C119.097 343.012 123.412 351.634 130.38 355.687Z" fill="#373B42"/>
<path d="M130.379 356.133C130.303 356.133 130.226 356.113 130.155 356.072L107.538 342.916C100.133 338.608 96.0349 329.616 96.0002 317.599C95.9306 292.83 113.404 262.549 134.955 250.096C137.781 248.462 140.634 247.168 143.434 246.251C143.556 246.211 143.686 246.225 143.797 246.289L166.415 259.446C166.566 259.533 166.651 259.703 166.634 259.877C166.615 260.052 166.496 260.2 166.329 260.254C163.587 261.153 160.791 262.421 158.018 264.024C136.714 276.334 119.439 306.269 119.508 330.753C119.541 342.43 123.473 351.143 130.583 355.29L130.604 355.302C130.816 355.425 130.887 355.698 130.764 355.911C130.682 356.054 130.532 356.133 130.379 356.133ZM143.523 247.161C140.841 248.056 138.11 249.302 135.401 250.868C114.097 263.178 96.8215 293.113 96.8912 317.597C96.9243 329.284 100.865 338.003 107.987 342.146L125.584 352.383C121.081 347.474 118.644 340.013 118.617 330.755C118.548 305.987 136.022 275.705 157.572 263.252C160.087 261.799 162.621 260.615 165.122 259.725L143.523 247.161Z" fill="#373B42"/>
<path d="M278.295 114.215C265.93 107.019 248.848 108.027 230.026 118.936C192.473 140.618 162.201 193.194 162.339 236.283C162.339 245.313 163.713 253.197 166.186 259.843L143.583 246.67C141.111 240.07 139.736 232.14 139.691 223.109C139.599 180.021 169.87 127.49 207.423 105.763C226.245 94.8986 243.327 93.8902 255.693 101.041L278.295 114.215Z" fill="#373B42"/>
<path d="M166.185 260.289C166.109 260.289 166.03 260.269 165.961 260.228L143.358 247.055C143.269 247.003 143.201 246.922 143.164 246.826C140.61 240 139.291 232.022 139.244 223.111C139.154 179.924 169.639 127.109 207.2 105.376C225.56 94.78 242.862 93.1061 255.916 100.655L278.509 113.823C278.512 113.825 278.516 113.827 278.519 113.829C278.731 113.953 278.803 114.226 278.679 114.438C278.556 114.652 278.283 114.722 278.07 114.6C265.305 107.171 248.321 108.848 230.249 119.321C192.912 140.879 162.646 193.347 162.784 236.282C162.784 245.001 164.068 252.876 166.603 259.688C166.669 259.864 166.617 260.063 166.472 260.184C166.39 260.254 166.288 260.289 166.185 260.289ZM143.944 246.365L165.353 258.843C163.057 252.202 161.892 244.619 161.892 236.283C161.755 193.065 192.219 140.249 229.803 118.55C245.014 109.734 259.496 107.071 271.443 110.737L255.469 101.426C242.701 94.0439 225.715 95.7192 207.645 106.148C170.329 127.739 140.044 180.206 140.135 223.107C140.18 231.846 141.463 239.671 143.944 246.365Z" fill="#373B42"/>
<path d="M230.017 118.929C267.502 97.2668 297.981 114.719 298.103 157.798C298.106 159.042 298.052 160.253 297.997 161.531C300.914 157.522 304.535 154.047 308.367 151.833C318.541 145.953 326.785 150.689 326.818 162.359C326.825 165.049 326.365 167.942 325.582 170.753C330.516 165.274 336.009 160.651 341.769 157.322C363.202 144.937 380.626 154.91 380.696 179.56C380.766 204.244 363.455 234.256 342.022 246.642C320.532 259.061 179.481 340.572 158.048 352.957C136.557 365.376 119.133 355.438 119.063 330.754C118.993 306.103 136.304 276.057 157.795 263.638C160.661 261.982 163.498 260.713 166.19 259.831C163.711 253.212 162.341 245.314 162.316 236.267C162.194 193.188 192.474 140.624 230.017 118.929Z" fill="white"/>
<path d="M140.579 358.768C136.8 358.768 133.308 357.887 130.226 356.112C122.774 351.82 118.652 342.815 118.617 330.755C118.548 305.986 136.022 275.704 157.572 263.251C160.252 261.703 162.954 260.46 165.612 259.554C163.154 252.806 161.894 244.974 161.87 236.268C161.748 193.069 192.219 140.257 229.794 118.542C248.114 107.957 265.374 106.255 278.39 113.755C291.33 121.208 298.489 136.849 298.549 157.797C298.551 158.58 298.53 159.345 298.5 160.123C301.366 156.46 304.752 153.408 308.145 151.447C313.22 148.514 318.013 148.053 321.641 150.142C325.25 152.22 327.247 156.558 327.263 162.357C327.27 164.455 326.989 166.776 326.446 169.154C331.212 164.081 336.286 159.976 341.547 156.935C352.081 150.848 362.014 149.875 369.518 154.196C376.979 158.493 381.106 167.501 381.141 179.559C381.212 204.326 363.764 234.592 342.245 247.027L158.27 353.343C152.034 356.947 146.011 358.768 140.579 358.768ZM230.017 118.929L230.24 119.315C192.91 140.887 162.639 193.351 162.761 236.266C162.787 245.053 164.08 252.929 166.608 259.674C166.649 259.788 166.644 259.914 166.592 260.023C166.54 260.133 166.444 260.216 166.33 260.254C163.587 261.153 160.791 262.421 158.018 264.024C136.715 276.334 119.439 306.269 119.509 330.752C119.542 342.481 123.505 351.213 130.67 355.34C137.896 359.501 147.537 358.515 157.825 352.571L341.8 246.255C363.072 233.962 380.322 204.044 380.251 179.561C380.218 167.835 376.249 159.101 369.075 154.969C361.858 150.814 352.241 151.785 341.993 157.708C336.372 160.957 330.961 165.446 325.913 171.051C325.774 171.204 325.546 171.244 325.368 171.143C325.187 171.043 325.097 170.832 325.152 170.633C325.958 167.741 326.381 164.881 326.372 162.36C326.356 156.893 324.519 152.828 321.198 150.915C317.852 148.989 313.375 149.453 308.59 152.219C304.954 154.32 301.321 157.72 298.358 161.793C298.243 161.952 298.031 162.016 297.851 161.952C297.665 161.887 297.543 161.708 297.552 161.512L297.564 161.242C297.615 160.061 297.662 158.946 297.658 157.8C297.601 137.184 290.599 121.815 277.947 114.528C265.216 107.194 248.274 108.895 230.24 119.315L230.017 118.929Z" fill="#373B42"/>
<g opacity="0.1">
<path d="M358.728 425.961C367.222 430.869 367.266 438.816 358.828 443.724L237.129 514.513C228.709 519.411 214.983 519.422 206.49 514.513L166.757 491.552C158.263 486.644 158.237 478.686 166.657 473.789L288.356 403C296.795 398.091 310.501 398.091 318.995 403L358.728 425.961Z" fill="black"/>
</g>
<path d="M363.342 409.387L363.251 424.852C363.251 428.041 361.157 431.207 356.97 433.667L235.249 504.435C232.882 505.824 230.106 506.804 227.148 507.396C222.801 508.307 218.045 508.352 213.653 507.578C210.354 507.009 207.236 505.961 204.619 504.435L164.888 481.483C160.61 479.023 158.493 475.765 158.493 472.554L158.561 457.157C158.561 460.346 160.7 463.58 164.956 466.017L204.687 488.992C207.281 490.495 210.354 491.543 213.653 492.112C218.068 492.887 222.801 492.841 227.147 491.953C230.151 491.361 232.95 490.381 235.317 488.992L357.038 418.201C361.203 415.764 363.296 412.575 363.342 409.387Z" fill="#BEC4CD"/>
<path d="M219.971 508.558C214.343 508.558 208.704 507.316 204.397 504.832L164.654 481.865C160.388 479.413 158.039 476.103 158.039 472.545L158.124 457.146C158.126 456.901 158.324 456.703 158.57 456.703C158.57 456.703 158.57 456.703 158.571 456.703C158.817 456.703 159.015 456.903 159.015 457.148C159.015 460.336 161.206 463.352 165.185 465.639L204.9 488.606C213.266 493.431 226.809 493.431 235.091 488.606L356.805 417.822C360.701 415.537 362.862 412.539 362.89 409.384C362.891 409.137 363.126 408.897 363.339 408.942C363.584 408.944 363.782 409.144 363.781 409.39V409.392C363.781 409.392 363.781 409.393 363.781 409.394L363.695 424.844C363.695 428.318 361.388 431.587 357.197 434.045L235.481 504.831C231.218 507.316 225.598 508.558 219.971 508.558ZM158.994 460.787L158.93 472.548C158.93 475.77 161.121 478.806 165.1 481.093L204.843 504.06C213.208 508.885 226.754 508.887 235.032 504.061L356.748 433.276C360.654 430.984 362.804 427.989 362.804 424.842L362.869 413.058C361.83 415.131 359.921 417.028 357.254 418.592L235.54 489.377C227.011 494.346 213.067 494.346 204.455 489.378L164.739 466.412C161.991 464.83 160.037 462.901 158.994 460.787Z" fill="#373B42"/>
<path d="M356.925 400.437C365.418 405.345 365.463 413.292 357.024 418.201L235.325 488.99C226.905 493.887 213.18 493.898 204.686 488.99L164.953 466.029C156.46 461.12 156.433 453.163 164.853 448.265L286.553 377.476C294.991 372.568 308.698 372.568 317.191 377.476L356.925 400.437Z" fill="white"/>
<g opacity="0.1">
<path d="M193.892 450.942C190.276 453.032 188.224 455.873 188.208 458.828L188.187 462.623C188.17 465.578 190.19 468.42 193.782 470.51L202.982 475.86C206.589 477.959 211.469 479.13 216.581 479.139L223.111 479.13C228.223 479.139 233.131 477.959 236.747 475.869L325.331 424.678C328.948 422.588 330.999 419.747 331.001 416.783L331.037 412.997C331.039 410.033 329.034 407.2 325.427 405.102L316.227 399.751C312.635 397.661 307.74 396.481 302.643 396.481L296.098 396.48C291.001 396.48 286.093 397.661 282.477 399.75L193.892 450.942Z" fill="black"/>
</g>
<path d="M220.027 493.101C214.398 493.102 208.764 491.86 204.465 489.375L164.732 466.415C160.472 463.952 158.121 460.651 158.117 457.118C158.112 453.607 160.424 450.326 164.63 447.88L286.33 377.09C294.873 372.121 308.817 372.121 317.415 377.09L357.148 400.051C361.414 402.516 363.767 405.818 363.772 409.349C363.775 412.857 361.459 416.137 357.251 418.586L235.551 489.375C231.279 491.859 225.656 493.101 220.027 493.101ZM301.853 374.242C296.387 374.242 290.927 375.448 286.779 377.861L165.079 448.651C161.159 450.931 159.003 453.937 159.008 457.117C159.012 460.318 161.204 463.346 165.178 465.643L204.911 488.603C213.262 493.43 226.806 493.43 235.102 488.604L356.802 417.815C360.727 415.533 362.884 412.526 362.881 409.35C362.876 406.151 360.682 403.123 356.703 400.823L316.97 377.862C312.794 375.449 307.32 374.242 301.853 374.242Z" fill="#373B42"/>
<path d="M333.021 405.57L332.964 409.34C332.964 412.305 330.893 415.154 327.299 417.226L238.734 468.428C235.082 470.5 230.194 471.68 225.076 471.68H218.548C213.43 471.68 208.542 470.5 204.947 468.428L195.746 463.046C192.151 460.974 190.138 458.124 190.138 455.188L189.822 331.112C189.822 334.048 191.835 336.869 195.43 338.941L204.631 344.294C208.225 346.395 213.114 347.575 218.232 347.575H224.731C229.849 347.575 234.766 346.395 238.389 344.294L326.983 293.12C330.606 291.019 332.648 288.17 332.648 285.205L332.676 281.436L333.021 405.57Z" fill="#F0F2F5"/>
<path d="M222.429 347.575H218.232C213.114 347.575 208.225 346.394 204.631 344.294L195.43 338.941C191.835 336.869 189.822 334.048 189.822 331.112L190.138 455.188C190.138 458.124 192.151 460.973 195.746 463.046L204.947 468.428C208.542 470.5 213.43 471.68 218.548 471.68H222.429V347.575Z" fill="#BEC4CD"/>
<path d="M225.075 472.126H218.548C213.339 472.126 208.429 470.95 204.725 468.814L195.521 463.431C191.818 461.297 189.694 458.292 189.694 455.188L189.377 331.145C189.377 331.135 189.377 331.124 189.377 331.114V331.114C189.377 331.113 189.377 331.113 189.377 331.112C189.377 330.866 189.575 330.667 189.822 330.667C190.068 330.667 190.268 330.865 190.268 331.111V331.143C190.282 333.889 192.242 336.589 195.653 338.555L204.855 343.909C208.41 345.986 213.16 347.13 218.232 347.13H224.73C229.738 347.13 234.636 345.955 238.166 343.908L326.761 292.735C330.218 290.729 332.201 287.985 332.201 285.206L332.231 281.433C332.233 281.188 332.431 280.99 332.676 280.99C332.676 280.99 332.676 280.99 332.678 280.99C332.923 280.991 333.122 281.19 333.122 281.435L333.466 405.568C333.466 405.571 333.466 405.573 333.466 405.577L333.409 409.347C333.409 412.44 331.261 415.455 327.521 417.613L238.957 468.814C235.192 470.95 230.263 472.126 225.075 472.126ZM190.276 334.564L190.584 455.187C190.584 457.964 192.547 460.687 195.968 462.659L205.172 468.043C208.69 470.07 213.565 471.234 218.548 471.234H225.075C230.112 471.234 234.884 470.1 238.516 468.04L327.076 416.84C330.535 414.845 332.518 412.112 332.518 409.34L332.576 405.566L332.25 288.558C331.3 290.419 329.572 292.133 327.206 293.506L238.612 344.679C234.897 346.834 229.966 348.02 224.73 348.02H218.232C213.005 348.02 208.095 346.834 204.406 344.678L195.206 339.325C192.918 338.006 191.23 336.359 190.276 334.564Z" fill="#373B42"/>
<path d="M195.528 319.385C191.912 321.474 189.86 324.316 189.844 327.271L189.822 331.066C189.806 334.021 191.825 336.862 195.418 338.952L204.617 344.303C208.225 346.401 213.104 347.573 218.217 347.582L224.746 347.573C229.859 347.582 234.766 346.402 238.382 344.312L326.967 293.12C330.583 291.03 332.635 288.189 332.637 285.225L332.673 281.439C332.675 278.475 330.67 275.642 327.062 273.544L317.863 268.193C314.27 266.103 309.376 264.923 304.279 264.923L297.734 264.923C292.636 264.923 287.729 266.103 284.113 268.193L195.528 319.385Z" fill="white"/>
<path d="M218.218 348.027C212.989 348.018 208.081 346.832 204.394 344.688L195.193 339.337C191.481 337.176 189.361 334.16 189.377 331.063L189.4 327.268C189.415 324.171 191.569 321.157 195.307 318.998L283.891 267.806C287.552 265.691 292.598 264.477 297.735 264.477H304.279C309.415 264.477 314.449 265.69 318.089 267.807L327.288 273.158C331.051 275.348 333.122 278.289 333.12 281.439L333.084 285.229C333.082 288.324 330.933 291.342 327.191 293.506L238.606 344.698C234.952 346.809 229.924 348.018 224.802 348.018C224.784 348.018 224.765 348.018 224.748 348.018L218.218 348.027ZM297.735 265.368C292.75 265.368 287.866 266.538 284.336 268.579L195.752 319.77C192.297 321.766 190.304 324.501 190.29 327.273L190.268 331.067C190.254 333.837 192.211 336.57 195.642 338.566L204.843 343.917C208.396 345.984 213.146 347.127 218.218 347.135L224.748 347.126C224.765 347.126 224.783 347.126 224.801 347.126C229.772 347.126 234.639 345.961 238.161 343.925L326.745 292.733C330.206 290.733 332.191 287.997 332.193 285.224L332.229 281.434C332.231 278.619 330.317 275.952 326.839 273.928L317.64 268.577C314.134 266.538 309.264 265.368 304.279 265.368L297.735 265.368Z" fill="#373B42"/>
<path d="M309.698 289.472C309.544 289.6 309.366 289.702 309.187 289.804C303.793 292.9 295.102 292.926 289.734 289.804C289.554 289.702 289.401 289.6 289.248 289.472C284.544 286.478 284.57 281.873 289.222 278.879C289.401 278.751 289.58 278.623 289.785 278.521C295.178 275.4 303.895 275.374 309.263 278.495C309.417 278.572 309.544 278.674 309.672 278.751C314.452 281.77 314.452 286.452 309.698 289.472Z" fill="#373B42"/>
<path d="M299.433 292.567C295.829 292.567 292.237 291.774 289.51 290.19C289.312 290.076 289.14 289.961 288.964 289.816C286.61 288.321 285.287 286.312 285.282 284.188C285.277 282.062 286.591 280.043 288.983 278.504C289.166 278.372 289.361 278.235 289.587 278.122C295.08 274.943 304.019 274.93 309.488 278.11C309.577 278.154 309.679 278.221 309.777 278.287L309.902 278.369C312.355 279.918 313.704 281.957 313.705 284.113C313.709 286.259 312.378 288.29 309.961 289.833C309.794 289.968 309.605 290.079 309.413 290.188C306.65 291.774 303.036 292.567 299.433 292.567ZM299.567 276.613C296.111 276.613 292.648 277.378 290.007 278.907C289.802 279.011 289.645 279.125 289.485 279.239C287.337 280.623 286.168 282.375 286.173 284.186C286.176 285.995 287.354 287.738 289.485 289.096C289.665 289.24 289.799 289.328 289.955 289.417C295.161 292.446 303.69 292.445 308.966 289.418C309.126 289.326 309.281 289.24 309.413 289.13C309.427 289.118 309.442 289.106 309.46 289.096C311.626 287.72 312.816 285.951 312.814 284.114C312.813 282.274 311.612 280.504 309.434 279.128L309.279 279.027C309.211 278.981 309.142 278.933 309.063 278.894C306.446 277.372 303.008 276.613 299.567 276.613Z" fill="#373B42"/>
<path d="M233.37 333.583C233.165 333.736 232.961 333.864 232.731 333.992C227.311 337.113 218.595 337.113 213.226 333.992C213.124 333.941 213.022 333.864 212.92 333.787C208.012 330.768 208.037 326.034 212.894 322.99C213.048 322.887 213.175 322.785 213.329 322.709C218.697 319.587 227.414 319.587 232.782 322.709C232.986 322.811 233.165 322.939 233.344 323.067C237.92 326.06 237.92 330.563 233.37 333.583Z" fill="#373B42"/>
<path d="M222.961 336.765C219.347 336.765 215.74 335.969 213.002 334.377C212.908 334.331 212.791 334.245 212.673 334.157C210.19 332.63 208.809 330.589 208.8 328.419C208.791 326.239 210.16 324.176 212.657 322.611L212.761 322.539C212.883 322.453 213 322.373 213.13 322.309C218.595 319.131 227.519 319.132 233.005 322.323C233.207 322.422 233.405 322.562 233.604 322.703C235.926 324.223 237.217 326.216 237.223 328.306C237.23 330.395 235.953 332.398 233.626 333.946C233.41 334.108 233.191 334.244 232.948 334.38C230.189 335.969 226.571 336.765 222.961 336.765ZM223.046 320.809C219.606 320.809 216.17 321.571 213.553 323.093C213.437 323.152 213.357 323.21 213.273 323.269L213.143 323.36C210.905 324.763 209.682 326.555 209.691 328.415C209.699 330.265 210.928 332.038 213.153 333.407C213.28 333.498 213.351 333.555 213.424 333.592C218.681 336.646 227.227 336.644 232.508 333.605C232.725 333.484 232.913 333.367 233.101 333.226C233.108 333.221 233.115 333.216 233.124 333.211C235.199 331.833 236.339 330.092 236.332 328.308C236.327 326.529 235.18 324.8 233.101 323.439C232.925 323.314 232.765 323.199 232.583 323.107C229.947 321.575 226.495 320.809 223.046 320.809Z" fill="#373B42"/>
<path d="M242.438 171.841C242.438 173.204 242.227 174.648 241.822 176.093C240.524 180.93 237.184 185.815 233.211 188.331C233.066 188.428 232.903 188.525 232.741 188.623C227.39 191.723 223.028 189.224 223.012 183.056C223.012 182.845 223.012 182.65 223.028 182.439C223.206 177.781 225.785 172.441 229.336 168.887C230.39 167.832 231.509 166.939 232.692 166.258C238.043 163.158 242.405 165.674 242.438 171.841Z" fill="#373B42"/>
<path d="M228.385 190.402C227.387 190.402 226.465 190.167 225.645 189.697C223.669 188.559 222.574 186.201 222.565 183.057C222.565 182.832 222.565 182.626 222.585 182.403C222.762 177.744 225.289 172.307 229.021 168.572C230.136 167.456 231.296 166.547 232.469 165.871C235.201 164.29 237.798 164.048 239.78 165.187C241.765 166.326 242.867 168.688 242.882 171.838C242.882 171.839 242.882 171.84 242.882 171.841C242.882 173.246 242.67 174.718 242.249 176.214C240.893 181.276 237.438 186.182 233.448 188.708C233.325 188.792 233.173 188.882 233.023 188.973C231.382 189.925 229.807 190.402 228.385 190.402ZM237.026 165.372C235.773 165.372 234.372 165.799 232.915 166.644C231.808 167.281 230.71 168.142 229.65 169.202C226.068 172.788 223.644 177.991 223.474 182.456C223.456 182.674 223.456 182.858 223.456 183.056C223.465 185.867 224.399 187.951 226.089 188.923C227.787 189.899 230.07 189.656 232.518 188.237C232.702 188.126 232.838 188.044 232.962 187.961C236.784 185.541 240.088 180.84 241.391 175.978C241.79 174.556 241.992 173.166 241.992 171.842C241.978 169.023 241.035 166.934 239.338 165.96C238.653 165.567 237.873 165.372 237.026 165.372Z" fill="#373B42"/>
<path d="M242.44 239.247C242.44 240.74 242.196 242.315 241.726 243.889C240.299 248.758 236.862 253.594 232.84 255.964C232.808 255.997 232.776 256.013 232.743 256.029C227.392 259.129 223.03 256.63 223.014 250.479V250.3C223.046 245.642 225.559 240.237 229.078 236.569C230.197 235.401 231.413 234.41 232.694 233.68C238.045 230.58 242.407 233.079 242.44 239.247Z" fill="#373B42"/>
<path d="M228.402 257.811C227.402 257.811 226.469 257.576 225.644 257.101C223.67 255.965 222.577 253.613 222.568 250.479V250.299C222.601 245.652 225.03 240.143 228.757 236.26C229.945 235.019 231.195 234.021 232.474 233.292C235.21 231.709 237.806 231.466 239.79 232.604C241.77 233.74 242.87 236.098 242.885 239.244C242.885 239.244 242.885 239.245 242.885 239.246C242.885 240.783 242.638 242.388 242.153 244.015C240.653 249.138 237.086 253.979 233.067 256.347C233.077 256.356 233.004 256.396 232.938 256.429C231.357 257.346 229.81 257.811 228.402 257.811ZM237.037 232.79C235.783 232.79 234.379 233.218 232.917 234.065C231.711 234.753 230.528 235.698 229.401 236.877C225.822 240.605 223.49 245.875 223.459 250.302V250.477C223.468 253.279 224.4 255.358 226.088 256.328C227.79 257.305 230.069 257.062 232.52 255.642C232.547 255.617 232.583 255.597 232.614 255.579C236.449 253.319 239.858 248.681 241.298 243.762C241.761 242.216 241.994 240.698 241.994 239.248C241.98 236.433 241.039 234.349 239.348 233.377C238.662 232.985 237.885 232.79 237.037 232.79Z" fill="#373B42"/>
<path d="M249.678 180.644L241.821 176.093L229.336 168.887C225.548 173.066 223.271 177.548 223.028 182.439L233.211 188.33L249.63 197.832C261.742 204.827 271.569 221.869 271.536 235.811C271.488 249.737 261.597 255.385 249.484 248.373L241.724 243.887L229.076 236.567C225.558 240.235 223.044 245.64 223.012 250.298L232.838 255.962L249.435 265.577C269.802 277.344 286.422 267.866 286.487 244.445C286.552 221.025 270.044 192.411 249.678 180.644Z" fill="#BEC4CD"/>
<path d="M265.973 271.096C260.818 271.096 255.114 269.374 249.212 265.964L222.788 250.685C222.649 250.605 222.564 250.456 222.565 250.295C222.599 245.652 225.027 240.142 228.754 236.259C228.899 236.11 229.121 236.079 229.299 236.182L249.707 247.988C255.44 251.306 260.818 251.857 264.847 249.538C268.851 247.236 271.069 242.36 271.092 235.81C271.123 222.006 261.395 205.143 249.407 198.219L222.806 182.826C222.661 182.741 222.576 182.584 222.583 182.417C222.821 177.618 224.921 173.094 229.005 168.588C229.146 168.432 229.377 168.397 229.558 168.501L249.901 180.259C270.385 192.094 286.996 220.889 286.932 244.448C286.9 255.9 282.968 264.462 275.863 268.556C272.917 270.253 269.58 271.095 265.973 271.096ZM223.462 250.043L249.658 265.192C259.398 270.819 268.544 271.744 275.419 267.783C282.238 263.854 286.01 255.566 286.041 244.445C286.106 221.171 269.693 192.723 249.456 181.031C249.456 181.031 249.456 181.031 249.456 181.03L229.426 169.454C225.72 173.626 223.775 177.799 223.49 182.191L249.853 197.447C262.086 204.511 272.014 221.722 271.983 235.812C271.958 242.694 269.582 247.843 265.291 250.311C260.971 252.795 255.28 252.243 249.261 248.76L229.158 237.13C225.784 240.767 223.576 245.771 223.462 250.043Z" fill="#373B42"/>
<path d="M309.699 289.472C309.545 289.6 309.366 289.701 309.187 289.804C303.794 292.9 295.102 292.925 289.734 289.804C289.555 289.701 289.402 289.6 289.248 289.472L289.223 278.879L289.121 240.041C289.095 232.237 286.871 226.506 283.037 224.305C279.126 222.105 272.991 223.077 266.166 227.018C248.272 237.38 233.165 263.503 233.241 284.1L233.344 323.066L233.369 333.582C233.165 333.735 232.96 333.863 232.73 333.991C227.311 337.112 218.594 337.112 213.226 333.991C213.124 333.94 213.022 333.863 212.919 333.786L212.894 322.989L212.791 284.151C212.715 256.211 231.656 223.333 255.941 209.287C269.386 201.534 282.602 200.537 293.134 206.523C303.691 212.536 309.519 224.433 309.57 239.99L309.673 278.751L309.699 289.472Z" fill="#F0F2F5"/>
<path d="M222.96 336.765C219.346 336.765 215.74 335.969 213.001 334.377C212.907 334.331 212.79 334.246 212.672 334.157C212.559 334.074 212.474 333.928 212.474 333.787L212.345 284.153C212.268 256.068 231.319 223.014 255.718 208.901C269.324 201.057 282.692 200.074 293.354 206.136C304.047 212.227 309.965 224.249 310.015 239.989L310.144 289.471C310.144 289.604 310.087 289.729 309.984 289.814C309.813 289.958 309.613 290.074 309.413 290.188C303.887 293.36 294.963 293.359 289.51 290.19C289.312 290.076 289.14 289.961 288.964 289.816C288.861 289.732 288.802 289.606 288.802 289.473L288.675 240.043C288.649 232.41 286.514 226.815 282.815 224.692C279.038 222.57 273.052 223.556 266.388 227.404C248.587 237.713 233.61 263.677 233.687 284.099L233.814 333.581C233.814 333.721 233.748 333.854 233.636 333.938C233.417 334.104 233.194 334.242 232.947 334.38C230.188 335.97 226.57 336.765 222.96 336.765ZM213.365 333.558C213.384 333.571 213.405 333.583 213.424 333.593C218.68 336.647 227.226 336.645 232.507 333.605C232.657 333.522 232.791 333.441 232.923 333.353L232.796 284.102C232.719 263.4 247.899 237.082 265.943 226.632C272.887 222.623 279.198 221.636 283.254 223.917C287.24 226.204 289.54 232.08 289.566 240.04L289.693 289.252C289.775 289.31 289.862 289.363 289.956 289.417C295.162 292.446 303.691 292.445 308.966 289.418C309.065 289.361 309.161 289.307 309.253 289.248L309.124 239.991C309.074 224.585 303.318 212.837 292.914 206.911C282.539 201.011 269.482 201.993 256.163 209.673C232.017 223.641 213.16 256.355 213.236 284.15L213.365 333.558Z" fill="#373B42"/>
<path d="M281.268 356.545C274.728 360.324 269.416 369.534 269.438 377.088C269.453 382.389 272.102 385.488 275.983 385.486L270.414 416.15C269.974 418.628 271.435 419.924 273.437 418.767L289.454 409.511C291.456 408.354 292.905 405.376 292.452 403.414L286.728 379.276C290.596 374.8 293.219 368.655 293.204 363.354C293.183 355.8 287.836 352.75 281.268 356.545Z" fill="#373B42"/>
<path d="M272.041 419.638C271.612 419.638 271.215 419.52 270.879 419.284C270.046 418.7 269.717 417.529 269.976 416.071L275.452 385.912C271.523 385.636 269.007 382.235 268.993 377.089C268.971 369.4 274.377 360.012 281.046 356.158C284.378 354.233 287.532 353.935 289.935 355.318C292.32 356.692 293.639 359.545 293.649 363.352C293.665 368.572 291.203 374.697 287.213 379.393L292.885 403.311C293.381 405.457 291.821 408.656 289.677 409.897L273.659 419.152C273.101 419.476 272.548 419.638 272.041 419.638ZM275.982 385.039C276.114 385.039 276.24 385.098 276.323 385.2C276.408 385.301 276.443 385.435 276.421 385.565L270.853 416.229C270.66 417.313 270.862 418.183 271.391 418.554C271.836 418.867 272.484 418.803 273.214 418.38L289.232 409.124C291.048 408.074 292.43 405.295 292.019 403.514L286.295 379.378C286.262 379.239 286.298 379.092 286.391 378.984C290.333 374.421 292.774 368.433 292.759 363.355C292.748 359.879 291.588 357.299 289.489 356.091C287.379 354.874 284.537 355.17 281.491 356.931C275.069 360.641 269.861 369.683 269.884 377.086C269.896 381.992 272.231 385.039 275.977 385.039C275.979 385.039 275.98 385.039 275.982 385.039Z" fill="#373B42"/>
<path d="M282.971 224.267C280.558 216.929 276.976 209.683 272.576 203.106C266.303 193.705 258.34 185.643 249.672 180.645L241.82 176.093L229.329 168.885C225.542 173.065 223.259 177.542 223.018 182.447L233.208 188.336L249.616 197.83C253.44 200.041 257.041 203.255 260.196 207.063C264.521 212.321 267.955 218.73 269.848 225.14C270.943 228.745 271.519 232.367 271.519 235.804C271.482 249.738 261.588 255.386 249.468 248.363L246.256 246.505C243.454 250.612 241.003 255.014 238.999 259.529L249.431 265.586C269.792 277.346 286.405 267.871 286.479 244.444C286.498 237.959 285.236 231.067 282.971 224.267Z" fill="#BEC4CD"/>
<path d="M265.962 271.099C260.81 271.099 255.107 269.378 249.208 265.972L238.778 259.915C238.579 259.801 238.501 259.556 238.593 259.348C240.62 254.783 243.075 250.377 245.89 246.253C246.021 246.06 246.278 246.001 246.48 246.119L249.69 247.977C255.428 251.301 260.808 251.854 264.841 249.534C268.843 247.231 271.056 242.355 271.073 235.803C271.073 232.422 270.518 228.878 269.422 225.269C267.554 218.941 264.155 212.577 259.851 207.346C256.646 203.476 253.029 200.318 249.394 198.215L222.794 182.832C222.65 182.749 222.565 182.591 222.572 182.424C222.808 177.623 224.912 173.096 228.999 168.585C229.14 168.428 229.373 168.394 229.552 168.498L249.895 180.258C258.369 185.144 266.341 192.959 272.947 202.858C277.391 209.503 281.003 216.856 283.394 224.125C285.755 231.214 286.943 238.05 286.924 244.444C286.888 255.902 282.955 264.467 275.848 268.56C272.903 270.256 269.567 271.099 265.962 271.099ZM239.571 259.345L249.654 265.199C259.392 270.822 268.537 271.743 275.403 267.787C282.223 263.859 285.999 255.568 286.034 244.442C286.053 238.145 284.88 231.404 282.549 224.407C282.549 224.407 282.549 224.406 282.549 224.405C280.182 217.212 276.607 209.932 272.207 203.354C265.769 193.707 257.687 185.78 249.45 181.03L229.42 169.451C225.709 173.628 223.764 177.804 223.478 182.198L249.84 197.443C253.567 199.598 257.266 202.826 260.539 206.778C264.918 212.1 268.375 218.576 270.277 225.013C271.396 228.702 271.965 232.334 271.965 235.804C271.947 242.688 269.574 247.839 265.285 250.307C260.965 252.793 255.268 252.237 249.245 248.748L246.393 247.098C243.78 250.968 241.487 255.085 239.571 259.345Z" fill="#373B42"/>
<g opacity="0.1">
<path d="M533.964 485.381C516.448 495.556 490.433 497.853 469.044 492.237L366.367 551.958C365.237 552.622 363.678 552.999 362.064 552.999H338.649C337.842 552.999 337.125 552.82 336.605 552.514C336.086 552.209 335.655 551.761 335.655 551.294L335.673 537.943C335.673 537.028 336.964 536.292 338.542 536.292H351.325C352.902 536.292 354.175 535.538 354.175 534.623L354.139 526.243C354.139 525.794 354.444 525.363 354.964 525.059L357.384 523.659C357.94 523.336 358.675 523.174 359.41 523.174H373.879C375.457 523.174 376.729 522.42 376.729 521.505L376.694 513.125C376.694 512.676 376.999 512.246 377.518 511.941L379.939 510.541C380.495 510.218 381.23 510.039 381.983 510.039H396.433C398.011 510.039 399.284 509.303 399.302 508.388L399.248 500.007C399.248 499.558 399.553 499.128 400.073 498.823L440.125 475.53C430.354 463.129 434.227 448.056 451.743 437.863C474.298 424.745 510.979 424.727 533.713 437.863C556.411 450.981 556.518 472.263 533.964 485.381Z" fill="black"/>
</g>
<path d="M525.515 430.388L525.473 442.492C525.48 440.113 523.912 437.731 520.772 435.916C514.518 432.302 504.432 432.302 498.232 435.908C495.154 437.699 493.612 440.042 493.605 442.39L493.648 430.286C493.654 427.938 495.196 425.595 498.274 423.804C504.474 420.198 514.561 420.198 520.814 423.812C523.954 425.626 525.522 428.009 525.515 430.388Z" fill="#373B42"/>
<path d="M525.474 442.937H525.472C525.227 442.937 525.029 442.736 525.029 442.49C525.029 442.49 525.029 442.49 525.029 442.49V442.489C525.036 440.173 523.445 437.975 520.55 436.302C514.438 432.769 504.524 432.765 498.456 436.294C495.624 437.942 494.06 440.105 494.051 442.388V442.392C494.051 442.638 493.851 442.836 493.606 442.836H493.604C493.359 442.835 493.16 442.635 493.16 442.389L493.202 430.285C493.209 427.671 494.931 425.233 498.051 423.419C504.365 419.746 514.678 419.751 521.037 423.426C524.219 425.265 525.968 427.738 525.961 430.389C525.961 430.389 525.961 430.389 525.961 430.389L525.919 442.494C525.919 442.739 525.719 442.937 525.474 442.937ZM509.476 432.771C513.641 432.771 517.813 433.691 520.996 435.53C522.854 436.604 524.223 437.894 525.039 439.309L525.07 430.385C525.077 428.068 523.487 425.87 520.592 424.198C514.476 420.664 504.567 420.66 498.5 424.189C495.664 425.838 494.1 428.004 494.093 430.288L494.062 439.208C494.871 437.829 496.205 436.571 498.008 435.523C501.164 433.689 505.317 432.771 509.476 432.771Z" fill="#373B42"/>
<path d="M449.911 460.42C446.611 458.107 443.918 455.601 441.844 452.973C438.329 448.517 436.578 443.712 436.592 438.911L436.55 453.832C436.536 458.633 438.288 463.439 441.802 467.894C443.885 470.534 446.591 473.051 449.911 475.372V460.42Z" fill="#373B42"/>
<path d="M449.912 475.817C449.821 475.817 449.732 475.79 449.656 475.737C446.35 473.425 443.589 470.879 441.452 468.17C437.939 463.717 436.092 458.759 436.106 453.831L436.147 438.91C436.147 438.91 436.147 438.91 436.147 438.909C436.147 438.664 436.347 438.465 436.593 438.465C436.593 438.465 436.593 438.465 436.594 438.465C436.84 438.466 437.038 438.666 437.038 438.912C437.024 443.635 438.808 448.402 442.195 452.696C444.266 455.323 446.947 457.798 450.168 460.054C450.286 460.138 450.357 460.274 450.357 460.419V475.371C450.357 475.538 450.265 475.69 450.117 475.767C450.052 475.801 449.981 475.817 449.912 475.817ZM437.021 444.834L436.996 453.833C436.982 458.558 438.766 463.325 442.152 467.617C444.083 470.065 446.54 472.38 449.466 474.507V460.651C446.259 458.38 443.578 455.891 441.496 453.248C439.395 450.586 437.89 447.743 437.021 444.834Z" fill="#373B42"/>
<path d="M535.673 462.826C518.161 473.013 492.148 475.299 470.764 469.683C464.589 468.061 458.801 465.782 453.714 462.842C453.699 462.833 453.684 462.823 453.669 462.814V477.761C453.67 477.762 453.671 477.763 453.672 477.763C458.759 480.703 464.547 482.982 470.722 484.604C492.105 490.22 518.119 487.934 535.631 477.748C546.839 471.228 552.452 462.695 552.476 454.151L552.519 439.229C552.495 447.774 546.882 456.307 535.673 462.826Z" fill="#373B42"/>
<path d="M494.531 488.02C486.423 488.02 478.261 487.046 470.609 485.036C464.237 483.363 458.468 481.048 453.46 478.156C453.318 478.08 453.224 477.93 453.224 477.762V462.815C453.224 462.655 453.309 462.508 453.446 462.428C453.586 462.349 453.754 462.35 453.894 462.43C458.878 465.311 464.577 467.598 470.877 469.252C492.661 474.972 518.611 472.235 535.449 462.442C546.144 456.22 552.049 447.976 552.073 439.229C552.073 438.983 552.274 438.784 552.519 438.784C552.519 438.784 552.519 438.784 552.521 438.784C552.766 438.785 552.964 438.985 552.964 439.231L552.923 454.153C552.897 463.23 546.835 471.746 535.856 478.133C524.749 484.593 509.734 488.02 494.531 488.02ZM454.114 477.505C458.989 480.294 464.62 482.542 470.835 484.174C492.622 489.893 518.568 487.157 535.406 477.363C546.102 471.141 552.007 462.898 552.031 454.15L552.056 445.21C549.987 452.006 544.424 458.251 535.897 463.212C518.87 473.117 492.652 475.893 470.65 470.114C464.536 468.509 458.977 466.313 454.114 463.583L454.114 477.505Z" fill="#373B42"/>
<path d="M470.758 469.677L470.717 484.605L368.041 544.34C366.903 544.991 365.358 545.377 363.733 545.377H340.324C339.511 545.377 338.8 545.174 338.272 544.889C337.743 544.584 337.439 544.157 337.439 543.709L337.357 530.327V528.781C337.378 529.126 337.622 529.452 337.967 529.716C338.069 529.818 338.191 529.879 338.313 529.961C338.841 530.266 339.552 530.449 340.365 530.449H363.773C365.399 530.449 366.943 530.062 368.081 529.412L470.758 469.677Z" fill="#373B42"/>
<path d="M363.733 545.823H340.324C339.513 545.823 338.709 545.63 338.06 545.281C337.377 544.887 336.992 544.316 336.992 543.709L336.912 528.78C336.912 528.539 337.104 528.341 337.345 528.334C337.55 528.322 337.789 528.515 337.803 528.756C337.812 528.936 337.972 529.158 338.238 529.363C338.318 529.438 338.377 529.474 338.445 529.516L338.56 529.589C339.014 529.85 339.663 530.003 340.364 530.003H363.773C365.283 530.003 366.773 529.646 367.86 529.024L470.532 469.291C470.672 469.21 470.84 469.211 470.98 469.29C471.117 469.37 471.202 469.518 471.202 469.678L471.162 484.606C471.162 484.765 471.077 484.911 470.941 484.99L368.264 544.725C367.025 545.434 365.417 545.823 363.733 545.823ZM337.803 530.16V530.326L337.883 543.706C337.883 543.989 338.106 544.278 338.494 544.503C339.003 544.776 339.658 544.931 340.324 544.931H363.733C365.241 544.931 366.731 544.574 367.818 543.952L470.271 484.348L470.31 470.452L368.305 529.797C367.067 530.505 365.457 530.894 363.773 530.894H340.364C339.498 530.894 338.711 530.705 338.09 530.346L337.977 530.275C337.923 530.242 337.864 530.205 337.803 530.16Z" fill="#373B42"/>
<path d="M535.428 415.311C533.646 414.287 531.799 413.329 529.852 412.471C507.055 402.25 474.245 403.208 453.444 415.311C435.941 425.498 432.081 440.573 441.847 452.972L401.795 476.27C401.267 476.567 400.97 476.996 400.97 477.442L401.004 485.83C401.004 486.738 399.733 487.481 398.15 487.481H383.699C382.941 487.481 382.198 487.662 381.67 487.976L379.245 489.38C378.718 489.693 378.421 490.122 378.404 490.568L378.454 498.939C378.454 499.864 377.167 500.607 375.6 500.607H361.133C360.391 500.607 359.648 500.772 359.104 501.102L356.679 502.506C356.151 502.819 355.854 503.232 355.854 503.678L355.904 512.066C355.887 512.99 354.617 513.733 353.034 513.733H340.266C338.682 513.733 337.395 514.476 337.395 515.384L337.362 528.726C337.362 529.187 337.808 529.65 338.319 529.947C338.5 530.063 338.715 530.145 338.946 530.228C339.358 530.36 339.853 530.443 340.364 530.443H363.772C365.405 530.443 366.956 530.063 368.077 529.402L470.764 469.682C492.159 475.295 518.157 473.001 535.675 462.813C558.225 449.703 558.126 428.437 535.428 415.311ZM520.895 436.858C514.692 440.473 504.614 440.473 498.362 436.858C492.11 433.258 492.077 427.397 498.279 423.797C504.482 420.198 514.561 420.198 520.812 423.797C527.065 427.413 527.097 433.258 520.895 436.858Z" fill="#DA0000"/>
<path d="M363.772 530.889H340.364C339.829 530.889 339.292 530.807 338.81 530.653C338.558 530.563 338.307 530.467 338.081 530.324C337.357 529.903 336.917 529.302 336.917 528.725L336.95 515.383C336.95 514.209 338.406 513.288 340.265 513.288H353.034C354.45 513.288 355.447 512.64 355.458 512.058L355.409 503.681C355.409 503.074 355.779 502.521 356.451 502.122L358.88 500.717C359.466 500.36 360.27 500.161 361.133 500.161H375.599C377.019 500.161 378.007 499.517 378.007 498.939L377.958 490.571C377.983 489.948 378.369 489.382 379.018 488.996L381.447 487.59C382.038 487.238 382.861 487.035 383.698 487.035H398.15C399.57 487.035 400.558 486.4 400.558 485.829L400.525 477.444C400.525 476.826 400.908 476.256 401.578 475.881L441.183 452.843C436.976 447.313 435.361 441.214 436.512 435.175C437.985 427.432 443.764 420.429 453.218 414.926C473.86 402.916 506.884 401.686 530.035 412.064C531.881 412.879 533.719 413.815 535.648 414.924C535.65 414.924 535.65 414.925 535.65 414.925C546.806 421.376 552.955 429.977 552.966 439.144C552.976 448.252 546.914 456.795 535.899 463.199C518.912 473.078 492.789 475.87 470.828 470.16L368.302 529.788C367.094 530.498 365.486 530.889 363.772 530.889ZM340.264 514.179C338.836 514.179 337.841 514.814 337.841 515.384L337.808 528.726C337.808 528.966 338.11 529.31 338.544 529.562C338.707 529.665 338.906 529.74 339.095 529.808C339.471 529.928 339.927 529.997 340.364 529.997H363.772C365.307 529.997 366.793 529.64 367.851 529.018L470.539 469.296C470.641 469.236 470.763 469.22 470.876 469.25C492.658 474.967 518.609 472.224 535.45 462.427C546.18 456.19 552.083 447.921 552.075 439.145C552.064 430.309 546.074 421.982 535.204 415.697C533.301 414.603 531.493 413.682 529.673 412.878C506.759 402.606 474.083 403.819 453.667 415.696C444.44 421.066 438.811 427.859 437.386 435.342C436.259 441.267 437.922 447.269 442.195 452.696C442.275 452.798 442.307 452.929 442.282 453.056C442.26 453.182 442.181 453.292 442.07 453.357L402.019 476.655C401.633 476.872 401.415 477.157 401.415 477.442L401.448 485.828C401.448 487.005 399.999 487.927 398.15 487.927H383.698C383.016 487.927 382.36 488.084 381.897 488.359L379.468 489.765C379.087 489.991 378.859 490.291 378.849 490.585L378.897 498.936C378.897 500.124 377.448 501.052 375.599 501.052H361.133C360.44 501.052 359.784 501.21 359.334 501.483L356.901 502.891C356.678 503.023 356.299 503.304 356.299 503.677L356.348 512.062C356.327 513.254 354.872 514.178 353.033 514.178H340.264V514.179ZM509.647 440.003C505.485 440.003 501.32 439.083 498.139 437.244C494.962 435.415 493.208 432.95 493.203 430.305C493.2 427.678 494.922 425.23 498.055 423.412C504.366 419.749 514.675 419.75 521.034 423.411C524.215 425.251 525.967 427.719 525.969 430.362C525.971 432.983 524.248 435.427 521.116 437.243C517.962 439.082 513.807 440.003 509.647 440.003ZM509.527 421.544C505.527 421.544 501.534 422.423 498.501 424.183C495.656 425.835 494.091 428.008 494.094 430.303C494.099 432.617 495.693 434.807 498.585 436.471C504.701 440.009 514.609 440.007 520.669 436.473C520.669 436.473 520.669 436.472 520.671 436.472C523.514 434.822 525.08 432.652 525.078 430.363C525.077 428.052 523.483 425.857 520.589 424.184C517.532 422.424 513.527 421.544 509.527 421.544Z" fill="#373B42"/>
<path d="M538.626 425.191C536.383 422.781 533.479 420.518 529.966 418.488C510.319 407.128 478.433 407.112 458.918 418.471C439.387 429.831 439.503 448.307 459.149 459.666C464.016 462.489 469.64 464.604 475.662 466.023C493.857 470.332 515.516 468.203 530.197 459.666C546.231 450.338 549.019 436.221 538.626 425.191ZM526.452 457.504C517.281 462.837 505.057 465.363 492.982 465.082C482.045 464.851 471.224 462.341 462.877 457.504C445.293 447.332 445.194 430.805 462.663 420.634C480.132 410.48 508.653 410.48 526.238 420.651C533.348 424.762 537.587 429.897 538.973 435.246C541.034 443.122 536.861 451.444 526.452 457.504Z" fill="white"/>
<path d="M539.041 216.049L544.746 212.731L544.773 203.368L539.067 206.686L539.041 216.049Z" fill="#373B42"/>
<path d="M539.041 216.494C538.965 216.494 538.888 216.474 538.819 216.435C538.681 216.355 538.596 216.207 538.596 216.047L538.622 206.685C538.622 206.526 538.707 206.38 538.843 206.301L544.548 202.982C544.687 202.901 544.856 202.902 544.995 202.982C545.133 203.062 545.218 203.209 545.218 203.369L545.192 212.732C545.192 212.89 545.106 213.037 544.971 213.116L539.266 216.434C539.196 216.474 539.118 216.494 539.041 216.494ZM539.513 206.943L539.489 215.273L544.301 212.474L544.325 204.144L539.513 206.943Z" fill="#373B42"/>
<path d="M464.875 100.235C465.817 99.6811 467.132 99.7559 468.567 100.594L541.659 142.829C544.544 144.489 546.861 148.529 546.846 151.82L546.696 205.096C546.696 206.742 546.113 207.894 545.171 208.448L550.878 205.126C551.82 204.572 552.403 203.42 552.403 201.774L552.552 148.513C552.567 145.206 550.236 141.167 547.366 139.507L474.274 97.2717C472.839 96.4338 471.524 96.359 470.582 96.9127L464.875 100.235Z" fill="#F0F2F5"/>
<path d="M545.172 208.895C545.019 208.895 544.871 208.816 544.787 208.674C544.664 208.461 544.735 208.189 544.946 208.064C545.788 207.569 546.251 206.516 546.251 205.097L546.4 151.82C546.414 148.659 544.187 144.799 541.436 143.216L468.344 100.981C467.121 100.266 465.95 100.135 465.118 100.61L465.099 100.621C464.883 100.744 464.616 100.673 464.49 100.461C464.367 100.248 464.438 99.9756 464.649 99.8513C464.657 99.8469 464.664 99.8422 464.673 99.8378L470.357 96.5284C471.474 95.8718 472.981 96.0024 474.498 96.8872L547.588 139.122C550.586 140.856 553.012 145.07 552.998 148.516L552.848 201.777C552.848 203.523 552.229 204.85 551.105 205.511L545.396 208.834C545.325 208.875 545.249 208.895 545.172 208.895ZM467.003 99.5122C467.582 99.6228 468.186 99.8557 468.791 100.209L541.882 142.443C544.88 144.169 547.305 148.376 547.291 151.823L547.142 205.098C547.142 205.786 547.046 206.408 546.861 206.95L550.654 204.741C551.495 204.247 551.958 203.194 551.958 201.775L552.107 148.513C552.121 145.351 549.894 141.485 547.143 139.894L474.051 97.6582C472.817 96.9384 471.636 96.8092 470.808 97.2977L467.003 99.5122Z" fill="#373B42"/>
<path d="M468.574 100.589C465.702 98.9288 463.366 100.273 463.356 103.576L463.205 156.843C463.196 160.147 465.517 164.182 468.389 165.842L529.667 201.253L539.041 216.048L539.067 206.685L541.481 208.081C544.354 209.741 546.69 208.397 546.7 205.093L546.851 151.826C546.86 148.522 544.539 144.488 541.667 142.828L468.574 100.589Z" fill="white"/>
<path d="M539.041 216.494C538.892 216.494 538.749 216.419 538.665 216.287L529.35 201.585L468.167 166.229C465.176 164.501 462.751 160.29 462.76 156.843L462.911 103.576C462.916 101.815 463.539 100.487 464.665 99.8383C465.791 99.1887 467.263 99.3159 468.798 100.204L541.89 142.442C544.88 144.171 547.306 148.382 547.296 151.828L547.146 205.095C547.141 206.857 546.518 208.185 545.391 208.833C544.263 209.484 542.795 209.354 541.26 208.468L539.511 207.458L539.487 216.05C539.487 216.248 539.355 216.422 539.165 216.477C539.125 216.489 539.083 216.494 539.041 216.494ZM466.248 100.322C465.829 100.322 465.445 100.418 465.109 100.611C464.27 101.095 463.805 102.148 463.802 103.578L463.65 156.845C463.642 160.008 465.869 163.871 468.613 165.457L529.889 200.868C529.952 200.904 530.004 200.955 530.042 201.016L538.599 214.52L538.622 206.685C538.622 206.526 538.707 206.38 538.844 206.3C538.984 206.221 539.151 206.221 539.29 206.3L541.705 207.696C542.952 208.417 544.102 208.546 544.946 208.061C545.785 207.577 546.249 206.523 546.255 205.093L546.404 151.826C546.415 148.664 544.189 144.801 541.444 143.215L468.352 100.976C467.6 100.542 466.883 100.322 466.248 100.322Z" fill="#373B42"/>
<path d="M499.393 142.96C498.209 142.276 497.252 142.822 497.248 144.183C497.244 145.544 498.195 147.204 499.379 147.888L530.244 165.725C531.428 166.408 532.395 165.857 532.398 164.496C532.402 163.135 531.441 161.48 530.258 160.796L499.393 142.96Z" fill="#DBDEE4"/>
<path d="M517.541 166.407C516.358 165.723 515.4 166.269 515.396 167.63C515.393 168.991 516.344 170.651 517.527 171.335L530.245 178.685C531.429 179.368 532.396 178.817 532.399 177.456C532.403 176.095 531.442 174.44 530.259 173.756L517.541 166.407Z" fill="white"/>
<path d="M531.205 179.426C530.831 179.426 530.429 179.307 530.02 179.071L517.303 171.721C515.979 170.956 514.946 169.159 514.949 167.629C514.951 166.808 515.254 166.182 515.798 165.868C516.35 165.553 517.044 165.605 517.763 166.021L530.48 173.37C531.809 174.139 532.846 175.934 532.843 177.458C532.841 178.279 532.536 178.906 531.988 179.222C531.752 179.358 531.487 179.426 531.205 179.426ZM516.578 166.559C516.451 166.559 516.338 166.586 516.244 166.641C515.988 166.788 515.842 167.149 515.84 167.632C515.837 168.83 516.712 170.349 517.749 170.949L530.466 178.299C530.892 178.545 531.286 178.599 531.545 178.449C531.802 178.3 531.95 177.938 531.952 177.455C531.955 176.262 531.077 174.745 530.034 174.142L517.317 166.793C517.049 166.638 516.794 166.559 516.578 166.559Z" fill="#373B42"/>
<path d="M422.888 122.171C423.829 121.617 425.145 121.692 426.595 122.53L499.672 164.765C502.542 166.426 504.873 170.45 504.873 173.757L504.724 227.033C504.709 228.678 504.141 229.83 503.199 230.369L508.906 227.047C509.833 226.508 510.416 225.357 510.431 223.711L510.58 170.435C510.58 167.128 508.248 163.103 505.378 161.443L432.302 119.208C430.852 118.37 429.536 118.296 428.595 118.849L422.888 122.171Z" fill="#F0F2F5"/>
<path d="M503.2 230.814C503.047 230.814 502.897 230.734 502.814 230.591C502.692 230.379 502.763 230.106 502.976 229.983L503.009 229.965C503.814 229.486 504.265 228.445 504.279 227.028L504.428 173.755C504.428 170.6 502.194 166.739 499.449 165.151L426.372 122.916C425.118 122.192 423.966 122.062 423.126 122.548L423.114 122.555C423.114 122.555 423.114 122.555 423.114 122.555L423.112 122.556C422.898 122.679 422.626 122.608 422.503 122.396C422.38 122.183 422.451 121.911 422.661 121.786C422.663 121.786 422.663 121.786 422.663 121.786L422.665 121.784C422.67 121.782 422.675 121.779 422.679 121.777L428.37 118.464C429.501 117.8 430.977 117.926 432.525 118.822L505.601 161.057C508.592 162.787 511.026 166.994 511.026 170.435L510.877 223.712C510.859 225.467 510.24 226.787 509.132 227.432L503.459 230.733C503.447 230.741 503.433 230.748 503.421 230.756C503.352 230.796 503.275 230.814 503.2 230.814ZM425.026 121.443C425.6 121.554 426.204 121.788 426.818 122.144L499.894 164.378C502.885 166.109 505.319 170.316 505.319 173.756L505.17 227.034C505.163 227.718 505.065 228.336 504.884 228.872L508.683 226.661C509.509 226.18 509.972 225.131 509.986 223.706L510.135 170.433C510.135 167.277 507.901 163.417 505.156 161.828L432.079 119.594C430.82 118.865 429.663 118.739 428.82 119.233L425.026 121.443Z" fill="#373B42"/>
<path d="M426.594 122.531C423.722 120.871 421.376 122.198 421.367 125.502L421.216 178.78C421.207 182.083 423.537 186.113 426.41 187.773L428.814 189.163L428.788 198.525L438.224 194.6L499.492 230.006C502.365 231.666 504.711 230.339 504.72 227.035L504.871 173.757C504.88 170.453 502.55 166.424 499.677 164.764L426.594 122.531Z" fill="white"/>
<path d="M501.833 231.17C501.036 231.17 500.165 230.909 499.27 230.392L438.191 195.096L428.959 198.937C428.823 198.994 428.663 198.978 428.541 198.896C428.416 198.812 428.343 198.673 428.343 198.524L428.369 189.419L426.187 188.159C423.191 186.427 420.762 182.219 420.771 178.778L420.922 125.5C420.927 123.746 421.548 122.423 422.67 121.776C423.803 121.121 425.277 121.254 426.817 122.144L499.9 164.377C502.896 166.109 505.325 170.317 505.317 173.758L505.165 227.036C505.16 228.79 504.539 230.113 503.417 230.76C502.941 231.034 502.407 231.17 501.833 231.17ZM438.224 194.154C438.3 194.154 438.378 194.174 438.447 194.214L499.716 229.62C500.97 230.344 502.127 230.475 502.971 229.987C503.808 229.506 504.271 228.457 504.274 227.033L504.426 173.755C504.435 170.599 502.204 166.739 499.455 165.15L426.371 122.917C425.119 122.192 423.962 122.062 423.116 122.549C422.279 123.03 421.816 124.08 421.813 125.503L421.661 178.781C421.653 181.937 423.883 185.798 426.633 187.386L429.037 188.776C429.174 188.856 429.26 189.004 429.26 189.164L429.236 197.856L438.053 194.188C438.107 194.166 438.166 194.154 438.224 194.154Z" fill="#373B42"/>
<path d="M484.934 175.862L484.859 201.922C484.844 204.349 483.134 205.317 481.021 204.111L444.958 183.263C442.845 182.042 441.135 179.078 441.15 176.651L441.224 150.607C441.224 148.194 442.935 147.212 445.047 148.432L481.125 169.28C483.238 170.501 484.934 173.449 484.934 175.862Z" fill="#DA0000"/>
<path d="M455.004 183.976C454.369 183.976 453.762 183.635 453.442 183.049L449.196 175.288C448.723 174.424 449.04 173.341 449.903 172.867C450.766 172.395 451.85 172.711 452.321 173.575L455.82 179.972L474.688 172.766C475.601 172.418 476.637 172.875 476.988 173.796C477.338 174.716 476.877 175.747 475.958 176.098L455.639 183.859C455.43 183.938 455.216 183.976 455.004 183.976Z" fill="white"/>
<path d="M474.696 361.976C471.475 360.114 471.457 357.094 474.657 355.233C477.857 353.371 483.066 353.372 486.287 355.233C489.508 357.095 489.524 360.113 486.324 361.975C483.123 363.836 477.918 363.837 474.696 361.976Z" fill="white"/>
<path d="M480.517 363.809C478.33 363.809 476.143 363.326 474.473 362.362C472.766 361.375 471.825 360.036 471.823 358.592C471.821 357.157 472.749 355.827 474.433 354.848C477.753 352.917 483.169 352.916 486.51 354.848C488.215 355.834 489.156 357.171 489.158 358.614C489.16 360.049 488.234 361.38 486.548 362.36C484.888 363.326 482.703 363.809 480.517 363.809ZM474.918 361.589C478.012 363.377 483.03 363.377 486.099 361.59C487.5 360.775 488.269 359.72 488.267 358.616C488.265 357.504 487.484 356.44 486.065 355.62C482.971 353.831 477.951 353.832 474.882 355.618C473.481 356.432 472.713 357.487 472.714 358.591C472.715 359.703 473.499 360.768 474.918 361.589Z" fill="#DBDEE4"/>
<path d="M480.471 356.478C481.727 356.478 482.942 356.764 483.806 357.263C484.499 357.663 484.897 358.155 484.898 358.613C484.898 359.065 484.508 359.551 483.827 359.947C482.971 360.445 481.761 360.731 480.507 360.731C479.252 360.731 478.038 360.445 477.175 359.946C476.481 359.545 476.083 359.052 476.082 358.594C476.082 358.142 476.471 357.656 477.152 357.26C478.007 356.763 479.217 356.477 480.471 356.478Z" fill="#DA0000"/>
<path d="M452.113 340.322C453.462 340.322 454.767 340.629 455.694 341.165C456.439 341.596 456.866 342.124 456.867 342.615C456.868 343.101 456.449 343.623 455.718 344.048C454.798 344.583 453.498 344.89 452.151 344.89C450.804 344.89 449.5 344.582 448.573 344.047C447.828 343.616 447.4 343.087 447.399 342.596C447.399 342.11 447.817 341.588 448.548 341.163C449.466 340.629 450.766 340.322 452.113 340.322Z" fill="#373B42"/>
<path d="M359.491 524.27L363.508 526.606L449.273 477.044L445.256 474.708L359.491 524.27Z" fill="white"/>
<defs>
<filter id="filter0_d_399_1260" x="0" y="0" width="648" height="656" filterUnits="userSpaceOnUse" color-interpolation-filters="sRGB">
<feFlood flood-opacity="0" result="BackgroundImageFix"/>
<feColorMatrix in="SourceAlpha" type="matrix" values="0 0 0 0 0 0 0 0 0 0 0 0 0 0 0 0 0 0 127 0" result="hardAlpha"/>
<feOffset dy="4"/>
<feGaussianBlur stdDeviation="2"/>
<feComposite in2="hardAlpha" operator="out"/>
<feColorMatrix type="matrix" values="0 0 0 0 0 0 0 0 0 0 0 0 0 0 0 0 0 0 0.25 0"/>
<feBlend mode="normal" in2="BackgroundImageFix" result="effect1_dropShadow_399_1260"/>
<feBlend mode="normal" in="SourceGraphic" in2="effect1_dropShadow_399_1260" result="shape"/>
</filter>
</defs>
</svg>
