<svg width="270" height="285" viewBox="0 0 270 285" fill="none" xmlns="http://www.w3.org/2000/svg">
<g clip-path="url(#clip0_317_1541)">
<path d="M79.6067 182.774C80.1534 183.504 80.9446 184.014 81.8365 184.212C82.7284 184.409 83.6617 184.28 84.4666 183.85C87.0858 186.745 89.9829 189.377 93.1166 191.709C94.6215 192.829 96.1731 193.875 97.7714 194.847C105.256 199.397 113.656 202.242 122.371 203.178C131.087 204.113 139.902 203.115 148.186 200.257C148.739 201.154 149.602 201.818 150.613 202.124C151.623 202.43 152.711 202.357 153.671 201.918L153.723 201.892L153.762 201.876L153.783 201.866C154.504 201.511 155.11 200.962 155.535 200.281C155.959 199.6 156.185 198.815 156.186 198.013C156.187 197.212 155.964 196.426 155.541 195.744C155.119 195.062 154.514 194.512 153.795 194.154C153.075 193.796 152.27 193.646 151.47 193.72C150.67 193.794 149.906 194.089 149.265 194.573C148.624 195.056 148.13 195.708 147.841 196.456C147.551 197.203 147.477 198.017 147.625 198.805C129.601 204.976 109.439 201.921 94.0417 190.463C91.0039 188.202 88.1937 185.651 85.6507 182.847C86.0892 182.29 86.3626 181.621 86.44 180.917C86.5175 180.213 86.3959 179.501 86.089 178.862C85.7821 178.223 85.3022 177.682 84.7034 177.301C84.1046 176.92 83.4108 176.713 82.7004 176.704C81.99 176.696 81.2913 176.885 80.6832 177.252C80.0751 177.618 79.5819 178.147 79.2592 178.778C78.9366 179.409 78.7974 180.118 78.8573 180.824C78.9173 181.529 79.174 182.205 79.5985 182.773L79.6067 182.774ZM149.169 199.911C149.058 199.753 148.961 199.586 148.879 199.412C148.737 199.113 148.642 198.793 148.598 198.465C148.487 197.668 148.674 196.859 149.122 196.189C149.57 195.52 150.248 195.038 151.028 194.834C151.809 194.63 152.637 194.718 153.357 195.082C154.076 195.446 154.637 196.06 154.933 196.809C155.229 197.557 155.24 198.388 154.963 199.144C154.686 199.899 154.141 200.528 153.431 200.91C152.721 201.292 151.895 201.401 151.11 201.217C150.325 201.033 149.634 200.568 149.169 199.911Z" fill="#5C4444"/>
<path d="M127.664 85.5324C127.649 86.5768 128.015 87.5909 128.694 88.3858C129.374 89.1807 130.32 89.7021 131.357 89.8528C132.393 90.0034 133.449 89.7731 134.328 89.2047C135.207 88.6363 135.848 87.7687 136.133 86.7635C146.032 88.0389 155.434 91.8374 163.431 97.7924C171.429 103.747 177.753 111.658 181.791 120.76L182.106 121.471L191.428 117.385C200.64 138.955 198.431 164.717 183.389 184.817C182.026 186.637 180.571 188.387 179.032 190.062L172.063 184.864C173.627 183.209 175.095 181.466 176.461 179.645C181.851 172.448 185.535 164.126 187.238 155.305C188.179 155.259 189.071 154.867 189.739 154.204C190.408 153.541 190.806 152.654 190.857 151.715C190.908 150.776 190.608 149.852 190.016 149.121C189.423 148.389 188.579 147.903 187.648 147.756C186.717 147.608 185.764 147.811 184.974 148.323C184.183 148.836 183.611 149.623 183.369 150.531C183.126 151.44 183.23 152.406 183.66 153.243C184.09 154.079 184.815 154.727 185.697 155.062C184.035 163.634 180.45 171.72 175.211 178.716C173.711 180.719 172.084 182.625 170.34 184.421L169.723 185.056L177.967 191.195C167.482 202.08 153.671 209.186 138.699 211.4C138.398 210.509 137.776 209.761 136.954 209.301C136.132 208.841 135.168 208.701 134.248 208.908C133.329 209.116 132.519 209.655 131.975 210.424C131.431 211.192 131.192 212.133 131.304 213.067C131.416 214 131.871 214.859 132.581 215.478C133.291 216.096 134.206 216.43 135.149 216.415C136.091 216.4 136.995 216.038 137.685 215.397C138.375 214.757 138.803 213.884 138.885 212.947C153.98 210.719 167.926 203.619 178.589 192.733C189.251 181.848 196.042 167.778 197.921 152.677C199.8 137.576 196.664 122.277 188.993 109.123C181.323 95.9689 169.54 85.6845 155.449 79.8446C155.629 78.8291 155.439 77.7827 154.913 76.8949C154.386 76.0071 153.558 75.3366 152.579 75.0047L152.538 74.9917L152.494 74.9771L152.406 74.9511L152.452 74.9657C151.679 74.731 150.855 74.7177 150.074 74.9272C149.293 75.1368 148.587 75.5608 148.036 76.151C147.485 76.7412 147.112 77.4739 146.958 78.2655C146.805 79.057 146.877 79.8758 147.167 80.6283C147.457 81.3808 147.954 82.0369 148.6 82.5218C149.246 83.0067 150.015 83.301 150.821 83.371C151.626 83.441 152.435 83.2839 153.156 82.9178C153.876 82.5516 154.479 81.991 154.895 81.2999C170.827 87.916 183.657 100.3 190.808 115.964L182.902 119.426C178.683 110.244 172.189 102.284 164.03 96.2987C155.872 90.3128 146.319 86.498 136.273 85.214C136.174 84.1769 135.702 83.2104 134.944 82.4937C134.186 81.777 133.193 81.3586 132.149 81.3161H132.058C130.915 81.2957 129.81 81.728 128.987 82.5184C128.163 83.3088 127.687 84.3927 127.664 85.5324ZM153.947 80.9133C153.556 81.4953 152.99 81.9382 152.33 82.1779C151.67 82.4176 150.951 82.4417 150.276 82.2467L150.211 82.2273C149.614 82.0402 149.082 81.6876 148.678 81.2106C148.274 80.7336 148.014 80.1519 147.928 79.5333C147.843 78.9147 147.936 78.2846 148.196 77.7166C148.456 77.1486 148.873 76.666 149.398 76.3251C149.922 75.9843 150.533 75.7991 151.159 75.7913C151.785 75.7835 152.401 75.9534 152.934 76.2811C153.467 76.6088 153.896 77.0808 154.17 77.6422C154.444 78.2035 154.553 78.8311 154.483 79.4516C154.458 79.6614 154.414 79.8686 154.351 80.0704C154.257 80.3689 154.121 80.6526 153.947 80.9133ZM132.041 82.3215C132.815 82.3365 133.559 82.6222 134.143 83.1286C134.727 83.6351 135.114 84.3301 135.237 85.0922C135.271 85.2852 135.286 85.481 135.281 85.6769C135.265 86.5491 134.903 87.3793 134.273 87.985C133.644 88.5908 132.799 88.9225 131.924 88.9073H131.838H131.812C130.945 88.8644 130.129 88.4828 129.542 87.8449C128.955 87.2071 128.643 86.3643 128.674 85.499C128.706 84.6338 129.077 83.8156 129.709 83.2215C130.341 82.6274 131.182 82.3052 132.05 82.3247L132.041 82.3215Z" fill="#5C4444"/>
<path d="M41.8446 177.783C42.1542 178.625 42.7525 179.33 43.5335 179.774C44.3145 180.218 45.2279 180.371 46.1117 180.208C52.3728 194.48 62.2517 206.882 74.7766 216.192C77.0958 217.917 79.477 219.522 81.92 221.008C93.707 228.134 106.974 232.474 120.704 233.694C134.434 234.915 148.261 232.983 161.127 228.047C173.992 223.112 185.552 215.304 194.922 205.222C204.291 195.14 211.221 183.052 215.179 169.885C216.218 169.971 217.253 169.679 218.093 169.063C218.933 168.448 219.522 167.55 219.751 166.536L219.77 166.447C219.93 165.657 219.864 164.838 219.58 164.084C219.296 163.329 218.805 162.67 218.164 162.18C217.522 161.69 216.756 161.389 215.951 161.312C215.147 161.236 214.337 161.385 213.614 161.745C212.891 162.104 212.283 162.659 211.861 163.345C211.438 164.032 211.217 164.823 211.223 165.629C211.229 166.435 211.462 167.223 211.895 167.903C212.328 168.583 212.944 169.129 213.672 169.477C210.774 179.147 206.225 188.245 200.226 196.373L192.045 190.282L191.579 190.905C179.048 207.643 160.73 218.515 140.002 221.51C131.341 222.774 122.529 222.586 113.93 220.953L114.507 210.656L113.855 210.513C101.864 207.83 90.8212 201.969 81.8918 193.549C72.9625 185.129 66.4778 174.461 63.1217 162.672C63.9687 162.261 64.6328 161.551 64.9855 160.68C65.3383 159.809 65.3547 158.838 65.0316 157.956C64.7085 157.073 64.0688 156.342 63.2362 155.902C62.4036 155.463 61.4371 155.346 60.5236 155.576C59.6102 155.806 58.8145 156.365 58.2904 157.146C57.7663 157.926 57.5511 158.873 57.6862 159.803C57.8213 160.733 58.2973 161.579 59.0221 162.18C59.7468 162.78 60.669 163.091 61.6103 163.052C65.0069 175.013 71.5519 185.849 80.5659 194.436C89.58 203.023 100.734 209.047 112.871 211.883L112.383 220.641C101.311 218.282 90.8848 213.554 81.8255 206.782C80.1415 205.528 78.503 204.201 76.9232 202.819C77.4103 202.014 77.5808 201.057 77.4016 200.134C77.2224 199.211 76.7062 198.386 75.9529 197.82C75.1997 197.255 74.2628 196.987 73.3234 197.07C72.384 197.153 71.5088 197.581 70.8671 198.27C70.2254 198.959 69.8627 199.861 69.8492 200.801C69.8356 201.742 70.1722 202.654 70.7938 203.361C71.4154 204.068 72.2778 204.521 73.2144 204.63C74.1511 204.74 75.0953 204.5 75.8645 203.956C77.4834 205.376 79.1659 206.735 80.8939 208.016C82.9493 209.547 85.0606 210.971 87.2279 212.288C104.109 222.53 124.196 226.171 143.612 222.51C163.027 218.848 180.394 208.142 192.358 192.46L199.293 197.624C171.641 233.899 121.012 242.937 82.679 219.637C80.3108 218.197 77.9927 216.634 75.7245 214.948C63.4207 205.809 53.7138 193.634 47.558 179.62C48.1486 179.221 48.6148 178.664 48.9035 178.013C49.1922 177.362 49.2917 176.644 49.1907 175.94C49.0896 175.235 48.7922 174.573 48.3322 174.029C47.8722 173.485 47.2681 173.081 46.589 172.863C45.9098 172.645 45.1828 172.621 44.4908 172.795C43.7989 172.969 43.1699 173.333 42.6754 173.846C42.181 174.359 41.8411 175 41.6945 175.697C41.5479 176.393 41.6005 177.117 41.8462 177.785L41.8446 177.783ZM215.475 168.894C215.256 168.89 215.038 168.864 214.824 168.816C214.525 168.749 214.237 168.639 213.969 168.491C213.358 168.16 212.868 167.646 212.567 167.021C212.266 166.396 212.17 165.693 212.293 165.011L212.308 164.948L212.322 164.881L212.334 164.832C212.479 164.228 212.792 163.677 213.238 163.243C213.684 162.809 214.244 162.509 214.853 162.379C215.463 162.249 216.097 162.293 216.682 162.507C217.267 162.72 217.779 163.095 218.16 163.587C218.541 164.079 218.774 164.668 218.834 165.287C218.893 165.905 218.775 166.528 218.495 167.083C218.214 167.638 217.782 168.102 217.248 168.422C216.714 168.742 216.1 168.906 215.477 168.893L215.475 168.894Z" fill="#5C4444"/>
<path d="M147.693 56.9704C147.475 57.872 147.596 58.8218 148.032 59.6409C148.468 60.46 149.189 61.0918 150.06 61.4172C150.931 61.7425 151.891 61.739 152.759 61.4072C153.628 61.0755 154.344 60.4384 154.774 59.6161C171.381 64.7351 186.125 74.5833 197.192 87.9492C196.478 88.752 196.092 89.7918 196.108 90.8643C196.124 91.9368 196.542 92.9645 197.279 93.7457C198.016 94.527 199.019 95.0052 200.092 95.0866C201.164 95.168 202.228 94.8467 203.075 94.1857C203.923 93.5247 204.491 92.5718 204.67 91.5141C204.849 90.4564 204.624 89.3703 204.041 88.469C203.458 87.5677 202.558 86.9164 201.518 86.6429C200.478 86.3695 199.373 86.4936 198.42 86.9909C187.148 73.3645 172.122 63.3275 155.196 58.1187C155.259 57.1696 154.963 56.2315 154.366 55.4896C153.769 54.7478 152.915 54.2563 151.972 54.1122C151.029 53.9681 150.067 54.182 149.274 54.7115C148.482 55.241 147.918 56.0477 147.693 56.972V56.9704ZM197.843 88.745C198.031 88.5092 198.25 88.3005 198.495 88.1246C198.675 87.9963 198.869 87.8874 199.073 87.7997C199.644 87.5471 200.274 87.4609 200.892 87.5512C201.51 87.6416 202.09 87.9047 202.563 88.3101C203.037 88.7155 203.386 89.2465 203.57 89.8417C203.754 90.4368 203.764 91.0717 203.601 91.6726C203.437 92.2736 203.106 92.816 202.646 93.237C202.186 93.658 201.616 93.9403 201.001 94.0512C200.387 94.1621 199.754 94.0971 199.175 93.8636C198.596 93.6302 198.095 93.2379 197.731 92.7322V92.7209C197.73 92.7166 197.73 92.7122 197.731 92.7079C197.316 92.1246 197.102 91.4226 197.123 90.7077C197.143 89.9928 197.396 89.3039 197.843 88.745Z" fill="#5C4444"/>
<path d="M134.62 243.296C134.698 244.242 135.129 245.125 135.827 245.771C136.526 246.416 137.441 246.777 138.394 246.783C139.346 246.788 140.266 246.438 140.971 245.801C141.677 245.163 142.118 244.285 142.207 243.34C155.437 241.569 168.178 237.179 179.681 230.427C191.185 223.674 201.218 214.697 209.191 204.021C211.042 201.548 212.789 198.977 214.403 196.347C215.359 196.689 216.406 196.684 217.359 196.333C218.312 195.982 219.111 195.308 219.615 194.429L219.635 194.393L219.679 194.312C220.058 193.596 220.227 192.787 220.167 191.979C220.106 191.172 219.818 190.397 219.335 189.745C218.853 189.094 218.196 188.591 217.44 188.295C216.684 187.999 215.859 187.921 215.061 188.072C214.262 188.223 213.523 188.595 212.927 189.146C212.332 189.697 211.904 190.404 211.694 191.186C211.483 191.969 211.499 192.795 211.738 193.569C211.977 194.343 212.431 195.034 213.046 195.563C211.46 198.143 209.748 200.662 207.931 203.09C200.064 213.575 190.186 222.396 178.871 229.04C167.555 235.684 155.028 240.019 142.018 241.792C141.724 240.911 141.117 240.168 140.311 239.703C139.506 239.238 138.557 239.084 137.645 239.269C136.733 239.454 135.92 239.966 135.361 240.708C134.802 241.45 134.534 242.371 134.609 243.296H134.62ZM214.95 195.46C214.738 195.401 214.532 195.321 214.335 195.222C213.951 195.02 213.612 194.744 213.335 194.412C213.058 194.079 212.85 193.695 212.722 193.282C212.594 192.869 212.55 192.434 212.59 192.004C212.631 191.573 212.756 191.155 212.959 190.773C212.962 190.766 212.966 190.759 212.97 190.752C213.265 190.204 213.71 189.75 214.254 189.444C214.797 189.138 215.416 188.991 216.039 189.021C216.663 189.051 217.265 189.257 217.776 189.614C218.287 189.971 218.686 190.465 218.926 191.039C219.167 191.614 219.24 192.244 219.137 192.858C219.033 193.471 218.757 194.043 218.341 194.507C217.925 194.971 217.386 195.308 216.786 195.478C216.186 195.649 215.549 195.647 214.95 195.472V195.46Z" fill="#5C4444"/>
<path d="M23.8716 187.843C24.2034 188.673 24.8186 189.361 25.6087 189.784C26.3988 190.206 27.3132 190.337 28.1908 190.154C35.9109 206.919 47.727 221.483 62.5561 232.513C65.3693 234.608 68.2766 236.568 71.2777 238.392C72.6132 239.204 73.9639 239.986 75.3298 240.738C75.0084 241.763 75.0831 242.871 75.5392 243.845C75.9953 244.818 76.7999 245.586 77.795 245.998C78.7901 246.411 79.9037 246.437 80.9171 246.072C81.9305 245.707 82.7705 244.977 83.2721 244.026C83.7737 243.076 83.9006 241.972 83.628 240.933C83.3553 239.893 82.7027 238.993 81.7985 238.409C80.8942 237.824 79.8036 237.598 78.7408 237.775C77.678 237.952 76.7199 238.518 76.0546 239.364C71.6896 236.955 67.4937 234.253 63.4958 231.277C48.8807 220.408 37.2331 206.056 29.6192 189.537C30.2005 189.123 30.6535 188.555 30.9264 187.897C31.1993 187.239 31.2811 186.517 31.1624 185.815C31.0438 185.113 30.7296 184.458 30.2555 183.925C29.7815 183.393 29.1668 183.004 28.4817 182.803C27.7966 182.602 27.0686 182.597 26.3809 182.789C25.6932 182.981 25.0735 183.362 24.5926 183.888C24.1116 184.415 23.7888 185.066 23.6611 185.766C23.5333 186.467 23.6057 187.189 23.8699 187.851L23.8716 187.843ZM76.9667 239.861C77.4428 239.317 78.0844 238.944 78.7933 238.799C79.5023 238.654 80.2394 238.744 80.8918 239.057H80.9065C81.4668 239.329 81.9385 239.754 82.267 240.282C82.5955 240.81 82.7674 241.42 82.7628 242.042C82.7583 242.663 82.5774 243.271 82.2413 243.794C81.9051 244.318 81.4272 244.735 80.8629 244.999C80.2987 245.264 79.671 245.363 79.0525 245.286C78.4339 245.21 77.8498 244.96 77.3675 244.566C76.8852 244.172 76.5245 243.651 76.3271 243.061C76.1296 242.472 76.1035 241.838 76.2517 241.235L76.9667 239.856V239.861Z" fill="#5C4444"/>
<path d="M6.88 166.231C7.02797 167.11 7.48148 167.909 8.16103 168.488C8.84059 169.067 9.70283 169.389 10.5967 169.398C12.1687 176.712 14.4167 183.865 17.3117 190.766C20.1785 197.594 23.6734 204.143 27.7516 210.327C27.027 211.047 26.5818 212 26.495 213.016C26.4083 214.032 26.6856 215.046 27.2776 215.877C27.289 215.893 27.3037 215.911 27.3151 215.929C27.7971 216.583 28.455 217.088 29.2126 217.386C29.9702 217.683 30.7967 217.761 31.5966 217.61C32.3966 217.458 33.1373 217.085 33.7334 216.532C34.3294 215.979 34.7565 215.269 34.9651 214.484C35.1738 213.699 35.1556 212.872 34.9127 212.097C34.6698 211.322 34.212 210.631 33.5922 210.105C32.9725 209.578 32.216 209.237 31.4102 209.121C30.6044 209.005 29.7821 209.119 29.0382 209.449C20.9677 197.149 15.2354 183.472 12.1276 169.104C12.7857 168.825 13.3519 168.367 13.7612 167.782C14.1706 167.197 14.4066 166.51 14.4423 165.797C14.4781 165.085 14.3121 164.377 13.9633 163.755C13.6146 163.132 13.0971 162.62 12.4702 162.277C11.8433 161.934 11.1322 161.774 10.4183 161.815C9.70439 161.856 9.01648 162.097 8.43327 162.509C7.85005 162.922 7.39507 163.49 7.12039 164.148C6.8457 164.807 6.76239 165.529 6.88 166.232V166.231ZM28.3249 211.203L29.605 210.318C30.2658 210.065 30.9902 210.031 31.6722 210.219C32.3542 210.406 32.9579 210.807 33.395 211.362L33.4536 211.44L33.5318 211.547C33.877 212.058 34.0717 212.655 34.0937 213.271C34.1157 213.886 33.9642 214.496 33.6563 215.03C33.3484 215.564 32.8965 216.001 32.3519 216.292C31.8073 216.583 31.1919 216.715 30.5755 216.675C29.9591 216.634 29.3665 216.422 28.8649 216.062C28.3634 215.703 27.9729 215.21 27.738 214.641C27.5031 214.071 27.4331 213.447 27.536 212.84C27.6389 212.232 27.9105 211.666 28.32 211.205L28.3249 211.203Z" fill="#5C4444"/>
<path d="M4.4713 195.686C4.85402 196.641 5.56715 197.429 6.48161 197.905C7.39607 198.382 8.45144 198.517 9.4567 198.285C18.5969 218.3 32.6584 235.688 50.3367 248.837C53.6603 251.313 57.0805 253.618 60.5974 255.753C64.2597 257.98 68.0144 260.018 71.8614 261.868C72.3293 262.094 72.7989 262.316 73.2702 262.534C94.3715 272.379 117.729 276.42 140.922 274.237L141.737 274.164L140.33 264.064C152.443 262.903 164.312 259.926 175.535 255.235C187.087 250.419 197.81 243.826 207.312 235.696C208.162 236.355 209.229 236.673 210.302 236.588C211.375 236.503 212.377 236.021 213.112 235.237C213.847 234.453 214.262 233.423 214.274 232.349C214.287 231.276 213.896 230.236 213.18 229.435C212.463 228.634 211.472 228.129 210.401 228.02C209.33 227.91 208.257 228.204 207.392 228.843C206.527 229.482 205.933 230.42 205.726 231.474C205.519 232.527 205.715 233.62 206.275 234.537C175.877 260.538 135.181 268.957 98.0164 259.076L100.906 250.916C121.796 256.302 143.807 255.5 164.248 248.61C185.522 241.439 203.896 228.131 217.381 210.118C229.251 194.273 236.63 175.537 238.746 155.872C240.861 136.207 237.634 116.336 229.404 98.3417C230.241 97.7323 230.83 96.8436 231.065 95.8372C231.3 94.8309 231.165 93.7739 230.684 92.8586C230.671 92.8327 230.656 92.8083 230.642 92.7807C230.25 92.0738 229.667 91.4911 228.959 91.0991C228.25 90.7072 227.446 90.5219 226.637 90.5643C225.828 90.6068 225.048 90.8753 224.385 91.3393C223.722 91.8032 223.203 92.4437 222.888 93.1878C222.573 93.9318 222.474 94.7492 222.603 95.5466C222.732 96.3439 223.083 97.0891 223.616 97.6969C224.15 98.3046 224.844 98.7504 225.619 98.9834C226.395 99.2163 227.22 99.227 228.002 99.0141C240.054 125.345 241.013 154.633 231.422 180.997L223.252 178.006C229.461 160.816 230.83 142.26 227.21 124.35C223.591 106.44 215.121 89.8605 202.721 76.411L209.923 69.169L209.407 68.6217C198.893 57.4916 186.193 48.6402 172.099 42.6193C165.462 39.7979 158.564 37.6339 151.502 36.1585C151.486 35.2186 151.121 34.3183 150.477 33.6314C149.834 32.9445 148.958 32.5199 148.019 32.4397C147.08 32.3594 146.144 32.6292 145.393 33.1969C144.641 33.7647 144.128 34.5899 143.951 35.5133C143.775 36.4366 143.948 37.3924 144.437 38.1959C144.926 38.9994 145.697 39.5936 146.6 39.8635C147.502 40.1334 148.474 40.0599 149.325 39.6573C150.177 39.2546 150.849 38.5514 151.211 37.6835C166.74 40.9204 181.115 47.4007 193.988 56.9847C198.909 60.6472 203.513 64.7136 207.754 69.1414L201.656 75.2741C189.781 62.8051 174.904 53.5741 158.441 48.4597C149.328 45.6458 139.858 44.1488 130.32 44.0144C130.125 42.995 129.567 42.0801 128.75 41.438C127.932 40.7958 126.91 40.4696 125.87 40.5193H125.779C125.763 40.5209 125.747 40.5209 125.732 40.5193C124.927 40.5842 124.158 40.8727 123.51 41.3519C122.861 41.8312 122.361 42.482 122.065 43.2305C121.769 43.979 121.689 44.7953 121.835 45.5867C121.981 46.378 122.346 47.1128 122.89 47.7076C123.433 48.3024 124.133 48.7334 124.909 48.9517C125.686 49.17 126.508 49.1668 127.283 48.9426C128.058 48.7183 128.754 48.282 129.293 47.683C129.832 47.0841 130.191 46.3465 130.331 45.5541C151.193 45.8464 171.004 52.5736 187.877 65.1347C211.783 82.9336 225.798 110.414 227.383 139.033L208.588 139.52C207.463 119.797 199.03 101.194 184.926 87.3219C170.821 73.4498 152.051 65.2982 132.259 64.4493C132.083 63.5265 131.57 62.7016 130.819 62.1342C130.068 61.5667 129.133 61.2969 128.195 61.377C127.256 61.457 126.38 61.8812 125.737 62.5676C125.094 63.2539 124.728 64.1537 124.712 65.093C124.695 66.0323 125.028 66.9444 125.646 67.6531C126.265 68.3618 127.125 68.8167 128.06 68.9299C128.995 69.0432 129.939 68.8067 130.71 68.2662C131.48 67.7257 132.023 66.9196 132.232 66.0036C147.97 66.6743 162.911 71.9788 175.656 81.467C184.934 88.3575 192.565 97.2145 197.997 107.4C203.43 117.585 206.529 128.846 207.071 140.369L207.107 141.13L227.456 140.598C227.975 153.397 225.959 166.173 221.523 178.194L221.254 178.925L230.873 182.456C227.23 192.008 222.267 201.006 216.127 209.189C194 238.748 159.294 254.611 123.502 252.816L124.038 242.596L123.261 242.554C103.841 241.502 85.169 234.736 69.6024 223.109C53.967 211.471 42.3463 195.835 35.7893 177.692C36.735 177.176 37.4532 176.327 37.8028 175.31C38.1524 174.293 38.1081 173.183 37.6787 172.197C37.2493 171.211 36.4658 170.421 35.4821 169.982C34.4983 169.543 33.3854 169.486 32.362 169.823C31.3385 170.16 30.4785 170.867 29.9508 171.804C29.4231 172.741 29.2659 173.842 29.51 174.888C29.7541 175.935 30.3819 176.853 31.2701 177.462C32.1584 178.071 33.2428 178.327 34.3104 178.179C40.9701 196.625 52.7813 212.518 68.6757 224.347C71.2359 226.254 73.8695 228.03 76.5764 229.676C90.4508 238.119 106.183 243.055 122.406 244.054L121.95 252.719C114.74 252.254 107.594 251.083 100.614 249.222L99.9187 249.037L96.5147 258.654C86.0476 255.724 76.0329 251.377 66.7505 245.734C63.5583 243.794 60.4389 241.692 57.3921 239.425C56.758 238.954 56.1266 238.475 55.498 237.988C55.9283 237.151 56.0322 236.185 55.7895 235.276C55.5469 234.367 54.975 233.581 54.1843 233.068C53.3937 232.555 52.4405 232.353 51.5091 232.501C50.5777 232.648 49.7342 233.135 49.1416 233.866C48.5491 234.598 48.2497 235.523 48.3013 236.462C48.3528 237.401 48.7517 238.287 49.4208 238.95C50.0899 239.613 50.9816 240.005 51.9236 240.05C52.8656 240.095 53.791 239.791 54.5208 239.195C55.1646 239.695 55.8118 240.187 56.4622 240.67C59.5534 242.973 62.7337 245.117 66.003 247.103C86.9003 259.803 111.186 265.844 135.616 264.419C136.675 264.358 137.731 264.283 138.786 264.195L139.979 272.758C113.32 275.067 86.598 269.089 63.4833 255.644C40.3686 242.199 21.9957 221.946 10.8883 197.669C11.5645 197.216 12.0984 196.582 12.4282 195.839C12.7581 195.096 12.8705 194.276 12.7525 193.472C12.6344 192.669 12.2907 191.915 11.7611 191.297C11.2315 190.68 10.5376 190.225 9.75961 189.985C8.98161 189.744 8.15125 189.729 7.36452 189.939C6.57778 190.149 5.86678 190.577 5.31369 191.173C4.76059 191.77 4.38798 192.51 4.23891 193.308C4.08985 194.107 4.17041 194.931 4.4713 195.686ZM35.4505 176.724L33.97 177.211C33.3472 177.262 32.723 177.134 32.1697 176.845C31.6164 176.556 31.1568 176.116 30.8442 175.576C30.5316 175.037 30.3789 174.42 30.4038 173.797C30.4287 173.175 30.6301 172.572 30.9847 172.059C31.3393 171.546 31.8325 171.144 32.4072 170.899C32.9818 170.654 33.6142 170.577 34.231 170.677C34.8478 170.776 35.4237 171.048 35.8918 171.461C36.3599 171.873 36.701 172.41 36.8756 173.008C36.8756 173.031 36.8886 173.054 36.8935 173.075C37.0761 173.757 37.0345 174.48 36.7748 175.136C36.515 175.793 36.0509 176.35 35.4505 176.724ZM126.243 48.1056H126.173C125.551 48.1231 124.937 47.9651 124.401 47.6497C123.865 47.3344 123.43 46.8745 123.144 46.3231C122.859 45.7717 122.736 45.1512 122.789 44.533C122.842 43.9149 123.069 43.3242 123.444 42.8289C123.818 42.3337 124.326 41.9541 124.907 41.7339C125.489 41.5137 126.121 41.4617 126.731 41.5841C127.341 41.7064 127.904 41.9981 128.355 42.4255C128.806 42.8529 129.127 43.3986 129.281 43.9998C129.335 44.2124 129.368 44.4301 129.378 44.6494C129.421 45.5216 129.115 46.3752 128.527 47.0224C127.939 47.6695 127.118 48.0574 126.243 48.1007V48.1056ZM228.967 97.4046C228.792 97.5493 228.602 97.6756 228.401 97.7814C228.139 97.9186 227.859 98.0197 227.57 98.0819C226.875 98.2324 226.15 98.1557 225.502 97.8632C224.854 97.5707 224.318 97.0779 223.972 96.4577L223.94 96.3976C223.649 95.8466 223.522 95.2248 223.571 94.6043C223.621 93.9838 223.845 93.39 224.219 92.8916C224.593 92.3933 225.102 92.0109 225.685 91.7887C226.268 91.5665 226.902 91.5136 227.514 91.6362C228.126 91.7588 228.691 92.0518 229.142 92.4813C229.594 92.9107 229.915 93.4591 230.067 94.0628C230.219 94.6665 230.197 95.3008 230.002 95.8923C229.807 96.4837 229.449 97.0081 228.967 97.4046ZM207.062 233.864C206.717 233.229 206.593 232.498 206.706 231.784C206.82 231.071 207.166 230.414 207.69 229.916L207.72 229.89C208.175 229.467 208.741 229.182 209.352 229.066C209.964 228.95 210.595 229.008 211.175 229.234C211.754 229.461 212.257 229.846 212.627 230.345C212.997 230.844 213.217 231.437 213.264 232.056C213.31 232.675 213.18 233.294 212.889 233.842C212.598 234.391 212.158 234.846 211.618 235.156C211.079 235.465 210.463 235.617 209.841 235.593C209.22 235.568 208.617 235.37 208.104 235.019L207.062 233.864ZM7.26449 191.036C7.66766 190.876 8.09847 190.797 8.53234 190.803C8.9662 190.809 9.39462 190.9 9.79313 191.071C10.1916 191.243 10.5524 191.49 10.8549 191.801C11.1574 192.111 11.3957 192.477 11.5561 192.879C11.7165 193.281 11.7959 193.711 11.7898 194.144C11.7837 194.576 11.6923 195.004 11.5206 195.401C11.349 195.798 11.1005 196.158 10.7894 196.46C10.4783 196.761 10.1107 196.999 9.70752 197.159C9.49197 197.245 9.26745 197.307 9.03813 197.344C8.23442 197.478 7.40956 197.31 6.7221 196.874C6.03464 196.438 5.53309 195.764 5.31387 194.981C5.09465 194.199 5.17323 193.363 5.53449 192.635C5.89576 191.907 6.51423 191.337 7.271 191.036H7.26449Z" fill="#5C4444"/>
<path d="M216.659 69.0419C217.314 69.7768 218.201 70.2662 219.174 70.4287C220.146 70.5912 221.145 70.417 222.004 69.9352C252.154 107.566 256.575 160.237 232.721 202.422L232.361 203.059L240.938 208.604C238.378 213.023 235.561 217.288 232.499 221.378C218.33 240.356 199.185 255.07 177.171 263.899C176.662 263.109 175.877 262.536 174.968 262.29C174.06 262.044 173.092 262.142 172.252 262.566C171.411 262.99 170.759 263.709 170.42 264.585C170.08 265.461 170.079 266.432 170.415 267.309C170.752 268.186 171.402 268.907 172.241 269.334C173.08 269.76 174.048 269.862 174.957 269.618C175.867 269.375 176.653 268.804 177.165 268.016C177.677 267.228 177.878 266.278 177.728 265.351C200.019 256.418 219.406 241.525 233.755 222.312C252.746 196.947 261.786 165.925 259.438 134.499C260.426 134.222 261.282 133.602 261.854 132.752C262.425 131.903 262.675 130.878 262.558 129.861C262.558 129.846 262.558 129.831 262.558 129.815C262.456 129.01 262.128 128.251 261.612 127.623C261.096 126.996 260.412 126.528 259.64 126.271C258.868 126.015 258.039 125.982 257.249 126.175C256.458 126.368 255.739 126.78 255.173 127.364C254.608 127.947 254.219 128.678 254.052 129.472C253.885 130.266 253.947 131.091 254.23 131.852C254.513 132.613 255.006 133.278 255.652 133.772C256.298 134.265 257.071 134.566 257.881 134.641C259.786 159.905 254.16 185.167 241.71 207.253L234.438 202.543C258.205 159.904 253.612 106.871 223.2 68.9364C223.729 68.3037 224.065 67.533 224.167 66.7157C224.27 65.8984 224.136 65.0688 223.78 64.3255C223.424 63.5822 222.862 62.9563 222.16 62.5222C221.458 62.0881 220.645 61.864 219.819 61.8765C218.993 61.889 218.189 62.1376 217.5 62.5927C216.812 63.0479 216.269 63.6905 215.935 64.4443C215.602 65.198 215.493 66.0313 215.621 66.8451C215.748 67.6589 216.108 68.4191 216.656 69.0354L216.659 69.0419ZM259.35 133.462L257.804 133.613C257.003 133.5 256.272 133.098 255.748 132.483C255.224 131.868 254.944 131.084 254.962 130.277C254.979 129.471 255.292 128.698 255.842 128.107C256.392 127.515 257.141 127.145 257.946 127.067C258.751 126.988 259.557 127.207 260.211 127.681C260.866 128.156 261.323 128.853 261.496 129.641C261.67 130.428 261.548 131.252 261.153 131.957C260.759 132.661 260.119 133.196 259.355 133.462H259.35ZM217.696 63.7212C218.307 63.1829 219.095 62.8885 219.91 62.8946C220.724 62.9007 221.508 63.2069 222.11 63.7543C222.712 64.3017 223.09 65.0517 223.171 65.8602C223.252 66.6686 223.031 67.4785 222.55 68.134C222.238 68.5575 221.829 68.9005 221.358 69.1345C220.708 69.456 219.97 69.5555 219.258 69.4176C218.546 69.2796 217.9 68.9119 217.418 68.3711C217.408 68.358 217.397 68.3455 217.385 68.3338L217.372 68.3192C216.814 67.6621 216.535 66.8135 216.596 65.9544C216.657 65.0954 217.051 64.294 217.696 63.7212Z" fill="#5C4444"/>
<path d="M128.855 24.4032C128.841 25.3314 129.169 26.2324 129.776 26.9361C130.383 27.6398 131.227 28.0973 132.15 28.2223C133.072 28.3472 134.008 28.131 134.782 27.6143C135.555 27.0977 136.112 26.3165 136.347 25.4183C158.568 26.803 179.951 34.3962 198.048 47.3295L198.668 47.7713L204.778 39.6133C205.255 39.9587 205.732 40.3073 206.206 40.6592C227.89 56.8047 243.628 78.7159 251.897 104.216C251.07 104.667 250.44 105.406 250.128 106.293C249.817 107.179 249.845 108.149 250.209 109.016C250.573 109.882 251.246 110.584 252.098 110.984C252.95 111.385 253.921 111.456 254.823 111.184C255.724 110.913 256.493 110.317 256.981 109.514C257.468 108.71 257.639 107.754 257.461 106.832C257.283 105.909 256.768 105.085 256.016 104.519C255.265 103.953 254.329 103.685 253.391 103.767C245.869 80.6236 232.015 60.0356 213.39 44.3234C194.764 28.6111 172.108 18.3992 147.974 14.8387C147.921 13.8142 147.502 12.8423 146.795 12.098C146.087 11.3536 145.136 10.8857 144.112 10.7784H144.085C143.274 10.6991 142.458 10.8501 141.73 11.214C141.002 11.5779 140.392 12.1398 139.97 12.8348C139.549 13.5298 139.333 14.3295 139.348 15.1415C139.363 15.9535 139.608 16.7447 140.055 17.4236C140.502 18.1025 141.133 18.6415 141.874 18.9783C142.615 19.315 143.436 19.4358 144.244 19.3267C145.051 19.2175 145.81 18.8829 146.435 18.3615C147.059 17.8401 147.523 17.1531 147.772 16.38C167.85 19.3627 186.944 27.0114 203.512 38.7086L198.335 45.6226C180.122 32.7791 158.685 25.2435 136.422 23.8591C136.271 22.922 135.773 22.0752 135.027 21.4858C134.281 20.8964 133.34 20.6069 132.391 20.6746C131.441 20.7423 130.552 21.1621 129.897 21.8513C129.243 22.5406 128.871 23.4493 128.855 24.3984V24.4032ZM143.34 18.3387C142.69 18.2752 142.073 18.0206 141.567 17.6073C141.062 17.194 140.691 16.6404 140.501 16.0167C140.311 15.393 140.31 14.7271 140.5 14.1032C140.69 13.4794 141.061 12.9256 141.566 12.512C142.071 12.0984 142.688 11.8435 143.339 11.7796C143.989 11.7156 144.644 11.8455 145.221 12.1528C145.797 12.4602 146.269 12.9311 146.577 13.506C146.885 14.0809 147.015 14.7341 146.951 15.3828C146.923 15.6774 146.853 15.9667 146.744 16.242C146.485 16.9144 146.011 17.4834 145.397 17.8621C144.782 18.2407 144.06 18.4081 143.34 18.3387Z" fill="#5C4444"/>
<path d="M2.11754 204.846C2.95361 204.431 3.91338 204.337 4.81439 204.582C5.71539 204.826 6.49482 205.393 7.00448 206.173C7.51414 206.953 7.7185 207.893 7.5787 208.814C7.43891 209.735 6.96471 210.572 6.24626 211.167C15.8555 228.685 28.9387 243.672 45.1718 255.756C52.2591 261.035 59.8295 265.637 67.7828 269.499L72.2454 261.161L73.62 261.894L68.4457 271.543L67.7731 271.218C63.5267 269.186 59.3852 266.943 55.3641 264.497C51.5432 262.177 47.8325 259.676 44.2321 256.995C35.4881 250.493 27.5245 243.008 20.4989 234.688C14.5467 227.623 9.30947 219.99 4.86351 211.898C3.94929 212.162 2.96892 212.075 2.1156 211.655C1.26228 211.234 0.597882 210.51 0.253329 209.625C-0.091224 208.74 -0.090944 207.759 0.254114 206.874C0.599172 205.99 1.26398 205.266 2.11754 204.846Z" fill="#5C4444"/>
<path d="M94.8094 280.103C94.6038 280.983 94.7192 281.907 95.1351 282.71C95.551 283.512 96.2401 284.141 97.0787 284.482C97.9173 284.824 98.8505 284.857 99.711 284.574C100.571 284.291 101.303 283.712 101.774 282.941C101.865 282.793 101.945 282.639 102.013 282.479C120.854 286.093 140.235 285.845 158.977 281.751C177.719 277.657 195.43 269.803 211.031 258.666C211.822 259.399 212.859 259.81 213.938 259.818C215.017 259.827 216.061 259.433 216.864 258.714C217.666 257.994 218.17 257.001 218.276 255.93C218.382 254.859 218.083 253.787 217.437 252.925C216.791 252.063 215.844 251.473 214.784 251.271C213.724 251.069 212.627 251.27 211.707 251.834C210.788 252.398 210.113 253.284 209.816 254.319C209.519 255.353 209.62 256.462 210.101 257.425C194.687 268.455 177.178 276.232 158.646 280.279C140.114 284.327 120.948 284.56 102.323 280.964C102.321 280.032 101.975 279.134 101.353 278.439C100.73 277.745 99.8726 277.303 98.9443 277.197C98.0159 277.092 97.0811 277.33 96.3175 277.867C95.5539 278.404 95.0149 279.202 94.8029 280.11L94.8094 280.103ZM210.935 256.816C210.615 256.074 210.58 255.241 210.835 254.475C211.09 253.708 211.618 253.062 212.319 252.658C213.021 252.253 213.846 252.12 214.639 252.281C215.433 252.443 216.139 252.89 216.625 253.536C217.11 254.183 217.341 254.984 217.274 255.789C217.207 256.594 216.846 257.346 216.26 257.903C215.673 258.46 214.903 258.784 214.093 258.813C213.284 258.842 212.492 258.573 211.868 258.059L210.936 256.82C210.936 256.82 210.943 256.816 210.941 256.816H210.935Z" fill="#5C4444"/>
<path d="M225.951 245.288C226.621 245.955 227.516 246.349 228.461 246.394C229.406 246.438 230.334 246.131 231.064 245.531C231.795 244.931 232.275 244.081 232.411 243.147C232.548 242.213 232.331 241.262 231.803 240.479C238.76 233.058 244.902 224.918 250.126 216.197C251.141 216.55 252.253 216.511 253.241 216.089C254.23 215.666 255.025 214.89 255.469 213.914C255.914 212.937 255.976 211.83 255.644 210.81C255.312 209.789 254.609 208.93 253.674 208.4C252.739 207.87 251.639 207.707 250.59 207.944C249.541 208.182 248.619 208.801 248.005 209.682C247.39 210.562 247.128 211.64 247.27 212.703C247.412 213.767 247.947 214.739 248.77 215.429C246.283 219.577 243.584 223.596 240.684 227.47C239.13 229.546 237.518 231.581 235.847 233.575C234.176 235.57 232.455 237.51 230.686 239.398C229.894 238.896 228.944 238.704 228.019 238.858C227.094 239.012 226.258 239.5 225.671 240.23C225.085 240.96 224.789 241.88 224.841 242.814C224.892 243.748 225.288 244.63 225.951 245.292V245.288ZM249.3 214.548C248.765 214.051 248.41 213.391 248.292 212.671C248.174 211.951 248.3 211.212 248.648 210.571C248.945 210.026 249.391 209.576 249.933 209.272C250.475 208.969 251.092 208.824 251.713 208.855C252.334 208.885 252.934 209.09 253.444 209.446C253.953 209.801 254.352 210.293 254.593 210.864C254.835 211.436 254.91 212.064 254.81 212.676C254.709 213.288 254.438 213.859 254.027 214.324C253.615 214.789 253.08 215.128 252.484 215.304C251.887 215.479 251.253 215.483 250.655 215.315L249.3 214.548Z" fill="#5C4444"/>
<path d="M245.507 74.2074C246.028 75.0438 246.82 75.6772 247.753 76.0022C248.685 76.3273 249.7 76.3243 250.631 75.9939C271.043 112.347 274.084 156.212 258.857 194.937C257.93 194.766 256.972 194.943 256.168 195.434C255.365 195.926 254.772 196.697 254.505 197.599C254.239 198.501 254.317 199.469 254.724 200.317C255.132 201.165 255.84 201.832 256.713 202.189C257.585 202.547 258.559 202.569 259.446 202.252C260.334 201.935 261.072 201.301 261.518 200.472C261.965 199.644 262.087 198.68 261.862 197.767C261.637 196.854 261.08 196.056 260.3 195.529C275.711 156.358 272.631 111.983 251.981 75.2127C252.608 74.6772 253.068 73.9736 253.306 73.1853C253.544 72.397 253.551 71.5571 253.325 70.7652C253.098 69.9734 252.649 69.2628 252.031 68.7178C251.412 68.1727 250.649 67.8161 249.833 67.6903C249.017 67.5644 248.182 67.6745 247.427 68.0076C246.672 68.3406 246.029 68.8827 245.574 69.5694C245.118 70.2561 244.87 71.0586 244.858 71.8819C244.846 72.7051 245.071 73.5144 245.507 74.2139V74.2074ZM247.43 69.1385C248.123 68.7085 248.95 68.5494 249.754 68.6917C250.557 68.8341 251.279 69.2679 251.781 69.9095C252.282 70.5511 252.528 71.3552 252.471 72.1667C252.413 72.9783 252.056 73.7399 251.469 74.3048C251.302 74.4675 251.118 74.6113 250.919 74.7336C250.671 74.8878 250.404 75.008 250.124 75.0909C249.43 75.2959 248.688 75.2684 248.012 75.0126C247.335 74.7568 246.761 74.2868 246.378 73.6747L246.342 73.6162C245.902 72.8758 245.769 71.9931 245.972 71.1565C246.176 70.3199 246.699 69.5957 247.43 69.1385Z" fill="#5C4444"/>
<path d="M115.893 4.62576C115.973 5.68662 116.445 6.68018 117.216 7.41472C117.988 8.14927 119.005 8.57273 120.072 8.60341C121.138 8.63409 122.178 8.2698 122.991 7.58085C123.804 6.8919 124.332 5.9271 124.474 4.87263C156.044 3.91783 187.007 13.6527 212.319 32.491C214.415 34.0535 216.471 35.6744 218.485 37.3537C220.499 39.0331 222.457 40.766 224.36 42.5526C223.852 43.3457 223.658 44.2983 223.814 45.226C223.97 46.1537 224.466 46.9908 225.205 47.5754C225.944 48.16 226.874 48.4507 227.816 48.3912C228.757 48.3317 229.643 47.9262 230.302 47.2532C230.961 46.5802 231.347 45.6875 231.384 44.7475C231.422 43.8075 231.108 42.8871 230.505 42.1641C229.901 41.4411 229.05 40.9669 228.117 40.8332C227.183 40.6995 226.232 40.9157 225.449 41.44C221.575 37.8228 217.503 34.4231 213.25 31.2567C187.675 12.1521 156.339 2.30034 124.401 3.3232C124.169 2.33782 123.598 1.46498 122.786 0.857471C121.975 0.249966 120.974 -0.0534908 119.961 0.00022146H119.94H119.875L119.748 0.0115904C118.629 0.129207 117.601 0.676981 116.881 1.53855C116.161 2.40013 115.807 3.50761 115.893 4.62576ZM119.95 1.02018C120.7 0.964824 121.447 1.16644 122.066 1.59169C122.686 2.01694 123.142 2.64037 123.358 3.35893C123.428 3.5867 123.472 3.82149 123.489 4.05894C123.51 4.34514 123.494 4.63295 123.44 4.91485C123.306 5.62446 122.942 6.27048 122.403 6.75351C121.865 7.23653 121.183 7.5298 120.461 7.58818H120.422C119.548 7.65064 118.685 7.36438 118.023 6.79237C117.361 6.22036 116.954 5.40946 116.891 4.53805C116.828 3.66665 117.115 2.80613 117.689 2.14579C118.263 1.48545 119.076 1.07939 119.95 1.01693V1.02018Z" fill="#5C4444"/>
<path d="M203.161 152.908C203.076 153.871 203.32 154.835 203.851 155.643C204.383 156.452 205.173 157.058 206.092 157.365C205.02 163.665 203.169 169.809 200.582 175.656C199.666 175.437 198.701 175.564 197.873 176.014C197.045 176.464 196.414 177.203 196.101 178.09C195.789 178.976 195.817 179.947 196.18 180.814C196.543 181.682 197.216 182.384 198.068 182.785C198.921 183.186 199.892 183.259 200.794 182.987C201.697 182.716 202.466 182.121 202.954 181.317C203.442 180.513 203.614 179.557 203.437 178.634C203.259 177.711 202.745 176.887 201.993 176.32C204.646 170.333 206.541 164.041 207.635 157.587C208.672 157.544 209.659 157.131 210.415 156.422C211.171 155.713 211.646 154.756 211.754 153.727C211.754 153.705 211.754 153.683 211.754 153.662C211.803 153.099 211.741 152.531 211.571 151.992C211.4 151.453 211.125 150.953 210.761 150.52C210.397 150.087 209.95 149.729 209.448 149.468C208.945 149.207 208.396 149.047 207.831 148.998C207.266 148.949 206.697 149.011 206.157 149.18C205.616 149.35 205.114 149.625 204.68 149.988C204.246 150.351 203.888 150.796 203.626 151.297C203.364 151.799 203.204 152.347 203.154 152.91L203.161 152.908ZM207.75 150.004C208.568 150.076 209.329 150.45 209.886 151.052C210.442 151.653 210.754 152.44 210.761 153.259C210.767 154.077 210.468 154.869 209.921 155.479C209.374 156.09 208.619 156.475 207.802 156.561C207.593 156.58 207.382 156.58 207.172 156.561C206.859 156.534 206.551 156.462 206.258 156.346C205.597 156.088 205.036 155.624 204.66 155.022C204.283 154.421 204.111 153.715 204.169 153.009C204.168 153.003 204.168 152.998 204.169 152.992C204.169 152.992 204.169 152.981 204.169 152.976C204.169 152.971 204.169 152.924 204.169 152.924C204.168 152.922 204.168 152.919 204.169 152.916C204.266 152.06 204.695 151.276 205.364 150.732C206.034 150.188 206.89 149.926 207.75 150.004Z" fill="#5C4444"/>
<path d="M208.635 103.133C209.667 102.662 210.844 102.615 211.911 103.002C212.977 103.389 213.848 104.179 214.335 105.202C214.335 105.221 214.353 105.239 214.361 105.259C214.37 105.278 214.383 105.304 214.392 105.327C214.396 105.338 214.4 105.348 214.405 105.358L214.418 105.385C214.419 105.382 214.419 105.379 214.418 105.376C214.418 105.385 214.418 105.394 214.43 105.405C214.828 106.378 214.856 107.463 214.509 108.456C214.161 109.448 213.463 110.28 212.544 110.795C213.956 114.325 215.142 117.94 216.096 121.619C217.038 121.596 217.954 121.923 218.669 122.536C219.383 123.148 219.844 124.003 219.963 124.935C220.082 125.867 219.851 126.81 219.313 127.581C218.776 128.353 217.971 128.898 217.053 129.112C216.136 129.326 215.172 129.194 214.347 128.74C213.522 128.286 212.895 127.543 212.587 126.656C212.279 125.768 212.312 124.798 212.68 123.933C213.048 123.068 213.724 122.369 214.578 121.973C213.636 118.344 212.464 114.778 211.068 111.297C210.042 111.445 208.997 111.22 208.124 110.663C207.251 110.106 206.608 109.255 206.313 108.264C206.017 107.273 206.09 106.209 206.516 105.267C206.942 104.325 207.695 103.567 208.635 103.133Z" fill="#5C4444"/>
<path d="M161.456 108.459C154.81 109.406 140.756 109.708 127.865 98.9365C127.264 98.4338 126.505 98.1582 125.72 98.1582C124.936 98.1582 124.177 98.4338 123.576 98.9365C110.687 109.708 96.6314 109.406 89.9864 108.459C89.5049 108.39 89.0143 108.429 88.5493 108.571C88.0843 108.713 87.6564 108.955 87.296 109.281C86.9356 109.606 86.6516 110.007 86.4641 110.454C86.2766 110.902 86.1902 111.385 86.2111 111.869C88.4375 161.682 116.952 180.767 124.106 184.79C124.6 185.067 125.157 185.213 125.724 185.213C126.291 185.213 126.848 185.067 127.342 184.79C134.49 180.769 163 161.682 165.235 111.866C165.255 111.382 165.168 110.899 164.98 110.452C164.792 110.004 164.508 109.604 164.147 109.279C163.786 108.954 163.358 108.712 162.893 108.57C162.428 108.428 161.938 108.39 161.456 108.459ZM131.627 155.198H119.816C119.679 155.198 119.545 155.166 119.423 155.105C119.302 155.043 119.196 154.955 119.115 154.845C119.034 154.736 118.98 154.61 118.957 154.476C118.934 154.342 118.942 154.204 118.982 154.074L122.856 141.344C122.913 141.155 122.904 140.951 122.83 140.768C122.756 140.584 122.622 140.431 122.449 140.332C121.204 139.614 120.232 138.506 119.683 137.181C119.133 135.855 119.038 134.386 119.411 133.001C119.784 131.616 120.604 130.392 121.745 129.519C122.887 128.647 124.285 128.174 125.723 128.174C127.161 128.174 128.559 128.647 129.7 129.519C130.842 130.392 131.662 131.616 132.035 133.001C132.408 134.386 132.313 135.855 131.763 137.181C131.214 138.506 130.241 139.614 128.997 140.332C128.824 140.431 128.689 140.584 128.615 140.768C128.54 140.952 128.53 141.156 128.586 141.346L132.462 154.076C132.501 154.206 132.51 154.343 132.486 154.477C132.462 154.611 132.408 154.737 132.327 154.846C132.246 154.955 132.14 155.043 132.019 155.105C131.897 155.166 131.763 155.198 131.627 155.198Z" fill="#5C4444"/>
</g>
<defs>
<clipPath id="clip0_317_1541">
<rect width="270" height="285" fill="white"/>
</clipPath>
</defs>
</svg>
