<svg width="1550" height="683" viewBox="0 0 1550 683" fill="none" xmlns="http://www.w3.org/2000/svg">
<g clip-path="url(#clip0_382_1266)">
<path d="M1598.94 645H1349.06L1224 428.617L1349.06 212L1598.94 212L1724 428.383L1598.94 644.765V645ZM1363.14 620.592H1584.86L1695.61 428.617L1584.86 236.408L1363.14 236.408L1252.39 428.383L1363.14 620.358V620.592Z" fill="#DA0000" fill-opacity="0.05"/>
<path d="M62.6007 218.355L-25.7595 253.556L-100.474 194.69L-86.7784 100.508L1.58186 65.3082L76.2964 124.174L62.5676 218.272L62.6007 218.355ZM-24.221 242.945L54.1831 211.711L66.2904 128.256L0.0433794 75.9184L-78.3608 107.152L-90.468 190.608L-24.2541 242.862L-24.221 242.945Z" fill="#DA0000" fill-opacity="0.1"/>
<path d="M240.851 244.615L152.491 279.815L77.7761 220.95L91.5048 126.851L179.865 91.651L254.58 150.517L240.851 244.615ZM154.029 269.205L232.433 237.971L244.541 154.516L178.327 102.261L99.9224 133.495L87.8151 216.951L154.029 269.205Z" fill="#DA0000" fill-opacity="0.1"/>
<path d="M127.843 382.009L39.4828 417.209L-35.2317 358.343L-21.503 264.245L66.8573 229.045L141.572 287.91L127.843 382.009ZM41.0213 406.599L119.425 375.365L131.533 291.909L65.3188 239.655L-13.0854 270.889L-25.1927 354.344L41.0213 406.599Z" fill="#DA0000" fill-opacity="0.1"/>
</g>
<defs>
<clipPath id="clip0_382_1266">
<rect width="1550" height="683" fill="white"/>
</clipPath>
</defs>
</svg>
