<svg width="1550" height="967" viewBox="0 0 1550 967" fill="none" xmlns="http://www.w3.org/2000/svg">
<g clip-path="url(#clip0_382_1266)">
<path d="M1598.94 795H1349.06L1224 578.617L1349.06 362H1598.94L1724 578.383L1598.94 794.765V795ZM1363.14 770.592H1584.86L1695.61 578.617L1584.86 386.408H1363.14L1252.39 578.383L1363.14 770.358V770.592Z" fill="#DA0000" fill-opacity="0.05"/>
<path d="M62.6007 368.355L-25.7595 403.556L-100.474 344.69L-86.7784 250.508L1.58186 215.308L76.2964 274.174L62.5676 368.272L62.6007 368.355ZM-24.221 392.945L54.1831 361.711L66.2904 278.256L0.0433794 225.918L-78.3608 257.152L-90.468 340.608L-24.2541 392.862L-24.221 392.945Z" fill="#DA0000" fill-opacity="0.1"/>
<path d="M240.851 394.615L152.491 429.815L77.7761 370.95L91.5048 276.851L179.865 241.651L254.58 300.517L240.851 394.615ZM154.029 419.205L232.433 387.971L244.541 304.516L178.327 252.261L99.9224 283.495L87.8151 366.951L154.029 419.205Z" fill="#DA0000" fill-opacity="0.1"/>
<path d="M127.843 532.009L39.4828 567.209L-35.2317 508.343L-21.503 414.245L66.8573 379.045L141.572 437.91L127.843 532.009ZM41.0213 556.599L119.425 525.365L131.533 441.909L65.3188 389.655L-13.0854 420.889L-25.1927 504.344L41.0213 556.599Z" fill="#DA0000" fill-opacity="0.1"/>
</g>
<defs>
<clipPath id="clip0_382_1266">
<rect width="1550" height="967" fill="white"/>
</clipPath>
</defs>
</svg>
