<svg width="648" height="656" viewBox="0 0 648 656" fill="none" xmlns="http://www.w3.org/2000/svg">
<g filter="url(#filter0_d_399_11456)">
<path d="M75.9101 0L644 0.336294V648H4V576.937V71.8492C28.719 47.1121 52.5226 24.3319 75.9101 0Z" fill="white"/>
</g>
<path d="M490.656 495.479C489.32 495.479 487.985 495.133 486.792 494.442L430.238 461.578C430.024 461.454 429.951 461.177 430.075 460.963C430.198 460.746 430.475 460.675 430.691 460.799L487.245 493.663C489.344 494.881 491.953 494.885 494.051 493.673L550.994 460.799C551.204 460.675 551.482 460.746 551.609 460.964C551.732 461.18 551.658 461.455 551.444 461.579L494.501 494.453C493.316 495.135 491.986 495.479 490.656 495.479Z" fill="#DBDEE4"/>
<path d="M539.839 460.854C536.582 462.735 536.564 465.784 539.8 467.665C543.035 469.545 548.3 469.544 551.558 467.663C554.814 465.783 554.83 462.735 551.595 460.854C548.358 458.975 543.095 458.974 539.839 460.854Z" fill="white"/>
<path d="M545.669 469.516C543.459 469.516 541.25 469.028 539.572 468.054C537.869 467.064 536.931 465.719 536.934 464.27C536.938 462.812 537.889 461.46 539.614 460.463C542.988 458.514 548.464 458.513 551.82 460.464C553.523 461.454 554.46 462.798 554.458 464.248C554.457 465.705 553.506 467.057 551.781 468.052C550.093 469.028 547.88 469.516 545.669 469.516ZM545.724 459.89C543.677 459.89 541.629 460.341 540.066 461.243C538.63 462.072 537.837 463.149 537.835 464.272C537.834 465.386 538.613 466.453 540.028 467.275C543.13 469.08 548.206 469.079 551.333 467.274C552.769 466.444 553.559 465.369 553.561 464.247C553.562 463.132 552.785 462.065 551.368 461.243C549.814 460.341 547.769 459.89 545.724 459.89Z" fill="#DBDEE4"/>
<path d="M545.677 466.407C546.946 466.407 548.175 466.117 549.048 465.614C549.748 465.21 550.151 464.712 550.152 464.251C550.152 463.793 549.758 463.303 549.07 462.903C548.204 462.399 546.981 462.111 545.713 462.111C544.445 462.111 543.217 462.401 542.345 462.904C541.643 463.31 541.24 463.807 541.24 464.269C541.24 464.725 541.633 465.217 542.321 465.617C543.185 466.118 544.408 466.407 545.677 466.407Z" fill="#DA0000"/>
<path d="M517.009 482.722C518.372 482.722 519.692 482.412 520.628 481.87C521.381 481.436 521.813 480.902 521.814 480.407C521.814 479.916 521.392 479.389 520.652 478.96C519.722 478.42 518.408 478.109 517.046 478.109C515.685 478.109 514.366 478.42 513.429 478.961C512.676 479.396 512.244 479.93 512.242 480.428C512.242 480.918 512.664 481.445 513.404 481.875C514.332 482.412 515.647 482.722 517.009 482.722Z" fill="#373B42"/>
<path d="M490.609 224.238C493.865 226.119 493.885 229.169 490.648 231.048C487.413 232.929 482.146 232.928 478.89 231.047C475.633 229.167 475.617 226.119 478.853 224.238C482.089 222.359 487.351 222.357 490.609 224.238Z" fill="white"/>
<path d="M484.779 232.9C482.568 232.9 480.355 232.412 478.666 231.436C476.942 230.441 475.99 229.09 475.988 227.632C475.987 226.182 476.924 224.839 478.627 223.849C481.981 221.901 487.456 221.898 490.835 223.847C492.561 224.844 493.513 226.196 493.514 227.654C493.516 229.104 492.579 230.447 490.876 231.436C489.198 232.412 486.99 232.9 484.779 232.9ZM484.724 223.274C482.678 223.274 480.634 223.726 479.081 224.629C477.665 225.451 476.887 226.518 476.889 227.632C476.89 228.755 477.68 229.83 479.116 230.659C482.244 232.465 487.319 232.467 490.422 230.661C491.838 229.838 492.615 228.773 492.614 227.659C492.612 226.534 491.821 225.459 490.385 224.629C488.821 223.726 486.772 223.274 484.724 223.274Z" fill="#DBDEE4"/>
<path d="M484.771 229.791C483.502 229.791 482.273 229.502 481.4 228.998C480.7 228.594 480.297 228.097 480.296 227.635C480.296 227.18 480.69 226.687 481.378 226.288C482.244 225.784 483.467 225.496 484.735 225.496C486.003 225.496 487.231 225.786 488.103 226.289C488.805 226.694 489.208 227.192 489.208 227.655C489.208 228.111 488.815 228.603 488.127 229.003C487.263 229.503 486.04 229.791 484.771 229.791Z" fill="#DA0000"/>
<path d="M513.44 246.109C512.077 246.109 510.757 245.799 509.82 245.258C509.068 244.823 508.635 244.289 508.635 243.792C508.635 243.302 509.057 242.774 509.797 242.345C510.726 241.806 512.041 241.495 513.403 241.495C514.764 241.495 516.083 241.806 517.02 242.347C517.773 242.781 518.205 243.316 518.207 243.813C518.207 244.304 517.784 244.831 517.045 245.26C516.116 245.8 514.802 246.109 513.44 246.109Z" fill="#373B42"/>
<path d="M417.007 342.981C416.852 342.981 416.701 342.901 416.619 342.757C416.494 342.542 416.566 342.266 416.781 342.142L542.841 268.882C544.107 268.147 544.862 266.835 544.86 265.371C544.858 263.908 544.1 262.596 542.831 261.863L483.515 227.618C483.3 227.494 483.227 227.218 483.35 227.003C483.477 226.786 483.753 226.714 483.965 226.838L543.28 261.083C544.829 261.978 545.757 263.58 545.759 265.369C545.76 267.158 544.839 268.761 543.292 269.66L417.232 342.919C417.161 342.961 417.084 342.981 417.007 342.981Z" fill="#DBDEE4"/>
<path d="M155.491 535.659C154.573 535.659 153.656 535.422 152.835 534.946L102.936 505.94C102.722 505.815 102.649 505.539 102.774 505.325C102.897 505.108 103.171 505.037 103.389 505.161L153.288 534.167C154.643 534.953 156.328 534.956 157.682 534.173L235.931 488.789C236.142 488.664 236.42 488.735 236.544 488.952C236.669 489.167 236.597 489.443 236.381 489.567L158.133 534.952C157.319 535.424 156.404 535.659 155.491 535.659Z" fill="#DBDEE4"/>
<path d="M112.437 504.176C115.692 506.057 115.711 509.106 112.476 510.986C109.242 512.867 103.978 512.866 100.722 510.985C97.4667 509.105 97.4499 506.057 100.685 504.176C103.921 502.295 109.182 502.295 112.437 504.176Z" fill="white"/>
<path d="M106.607 512.838C104.398 512.838 102.185 512.35 100.496 511.376C98.772 510.38 97.8226 509.028 97.8184 507.572C97.817 506.123 98.7538 504.779 100.457 503.788C103.811 501.84 109.286 501.838 112.661 503.787C114.387 504.784 115.337 506.136 115.339 507.594C115.34 509.044 114.405 510.386 112.702 511.377C111.025 512.352 108.819 512.838 106.607 512.838ZM106.553 503.213C104.507 503.213 102.463 503.664 100.911 504.567C99.4976 505.389 98.7188 506.456 98.7188 507.57C98.7202 508.693 99.5115 509.768 100.946 510.597C104.075 512.405 109.146 512.402 112.249 510.599C113.664 509.776 114.441 508.711 114.438 507.595C114.438 506.471 113.647 505.396 112.211 504.565C110.648 503.664 108.601 503.213 106.553 503.213Z" fill="#DBDEE4"/>
<path d="M106.6 509.729C105.33 509.729 104.103 509.439 103.23 508.936C102.53 508.532 102.127 508.034 102.127 507.573C102.127 507.116 102.521 506.625 103.209 506.225C104.075 505.722 105.298 505.434 106.566 505.434C107.834 505.434 109.062 505.723 109.933 506.226C110.635 506.632 111.036 507.13 111.037 507.592C111.037 508.048 110.645 508.54 109.957 508.94C109.09 509.441 107.868 509.729 106.6 509.729Z" fill="#DA0000"/>
<path d="M135.26 526.047C133.896 526.047 132.578 525.737 131.64 525.196C130.888 524.761 130.456 524.227 130.454 523.732C130.453 523.241 130.876 522.714 131.616 522.285C132.546 521.745 133.859 521.435 135.22 521.435C136.582 521.435 137.901 521.745 138.836 522.286C139.59 522.721 140.022 523.255 140.022 523.753C140.022 524.244 139.599 524.771 138.861 525.2C137.934 525.738 136.621 526.047 135.26 526.047Z" fill="#373B42"/>
<path d="M475.997 538.81C475.92 538.81 475.842 538.791 475.771 538.75L363.089 473.291C362.873 473.167 362.802 472.89 362.926 472.676C363.049 472.459 363.326 472.388 363.542 472.512L476.224 537.971C476.438 538.096 476.51 538.373 476.386 538.587C476.303 538.731 476.152 538.81 475.997 538.81Z" fill="#DBDEE4"/>
<path d="M467.738 539.734C464.479 537.853 464.461 534.804 467.699 532.923C470.937 531.043 476.206 531.044 479.465 532.925C482.724 534.805 482.739 537.853 479.501 539.734C476.263 541.614 470.996 541.614 467.738 539.734Z" fill="white"/>
<path d="M473.625 541.586C471.415 541.586 469.2 541.098 467.511 540.125V540.123C465.785 539.126 464.832 537.774 464.831 536.316C464.83 534.866 465.766 533.524 467.471 532.534C470.831 530.586 476.307 530.583 479.688 532.535C481.415 533.531 482.367 534.883 482.368 536.34C482.37 537.79 481.43 539.132 479.726 540.123C478.048 541.098 475.837 541.586 473.625 541.586ZM467.962 539.343C471.095 541.149 476.167 541.149 479.273 539.343C480.69 538.521 481.469 537.454 481.468 536.34C481.466 535.217 480.674 534.143 479.238 533.313C476.104 531.505 471.029 531.506 467.925 533.311C466.509 534.133 465.73 535.199 465.731 536.313C465.733 537.439 466.524 538.514 467.962 539.343Z" fill="#DBDEE4"/>
<path d="M473.581 534.182C474.852 534.182 476.081 534.471 476.955 534.974C477.657 535.378 478.06 535.876 478.06 536.338C478.06 536.793 477.665 537.286 476.977 537.685C476.111 538.189 474.887 538.477 473.618 538.477C472.348 538.477 471.12 538.187 470.247 537.684C469.545 537.279 469.142 536.781 469.141 536.32C469.141 535.864 469.535 535.371 470.223 534.972C471.088 534.47 472.313 534.182 473.581 534.182Z" fill="#DA0000"/>
<path d="M444.894 517.865C446.259 517.865 447.579 518.176 448.517 518.717C449.27 519.152 449.702 519.686 449.704 520.181C449.704 520.671 449.28 521.198 448.541 521.628C447.611 522.167 446.295 522.478 444.932 522.478C443.569 522.478 442.249 522.167 441.312 521.626C440.558 521.191 440.125 520.657 440.125 520.16C440.125 519.669 440.547 519.142 441.287 518.713C442.217 518.174 443.531 517.865 444.894 517.865Z" fill="#373B42"/>
<path d="M285.897 362.301C285.82 362.301 285.741 362.282 285.671 362.24L206.245 315.801C203.634 314.284 202.012 311.464 202.012 308.444V173.356C202.012 173.108 202.214 172.906 202.462 172.906C202.709 172.906 202.912 173.108 202.912 173.356V308.444C202.912 311.145 204.363 313.666 206.7 315.024L286.125 361.462C286.34 361.588 286.412 361.864 286.287 362.078C286.202 362.222 286.052 362.301 285.897 362.301Z" fill="#DBDEE4"/>
<g opacity="0.1">
<path d="M546.012 391.03C553.032 395.083 553.069 401.643 546.094 405.697L295.12 551.545C288.145 555.598 276.819 555.598 269.799 551.545L138.367 475.663C131.347 471.61 131.311 465.05 138.285 460.997L389.259 315.147C396.233 311.094 407.56 311.094 414.58 315.147L546.012 391.03Z" fill="black"/>
</g>
<path d="M136.275 457.011C136.275 459.658 138.046 462.34 141.567 464.366L273.016 540.244C275.133 541.466 277.632 542.325 280.297 542.798C282.013 543.127 283.819 543.292 285.608 543.292C287.396 543.292 289.166 543.147 290.9 542.836C293.619 542.362 296.174 541.504 298.309 540.245L549.289 394.4C552.774 392.392 554.508 389.765 554.508 387.137L554.581 356.516C554.581 359.162 552.847 361.808 549.38 363.797L298.399 509.659C296.228 510.936 293.654 511.794 290.898 512.251C289.165 512.562 287.394 512.689 285.606 512.689C283.818 512.689 282.03 512.525 280.296 512.197C277.649 511.723 275.168 510.864 273.069 509.661L141.657 433.782C138.117 431.72 136.365 429.075 136.365 426.373L136.275 457.011Z" fill="#BEC4CD"/>
<path d="M280.297 512.194V542.797C282.012 543.126 283.819 543.291 285.607 543.291C287.395 543.291 289.165 543.145 290.899 542.835V512.25C289.165 512.561 287.395 512.688 285.607 512.688C283.819 512.688 282.031 512.523 280.297 512.194Z" fill="#DBDEE4"/>
<path d="M285.717 543.742C285.681 543.742 285.643 543.742 285.607 543.742C280.787 543.723 276.235 542.623 272.788 540.643L141.346 464.761C137.787 462.718 135.827 459.964 135.827 457.004L135.91 426.373C135.91 426.124 136.112 425.923 136.36 425.923C136.61 425.923 136.81 426.125 136.81 426.373C136.81 428.987 138.611 431.477 141.88 433.383L273.303 509.264C276.6 511.167 280.97 512.226 285.61 512.242C285.646 512.242 285.682 512.242 285.719 512.242C290.46 512.242 294.878 511.187 298.173 509.266L549.149 363.415C552.354 361.579 554.124 359.143 554.138 356.551V356.519C554.138 356.27 554.341 356.07 554.588 356.07C554.838 356.07 555.038 356.273 555.038 356.521V356.523C555.038 356.534 555.038 356.544 555.038 356.555L554.956 387.135C554.956 390.05 553.026 392.771 549.52 394.792L298.544 540.642C295.119 542.641 290.569 543.742 285.717 543.742ZM136.8 429.742L136.726 457.004C136.726 459.625 138.526 462.103 141.792 463.979L273.237 539.862C276.549 541.765 280.944 542.823 285.61 542.84C285.645 542.84 285.682 542.84 285.717 542.84C290.412 542.84 294.801 541.784 298.091 539.863L549.068 394.012C552.285 392.156 554.055 389.713 554.055 387.132L554.13 359.922C553.236 361.532 551.701 362.991 549.6 364.194L298.626 510.044C295.197 512.044 290.615 513.144 285.719 513.144C285.679 513.144 285.643 513.144 285.605 513.144C280.812 513.126 276.282 512.026 272.851 510.044L141.425 434.162C139.269 432.905 137.702 431.394 136.8 429.742Z" fill="#373B42"/>
<path d="M149.901 469.631C149.654 469.631 149.451 469.43 149.451 469.181V438.539C149.451 438.29 149.654 438.089 149.901 438.089C150.149 438.089 150.352 438.29 150.352 438.539V469.181C150.352 469.43 150.149 469.631 149.901 469.631Z" fill="#373B42"/>
<path d="M490.294 412.209C490.314 413.487 490.751 414.403 491.477 414.823L494.158 416.382C493.434 415.943 492.995 415.046 492.976 413.77C492.976 411.196 494.788 408.068 497.018 406.771L516.55 395.496C517.694 394.847 518.705 394.791 519.448 395.211L516.767 393.652C516.023 393.232 515.012 393.289 513.868 393.937L494.336 405.212C492.106 406.508 490.294 409.635 490.294 412.209Z" fill="#373B42"/>
<path d="M494.156 416.834C494.079 416.834 494 416.814 493.929 416.773L491.249 415.214C490.364 414.701 489.865 413.637 489.844 412.218C489.844 412.215 489.844 412.214 489.844 412.211C489.844 409.46 491.717 406.213 494.109 404.823L513.643 393.55C514.883 392.847 516.072 392.745 516.989 393.262L519.676 394.824C519.889 394.948 519.963 395.222 519.84 395.436C519.715 395.651 519.443 395.727 519.228 395.605C518.6 395.247 517.727 395.351 516.772 395.89L497.244 407.162C495.139 408.386 493.426 411.351 493.426 413.772C493.441 414.837 493.785 415.631 494.392 415.999C494.603 416.128 494.672 416.402 494.544 416.614C494.459 416.754 494.309 416.834 494.156 416.834ZM490.744 412.207C490.762 413.296 491.101 414.086 491.701 414.434L492.688 415.008C492.586 414.636 492.531 414.225 492.524 413.777C492.524 411.019 494.399 407.772 496.791 406.381L516.325 395.108C516.732 394.877 517.132 394.71 517.519 394.61L516.539 394.041C515.912 393.686 515.04 393.79 514.088 394.329L494.56 405.601C492.457 406.824 490.746 409.787 490.744 412.207Z" fill="#373B42"/>
<path d="M497.019 406.774C494.779 408.068 492.97 411.2 492.979 413.774C492.986 416.348 494.806 417.385 497.046 416.092L516.581 404.811C518.821 403.518 520.63 400.386 520.622 397.812C520.615 395.238 518.794 394.201 516.554 395.494L497.019 406.774Z" fill="white"/>
<path d="M495.226 417.101C494.762 417.101 494.329 416.991 493.944 416.77C493.037 416.247 492.534 415.183 492.529 413.775C492.522 411.063 494.436 407.748 496.795 406.386L516.33 395.104C517.562 394.391 518.743 394.289 519.661 394.816C520.568 395.339 521.071 396.401 521.076 397.809C521.083 400.568 519.209 403.815 516.808 405.2L497.273 416.482C496.559 416.894 495.863 417.101 495.226 417.101ZM518.374 395.385C517.896 395.385 517.354 395.553 516.78 395.883L497.245 407.165C495.134 408.384 493.423 411.348 493.43 413.774C493.434 414.847 493.775 415.635 494.394 415.99C495.015 416.346 495.879 416.248 496.822 415.703L516.357 404.423C518.468 403.203 520.181 400.239 520.174 397.814C520.17 396.741 519.828 395.954 519.21 395.598C518.964 395.456 518.683 395.385 518.374 395.385Z" fill="#373B42"/>
<path d="M549.294 349.141C556.314 353.194 556.352 359.754 549.376 363.808L298.402 509.655C291.428 513.709 280.101 513.709 273.081 509.655L141.65 433.774C134.629 429.721 134.593 423.161 141.567 419.108L392.542 273.26C399.516 269.206 410.842 269.206 417.862 273.26L549.294 349.141Z" fill="#373B42"/>
<path d="M285.76 513.131C281.093 513.131 276.42 512.103 272.856 510.045L141.423 434.164C137.872 432.114 135.914 429.361 135.91 426.416C135.905 423.489 137.834 420.756 141.339 418.717L392.315 272.869C399.397 268.755 410.96 268.755 418.087 272.869L549.519 348.75C553.07 350.8 555.03 353.553 555.033 356.499C555.037 359.425 553.109 362.159 549.603 364.197L298.628 510.045C295.088 512.102 290.424 513.131 285.76 513.131ZM405.185 270.67C400.682 270.67 396.185 271.663 392.769 273.648L141.794 419.497C138.576 421.367 136.808 423.823 136.812 426.416C136.816 429.026 138.613 431.501 141.875 433.385L273.308 509.267C280.185 513.237 291.344 513.239 298.175 509.267L549.15 363.419C552.367 361.549 554.137 359.093 554.133 356.5C554.129 353.89 552.329 351.415 549.069 349.531L417.637 273.649C414.198 271.663 409.687 270.67 405.185 270.67Z" fill="#373B42"/>
<path d="M552.136 356.504C552.136 358.318 550.682 360.212 548.15 361.683L297.174 507.532C294.168 509.28 290.116 510.245 285.755 510.245C281.41 510.245 277.342 509.281 274.303 507.532L142.877 431.651C140.296 430.165 138.81 428.254 138.81 426.407C138.81 424.593 140.264 422.699 142.796 421.228L393.772 275.378C396.778 273.631 400.828 272.666 405.19 272.666C409.536 272.666 413.603 273.631 416.641 275.378L548.067 351.26C550.65 352.746 552.136 354.657 552.136 356.504Z" fill="white"/>
<path d="M285.755 510.694C281.331 510.694 277.184 509.71 274.077 507.921L142.65 432.039C139.922 430.467 138.357 428.415 138.357 426.406C138.357 424.42 139.891 422.39 142.567 420.837L393.543 274.987C396.618 273.199 400.755 272.215 405.19 272.215C409.611 272.215 413.759 273.199 416.867 274.987L548.293 350.87C551.021 352.44 552.587 354.494 552.587 356.503C552.587 358.487 551.053 360.516 548.377 362.072L297.4 507.92C294.325 509.708 290.19 510.694 285.755 510.694ZM405.19 273.115C400.912 273.115 396.936 274.058 393.996 275.768L143.022 421.617C140.629 423.005 139.259 424.75 139.259 426.406C139.259 428.083 140.66 429.854 143.101 431.259L274.529 507.141C277.5 508.851 281.487 509.794 285.756 509.794C290.034 509.794 294.008 508.851 296.947 507.141L547.924 361.292C550.316 359.903 551.687 358.157 551.687 356.503C551.687 354.824 550.287 353.055 547.843 351.65L416.417 275.768C413.445 274.058 409.456 273.115 405.19 273.115Z" fill="#373B42"/>
<path d="M438.317 303.186C440.256 304.32 489.623 333.001 491.913 334.332C495.575 336.457 501.546 336.457 505.218 334.342L511.901 330.474C509.611 329.143 447.641 293.141 445.031 291.625L438.348 295.483C434.676 297.606 434.657 301.061 438.317 303.186Z" fill="#373B42"/>
<path d="M498.572 336.371C496.077 336.371 493.584 335.82 491.688 334.721C491.212 334.444 440.144 304.777 438.093 303.576C436.185 302.468 435.133 300.967 435.135 299.346C435.135 297.719 436.197 296.206 438.125 295.092L444.809 291.236C444.95 291.155 445.12 291.155 445.26 291.236L512.13 330.085C512.269 330.166 512.354 330.314 512.354 330.475C512.354 330.636 512.267 330.784 512.129 330.865L505.444 334.732C503.545 335.824 501.058 336.371 498.572 336.371ZM445.032 292.146L438.574 295.872C436.937 296.82 436.034 298.055 436.034 299.349C436.034 300.634 436.924 301.859 438.542 302.798L438.543 302.8C440.572 303.985 491.662 333.667 492.139 333.944C495.67 335.996 501.436 336.001 504.991 333.954L511.003 330.477L445.032 292.146Z" fill="#373B42"/>
<path d="M488.127 326.162C489.648 326.162 491.071 325.825 492.131 325.214C493.084 324.663 493.61 323.974 493.612 323.272C493.612 322.58 493.1 321.901 492.171 321.36L450.642 297.228C449.586 296.616 448.166 296.277 446.636 296.277C445.105 296.277 443.673 296.617 442.608 297.232C441.666 297.776 441.146 298.46 441.146 299.158C441.144 299.852 441.659 300.535 442.593 301.079L484.121 325.211C485.178 325.825 486.598 326.162 488.127 326.162Z" fill="white"/>
<path d="M498.892 332.419C500.413 332.419 501.835 332.082 502.894 331.471C503.848 330.922 504.372 330.231 504.374 329.53C504.375 328.838 503.861 328.157 502.928 327.615C501.872 327.002 500.452 326.664 498.922 326.664C497.391 326.664 495.96 327.002 494.894 327.619C493.953 328.163 493.433 328.847 493.432 329.544C493.43 330.239 493.945 330.921 494.879 331.465C495.939 332.081 497.363 332.419 498.892 332.419Z" fill="white"/>
<path d="M498.899 331.252C499.803 331.252 500.648 331.052 501.279 330.689C501.845 330.362 502.158 329.952 502.158 329.535C502.158 329.124 501.853 328.719 501.298 328.396C500.67 328.031 499.826 327.831 498.917 327.831C498.007 327.831 497.155 328.032 496.522 328.399C495.963 328.722 495.654 329.129 495.652 329.542C495.651 329.956 495.957 330.362 496.512 330.685C497.143 331.05 497.99 331.252 498.899 331.252Z" fill="#DA0000"/>
<path d="M260.443 516.18C258.996 515.344 257.825 516.033 257.821 517.696C257.817 519.381 258.978 521.393 260.426 522.229C261.911 523.086 263.08 522.42 263.085 520.735C263.088 519.072 261.928 517.037 260.443 516.18Z" fill="#373B42"/>
<path d="M249.609 509.927C248.162 509.09 246.992 509.778 246.987 511.442C246.983 513.127 248.144 515.139 249.592 515.975C251.077 516.832 252.246 516.167 252.251 514.482C252.256 512.818 251.094 510.784 249.609 509.927Z" fill="#373B42"/>
<path d="M238.778 503.67C237.331 502.834 236.16 503.524 236.156 505.186C236.152 506.871 237.313 508.883 238.761 509.719C240.246 510.576 241.415 509.91 241.42 508.226C241.423 506.562 240.263 504.529 238.778 503.67Z" fill="#373B42"/>
<path d="M170.864 464.466C169.417 463.63 168.246 464.32 168.242 465.982C168.238 467.667 169.398 469.679 170.847 470.515C172.332 471.372 173.501 470.706 173.506 469.022C173.51 467.358 172.349 465.323 170.864 464.466Z" fill="#373B42"/>
<path d="M160.032 458.212C158.585 457.376 157.414 458.066 157.41 459.728C157.406 461.413 158.566 463.425 160.015 464.261C161.5 465.118 162.669 464.452 162.674 462.768C162.677 461.102 161.517 459.07 160.032 458.212Z" fill="#373B42"/>
<path d="M190.475 481.904C188.993 481.048 187.794 478.969 187.798 477.266C187.802 475.563 189.01 474.875 190.492 475.731L219.187 492.298C220.669 493.154 221.864 495.23 221.86 496.933C221.856 498.636 220.65 499.327 219.17 498.471L190.475 481.904Z" fill="#373B42"/>
<path d="M314.688 531.189C314.44 531.189 314.237 530.987 314.237 530.738V500.188C314.237 499.94 314.44 499.738 314.688 499.738C314.935 499.738 315.138 499.94 315.138 500.188V530.738C315.138 530.987 314.936 531.189 314.688 531.189Z" fill="#373B42"/>
<path d="M534.648 403.363C534.4 403.363 534.197 403.162 534.197 402.913V372.364C534.197 372.115 534.4 371.914 534.648 371.914C534.895 371.914 535.098 372.115 535.098 372.364V402.913C535.099 403.162 534.896 403.363 534.648 403.363Z" fill="#373B42"/>
<path d="M373.986 476.028C371.557 477.43 369.597 480.825 369.605 483.616C369.614 486.406 371.587 487.53 374.015 486.128L421.187 458.889C423.615 457.487 425.575 454.09 425.568 451.3C425.56 448.509 423.587 447.385 421.159 448.787L373.986 476.028Z" fill="#F0F2F5"/>
<path d="M374.041 478.821C375.095 478.212 375.945 478.713 375.95 479.924C375.954 481.15 375.108 482.615 374.054 483.223C372.973 483.847 372.121 483.363 372.117 482.136C372.114 480.926 372.96 479.446 374.041 478.821Z" fill="#373B42"/>
<g opacity="0.1">
<path d="M427.329 378.737C434.999 383.165 435.04 390.336 427.42 394.764L317.514 458.633C309.91 463.053 297.515 463.061 289.844 458.633L253.961 437.917C246.29 433.489 246.267 426.309 253.87 421.89L363.775 358.02C371.395 353.592 383.774 353.592 391.445 358.02L427.329 378.737Z" fill="black"/>
</g>
<path d="M432.689 364.678L432.607 378.631C432.607 381.509 430.716 384.364 426.934 386.584L317.008 450.434C314.87 451.688 312.363 452.572 309.692 453.106C305.767 453.928 301.472 453.969 297.505 453.271C294.526 452.758 291.71 451.811 289.347 450.434L253.466 429.726C249.603 427.506 247.691 424.567 247.691 421.67L247.753 407.777C247.753 410.655 249.685 413.573 253.527 415.772L289.408 436.501C291.75 437.858 294.526 438.803 297.505 439.317C301.491 440.016 305.767 439.974 309.692 439.173C312.404 438.639 314.932 437.756 317.07 436.501L426.996 372.63C430.758 370.431 432.649 367.555 432.689 364.678Z" fill="#BEC4CD"/>
<path d="M303.212 454.204C298.122 454.204 293.022 453.081 289.126 450.836L253.233 430.112C249.365 427.892 247.235 424.892 247.235 421.663L247.315 407.768C247.316 407.521 247.518 407.321 247.765 407.321C248.013 407.322 248.215 407.524 248.215 407.771C248.215 410.629 250.186 413.336 253.762 415.39L289.628 436.112C297.171 440.457 309.378 440.457 316.844 436.113L426.765 372.247C430.266 370.194 432.208 367.507 432.236 364.678V364.675C432.238 364.428 432.44 364.229 432.686 364.229C432.688 364.229 432.688 364.229 432.691 364.229C432.938 364.231 433.139 364.434 433.138 364.682L433.061 378.626C433.061 381.779 430.968 384.742 427.168 386.969L317.247 450.836C313.387 453.081 308.304 454.204 303.212 454.204ZM248.194 411.252L248.134 421.666C248.134 424.555 250.104 427.28 253.681 429.334L289.576 450.057C297.119 454.404 309.325 454.404 316.791 450.058L426.712 386.192C430.223 384.135 432.158 381.446 432.158 378.624L432.216 368.19C431.255 370 429.559 371.655 427.219 373.027L317.299 436.893C309.584 441.383 296.971 441.383 289.177 436.895L253.312 416.173C250.897 414.783 249.159 413.099 248.194 411.252Z" fill="#373B42"/>
<path d="M426.896 356.604C434.566 361.032 434.606 368.203 426.986 372.631L317.081 436.501C309.476 440.92 297.082 440.929 289.411 436.501L253.529 415.784C245.859 411.356 245.835 404.175 253.438 399.757L363.343 335.887C370.963 331.459 383.343 331.459 391.013 335.887L426.896 356.604Z" fill="white"/>
<g opacity="0.1">
<path d="M280.834 403.786C277.568 405.672 275.716 408.235 275.7 410.901L275.681 414.325C275.665 416.992 277.49 419.556 280.734 421.441L289.042 426.268C292.299 428.161 296.706 429.218 301.323 429.227L307.221 429.219C311.837 429.227 316.269 428.162 319.536 426.277L399.536 380.088C402.802 378.204 404.654 375.639 404.656 372.965L404.689 369.549C404.691 366.874 402.88 364.319 399.622 362.425L391.314 357.598C388.069 355.711 383.65 354.647 379.047 354.647H373.136C368.533 354.647 364.101 355.713 360.835 357.598L280.834 403.786Z" fill="black"/>
</g>
<path d="M303.266 440.257C298.174 440.257 293.077 439.135 289.188 436.889L253.304 416.173C249.441 413.942 247.311 410.948 247.306 407.743C247.301 404.557 249.399 401.583 253.213 399.367L363.12 335.497C370.85 331.005 383.463 331.008 391.241 335.497L427.123 356.214C430.992 358.447 433.124 361.44 433.129 364.645C433.134 367.827 431.034 370.802 427.216 373.021L317.309 436.892C313.443 439.136 308.356 440.257 303.266 440.257ZM377.162 333.017C372.233 333.017 367.313 334.103 363.573 336.276L253.666 400.145C250.141 402.192 248.202 404.891 248.206 407.742C248.212 410.612 250.182 413.33 253.754 415.394L289.638 436.11C297.167 440.457 309.374 440.457 316.855 436.11L426.761 372.239C430.29 370.19 432.231 367.491 432.227 364.645C432.223 361.776 430.25 359.058 426.672 356.991L390.789 336.275C387.025 334.103 382.09 333.017 377.162 333.017Z" fill="#373B42"/>
<path d="M405.309 361.234L405.257 364.636C405.257 367.311 403.388 369.882 400.141 371.751L320.159 417.948C316.861 419.817 312.447 420.883 307.825 420.883H301.93C297.308 420.883 292.892 419.819 289.647 417.948L281.337 413.092C278.09 411.223 276.273 408.652 276.273 406.003L275.987 294.055C275.987 296.705 277.805 299.249 281.051 301.119L289.361 305.948C292.607 307.844 297.021 308.909 301.644 308.909H307.512C312.134 308.909 316.575 307.844 319.846 305.948L399.855 259.776C403.126 257.881 404.971 255.311 404.971 252.636L404.997 249.234L405.309 361.234Z" fill="#DBDEE4"/>
<path d="M358.572 317.204C352.88 320.489 348.256 328.498 348.274 335.068C348.287 339.678 350.593 342.372 353.972 342.371L349.125 369.037C348.741 371.191 350.012 372.318 351.756 371.313L365.697 363.263C367.439 362.257 368.7 359.667 368.306 357.962L363.324 336.97C366.691 333.077 368.974 327.733 368.962 323.124C368.944 316.555 364.289 313.903 358.572 317.204Z" fill="#373B42"/>
<path d="M350.542 372.132C350.153 372.132 349.795 372.026 349.492 371.813C348.745 371.291 348.45 370.249 348.681 368.957L353.436 342.8C350.022 342.523 347.839 339.552 347.825 335.071C347.807 328.366 352.527 320.176 358.348 316.815C361.269 315.13 364.04 314.871 366.145 316.084C368.243 317.289 369.402 319.791 369.411 323.124C369.424 327.671 367.285 333.002 363.816 337.09L368.745 357.858C369.189 359.784 367.844 362.545 365.922 363.654L351.981 371.703C351.484 371.987 350.992 372.132 350.542 372.132ZM353.972 341.919C354.106 341.919 354.232 341.978 354.317 342.082C354.404 342.184 354.439 342.319 354.415 342.451L349.567 369.116C349.404 370.034 349.569 370.766 350.009 371.075C350.373 371.333 350.915 371.277 351.53 370.923L365.471 362.874C367.033 361.972 368.22 359.591 367.869 358.064L362.888 337.076C362.854 336.935 362.892 336.787 362.984 336.678C366.405 332.724 368.524 327.531 368.511 323.127C368.503 320.128 367.503 317.904 365.697 316.864C363.875 315.817 361.425 316.08 358.798 317.594C353.226 320.811 348.707 328.649 348.726 335.068C348.738 339.295 350.747 341.921 353.967 341.921L353.972 341.919Z" fill="#373B42"/>
<path d="M305.431 308.908H301.641C297.018 308.908 292.603 307.842 289.358 305.947L281.049 301.117C277.802 299.248 275.984 296.703 275.984 294.054L276.27 406.002C276.27 408.65 278.087 411.221 281.334 413.091L289.644 417.946C292.891 419.816 297.305 420.881 301.927 420.881H305.431V308.908Z" fill="#373B42"/>
<path d="M307.822 421.333H301.928C297.213 421.333 292.771 420.269 289.421 418.34L281.109 413.483C277.749 411.549 275.821 408.823 275.821 406.005L275.536 294.086C275.536 294.078 275.536 294.068 275.536 294.058V294.056C275.536 293.807 275.736 293.605 275.986 293.605C276.234 293.605 276.437 293.805 276.437 294.054V294.082C276.449 296.543 278.211 298.963 281.274 300.728L289.586 305.558C292.742 307.403 297.136 308.458 301.643 308.458H307.511C312.024 308.458 316.438 307.401 319.62 305.558L399.629 259.387C402.737 257.586 404.519 255.124 404.519 252.635L404.546 249.231C404.547 248.983 404.749 248.783 404.996 248.783C405.242 248.785 405.446 248.985 405.446 249.232L405.758 361.232C405.758 361.235 405.758 361.237 405.758 361.24L405.705 364.642C405.705 367.449 403.757 370.184 400.364 372.14L320.381 418.337C316.975 420.271 312.515 421.333 307.822 421.333ZM276.445 297.358L276.722 406.002C276.722 408.49 278.486 410.931 281.561 412.702L289.873 417.56C293.041 419.384 297.436 420.433 301.928 420.433H307.822C312.362 420.433 316.663 419.412 319.936 417.558L399.915 371.363C403.023 369.573 404.806 367.122 404.806 364.638L404.859 361.232L404.566 255.855C403.688 257.476 402.154 258.967 400.082 260.167L320.073 306.339C316.709 308.286 312.25 309.36 307.513 309.36H301.645C296.915 309.36 292.472 308.288 289.135 306.339L280.825 301.509C278.818 300.353 277.324 298.921 276.445 297.358Z" fill="#373B42"/>
<path d="M281.138 283.472C277.872 285.358 276.019 287.921 276.004 290.588L275.984 294.012C275.969 296.678 277.794 299.242 281.037 301.127L289.345 305.955C292.603 307.848 297.01 308.905 301.627 308.913L307.524 308.905C312.141 308.913 316.573 307.848 319.839 305.963L399.839 259.775C403.105 257.89 404.958 255.326 404.959 252.651L404.993 249.236C404.994 246.561 403.184 244.005 399.926 242.112L391.618 237.284C388.373 235.398 383.953 234.334 379.351 234.334H373.439C368.837 234.334 364.404 235.399 361.138 237.284L281.138 283.472Z" fill="white"/>
<path d="M301.628 309.364C296.9 309.355 292.458 308.283 289.122 306.344L280.814 301.516C277.446 299.558 275.523 296.822 275.537 294.008L275.557 290.583C275.571 287.773 277.525 285.038 280.915 283.082L360.915 236.895C364.231 234.981 368.795 233.884 373.441 233.884H379.351C383.998 233.884 388.552 234.981 391.846 236.895L400.154 241.723C403.567 243.707 405.446 246.375 405.446 249.237L405.413 252.657C405.411 255.469 403.462 258.206 400.066 260.165L320.066 306.353C316.761 308.263 312.21 309.357 307.576 309.357C307.561 309.357 307.543 309.357 307.527 309.357L301.628 309.364ZM281.363 283.862C278.257 285.656 276.468 288.107 276.456 290.59L276.436 294.015C276.424 296.496 278.183 298.947 281.267 300.738L289.575 305.566C292.777 307.427 297.056 308.456 301.628 308.465L307.527 308.456C307.543 308.456 307.559 308.456 307.576 308.456C312.056 308.456 316.442 307.408 319.616 305.575L399.616 259.386C402.725 257.592 404.509 255.137 404.511 252.653L404.544 249.233C404.544 246.709 402.823 244.318 399.7 242.503L391.392 237.676C388.232 235.838 383.843 234.786 379.351 234.786H373.441C368.948 234.786 364.547 235.84 361.365 237.676L281.363 283.862Z" fill="#373B42"/>
<path d="M384.244 256.486C384.106 256.602 383.944 256.693 383.783 256.787C378.912 259.58 371.062 259.602 366.215 256.787C366.053 256.694 365.914 256.602 365.776 256.486C361.528 253.785 361.551 249.629 365.752 246.928C365.914 246.812 366.075 246.697 366.26 246.605C371.131 243.789 379.003 243.765 383.85 246.583C383.988 246.653 384.104 246.745 384.219 246.814C388.538 249.537 388.538 253.761 384.244 256.486Z" fill="#373B42"/>
<path d="M374.972 259.325C371.709 259.325 368.456 258.608 365.989 257.175C365.805 257.07 365.649 256.965 365.489 256.831C363.356 255.479 362.152 253.65 362.147 251.718C362.141 249.781 363.338 247.945 365.512 246.549C365.684 246.426 365.859 246.303 366.061 246.202C371.029 243.326 379.123 243.316 384.08 246.192C384.161 246.231 384.257 246.296 384.351 246.359L384.457 246.427C386.686 247.834 387.912 249.688 387.913 251.649C387.915 253.601 386.708 255.447 384.512 256.849C384.362 256.971 384.191 257.071 384.019 257.169C381.512 258.606 378.237 259.325 374.972 259.325ZM375.094 244.931C371.98 244.931 368.865 245.619 366.486 246.995C366.305 247.087 366.168 247.186 366.031 247.284C364.09 248.533 363.044 250.099 363.047 251.715C363.051 253.33 364.105 254.889 366.018 256.105C366.183 256.238 366.302 256.315 366.439 256.393C371.128 259.118 378.807 259.118 383.561 256.395C383.705 256.311 383.84 256.237 383.955 256.142C383.97 256.129 383.987 256.116 384.004 256.105C385.946 254.873 387.014 253.292 387.011 251.651C387.01 250.009 385.933 248.425 383.98 247.193L383.845 247.104C383.784 247.063 383.723 247.02 383.653 246.985C381.293 245.615 378.193 244.931 375.094 244.931Z" fill="#373B42"/>
<path d="M315.312 296.284C315.128 296.423 314.943 296.537 314.735 296.653C309.841 299.469 301.968 299.469 297.121 296.653C297.028 296.607 296.936 296.537 296.844 296.469C292.412 293.745 292.434 289.474 296.822 286.726C296.96 286.634 297.076 286.542 297.214 286.473C302.062 283.656 309.935 283.656 314.782 286.473C314.967 286.566 315.129 286.68 315.29 286.796C319.421 289.496 319.421 293.559 315.312 296.284Z" fill="#373B42"/>
<path d="M305.914 299.202C302.642 299.202 299.375 298.482 296.895 297.042C296.814 297.002 296.706 296.926 296.6 296.846C294.339 295.455 293.085 293.6 293.076 291.624C293.068 289.64 294.314 287.765 296.583 286.344L296.683 286.274C296.793 286.198 296.896 286.128 297.011 286.069C301.956 283.193 310.04 283.196 315.009 286.082C315.191 286.172 315.371 286.299 315.553 286.429C317.663 287.807 318.837 289.619 318.843 291.522C318.85 293.424 317.689 295.246 315.574 296.649C315.376 296.798 315.178 296.921 314.956 297.044C312.458 298.484 309.182 299.202 305.914 299.202ZM305.99 284.807C302.89 284.807 299.796 285.492 297.44 286.862C297.339 286.913 297.271 286.963 297.199 287.013L297.071 287.101C295.066 288.358 293.97 289.961 293.977 291.623C293.984 293.274 295.085 294.86 297.079 296.086C297.197 296.171 297.258 296.22 297.322 296.251C302.058 299 309.758 299 314.51 296.263C314.706 296.156 314.872 296.051 315.041 295.925C315.048 295.919 315.055 295.914 315.064 295.91C316.923 294.677 317.945 293.12 317.94 291.528C317.934 289.938 316.905 288.393 315.043 287.175C314.885 287.062 314.742 286.959 314.58 286.878C312.206 285.496 309.094 284.807 305.99 284.807Z" fill="#373B42"/>
<path d="M384.245 256.484C384.106 256.6 383.944 256.691 383.784 256.785C378.912 259.578 371.063 259.601 366.216 256.785C366.053 256.693 365.915 256.6 365.777 256.484L365.753 246.926L365.66 211.884C365.637 204.843 363.629 199.673 360.166 197.687C356.634 195.702 351.093 196.579 344.93 200.134C328.77 209.484 315.127 233.054 315.197 251.637L315.289 286.794L315.313 296.282C315.128 296.42 314.944 296.535 314.735 296.651C309.842 299.467 301.969 299.467 297.121 296.651C297.029 296.605 296.937 296.535 296.844 296.466L296.822 286.724L296.73 251.682C296.661 226.473 313.766 196.809 335.698 184.135C347.841 177.14 359.776 176.239 369.287 181.642C378.821 187.067 384.085 197.802 384.132 211.838L384.224 246.81L384.245 256.484Z" fill="#DBDEE4"/>
<path d="M305.913 299.201C302.642 299.201 299.374 298.481 296.894 297.041C296.813 297 296.705 296.925 296.599 296.845C296.484 296.761 296.393 296.609 296.393 296.466L296.279 251.683C296.209 226.329 313.423 196.486 335.47 183.746C347.773 176.658 359.863 175.771 369.506 181.251C379.181 186.755 384.533 197.616 384.579 211.835L384.694 256.482C384.694 256.614 384.635 256.74 384.533 256.827C384.378 256.958 384.199 257.063 384.016 257.168C379.006 260.04 370.924 260.038 365.987 257.172C365.804 257.067 365.647 256.963 365.488 256.828C365.386 256.743 365.325 256.617 365.325 256.483L365.209 211.884C365.187 205.017 363.267 199.983 359.942 198.076C356.544 196.169 351.154 197.058 345.154 200.523C329.091 209.817 315.576 233.223 315.646 251.634L315.762 296.28C315.762 296.422 315.695 296.556 315.583 296.641C315.383 296.792 315.18 296.918 314.955 297.044C312.457 298.482 309.181 299.201 305.913 299.201ZM297.294 296.233C297.302 296.238 297.313 296.244 297.322 296.248C302.06 298.998 309.757 298.997 314.509 296.261C314.636 296.191 314.75 296.122 314.862 296.05L314.745 251.638C314.677 232.945 328.396 209.18 344.704 199.746C350.989 196.119 356.706 195.228 360.386 197.296C364.003 199.369 366.087 204.685 366.11 211.884L366.226 256.261C366.293 256.307 366.361 256.349 366.437 256.392C371.126 259.117 378.805 259.117 383.559 256.393C383.64 256.347 383.72 256.303 383.792 256.257L383.678 211.84C383.632 197.957 378.442 187.373 369.06 182.035C359.706 176.722 347.937 177.604 335.921 184.528C314.125 197.123 297.108 226.621 297.178 251.683L297.294 296.233Z" fill="#373B42"/>
<path d="M372.309 351.748L378.237 348.303L378.21 357.764L372.282 361.211L372.309 351.748Z" fill="#373B42"/>
<path d="M372.28 361.661C372.203 361.661 372.125 361.64 372.055 361.601C371.917 361.521 371.83 361.372 371.83 361.209L371.858 351.747C371.858 351.587 371.945 351.439 372.082 351.359L378.01 347.914C378.151 347.833 378.322 347.833 378.462 347.914C378.6 347.994 378.687 348.144 378.687 348.304L378.66 357.766C378.66 357.927 378.573 358.073 378.436 358.154L372.507 361.6C372.437 361.64 372.357 361.661 372.28 361.661ZM372.758 352.008L372.732 360.426L377.76 357.506L377.785 349.086L372.758 352.008Z" fill="#373B42"/>
<path d="M390.782 350.353L396.71 346.908L396.65 368.411L390.721 371.856L390.782 350.353Z" fill="#373B42"/>
<path d="M390.721 372.307C390.644 372.307 390.566 372.287 390.496 372.247C390.357 372.167 390.271 372.017 390.271 371.856L390.332 350.356C390.332 350.195 390.419 350.048 390.556 349.967L396.484 346.522C396.625 346.441 396.796 346.441 396.936 346.522C397.074 346.601 397.161 346.751 397.161 346.912L397.101 368.413C397.101 368.572 397.014 368.72 396.877 368.801L390.947 372.247C390.877 372.286 390.798 372.307 390.721 372.307ZM391.232 350.614L391.172 371.072L396.2 368.151L396.259 347.693L391.232 350.614Z" fill="#373B42"/>
<path d="M359.262 335.391L365.19 331.946L392.848 347.915L386.919 351.36L359.262 335.391Z" fill="white"/>
<path d="M386.918 351.81C386.841 351.81 386.763 351.791 386.693 351.75L359.035 335.782C358.896 335.702 358.81 335.554 358.81 335.393C358.81 335.232 358.893 335.084 359.033 335.003L364.961 331.558C365.103 331.477 365.273 331.477 365.413 331.558L393.072 347.526C393.21 347.606 393.297 347.756 393.297 347.915C393.297 348.076 393.213 348.224 393.073 348.305L387.145 351.75C387.075 351.789 386.997 351.81 386.918 351.81ZM360.159 335.39L386.918 350.839L391.947 347.915L365.188 332.467L360.159 335.39Z" fill="#373B42"/>
<path d="M390.781 350.354L390.72 371.856L381.501 366.533L381.528 357.071L372.309 351.748L372.282 361.21L363.062 355.888L363.123 334.387L390.781 350.354Z" fill="#DA0000"/>
<path d="M390.72 372.307C390.643 372.307 390.565 372.288 390.495 372.247L381.275 366.924C381.137 366.845 381.05 366.695 381.05 366.533L381.078 357.331L372.758 352.527L372.731 361.213C372.731 361.374 372.644 361.522 372.506 361.601C372.365 361.681 372.197 361.681 372.056 361.6L362.836 356.277C362.698 356.198 362.611 356.048 362.611 355.887L362.673 334.386C362.673 334.225 362.759 334.077 362.898 333.996C363.039 333.916 363.207 333.916 363.348 333.998L391.007 349.966C391.145 350.046 391.232 350.195 391.232 350.356L391.17 371.857C391.17 372.018 391.083 372.166 390.945 372.247C390.875 372.286 390.797 372.307 390.72 372.307ZM381.951 366.274L390.271 371.078L390.331 350.615L363.572 335.165L363.512 355.628L371.832 360.431L371.859 351.746C371.859 351.586 371.945 351.437 372.084 351.357C372.225 351.277 372.393 351.277 372.534 351.359L381.754 356.681C381.892 356.761 381.979 356.911 381.979 357.073L381.951 366.274Z" fill="#373B42"/>
<path d="M445.215 366.49C444.171 365.889 442.729 365.973 441.126 366.897C437.957 368.727 435.395 373.167 435.402 376.813C435.409 378.622 436.051 379.893 437.08 380.493L358.15 334.665C357.12 334.071 356.479 332.795 356.472 330.985C356.465 327.339 359.026 322.9 362.196 321.07C363.798 320.144 365.241 320.062 366.284 320.67L445.215 366.49Z" fill="#DA0000"/>
<path d="M437.079 380.942C437.002 380.942 436.923 380.923 436.852 380.882L357.923 335.056C356.704 334.351 356.028 332.907 356.021 330.987C356.015 327.201 358.684 322.578 361.971 320.682C363.667 319.703 365.277 319.563 366.511 320.282L445.44 366.101C445.655 366.225 445.726 366.501 445.603 366.716C445.476 366.931 445.196 367.004 444.988 366.881C444.043 366.336 442.752 366.481 441.35 367.288C438.312 369.044 435.844 373.317 435.851 376.814C435.857 378.392 436.374 379.561 437.304 380.105L437.305 380.106C437.52 380.231 437.592 380.506 437.467 380.721C437.385 380.863 437.234 380.942 437.079 380.942ZM364.773 320.729C364.062 320.729 363.261 320.974 362.421 321.46C359.381 323.214 356.915 327.486 356.922 330.985C356.929 332.57 357.445 333.739 358.375 334.277L435.296 378.939C435.071 378.325 434.953 377.611 434.949 376.815C434.942 373.03 437.611 368.407 440.898 366.508C441.614 366.094 442.316 365.83 442.983 365.718L366.056 321.061C365.679 320.838 365.247 320.729 364.773 320.729Z" fill="#373B42"/>
<path d="M437.267 367.9C440.441 366.067 443.021 367.537 443.031 371.185C443.04 374.827 440.479 379.269 437.305 381.102C434.136 382.932 431.552 381.46 431.542 377.817C431.531 374.171 434.096 369.73 437.267 367.9Z" fill="white"/>
<path d="M434.727 382.342C434.101 382.342 433.519 382.193 433.002 381.897C431.774 381.191 431.094 379.742 431.089 377.818C431.078 374.036 433.747 369.411 437.039 367.511C438.726 366.539 440.335 366.393 441.567 367.103C442.793 367.809 443.472 369.258 443.477 371.184C443.488 374.968 440.819 379.593 437.526 381.491C436.549 382.056 435.597 382.342 434.727 382.342ZM437.491 368.29C434.447 370.047 431.98 374.322 431.991 377.817C431.996 379.405 432.515 380.577 433.453 381.117C434.4 381.663 435.687 381.517 437.079 380.713C440.122 378.957 442.59 374.684 442.579 371.187C442.573 369.597 442.056 368.423 441.119 367.884C440.177 367.341 438.888 367.485 437.491 368.29Z" fill="#373B42"/>
<path d="M449.92 359.961L440.254 365.572C439.129 366.228 437.581 366.081 435.945 365.141L428.679 360.94L438.334 355.329L445.61 359.531C447.246 360.47 448.793 360.607 449.92 359.961Z" fill="#373B42"/>
<path d="M438.68 366.429C437.765 366.429 436.759 366.129 435.718 365.532L428.454 361.33C428.315 361.251 428.229 361.101 428.229 360.942C428.229 360.781 428.312 360.633 428.452 360.552L438.108 354.941C438.249 354.86 438.42 354.86 438.56 354.941L445.836 359.142C447.295 359.98 448.7 360.139 449.695 359.573C449.911 359.448 450.182 359.524 450.308 359.738C450.431 359.953 450.359 360.227 450.145 360.353L450.141 360.354L440.479 365.964C439.942 366.276 439.337 366.429 438.68 366.429ZM429.576 360.94L436.17 364.752C437.642 365.596 439.048 365.754 440.028 365.184L447.659 360.753C446.93 360.644 446.16 360.366 445.385 359.921L438.334 355.85L429.576 360.94Z" fill="#373B42"/>
<path d="M491.626 414.457L481.961 420.067C478.112 422.31 472.785 421.997 466.91 418.609C455.236 411.862 445.776 395.488 445.816 382.072C445.835 375.413 448.195 370.712 452.005 368.5L461.661 362.89C457.861 365.103 455.501 369.794 455.482 376.463C455.443 389.878 464.903 406.252 476.577 412.99C482.452 416.376 487.779 416.69 491.626 414.457Z" fill="#373B42"/>
<path d="M476.387 421.964C473.402 421.964 470.098 420.97 466.684 419C454.889 412.182 445.327 395.617 445.366 382.071C445.386 375.46 447.664 370.5 451.778 368.109L461.434 362.499C461.649 362.374 461.925 362.445 462.049 362.662C462.174 362.877 462.102 363.152 461.887 363.277C461.887 363.279 461.887 363.279 461.887 363.279L461.886 363.28C458.064 365.506 455.95 370.187 455.931 376.463C455.892 389.725 465.254 405.934 476.801 412.599C482.339 415.794 487.522 416.317 491.398 414.07L491.399 414.068C491.398 414.068 491.401 414.068 491.399 414.068C491.609 413.943 491.89 414.015 492.015 414.232C492.139 414.447 492.068 414.723 491.852 414.847C491.848 414.849 491.845 414.85 491.843 414.853L482.188 420.457C480.462 421.465 478.503 421.964 476.387 421.964ZM458.14 365.454L452.231 368.888C448.403 371.113 446.284 375.795 446.267 382.073C446.228 395.332 455.59 411.546 467.134 418.218C472.679 421.414 477.865 421.933 481.735 419.678L487.648 416.245C484.256 416.669 480.383 415.703 476.351 413.378C464.556 406.57 454.993 390.009 455.03 376.459C455.044 371.91 456.128 368.142 458.14 365.454Z" fill="#373B42"/>
<path d="M505.444 405.3C505.415 414.388 502.213 420.782 497.043 423.79L487.377 429.401C492.547 426.395 495.759 419.999 495.78 410.921C495.839 392.639 482.991 370.37 467.077 361.184C459.077 356.562 451.82 356.131 446.58 359.176L456.246 353.566C461.484 350.52 468.731 350.951 476.741 355.573C492.655 364.758 505.493 387.017 505.444 405.3Z" fill="#373B42"/>
<path d="M487.377 429.852C487.222 429.852 487.07 429.772 486.988 429.628C486.864 429.413 486.935 429.138 487.15 429.013C492.406 425.958 495.313 419.534 495.329 410.922C495.388 392.809 482.612 370.673 466.852 361.576C459.255 357.188 452.133 356.471 446.806 359.569C446.589 359.691 446.314 359.621 446.191 359.406C446.067 359.19 446.138 358.915 446.353 358.79C446.362 358.786 446.371 358.781 446.38 358.777L456.02 353.18C461.637 349.919 469.073 350.629 476.967 355.187C492.968 364.422 505.946 386.905 505.895 405.305C505.867 414.26 502.804 420.964 497.27 424.183L487.603 429.793C487.532 429.833 487.455 429.852 487.377 429.852ZM454.155 356.769C458.197 356.769 462.671 358.119 467.302 360.795C483.311 370.037 496.289 392.525 496.23 410.924C496.216 417.474 494.567 422.824 491.508 426.483L496.816 423.401C502.063 420.35 504.967 413.923 504.994 405.3C505.042 387.187 492.266 365.057 476.516 355.965C468.917 351.577 461.796 350.863 456.473 353.957L451.182 357.029C452.143 356.854 453.134 356.769 454.155 356.769Z" fill="#373B42"/>
<path d="M467.079 361.189C482.991 370.377 495.835 392.637 495.783 410.922C495.731 429.199 482.802 436.581 466.89 427.394C455.667 420.915 445.965 407.923 441.238 394.413C440.225 391.511 438.141 388.869 435.877 387.561L428.612 383.367L428.675 360.945L435.947 365.143C438.204 366.446 440.302 366.219 441.329 364.486C446.112 356.468 455.856 354.71 467.079 361.189ZM466.915 418.608C478.581 425.344 488.104 419.925 488.142 406.511C488.18 393.097 478.72 376.705 467.053 369.968C455.38 363.229 445.859 368.663 445.82 382.075C445.782 395.489 455.242 411.867 466.915 418.608Z" fill="#DA0000"/>
<path d="M479.81 431.806C475.768 431.806 471.293 430.456 466.663 427.782C455.665 421.433 445.759 408.705 440.811 394.561C439.848 391.799 437.822 389.204 435.652 387.952L428.387 383.757C428.249 383.677 428.162 383.528 428.162 383.367L428.225 360.945C428.225 360.784 428.312 360.636 428.45 360.555C428.591 360.475 428.759 360.475 428.9 360.556L436.171 364.755C438.229 365.942 440.055 365.753 440.941 364.258C446.052 355.688 456.151 354.361 467.301 360.801C483.307 370.04 496.283 392.526 496.232 410.923C496.207 419.905 493.125 426.615 487.555 429.821C485.248 431.148 482.636 431.806 479.81 431.806ZM429.063 383.108L436.102 387.173C438.483 388.547 440.614 391.265 441.663 394.264C446.542 408.212 456.295 420.757 467.114 427.004C474.686 431.376 481.787 432.1 487.104 429.039C492.385 426.001 495.308 419.566 495.331 410.919C495.384 392.809 482.608 370.675 466.852 361.578C456.174 355.416 446.545 356.619 441.716 364.717C440.571 366.653 438.218 366.972 435.721 365.534L429.124 361.723L429.063 383.108ZM476.393 421.962C473.404 421.962 470.103 420.968 466.69 418.996C454.895 412.187 445.332 395.625 445.368 382.075C445.388 375.441 447.676 370.476 451.813 368.095C455.977 365.701 461.468 366.226 467.277 369.58C479.068 376.386 488.628 392.954 488.592 406.512C488.573 413.144 486.287 418.106 482.151 420.484C480.434 421.471 478.489 421.962 476.393 421.962ZM457.578 367.516C455.635 367.516 453.842 367.966 452.264 368.874C448.415 371.088 446.287 375.776 446.268 382.075C446.232 395.338 455.595 411.551 467.14 418.216C472.659 421.403 477.833 421.931 481.702 419.703C485.546 417.491 487.674 412.805 487.692 406.509C487.728 393.238 478.369 377.022 466.827 370.359C463.557 368.471 460.407 367.516 457.578 367.516Z" fill="#373B42"/>
<path d="M109.908 238.83L102.96 234.794L102.927 223.401L109.876 227.439L109.908 238.83Z" fill="#373B42"/>
<path d="M109.906 239.282C109.829 239.282 109.75 239.262 109.68 239.222L102.734 235.185C102.597 235.104 102.51 234.956 102.51 234.798L102.477 223.405C102.477 223.243 102.563 223.094 102.702 223.014C102.843 222.933 103.013 222.933 103.153 223.014L110.102 227.052C110.239 227.133 110.326 227.281 110.326 227.441L110.358 238.833C110.358 238.994 110.271 239.143 110.133 239.223C110.062 239.262 109.985 239.282 109.906 239.282ZM103.41 234.535L109.455 238.048L109.425 227.699L103.38 224.186L103.41 234.535Z" fill="#373B42"/>
<path d="M200.228 97.9211C199.082 97.2472 197.479 97.338 195.732 98.3587L106.717 149.745C103.204 151.766 100.382 156.682 100.401 160.686L100.582 225.508C100.582 227.51 101.293 228.912 102.439 229.586L95.4888 225.544C94.3423 224.87 93.6321 223.469 93.6321 221.467L93.4503 156.664C93.4321 152.64 96.2718 147.725 99.7672 145.705L188.781 94.318C190.529 93.2988 192.131 93.2078 193.278 93.8804L200.228 97.9211Z" fill="#F0F2F5"/>
<path d="M102.439 230.034C102.362 230.034 102.284 230.014 102.213 229.974L95.2624 225.931C93.9201 225.143 93.1819 223.557 93.1819 221.464L93.0001 156.662C92.9805 152.501 95.9125 147.411 99.5408 145.313L188.556 93.9253C190.37 92.8669 192.175 92.7089 193.506 93.4904L200.434 97.5172C200.439 97.5214 200.446 97.5255 200.453 97.5283L200.455 97.5298L200.456 97.5312C200.668 97.657 200.741 97.9324 200.617 98.1464C200.49 98.3617 200.215 98.433 200.002 98.3086L200 98.3071L199.982 98.2973C198.94 97.6975 197.476 97.8611 195.959 98.7447L106.944 150.133C103.566 152.076 100.833 156.808 100.852 160.682L101.034 225.504C101.034 227.264 101.614 228.574 102.67 229.195C102.882 229.321 102.955 229.596 102.831 229.81C102.743 229.954 102.593 230.034 102.439 230.034ZM191.611 93.9001C190.816 93.9001 189.921 94.1714 189.008 94.7041L99.9909 146.092C96.6157 148.044 93.8809 152.785 93.9005 156.659L94.0823 221.463C94.0823 223.223 94.6626 224.535 95.7182 225.153L100.556 227.967C100.278 227.264 100.132 226.435 100.132 225.506L99.9504 160.686C99.9308 156.524 102.866 151.44 106.492 149.354L195.506 97.9688C196.32 97.4934 197.134 97.1984 197.903 97.0894L193.051 94.2692C192.63 94.0218 192.142 93.9001 191.611 93.9001Z" fill="#373B42"/>
<path d="M195.723 98.3526C199.221 96.3323 202.067 97.9682 202.078 101.988L202.262 166.798C202.274 170.818 199.448 175.727 195.948 177.747L121.323 220.832L109.907 238.833L109.875 227.441L106.934 229.138C103.436 231.157 100.591 229.523 100.58 225.503L100.397 160.693C100.385 156.673 103.211 151.764 106.711 149.744L195.723 98.3526Z" fill="white"/>
<path d="M109.905 239.282C109.863 239.282 109.821 239.276 109.781 239.264C109.589 239.208 109.455 239.033 109.455 238.831L109.426 228.217L107.158 229.525C105.321 230.588 103.567 230.749 102.218 229.97C100.876 229.198 100.134 227.611 100.128 225.501L99.9434 160.691C99.9322 156.526 102.867 151.439 106.484 149.352L195.498 97.9596C197.337 96.897 199.091 96.7389 200.438 97.5149C201.78 98.2867 202.522 99.8737 202.528 101.984L202.713 166.793C202.724 170.956 199.79 176.044 196.173 178.132L121.641 221.161L110.284 239.069C110.202 239.206 110.058 239.282 109.905 239.282ZM109.875 226.989C109.951 226.989 110.03 227.01 110.1 227.049C110.238 227.129 110.325 227.279 110.325 227.439L110.353 237.288L120.942 220.591C120.982 220.53 121.033 220.478 121.098 220.443L195.723 177.357C199.09 175.412 201.822 170.675 201.811 166.8L201.626 101.991C201.621 100.216 201.04 98.9061 199.989 98.3007C198.933 97.6911 197.496 97.8491 195.948 98.744L106.934 150.136C103.566 152.081 100.834 156.817 100.844 160.694L101.028 225.504C101.034 227.278 101.614 228.589 102.666 229.194C103.723 229.798 105.157 229.643 106.706 228.749L109.648 227.052C109.719 227.01 109.796 226.989 109.875 226.989Z" fill="#373B42"/>
<path d="M158.194 149.903C159.635 149.071 160.801 149.735 160.806 151.392C160.81 153.047 159.652 155.067 158.211 155.899L120.621 177.602C119.179 178.433 118.002 177.762 117.998 176.107C117.994 174.451 119.163 172.438 120.604 171.606L158.194 149.903Z" fill="#DBDEE4"/>
<path d="M136.093 178.432C137.535 177.6 138.701 178.264 138.705 179.921C138.709 181.576 137.551 183.597 136.11 184.429L120.621 193.371C119.179 194.203 118.002 193.532 117.998 191.877C117.994 190.221 119.163 188.208 120.604 187.376L136.093 178.432Z" fill="white"/>
<path d="M119.451 194.18C119.124 194.18 118.816 194.1 118.543 193.944C117.904 193.577 117.551 192.842 117.548 191.877C117.542 190.054 118.787 187.905 120.381 186.984L135.868 178.042C136.714 177.557 137.53 177.487 138.169 177.855C138.804 178.221 139.155 178.954 139.157 179.919C139.162 181.749 137.923 183.901 136.336 184.816L120.848 193.759C120.362 194.039 119.888 194.18 119.451 194.18ZM136.317 178.821L120.829 187.762C119.533 188.51 118.443 190.394 118.448 191.873C118.45 192.505 118.644 192.962 118.992 193.162C119.339 193.365 119.852 193.294 120.396 192.98L135.885 184.038C137.174 183.292 138.259 181.408 138.255 179.922C138.253 179.291 138.063 178.835 137.718 178.635C137.378 178.442 136.868 178.508 136.317 178.821Z" fill="#373B42"/>
<path d="M251.364 124.609C250.218 123.935 248.615 124.026 246.85 125.046L157.854 176.433C154.358 178.453 151.519 183.35 151.519 187.374L151.7 252.194C151.719 254.196 152.411 255.598 153.557 256.253L146.607 252.211C145.479 251.555 144.768 250.154 144.75 248.152L144.568 183.332C144.568 179.308 147.408 174.411 150.903 172.391L239.899 121.004C241.665 119.985 243.267 119.894 244.414 120.568L251.364 124.609Z" fill="#F0F2F5"/>
<path d="M153.557 256.705C153.481 256.705 153.404 256.686 153.333 256.645C153.319 256.637 153.305 256.63 153.292 256.621L146.381 252.602C145.059 251.833 144.318 250.256 144.301 248.157L144.119 183.334C144.119 179.177 147.062 174.095 150.679 172.003L239.675 120.616C241.531 119.543 243.292 119.389 244.643 120.182L251.571 124.21C251.576 124.214 251.583 124.218 251.59 124.221L251.592 124.222L251.593 124.224C251.806 124.349 251.878 124.625 251.754 124.839C251.627 125.054 251.353 125.124 251.139 125.001L251.137 125L251.119 124.988C250.062 124.38 248.632 124.538 247.077 125.437L158.081 176.825C154.71 178.773 151.97 183.507 151.97 187.376L152.153 252.196C152.168 253.949 152.735 255.244 153.748 255.847L153.785 255.868C154 255.992 154.071 256.268 153.948 256.483C153.863 256.624 153.712 256.705 153.557 256.705ZM242.74 120.583C241.95 120.583 241.059 120.855 240.125 121.395L151.129 172.782C147.761 174.729 145.02 179.462 145.02 183.332L145.201 248.153C145.217 249.916 145.798 251.222 146.834 251.823L151.679 254.642C151.406 253.945 151.261 253.123 151.251 252.2L151.068 187.376C151.068 183.219 154.011 178.137 157.63 176.045L246.625 124.657C247.455 124.178 248.265 123.883 249.026 123.772L244.187 120.958C243.762 120.706 243.274 120.583 242.74 120.583Z" fill="#373B42"/>
<path d="M246.852 125.046C250.35 123.027 253.206 124.64 253.217 128.66L253.401 193.483C253.412 197.503 250.574 202.406 247.075 204.425L244.146 206.115L244.178 217.508L232.687 212.732L158.072 255.81C154.574 257.831 151.718 256.216 151.707 252.196L151.523 187.373C151.512 183.353 154.351 178.451 157.849 176.431L246.852 125.046Z" fill="white"/>
<path d="M155.225 257.137C154.54 257.137 153.906 256.976 153.343 256.651C152.005 255.882 151.264 254.3 151.257 252.2L151.074 187.375C151.062 183.22 153.999 178.136 157.623 176.042L246.626 124.656C248.473 123.591 250.233 123.432 251.585 124.208C252.922 124.978 253.663 126.559 253.669 128.659L253.853 193.482C253.864 197.641 250.925 202.724 247.303 204.814L244.599 206.376L244.631 217.507C244.631 217.658 244.557 217.798 244.431 217.882C244.307 217.966 244.144 217.981 244.009 217.924L232.724 213.234L158.3 256.2C157.223 256.823 156.176 257.137 155.225 257.137ZM247.076 125.437L158.073 176.822C154.7 178.772 151.962 183.505 151.975 187.372L152.158 252.197C152.163 253.963 152.744 255.267 153.792 255.87C154.853 256.479 156.294 256.319 157.848 255.422L232.464 212.345C232.586 212.275 232.735 212.265 232.861 212.318L243.728 216.834L243.698 206.12C243.698 205.96 243.785 205.81 243.923 205.73L246.853 204.038C250.226 202.091 252.964 197.358 252.953 193.488L252.768 128.665C252.763 126.899 252.184 125.596 251.135 124.992C250.075 124.378 248.631 124.536 247.076 125.437Z" fill="#373B42"/>
<path d="M175.802 189.937L175.893 221.643C175.911 224.596 177.994 225.773 180.567 224.307L224.486 198.941C227.058 197.455 229.142 193.851 229.125 190.896L229.034 159.208C229.034 156.274 226.951 155.077 224.378 156.563L180.441 181.928C177.867 183.413 175.802 187.001 175.802 189.937Z" fill="#DA0000"/>
<path d="M199.505 203.757C199.284 203.757 199.06 203.717 198.843 203.632L189.719 200.03C188.793 199.665 188.34 198.618 188.705 197.692C189.067 196.767 190.12 196.316 191.042 196.678L198.578 199.654L208.432 178.156C208.846 177.252 209.91 176.852 210.821 177.268C211.726 177.683 212.123 178.751 211.708 179.656L201.143 202.706C200.84 203.366 200.19 203.757 199.505 203.757Z" fill="white"/>
<path d="M226.342 329.675C224.978 329.675 223.66 329.365 222.722 328.824C221.97 328.389 221.538 327.855 221.536 327.36C221.536 326.869 221.958 326.342 222.698 325.913C223.628 325.373 224.941 325.062 226.302 325.062C227.664 325.062 228.983 325.373 229.918 325.914C230.672 326.349 231.104 326.883 231.104 327.381C231.104 327.871 230.682 328.399 229.943 328.828C229.016 329.365 227.702 329.675 226.342 329.675Z" fill="#373B42"/>
<defs>
<filter id="filter0_d_399_11456" x="0" y="0" width="648" height="656" filterUnits="userSpaceOnUse" color-interpolation-filters="sRGB">
<feFlood flood-opacity="0" result="BackgroundImageFix"/>
<feColorMatrix in="SourceAlpha" type="matrix" values="0 0 0 0 0 0 0 0 0 0 0 0 0 0 0 0 0 0 127 0" result="hardAlpha"/>
<feOffset dy="4"/>
<feGaussianBlur stdDeviation="2"/>
<feComposite in2="hardAlpha" operator="out"/>
<feColorMatrix type="matrix" values="0 0 0 0 0 0 0 0 0 0 0 0 0 0 0 0 0 0 0.25 0"/>
<feBlend mode="normal" in2="BackgroundImageFix" result="effect1_dropShadow_399_11456"/>
<feBlend mode="normal" in="SourceGraphic" in2="effect1_dropShadow_399_11456" result="shape"/>
</filter>
</defs>
</svg>
