<svg width="648" height="656" viewBox="0 0 648 656" fill="none" xmlns="http://www.w3.org/2000/svg">
<g filter="url(#filter0_d_399_3036)">
<path d="M75.9101 0L644 0.336294V648H4V576.937V71.8492C28.719 47.1121 52.5226 24.3319 75.9101 0Z" fill="white"/>
</g>
<path d="M370.861 539.043C369.388 539.043 367.916 538.663 366.601 537.905L304.575 502.089C304.362 501.965 304.289 501.692 304.411 501.479C304.534 501.263 304.811 501.195 305.021 501.316L367.047 537.131C369.407 538.494 372.339 538.489 374.696 537.12L436.302 501.317C436.515 501.19 436.788 501.265 436.912 501.477C437.036 501.692 436.964 501.964 436.752 502.087L375.145 537.891C373.824 538.657 372.343 539.043 370.861 539.043Z" fill="#DBDEE4"/>
<path d="M176.095 483.007C175.942 483.007 175.792 482.927 175.71 482.786C175.586 482.571 175.658 482.3 175.87 482.176L254.269 436.612C255.128 436.112 255.641 435.221 255.639 434.225C255.639 433.232 255.123 432.343 254.264 431.846L175.326 386.268C175.114 386.144 175.04 385.871 175.162 385.658C175.286 385.442 175.562 385.372 175.773 385.495L254.71 431.073C255.85 431.731 256.53 432.91 256.531 434.226C256.533 435.542 255.855 436.722 254.718 437.382L176.32 482.946C176.248 482.988 176.172 483.007 176.095 483.007Z" fill="#DBDEE4"/>
<path d="M348.069 399.6C347.993 399.6 347.916 399.581 347.846 399.541L284.902 363.198C283.841 362.584 283.205 361.486 283.203 360.259C283.201 359.034 283.834 357.935 284.892 357.32L347.407 320.989C347.621 320.862 347.893 320.937 348.017 321.149C348.141 321.364 348.069 321.636 347.857 321.759L285.342 358.091C284.561 358.545 284.096 359.354 284.096 360.257C284.097 361.162 284.566 361.972 285.349 362.424L348.292 398.767C348.505 398.891 348.578 399.165 348.456 399.377C348.373 399.52 348.223 399.6 348.069 399.6Z" fill="#DBDEE4"/>
<path d="M235.889 349.098C235.736 349.098 235.586 349.018 235.504 348.876C235.38 348.662 235.452 348.39 235.664 348.266L287.048 318.403C287.261 318.278 287.534 318.351 287.658 318.564C287.782 318.778 287.711 319.05 287.498 319.174L236.114 349.037C236.043 349.079 235.966 349.098 235.889 349.098Z" fill="#DBDEE4"/>
<path d="M435.875 384.792C435.799 384.792 435.722 384.773 435.652 384.732L339.504 329.218C339.292 329.094 339.218 328.82 339.34 328.608C339.464 328.391 339.739 328.323 339.95 328.444L436.098 383.959C436.311 384.082 436.384 384.356 436.262 384.569C436.179 384.711 436.029 384.792 435.875 384.792Z" fill="#DBDEE4"/>
<path d="M513.906 547.667C513.752 547.667 513.602 547.586 513.52 547.445C513.396 547.231 513.468 546.959 513.681 546.835L549.583 525.972C549.972 525.745 550.204 525.341 550.202 524.891C550.202 524.443 549.97 524.042 549.581 523.819L507.352 499.436C507.139 499.312 507.066 499.038 507.188 498.826C507.312 498.611 507.587 498.54 507.798 498.662L550.028 523.045C550.694 523.43 551.093 524.119 551.094 524.889C551.096 525.661 550.699 526.353 550.033 526.742L514.13 547.605C514.059 547.648 513.982 547.667 513.906 547.667Z" fill="#DBDEE4"/>
<path d="M247.326 305.265C243.689 307.365 243.67 310.771 247.283 312.871L316.72 353.225C320.333 355.325 326.201 355.318 329.838 353.219L399.74 312.858C403.377 310.758 403.408 307.358 399.795 305.259L330.359 264.904C326.745 262.804 320.865 262.804 317.229 264.904L247.326 305.265Z" fill="#373B42"/>
<path d="M98.1873 392.194C94.5505 394.293 94.5317 397.699 98.1445 399.799L167.581 440.154C171.194 442.254 177.063 442.247 180.699 440.147L250.602 399.786C254.239 397.687 254.27 394.287 250.657 392.187L181.22 351.833C177.607 349.733 171.727 349.733 168.09 351.833L98.1873 392.194Z" fill="#373B42"/>
<g opacity="0.1">
<path d="M552.364 503.295L468.695 551.919L384.488 503.301L468.158 454.677L552.364 503.295Z" fill="#373B42"/>
</g>
<path d="M552.364 468.636L552.272 494.626L468.603 543.251L468.695 517.26L552.364 468.636Z" fill="white"/>
<path d="M468.603 543.697C468.526 543.697 468.449 543.678 468.379 543.637C468.24 543.557 468.156 543.409 468.156 543.249L468.249 517.259C468.249 517.1 468.334 516.954 468.47 516.875L552.14 468.251C552.279 468.17 552.448 468.169 552.588 468.249C552.727 468.329 552.811 468.477 552.811 468.637L552.718 494.629C552.718 494.788 552.633 494.934 552.497 495.013L468.827 543.636C468.758 543.676 468.679 543.697 468.603 543.697ZM469.14 517.519L469.052 542.473L551.828 494.37L551.915 469.413L469.14 517.519Z" fill="#373B42"/>
<path d="M468.697 517.261L468.605 543.251L384.398 494.633L384.491 468.643L468.697 517.261Z" fill="#BEC4CD"/>
<path d="M468.605 543.696C468.528 543.696 468.452 543.677 468.382 543.637L384.175 495.019C384.038 494.939 383.952 494.791 383.952 494.631L384.045 468.641C384.045 468.482 384.13 468.336 384.268 468.255C384.407 468.175 384.575 468.175 384.714 468.255L468.921 516.873C469.058 516.954 469.144 517.102 469.144 517.262L469.051 543.252C469.051 543.41 468.966 543.557 468.828 543.637C468.758 543.677 468.682 543.696 468.605 543.696ZM384.847 494.376L468.162 542.48L468.25 517.516L384.934 469.413L384.847 494.376Z" fill="#373B42"/>
<path d="M552.363 468.636L468.694 517.26L384.487 468.642L468.157 420.018L552.363 468.636Z" fill="white"/>
<path d="M468.693 517.706C468.616 517.706 468.54 517.687 468.47 517.647L384.263 469.029C384.126 468.949 384.04 468.803 384.04 468.642C384.04 468.484 384.124 468.337 384.261 468.257L467.931 419.632C468.071 419.552 468.24 419.55 468.379 419.631L552.586 468.248C552.723 468.329 552.809 468.475 552.809 468.635C552.809 468.794 552.725 468.94 552.587 469.021L468.918 517.645C468.848 517.685 468.77 517.706 468.693 517.706ZM385.377 468.64L468.693 516.744L551.472 468.637L468.156 420.533L385.377 468.64Z" fill="#373B42"/>
<path d="M482.171 517.401C484.544 516.031 486.466 517.112 486.474 519.839C486.482 522.553 484.572 525.861 482.198 527.231L478.193 529.543C475.832 530.907 473.91 529.811 473.902 527.098C473.895 524.371 475.805 521.077 478.166 519.713L482.171 517.401Z" fill="#DA0000"/>
<path d="M542.769 482.353C545.13 480.99 547.053 482.072 547.06 484.799C547.068 487.512 545.158 490.82 542.797 492.183L494.387 520.193C492.026 521.556 490.103 520.461 490.096 517.748C490.088 515.02 491.998 511.727 494.359 510.363L542.769 482.353Z" fill="#DA0000"/>
<path d="M477.993 525.19C477.84 525.19 477.69 525.11 477.608 524.969C477.484 524.755 477.555 524.483 477.768 524.359L482.162 521.805C482.377 521.678 482.648 521.753 482.772 521.966C482.896 522.18 482.824 522.452 482.612 522.576L478.218 525.129C478.146 525.171 478.07 525.19 477.993 525.19Z" fill="white"/>
<path d="M496.127 513.146C496.649 512.845 497.071 513.097 497.072 513.697C497.074 514.285 496.655 515.022 496.133 515.323C495.611 515.625 495.179 515.379 495.178 514.79C495.176 514.19 495.605 513.448 496.127 513.146Z" fill="white"/>
<path d="M501.74 509.906C502.262 509.604 502.683 509.856 502.685 510.456C502.686 511.045 502.268 511.782 501.746 512.083C501.224 512.385 500.802 512.133 500.801 511.544C500.799 510.944 501.217 510.208 501.74 509.906Z" fill="white"/>
<path d="M507.351 506.666C507.873 506.364 508.294 506.616 508.296 507.216C508.298 507.805 507.88 508.542 507.357 508.843C506.835 509.144 506.414 508.892 506.412 508.304C506.41 507.704 506.829 506.968 507.351 506.666Z" fill="white"/>
<path d="M512.964 503.426C513.486 503.124 513.908 503.376 513.91 503.976C513.911 504.564 513.493 505.301 512.971 505.603C512.448 505.904 512.027 505.652 512.025 505.064C512.023 504.464 512.442 503.727 512.964 503.426Z" fill="white"/>
<path d="M518.576 500.186C519.098 499.884 519.53 500.13 519.531 500.73C519.533 501.318 519.104 502.061 518.582 502.363C518.06 502.664 517.638 502.412 517.637 501.824C517.635 501.224 518.053 500.487 518.576 500.186Z" fill="white"/>
<path d="M524.197 496.939C524.72 496.638 525.141 496.889 525.143 497.49C525.144 498.078 524.726 498.815 524.204 499.116C523.671 499.424 523.25 499.172 523.248 498.583C523.247 497.983 523.665 497.247 524.197 496.939Z" fill="white"/>
<path d="M529.809 493.699C530.331 493.397 530.752 493.649 530.754 494.249C530.755 494.838 530.337 495.575 529.815 495.876C529.293 496.178 528.861 495.932 528.859 495.343C528.858 494.743 529.286 494.001 529.809 493.699Z" fill="white"/>
<path d="M535.421 490.459C535.944 490.157 536.365 490.409 536.367 491.009C536.368 491.598 535.95 492.334 535.428 492.636C534.905 492.938 534.484 492.685 534.482 492.097C534.481 491.497 534.899 490.761 535.421 490.459Z" fill="white"/>
<path d="M541.033 487.218C541.555 486.917 541.976 487.169 541.978 487.769C541.98 488.357 541.561 489.094 541.039 489.396C540.517 489.697 540.095 489.445 540.094 488.857C540.092 488.257 540.511 487.52 541.033 487.218Z" fill="white"/>
<path d="M537.071 448.35L536.992 468.004L468.616 507.755L399.78 468.019L399.86 448.35H537.071Z" fill="#373B42"/>
<path d="M468.615 508.2C468.539 508.2 468.462 508.181 468.392 508.141L399.557 468.405C399.418 468.325 399.334 468.177 399.334 468.017L399.413 448.347C399.414 448.101 399.613 447.902 399.859 447.902H537.07C537.189 447.902 537.302 447.949 537.386 448.033C537.47 448.119 537.517 448.232 537.517 448.35L537.438 468.004C537.438 468.163 537.353 468.309 537.217 468.388L468.84 508.139C468.77 508.179 468.692 508.2 468.615 508.2ZM400.228 467.762L468.615 507.238L536.547 467.745L536.622 448.795H400.303L400.228 467.762Z" fill="#373B42"/>
<path d="M552.364 426.656L552.272 452.647L468.603 501.271L468.695 475.281L552.364 426.656Z" fill="white"/>
<path d="M468.603 501.717C468.526 501.717 468.449 501.698 468.379 501.658C468.24 501.578 468.156 501.43 468.156 501.269L468.249 475.279C468.249 475.121 468.334 474.974 468.47 474.896L552.14 426.271C552.279 426.191 552.448 426.189 552.588 426.269C552.727 426.349 552.811 426.498 552.811 426.658L552.718 452.648C552.718 452.806 552.633 452.953 552.497 453.031L468.827 501.656C468.758 501.696 468.679 501.717 468.603 501.717ZM469.14 475.539L469.052 500.494L551.828 452.388L551.915 427.434L469.14 475.539Z" fill="#373B42"/>
<path d="M468.697 475.282L468.605 501.272L384.398 452.654L384.491 426.664L468.697 475.282Z" fill="#BEC4CD"/>
<path d="M468.605 501.718C468.528 501.718 468.452 501.699 468.382 501.659L384.175 453.041C384.038 452.961 383.952 452.813 383.952 452.652L384.045 426.662C384.045 426.504 384.13 426.357 384.268 426.277C384.407 426.197 384.575 426.197 384.714 426.277L468.921 474.895C469.058 474.975 469.144 475.123 469.144 475.284L469.051 501.274C469.051 501.432 468.966 501.579 468.828 501.659C468.758 501.699 468.682 501.718 468.605 501.718ZM384.847 452.398L468.162 500.501L468.25 475.538L384.934 427.434L384.847 452.398Z" fill="#373B42"/>
<path d="M552.363 426.657L468.694 475.282L384.487 426.664L468.157 378.039L552.363 426.657Z" fill="white"/>
<path d="M468.693 475.728C468.616 475.728 468.54 475.709 468.47 475.669L384.263 427.051C384.126 426.971 384.04 426.824 384.04 426.664C384.04 426.505 384.124 426.359 384.261 426.279L467.931 377.654C468.071 377.574 468.24 377.572 468.379 377.652L552.586 426.27C552.723 426.35 552.809 426.496 552.809 426.657C552.809 426.815 552.725 426.962 552.587 427.042L468.918 475.667C468.848 475.707 468.77 475.728 468.693 475.728ZM385.377 426.662L468.693 474.766L551.472 426.659L468.156 378.555L385.377 426.662Z" fill="#373B42"/>
<path d="M482.171 475.422C484.544 474.051 486.466 475.132 486.474 477.86C486.482 480.573 484.572 483.881 482.198 485.251L478.193 487.564C475.832 488.927 473.91 487.832 473.902 485.119C473.895 482.391 475.805 479.097 478.166 477.734L482.171 475.422Z" fill="#DA0000"/>
<path d="M542.769 440.375C545.13 439.012 547.053 440.093 547.06 442.82C547.068 445.534 545.158 448.842 542.797 450.205L494.387 478.215C492.026 479.578 490.103 478.482 490.096 475.769C490.088 473.042 491.998 469.748 494.359 468.385L542.769 440.375Z" fill="#DA0000"/>
<path d="M477.993 483.212C477.84 483.212 477.69 483.132 477.608 482.99C477.484 482.776 477.555 482.504 477.768 482.38L482.162 479.827C482.377 479.7 482.648 479.775 482.772 479.987C482.896 480.202 482.824 480.473 482.612 480.597L478.218 483.151C478.146 483.193 478.07 483.212 477.993 483.212Z" fill="white"/>
<path d="M496.127 471.167C496.649 470.865 497.071 471.117 497.072 471.717C497.074 472.306 496.655 473.042 496.133 473.344C495.611 473.645 495.179 473.399 495.178 472.811C495.176 472.211 495.605 471.469 496.127 471.167Z" fill="white"/>
<path d="M501.74 467.927C502.262 467.625 502.683 467.877 502.685 468.477C502.686 469.065 502.268 469.802 501.746 470.104C501.224 470.405 500.802 470.153 500.801 469.565C500.799 468.965 501.217 468.228 501.74 467.927Z" fill="white"/>
<path d="M507.351 464.687C507.873 464.386 508.294 464.637 508.296 465.238C508.298 465.826 507.88 466.563 507.357 466.864C506.835 467.166 506.414 466.914 506.412 466.326C506.41 465.725 506.829 464.989 507.351 464.687Z" fill="white"/>
<path d="M512.964 461.447C513.486 461.145 513.908 461.397 513.91 461.997C513.911 462.586 513.493 463.323 512.971 463.624C512.448 463.926 512.027 463.674 512.025 463.085C512.023 462.485 512.442 461.749 512.964 461.447Z" fill="white"/>
<path d="M518.576 458.206C519.098 457.905 519.53 458.15 519.531 458.751C519.533 459.339 519.104 460.082 518.582 460.383C518.06 460.685 517.638 460.433 517.637 459.844C517.635 459.244 518.053 458.508 518.576 458.206Z" fill="white"/>
<path d="M524.197 454.961C524.72 454.659 525.141 454.911 525.143 455.511C525.144 456.1 524.726 456.836 524.204 457.138C523.671 457.445 523.25 457.193 523.248 456.605C523.247 456.005 523.665 455.268 524.197 454.961Z" fill="white"/>
<path d="M529.809 451.721C530.331 451.419 530.752 451.671 530.754 452.271C530.755 452.859 530.337 453.596 529.815 453.898C529.293 454.199 528.861 453.953 528.859 453.365C528.858 452.765 529.286 452.022 529.809 451.721Z" fill="white"/>
<path d="M535.421 448.48C535.944 448.179 536.365 448.431 536.367 449.031C536.368 449.619 535.95 450.356 535.428 450.657C534.905 450.959 534.484 450.707 534.482 450.119C534.481 449.519 534.899 448.782 535.421 448.48Z" fill="white"/>
<path d="M541.033 445.24C541.555 444.939 541.976 445.19 541.978 445.79C541.98 446.379 541.561 447.116 541.039 447.417C540.517 447.718 540.095 447.466 540.094 446.878C540.092 446.278 540.511 445.541 541.033 445.24Z" fill="white"/>
<path d="M531.188 280.325L511.437 268.847C510.694 268.415 509.695 268.403 508.575 268.864C502.171 271.477 496.443 271.311 492.096 268.785L511.847 280.263C516.194 282.789 521.922 282.955 528.327 280.342C529.447 279.881 530.445 279.893 531.188 280.325Z" fill="#373B42"/>
<path d="M519.503 282.691C516.621 282.691 513.967 282.01 511.624 280.649L491.884 269.176C491.879 269.174 491.876 269.173 491.872 269.169C491.66 269.045 491.588 268.774 491.712 268.559C491.834 268.347 492.106 268.273 492.322 268.399L492.331 268.404C496.702 270.94 502.266 270.959 508.408 268.451C509.63 267.944 510.786 267.947 511.664 268.462L531.414 279.941C531.627 280.065 531.698 280.339 531.575 280.551C531.451 280.762 531.177 280.835 530.965 280.712L530.961 280.71C530.33 280.344 529.459 280.359 528.498 280.755C525.333 282.045 522.31 282.691 519.503 282.691ZM496.641 270.908L512.074 279.878C516.447 282.421 522.012 282.437 528.16 279.928C528.484 279.796 528.803 279.698 529.113 279.635L511.214 269.232C510.583 268.865 509.705 268.881 508.748 269.277C504.441 271.034 500.289 271.581 496.641 270.908Z" fill="#373B42"/>
<path d="M431.923 280.001L479.258 252.69C480.557 251.951 481.704 251.874 482.544 252.359L502.314 263.848C501.473 263.339 500.301 263.415 499.028 264.154L451.693 291.491C450.633 292.1 449.679 293.069 448.904 294.202L429.146 282.719C429.923 281.583 430.875 280.61 431.923 280.001Z" fill="#373B42"/>
<path d="M448.905 294.648C448.828 294.648 448.752 294.629 448.68 294.587L428.921 283.104C428.815 283.043 428.738 282.938 428.71 282.816C428.684 282.696 428.709 282.569 428.778 282.466C429.636 281.213 430.645 280.228 431.698 279.616C431.7 279.616 431.7 279.614 431.7 279.614L479.035 252.303C480.435 251.507 481.759 251.393 482.768 251.972L502.468 263.422C502.494 263.436 502.52 263.451 502.546 263.467C502.756 263.594 502.824 263.866 502.698 264.077C502.571 264.286 502.301 264.356 502.09 264.234L502.029 264.199C501.316 263.802 500.312 263.925 499.254 264.539L451.917 291.878C450.966 292.423 450.052 293.314 449.273 294.452C449.187 294.58 449.048 294.648 448.905 294.648ZM429.795 282.579L448.776 293.611C449.578 292.523 450.503 291.66 451.472 291.104L498.806 263.767C499.299 263.481 499.792 263.282 500.266 263.174L482.32 252.744C481.6 252.331 480.591 252.444 479.477 253.079L432.148 280.387C431.318 280.869 430.511 281.622 429.795 282.579Z" fill="#373B42"/>
<path d="M402.802 329.937C409.681 324.816 415.718 317.427 420.126 309.249C423.922 302.243 426.469 294.676 427.285 287.466C427.47 285.846 428.164 284.15 429.144 282.719L448.902 294.202C447.926 295.629 447.239 297.323 447.054 298.957C446.214 306.166 443.666 313.707 439.87 320.739C435.463 328.892 429.425 336.28 422.572 341.401C421.246 342.374 420.115 343.812 419.361 345.368L399.613 333.892C400.37 332.342 401.493 330.908 402.802 329.937Z" fill="#373B42"/>
<path d="M419.361 345.814C419.282 345.814 419.206 345.793 419.136 345.753L399.388 334.277C399.185 334.16 399.109 333.906 399.212 333.697C400.027 332.027 401.207 330.565 402.537 329.578C409.134 324.666 415.242 317.372 419.734 309.038C423.589 301.918 426.047 294.443 426.842 287.416C427.028 285.775 427.715 284.016 428.776 282.466C428.907 282.273 429.163 282.213 429.369 282.334L449.128 293.817C449.234 293.878 449.311 293.982 449.338 294.104C449.365 294.224 449.34 294.352 449.271 294.454C448.298 295.873 447.669 297.491 447.496 299.007C446.666 306.138 444.165 313.725 440.262 320.952C435.708 329.376 429.52 336.766 422.838 341.758C421.604 342.664 420.512 344.015 419.761 345.563C419.707 345.675 419.61 345.758 419.491 345.795C419.448 345.807 419.404 345.814 419.361 345.814ZM400.202 333.718L419.178 344.746C419.978 343.249 421.078 341.945 422.307 341.042C428.885 336.127 434.984 328.841 439.479 320.527C443.327 313.399 445.794 305.924 446.611 298.905C446.782 297.39 447.368 295.79 448.272 294.352L429.286 283.317C428.435 284.659 427.886 286.137 427.727 287.518C426.922 294.655 424.43 302.244 420.518 309.462C415.965 317.907 409.769 325.306 403.069 330.295C403.069 330.295 403.069 330.296 403.067 330.296C401.95 331.124 400.943 332.33 400.202 333.718Z" fill="#373B42"/>
<path d="M419.361 345.369C418.752 346.625 418.383 347.957 418.394 349.197L418.445 367.592C418.496 388.764 423.566 406.215 432.635 418.622C436.125 423.361 440.915 427.387 446.392 430.572L426.648 419.081C421.145 415.897 416.356 411.897 412.891 407.133C403.821 394.725 398.752 377.273 398.675 356.128L398.624 337.708C398.624 336.476 399.001 335.147 399.613 333.893L419.361 345.369Z" fill="#373B42"/>
<path d="M446.392 431.018C446.315 431.018 446.239 430.999 446.167 430.957C446.153 430.948 446.137 430.939 446.122 430.931L426.424 419.467C420.562 416.073 415.887 412.01 412.531 407.395C403.251 394.699 398.304 376.97 398.229 356.129L398.179 337.709C398.179 336.47 398.536 335.083 399.212 333.697C399.266 333.585 399.364 333.501 399.483 333.465C399.605 333.43 399.73 333.444 399.838 333.507L419.587 344.983C419.787 345.1 419.865 345.352 419.763 345.563C419.151 346.825 418.832 348.082 418.841 349.194L418.891 367.59C418.941 388.251 423.82 405.805 432.997 418.358C436.335 422.892 440.918 426.873 446.617 430.186C446.83 430.31 446.901 430.584 446.777 430.796C446.695 430.938 446.545 431.018 446.392 431.018ZM399.812 334.525C399.327 335.641 399.071 336.732 399.071 337.708L399.122 356.126C399.196 376.779 404.082 394.324 413.252 406.869C416.536 411.385 421.118 415.364 426.872 418.695L438.21 425.294C435.937 423.305 433.955 421.165 432.277 418.887C422.987 406.18 418.05 388.443 417.998 367.593L417.948 349.199C417.939 348.065 418.226 346.81 418.786 345.55L399.812 334.525Z" fill="#373B42"/>
<g opacity="0.1">
<path d="M443.799 415.046C430.605 422.664 430.552 435.021 443.66 442.638C456.768 450.256 478.084 450.257 491.278 442.639C504.472 435.021 504.558 422.664 491.45 415.046C478.341 407.429 456.993 407.429 443.799 415.046Z" fill="black"/>
</g>
<path d="M451.688 291.492C449.313 292.863 447.383 296.036 447.049 298.944C446.222 306.161 443.67 313.719 439.877 320.739C435.469 328.901 429.429 336.282 422.568 341.404C420.194 343.168 418.379 346.425 418.387 349.191L418.439 367.602C418.499 388.76 423.583 406.213 432.644 418.617C441.198 430.303 457.625 437.481 472.993 439.055C473.857 439.146 474.834 438.877 475.81 438.313C476.786 437.75 477.761 436.892 478.621 435.805C493.93 416.52 510.263 390.428 518.722 368.918C527.7 346.099 532.652 322.852 532.592 301.694L532.54 283.283C532.532 280.517 530.704 279.363 528.328 280.342C521.477 283.137 515.399 282.752 510.959 279.699C507.155 277.065 504.552 272.483 503.687 266.243C503.337 263.73 501.412 262.782 499.021 264.163L451.688 291.492Z" fill="white"/>
<path d="M473.332 439.519C473.201 439.519 473.072 439.512 472.946 439.5C455.898 437.755 440.316 429.855 432.284 418.881C422.993 406.163 418.05 388.431 417.993 367.604L417.94 349.194C417.932 346.357 419.765 342.932 422.302 341.047C428.894 336.125 434.996 328.838 439.484 320.527C443.34 313.393 445.802 305.912 446.606 298.894C446.961 295.802 449.004 292.527 451.464 291.105L498.799 263.776C500.101 263.027 501.365 262.88 502.363 263.365C503.313 263.83 503.941 264.831 504.129 266.183C504.955 272.148 507.404 276.695 511.213 279.334C515.633 282.371 521.655 282.585 528.16 279.929C529.453 279.397 530.661 279.434 531.555 280.028C532.474 280.642 532.981 281.797 532.986 283.282L533.038 301.692C533.096 322.514 528.29 345.818 519.138 369.084C511.249 389.139 495.858 414.811 478.969 436.083C478.094 437.192 477.077 438.098 476.032 438.701C475.099 439.24 474.174 439.519 473.332 439.519ZM451.91 291.879C449.676 293.169 447.818 296.163 447.492 298.995C446.676 306.124 444.178 313.717 440.269 320.952C435.721 329.372 429.53 336.763 422.835 341.762C420.508 343.491 418.824 346.616 418.833 349.191L418.885 367.6C418.943 388.239 423.825 405.79 433.006 418.355C440.891 429.13 456.231 436.892 473.039 438.61C473.792 438.692 474.672 438.454 475.586 437.927C476.534 437.38 477.463 436.55 478.27 435.529C495.107 414.322 510.449 388.736 518.308 368.756C527.419 345.595 532.204 322.406 532.146 301.695L532.094 283.286C532.091 282.106 531.723 281.213 531.06 280.77C530.419 280.343 529.509 280.338 528.498 280.755C521.707 283.526 515.387 283.284 510.705 280.068C506.686 277.283 504.106 272.524 503.244 266.305C503.099 265.256 502.647 264.498 501.971 264.167C501.25 263.814 500.279 263.95 499.245 264.55L451.91 291.879Z" fill="#373B42"/>
<path d="M471.447 428.843C487.273 408.748 502.141 383.903 509.466 365.279C518.144 343.223 522.701 321.246 522.645 301.723L522.618 292.009C521.575 292.121 520.539 292.176 519.515 292.176C514.304 292.176 509.398 290.696 505.324 287.896C501.481 285.234 498.507 281.582 496.492 277.107L457.06 299.874L456.91 300.195C456.91 300.195 453.104 317.178 448.627 325.467C443.361 335.216 436.407 343.483 428.518 349.375C428.48 349.413 428.396 349.535 428.333 349.65L428.383 367.574C428.437 386.194 432.686 401.817 440.674 412.751C446.539 420.763 458.43 426.932 471.447 428.843Z" fill="#DA0000"/>
<path d="M475.448 332.184C470.491 335.046 466.463 342.021 466.48 347.743C466.491 351.758 468.499 354.106 471.441 354.104L467.22 377.33C466.886 379.207 467.993 380.188 469.511 379.312L481.654 372.301C483.172 371.425 484.27 369.169 483.927 367.683L479.587 349.401C482.52 346.011 484.508 341.356 484.497 337.341C484.481 331.619 480.428 329.309 475.448 332.184Z" fill="#FAF2F2"/>
<path d="M468.454 380.08C468.106 380.08 467.785 379.985 467.511 379.793C466.844 379.326 466.577 378.4 466.781 377.252L470.912 354.526C467.94 354.254 466.046 351.654 466.033 347.746C466.018 341.888 470.141 334.734 475.226 331.797C477.788 330.321 480.218 330.096 482.072 331.161C483.917 332.223 484.936 334.417 484.945 337.34C484.955 341.304 483.094 345.949 480.075 349.519L484.361 367.581C484.753 369.277 483.57 371.71 481.877 372.688L469.735 379.699C469.294 379.953 468.857 380.08 468.454 380.08ZM471.442 353.658C471.574 353.658 471.7 353.717 471.783 353.818C471.869 353.92 471.904 354.054 471.881 354.184L467.659 377.41C467.522 378.187 467.658 378.806 468.024 379.062C468.324 379.273 468.775 379.225 469.289 378.925L481.431 371.914C482.773 371.139 483.794 369.094 483.493 367.785L479.154 349.504C479.121 349.365 479.158 349.219 479.25 349.111C482.222 345.673 484.063 341.164 484.052 337.344C484.043 334.75 483.182 332.831 481.628 331.935C480.064 331.037 477.948 331.257 475.672 332.571C470.833 335.363 466.91 342.17 466.926 347.742C466.936 351.392 468.665 353.658 471.438 353.658C471.44 353.658 471.44 353.658 471.442 353.658Z" fill="#FAF2F2"/>
<path d="M244.572 278.692L244.675 301.595C244.675 302.95 245.566 304.322 247.366 305.367L316.811 345.723C317.154 345.929 317.514 346.1 317.908 346.255C319.468 346.94 321.302 347.266 323.154 347.283C325.279 347.317 327.405 346.923 329.154 346.117C329.428 345.997 329.685 345.86 329.925 345.723L399.816 305.367C401.65 304.287 402.559 302.915 402.559 301.527L402.49 278.64C402.49 280.011 401.564 281.4 399.747 282.463L329.839 322.819C329.617 322.956 329.394 323.076 329.154 323.179C327.405 324.019 325.28 324.414 323.154 324.414C321.32 324.396 319.486 324.07 317.908 323.436C317.497 323.265 317.085 323.076 316.708 322.853L247.264 282.48C245.48 281.451 244.572 280.08 244.572 278.692Z" fill="#BEC4CD"/>
<path d="M317.911 323.436V346.254C319.471 346.94 321.305 347.266 323.157 347.282C325.282 347.317 327.408 346.923 329.157 346.117V323.179C327.408 324.019 325.282 324.413 323.157 324.413C321.323 324.396 319.488 324.07 317.911 323.436Z" fill="#DBDEE4"/>
<path d="M323.331 347.739C323.274 347.739 323.216 347.739 323.157 347.739C320.659 347.712 318.324 347.134 316.582 346.112L247.138 305.749C245.264 304.665 244.23 303.191 244.23 301.601L244.131 278.726C244.131 278.717 244.131 278.708 244.131 278.698V278.696C244.131 278.45 244.33 278.25 244.575 278.25C244.577 278.25 244.577 278.25 244.577 278.25C244.823 278.25 245.022 278.449 245.024 278.695V278.721C245.036 279.981 245.909 281.178 247.49 282.097L316.937 322.462C318.599 323.417 320.811 323.952 323.164 323.964C323.192 323.964 323.22 323.964 323.246 323.964C325.657 323.964 327.912 323.424 329.606 322.437L399.52 282.083C401.124 281.147 402.046 279.895 402.046 278.647C402.046 278.402 402.245 278.201 402.492 278.201C402.738 278.201 402.938 278.4 402.938 278.646L403.011 301.526C403.011 303.126 401.957 304.625 400.043 305.749L330.152 346.114C328.327 347.165 325.909 347.739 323.331 347.739ZM245.034 281.178L245.122 301.599C245.122 302.86 245.997 304.059 247.585 304.977L317.034 345.342C318.644 346.287 320.821 346.822 323.167 346.846C323.221 346.846 323.277 346.846 323.333 346.846C325.756 346.846 328.015 346.315 329.705 345.34L399.593 304.977C401.221 304.022 402.118 302.797 402.118 301.528L402.052 281.076C401.552 281.736 400.846 282.343 399.968 282.855L330.054 323.21C328.227 324.273 325.811 324.857 323.246 324.857C323.218 324.857 323.188 324.857 323.16 324.857C320.654 324.843 318.285 324.267 316.488 323.234L247.039 282.867C246.194 282.376 245.52 281.804 245.034 281.178Z" fill="#373B42"/>
<path d="M247.323 274.877C243.686 276.977 243.667 280.383 247.28 282.483L316.717 322.838C320.33 324.937 326.198 324.93 329.835 322.831L399.738 282.47C403.375 280.37 403.405 276.971 399.792 274.871L330.356 234.516C326.743 232.416 320.862 232.416 317.226 234.516L247.323 274.877Z" fill="white"/>
<path d="M323.257 324.845C320.803 324.845 318.354 324.305 316.493 323.222L247.056 282.868C245.172 281.773 244.135 280.29 244.137 278.692C244.14 277.085 245.191 275.593 247.1 274.489L317.003 234.128C320.758 231.965 326.848 231.962 330.581 234.13L400.018 274.486C401.898 275.577 402.932 277.057 402.93 278.65C402.928 280.259 401.874 281.753 399.962 282.856L330.059 323.217C328.179 324.301 325.717 324.845 323.257 324.845ZM247.546 275.263C245.925 276.199 245.031 277.418 245.029 278.694C245.027 279.959 245.908 281.169 247.506 282.098L316.942 322.452C320.42 324.474 326.103 324.469 329.612 322.443L399.516 282.082C401.14 281.144 402.036 279.926 402.038 278.65C402.04 277.388 401.163 276.184 399.568 275.256L330.132 234.9C326.648 232.877 320.958 232.877 317.45 234.902L247.546 275.263Z" fill="#373B42"/>
<path d="M260.305 168.045L260.676 278.497L323.554 315.04L323.184 204.588L260.305 168.045Z" fill="white"/>
<path d="M323.556 315.486C323.479 315.486 323.4 315.465 323.331 315.425L260.452 278.883C260.316 278.804 260.231 278.658 260.231 278.499L259.859 168.047C259.859 167.886 259.943 167.738 260.083 167.658C260.222 167.578 260.391 167.579 260.53 167.66L323.409 204.204C323.545 204.282 323.631 204.429 323.631 204.587L324.002 315.038C324.002 315.199 323.918 315.347 323.779 315.427C323.709 315.467 323.632 315.486 323.556 315.486ZM261.123 278.24L323.108 314.262L322.738 204.847L260.753 168.822L261.123 278.24Z" fill="#373B42"/>
<path d="M315.728 208.896L267.818 181.052L268.131 274.189L316.04 302.033L315.728 208.896Z" fill="white"/>
<path d="M316.04 302.479C315.963 302.479 315.884 302.459 315.815 302.418L267.906 274.574C267.77 274.495 267.685 274.349 267.685 274.19L267.373 181.054C267.373 180.894 267.457 180.746 267.596 180.666C267.736 180.585 267.905 180.587 268.044 180.668L315.953 208.511C316.088 208.589 316.174 208.735 316.174 208.894L316.486 302.032C316.486 302.192 316.4 302.34 316.263 302.42C316.193 302.46 316.116 302.479 316.04 302.479ZM268.577 273.931L315.592 301.256L315.281 209.153L268.267 181.83L268.577 273.931Z" fill="#373B42"/>
<path d="M308.276 213.649C308.199 213.649 308.123 213.629 308.051 213.588L305.737 212.244C305.524 212.12 305.453 211.848 305.576 211.634C305.698 211.421 305.97 211.346 306.186 211.473L308.501 212.817C308.714 212.941 308.785 213.213 308.661 213.427C308.58 213.568 308.43 213.649 308.276 213.649Z" fill="#373B42"/>
<path d="M299.894 208.779C299.818 208.779 299.741 208.76 299.67 208.718L294.615 205.779C294.402 205.655 294.331 205.383 294.454 205.169C294.577 204.956 294.849 204.881 295.065 205.009L300.119 207.947C300.332 208.071 300.403 208.343 300.28 208.557C300.197 208.699 300.048 208.779 299.894 208.779ZM288.772 202.314C288.696 202.314 288.619 202.295 288.547 202.253L283.493 199.314C283.28 199.19 283.208 198.919 283.332 198.704C283.454 198.492 283.726 198.418 283.942 198.544L288.997 201.483C289.21 201.606 289.281 201.878 289.157 202.093C289.075 202.234 288.926 202.314 288.772 202.314Z" fill="#373B42"/>
<path d="M277.649 195.851C277.573 195.851 277.496 195.832 277.424 195.79L275.11 194.444C274.897 194.32 274.826 194.048 274.949 193.834C275.071 193.621 275.343 193.546 275.559 193.674L277.874 195.019C278.087 195.143 278.158 195.415 278.035 195.629C277.953 195.771 277.803 195.851 277.649 195.851Z" fill="#373B42"/>
<path d="M308.276 222.58C308.199 222.58 308.123 222.561 308.051 222.519L305.737 221.173C305.524 221.05 305.453 220.778 305.576 220.563C305.698 220.351 305.97 220.276 306.186 220.403L308.501 221.749C308.714 221.872 308.785 222.144 308.661 222.359C308.58 222.5 308.43 222.58 308.276 222.58Z" fill="#373B42"/>
<path d="M299.894 217.711C299.818 217.711 299.741 217.692 299.67 217.65L294.615 214.711C294.402 214.587 294.331 214.315 294.454 214.101C294.577 213.888 294.849 213.813 295.065 213.941L300.119 216.879C300.332 217.003 300.403 217.275 300.28 217.489C300.197 217.63 300.048 217.711 299.894 217.711ZM288.772 211.246C288.696 211.246 288.619 211.226 288.547 211.185L283.493 208.246C283.28 208.122 283.208 207.85 283.332 207.636C283.454 207.423 283.726 207.35 283.942 207.476L288.997 210.414C289.21 210.538 289.281 210.81 289.157 211.024C289.075 211.166 288.926 211.246 288.772 211.246Z" fill="#373B42"/>
<path d="M277.649 204.78C277.573 204.78 277.496 204.761 277.424 204.719L275.11 203.376C274.897 203.252 274.826 202.98 274.949 202.766C275.071 202.553 275.343 202.478 275.559 202.605L277.874 203.949C278.087 204.073 278.158 204.345 278.035 204.559C277.953 204.7 277.803 204.78 277.649 204.78Z" fill="#373B42"/>
<path d="M308.276 231.512C308.199 231.512 308.123 231.492 308.051 231.451L305.737 230.105C305.524 229.981 305.453 229.709 305.576 229.495C305.698 229.282 305.97 229.207 306.186 229.335L308.501 230.68C308.714 230.804 308.785 231.076 308.661 231.29C308.58 231.432 308.43 231.512 308.276 231.512Z" fill="#373B42"/>
<path d="M299.894 226.639C299.818 226.639 299.741 226.62 299.67 226.578L294.615 223.64C294.402 223.516 294.331 223.244 294.454 223.03C294.577 222.817 294.849 222.744 295.065 222.869L300.119 225.808C300.332 225.932 300.403 226.203 300.28 226.418C300.197 226.559 300.048 226.639 299.894 226.639ZM288.772 220.176C288.696 220.176 288.619 220.157 288.547 220.115L283.493 217.177C283.28 217.053 283.208 216.781 283.332 216.567C283.454 216.354 283.726 216.281 283.942 216.406L288.997 219.345C289.21 219.469 289.281 219.741 289.157 219.955C289.075 220.096 288.926 220.176 288.772 220.176Z" fill="#373B42"/>
<path d="M277.649 213.712C277.573 213.712 277.496 213.693 277.424 213.651L275.11 212.305C274.897 212.181 274.826 211.91 274.949 211.695C275.071 211.483 275.343 211.408 275.559 211.535L277.874 212.88C278.087 213.004 278.158 213.276 278.035 213.491C277.953 213.632 277.803 213.712 277.649 213.712Z" fill="#373B42"/>
<path d="M308.276 240.442C308.199 240.442 308.123 240.423 308.051 240.381L305.737 239.036C305.524 238.912 305.453 238.64 305.576 238.426C305.698 238.213 305.97 238.138 306.186 238.265L308.501 239.611C308.714 239.735 308.785 240.007 308.661 240.221C308.58 240.362 308.43 240.442 308.276 240.442Z" fill="#373B42"/>
<path d="M299.894 235.571C299.818 235.571 299.741 235.552 299.67 235.51L294.615 232.571C294.402 232.447 294.331 232.175 294.454 231.961C294.577 231.748 294.849 231.675 295.065 231.801L300.119 234.739C300.332 234.863 300.403 235.135 300.28 235.349C300.197 235.49 300.048 235.571 299.894 235.571ZM288.772 229.106C288.696 229.106 288.619 229.086 288.547 229.045L283.493 226.106C283.28 225.982 283.208 225.71 283.332 225.496C283.454 225.283 283.726 225.208 283.942 225.336L288.997 228.274C289.21 228.398 289.281 228.67 289.157 228.884C289.075 229.026 288.926 229.106 288.772 229.106Z" fill="#373B42"/>
<path d="M277.649 222.643C277.573 222.643 277.496 222.624 277.424 222.582L275.11 221.236C274.897 221.112 274.826 220.84 274.949 220.626C275.071 220.413 275.343 220.338 275.559 220.466L277.874 221.811C278.087 221.935 278.158 222.207 278.035 222.421C277.953 222.562 277.803 222.643 277.649 222.643Z" fill="#373B42"/>
<path d="M308.276 249.372C308.199 249.372 308.123 249.353 308.051 249.311L305.737 247.966C305.524 247.842 305.453 247.57 305.576 247.356C305.698 247.143 305.97 247.07 306.186 247.195L308.501 248.541C308.714 248.665 308.785 248.937 308.661 249.151C308.58 249.292 308.43 249.372 308.276 249.372Z" fill="#373B42"/>
<path d="M299.894 244.503C299.818 244.503 299.741 244.484 299.67 244.442L294.615 241.503C294.402 241.38 294.331 241.108 294.454 240.893C294.577 240.681 294.849 240.608 295.065 240.733L300.119 243.672C300.332 243.795 300.403 244.067 300.28 244.282C300.197 244.423 300.048 244.503 299.894 244.503ZM288.772 238.038C288.696 238.038 288.619 238.019 288.547 237.977L283.493 235.039C283.28 234.915 283.208 234.643 283.332 234.429C283.454 234.216 283.726 234.141 283.942 234.268L288.997 237.207C289.21 237.331 289.281 237.603 289.157 237.817C289.075 237.958 288.926 238.038 288.772 238.038Z" fill="#373B42"/>
<path d="M277.649 231.575C277.573 231.575 277.496 231.556 277.424 231.514L275.11 230.169C274.897 230.045 274.826 229.773 274.949 229.558C275.071 229.346 275.343 229.271 275.559 229.398L277.874 230.744C278.087 230.868 278.158 231.139 278.035 231.354C277.953 231.495 277.803 231.575 277.649 231.575Z" fill="#373B42"/>
<path d="M308.276 258.303C308.199 258.303 308.123 258.284 308.051 258.242L305.737 256.896C305.524 256.773 305.453 256.501 305.576 256.286C305.698 256.074 305.97 256 306.186 256.126L308.501 257.472C308.714 257.595 308.785 257.867 308.661 258.082C308.58 258.223 308.43 258.303 308.276 258.303Z" fill="#373B42"/>
<path d="M299.894 253.431C299.818 253.431 299.741 253.412 299.67 253.37L294.615 250.431C294.402 250.307 294.331 250.036 294.454 249.821C294.577 249.609 294.849 249.534 295.065 249.661L300.119 252.6C300.332 252.723 300.403 252.995 300.28 253.21C300.197 253.351 300.048 253.431 299.894 253.431ZM288.772 246.968C288.696 246.968 288.619 246.949 288.547 246.907L283.493 243.968C283.28 243.845 283.208 243.573 283.332 243.358C283.454 243.146 283.726 243.071 283.942 243.198L288.997 246.137C289.21 246.26 289.281 246.532 289.157 246.747C289.075 246.888 288.926 246.968 288.772 246.968Z" fill="#373B42"/>
<path d="M277.649 240.504C277.573 240.504 277.496 240.485 277.424 240.443L275.11 239.099C274.897 238.975 274.826 238.704 274.949 238.489C275.071 238.277 275.343 238.202 275.559 238.329L277.874 239.673C278.087 239.796 278.158 240.068 278.035 240.283C277.953 240.424 277.803 240.504 277.649 240.504Z" fill="#373B42"/>
<path d="M323.182 204.589L323.553 315.041L386.843 278.498L386.472 168.046L323.182 204.589Z" fill="white"/>
<path d="M323.553 315.486C323.476 315.486 323.399 315.467 323.33 315.427C323.192 315.347 323.107 315.2 323.107 315.042L322.735 204.59C322.735 204.43 322.821 204.282 322.959 204.202L386.249 167.66C386.388 167.58 386.556 167.58 386.695 167.66C386.833 167.74 386.918 167.886 386.918 168.045L387.289 278.496C387.289 278.656 387.204 278.804 387.066 278.885L323.776 315.427C323.706 315.467 323.63 315.486 323.553 315.486ZM323.628 204.847L323.997 314.268L386.397 278.24L386.028 168.819L323.628 204.847Z" fill="#373B42"/>
<path d="M260.307 168.045L323.185 204.589L386.476 168.046L323.597 131.502L260.307 168.045Z" fill="white"/>
<path d="M323.186 205.035C323.109 205.035 323.031 205.014 322.961 204.974L260.082 168.43C259.944 168.35 259.86 168.203 259.86 168.045C259.86 167.885 259.946 167.738 260.084 167.658L323.374 131.116C323.513 131.036 323.683 131.037 323.822 131.118L386.701 167.662C386.839 167.742 386.922 167.888 386.922 168.047C386.922 168.207 386.837 168.354 386.699 168.434L323.409 204.976C323.339 205.016 323.262 205.035 323.186 205.035ZM261.198 168.046L323.186 204.073L385.586 168.045L323.597 132.019L261.198 168.046Z" fill="#373B42"/>
<path d="M374.748 183.438V247.871L330.666 273.334V208.886L374.748 183.438Z" fill="#DA0000"/>
<path d="M330.666 273.781C330.589 273.781 330.513 273.762 330.443 273.722C330.305 273.642 330.22 273.494 330.22 273.335V208.885C330.22 208.727 330.305 208.579 330.443 208.499L374.525 183.052C374.665 182.972 374.832 182.972 374.972 183.052C375.109 183.132 375.195 183.281 375.195 183.439V247.871C375.195 248.03 375.109 248.178 374.972 248.258L330.889 273.722C330.819 273.762 330.743 273.781 330.666 273.781ZM331.112 209.144V272.561L374.302 247.613V184.211L331.112 209.144Z" fill="#373B42"/>
<path d="M379.047 180.959L374.75 183.44V247.876L379.047 245.395V180.959Z" fill="#373B42"/>
<path d="M374.75 248.323C374.673 248.323 374.597 248.303 374.527 248.264C374.389 248.183 374.304 248.035 374.304 247.877V183.441C374.304 183.282 374.389 183.134 374.527 183.054L378.823 180.574C378.963 180.494 379.13 180.494 379.27 180.574C379.407 180.654 379.493 180.802 379.493 180.961V245.396C379.493 245.555 379.407 245.703 379.27 245.783L374.973 248.263C374.903 248.303 374.827 248.323 374.75 248.323ZM375.196 183.699V247.104L378.6 245.138V181.733L375.196 183.699Z" fill="#373B42"/>
<path d="M321.271 140.102C322.429 140.774 324.334 140.774 325.504 140.102C326.674 139.417 326.686 138.322 325.516 137.649C324.346 136.965 322.453 136.965 321.283 137.649C320.113 138.322 320.101 139.417 321.271 140.102Z" fill="#373B42"/>
<path d="M323.382 141.058C322.54 141.058 321.7 140.868 321.046 140.488C320.338 140.075 319.951 139.501 319.953 138.874C319.957 138.244 320.349 137.673 321.06 137.263C322.371 136.496 324.427 136.494 325.742 137.265C326.442 137.667 326.831 138.234 326.835 138.86C326.836 139.491 326.444 140.069 325.728 140.488C325.067 140.868 324.224 141.058 323.382 141.058ZM321.496 139.717C322.515 140.311 324.25 140.306 325.28 139.715C325.7 139.469 325.942 139.157 325.942 138.861C325.94 138.574 325.705 138.272 325.294 138.037C324.265 137.434 322.533 137.435 321.508 138.035C321.088 138.277 320.847 138.582 320.846 138.877C320.846 139.168 321.081 139.475 321.496 139.717Z" fill="#373B42"/>
<path d="M373.369 169.277C374.527 169.949 376.432 169.949 377.602 169.277C378.773 168.592 378.785 167.497 377.615 166.824C376.445 166.139 374.552 166.139 373.382 166.824C372.212 167.497 372.199 168.592 373.369 169.277Z" fill="#373B42"/>
<path d="M375.481 170.232C374.639 170.232 373.799 170.042 373.146 169.662C372.438 169.247 372.049 168.674 372.051 168.046C372.054 167.417 372.448 166.845 373.161 166.438C374.47 165.669 376.527 165.669 377.839 166.439C378.54 166.84 378.93 167.407 378.934 168.032C378.936 168.665 378.543 169.244 377.827 169.662C377.167 170.042 376.323 170.232 375.481 170.232ZM373.595 168.891C374.617 169.486 376.347 169.48 377.379 168.889C377.799 168.644 378.041 168.332 378.041 168.035C378.04 167.746 377.803 167.446 377.393 167.211C376.363 166.61 374.634 166.61 373.607 167.209C373.185 167.451 372.945 167.756 372.943 168.049C372.943 168.342 373.18 168.649 373.595 168.891Z" fill="#373B42"/>
<path d="M269.163 169.276C270.321 169.948 272.226 169.948 273.396 169.276C274.567 168.591 274.579 167.496 273.409 166.823C272.238 166.138 270.346 166.138 269.176 166.823C268.006 167.496 267.993 168.591 269.163 169.276Z" fill="#373B42"/>
<path d="M271.272 170.231C270.43 170.231 269.59 170.041 268.938 169.664C268.937 169.662 268.937 169.663 268.937 169.663C268.229 169.249 267.842 168.674 267.844 168.047C267.847 167.417 268.239 166.846 268.951 166.436C270.263 165.671 272.32 165.673 273.632 166.438C274.333 166.841 274.722 167.409 274.725 168.033C274.727 168.666 274.335 169.244 273.62 169.663C272.959 170.041 272.114 170.231 271.272 170.231ZM269.385 168.891C270.406 169.483 272.138 169.483 273.174 168.891C273.592 168.645 273.833 168.333 273.833 168.037C273.831 167.747 273.596 167.446 273.184 167.21C272.161 166.612 270.425 166.609 269.399 167.208C268.979 167.451 268.738 167.758 268.736 168.05C268.736 168.343 268.971 168.648 269.385 168.891Z" fill="#373B42"/>
<path d="M321.27 198.451C322.428 199.123 324.333 199.123 325.503 198.451C326.673 197.766 326.685 196.67 325.515 195.998C324.345 195.313 322.452 195.313 321.282 195.998C320.112 196.67 320.1 197.766 321.27 198.451Z" fill="#373B42"/>
<path d="M323.381 199.405C322.539 199.405 321.699 199.215 321.045 198.835C320.339 198.422 319.95 197.851 319.952 197.221C319.954 196.592 320.348 196.02 321.059 195.611C322.37 194.844 324.426 194.842 325.741 195.613C326.443 196.015 326.832 196.583 326.834 197.207C326.835 197.84 326.441 198.419 325.727 198.835C325.066 199.215 324.223 199.405 323.381 199.405ZM321.495 198.065C322.515 198.659 324.249 198.654 325.279 198.063C325.699 197.817 325.941 197.507 325.941 197.211C325.939 196.922 325.704 196.62 325.293 196.385C324.264 195.782 322.532 195.783 321.507 196.383C321.087 196.625 320.846 196.932 320.845 197.225C320.845 197.516 321.08 197.823 321.495 198.065Z" fill="#373B42"/>
<path d="M354.744 168.014L323.913 185.932L292.857 168.001L323.688 150.083L354.744 168.014Z" fill="white"/>
<path d="M323.912 186.378C323.835 186.378 323.758 186.358 323.689 186.318L292.633 168.388C292.496 168.308 292.41 168.161 292.41 168.001C292.41 167.842 292.494 167.696 292.632 167.616L323.462 149.698C323.601 149.618 323.77 149.616 323.91 149.696L354.965 167.626C355.103 167.706 355.188 167.853 355.188 168.013C355.188 168.172 355.104 168.318 354.967 168.398L324.136 186.317C324.067 186.357 323.988 186.378 323.912 186.378ZM293.747 167.999L323.912 185.415L353.851 168.015L323.687 150.599L293.747 167.999Z" fill="#373B42"/>
<path d="M292.864 168L298.418 171.206L323.68 156.511L349.196 171.238L354.75 168.016L323.68 150.084L292.864 168Z" fill="#BEC4CD"/>
<path d="M349.197 171.684C349.12 171.684 349.043 171.665 348.974 171.625L323.682 157.027L298.644 171.592C298.505 171.672 298.336 171.674 298.196 171.594L292.641 168.388C292.503 168.308 292.418 168.162 292.418 168.001C292.418 167.843 292.502 167.696 292.639 167.616L323.456 149.7C323.595 149.62 323.764 149.618 323.904 149.698L354.973 167.63C355.11 167.71 355.196 167.857 355.196 168.017C355.196 168.175 355.11 168.324 354.973 168.402L349.419 171.623C349.352 171.663 349.273 171.684 349.197 171.684ZM323.681 156.065C323.757 156.065 323.834 156.084 323.904 156.124L349.197 170.722L353.859 168.018L323.68 150.6L293.755 167.999L298.417 170.69L323.455 156.126C323.526 156.086 323.604 156.065 323.681 156.065Z" fill="#373B42"/>
<path d="M323.683 156.511L349.199 171.238L354.753 168.016L323.683 150.084V156.511Z" fill="#373B42"/>
<path d="M349.198 171.685C349.121 171.685 349.044 171.665 348.974 171.625L323.458 156.899C323.321 156.819 323.235 156.671 323.235 156.512V150.086C323.235 149.927 323.321 149.779 323.458 149.699C323.598 149.619 323.765 149.619 323.905 149.699L354.974 167.631C355.112 167.711 355.197 167.857 355.197 168.018C355.197 168.176 355.112 168.325 354.974 168.403L349.421 171.624C349.352 171.664 349.274 171.685 349.198 171.685ZM324.128 156.254L349.198 170.722L353.86 168.019L324.128 150.857V156.254Z" fill="#373B42"/>
<path d="M294.028 112.329L293.681 168.018L323.914 185.477L353.942 168.048L353.864 112.329L324.048 95L294.028 112.329Z" fill="url(#paint0_linear_399_3036)"/>
<path d="M330.673 269.659V275.385L351.577 287.693V281.967L330.673 269.659Z" fill="#373B42"/>
<path d="M351.577 288.139C351.499 288.139 351.421 288.118 351.351 288.078L330.447 275.769C330.311 275.689 330.228 275.543 330.228 275.384V269.658C330.228 269.498 330.313 269.349 330.452 269.271C330.59 269.189 330.762 269.194 330.9 269.273L351.804 281.582C351.94 281.662 352.024 281.809 352.024 281.967V287.693C352.024 287.854 351.938 288.002 351.799 288.08C351.731 288.12 351.654 288.139 351.577 288.139ZM331.12 275.129L351.131 286.912V282.222L331.12 270.439V275.129Z" fill="#373B42"/>
<path d="M351.576 281.967V287.693L400.368 259.576V253.851L351.576 281.967Z" fill="white"/>
<path d="M351.576 288.14C351.5 288.14 351.423 288.121 351.353 288.08C351.215 288 351.13 287.852 351.13 287.694V281.968C351.13 281.807 351.215 281.661 351.353 281.581L400.145 253.464C400.285 253.384 400.452 253.384 400.591 253.464C400.729 253.545 400.815 253.693 400.815 253.851V259.577C400.815 259.737 400.729 259.884 400.591 259.964L351.799 288.08C351.729 288.12 351.653 288.14 351.576 288.14ZM352.022 282.225V286.921L399.922 259.319V254.623L352.022 282.225Z" fill="#373B42"/>
<path d="M400.374 253.85L351.577 281.966L330.671 269.706V264.687L374.753 239.064L400.374 253.85Z" fill="white"/>
<path d="M351.576 282.412C351.498 282.412 351.42 282.391 351.35 282.351L330.444 270.091C330.308 270.011 330.225 269.864 330.225 269.706V264.688C330.225 264.529 330.31 264.382 330.446 264.302L374.528 238.678C374.668 238.598 374.837 238.596 374.976 238.676L400.597 253.462C400.735 253.543 400.82 253.691 400.82 253.849C400.82 254.01 400.735 254.156 400.597 254.236L351.8 282.353C351.73 282.393 351.653 282.412 351.576 282.412ZM331.117 269.449L351.578 281.45L399.481 253.849L374.753 239.579L331.116 264.944L331.117 269.449Z" fill="#373B42"/>
<path d="M336.236 214.607C336.083 214.607 335.933 214.527 335.851 214.386C335.727 214.172 335.798 213.9 336.011 213.776L338.326 212.43C338.538 212.303 338.812 212.378 338.936 212.591C339.06 212.805 338.988 213.077 338.776 213.201L336.461 214.546C336.389 214.588 336.313 214.607 336.236 214.607Z" fill="white"/>
<path d="M344.621 209.736C344.467 209.736 344.318 209.656 344.236 209.515C344.112 209.3 344.183 209.028 344.396 208.904L349.451 205.966C349.663 205.839 349.937 205.914 350.061 206.126C350.184 206.341 350.113 206.612 349.9 206.736L344.846 209.675C344.774 209.717 344.698 209.736 344.621 209.736ZM355.743 203.273C355.59 203.273 355.44 203.193 355.358 203.051C355.234 202.837 355.306 202.565 355.518 202.441L360.573 199.503C360.785 199.375 361.059 199.45 361.183 199.663C361.307 199.877 361.235 200.149 361.023 200.273L355.968 203.212C355.897 203.254 355.82 203.273 355.743 203.273Z" fill="white"/>
<path d="M366.865 196.808C366.711 196.808 366.562 196.727 366.48 196.586C366.356 196.372 366.427 196.1 366.64 195.976L368.955 194.631C369.167 194.503 369.441 194.578 369.565 194.791C369.689 195.005 369.617 195.277 369.404 195.401L367.09 196.747C367.018 196.789 366.941 196.808 366.865 196.808Z" fill="white"/>
<path d="M336.236 220.664C336.083 220.664 335.933 220.584 335.851 220.443C335.727 220.228 335.798 219.957 336.011 219.833L338.326 218.487C338.538 218.362 338.812 218.435 338.936 218.648C339.06 218.862 338.988 219.134 338.776 219.258L336.461 220.603C336.389 220.645 336.313 220.664 336.236 220.664Z" fill="white"/>
<path d="M344.621 215.793C344.467 215.793 344.318 215.713 344.236 215.572C344.112 215.357 344.183 215.085 344.396 214.962L349.451 212.023C349.663 211.896 349.937 211.971 350.061 212.183C350.184 212.398 350.113 212.67 349.9 212.793L344.846 215.732C344.774 215.774 344.698 215.793 344.621 215.793ZM355.743 209.328C355.59 209.328 355.44 209.248 355.358 209.107C355.234 208.893 355.306 208.621 355.518 208.497L360.573 205.558C360.785 205.431 361.059 205.506 361.183 205.719C361.307 205.933 361.235 206.205 361.023 206.329L355.968 209.267C355.897 209.309 355.82 209.328 355.743 209.328Z" fill="white"/>
<path d="M366.865 202.865C366.711 202.865 366.562 202.784 366.48 202.643C366.356 202.429 366.427 202.157 366.64 202.033L368.955 200.687C369.167 200.562 369.441 200.635 369.565 200.848C369.689 201.062 369.617 201.334 369.404 201.458L367.09 202.804C367.018 202.845 366.941 202.865 366.865 202.865Z" fill="white"/>
<path d="M336.236 226.719C336.083 226.719 335.933 226.639 335.851 226.498C335.727 226.283 335.798 226.011 336.011 225.887L338.326 224.544C338.538 224.416 338.812 224.491 338.936 224.704C339.06 224.918 338.988 225.19 338.776 225.314L336.461 226.658C336.389 226.7 336.313 226.719 336.236 226.719Z" fill="white"/>
<path d="M343.084 222.74C342.93 222.74 342.781 222.66 342.698 222.519C342.575 222.305 342.646 222.033 342.859 221.909L346.636 219.715C346.85 219.587 347.122 219.662 347.246 219.875C347.37 220.089 347.298 220.361 347.085 220.485L343.308 222.679C343.237 222.721 343.16 222.74 343.084 222.74Z" fill="white"/>
<path d="M351.394 217.91C351.241 217.91 351.091 217.83 351.009 217.689C350.885 217.475 350.957 217.203 351.169 217.079L353.484 215.735C353.697 215.608 353.97 215.683 354.094 215.895C354.218 216.11 354.146 216.382 353.934 216.505L351.619 217.849C351.548 217.891 351.471 217.91 351.394 217.91Z" fill="white"/>
<path d="M95.4414 365.62L95.5439 388.524C95.5439 389.879 96.4352 391.25 98.2354 392.296L167.68 432.652C168.023 432.857 168.383 433.029 168.777 433.183C170.337 433.869 172.171 434.195 174.023 434.212C176.148 434.246 178.274 433.852 180.023 433.046C180.297 432.926 180.554 432.789 180.794 432.652L250.685 392.295C252.519 391.216 253.428 389.844 253.428 388.455L253.359 365.568C253.359 366.94 252.433 368.329 250.616 369.392L180.708 409.748C180.486 409.885 180.263 410.005 180.023 410.108C178.275 410.948 176.149 411.342 174.023 411.342C172.189 411.325 170.355 410.999 168.777 410.365C168.366 410.194 167.955 410.005 167.577 409.782L98.1327 369.409C96.3495 368.38 95.4414 367.009 95.4414 365.62Z" fill="#BEC4CD"/>
<path d="M168.777 410.366V433.184C170.338 433.87 172.172 434.195 174.023 434.212C176.149 434.246 178.274 433.852 180.023 433.046V410.108C178.274 410.949 176.149 411.343 174.023 411.343C172.189 411.326 170.355 411 168.777 410.366Z" fill="#DBDEE4"/>
<path d="M174.199 434.665C174.141 434.665 174.084 434.665 174.024 434.665C171.523 434.639 169.189 434.062 167.452 433.041L98.0066 392.678C96.1313 391.594 95.0976 390.119 95.0976 388.53L95 365.652C95 365.644 95 365.633 95 365.625V365.623C95 365.377 95.1987 365.177 95.4445 365.177C95.4463 365.177 95.4463 365.177 95.4463 365.177C95.6921 365.177 95.8908 365.375 95.8927 365.621V365.647C95.9047 366.906 96.7781 368.105 98.359 369.025L167.806 409.39C169.469 410.345 171.682 410.88 174.032 410.893C174.06 410.893 174.088 410.893 174.114 410.893C176.526 410.893 178.782 410.352 180.476 409.366L250.388 369.011C251.992 368.074 252.913 366.821 252.913 365.574C252.913 365.328 253.112 365.128 253.36 365.128C253.606 365.128 253.806 365.327 253.806 365.572L253.879 388.455C253.879 390.055 252.825 391.554 250.911 392.678L181.021 433.043C179.198 434.092 176.78 434.665 174.199 434.665ZM95.9027 368.105L95.9899 388.528C95.9899 389.788 96.8648 390.987 98.4545 391.906L167.903 432.271C169.51 433.215 171.687 433.748 174.035 433.773C176.484 433.78 178.846 433.262 180.575 432.269L250.461 391.906C252.089 390.951 252.986 389.725 252.986 388.456L252.92 368.002C252.42 368.663 251.714 369.269 250.835 369.784L180.923 410.138C179.096 411.201 176.681 411.785 174.113 411.785C174.084 411.785 174.056 411.785 174.028 411.785C171.525 411.771 169.156 411.196 167.357 410.162L97.9088 369.796C97.0635 369.304 96.3889 368.731 95.9027 368.105Z" fill="#373B42"/>
<path d="M98.1892 361.806C94.5525 363.906 94.5337 367.312 98.1465 369.412L167.583 409.766C171.196 411.866 177.065 411.859 180.701 409.76L250.604 369.399C254.241 367.299 254.272 363.899 250.659 361.8L181.222 321.445C177.609 319.345 171.729 319.345 168.092 321.445L98.1892 361.806Z" fill="white"/>
<path d="M174.124 411.775C171.671 411.775 169.222 411.235 167.361 410.152L97.9227 369.798C96.0386 368.703 95.0031 367.22 95.0049 365.622C95.0085 364.015 96.0594 362.523 97.968 361.419L167.87 321.058C171.624 318.888 177.718 318.888 181.448 321.06L250.886 361.414C252.767 362.507 253.8 363.987 253.798 365.58C253.797 367.187 252.742 368.68 250.828 369.785L180.927 410.147C179.048 411.231 176.583 411.775 174.124 411.775ZM98.4143 362.193C96.7933 363.129 95.8991 364.348 95.8975 365.623C95.8957 366.889 96.7742 368.099 98.3726 369.027L167.811 409.382C171.29 411.403 176.974 411.398 180.481 409.373L250.382 369.012C252.009 368.074 252.905 366.854 252.906 365.578C252.908 364.316 252.031 363.112 250.436 362.185L180.998 321.83C177.515 319.805 171.826 319.803 168.316 321.832L98.4143 362.193Z" fill="#373B42"/>
<path d="M111.169 254.974L111.54 365.425L174.419 401.969L174.048 291.517L111.169 254.974Z" fill="white"/>
<path d="M174.419 402.415C174.343 402.415 174.264 402.394 174.194 402.354L111.315 365.81C111.179 365.731 111.094 365.585 111.094 365.426L110.723 254.975C110.723 254.815 110.806 254.667 110.946 254.587C111.085 254.506 111.254 254.508 111.394 254.588L174.273 291.132C174.409 291.211 174.494 291.357 174.494 291.516L174.865 401.967C174.865 402.127 174.782 402.275 174.642 402.355C174.573 402.396 174.496 402.415 174.419 402.415ZM111.986 365.167L173.971 401.191L173.602 291.776L111.617 255.751L111.986 365.167Z" fill="#373B42"/>
<path d="M166.592 295.824L118.683 267.98L118.995 361.118L166.904 388.962L166.592 295.824Z" fill="white"/>
<path d="M166.904 389.409C166.828 389.409 166.749 389.388 166.68 389.348L118.77 361.503C118.634 361.425 118.548 361.278 118.548 361.12L118.236 267.982C118.236 267.822 118.322 267.673 118.459 267.593C118.599 267.513 118.768 267.515 118.907 267.595L166.817 295.44C166.953 295.518 167.039 295.665 167.039 295.823L167.351 388.961C167.351 389.121 167.265 389.27 167.128 389.35C167.058 389.389 166.981 389.409 166.904 389.409ZM119.44 360.86L166.456 388.185L166.146 296.083L119.13 268.758L119.44 360.86Z" fill="#373B42"/>
<path d="M159.137 300.578C159.061 300.578 158.984 300.559 158.913 300.517L156.598 299.171C156.385 299.048 156.314 298.776 156.438 298.561C156.56 298.349 156.831 298.274 157.048 298.401L159.362 299.747C159.575 299.871 159.647 300.142 159.523 300.357C159.441 300.498 159.291 300.578 159.137 300.578Z" fill="#373B42"/>
<path d="M150.757 295.706C150.68 295.706 150.604 295.687 150.532 295.645L145.476 292.706C145.263 292.582 145.191 292.31 145.315 292.096C145.437 291.883 145.709 291.808 145.925 291.936L150.982 294.874C151.194 294.998 151.266 295.27 151.142 295.484C151.06 295.625 150.911 295.706 150.757 295.706ZM139.635 289.242C139.558 289.242 139.482 289.223 139.41 289.181L134.354 286.243C134.141 286.119 134.07 285.847 134.194 285.633C134.316 285.42 134.587 285.345 134.804 285.472L139.86 288.411C140.073 288.535 140.144 288.807 140.02 289.021C139.938 289.162 139.789 289.242 139.635 289.242Z" fill="#373B42"/>
<path d="M128.515 282.78C128.438 282.78 128.361 282.761 128.29 282.719L125.975 281.373C125.762 281.249 125.691 280.977 125.815 280.763C125.937 280.55 126.208 280.477 126.425 280.603L128.739 281.948C128.952 282.072 129.024 282.344 128.9 282.558C128.818 282.699 128.668 282.78 128.515 282.78Z" fill="#373B42"/>
<path d="M159.137 309.509C159.061 309.509 158.984 309.49 158.913 309.448L156.598 308.102C156.385 307.978 156.314 307.706 156.438 307.492C156.56 307.279 156.831 307.205 157.048 307.332L159.362 308.677C159.575 308.801 159.647 309.073 159.523 309.287C159.441 309.429 159.291 309.509 159.137 309.509Z" fill="#373B42"/>
<path d="M150.757 304.637C150.68 304.637 150.604 304.618 150.532 304.576L145.476 301.638C145.263 301.514 145.191 301.242 145.315 301.028C145.437 300.815 145.709 300.74 145.925 300.867L150.982 303.806C151.194 303.93 151.266 304.201 151.142 304.416C151.06 304.557 150.911 304.637 150.757 304.637ZM139.635 298.174C139.558 298.174 139.482 298.155 139.41 298.113L134.354 295.174C134.141 295.051 134.07 294.779 134.194 294.564C134.316 294.352 134.587 294.277 134.804 294.404L139.86 297.343C140.073 297.466 140.144 297.738 140.02 297.953C139.938 298.094 139.789 298.174 139.635 298.174Z" fill="#373B42"/>
<path d="M128.515 291.71C128.438 291.71 128.361 291.691 128.29 291.649L125.975 290.303C125.762 290.179 125.691 289.908 125.815 289.693C125.937 289.481 126.208 289.406 126.425 289.533L128.739 290.879C128.952 291.002 129.024 291.274 128.9 291.489C128.818 291.63 128.668 291.71 128.515 291.71Z" fill="#373B42"/>
<path d="M159.137 318.44C159.061 318.44 158.984 318.421 158.913 318.379L156.598 317.034C156.385 316.91 156.314 316.638 156.438 316.424C156.56 316.211 156.831 316.136 157.048 316.263L159.362 317.609C159.575 317.733 159.647 318.005 159.523 318.219C159.441 318.36 159.291 318.44 159.137 318.44Z" fill="#373B42"/>
<path d="M150.759 313.569C150.683 313.569 150.606 313.55 150.534 313.508L145.48 310.569C145.267 310.445 145.195 310.173 145.319 309.959C145.441 309.746 145.713 309.671 145.929 309.799L150.984 312.737C151.197 312.861 151.268 313.133 151.144 313.347C151.062 313.489 150.913 313.569 150.759 313.569ZM139.637 307.104C139.56 307.104 139.484 307.085 139.412 307.043L134.358 304.106C134.145 303.982 134.074 303.71 134.197 303.496C134.319 303.283 134.591 303.208 134.807 303.336L139.862 306.273C140.075 306.396 140.146 306.668 140.023 306.883C139.94 307.024 139.791 307.104 139.637 307.104Z" fill="#373B42"/>
<path d="M128.515 300.641C128.438 300.641 128.361 300.622 128.29 300.58L125.975 299.234C125.762 299.11 125.691 298.838 125.815 298.624C125.937 298.411 126.208 298.336 126.425 298.464L128.739 299.809C128.952 299.933 129.024 300.205 128.9 300.419C128.818 300.56 128.668 300.641 128.515 300.641Z" fill="#373B42"/>
<path d="M159.137 327.37C159.061 327.37 158.984 327.351 158.913 327.309L156.598 325.963C156.385 325.84 156.314 325.568 156.438 325.353C156.56 325.141 156.831 325.066 157.048 325.193L159.362 326.539C159.575 326.663 159.647 326.934 159.523 327.149C159.441 327.29 159.291 327.37 159.137 327.37Z" fill="#373B42"/>
<path d="M150.759 322.5C150.683 322.5 150.606 322.481 150.534 322.439L145.48 319.5C145.267 319.376 145.195 319.104 145.319 318.89C145.441 318.677 145.713 318.602 145.929 318.729L150.984 321.668C151.197 321.792 151.268 322.064 151.144 322.278C151.062 322.419 150.913 322.5 150.759 322.5ZM139.637 316.035C139.56 316.035 139.484 316.015 139.412 315.974L134.358 313.037C134.145 312.913 134.074 312.641 134.197 312.427C134.319 312.214 134.591 312.139 134.807 312.266L139.862 315.203C140.075 315.327 140.146 315.599 140.023 315.813C139.94 315.955 139.791 316.035 139.637 316.035Z" fill="#373B42"/>
<path d="M128.515 309.571C128.438 309.571 128.361 309.552 128.29 309.51L125.975 308.165C125.762 308.041 125.691 307.769 125.815 307.555C125.937 307.342 126.208 307.267 126.425 307.394L128.739 308.74C128.952 308.864 129.024 309.135 128.9 309.35C128.818 309.491 128.668 309.571 128.515 309.571Z" fill="#373B42"/>
<path d="M159.137 336.301C159.061 336.301 158.984 336.281 158.913 336.24L156.598 334.894C156.385 334.77 156.314 334.498 156.438 334.284C156.56 334.071 156.831 333.997 157.048 334.124L159.362 335.469C159.575 335.593 159.647 335.865 159.523 336.079C159.441 336.221 159.291 336.301 159.137 336.301Z" fill="#373B42"/>
<path d="M150.757 331.429C150.68 331.429 150.604 331.41 150.532 331.368L145.476 328.43C145.263 328.306 145.191 328.034 145.315 327.82C145.437 327.607 145.709 327.534 145.925 327.659L150.982 330.598C151.194 330.722 151.266 330.994 151.142 331.208C151.06 331.349 150.911 331.429 150.757 331.429ZM139.635 324.966C139.558 324.966 139.482 324.947 139.41 324.905L134.354 321.967C134.141 321.843 134.07 321.571 134.194 321.357C134.316 321.144 134.587 321.071 134.804 321.196L139.86 324.135C140.073 324.259 140.144 324.531 140.02 324.745C139.938 324.886 139.789 324.966 139.635 324.966Z" fill="#373B42"/>
<path d="M128.515 318.501C128.438 318.501 128.361 318.482 128.29 318.44L125.975 317.094C125.762 316.97 125.691 316.699 125.815 316.484C125.937 316.272 126.208 316.197 126.425 316.324L128.739 317.67C128.952 317.793 129.024 318.065 128.9 318.28C128.818 318.421 128.668 318.501 128.515 318.501Z" fill="#373B42"/>
<path d="M159.137 345.231C159.061 345.231 158.984 345.212 158.913 345.17L156.598 343.825C156.385 343.701 156.314 343.429 156.438 343.215C156.56 343.002 156.831 342.927 157.048 343.054L159.362 344.4C159.575 344.524 159.647 344.796 159.523 345.01C159.441 345.151 159.291 345.231 159.137 345.231Z" fill="#373B42"/>
<path d="M150.759 340.36C150.683 340.36 150.606 340.341 150.534 340.299L145.48 337.361C145.267 337.237 145.195 336.965 145.319 336.75C145.441 336.538 145.713 336.465 145.929 336.59L150.984 339.529C151.197 339.653 151.268 339.924 151.144 340.139C151.062 340.28 150.913 340.36 150.759 340.36ZM139.637 333.895C139.56 333.895 139.484 333.876 139.412 333.834L134.358 330.897C134.145 330.774 134.074 330.502 134.197 330.287C134.319 330.075 134.591 330.001 134.807 330.127L139.862 333.064C140.075 333.188 140.146 333.459 140.023 333.674C139.94 333.815 139.791 333.895 139.637 333.895Z" fill="#373B42"/>
<path d="M128.515 327.433C128.438 327.433 128.361 327.414 128.29 327.372L125.975 326.026C125.762 325.902 125.691 325.63 125.815 325.416C125.937 325.203 126.208 325.128 126.425 325.256L128.739 326.601C128.952 326.725 129.024 326.997 128.9 327.211C128.818 327.352 128.668 327.433 128.515 327.433Z" fill="#373B42"/>
<path d="M174.047 291.518L174.418 401.969L237.708 365.427L237.337 254.975L174.047 291.518Z" fill="white"/>
<path d="M174.419 402.416C174.342 402.416 174.266 402.397 174.196 402.356C174.058 402.276 173.973 402.13 173.973 401.971L173.602 291.52C173.602 291.36 173.687 291.212 173.825 291.132L237.115 254.588C237.255 254.507 237.422 254.507 237.561 254.588C237.699 254.668 237.785 254.814 237.785 254.973L238.156 365.426C238.156 365.586 238.07 365.734 237.933 365.814L174.642 402.356C174.572 402.397 174.496 402.416 174.419 402.416ZM174.494 291.777L174.864 401.197L237.263 365.169L236.894 255.747L174.494 291.777Z" fill="#373B42"/>
<path d="M111.169 254.974L174.048 291.517L237.338 254.974L174.459 218.431L111.169 254.974Z" fill="white"/>
<path d="M174.048 291.964C173.971 291.964 173.893 291.943 173.823 291.903L110.944 255.359C110.806 255.279 110.723 255.133 110.723 254.974C110.723 254.813 110.808 254.667 110.946 254.587L174.236 218.045C174.376 217.964 174.545 217.966 174.684 218.046L237.563 254.589C237.701 254.669 237.785 254.815 237.785 254.974C237.785 255.134 237.699 255.281 237.561 255.361L174.271 291.905C174.201 291.945 174.125 291.964 174.048 291.964ZM112.06 254.975L174.048 291.002L236.448 254.972L174.459 218.948L112.06 254.975Z" fill="#373B42"/>
<path d="M225.612 270.368V334.801L181.53 360.264V295.815L225.612 270.368Z" fill="#DA0000"/>
<path d="M181.53 360.711C181.454 360.711 181.377 360.691 181.307 360.651C181.169 360.571 181.084 360.423 181.084 360.265V295.815C181.084 295.657 181.169 295.508 181.307 295.428L225.388 269.982C225.527 269.902 225.695 269.902 225.834 269.982C225.972 270.062 226.057 270.21 226.057 270.369V334.801C226.057 334.96 225.972 335.108 225.834 335.188L181.753 360.652C181.684 360.692 181.607 360.711 181.53 360.711ZM181.976 296.073V359.491L225.165 334.543V271.141L181.976 296.073Z" fill="#373B42"/>
<path d="M229.913 267.889L225.616 270.37V334.806L229.913 332.325V267.889Z" fill="#373B42"/>
<path d="M225.616 335.252C225.54 335.252 225.463 335.233 225.393 335.193C225.255 335.113 225.17 334.965 225.17 334.806V270.37C225.17 270.212 225.255 270.064 225.393 269.984L229.691 267.501C229.831 267.421 229.998 267.421 230.138 267.501C230.275 267.582 230.361 267.73 230.361 267.888V332.326C230.361 332.484 230.275 332.632 230.138 332.713L225.839 335.193C225.77 335.233 225.693 335.252 225.616 335.252ZM226.063 270.628V334.034L229.468 332.068V268.661L226.063 270.628Z" fill="#373B42"/>
<path d="M172.129 227.031C173.287 227.703 175.192 227.703 176.362 227.031C177.533 226.346 177.545 225.25 176.375 224.578C175.204 223.893 173.312 223.893 172.142 224.578C170.972 225.25 170.959 226.346 172.129 227.031Z" fill="#373B42"/>
<path d="M174.242 227.986C173.398 227.986 172.558 227.797 171.906 227.419C171.904 227.417 171.904 227.417 171.904 227.417C171.197 227.002 170.81 226.429 170.812 225.802C170.815 225.172 171.209 224.601 171.922 224.193C173.231 223.424 175.288 223.426 176.6 224.195C177.301 224.597 177.689 225.162 177.693 225.788C177.695 226.42 177.303 226.999 176.588 227.417C175.927 227.796 175.084 227.986 174.242 227.986ZM172.354 226.647C173.375 227.236 175.106 227.238 176.142 226.645C176.56 226.399 176.802 226.087 176.801 225.791C176.799 225.502 176.564 225.202 176.154 224.967C175.124 224.363 173.395 224.365 172.368 224.965C171.946 225.207 171.706 225.512 171.704 225.805C171.704 226.098 171.939 226.403 172.354 226.647Z" fill="#373B42"/>
<path d="M224.232 256.206C225.39 256.878 227.295 256.878 228.465 256.206C229.635 255.521 229.648 254.425 228.478 253.753C227.307 253.068 225.415 253.068 224.244 253.753C223.074 254.425 223.061 255.521 224.232 256.206Z" fill="#373B42"/>
<path d="M226.343 257.16C225.501 257.16 224.661 256.972 224.009 256.592C224.007 256.592 224.007 256.592 224.007 256.592C223.299 256.177 222.912 255.603 222.914 254.976C222.918 254.347 223.31 253.775 224.021 253.365C225.333 252.598 227.39 252.6 228.703 253.367C229.403 253.77 229.792 254.338 229.796 254.962C229.797 255.595 229.405 256.173 228.689 256.592C228.028 256.97 227.184 257.16 226.343 257.16ZM224.457 255.821C225.476 256.412 227.209 256.41 228.243 255.819C228.661 255.574 228.903 255.262 228.903 254.965C228.902 254.676 228.666 254.374 228.255 254.139C227.227 253.536 225.494 253.538 224.469 254.137C224.049 254.38 223.809 254.686 223.807 254.979C223.807 255.272 224.042 255.577 224.457 255.821Z" fill="#373B42"/>
<path d="M120.026 256.205C121.183 256.877 123.088 256.877 124.259 256.205C125.429 255.52 125.441 254.424 124.271 253.752C123.101 253.067 121.208 253.067 120.038 253.752C118.868 254.424 118.856 255.52 120.026 256.205Z" fill="#373B42"/>
<path d="M122.136 257.159C121.294 257.159 120.453 256.97 119.8 256.59C119.092 256.178 118.705 255.605 118.707 254.977C118.709 254.348 119.103 253.775 119.814 253.365C121.126 252.595 123.181 252.596 124.494 253.367C125.196 253.769 125.585 254.338 125.588 254.962C125.59 255.594 125.196 256.173 124.482 256.59C123.821 256.97 122.977 257.159 122.136 257.159ZM120.25 255.819C121.269 256.414 123.003 256.408 124.034 255.817C124.454 255.572 124.696 255.261 124.696 254.965C124.694 254.676 124.457 254.374 124.046 254.139C123.019 253.538 121.288 253.538 120.262 254.137C119.84 254.379 119.599 254.686 119.599 254.981C119.598 255.272 119.835 255.577 120.25 255.819Z" fill="#373B42"/>
<path d="M172.129 285.379C173.287 286.052 175.192 286.052 176.362 285.379C177.533 284.695 177.545 283.599 176.375 282.927C175.204 282.242 173.312 282.242 172.142 282.927C170.972 283.599 170.959 284.695 172.129 285.379Z" fill="#373B42"/>
<path d="M174.242 286.334C173.398 286.334 172.558 286.144 171.904 285.764C171.197 285.349 170.81 284.778 170.812 284.15C170.815 283.521 171.209 282.949 171.92 282.539C173.233 281.771 175.288 281.772 176.6 282.541C177.301 282.944 177.689 283.51 177.693 284.136C177.695 284.767 177.303 285.346 176.588 285.764C175.927 286.144 175.084 286.334 174.242 286.334ZM172.354 284.994C173.372 285.586 175.108 285.585 176.14 284.992C176.56 284.746 176.8 284.434 176.8 284.14C176.799 283.85 176.563 283.549 176.152 283.313C175.125 282.712 173.394 282.712 172.368 283.312C171.946 283.554 171.706 283.861 171.704 284.154C171.704 284.445 171.939 284.75 172.354 284.994Z" fill="#373B42"/>
<path d="M205.611 254.942L174.78 272.86L143.725 254.929L174.555 237.011L205.611 254.942Z" fill="white"/>
<path d="M174.78 273.307C174.704 273.307 174.627 273.288 174.557 273.248L143.501 255.316C143.363 255.236 143.277 255.09 143.277 254.929C143.277 254.771 143.361 254.624 143.499 254.544L174.331 236.627C174.47 236.547 174.639 236.546 174.779 236.626L205.834 254.556C205.972 254.636 206.057 254.783 206.057 254.943C206.057 255.101 205.973 255.248 205.836 255.328L175.005 273.246C174.936 273.286 174.857 273.307 174.78 273.307ZM144.614 254.927L174.78 272.345L204.72 254.945L174.555 237.529L144.614 254.927Z" fill="#373B42"/>
<path d="M143.73 254.929L149.285 258.135L174.546 243.44L200.062 258.166L205.616 254.945L174.546 237.013L143.73 254.929Z" fill="#BEC4CD"/>
<path d="M200.061 258.613C199.984 258.613 199.908 258.594 199.838 258.554L174.547 243.956L149.509 258.521C149.369 258.601 149.2 258.603 149.061 258.522L143.507 255.317C143.37 255.237 143.284 255.091 143.284 254.93C143.284 254.772 143.368 254.625 143.506 254.545L174.32 236.628C174.46 236.548 174.629 236.547 174.768 236.627L205.839 254.559C205.977 254.639 206.062 254.785 206.062 254.945C206.062 255.104 205.977 255.252 205.839 255.331L200.284 258.552C200.216 258.592 200.138 258.613 200.061 258.613ZM174.545 242.994C174.622 242.994 174.699 243.013 174.768 243.053L200.061 257.651L204.725 254.947L174.545 237.529L144.621 254.928L149.284 257.619L174.32 243.055C174.39 243.015 174.469 242.994 174.545 242.994Z" fill="#373B42"/>
<path d="M174.544 243.44L200.06 258.166L205.614 254.945L174.544 237.013V243.44Z" fill="#373B42"/>
<path d="M200.06 258.614C199.983 258.614 199.906 258.594 199.837 258.554L174.321 243.828C174.183 243.747 174.098 243.599 174.098 243.441V237.014C174.098 236.856 174.183 236.708 174.321 236.628C174.46 236.547 174.628 236.547 174.767 236.628L205.838 254.56C205.976 254.64 206.061 254.786 206.061 254.946C206.061 255.105 205.976 255.253 205.838 255.332L200.283 258.553C200.215 258.593 200.137 258.614 200.06 258.614ZM174.99 243.183L200.06 257.651L204.724 254.948L174.99 237.786V243.183Z" fill="#373B42"/>
<path d="M144.893 199.258L144.545 254.947L174.779 272.406L204.807 254.977L204.728 199.258L174.912 181.929L144.893 199.258Z" fill="url(#paint1_linear_399_3036)"/>
<path d="M181.532 356.589V362.315L202.437 374.622V368.897L181.532 356.589Z" fill="#373B42"/>
<path d="M202.436 375.067C202.357 375.067 202.279 375.046 202.209 375.006L181.305 362.699C181.17 362.619 181.086 362.472 181.086 362.314V356.588C181.086 356.427 181.171 356.279 181.311 356.201C181.447 356.119 181.62 356.124 181.759 356.203L202.663 368.51C202.799 368.59 202.882 368.737 202.882 368.895V374.621C202.882 374.781 202.797 374.929 202.657 375.008C202.589 375.048 202.513 375.067 202.436 375.067ZM181.978 362.059L201.99 373.84V369.15L181.978 357.369V362.059Z" fill="#373B42"/>
<path d="M202.435 368.896V374.622L251.226 346.505V340.779L202.435 368.896Z" fill="white"/>
<path d="M202.434 375.067C202.357 375.067 202.28 375.047 202.21 375.007C202.073 374.927 201.987 374.779 201.987 374.62V368.895C201.987 368.734 202.073 368.588 202.21 368.508L251.003 340.391C251.142 340.311 251.309 340.311 251.449 340.391C251.587 340.472 251.672 340.62 251.672 340.778V346.504C251.672 346.664 251.587 346.811 251.449 346.891L202.657 375.007C202.587 375.047 202.51 375.067 202.434 375.067ZM202.88 369.153V373.848L250.779 346.246V341.55L202.88 369.153Z" fill="#373B42"/>
<path d="M251.233 340.779L202.436 368.895L181.53 356.635V351.616L225.612 325.993L251.233 340.779Z" fill="white"/>
<path d="M202.436 369.342C202.357 369.342 202.279 369.321 202.209 369.281L181.304 357.021C181.168 356.94 181.084 356.794 181.084 356.635V351.615C181.084 351.457 181.169 351.31 181.305 351.23L225.386 325.608C225.526 325.528 225.695 325.526 225.834 325.606L251.456 340.392C251.594 340.472 251.679 340.62 251.679 340.779C251.679 340.939 251.594 341.086 251.456 341.166L202.659 369.282C202.589 369.323 202.512 369.342 202.436 369.342ZM181.976 356.379L202.437 368.38L250.34 340.779L225.611 326.509L181.976 351.872V356.379Z" fill="#373B42"/>
<path d="M187.099 301.535C186.946 301.535 186.796 301.454 186.714 301.313C186.59 301.099 186.662 300.827 186.874 300.703L189.189 299.359C189.402 299.234 189.675 299.307 189.799 299.52C189.923 299.734 189.851 300.006 189.639 300.13L187.324 301.474C187.253 301.516 187.176 301.535 187.099 301.535Z" fill="white"/>
<path d="M195.48 296.665C195.327 296.665 195.177 296.585 195.095 296.444C194.971 296.23 195.043 295.958 195.255 295.834L200.31 292.895C200.523 292.768 200.796 292.843 200.92 293.056C201.044 293.27 200.972 293.542 200.76 293.666L195.705 296.604C195.633 296.646 195.557 296.665 195.48 296.665ZM206.602 290.201C206.449 290.201 206.299 290.12 206.217 289.979C206.093 289.765 206.164 289.493 206.377 289.369L211.432 286.432C211.644 286.305 211.918 286.38 212.042 286.593C212.166 286.807 212.094 287.079 211.881 287.203L206.827 290.14C206.755 290.181 206.679 290.201 206.602 290.201Z" fill="white"/>
<path d="M217.724 283.737C217.571 283.737 217.421 283.656 217.339 283.515C217.215 283.301 217.287 283.029 217.499 282.905L219.814 281.56C220.027 281.434 220.3 281.507 220.424 281.72C220.548 281.934 220.476 282.206 220.264 282.33L217.949 283.676C217.878 283.718 217.801 283.737 217.724 283.737Z" fill="white"/>
<path d="M187.099 307.592C186.946 307.592 186.796 307.512 186.714 307.371C186.59 307.156 186.662 306.884 186.874 306.761L189.189 305.417C189.402 305.29 189.675 305.364 189.799 305.577C189.923 305.791 189.851 306.063 189.639 306.187L187.324 307.531C187.253 307.573 187.176 307.592 187.099 307.592Z" fill="white"/>
<path d="M195.48 302.722C195.327 302.722 195.177 302.642 195.095 302.501C194.971 302.286 195.043 302.015 195.255 301.891L200.31 298.952C200.523 298.827 200.796 298.9 200.92 299.113C201.044 299.327 200.972 299.599 200.76 299.723L195.705 302.661C195.633 302.703 195.557 302.722 195.48 302.722ZM206.602 296.258C206.449 296.258 206.299 296.177 206.217 296.036C206.093 295.822 206.164 295.55 206.377 295.426L211.432 292.489C211.644 292.364 211.918 292.437 212.042 292.65C212.166 292.864 212.094 293.136 211.881 293.26L206.827 296.196C206.755 296.238 206.679 296.258 206.602 296.258Z" fill="white"/>
<path d="M217.724 289.794C217.571 289.794 217.421 289.714 217.339 289.573C217.215 289.358 217.287 289.086 217.499 288.963L219.814 287.617C220.027 287.49 220.3 287.565 220.424 287.777C220.548 287.992 220.476 288.263 220.264 288.387L217.949 289.733C217.878 289.775 217.801 289.794 217.724 289.794Z" fill="white"/>
<path d="M187.099 313.648C186.946 313.648 186.796 313.568 186.714 313.427C186.59 313.213 186.662 312.941 186.874 312.817L189.189 311.471C189.402 311.344 189.675 311.419 189.799 311.632C189.923 311.846 189.851 312.118 189.639 312.242L187.324 313.587C187.253 313.629 187.176 313.648 187.099 313.648Z" fill="white"/>
<path d="M193.947 309.669C193.794 309.669 193.644 309.589 193.562 309.448C193.438 309.234 193.509 308.962 193.722 308.838L197.499 306.644C197.712 306.518 197.985 306.591 198.109 306.804C198.233 307.018 198.161 307.29 197.949 307.414L194.172 309.608C194.1 309.65 194.024 309.669 193.947 309.669Z" fill="white"/>
<path d="M202.258 304.84C202.104 304.84 201.954 304.76 201.872 304.618C201.748 304.404 201.82 304.132 202.033 304.008L204.347 302.663C204.56 302.536 204.834 302.611 204.957 302.823C205.081 303.038 205.01 303.309 204.797 303.433L202.482 304.779C202.411 304.82 202.334 304.84 202.258 304.84Z" fill="white"/>
<path d="M519.399 550.166C522.625 548.303 522.643 545.28 519.438 543.417C516.232 541.554 511.015 541.555 507.788 543.418C504.561 545.281 504.546 548.302 507.751 550.165C510.957 552.029 516.172 552.029 519.399 550.166Z" fill="white"/>
<path d="M513.571 552C511.378 552 509.191 551.518 507.527 550.55C505.839 549.571 504.91 548.239 504.912 546.803C504.914 545.358 505.855 544.019 507.565 543.031C510.915 541.103 516.341 541.105 519.663 543.033C521.35 544.014 522.279 545.346 522.278 546.78C522.276 548.227 521.333 549.565 519.623 550.554C517.952 551.518 515.761 552 513.571 552ZM513.623 542.463C511.593 542.463 509.562 542.91 508.011 543.805C506.589 544.626 505.804 545.691 505.804 546.804C505.802 547.908 506.573 548.966 507.976 549.78C511.051 551.566 516.078 551.568 519.177 549.78C520.599 548.959 521.383 547.894 521.385 546.78C521.387 545.675 520.615 544.619 519.213 543.803C517.676 542.911 515.651 542.463 513.623 542.463Z" fill="#DBDEE4"/>
<path d="M513.614 544.663C512.356 544.663 511.138 544.95 510.274 545.449C509.579 545.85 509.18 546.342 509.18 546.8C509.179 547.252 509.57 547.739 510.252 548.136C511.11 548.634 512.322 548.92 513.579 548.92C514.835 548.92 516.052 548.634 516.916 548.135C517.611 547.733 518.01 547.24 518.011 546.782C518.011 546.329 517.621 545.843 516.939 545.447C516.083 544.949 514.87 544.663 513.614 544.663Z" fill="#DA0000"/>
<path d="M542.018 528.494C540.667 528.494 539.36 528.802 538.431 529.338C537.685 529.768 537.257 530.297 537.256 530.789C537.255 531.275 537.675 531.798 538.407 532.223C539.328 532.759 540.63 533.065 541.98 533.065C543.33 533.065 544.636 532.758 545.564 532.222C546.311 531.791 546.739 531.262 546.74 530.769C546.74 530.284 546.321 529.761 545.589 529.336C544.669 528.801 543.367 528.494 542.018 528.494Z" fill="#373B42"/>
<path d="M380.114 349.409C378.763 349.409 377.455 349.717 376.526 350.253C375.78 350.684 375.352 351.213 375.352 351.704C375.351 352.19 375.771 352.713 376.503 353.139C377.424 353.674 378.726 353.981 380.076 353.981C381.426 353.981 382.732 353.673 383.66 353.138C384.406 352.706 384.835 352.177 384.836 351.685C384.837 351.199 384.417 350.676 383.685 350.251C382.765 349.716 381.463 349.409 380.114 349.409Z" fill="#373B42"/>
<path d="M258.196 332.946C256.845 332.946 255.537 333.254 254.608 333.79C253.862 334.221 253.434 334.75 253.434 335.241C253.433 335.727 253.853 336.25 254.585 336.676C255.506 337.211 256.808 337.518 258.158 337.518C259.508 337.518 260.814 337.211 261.742 336.675C262.489 336.244 262.917 335.714 262.918 335.222C262.918 334.736 262.499 334.213 261.767 333.788C260.847 333.253 259.545 332.946 258.196 332.946Z" fill="#373B42"/>
<path d="M315.669 501.339C318.896 503.202 318.914 506.225 315.708 508.088C312.503 509.951 307.285 509.95 304.058 508.087C300.832 506.224 300.816 503.203 304.022 501.34C307.227 499.477 312.442 499.476 315.669 501.339Z" fill="white"/>
<path d="M309.891 509.922C307.7 509.922 305.509 509.439 303.836 508.474C302.128 507.486 301.184 506.147 301.183 504.704C301.181 503.268 302.108 501.936 303.797 500.955C307.123 499.022 312.549 499.02 315.892 500.953C317.602 501.941 318.545 503.281 318.547 504.726C318.548 506.163 317.621 507.493 315.934 508.472C314.271 509.44 312.082 509.922 309.891 509.922ZM309.837 500.385C307.81 500.385 305.784 500.831 304.247 501.725C302.844 502.541 302.073 503.597 302.075 504.702C302.077 505.814 302.859 506.879 304.282 507.7C307.381 509.492 312.406 509.49 315.484 507.702C316.886 506.888 317.656 505.831 317.654 504.728C317.654 503.614 316.868 502.548 315.446 501.726C313.896 500.831 311.866 500.385 309.837 500.385Z" fill="#DBDEE4"/>
<path d="M309.882 506.842C308.625 506.842 307.407 506.555 306.542 506.056C305.848 505.655 305.449 505.163 305.448 504.705C305.448 504.252 305.838 503.766 306.521 503.369C307.378 502.871 308.591 502.585 309.847 502.585C311.104 502.585 312.32 502.871 313.185 503.37C313.88 503.772 314.278 504.265 314.279 504.723C314.28 505.175 313.889 505.662 313.208 506.058C312.351 506.556 311.139 506.842 309.882 506.842Z" fill="#DA0000"/>
<path d="M338.287 523.01C336.936 523.01 335.629 522.703 334.7 522.166C333.954 521.735 333.526 521.207 333.525 520.715C333.525 520.229 333.944 519.706 334.677 519.281C335.598 518.745 336.9 518.438 338.25 518.438C339.599 518.438 340.906 518.746 341.834 519.282C342.58 519.713 343.009 520.242 343.01 520.735C343.01 521.22 342.591 521.743 341.859 522.168C340.939 522.703 339.637 523.01 338.287 523.01Z" fill="#373B42"/>
<path d="M181.628 484.849C184.855 482.986 184.873 479.963 181.667 478.1C178.462 476.237 173.244 476.238 170.017 478.101C166.791 479.964 166.775 482.985 169.981 484.848C173.186 486.711 178.401 486.712 181.628 484.849Z" fill="white"/>
<path d="M175.797 486.684C173.606 486.684 171.419 486.202 169.756 485.234C168.067 484.253 167.138 482.921 167.14 481.485C167.141 480.042 168.084 478.703 169.794 477.715C173.142 475.784 178.567 475.784 181.891 477.715C183.578 478.695 184.507 480.026 184.505 481.462C184.504 482.907 183.561 484.248 181.851 485.236C180.179 486.202 177.987 486.684 175.797 486.684ZM175.853 477.145C173.822 477.145 171.792 477.593 170.24 478.489C168.818 479.31 168.034 480.375 168.032 481.487C168.03 482.592 168.802 483.648 170.205 484.464C173.28 486.254 178.305 486.252 181.404 484.462C182.827 483.641 183.611 482.574 183.613 481.46C183.614 480.357 182.844 479.301 181.441 478.485C179.904 477.593 177.88 477.145 175.853 477.145Z" fill="#DBDEE4"/>
<path d="M175.841 479.347C174.583 479.347 173.366 479.633 172.501 480.133C171.807 480.534 171.408 481.026 171.407 481.484C171.407 481.936 171.797 482.423 172.48 482.819C173.337 483.318 174.55 483.603 175.806 483.603C177.063 483.603 178.279 483.317 179.144 482.818C179.839 482.417 180.237 481.924 180.238 481.465C180.239 481.013 179.848 480.526 179.167 480.13C178.31 479.632 177.098 479.347 175.841 479.347Z" fill="#DA0000"/>
<path d="M204.25 463.178C202.899 463.178 201.592 463.485 200.663 464.022C199.917 464.452 199.489 464.981 199.488 465.473C199.488 465.959 199.907 466.481 200.64 466.907C201.561 467.442 202.863 467.749 204.213 467.749C205.562 467.749 206.869 467.442 207.797 466.906C208.543 466.475 208.972 465.945 208.973 465.453C208.973 464.968 208.554 464.445 207.822 464.02C206.901 463.485 205.599 463.178 204.25 463.178Z" fill="#373B42"/>
<path d="M339.547 400.068C336.32 398.205 336.302 395.183 339.508 393.32C342.713 391.457 347.931 391.457 351.158 393.321C354.384 395.184 354.4 398.205 351.194 400.068C347.988 401.931 342.774 401.931 339.547 400.068Z" fill="white"/>
<path d="M345.379 401.903C343.19 401.903 340.997 401.42 339.325 400.454C337.615 399.468 336.672 398.129 336.669 396.684C336.667 395.248 337.596 393.916 339.284 392.935C342.608 391.002 348.033 391 351.382 392.933C353.09 393.921 354.033 395.26 354.035 396.703C354.037 398.14 353.109 399.471 351.42 400.453C349.757 401.42 347.57 401.903 345.379 401.903ZM345.325 392.363C343.297 392.363 341.272 392.811 339.733 393.705C338.332 394.521 337.56 395.577 337.561 396.682C337.563 397.796 338.349 398.861 339.771 399.68C342.869 401.47 347.894 401.47 350.97 399.682C352.373 398.866 353.144 397.81 353.142 396.705C353.14 395.593 352.358 394.528 350.935 393.707C349.386 392.811 347.353 392.363 345.325 392.363Z" fill="#DBDEE4"/>
<path d="M345.333 394.565C346.591 394.565 347.809 394.852 348.674 395.351C349.368 395.752 349.767 396.245 349.767 396.703C349.768 397.155 349.377 397.642 348.695 398.038C347.838 398.536 346.625 398.822 345.369 398.822C344.112 398.822 342.895 398.536 342.031 398.037C341.336 397.636 340.937 397.142 340.937 396.684C340.936 396.232 341.326 395.745 342.008 395.349C342.865 394.851 344.077 394.565 345.333 394.565Z" fill="#DA0000"/>
<path d="M316.929 378.396C318.28 378.396 319.588 378.704 320.517 379.24C321.262 379.671 321.691 380.2 321.691 380.692C321.692 381.177 321.272 381.7 320.54 382.126C319.619 382.661 318.317 382.968 316.967 382.968C315.617 382.968 314.311 382.661 313.383 382.125C312.636 381.694 312.208 381.164 312.207 380.672C312.207 380.186 312.626 379.664 313.358 379.238C314.278 378.703 315.58 378.396 316.929 378.396Z" fill="#373B42"/>
<defs>
<filter id="filter0_d_399_3036" x="0" y="0" width="648" height="656" filterUnits="userSpaceOnUse" color-interpolation-filters="sRGB">
<feFlood flood-opacity="0" result="BackgroundImageFix"/>
<feColorMatrix in="SourceAlpha" type="matrix" values="0 0 0 0 0 0 0 0 0 0 0 0 0 0 0 0 0 0 127 0" result="hardAlpha"/>
<feOffset dy="4"/>
<feGaussianBlur stdDeviation="2"/>
<feComposite in2="hardAlpha" operator="out"/>
<feColorMatrix type="matrix" values="0 0 0 0 0 0 0 0 0 0 0 0 0 0 0 0 0 0 0.25 0"/>
<feBlend mode="normal" in2="BackgroundImageFix" result="effect1_dropShadow_399_3036"/>
<feBlend mode="normal" in="SourceGraphic" in2="effect1_dropShadow_399_3036" result="shape"/>
</filter>
<linearGradient id="paint0_linear_399_3036" x1="323.812" y1="185.345" x2="323.812" y2="95.6055" gradientUnits="userSpaceOnUse">
<stop offset="0.0334" stop-color="#FF0000"/>
<stop offset="0.326923" stop-color="#FF2A2A"/>
<stop offset="0.706731" stop-color="#FFD2D2"/>
<stop offset="1" stop-color="white"/>
</linearGradient>
<linearGradient id="paint1_linear_399_3036" x1="174.676" y1="272.274" x2="174.676" y2="182.534" gradientUnits="userSpaceOnUse">
<stop offset="0.0334" stop-color="#FF0000"/>
<stop offset="0.326923" stop-color="#FF2A2A"/>
<stop offset="0.706731" stop-color="#FFD2D2"/>
<stop offset="1" stop-color="white"/>
</linearGradient>
</defs>
</svg>
