<svg width="648" height="656" viewBox="0 0 648 656" fill="none" xmlns="http://www.w3.org/2000/svg">
<g filter="url(#filter0_d_399_1556)">
<path d="M75.9101 0L644 0.336294V648H4V576.937V71.8492C28.719 47.1121 52.5226 24.3319 75.9101 0Z" fill="white"/>
</g>
<path d="M237.681 544.407C237.605 544.407 237.528 544.387 237.457 544.346L171.096 505.778C170.167 505.239 169.614 504.275 169.615 503.2C169.617 502.126 170.174 501.164 171.105 500.627L237.916 462.049C238.123 461.927 238.4 461.997 238.525 462.213C238.647 462.425 238.574 462.698 238.361 462.821L171.55 501.399C170.898 501.775 170.508 502.45 170.506 503.202C170.504 503.955 170.892 504.63 171.545 505.009L237.906 543.577C238.118 543.7 238.189 543.972 238.066 544.186C237.984 544.327 237.834 544.407 237.681 544.407Z" fill="#DBDEE4"/>
<path d="M230.786 546.026C227.565 544.166 227.547 541.148 230.747 539.289C233.947 537.429 239.156 537.43 242.377 539.29C245.598 541.15 245.614 544.165 242.414 546.025C239.214 547.884 234.007 547.885 230.786 546.026Z" fill="white"/>
<path d="M236.608 547.857C234.421 547.857 232.234 547.375 230.564 546.411C228.857 545.425 227.916 544.087 227.914 542.644C227.912 541.211 228.838 539.883 230.522 538.905C233.842 536.974 239.26 536.976 242.601 538.903C244.306 539.89 245.247 541.226 245.249 542.667C245.251 544.101 244.325 545.43 242.639 546.409C240.979 547.375 238.796 547.857 236.608 547.857ZM236.555 538.336C234.529 538.336 232.508 538.781 230.971 539.674C229.572 540.487 228.803 541.541 228.805 542.643C228.805 543.754 229.59 544.819 231.009 545.639C234.103 547.428 239.121 547.426 242.19 545.64C243.591 544.826 244.36 543.772 244.358 542.669C244.357 541.558 243.575 540.495 242.156 539.676C240.609 538.781 238.58 538.336 236.555 538.336Z" fill="#DBDEE4"/>
<path d="M236.563 540.533C237.819 540.533 239.034 540.819 239.897 541.317C240.591 541.717 240.989 542.209 240.989 542.666C240.99 543.117 240.6 543.603 239.919 543.999C239.063 544.496 237.853 544.782 236.598 544.782C235.344 544.782 234.129 544.496 233.267 543.998C232.573 543.598 232.174 543.105 232.174 542.648C232.173 542.196 232.563 541.711 233.243 541.315C234.099 540.818 235.309 540.533 236.563 540.533Z" fill="#DA0000"/>
<path d="M208.205 524.392C209.554 524.392 210.859 524.699 211.786 525.234C212.531 525.664 212.958 526.192 212.959 526.683C212.959 527.168 212.541 527.69 211.809 528.115C210.89 528.649 209.59 528.956 208.243 528.956C206.896 528.956 205.591 528.649 204.665 528.114C203.92 527.683 203.492 527.155 203.491 526.664C203.491 526.179 203.909 525.657 204.64 525.232C205.558 524.698 206.858 524.392 208.205 524.392Z" fill="#383C43"/>
<path d="M399.349 356.259C399.196 356.259 399.046 356.179 398.965 356.038C398.841 355.825 398.913 355.553 399.125 355.43L533.309 277.528C533.523 277.402 533.794 277.475 533.918 277.688C534.041 277.902 533.97 278.173 533.757 278.297L399.574 356.199C399.502 356.24 399.426 356.259 399.349 356.259Z" fill="#DBDEE4"/>
<path d="M406.59 357.569C409.814 355.71 409.833 352.692 406.629 350.833C403.425 348.973 398.211 348.973 394.986 350.833C391.761 352.693 391.745 355.709 394.949 357.569C398.153 359.429 403.365 359.429 406.59 357.569Z" fill="white"/>
<path d="M400.766 359.4C398.575 359.4 396.388 358.918 394.726 357.953C393.039 356.975 392.109 355.646 392.111 354.212C392.113 352.769 393.054 351.433 394.763 350.446C398.109 348.517 403.532 348.518 406.854 350.448C408.54 351.427 409.467 352.755 409.465 354.189C409.464 355.633 408.521 356.969 406.812 357.956C405.142 358.918 402.953 359.4 400.766 359.4ZM400.818 349.879C398.789 349.879 396.759 350.326 395.209 351.219C393.787 352.038 393.004 353.101 393.002 354.213C393.001 355.315 393.771 356.371 395.172 357.183C398.251 358.968 403.273 358.968 406.367 357.183C407.788 356.364 408.573 355.301 408.575 354.189C408.576 353.086 407.806 352.032 406.405 351.217C404.868 350.324 402.845 349.879 400.818 349.879Z" fill="#DBDEE4"/>
<path d="M400.807 352.076C399.549 352.076 398.333 352.362 397.468 352.86C396.774 353.261 396.376 353.752 396.375 354.209C396.374 354.661 396.765 355.147 397.447 355.543C398.304 356.04 399.515 356.326 400.771 356.326C402.027 356.326 403.243 356.04 404.107 355.542C404.801 355.141 405.2 354.649 405.201 354.192C405.201 353.74 404.811 353.254 404.13 352.859C403.273 352.361 402.062 352.076 400.807 352.076Z" fill="#DA0000"/>
<path d="M421.739 340.215C420.389 340.215 419.082 340.522 418.154 341.057C417.408 341.487 416.98 342.015 416.979 342.506C416.979 342.991 417.398 343.513 418.13 343.938C419.051 344.472 420.352 344.778 421.701 344.778C423.05 344.778 424.355 344.472 425.283 343.937C426.029 343.506 426.457 342.978 426.458 342.486C426.458 342.001 426.039 341.479 425.308 341.055C424.389 340.521 423.087 340.215 421.739 340.215Z" fill="#383C43"/>
<path d="M507.378 390.025C507.301 390.025 507.225 390.006 507.155 389.966L460.005 362.76C459.265 362.334 458.823 361.572 458.821 360.719C458.82 359.865 459.26 359.099 459.999 358.671L527.394 319.58C527.603 319.454 527.877 319.527 528.001 319.742C528.124 319.955 528.053 320.228 527.839 320.349L460.446 359.44C459.985 359.709 459.712 360.185 459.712 360.718C459.714 361.248 459.989 361.723 460.45 361.988L507.6 389.193C507.813 389.317 507.886 389.588 507.764 389.802C507.681 389.945 507.531 390.025 507.378 390.025Z" fill="#DBDEE4"/>
<path d="M498.466 390.269C495.241 388.411 495.222 385.397 498.426 383.539C501.63 381.681 506.844 381.681 510.069 383.539C513.294 385.398 513.31 388.411 510.106 390.269C506.902 392.127 501.69 392.127 498.466 390.269Z" fill="white"/>
<path d="M504.291 392.1C502.102 392.1 499.913 391.618 498.243 390.656C496.535 389.671 495.591 388.333 495.59 386.891C495.588 385.459 496.516 384.131 498.203 383.153C501.526 381.224 506.952 381.227 510.292 383.153C511.999 384.138 512.942 385.473 512.944 386.913C512.946 388.347 512.016 389.674 510.329 390.652C508.667 391.618 506.48 392.1 504.291 392.1ZM504.237 382.586C502.21 382.586 500.187 383.032 498.649 383.922C497.25 384.735 496.479 385.789 496.48 386.891C496.482 388.001 497.267 389.064 498.688 389.883C501.782 391.669 506.804 391.669 509.883 389.883C511.284 389.069 512.054 388.016 512.053 386.915C512.051 385.807 511.268 384.744 509.846 383.926C508.298 383.033 506.266 382.586 504.237 382.586Z" fill="#DBDEE4"/>
<path d="M504.248 384.781C505.505 384.781 506.722 385.067 507.586 385.565C508.28 385.965 508.678 386.456 508.679 386.913C508.68 387.364 508.289 387.849 507.608 388.245C506.751 388.742 505.539 389.027 504.283 389.027C503.027 389.027 501.811 388.741 500.948 388.243C500.253 387.843 499.854 387.352 499.854 386.894C499.853 386.443 500.243 385.958 500.924 385.563C501.781 385.066 502.992 384.781 504.248 384.781Z" fill="#DA0000"/>
<path d="M498.466 390.269C495.241 388.411 495.222 385.397 498.426 383.539C501.63 381.681 506.844 381.681 510.069 383.539C513.294 385.398 513.31 388.411 510.106 390.269C506.902 392.127 501.69 392.127 498.466 390.269Z" fill="white"/>
<path d="M504.291 392.1C502.102 392.1 499.913 391.618 498.243 390.656C496.535 389.671 495.591 388.333 495.59 386.891C495.588 385.459 496.516 384.131 498.203 383.153C501.526 381.224 506.952 381.227 510.292 383.153C511.999 384.138 512.942 385.473 512.944 386.913C512.946 388.347 512.016 389.674 510.329 390.652C508.667 391.618 506.48 392.1 504.291 392.1ZM504.237 382.586C502.21 382.586 500.187 383.032 498.649 383.922C497.25 384.735 496.479 385.789 496.48 386.891C496.482 388.001 497.267 389.064 498.688 389.883C501.782 391.669 506.804 391.669 509.883 389.883C511.284 389.069 512.054 388.016 512.053 386.915C512.051 385.807 511.268 384.744 509.846 383.926C508.298 383.033 506.266 382.586 504.237 382.586Z" fill="#DBDEE4"/>
<path d="M504.248 384.781C505.505 384.781 506.722 385.067 507.586 385.565C508.28 385.965 508.678 386.456 508.679 386.913C508.68 387.364 508.289 387.849 507.608 388.245C506.751 388.742 505.539 389.027 504.283 389.027C503.027 389.027 501.811 388.741 500.948 388.243C500.253 387.843 499.854 387.352 499.854 386.894C499.853 386.443 500.243 385.958 500.924 385.563C501.781 385.066 502.992 384.781 504.248 384.781Z" fill="#DA0000"/>
<path d="M478.876 370.53C480.226 370.53 481.533 370.837 482.461 371.371C483.207 371.801 483.635 372.328 483.636 372.819C483.636 373.303 483.217 373.824 482.485 374.249C481.564 374.783 480.263 375.089 478.914 375.089C477.565 375.089 476.26 374.782 475.332 374.248C474.586 373.818 474.158 373.29 474.157 372.799C474.157 372.314 474.576 371.793 475.307 371.369C476.227 370.836 477.528 370.53 478.876 370.53Z" fill="#383C43"/>
<path d="M393.62 468.81C393.543 468.81 393.467 468.791 393.396 468.75L259.212 390.848C259 390.724 258.928 390.453 259.052 390.239C259.174 390.026 259.447 389.952 259.661 390.079L393.844 467.981C394.057 468.104 394.128 468.376 394.004 468.589C393.923 468.73 393.773 468.81 393.62 468.81Z" fill="#DBDEE4"/>
<path d="M386.379 470.12C383.154 468.26 383.135 465.243 386.339 463.383C389.543 461.523 394.758 461.524 397.982 463.384C401.207 465.244 401.223 468.26 398.019 470.119C394.815 471.979 389.604 471.98 386.379 470.12Z" fill="white"/>
<path d="M392.203 471.951C390.016 471.951 387.826 471.469 386.155 470.507C384.447 469.52 383.504 468.182 383.502 466.74C383.5 465.306 384.429 463.977 386.117 462.999C389.437 461.067 394.86 461.069 398.204 462.997C399.913 463.984 400.856 465.32 400.857 466.763C400.859 468.196 399.93 469.526 398.241 470.503C396.581 471.469 394.392 471.951 392.203 471.951ZM386.601 469.734C389.699 471.519 394.719 471.516 397.794 469.734C399.196 468.92 399.967 467.865 399.967 466.764C399.965 465.652 399.18 464.589 397.759 463.769C394.662 461.984 389.637 461.979 386.564 463.768C385.162 464.582 384.393 465.637 384.393 466.738C384.394 467.85 385.179 468.915 386.601 469.734Z" fill="#DBDEE4"/>
<path d="M392.161 464.627C393.418 464.627 394.635 464.913 395.499 465.411C396.193 465.812 396.592 466.303 396.592 466.76C396.593 467.212 396.203 467.698 395.521 468.093C394.664 468.591 393.452 468.876 392.196 468.876C390.94 468.876 389.725 468.591 388.861 468.093C388.166 467.692 387.767 467.2 387.767 466.742C387.766 466.291 388.156 465.805 388.837 465.41C389.694 464.912 390.905 464.627 392.161 464.627Z" fill="#DA0000"/>
<path d="M371.229 452.766C372.579 452.766 373.886 453.073 374.814 453.608C375.559 454.038 375.987 454.566 375.988 455.057C375.989 455.542 375.569 456.063 374.837 456.488C373.917 457.023 372.615 457.329 371.267 457.329C369.918 457.329 368.612 457.022 367.685 456.487C366.939 456.057 366.511 455.528 366.51 455.037C366.509 454.552 366.928 454.031 367.66 453.606C368.579 453.072 369.88 452.766 371.229 452.766Z" fill="#383C43"/>
<path d="M285.59 502.575C285.437 502.575 285.287 502.495 285.204 502.353C285.082 502.139 285.155 501.867 285.368 501.744L332.516 474.538C332.977 474.274 333.254 473.797 333.254 473.266C333.255 472.736 332.981 472.259 332.521 471.991L265.127 432.9C264.913 432.778 264.841 432.505 264.965 432.293C265.087 432.077 265.362 432.004 265.572 432.131L332.967 471.222C333.706 471.65 334.146 472.416 334.145 473.268C334.143 474.121 333.701 474.885 332.961 475.311L285.813 502.516C285.743 502.556 285.667 502.575 285.59 502.575Z" fill="#DBDEE4"/>
<path d="M294.502 502.82C297.726 500.962 297.745 497.948 294.541 496.089C291.337 494.231 286.123 494.232 282.898 496.09C279.673 497.949 279.657 500.961 282.861 502.819C286.065 504.678 291.277 504.679 294.502 502.82Z" fill="white"/>
<path d="M288.677 504.649C286.486 504.649 284.299 504.167 282.637 503.203C280.95 502.225 280.021 500.898 280.022 499.464C280.026 498.024 280.967 496.689 282.676 495.704C286.02 493.776 291.443 493.776 294.763 495.704C296.451 496.682 297.38 498.01 297.378 499.443C297.377 500.884 296.433 502.222 294.725 503.207C293.055 504.169 290.864 504.649 288.677 504.649ZM288.731 495.137C286.702 495.137 284.671 495.582 283.121 496.477C281.699 497.295 280.915 498.358 280.913 499.466C280.911 500.567 281.682 501.62 283.083 502.435C286.164 504.216 291.187 504.22 294.279 502.435C295.701 501.615 296.485 500.552 296.487 499.442C296.487 498.34 295.718 497.286 294.317 496.473C292.78 495.582 290.756 495.137 288.731 495.137Z" fill="#DBDEE4"/>
<path d="M288.72 497.332C287.462 497.332 286.246 497.618 285.381 498.116C284.687 498.516 284.289 499.007 284.288 499.463C284.288 499.915 284.678 500.4 285.36 500.795C286.217 501.292 287.428 501.577 288.684 501.577C289.94 501.577 291.156 501.292 292.02 500.794C292.714 500.394 293.113 499.902 293.114 499.445C293.114 498.994 292.724 498.509 292.043 498.114C291.187 497.617 289.975 497.332 288.72 497.332Z" fill="#DA0000"/>
<path d="M294.502 502.82C297.726 500.962 297.745 497.948 294.541 496.089C291.337 494.231 286.123 494.232 282.898 496.09C279.673 497.949 279.657 500.961 282.861 502.819C286.065 504.678 291.277 504.679 294.502 502.82Z" fill="white"/>
<path d="M288.677 504.649C286.486 504.649 284.299 504.167 282.637 503.203C280.95 502.225 280.021 500.898 280.022 499.464C280.026 498.024 280.967 496.689 282.676 495.704C286.02 493.776 291.443 493.776 294.763 495.704C296.451 496.682 297.38 498.01 297.378 499.443C297.377 500.884 296.433 502.222 294.725 503.207C293.055 504.169 290.864 504.649 288.677 504.649ZM288.731 495.137C286.702 495.137 284.671 495.582 283.121 496.477C281.699 497.295 280.915 498.358 280.913 499.466C280.911 500.567 281.682 501.62 283.083 502.435C286.164 504.216 291.187 504.22 294.279 502.435C295.701 501.615 296.485 500.552 296.487 499.442C296.487 498.34 295.718 497.286 294.317 496.473C292.78 495.582 290.756 495.137 288.731 495.137Z" fill="#DBDEE4"/>
<path d="M288.72 497.332C287.462 497.332 286.246 497.618 285.381 498.116C284.687 498.516 284.289 499.007 284.288 499.463C284.288 499.915 284.678 500.4 285.36 500.795C286.217 501.292 287.428 501.577 288.684 501.577C289.94 501.577 291.156 501.292 292.02 500.794C292.714 500.394 293.113 499.902 293.114 499.445C293.114 498.994 292.724 498.509 292.043 498.114C291.187 497.617 289.975 497.332 288.72 497.332Z" fill="#DA0000"/>
<path d="M314.091 483.081C312.741 483.081 311.435 483.387 310.506 483.922C309.761 484.352 309.333 484.879 309.332 485.369C309.331 485.854 309.751 486.375 310.483 486.8C311.403 487.334 312.705 487.64 314.053 487.64C315.402 487.64 316.708 487.333 317.635 486.799C318.381 486.369 318.81 485.841 318.81 485.35C318.811 484.865 318.392 484.344 317.661 483.92C316.741 483.387 315.44 483.081 314.091 483.081Z" fill="#383C43"/>
<path d="M282.892 161.686C281.485 160.859 279.54 160.961 277.368 162.224L115.185 255.875C115.165 255.896 115.144 255.896 115.123 255.917C112.889 257.22 110.902 259.455 109.516 262.021C108.254 264.338 107.447 266.904 107.467 269.242V270.422L107.798 406.131C107.798 408.552 108.668 410.269 110.054 411.076L98.0319 404.103C96.6663 403.296 95.7972 401.579 95.7972 399.137L95.4453 263.779V262.248C95.4453 259.91 96.232 257.365 97.4937 255.048C98.9008 252.502 100.867 250.247 103.06 248.943C103.102 248.923 103.122 248.902 103.163 248.881L265.367 155.23C267.519 153.989 269.464 153.885 270.871 154.692L282.892 161.686Z" fill="#BEC4CD"/>
<path d="M110.054 411.521C109.977 411.521 109.901 411.502 109.831 411.46L97.8083 404.489C96.2231 403.553 95.3516 401.653 95.3516 399.137L95 262.249C95 259.957 95.7465 257.325 97.1019 254.835C98.6279 252.077 100.662 249.85 102.832 248.561L103.162 248.881L102.939 248.495L265.143 154.843C267.356 153.568 269.468 153.374 271.092 154.305L283.078 161.279C283.092 161.288 283.105 161.295 283.118 161.301C283.329 161.427 283.4 161.698 283.276 161.91C283.15 162.123 282.88 162.196 282.668 162.07L282.634 162.051C281.307 161.289 279.52 161.488 277.592 162.608L115.42 256.255C115.396 256.271 115.371 256.286 115.352 256.295C113.242 257.53 111.31 259.635 109.906 262.233C108.601 264.631 107.893 267.119 107.912 269.238V270.421L108.243 406.129C108.243 408.308 108.965 409.928 110.279 410.691C110.491 410.815 110.562 411.086 110.439 411.3C110.357 411.441 110.207 411.521 110.054 411.521ZM268.832 154.617C267.843 154.617 266.738 154.953 265.588 155.616L103.385 249.268C103.333 249.3 103.301 249.321 103.258 249.342C101.252 250.538 99.3327 252.645 97.8833 255.263C96.5994 257.623 95.8911 260.104 95.8911 262.249V263.78L96.2427 399.135C96.2427 401.323 96.9579 402.952 98.2576 403.721L107.979 409.357C107.568 408.461 107.352 407.37 107.352 406.131L107.021 269.242C107 266.976 107.747 264.335 109.123 261.809C110.601 259.075 112.647 256.848 114.888 255.538C114.912 255.523 114.936 255.507 114.955 255.498L277.145 161.837C278.26 161.19 279.348 160.818 280.359 160.727L270.646 155.076C270.109 154.77 269.496 154.617 268.832 154.617Z" fill="#383C43"/>
<path d="M115.123 255.917C112.889 257.22 110.902 259.455 109.516 262.02C108.254 264.338 107.447 266.904 107.467 269.242V270.421C107.447 270.504 107.426 270.608 107.405 270.69L95.4453 263.779V262.248C95.4453 259.91 96.232 257.365 97.4937 255.047C98.9008 252.502 100.867 250.247 103.06 248.943L115.123 255.917Z" fill="#F1F2F5"/>
<g opacity="0.1">
<path d="M115.565 434.44C111.293 436.906 111.27 440.914 115.514 443.381L218.238 503.077C222.482 505.544 229.402 505.544 233.673 503.077L395.878 409.429C400.161 406.956 400.172 402.955 395.928 400.488L293.204 340.791C288.96 338.325 282.052 338.318 277.769 340.791L115.565 434.44Z" fill="#010101"/>
</g>
<path d="M115.565 410.549C111.293 413.015 111.27 417.023 115.514 419.489L218.238 479.186C222.482 481.653 229.402 481.653 233.673 479.186L395.878 385.538C400.161 383.065 400.172 379.063 395.928 376.597L293.204 316.9C288.96 314.434 282.052 314.427 277.769 316.9L115.565 410.549Z" fill="white"/>
<path d="M225.946 481.473C223.07 481.473 220.197 480.84 218.014 479.572L115.29 419.875C113.103 418.603 111.899 416.884 111.9 415.034C111.904 413.173 113.125 411.443 115.342 410.163L277.545 316.514C281.937 313.981 289.062 313.979 293.429 316.516L396.153 376.213C398.344 377.485 399.549 379.204 399.546 381.053C399.544 382.913 398.321 384.641 396.101 385.923L233.896 479.573C231.7 480.84 228.82 481.473 225.946 481.473ZM115.788 410.935C113.858 412.048 112.793 413.505 112.791 415.036C112.79 416.553 113.835 417.999 115.739 419.106L218.463 478.803C222.581 481.197 229.304 481.195 233.451 478.801L395.656 385.151C397.589 384.036 398.654 382.579 398.656 381.052C398.659 379.535 397.61 378.089 395.705 376.982L292.981 317.285C288.864 314.894 282.139 314.892 277.991 317.286L115.788 410.935Z" fill="#383C43"/>
<path d="M235.395 357.544C234.41 358.113 234.414 359.032 235.383 359.596L244.858 365.102C245.836 365.671 247.414 365.671 248.4 365.102L259.517 358.683C260.502 358.115 260.507 357.201 259.528 356.632L250.054 351.126C249.084 350.562 247.497 350.557 246.512 351.126L235.395 357.544Z" fill="#DBDEE4"/>
<path d="M255.598 345.881C254.613 346.449 254.617 347.368 255.587 347.932L265.061 353.438C266.04 354.007 267.618 354.007 268.603 353.438L279.72 347.019C280.705 346.451 280.71 345.537 279.731 344.968L270.257 339.462C269.287 338.898 267.701 338.893 266.715 339.462L255.598 345.881Z" fill="#DBDEE4"/>
<path d="M294.222 344.923C293.237 345.491 293.241 346.41 294.211 346.974L303.685 352.48C304.664 353.049 306.242 353.049 307.227 352.48L318.344 346.061C319.329 345.493 319.334 344.579 318.356 344.01L308.881 338.504C307.911 337.94 306.325 337.935 305.339 338.504L294.222 344.923Z" fill="#DBDEE4"/>
<path d="M275.801 334.217C274.815 334.786 274.819 335.705 275.789 336.268L285.263 341.774C286.242 342.343 287.82 342.343 288.805 341.774L299.922 335.356C300.907 334.787 300.912 333.873 299.934 333.304L290.459 327.798C289.489 327.235 287.903 327.229 286.918 327.798L275.801 334.217Z" fill="#DBDEE4"/>
<path d="M274.02 356.586C273.035 357.155 273.039 358.074 274.008 358.638L283.483 364.144C284.461 364.713 286.04 364.713 287.025 364.144L298.142 357.725C299.127 357.157 299.132 356.243 298.153 355.674L288.679 350.168C287.709 349.604 286.122 349.599 285.137 350.168L274.02 356.586Z" fill="#DBDEE4"/>
<path d="M272.24 378.956C271.255 379.525 271.258 380.444 272.228 381.008L281.703 386.514C282.672 387.077 284.259 387.082 285.244 386.514L296.361 380.095C297.346 379.527 297.343 378.608 296.373 378.044L286.898 372.538C285.929 371.974 284.342 371.969 283.357 372.538L272.24 378.956Z" fill="#DBDEE4"/>
<path d="M253.818 368.25C252.833 368.819 252.836 369.738 253.806 370.302L263.281 375.808C264.259 376.377 265.837 376.377 266.822 375.808L277.939 369.39C278.925 368.821 278.93 367.907 277.951 367.338L268.477 361.832C267.507 361.268 265.92 361.263 264.935 361.832L253.818 368.25Z" fill="#DBDEE4"/>
<path d="M154.577 404.205C153.601 404.769 153.596 405.693 154.566 406.257L164.04 411.763C165.019 412.331 166.606 412.326 167.582 411.763L178.708 405.339C179.693 404.771 179.698 403.856 178.719 403.288L169.245 397.782C168.275 397.218 166.688 397.213 165.703 397.782L154.577 404.205Z" fill="#DBDEE4"/>
<path d="M134.374 415.869C133.398 416.433 133.393 417.357 134.363 417.92L143.837 423.426C144.816 423.995 146.402 423.99 147.379 423.426L158.505 417.003C159.49 416.434 159.495 415.52 158.516 414.951L149.042 409.445C148.072 408.882 146.485 408.876 145.5 409.445L134.374 415.869Z" fill="#DBDEE4"/>
<path d="M172.999 414.911C172.023 415.475 172.018 416.399 172.988 416.963L182.462 422.469C183.441 423.037 185.028 423.032 186.004 422.469L197.13 416.045C198.115 415.477 198.12 414.562 197.141 413.994L187.667 408.488C186.697 407.924 185.11 407.919 184.125 408.488L172.999 414.911Z" fill="#DBDEE4"/>
<path d="M152.796 426.575C151.82 427.139 151.815 428.063 152.784 428.626L162.259 434.133C163.237 434.701 164.824 434.696 165.801 434.133L176.926 427.709C177.912 427.14 177.917 426.226 176.938 425.657L167.464 420.151C166.494 419.588 164.907 419.582 163.922 420.151L152.796 426.575Z" fill="#DBDEE4"/>
<path d="M174.78 392.541C173.803 393.105 173.798 394.029 174.768 394.593L184.242 400.099C185.221 400.668 186.808 400.663 187.784 400.099L198.91 393.675C199.895 393.106 199.9 392.192 198.921 391.624L189.447 386.118C188.477 385.554 186.89 385.549 185.906 386.118L174.78 392.541Z" fill="#DBDEE4"/>
<path d="M171.219 437.281C170.243 437.844 170.238 438.769 171.207 439.332L180.682 444.838C181.652 445.402 183.247 445.402 184.223 444.838L195.349 438.415C196.334 437.846 196.331 436.927 195.361 436.363L185.887 430.857C184.917 430.294 183.33 430.289 182.345 430.857L171.219 437.281Z" fill="#DBDEE4"/>
<path d="M191.421 425.617C190.445 426.18 190.44 427.105 191.41 427.668L200.884 433.174C201.854 433.738 203.449 433.738 204.425 433.174L215.551 426.751C216.536 426.182 216.533 425.263 215.563 424.699L206.089 419.193C205.119 418.63 203.532 418.624 202.547 419.193L191.421 425.617Z" fill="#DBDEE4"/>
<path d="M211.623 413.953C210.647 414.517 210.642 415.441 211.612 416.005L221.086 421.511C222.056 422.074 223.651 422.074 224.628 421.511L276.158 391.759C277.143 391.191 277.14 390.272 276.17 389.708L266.696 384.202C265.726 383.638 264.139 383.633 263.154 384.202L211.623 413.953Z" fill="#DBDEE4"/>
<path d="M213.405 391.583C212.428 392.147 212.423 393.071 213.393 393.635L222.867 399.141C223.846 399.71 225.433 399.705 226.409 399.141L237.535 392.717C238.52 392.148 238.525 391.234 237.546 390.666L228.072 385.16C227.102 384.596 225.515 384.591 224.531 385.16L213.405 391.583Z" fill="#DBDEE4"/>
<path d="M193.201 403.247C192.225 403.811 192.22 404.735 193.19 405.298L202.664 410.804C203.643 411.373 205.23 411.368 206.206 410.804L217.332 404.381C218.317 403.812 218.322 402.898 217.343 402.329L207.869 396.823C206.899 396.259 205.312 396.254 204.327 396.823L193.201 403.247Z" fill="#DBDEE4"/>
<path d="M233.615 379.914C232.63 380.483 232.633 381.402 233.603 381.965L243.078 387.471C244.056 388.04 245.634 388.04 246.619 387.471L257.736 381.053C258.721 380.484 258.726 379.57 257.748 379.001L248.274 373.495C247.304 372.932 245.717 372.927 244.732 373.495L233.615 379.914Z" fill="#DBDEE4"/>
<path d="M215.193 369.208C214.208 369.777 214.211 370.696 215.181 371.26L224.656 376.766C225.634 377.335 227.212 377.335 228.197 376.766L239.314 370.348C240.299 369.779 240.305 368.865 239.326 368.296L229.852 362.79C228.882 362.226 227.295 362.221 226.31 362.79L215.193 369.208Z" fill="#DBDEE4"/>
<path d="M194.982 380.877C194.006 381.441 194 382.365 194.97 382.929L204.444 388.435C205.423 389.004 207.01 388.998 207.986 388.435L219.112 382.011C220.097 381.442 220.102 380.528 219.123 379.959L209.649 374.453C208.679 373.89 207.093 373.885 206.108 374.453L194.982 380.877Z" fill="#DBDEE4"/>
<path d="M312.645 355.628C311.66 356.197 311.664 357.116 312.634 357.68L322.108 363.186C323.078 363.749 324.664 363.755 325.65 363.186L336.767 356.767C337.752 356.198 337.748 355.279 336.778 354.716L327.304 349.21C326.334 348.646 324.747 348.641 323.762 349.21L312.645 355.628Z" fill="#DBDEE4"/>
<path d="M292.443 367.292C291.458 367.861 291.462 368.78 292.431 369.344L301.906 374.85C302.876 375.413 304.462 375.418 305.447 374.85L316.564 368.431C317.549 367.863 317.546 366.944 316.576 366.38L307.102 360.874C306.132 360.31 304.545 360.305 303.56 360.874L292.443 367.292Z" fill="#DBDEE4"/>
<path d="M115.178 255.868C110.906 258.335 107.446 264.327 107.46 269.236L107.797 406.122C107.811 411.031 111.293 413.015 115.565 410.549L277.769 316.9C282.053 314.427 285.501 308.442 285.487 303.533L285.15 166.646C285.136 161.738 281.665 159.747 277.382 162.22L115.178 255.868Z" fill="#383C43"/>
<path d="M112.093 412.059C111.277 412.059 110.521 411.866 109.849 411.48C108.245 410.557 107.357 408.656 107.35 406.124L107.015 269.238C107.001 264.187 110.562 258.018 114.956 255.482L277.159 161.834C279.378 160.553 281.488 160.36 283.099 161.284C284.7 162.207 285.587 164.11 285.594 166.645L285.932 303.531C285.946 308.58 282.384 314.75 277.991 317.287L115.787 410.935C114.494 411.681 113.236 412.059 112.093 412.059ZM280.856 161.599C279.87 161.599 278.761 161.939 277.604 162.607L115.401 256.255C111.255 258.647 107.892 264.469 107.906 269.235L108.241 406.121C108.248 408.322 108.976 409.95 110.293 410.707C111.617 411.473 113.412 411.276 115.342 410.162L277.545 316.514C281.692 314.122 285.055 308.298 285.041 303.534L284.703 166.648C284.696 164.444 283.969 162.814 282.653 162.057C282.123 161.751 281.516 161.599 280.856 161.599Z" fill="#383C43"/>
<path d="M138.889 390.729L261.345 319.565C264.436 321.35 266.934 325.68 266.924 329.235L144.468 400.398C144.478 396.843 141.98 392.514 138.889 390.729Z" fill="white"/>
<path d="M144.469 400.843C144.392 400.843 144.316 400.824 144.246 400.784C144.109 400.704 144.023 400.556 144.023 400.396C144.034 396.989 141.631 392.826 138.666 391.115C138.529 391.035 138.443 390.889 138.443 390.729C138.443 390.571 138.527 390.424 138.664 390.344L261.121 319.181C261.26 319.101 261.429 319.099 261.568 319.179C264.778 321.032 267.379 325.544 267.369 329.236C267.369 329.394 267.283 329.541 267.148 329.619L144.693 400.782C144.624 400.822 144.545 400.843 144.469 400.843ZM139.743 390.748C142.447 392.646 144.594 396.365 144.881 399.643L266.475 328.981C266.372 325.708 264.131 321.823 261.342 320.083L139.743 390.748Z" fill="#383C43"/>
<path d="M138.888 390.729C141.98 392.514 144.478 396.843 144.468 400.398L138.87 397.167L138.888 390.729Z" fill="white"/>
<path d="M144.469 400.843C144.392 400.843 144.316 400.824 144.246 400.784L138.649 397.553C138.511 397.473 138.426 397.325 138.426 397.165L138.443 390.727C138.443 390.569 138.528 390.422 138.666 390.342C138.805 390.262 138.972 390.262 139.112 390.342C142.322 392.197 144.925 396.707 144.914 400.399C144.914 400.557 144.829 400.703 144.691 400.784C144.622 400.824 144.545 400.843 144.469 400.843ZM139.317 396.909L143.985 399.604C143.689 396.634 141.763 393.297 139.332 391.546L139.317 396.909Z" fill="#383C43"/>
<path d="M112.095 401.135C111.352 401.135 111.29 399.6 111.289 399.13L110.951 269.226C110.941 265.564 113.732 260.735 116.923 258.892L279.127 165.243C280.058 164.707 280.648 164.648 280.857 164.648C281.614 164.648 281.657 166.321 281.659 166.656L281.994 296.561C282.005 300.224 279.214 305.052 276.023 306.894L113.818 400.543C112.893 401.077 112.305 401.135 112.095 401.135Z" fill="white"/>
<path d="M112.095 401.581C111.293 401.581 110.848 400.711 110.843 399.131L110.505 269.228C110.496 265.428 113.391 260.418 116.701 258.506L278.904 164.858C279.891 164.289 280.552 164.204 280.858 164.204C281.641 164.204 282.095 165.096 282.104 166.653L282.44 296.558C282.45 300.36 279.557 305.37 276.245 307.28L114.041 400.928C113.056 401.496 112.4 401.581 112.095 401.581ZM280.859 165.094C280.723 165.094 280.209 165.133 279.35 165.63L117.147 259.279C114.076 261.052 111.387 265.699 111.396 269.224L111.734 399.128C111.737 400.155 111.972 400.69 112.096 400.69C112.231 400.69 112.738 400.652 113.595 400.156L275.801 306.508C278.874 304.737 281.56 300.087 281.549 296.562L281.214 166.657C281.208 165.627 280.963 165.094 280.859 165.094Z" fill="#383C43"/>
<path d="M282 296.566C282 300.223 279.215 305.059 276.029 306.888L113.819 400.545C112.891 401.071 112.309 401.141 112.1 401.141C111.353 401.141 111.283 399.603 111.283 399.132L110.992 282.272L110.951 269.221C110.937 265.563 113.736 260.728 116.923 258.885L279.133 165.242C280.061 164.701 280.643 164.646 280.851 164.646C281.613 164.646 281.654 166.322 281.654 166.655L281.71 183.71L282 296.566Z" fill="white"/>
<path d="M112.1 401.586C110.96 401.586 110.837 399.869 110.837 399.131L110.506 269.223C110.49 265.428 113.384 260.417 116.7 258.499L278.91 164.856C279.888 164.286 280.546 164.2 280.85 164.2C281.978 164.2 282.1 165.918 282.1 166.655L282.154 183.708L282.446 296.564C282.446 296.565 282.446 296.565 282.446 296.565C282.446 300.376 279.551 305.378 276.25 307.273L114.042 400.932C112.996 401.522 112.335 401.586 112.1 401.586ZM280.851 165.091C280.717 165.091 280.21 165.129 279.358 165.627L117.146 259.272C114.068 261.05 111.381 265.699 111.397 269.219L111.437 282.27L111.727 399.129C111.727 400.144 111.973 400.695 112.1 400.695C112.192 400.695 112.695 400.669 113.6 400.158L275.807 306.5C278.869 304.743 281.555 300.101 281.555 296.567L281.209 166.657C281.209 165.7 280.974 165.091 280.851 165.091Z" fill="#383C43"/>
<path d="M110.054 411.521C109.977 411.521 109.901 411.502 109.831 411.46L97.8083 404.489C96.2231 403.553 95.3516 401.653 95.3516 399.137L95 262.249C95 259.957 95.7465 257.325 97.1019 254.835C98.6279 252.077 100.662 249.85 102.832 248.561L103.162 248.881L102.939 248.495L265.143 154.843C267.356 153.568 269.468 153.374 271.092 154.305L283.078 161.279C283.092 161.288 283.105 161.295 283.118 161.301C283.329 161.427 283.4 161.698 283.276 161.91C283.15 162.123 282.88 162.196 282.668 162.07L282.634 162.051C281.307 161.289 279.52 161.488 277.592 162.608L115.42 256.255C115.396 256.271 115.371 256.286 115.352 256.295C113.242 257.53 111.31 259.635 109.906 262.233C108.601 264.631 107.893 267.119 107.912 269.238V270.421L108.243 406.129C108.243 408.308 108.965 409.928 110.279 410.691C110.491 410.815 110.562 411.086 110.439 411.3C110.357 411.441 110.207 411.521 110.054 411.521ZM268.832 154.617C267.843 154.617 266.738 154.953 265.588 155.616L103.385 249.268C103.333 249.3 103.301 249.321 103.258 249.342C101.252 250.538 99.3327 252.645 97.8833 255.263C96.5994 257.623 95.8911 260.104 95.8911 262.249V263.78L96.2427 399.135C96.2427 401.323 96.9579 402.952 98.2576 403.721L107.979 409.357C107.568 408.461 107.352 407.37 107.352 406.131L107.021 269.242C107 266.976 107.747 264.335 109.123 261.809C110.601 259.075 112.647 256.848 114.888 255.538C114.912 255.523 114.936 255.507 114.955 255.498L277.145 161.837C278.26 161.19 279.348 160.818 280.359 160.727L270.646 155.076C270.109 154.77 269.496 154.617 268.832 154.617Z" fill="#383C43"/>
<path d="M107.484 289.213C107.408 289.213 107.331 289.193 107.26 289.152L95.2334 282.135C95.021 282.011 94.9498 281.738 95.0732 281.526C95.1951 281.312 95.4663 281.239 95.6821 281.366L107.709 288.383C107.921 288.506 107.992 288.78 107.869 288.992C107.787 289.134 107.637 289.213 107.484 289.213Z" fill="#383C43"/>
<path d="M107.765 397.001C107.688 397.001 107.611 396.982 107.542 396.941L95.5309 389.974C95.317 389.852 95.2455 389.579 95.3692 389.367C95.491 389.153 95.766 389.08 95.9765 389.205L107.987 396.172C108.201 396.293 108.273 396.567 108.149 396.779C108.067 396.921 107.918 397.001 107.765 397.001Z" fill="#383C43"/>
<path d="M246.864 420.421C244.019 422.063 244.004 424.723 246.83 426.365L272.188 441.101C275.014 442.743 279.606 442.744 282.45 441.101L329.957 413.673C332.817 412.022 332.832 409.362 330.006 407.72L304.648 392.984C301.822 391.341 297.23 391.341 294.37 392.993L246.864 420.421Z" fill="#DBDEE4"/>
<path d="M399.152 396.294C399.169 397.917 398.104 399.54 395.94 400.78L233.732 494.435C233.051 494.836 232.301 495.151 231.515 495.413C229.717 496.023 227.674 496.303 225.632 496.268H225.614C223.66 496.233 221.739 495.901 220.063 495.273C219.435 495.028 218.842 494.749 218.3 494.435L115.585 434.751C113.472 433.511 112.408 431.905 112.408 430.282L112.338 415.06C112.355 416.648 113.42 418.254 115.515 419.494L218.23 479.178C218.789 479.51 219.4 479.789 220.063 480.034C221.739 480.662 223.677 480.994 225.614 481.029V481.011C227.657 481.046 229.717 480.767 231.515 480.138C232.283 479.876 233.016 479.562 233.679 479.178L395.887 385.523C398.016 384.301 399.099 382.642 399.099 381.037L399.152 396.294Z" fill="#BEC4CD"/>
<path d="M121.399 438.565C121.153 438.565 120.953 438.365 120.953 438.119V422.914C120.953 422.669 121.153 422.469 121.399 422.469C121.644 422.469 121.844 422.669 121.844 422.914V438.119C121.844 438.365 121.644 438.565 121.399 438.565Z" fill="#383C43"/>
<path d="M240.33 491.074C240.085 491.074 239.885 490.874 239.885 490.629V475.337C239.885 475.092 240.085 474.892 240.33 474.892C240.575 474.892 240.776 475.092 240.776 475.337V490.629C240.776 490.874 240.576 491.074 240.33 491.074Z" fill="#383C43"/>
<path d="M387.333 406.2C387.088 406.2 386.888 406 386.888 405.755V390.463C386.888 390.218 387.088 390.018 387.333 390.018C387.578 390.018 387.779 390.218 387.779 390.463V405.755C387.779 406 387.578 406.2 387.333 406.2Z" fill="#383C43"/>
<path d="M231.515 480.138V495.413C229.717 496.024 227.674 496.303 225.632 496.268H225.615C223.66 496.233 221.739 495.901 220.063 495.273V480.033C221.739 480.662 223.677 480.993 225.615 481.028V481.011C227.657 481.046 229.717 480.767 231.515 480.138Z" fill="#F1F2F5"/>
<path d="M225.994 496.717C225.872 496.717 225.749 496.715 225.623 496.713C222.735 496.658 220.061 495.984 218.076 494.82L115.36 435.136C113.168 433.85 111.962 432.127 111.962 430.281L111.893 415.062C111.891 414.817 112.089 414.617 112.335 414.615C112.336 414.615 112.336 414.615 112.338 414.615C112.582 414.615 112.78 414.811 112.783 415.055C112.799 416.553 113.85 417.992 115.74 419.111L218.455 478.794C220.323 479.88 222.824 480.512 225.507 480.581C225.543 480.571 225.54 480.571 225.621 480.565C228.598 480.618 231.386 479.989 233.456 478.793L395.663 385.137C397.563 384.046 398.652 382.552 398.652 381.036C398.652 380.791 398.851 380.591 399.098 380.591C399.343 380.591 399.543 380.789 399.543 381.035L399.596 396.292C399.616 398.154 398.397 399.885 396.159 401.167L233.954 494.823C231.849 496.049 229.034 496.717 225.994 496.717ZM112.796 417.689L112.853 430.279C112.853 431.797 113.904 433.248 115.811 434.367L218.525 494.051C220.383 495.141 222.903 495.77 225.622 495.823C228.688 495.845 231.453 495.245 233.507 494.051L395.716 400.394C397.661 399.279 398.723 397.824 398.705 396.298C398.705 396.297 398.705 396.297 398.705 396.295L398.662 383.668C398.075 384.51 397.211 385.276 396.108 385.909L233.902 479.564C231.722 480.824 228.79 481.52 225.721 481.458C225.685 481.468 225.657 481.456 225.605 481.473C222.729 481.417 220.032 480.739 218.006 479.563L115.289 419.878C114.21 419.241 113.37 418.498 112.796 417.689Z" fill="#383C43"/>
<path d="M132.829 433.252C133.192 433.461 133.489 433.975 133.488 434.398L133.477 438.925C133.476 439.349 133.178 439.512 132.815 439.303L132.291 439L132.289 440.247C132.287 440.671 131.989 440.841 131.626 440.632L128.503 438.829C128.14 438.619 127.844 438.106 127.845 437.682L127.848 436.435L127.324 436.133C126.961 435.923 126.665 435.417 126.666 434.993L126.676 430.466C126.678 430.042 126.976 429.872 127.339 430.081L132.829 433.252Z" fill="#383C43"/>
<path d="M267.459 168.397C267.382 168.397 267.306 168.378 267.234 168.336L255.206 161.352C254.994 161.229 254.922 160.957 255.046 160.743C255.168 160.531 255.439 160.458 255.655 160.583L267.683 167.567C267.895 167.691 267.967 167.962 267.843 168.176C267.762 168.317 267.612 168.397 267.459 168.397Z" fill="#383C43"/>
<path d="M236.248 234.529L230.959 231.453C230.463 231.165 229.798 231.157 229.051 231.464C224.782 233.206 220.964 233.095 218.066 231.411L223.356 234.487C226.254 236.171 230.072 236.282 234.341 234.54C235.088 234.233 235.753 234.241 236.248 234.529Z" fill="#383C43"/>
<path d="M228.469 236.235C226.506 236.235 224.697 235.781 223.133 234.871L217.843 231.797C217.843 231.797 217.843 231.797 217.842 231.795C217.629 231.672 217.558 231.4 217.682 231.186C217.803 230.974 218.075 230.899 218.291 231.026C221.167 232.698 224.831 232.707 228.883 231.052C229.741 230.7 230.557 230.706 231.182 231.066L236.473 234.144C236.685 234.267 236.756 234.539 236.633 234.753C236.51 234.963 236.236 235.038 236.024 234.913C235.643 234.69 235.107 234.706 234.512 234.953C232.415 235.807 230.371 236.235 228.469 236.235ZM221.831 233.084L223.582 234.102C226.454 235.772 230.122 235.783 234.172 234.128C234.277 234.084 234.379 234.048 234.48 234.015L230.734 231.837C230.358 231.621 229.819 231.63 229.222 231.876C226.621 232.936 224.102 233.343 221.831 233.084Z" fill="#383C43"/>
<path d="M217.003 223.542C216.44 223.21 215.666 223.254 214.815 223.752L183.26 241.971C182.552 242.379 181.923 243.02 181.403 243.783C180.751 244.733 180.287 245.86 180.166 246.943C179.613 251.749 177.912 256.776 175.382 261.472C172.443 266.897 168.421 271.824 163.847 275.238C162.963 275.89 162.211 276.841 161.714 277.879C161.305 278.719 161.062 279.613 161.062 280.431L161.095 292.695C161.128 306.805 164.509 318.439 170.553 326.714C172.884 329.874 176.078 332.548 179.724 334.68L174.44 331.587C170.772 329.466 167.579 326.804 165.27 323.621C159.226 315.357 155.845 303.723 155.801 289.625L155.768 277.35C155.768 276.532 156.011 275.648 156.419 274.808C156.928 273.781 157.679 272.82 158.552 272.168C163.137 268.754 167.159 263.837 170.098 258.379C172.628 253.716 174.319 248.667 174.871 243.861C174.993 242.789 175.457 241.651 176.109 240.701C176.628 239.939 177.258 239.298 177.954 238.889L209.509 220.681C210.371 220.195 211.145 220.139 211.697 220.46L217.003 223.542Z" fill="#383C43"/>
<path d="M179.724 335.126C179.648 335.126 179.57 335.107 179.5 335.065L174.216 331.972C170.287 329.7 167.155 326.978 164.911 323.883C158.705 315.397 155.4 303.552 155.355 289.627L155.322 277.352C155.322 276.498 155.564 275.551 156.02 274.613C156.582 273.475 157.388 272.482 158.287 271.812C162.672 268.546 166.728 263.7 169.708 258.169C172.257 253.47 173.889 248.506 174.431 243.811C174.557 242.691 175.024 241.497 175.742 240.45C176.32 239.601 177.009 238.927 177.731 238.505L209.288 220.294C210.276 219.739 211.213 219.665 211.921 220.073L217.208 223.146C217.215 223.151 217.222 223.155 217.229 223.158C217.442 223.284 217.511 223.557 217.387 223.767C217.261 223.98 216.991 224.051 216.779 223.927L216.765 223.92C216.321 223.661 215.71 223.745 215.041 224.136L183.483 242.358C182.868 242.71 182.278 243.289 181.772 244.034C181.13 244.968 180.716 246.019 180.608 246.992C180.062 251.751 178.39 256.83 175.773 261.682C172.719 267.321 168.578 272.262 164.112 275.595C163.303 276.191 162.595 277.07 162.116 278.072C161.718 278.892 161.507 279.706 161.507 280.431L161.541 292.695C161.572 306.428 164.813 318.101 170.914 326.453C173.109 329.43 176.139 332.062 179.916 334.277L179.949 334.296C180.161 334.422 180.232 334.693 180.109 334.905C180.025 335.048 179.877 335.126 179.724 335.126ZM210.906 220.703C210.561 220.703 210.159 220.826 209.729 221.069L178.177 239.275C177.57 239.63 176.982 240.211 176.477 240.952C175.848 241.869 175.423 242.948 175.313 243.912C174.76 248.72 173.093 253.795 170.49 258.592C167.451 264.234 163.304 269.183 158.819 272.525C158.029 273.113 157.319 273.994 156.818 275.006C156.423 275.821 156.213 276.631 156.213 277.35L156.246 289.624C156.289 303.359 159.534 315.025 165.631 323.359C167.475 325.901 169.944 328.187 172.987 330.173C171.949 329.158 171.016 328.093 170.195 326.98C163.983 318.473 160.682 306.619 160.649 292.698L160.617 280.433C160.617 279.572 160.858 278.622 161.314 277.684C161.854 276.556 162.659 275.559 163.581 274.879C167.943 271.624 171.996 266.787 174.99 261.259C177.551 256.505 179.189 251.536 179.724 246.892C179.848 245.777 180.314 244.583 181.036 243.531C181.617 242.678 182.31 242.005 183.037 241.585L214.593 223.365C214.819 223.233 215.045 223.127 215.266 223.048L211.473 220.844C211.309 220.75 211.118 220.703 210.906 220.703Z" fill="#383C43"/>
<path d="M183.254 241.972C181.671 242.886 180.385 245.001 180.162 246.939C179.611 251.749 177.91 256.787 175.382 261.467C172.443 266.907 168.417 271.827 163.844 275.241C162.262 276.416 161.051 278.587 161.057 280.431L161.091 292.703C161.131 306.806 164.52 318.439 170.56 326.707C176.262 334.496 187.212 339.281 197.456 340.33C198.032 340.391 198.683 340.211 199.333 339.835C199.984 339.46 200.634 338.888 201.207 338.164C211.412 325.309 222.299 307.917 227.938 293.58C233.922 278.37 237.223 262.875 237.183 248.772L237.148 236.5C237.143 234.656 235.925 233.887 234.341 234.54C229.774 236.403 225.722 236.146 222.763 234.111C220.227 232.355 218.492 229.302 217.915 225.142C217.683 223.467 216.399 222.835 214.806 223.756L183.254 241.972Z" fill="white"/>
<path d="M197.681 340.788C197.589 340.788 197.498 340.783 197.409 340.774C186.004 339.605 175.578 334.317 170.2 326.971C163.99 318.47 160.686 306.621 160.646 292.705L160.611 280.433C160.606 278.498 161.854 276.165 163.578 274.885C167.954 271.617 172.008 266.776 174.99 261.254C177.55 256.516 179.187 251.549 179.721 246.889C179.963 244.784 181.355 242.553 183.032 241.586L214.582 223.371C215.496 222.843 216.388 222.746 217.098 223.092C217.779 223.423 218.224 224.131 218.358 225.083C218.903 229.015 220.514 232.011 223.018 233.748C225.922 235.74 229.883 235.879 234.173 234.129C235.086 233.755 235.938 233.782 236.575 234.209C237.23 234.645 237.592 235.46 237.595 236.5L237.63 248.77C237.67 262.665 234.461 278.217 228.353 293.744C223.091 307.122 212.824 324.25 201.556 338.441C200.961 339.195 200.268 339.811 199.557 340.223C198.911 340.595 198.269 340.788 197.681 340.788ZM216.186 223.779C215.84 223.779 215.445 223.901 215.028 224.143L183.478 242.358C182.049 243.181 180.814 245.173 180.605 246.99C180.059 251.761 178.389 256.84 175.773 261.678C172.73 267.311 168.589 272.255 164.11 275.598C162.595 276.725 161.497 278.756 161.502 280.43L161.537 292.701C161.576 306.429 164.821 318.098 170.921 326.446C176.074 333.485 186.509 338.761 197.502 339.887C197.984 339.944 198.532 339.786 199.111 339.45C199.727 339.095 200.331 338.554 200.858 337.887C212.074 323.759 222.293 306.72 227.524 293.417C233.592 277.995 236.777 262.557 236.739 248.773L236.704 236.503C236.703 235.767 236.481 235.216 236.081 234.95C235.697 234.688 235.14 234.692 234.512 234.953C229.929 236.82 225.67 236.648 222.512 234.48C219.796 232.597 218.056 229.39 217.474 225.204C217.386 224.555 217.112 224.089 216.707 223.892C216.552 223.816 216.376 223.779 216.186 223.779Z" fill="#383C43"/>
<path d="M196.426 333.523C206.975 320.128 216.886 303.568 221.768 291.154C227.553 276.453 230.59 261.804 230.553 248.791L230.535 242.316C229.84 242.391 229.15 242.428 228.466 242.428C224.993 242.428 221.723 241.441 219.007 239.575C216.445 237.8 214.463 235.366 213.12 232.384L186.835 247.559C186.792 247.63 186.749 247.719 186.735 247.773C186.112 253.241 184.198 259.093 181.214 264.618C177.704 271.116 173.068 276.627 167.809 280.553C167.785 280.579 167.729 280.66 167.687 280.737L167.72 292.684C167.756 305.095 170.588 315.508 175.913 322.797C179.822 328.137 187.749 332.249 196.426 333.523Z" fill="#DA0000"/>
<path d="M199.836 260.236C210.212 254.243 218.656 259.033 218.69 270.985C218.724 282.912 210.334 297.45 199.959 303.443C189.584 309.436 181.138 304.622 181.105 292.695C181.071 280.742 189.461 266.228 199.836 260.236Z" fill="white"/>
<path d="M189.158 290.791L196.185 295.482L211.202 273.081" fill="white"/>
<path d="M196.184 296.372C196.014 296.372 195.842 296.324 195.69 296.223L188.664 291.532C188.255 291.259 188.144 290.705 188.417 290.297C188.692 289.886 189.247 289.78 189.653 290.049L195.939 294.246L210.464 272.586C210.741 272.177 211.296 272.069 211.699 272.342C212.108 272.615 212.218 273.169 211.943 273.578L196.924 295.977C196.751 296.233 196.471 296.372 196.184 296.372Z" fill="#383C43"/>
<g opacity="0.1">
<path d="M391.702 287.071C390.895 287.537 390.877 288.292 391.692 288.766L536.389 372.831C537.203 373.305 538.509 373.297 539.316 372.831L550.945 366.119C551.752 365.653 551.769 364.898 550.954 364.424L406.258 280.359C405.443 279.885 404.138 279.893 403.331 280.359L391.702 287.071Z" fill="#383C43"/>
</g>
<path d="M393.918 102.253C395.646 101.24 398.039 101.39 400.68 102.901L531.229 178.266C532.442 178.963 533.588 179.894 534.652 180.99C537.327 183.731 539.42 187.501 540.268 191.172C540.55 192.352 540.7 193.531 540.7 194.661L540.401 358.132C540.401 361.139 539.321 363.232 537.626 364.228L548.243 358.082C549.938 357.086 551.001 354.976 551.018 351.969L551.317 188.481C551.317 187.369 551.184 186.206 550.902 185.026C550.054 181.355 547.977 177.601 545.285 174.844C544.239 173.747 543.059 172.801 541.846 172.103L411.297 96.7548C408.655 95.2266 406.263 95.0936 404.535 96.0738L393.918 102.253Z" fill="#DBDEE4"/>
<path d="M534.652 180.99C537.327 183.731 539.421 187.502 540.268 191.173L550.902 185.027C550.055 181.356 547.978 177.602 545.286 174.844L534.652 180.99Z" fill="#F1F2F5"/>
<path d="M537.627 364.674C537.473 364.674 537.324 364.595 537.242 364.453C537.119 364.24 537.19 363.969 537.4 363.844C539.048 362.876 539.955 360.848 539.955 358.133L540.254 194.662C540.254 193.579 540.113 192.442 539.834 191.276C539.013 187.716 536.956 183.989 534.333 181.303C533.259 180.196 532.142 179.305 531.006 178.653L400.457 103.288C398.039 101.901 395.796 101.673 394.141 102.639C393.925 102.764 393.658 102.691 393.532 102.478C393.409 102.266 393.48 101.995 393.692 101.87C393.703 101.864 393.713 101.857 393.724 101.85L404.309 95.6909C406.279 94.5738 408.835 94.8193 411.52 96.3694L542.069 171.717C543.297 172.425 544.522 173.4 545.608 174.536C548.378 177.376 550.467 181.163 551.335 184.927C551.619 186.107 551.762 187.303 551.762 188.481L551.462 351.971C551.447 355.035 550.384 357.34 548.47 358.468L537.849 364.615C537.78 364.654 537.703 364.674 537.627 364.674ZM396.676 101.162C397.988 101.216 399.422 101.669 400.901 102.514L531.451 177.879C532.657 178.574 533.842 179.517 534.971 180.681C537.703 183.479 539.845 187.364 540.701 191.072C540.995 192.302 541.145 193.509 541.145 194.661L540.845 358.133C540.845 359.793 540.529 361.232 539.928 362.38L548.021 357.696C549.651 356.738 550.558 354.703 550.571 351.968L550.871 188.481C550.871 187.373 550.735 186.245 550.469 185.131C549.648 181.571 547.591 177.843 544.967 175.154C543.935 174.074 542.78 173.153 541.623 172.489L411.074 97.1411C408.677 95.7528 406.43 95.5107 404.753 96.4626L396.676 101.162Z" fill="#383C43"/>
<path d="M540.651 213.974C540.498 213.974 540.348 213.894 540.264 213.752C540.143 213.539 540.214 213.266 540.428 213.143L551.045 206.997C551.254 206.877 551.527 206.945 551.654 207.161C551.776 207.373 551.704 207.646 551.49 207.77L540.873 213.915C540.804 213.955 540.727 213.974 540.651 213.974Z" fill="#383C43"/>
<path d="M540.418 350.709C540.265 350.709 540.115 350.629 540.033 350.488C539.91 350.274 539.981 350.003 540.193 349.879L550.81 343.716C551.024 343.589 551.296 343.664 551.419 343.877C551.543 344.09 551.472 344.362 551.259 344.485L540.642 350.648C540.571 350.69 540.494 350.709 540.418 350.709Z" fill="#383C43"/>
<path d="M407.708 107.398C407.555 107.398 407.405 107.318 407.323 107.176C407.2 106.963 407.271 106.69 407.485 106.568L418.086 100.421C418.295 100.294 418.57 100.367 418.694 100.583C418.817 100.795 418.746 101.068 418.532 101.19L407.93 107.337C407.861 107.379 407.784 107.398 407.708 107.398Z" fill="#383C43"/>
<path d="M391.142 108.335C391.159 102.313 395.438 99.889 400.681 102.915L531.225 178.264C536.48 181.297 540.719 188.638 540.702 194.66L540.649 213.5L391.089 127.175L391.142 108.335Z" fill="#BEC4CD"/>
<path d="M540.649 213.945C540.573 213.945 540.496 213.926 540.427 213.886L390.865 127.561C390.728 127.481 390.643 127.333 390.643 127.173L390.697 108.333C390.705 105.271 391.774 102.97 393.707 101.858C395.659 100.74 398.211 100.976 400.903 102.528L531.448 177.878C536.814 180.975 541.164 188.504 541.147 194.661L541.095 213.501C541.095 213.66 541.009 213.806 540.872 213.886C540.802 213.926 540.726 213.945 540.649 213.945ZM391.533 126.917L540.205 212.729L540.256 194.658C540.273 188.785 536.122 181.605 531.003 178.65L400.458 103.301C398.051 101.913 395.814 101.672 394.15 102.631C392.506 103.578 391.596 105.604 391.587 108.336L391.533 126.917Z" fill="#383C43"/>
<path d="M540.649 213.5L540.395 358.14C540.378 364.176 536.111 366.607 530.856 363.574L400.312 288.225C395.069 285.199 390.818 277.851 390.835 271.815L391.089 127.176L540.649 213.5Z" fill="white"/>
<path d="M535.127 365.33C533.74 365.33 532.211 364.87 530.634 363.96L400.089 288.611C394.723 285.514 390.373 277.978 390.391 271.813L390.643 127.174C390.643 127.014 390.728 126.868 390.866 126.788C391.005 126.708 391.172 126.708 391.311 126.788L540.872 213.113C541.009 213.193 541.095 213.341 541.095 213.499L540.841 358.14C540.832 361.216 539.762 363.522 537.829 364.633C537.023 365.098 536.11 365.33 535.127 365.33ZM391.532 127.945L391.282 271.815C391.264 277.696 395.416 284.884 400.534 287.838L531.08 363.188C533.484 364.576 535.725 364.818 537.385 363.861C539.031 362.915 539.941 360.882 539.95 358.139L540.204 213.757L391.532 127.945Z" fill="#383C43"/>
<path d="M434.261 135.262C432.219 134.084 430.577 135.019 430.57 137.364C430.564 139.69 432.195 142.535 434.237 143.713C436.278 144.892 437.92 143.936 437.927 141.611C437.934 139.265 436.302 136.441 434.261 135.262Z" fill="white"/>
<path d="M418.902 126.397C416.878 125.229 415.218 126.154 415.212 128.499C415.205 130.825 416.854 133.68 418.878 134.848C420.92 136.027 422.562 135.071 422.569 132.745C422.575 130.4 420.944 127.575 418.902 126.397Z" fill="white"/>
<path d="M403.541 117.521C401.512 116.35 399.866 117.288 399.859 119.639C399.853 121.97 401.488 124.822 403.517 125.993C405.564 127.175 407.21 126.216 407.216 123.885C407.223 121.534 405.588 118.702 403.541 117.521Z" fill="white"/>
<path d="M459.944 217.707C458.785 217.038 457.653 216.51 456.561 216.116C456.149 215.967 455.743 215.839 455.343 215.728C448.44 213.825 443.381 217.556 443.358 225.434L476.432 244.529C476.454 236.598 471.36 226.971 464.402 220.918C464.046 220.608 463.686 220.309 463.322 220.019C462.232 219.153 461.102 218.376 459.944 217.707Z" fill="#383C43"/>
<path d="M476.431 244.975C476.355 244.975 476.278 244.956 476.209 244.916L443.136 225.822C442.999 225.742 442.913 225.594 442.913 225.434C442.924 221.401 444.201 218.304 446.605 216.477C448.86 214.765 452.006 214.347 455.462 215.299C455.872 215.414 456.288 215.546 456.711 215.697C457.846 216.106 459.008 216.652 460.167 217.322C461.331 217.994 462.484 218.784 463.598 219.671C463.968 219.965 464.334 220.269 464.694 220.583C471.89 226.843 476.899 236.691 476.877 244.531C476.877 244.689 476.792 244.836 476.654 244.916C476.585 244.956 476.508 244.975 476.431 244.975ZM443.806 225.18L475.972 243.75C475.674 236.284 470.886 227.151 464.109 221.254C463.759 220.948 463.404 220.654 463.044 220.367C461.964 219.509 460.847 218.744 459.721 218.095C458.607 217.451 457.492 216.925 456.41 216.536C456.009 216.391 455.615 216.266 455.223 216.158C451.995 215.264 449.201 215.622 447.145 217.186C445.019 218.801 443.868 221.561 443.806 225.18Z" fill="#383C43"/>
<path d="M508.639 306.996L500.582 290.381L493.322 282.993" fill="white"/>
<path d="M508.639 307.442C508.474 307.442 508.315 307.35 508.239 307.191L500.212 290.639L493.004 283.304C492.832 283.13 492.835 282.846 493.011 282.674C493.181 282.502 493.463 282.505 493.641 282.681L500.9 290.069C500.933 290.102 500.961 290.142 500.981 290.185L509.039 306.802C509.147 307.024 509.055 307.291 508.834 307.397C508.771 307.428 508.705 307.442 508.639 307.442Z" fill="#383C43"/>
<path d="M489.127 266.035L495.649 262.318L498.208 250.58" fill="white"/>
<path d="M489.128 266.48C488.973 266.48 488.823 266.4 488.741 266.256C488.62 266.042 488.693 265.77 488.907 265.649L495.256 262.03L497.773 250.483C497.826 250.245 498.059 250.092 498.304 250.144C498.544 250.196 498.696 250.433 498.643 250.675L496.084 262.414C496.058 262.536 495.979 262.642 495.87 262.705L489.349 266.421C489.279 266.461 489.202 266.48 489.128 266.48Z" fill="#383C43"/>
<path d="M496.868 325.63L496.92 307.435L492.488 299.759" fill="white"/>
<path d="M496.868 326.075C496.868 326.075 496.868 326.075 496.866 326.075C496.621 326.075 496.422 325.875 496.422 325.628L496.473 307.554L492.102 299.983C491.98 299.771 492.053 299.498 492.266 299.374C492.474 299.252 492.747 299.322 492.874 299.538L497.304 307.213C497.343 307.28 497.364 307.359 497.364 307.437L497.313 325.632C497.313 325.877 497.113 326.075 496.868 326.075Z" fill="#383C43"/>
<path d="M427.038 261.978L422.583 264.517L422.531 282.712" fill="white"/>
<path d="M422.531 283.158C422.531 283.158 422.531 283.158 422.529 283.158C422.283 283.158 422.085 282.958 422.085 282.71L422.137 264.516C422.137 264.358 422.224 264.21 422.362 264.132L426.816 261.591C427.028 261.468 427.301 261.543 427.423 261.757C427.545 261.97 427.472 262.242 427.258 262.364L423.028 264.777L422.976 282.714C422.976 282.959 422.776 283.158 422.531 283.158Z" fill="#383C43"/>
<path d="M426.295 244.297L419.016 243.289L410.902 250.568" fill="white"/>
<path d="M410.902 251.012C410.781 251.012 410.659 250.962 410.57 250.865C410.407 250.682 410.422 250.4 410.605 250.235L418.72 242.957C418.818 242.87 418.948 242.837 419.079 242.847L426.357 243.854C426.6 243.889 426.771 244.114 426.738 244.357C426.705 244.601 426.498 244.764 426.235 244.738L419.162 243.759L411.2 250.9C411.115 250.974 411.009 251.012 410.902 251.012Z" fill="#383C43"/>
<path d="M459.819 261.621L444.458 287.611C448.793 294.394 454.04 299.925 459.701 303.194C465.359 306.46 470.619 306.997 474.977 305.238L459.819 261.621Z" fill="#383C43"/>
<path d="M469.792 306.673C466.528 306.673 463.039 305.636 459.48 303.58C453.938 300.382 448.616 294.943 444.083 287.853C443.992 287.712 443.989 287.531 444.076 287.386L459.436 261.395C459.523 261.246 459.695 261.155 459.862 261.178C460.036 261.195 460.182 261.312 460.24 261.475L475.398 305.092C475.476 305.316 475.363 305.561 475.144 305.65C473.451 306.334 471.657 306.673 469.792 306.673ZM444.982 287.602C449.404 294.46 454.568 299.715 459.925 302.807C465.117 305.808 470.116 306.553 474.415 304.977L459.713 262.675L444.982 287.602Z" fill="#383C43"/>
<path d="M443.695 225.629C442.439 224.904 441.211 224.65 440.19 224.914C436.697 225.842 433.587 228.019 431.157 231.379C430.958 231.654 430.763 231.937 430.573 232.229C429.246 234.263 428.15 236.683 427.339 239.476C426.888 241.029 426.542 242.641 426.295 244.297C426.224 244.773 426.162 245.253 426.107 245.735C425.523 250.916 425.877 256.475 427.038 261.978C427.435 263.861 427.928 265.739 428.509 267.591C431.101 275.852 435.467 283.626 441.139 289.355C441.862 290.085 443.073 289.955 443.595 289.071L459.82 261.621L459.895 234.982L443.695 225.629Z" fill="#DA0000"/>
<path d="M442.263 290.274C441.723 290.274 441.21 290.06 440.822 289.669C435.298 284.089 430.774 276.296 428.084 267.727C427.499 265.863 427 263.96 426.601 262.07C425.413 256.443 425.089 250.778 425.665 245.685C425.719 245.198 425.782 244.712 425.855 244.231C426.106 242.539 426.46 240.898 426.911 239.352C427.717 236.573 428.822 234.094 430.199 231.985C430.393 231.687 430.591 231.398 430.796 231.117C433.238 227.743 436.446 225.448 440.074 224.484C441.22 224.19 442.548 224.453 443.917 225.243L460.118 234.597C460.255 234.677 460.34 234.824 460.34 234.985L460.264 261.623C460.264 261.701 460.243 261.78 460.201 261.847L443.978 289.298C443.661 289.832 443.127 290.182 442.513 290.259C442.429 290.269 442.344 290.274 442.263 290.274ZM441.012 225.258C440.761 225.258 440.523 225.288 440.3 225.345C436.876 226.257 433.838 228.434 431.517 231.64C431.322 231.91 431.13 232.189 430.944 232.472C429.617 234.508 428.547 236.906 427.767 239.601C427.327 241.109 426.981 242.71 426.735 244.363C426.666 244.834 426.603 245.309 426.549 245.784C425.986 250.785 426.306 256.351 427.471 261.886C427.866 263.747 428.357 265.623 428.933 267.459C431.581 275.896 436.028 283.56 441.455 289.042C441.706 289.296 442.042 289.413 442.403 289.375C442.743 289.333 443.037 289.14 443.213 288.844L459.373 261.499L459.45 235.24L443.472 226.015C442.61 225.517 441.761 225.258 441.012 225.258Z" fill="#383C43"/>
<path d="M459.895 234.982L459.819 261.621L474.977 305.237L476.211 308.789C476.598 309.903 477.586 310.726 478.757 310.857C484.214 311.468 488.438 308.758 490.992 303.657C491.58 302.481 492.081 301.177 492.487 299.759C493.674 295.612 494.056 290.475 493.501 284.636C493.45 284.093 493.391 283.547 493.323 282.992C493.086 281.058 492.75 279.053 492.309 276.986C491.517 273.267 490.439 269.592 489.128 266.034C488.94 265.525 488.747 265.018 488.55 264.514C486.147 258.364 483.06 252.609 479.583 247.657C478.577 246.223 477.352 245.06 476.095 244.335L459.895 234.982Z" fill="#DA0000"/>
<path d="M480.233 311.386C479.732 311.386 479.224 311.358 478.707 311.299C477.383 311.153 476.238 310.224 475.789 308.935L459.397 261.767C459.382 261.72 459.373 261.669 459.373 261.619L459.45 234.981C459.45 234.822 459.535 234.676 459.672 234.596C459.812 234.516 459.979 234.516 460.118 234.596L476.319 243.948C477.646 244.716 478.901 245.909 479.948 247.402C483.48 252.434 486.598 258.296 488.965 264.352C489.163 264.86 489.358 265.369 489.546 265.88C490.889 269.523 491.964 273.23 492.743 276.894C493.18 278.933 493.523 280.967 493.765 282.938C493.833 283.497 493.894 284.046 493.946 284.595C494.49 290.338 494.134 295.626 492.916 299.882C492.501 301.327 491.988 302.664 491.39 303.857C488.936 308.756 485.011 311.386 480.233 311.386ZM460.264 261.546L476.632 308.643C476.968 309.61 477.822 310.306 478.805 310.415C483.955 311 488.025 308.585 490.593 303.458C491.167 302.314 491.66 301.029 492.06 299.637C493.247 295.487 493.593 290.314 493.059 284.678C493.006 284.141 492.949 283.598 492.881 283.046C492.643 281.101 492.304 279.093 491.874 277.08C491.101 273.456 490.038 269.791 488.711 266.188C488.523 265.682 488.331 265.177 488.135 264.676C485.794 258.685 482.711 252.888 479.218 247.913C478.259 246.546 477.07 245.411 475.874 244.721L460.339 235.753L460.264 261.546Z" fill="#383C43"/>
<path d="M421.607 206.354L424.092 221.005L430.572 232.229" fill="white"/>
<path d="M430.572 232.674C430.419 232.674 430.269 232.593 430.186 232.451L423.706 221.228C423.68 221.183 423.663 221.133 423.654 221.08L421.17 206.428C421.128 206.185 421.291 205.955 421.533 205.915C421.787 205.865 422.006 206.037 422.047 206.279L424.519 220.852L430.959 232.005C431.08 232.218 431.007 232.491 430.795 232.614C430.725 232.655 430.649 232.674 430.572 232.674Z" fill="#383C43"/>
<path d="M456.561 216.116C456.55 213.756 456.267 211.241 455.719 208.655C455.123 205.863 454.2 202.94 452.682 200.22C451.27 197.688 449.29 195.361 447.244 194.18C447.092 194.092 446.939 194.01 446.786 193.935C444.253 192.689 441.972 193.547 441.183 195.868C440.783 197.027 440.74 198.538 441.151 200.153C441.573 201.773 442.479 203.492 443.654 204.729C444.118 205.218 444.624 205.623 445.13 205.914C445.896 206.356 446.66 206.541 447.275 206.375C448.297 206.088 448.835 204.794 448.483 203.191C448.164 201.7 447.035 200.039 445.864 199.363C445.78 199.315 445.696 199.271 445.611 199.233" fill="white"/>
<path d="M456.562 216.562C456.316 216.562 456.118 216.363 456.116 216.118C456.106 213.785 455.826 211.306 455.284 208.748C454.595 205.529 453.618 202.809 452.293 200.438C450.837 197.826 448.866 195.63 447.021 194.565C446.879 194.484 446.736 194.407 446.592 194.336C445.419 193.762 444.264 193.655 443.338 194.038C442.529 194.374 441.93 195.056 441.605 196.011C441.215 197.139 441.209 198.569 441.583 200.043C441.998 201.644 442.894 203.283 443.979 204.422C444.407 204.875 444.881 205.257 445.353 205.529C446.04 205.927 446.677 206.079 447.159 205.945C447.961 205.718 448.337 204.6 448.048 203.286C447.754 201.912 446.698 200.358 445.642 199.749C445.574 199.711 445.499 199.672 445.426 199.639C445.203 199.537 445.104 199.272 445.206 199.048C445.307 198.823 445.572 198.726 445.798 198.829C445.892 198.872 445.988 198.921 446.083 198.975C447.355 199.711 448.573 201.482 448.918 203.097C449.318 204.913 448.693 206.439 447.395 206.803C446.69 206.999 445.801 206.818 444.907 206.302C444.363 205.987 443.818 205.548 443.331 205.035C442.149 203.791 441.172 202.007 440.719 200.264C440.302 198.623 440.317 197.01 440.763 195.723C441.165 194.538 441.958 193.647 442.995 193.215C444.166 192.735 445.581 192.846 446.983 193.535C447.143 193.614 447.303 193.701 447.463 193.791C449.475 194.953 451.517 197.215 453.073 200.003C454.439 202.454 455.448 205.254 456.154 208.562C456.709 211.18 456.996 213.721 457.007 216.115C457.008 216.36 456.81 216.56 456.563 216.562H456.562Z" fill="#383C43"/>
<path d="M476.525 224.009C476.421 224.009 476.316 224.004 476.209 223.993C475.683 223.938 475.109 223.738 474.549 223.414C473.705 222.927 472.896 222.166 472.27 221.272C471.146 219.664 470.629 217.627 471.012 216.318C471.194 215.713 471.584 215.255 472.108 215.027C472.7 214.768 473.404 214.819 474.099 215.16C474.32 215.269 474.41 215.536 474.302 215.757C474.193 215.977 473.925 216.07 473.705 215.96C473.25 215.736 472.809 215.692 472.465 215.844C472.179 215.967 471.972 216.22 471.866 216.573C471.56 217.618 472.037 219.383 473.001 220.761C473.552 221.551 474.261 222.219 474.995 222.642C475.447 222.904 475.9 223.064 476.3 223.106C477.236 223.205 477.974 222.692 478.35 221.711C478.729 220.711 478.724 219.277 478.334 217.672C477.572 214.488 475.357 211.149 472.949 209.552C472.805 209.458 472.66 209.368 472.516 209.286C470.72 208.247 468.902 208.153 467.52 209.027C466.261 209.817 465.29 211.381 464.634 213.678C464.086 215.579 463.795 217.714 463.767 220.025C463.764 220.269 463.565 220.465 463.322 220.465C463.32 220.465 463.318 220.465 463.316 220.465C463.071 220.462 462.873 220.26 462.876 220.015C462.904 217.624 463.208 215.411 463.777 213.432C464.496 210.92 465.594 209.183 467.045 208.272C468.712 207.223 470.869 207.308 472.957 208.512C473.116 208.602 473.277 208.703 473.439 208.809C476.021 210.522 478.389 214.081 479.2 217.464C479.63 219.24 479.624 220.86 479.181 222.028C478.702 223.287 477.722 224.009 476.525 224.009Z" fill="#383C43"/>
<path d="M465.615 228.87C465.612 229.949 466.37 231.263 467.309 231.804C468.247 232.347 469.011 231.911 469.014 230.833C469.017 229.755 468.258 228.441 467.32 227.898C466.382 227.357 465.617 227.792 465.615 228.87Z" fill="white"/>
<path d="M450.776 220.303C450.773 221.381 451.531 222.695 452.47 223.237C453.409 223.779 454.172 223.344 454.175 222.265C454.178 221.187 453.419 219.873 452.481 219.331C451.543 218.79 450.779 219.225 450.776 220.303Z" fill="white"/>
<path d="M436.846 169.932C436.695 169.932 436.542 169.893 436.401 169.812L398.639 148.009C398.213 147.763 398.066 147.219 398.314 146.792C398.559 146.366 399.105 146.222 399.53 146.467L437.292 168.27C437.718 168.515 437.864 169.06 437.617 169.486C437.453 169.771 437.152 169.932 436.846 169.932Z" fill="#DBDEE4"/>
<path d="M419.78 175.181C419.628 175.181 419.475 175.142 419.334 175.061L398.596 163.088C398.17 162.843 398.023 162.298 398.271 161.872C398.516 161.446 399.062 161.301 399.487 161.547L420.225 173.519C420.651 173.764 420.797 174.309 420.55 174.735C420.387 175.021 420.086 175.181 419.78 175.181Z" fill="#DBDEE4"/>
<path d="M532.75 225.3C532.599 225.3 532.446 225.261 532.305 225.18L494.541 203.378C494.115 203.133 493.969 202.588 494.216 202.162C494.461 201.736 495.009 201.591 495.432 201.837L533.196 223.638C533.622 223.883 533.768 224.428 533.521 224.854C533.358 225.139 533.056 225.3 532.75 225.3Z" fill="#DBDEE4"/>
<path d="M532.707 240.38C532.556 240.38 532.402 240.342 532.261 240.26L509.733 227.254C509.306 227.009 509.16 226.464 509.407 226.038C509.653 225.614 510.199 225.465 510.624 225.713L533.152 238.718C533.578 238.964 533.725 239.508 533.477 239.935C533.314 240.22 533.013 240.38 532.707 240.38Z" fill="#DBDEE4"/>
<g opacity="0.1">
<path d="M451.531 493.561C428.556 506.825 428.435 528.34 451.271 541.611C474.106 554.882 511.239 554.876 534.214 541.611C557.199 528.341 557.341 506.826 534.506 493.555C511.67 480.285 474.516 480.291 451.531 493.561Z" fill="#010101"/>
</g>
<path d="M551.558 509.836C551.577 518.588 545.806 527.36 534.226 534.029C525.263 539.207 514.161 542.36 502.58 543.488C496.159 544.138 489.585 544.138 483.165 543.526C471.47 542.418 460.272 539.246 451.29 534.029C439.939 527.436 434.264 518.817 434.244 510.18L434.206 484.774C434.225 493.43 439.901 502.049 451.252 508.642C460.253 513.877 471.47 517.05 483.165 518.139C489.585 518.75 496.159 518.75 502.58 518.101C514.141 516.974 525.244 513.801 534.187 508.642C545.748 501.992 551.519 493.239 551.519 484.468L551.558 509.836Z" fill="#BEC4CD"/>
<path d="M502.58 518.101V543.488C496.159 544.138 489.586 544.138 483.165 543.526V518.139C489.586 518.751 496.159 518.751 502.58 518.101Z" fill="#F1F2F5"/>
<path d="M492.702 544.409C477.599 544.409 462.521 541.08 451.062 534.42C439.951 527.963 433.817 519.352 433.791 510.174L433.753 484.783V484.781C433.753 484.536 433.951 484.336 434.197 484.336C434.198 484.336 434.198 484.336 434.198 484.336C434.443 484.336 434.644 484.534 434.644 484.78C434.668 493.631 440.645 501.969 451.471 508.26C474.144 521.435 511.15 521.436 533.966 508.258C545.003 501.889 551.077 493.448 551.073 484.488V484.439V484.437C551.073 484.192 551.271 483.992 551.517 483.992C551.519 483.992 551.519 483.992 551.519 483.992C551.764 483.992 551.964 484.19 551.964 484.435C551.964 484.453 551.964 484.472 551.964 484.489L552.002 509.828C552.03 519.135 545.798 527.87 534.452 534.422C522.919 541.079 507.799 544.409 492.702 544.409ZM434.652 490.768L434.682 510.172C434.706 519.019 440.683 527.357 451.511 533.651C474.18 546.825 511.19 546.825 534.006 533.649C545.063 527.265 551.137 518.806 551.111 509.829L551.082 490.488C548.995 497.49 543.257 503.924 534.411 509.031C511.347 522.348 473.94 522.346 451.022 509.029C442.367 504.001 436.733 497.664 434.652 490.768Z" fill="#383C43"/>
<path d="M451.506 460.594C428.532 473.859 428.411 495.374 451.246 508.644C474.082 521.915 511.215 521.909 534.189 508.644C557.174 495.374 557.317 473.859 534.481 460.588C511.645 447.318 474.491 447.324 451.506 460.594Z" fill="white"/>
<path d="M492.663 519.018C477.561 519.018 462.483 515.689 451.022 509.029C439.872 502.55 433.739 493.909 433.753 484.698C433.765 475.426 439.992 466.729 451.285 460.208C474.359 446.887 511.78 446.884 534.706 460.205C545.848 466.679 551.978 475.316 551.964 484.522C551.952 493.799 545.718 502.503 534.412 509.031C522.881 515.688 507.761 519.018 492.663 519.018ZM451.73 460.981C440.724 467.335 434.656 475.758 434.644 484.699C434.631 493.578 440.606 501.946 451.47 508.26C474.143 521.435 511.15 521.436 533.966 508.258C544.985 501.897 551.061 493.467 551.073 484.52C551.085 475.645 545.113 467.283 534.256 460.974C511.587 447.797 474.563 447.803 451.73 460.981Z" fill="#383C43"/>
<path d="M462.354 483.932C462.416 483.738 462.295 483.526 462.06 483.38C454.12 478.51 454.041 470.955 461.996 466.362C469.951 461.769 482.986 461.844 491.377 466.455C491.62 466.596 491.977 466.671 492.357 466.635C493.324 466.543 494.305 466.679 495.277 466.979C495.802 467.151 496.273 467.363 496.674 467.596C499.104 469.009 499.209 471.405 496.579 472.924C495.462 473.569 495.558 474.686 496.676 475.337L502.062 478.466C503.192 479.123 503.186 480.181 502.048 480.837L486.84 489.618C485.702 490.275 483.877 490.275 482.746 489.618L477.361 486.488C476.243 485.838 474.313 485.779 473.191 486.426C470.58 487.943 466.441 487.872 464.006 486.457C463.604 486.224 463.24 485.95 462.9 485.576C462.424 485.086 462.206 484.509 462.354 483.932ZM493.579 479.48L482.218 478.114L484.532 484.703L493.579 479.48ZM484.799 469.787C484.185 468.015 481.909 466.79 479.708 467.041C479.1 467.115 478.56 467.294 478.112 467.553C476.943 468.228 476.39 469.441 476.834 470.722C477.448 472.494 479.716 473.723 481.924 473.459C482.535 473.388 483.077 473.209 483.527 472.949C484.691 472.277 485.241 471.065 484.799 469.787ZM467.827 479.585C470.032 479.846 472.125 479.531 473.289 478.859C473.739 478.6 474.05 478.287 474.175 477.933C474.639 476.654 472.523 475.336 469.466 474.975C467.257 474.714 465.157 475.032 463.989 475.707C463.54 475.966 463.23 476.277 463.103 476.628C462.662 477.902 464.77 479.224 467.827 479.585Z" fill="#383C43"/>
<path d="M478.578 495.795C477.057 496.674 476.508 498.027 477.365 499.249C477.923 500.051 478.97 500.651 480.224 500.964C479.702 501.704 479.659 502.555 480.218 503.349C481.35 504.98 484.55 505.768 487.361 505.103C488.067 504.938 488.681 504.698 489.187 504.406C490.699 503.533 491.254 502.191 490.428 500.969L528.261 492.061C529.415 493.678 532.592 494.454 535.396 493.793C536.094 493.628 536.703 493.389 537.207 493.098C538.731 492.218 539.29 490.864 538.433 489.641C537.882 488.843 536.82 488.252 535.566 487.931C536.088 487.199 536.138 486.344 535.58 485.542C534.447 483.911 531.233 483.13 528.414 483.792C527.714 483.957 527.105 484.195 526.602 484.486C525.089 485.359 524.537 486.701 525.369 487.922L487.537 496.83C486.39 495.217 483.198 494.441 480.394 495.102C479.693 495.266 479.082 495.505 478.578 495.795Z" fill="#383C43"/>
<path d="M510.325 477.464C509.821 477.754 509.407 478.107 509.121 478.513C507.97 480.135 509.299 481.986 512.081 482.656L496.571 504.546C494.466 504.059 492.147 504.375 490.634 505.248C490.131 505.538 489.717 505.891 489.43 506.295C488.28 507.926 489.624 509.786 492.436 510.448C493.819 510.774 495.295 510.747 496.56 510.448C497.104 511.179 498.128 511.792 499.495 512.118C501.609 512.615 503.951 512.295 505.475 511.415C505.979 511.124 506.394 510.772 506.681 510.368C507.832 508.746 506.503 506.904 503.714 506.229L519.216 484.345C521.317 484.83 523.636 484.514 525.148 483.641C525.654 483.349 526.07 482.994 526.357 482.586C527.515 480.96 526.163 479.104 523.359 478.438C521.984 478.117 520.515 478.139 519.242 478.434C518.706 477.707 517.675 477.098 516.291 476.772C514.184 476.272 511.846 476.585 510.325 477.464Z" fill="#383C43"/>
<path d="M97.2812 527.4C94.8434 528.807 94.8303 531.092 97.2525 532.5L128.235 550.506C130.657 551.914 134.601 551.914 137.039 550.506L168.224 532.5C170.661 531.092 170.674 528.807 168.252 527.4L137.27 509.393C134.848 507.985 130.904 507.985 128.466 509.393L97.2812 527.4Z" fill="white"/>
<path d="M132.631 552C130.956 552 129.282 551.631 128.01 550.892L97.0288 532.884C95.7187 532.123 94.9984 531.083 95 529.957C95.0016 528.824 95.7326 527.779 97.0583 527.013L128.243 509.006C130.803 507.529 134.952 507.527 137.494 509.008L168.477 527.016C169.788 527.777 170.508 528.817 170.506 529.943C170.505 531.075 169.774 532.121 168.446 532.887L137.261 550.894C135.982 551.631 134.305 552 132.631 552ZM97.5039 527.785C96.4652 528.386 95.8908 529.156 95.8908 529.959C95.8892 530.752 96.4529 531.518 97.4776 532.114L128.459 550.123C130.752 551.455 134.502 551.457 136.816 550.121L168 532.114C169.041 531.514 169.615 530.743 169.615 529.941C169.617 529.146 169.053 528.382 168.028 527.785L137.045 509.777C134.752 508.445 131.002 508.443 128.688 509.779L97.5039 527.785Z" fill="#DBDEE4"/>
<path d="M145.241 522.687C152.183 526.695 152.219 533.191 145.311 537.206C138.414 541.215 127.2 541.215 120.258 537.206C113.327 533.205 113.291 526.708 120.187 522.7C127.096 518.685 138.31 518.685 145.241 522.687Z" fill="white"/>
<path d="M132.8 540.645C128.182 540.645 123.561 539.629 120.034 537.593C116.528 535.568 114.595 532.848 114.592 529.934C114.587 527.037 116.495 524.33 119.963 522.315C126.976 518.238 138.415 518.231 145.463 522.301C148.974 524.328 150.911 527.049 150.914 529.964C150.92 532.864 149.009 535.573 145.534 537.591C142.031 539.627 137.418 540.645 132.8 540.645ZM132.717 520.131C128.256 520.131 123.798 521.116 120.412 523.084C117.23 524.933 115.479 527.365 115.483 529.934C115.486 532.516 117.261 534.962 120.48 536.82C127.286 540.749 138.324 540.751 145.086 536.822C148.275 534.969 150.029 532.533 150.024 529.965C150.02 527.381 148.242 524.933 145.018 523.073C141.622 521.112 137.168 520.131 132.717 520.131Z" fill="#383C43"/>
<path d="M121.275 493.3L121.41 528.753C121.415 530.435 122.521 532.115 124.733 533.4C129.175 535.982 136.397 535.982 140.869 533.4C143.114 532.104 144.236 530.401 144.231 528.7L144.096 493.247C144.101 494.948 142.979 496.65 140.734 497.947C136.263 500.529 129.04 500.528 124.598 497.947C122.387 496.662 121.28 494.982 121.275 493.3Z" fill="white"/>
<path d="M124.598 497.947C126.805 499.229 129.698 499.872 132.599 499.88V535.326C129.743 535.298 126.905 534.663 124.733 533.4C122.521 532.115 121.415 530.435 121.41 528.753L121.275 493.299C121.28 494.982 122.387 496.662 124.598 497.947Z" fill="#DBDEE4"/>
<path d="M132.789 535.772C129.786 535.772 126.787 535.111 124.507 533.785C122.228 532.461 120.968 530.674 120.965 528.754L120.829 493.302C120.829 493.054 121.028 492.854 121.273 492.854H121.275C121.52 492.854 121.718 493.053 121.72 493.298V493.303C121.727 494.892 122.828 496.404 124.822 497.563C129.13 500.068 136.172 500.07 140.511 497.561C142.54 496.39 143.655 494.859 143.65 493.247C143.65 493 143.848 492.8 144.094 492.8H144.095C144.341 492.8 144.539 492.999 144.541 493.244L144.675 528.699C144.68 530.641 143.408 532.448 141.09 533.786C138.797 535.11 135.791 535.772 132.789 535.772ZM121.73 496.012L121.856 528.751C121.859 530.341 122.961 531.857 124.956 533.016C129.264 535.521 136.306 535.523 140.645 533.014C142.674 531.843 143.789 530.312 143.784 528.702L143.66 495.957C143.053 496.843 142.141 497.65 140.956 498.334C136.368 500.983 128.93 500.982 124.373 498.332C123.222 497.662 122.331 496.875 121.73 496.012Z" fill="#383C43"/>
<path d="M124.643 488.595C120.172 491.177 120.149 495.361 124.598 497.947C129.04 500.529 136.263 500.529 140.734 497.947C145.197 495.37 145.221 491.186 140.779 488.604C136.329 486.018 129.107 486.018 124.643 488.595Z" fill="white"/>
<path d="M132.656 500.319C129.653 500.319 126.653 499.658 124.374 498.332C122.086 497.002 120.828 495.208 120.83 493.282C120.834 491.346 122.109 489.545 124.421 488.209C129.003 485.566 136.441 485.567 141.005 488.219C143.289 489.547 144.545 491.339 144.542 493.263C144.54 495.2 143.266 497.001 140.957 498.333C138.664 499.658 135.658 500.319 132.656 500.319ZM124.867 488.981C122.841 490.151 121.724 491.678 121.721 493.284C121.719 494.88 122.821 496.398 124.823 497.563C129.131 500.068 136.173 500.07 140.512 497.561C142.534 496.394 143.649 494.868 143.651 493.263C143.654 491.668 142.555 490.151 140.556 488.988C136.242 486.481 129.201 486.476 124.867 488.981Z" fill="#383C43"/>
<path d="M125.12 468.766L125.21 492.248C125.213 493.367 125.949 494.484 127.419 495.339C130.373 497.055 135.176 497.055 138.15 495.339C139.643 494.476 140.389 493.344 140.386 492.213L140.296 468.73C140.3 469.861 139.554 470.994 138.06 471.856C135.087 473.573 130.284 473.573 127.33 471.856C125.859 471.001 125.123 469.884 125.12 468.766Z" fill="white"/>
<path d="M127.329 471.856C128.784 472.701 130.687 473.126 132.599 473.139V496.616C130.717 496.591 128.851 496.171 127.419 495.339C125.949 494.484 125.213 493.367 125.21 492.249L125.12 468.766C125.123 469.884 125.859 471.001 127.329 471.856Z" fill="#DBDEE4"/>
<path d="M132.778 497.063C130.752 497.063 128.731 496.618 127.194 495.723C125.632 494.815 124.767 493.581 124.763 492.25L124.675 468.779C124.675 468.775 124.675 468.77 124.675 468.767C124.675 468.52 124.873 468.319 125.119 468.319H125.12C125.366 468.319 125.564 468.518 125.566 468.763V468.765C125.569 469.765 126.276 470.728 127.555 471.472C130.38 473.113 134.991 473.111 137.838 471.471C139.139 470.719 139.854 469.746 139.851 468.732C139.851 468.485 140.049 468.285 140.294 468.285H140.296C140.541 468.285 140.74 468.483 140.741 468.728L140.832 492.211C140.835 493.557 139.964 494.807 138.373 495.725C136.828 496.618 134.801 497.063 132.778 497.063ZM125.574 471.006L125.654 492.247C125.658 493.249 126.364 494.211 127.643 494.954C130.469 496.597 135.081 496.599 137.928 494.952C139.229 494.201 139.944 493.228 139.941 492.214L139.859 470.969C139.461 471.439 138.932 471.867 138.283 472.243C135.193 474.024 130.178 474.026 127.106 472.241C126.479 471.878 125.966 471.46 125.574 471.006Z" fill="#383C43"/>
<path d="M127.36 465.637C124.386 467.354 124.371 470.136 127.33 471.856C130.284 473.573 135.087 473.573 138.061 471.856C141.029 470.142 141.045 467.359 138.091 465.643C135.131 463.923 130.328 463.923 127.36 465.637Z" fill="#DA0000"/>
<path d="M132.687 473.58C130.664 473.58 128.642 473.134 127.106 472.242C125.536 471.33 124.673 470.091 124.675 468.755C124.676 467.412 125.55 466.168 127.137 465.251C130.225 463.469 135.24 463.471 138.314 465.259C139.88 466.169 140.743 467.404 140.741 468.741C140.74 470.084 139.866 471.326 138.283 472.243C136.738 473.134 134.711 473.58 132.687 473.58ZM127.582 466.023C126.283 466.773 125.568 467.744 125.566 468.755C125.564 469.76 126.271 470.726 127.555 471.473C130.377 473.113 134.991 473.112 137.838 471.471C139.134 470.721 139.849 469.752 139.851 468.739C139.852 467.735 139.148 466.773 137.865 466.028C135.04 464.386 130.426 464.384 127.582 466.023Z" fill="#383C43"/>
<path d="M139.85 450.639V468.682C139.813 469.713 139.113 470.726 137.769 471.518C134.952 473.139 130.423 473.139 127.624 471.518C126.28 470.726 125.598 469.713 125.562 468.682V450.639H139.85Z" fill="url(#paint0_linear_399_1556)"/>
<defs>
<filter id="filter0_d_399_1556" x="0" y="0" width="648" height="656" filterUnits="userSpaceOnUse" color-interpolation-filters="sRGB">
<feFlood flood-opacity="0" result="BackgroundImageFix"/>
<feColorMatrix in="SourceAlpha" type="matrix" values="0 0 0 0 0 0 0 0 0 0 0 0 0 0 0 0 0 0 127 0" result="hardAlpha"/>
<feOffset dy="4"/>
<feGaussianBlur stdDeviation="2"/>
<feComposite in2="hardAlpha" operator="out"/>
<feColorMatrix type="matrix" values="0 0 0 0 0 0 0 0 0 0 0 0 0 0 0 0 0 0 0.25 0"/>
<feBlend mode="normal" in2="BackgroundImageFix" result="effect1_dropShadow_399_1556"/>
<feBlend mode="normal" in="SourceGraphic" in2="effect1_dropShadow_399_1556" result="shape"/>
</filter>
<linearGradient id="paint0_linear_399_1556" x1="132.706" y1="473.569" x2="132.706" y2="451.655" gradientUnits="userSpaceOnUse">
<stop stop-color="#E54C4C"/>
<stop offset="1" stop-color="white"/>
</linearGradient>
</defs>
</svg>
