<svg width="648" height="656" viewBox="0 0 648 656" fill="none" xmlns="http://www.w3.org/2000/svg">
<g filter="url(#filter0_d_399_1852)">
<path d="M75.9101 0L644 0.336294V648H4V576.937V71.8492C28.719 47.1121 52.5226 24.3319 75.9101 0Z" fill="white"/>
</g>
<path d="M200.195 314.497C200.118 314.497 200.042 314.477 199.972 314.436L97.8524 255.477C96.5507 254.727 95.7752 253.382 95.7725 251.882C95.7711 250.381 96.5438 249.035 97.8414 248.282L240.432 166.191C240.644 166.068 240.914 166.14 241.041 166.355C241.164 166.568 241.089 166.841 240.877 166.963L98.2876 249.053C97.2683 249.644 96.6609 250.702 96.6623 251.88C96.6637 253.059 97.2739 254.115 98.296 254.705L200.415 313.663C200.627 313.786 200.7 314.059 200.579 314.272C200.498 314.415 200.348 314.497 200.195 314.497Z" fill="#DBDEE4"/>
<path d="M126.389 496.613C126.236 496.613 126.086 496.534 126.004 496.391C125.88 496.179 125.952 495.905 126.164 495.782L222.202 439.958C222.414 439.835 222.688 439.905 222.811 440.12C222.935 440.332 222.864 440.605 222.651 440.729L126.613 496.553C126.542 496.594 126.465 496.613 126.389 496.613Z" fill="#DBDEE4"/>
<path d="M487.1 537.497C486.947 537.497 486.797 537.416 486.713 537.274C486.591 537.06 486.664 536.788 486.877 536.665L542.71 504.413C543.828 503.767 544.497 502.609 544.498 501.316C544.5 500.023 543.835 498.864 542.716 498.215L487.277 465.979C487.065 465.855 486.994 465.582 487.117 465.37C487.239 465.155 487.511 465.085 487.727 465.208L543.166 497.444C544.561 498.255 545.392 499.703 545.39 501.317C545.388 502.932 544.552 504.378 543.155 505.185L487.323 537.437C487.253 537.477 487.176 537.497 487.1 537.497Z" fill="#DBDEE4"/>
<path d="M278.444 538.374C278.368 538.374 278.291 538.355 278.222 538.314L222.389 506.063C220.992 505.256 220.156 503.811 220.154 502.196C220.151 500.582 220.982 499.133 222.377 498.322L277.818 466.087C278.03 465.964 278.303 466.034 278.427 466.249C278.551 466.462 278.479 466.734 278.267 466.859L222.826 499.093C221.71 499.743 221.043 500.902 221.046 502.194C221.048 503.487 221.717 504.645 222.835 505.291L278.667 537.542C278.88 537.665 278.953 537.937 278.831 538.151C278.748 538.294 278.598 538.374 278.444 538.374Z" fill="#DBDEE4"/>
<path d="M490.326 541.591C493.549 539.729 493.568 536.709 490.366 534.848C487.164 532.986 481.952 532.987 478.729 534.849C475.507 536.71 475.491 539.729 478.693 541.59C481.895 543.452 487.104 543.453 490.326 541.591Z" fill="white"/>
<path d="M484.502 543.424C482.314 543.424 480.13 542.941 478.469 541.976C476.781 540.995 475.853 539.664 475.856 538.229C475.858 536.786 476.8 535.448 478.507 534.463C481.846 532.532 487.266 532.532 490.591 534.462C492.277 535.443 493.203 536.773 493.201 538.208C493.199 539.651 492.257 540.99 490.549 541.976C488.878 542.941 486.689 543.424 484.502 543.424ZM484.557 533.893C482.53 533.893 480.501 534.34 478.953 535.235C477.532 536.055 476.75 537.119 476.748 538.231C476.746 539.334 477.516 540.391 478.918 541.205C481.99 542.992 487.009 542.992 490.102 541.205C491.524 540.384 492.307 539.319 492.309 538.206C492.311 537.103 491.541 536.047 490.141 535.234C488.605 534.339 486.583 533.893 484.557 533.893Z" fill="#DBDEE4"/>
<path d="M484.549 536.093C483.292 536.093 482.076 536.379 481.213 536.878C480.519 537.279 480.121 537.771 480.12 538.228C480.12 538.68 480.51 539.167 481.191 539.563C482.048 540.061 483.259 540.346 484.514 540.346C485.769 540.346 486.984 540.06 487.847 539.562C488.541 539.161 488.94 538.668 488.941 538.21C488.941 537.758 488.551 537.272 487.871 536.876C487.014 536.378 485.804 536.093 484.549 536.093Z" fill="#DA0000"/>
<path d="M512.922 519.937C511.573 519.937 510.267 520.244 509.339 520.78C508.594 521.21 508.167 521.738 508.166 522.23C508.166 522.715 508.584 523.237 509.316 523.663C510.236 524.198 511.536 524.504 512.884 524.504C514.233 524.504 515.537 524.197 516.464 523.662C517.21 523.231 517.638 522.702 517.639 522.21C517.639 521.725 517.22 521.202 516.49 520.777C515.57 520.243 514.27 519.937 512.922 519.937Z" fill="#373B42"/>
<path d="M275.224 542.468C272.001 540.606 271.983 537.586 275.185 535.725C278.387 533.863 283.598 533.864 286.821 535.726C290.044 537.587 290.059 540.606 286.857 542.467C283.655 544.329 278.447 544.329 275.224 542.468Z" fill="white"/>
<path d="M281.046 544.301C278.861 544.301 276.671 543.818 275.001 542.853C273.292 541.867 272.35 540.528 272.349 539.085C272.347 537.649 273.273 536.32 274.959 535.339C278.282 533.409 283.702 533.408 287.043 535.34C288.751 536.326 289.692 537.664 289.693 539.107C289.695 540.542 288.767 541.872 287.081 542.853C285.419 543.818 283.234 544.301 281.046 544.301ZM280.992 534.77C278.967 534.77 276.945 535.217 275.409 536.111C274.008 536.924 273.239 537.979 273.24 539.082C273.242 540.195 274.026 541.26 275.447 542.081C278.542 543.869 283.561 543.868 286.632 542.081C288.034 541.267 288.803 540.211 288.802 539.108C288.8 537.996 288.018 536.932 286.597 536.111C285.048 535.217 283.019 534.77 280.992 534.77Z" fill="#DBDEE4"/>
<path d="M281.002 536.97C282.259 536.97 283.475 537.256 284.338 537.755C285.032 538.155 285.43 538.647 285.431 539.105C285.431 539.557 285.041 540.043 284.36 540.439C283.503 540.937 282.292 541.223 281.037 541.223C279.782 541.223 278.567 540.936 277.704 540.438C277.01 540.037 276.611 539.544 276.61 539.086C276.61 538.635 277 538.148 277.68 537.753C278.537 537.255 279.747 536.97 281.002 536.97Z" fill="#DA0000"/>
<path d="M252.632 520.813C253.982 520.813 255.288 521.121 256.215 521.657C256.96 522.087 257.388 522.615 257.389 523.107C257.389 523.592 256.97 524.114 256.239 524.54C255.319 525.075 254.018 525.381 252.67 525.381C251.322 525.381 250.017 525.074 249.09 524.539C248.345 524.108 247.917 523.579 247.916 523.087C247.916 522.601 248.334 522.079 249.065 521.654C249.984 521.12 251.285 520.813 252.632 520.813Z" fill="#373B42"/>
<path d="M127.46 500.924C130.684 499.062 130.702 496.042 127.5 494.181C124.297 492.319 119.084 492.32 115.86 494.182C112.636 496.043 112.621 499.062 115.823 500.923C119.026 502.785 124.236 502.785 127.46 500.924Z" fill="white"/>
<path d="M121.635 502.757C119.448 502.757 117.26 502.274 115.599 501.308C113.913 500.328 112.985 498.997 112.986 497.562C112.988 496.119 113.93 494.782 115.637 493.796C118.979 491.865 124.399 491.865 127.724 493.795C129.41 494.776 130.338 496.106 130.336 497.541C130.334 498.984 129.392 500.323 127.684 501.309C126.013 502.274 123.823 502.757 121.635 502.757ZM121.689 493.226C119.662 493.226 117.631 493.673 116.083 494.567C114.662 495.388 113.88 496.452 113.878 497.564C113.876 498.667 114.646 499.723 116.048 500.537C119.125 502.326 124.143 502.324 127.238 500.538C128.659 499.716 129.443 498.651 129.444 497.538C129.446 496.435 128.675 495.38 127.274 494.566C125.738 493.673 123.715 493.226 121.689 493.226Z" fill="#DBDEE4"/>
<path d="M121.678 495.426C120.421 495.426 119.205 495.712 118.341 496.211C117.647 496.612 117.249 497.103 117.248 497.561C117.248 498.013 117.638 498.499 118.319 498.895C119.176 499.393 120.387 499.679 121.643 499.679C122.898 499.679 124.114 499.392 124.977 498.894C125.672 498.493 126.07 498 126.071 497.542C126.071 497.09 125.681 496.604 125.001 496.208C124.144 495.711 122.933 495.426 121.678 495.426Z" fill="#DA0000"/>
<path d="M150.06 479.271C148.711 479.271 147.404 479.578 146.476 480.114C145.731 480.544 145.304 481.072 145.303 481.564C145.302 482.049 145.721 482.571 146.453 482.997C147.373 483.532 148.674 483.838 150.023 483.838C151.371 483.838 152.676 483.531 153.604 482.996C154.35 482.565 154.778 482.036 154.778 481.544C154.779 481.059 154.36 480.537 153.629 480.112C152.709 479.577 151.409 479.271 150.06 479.271Z" fill="#373B42"/>
<g opacity="0.1">
<path d="M101.146 377.218C93.6448 381.549 93.6052 388.56 101.058 392.892L369.231 548.752C376.683 553.083 388.786 553.083 396.287 548.752L536.726 467.662C544.227 463.331 544.266 456.32 536.814 451.989L268.641 296.128C261.188 291.797 249.086 291.797 241.585 296.128L101.146 377.218Z" fill="black"/>
</g>
<path d="M542.422 447.405C542.422 450.232 540.531 453.099 536.767 455.263L396.311 536.351C394.049 537.658 391.378 538.574 388.531 539.081C386.698 539.432 384.768 539.608 382.857 539.608C380.946 539.608 379.054 539.452 377.202 539.12C374.296 538.613 371.566 537.697 369.285 536.351L101.106 380.495C97.3818 378.35 95.5293 375.541 95.5293 372.733L95.4512 340.01C95.4512 342.837 97.3037 345.665 101.009 347.791L369.187 503.666C371.508 505.031 374.257 505.948 377.202 506.436C379.054 506.767 380.946 506.904 382.857 506.904C384.768 506.904 386.679 506.728 388.531 506.377C391.359 505.87 394.011 504.953 396.253 503.666L536.67 422.579C540.453 420.375 542.325 417.548 542.325 414.662L542.422 447.405Z" fill="#BEC4CD"/>
<path d="M388.532 506.377V539.081C386.699 539.432 384.769 539.608 382.858 539.608C380.947 539.608 379.055 539.452 377.203 539.12V506.436C379.055 506.767 380.947 506.904 382.858 506.904C384.769 506.904 386.68 506.728 388.532 506.377Z" fill="#F0F2F5"/>
<path d="M382.738 540.053C377.563 540.053 372.708 538.88 369.052 536.744L100.876 380.884C97.144 378.728 95.0871 375.831 95.0871 372.73L95 340.051C95 340.039 95 340.028 95 340.017V340.015V340.014C95 339.768 95.1984 339.568 95.4457 339.568C95.6912 339.568 95.8917 339.767 95.8917 340.013V340.014C95.8917 342.811 97.79 345.439 101.235 347.413L369.414 503.276C372.967 505.349 377.781 506.456 382.856 506.463C387.818 506.445 392.494 505.313 396.023 503.276L536.456 422.186C539.958 420.142 541.888 417.47 541.888 414.663C541.888 414.416 542.087 414.217 542.334 414.217C542.58 414.217 542.78 414.415 542.78 414.662L542.867 447.396C542.867 450.546 540.779 453.48 536.987 455.656L396.538 536.746C392.86 538.86 388.003 540.035 382.86 540.053C382.82 540.053 382.778 540.053 382.738 540.053ZM95.9007 343.513L95.9791 372.729C95.9791 375.5 97.8774 378.122 101.324 380.112L369.502 535.974C373.049 538.047 377.837 539.178 382.856 539.161C387.848 539.143 392.548 538.011 396.093 535.973L536.543 454.883C540.046 452.872 541.976 450.213 541.976 447.396L541.897 418.126C540.948 419.933 539.253 421.585 536.904 422.956L396.469 504.047C392.808 506.161 387.975 507.336 382.86 507.355C382.818 507.355 382.778 507.355 382.738 507.355C377.511 507.355 372.624 506.182 368.965 504.047L100.789 348.186C98.501 346.874 96.841 345.276 95.9007 343.513Z" fill="#373B42"/>
<path d="M527.864 460.855C527.618 460.855 527.418 460.656 527.418 460.409V427.663C527.418 427.417 527.618 427.218 527.864 427.218C528.109 427.218 528.31 427.417 528.31 427.663V460.409C528.31 460.656 528.109 460.855 527.864 460.855Z" fill="#373B42"/>
<path d="M164.151 399.526C164.131 400.892 163.662 401.87 162.888 402.318L160.022 403.985C160.796 403.516 161.265 402.559 161.286 401.193C161.286 398.442 159.35 395.1 156.966 393.714L136.095 381.666C134.873 380.973 133.793 380.912 132.998 381.36L135.864 379.694C136.658 379.245 137.738 379.306 138.961 379.999L159.832 392.047C162.216 393.433 164.151 396.776 164.151 399.526Z" fill="#373B42"/>
<path d="M160.023 404.431C159.872 404.431 159.724 404.353 159.64 404.213C159.515 404.003 159.582 403.731 159.791 403.604C160.45 403.205 160.822 402.347 160.84 401.187C160.84 398.597 159.003 395.414 156.742 394.1L135.872 382.052C134.846 381.472 133.904 381.361 133.218 381.749C133.004 381.868 132.732 381.795 132.612 381.583C132.49 381.369 132.563 381.098 132.774 380.975L135.639 379.308C136.612 378.76 137.871 378.867 139.181 379.612L160.054 391.661C162.602 393.143 164.596 396.597 164.596 399.526C164.596 399.528 164.596 399.531 164.596 399.532C164.576 401.035 164.048 402.162 163.111 402.704L160.248 404.371C160.177 404.412 160.1 404.431 160.023 404.431ZM134.967 380.731C135.402 380.836 135.855 381.018 136.314 381.279L157.189 393.328C159.694 394.786 161.732 398.314 161.732 401.193C161.725 401.705 161.657 402.173 161.533 402.59L162.663 401.933C163.318 401.554 163.688 400.699 163.705 399.523C163.703 396.925 161.866 393.745 159.607 392.433L138.739 380.385C137.713 379.803 136.767 379.695 136.083 380.082L134.967 380.731Z" fill="#373B42"/>
<path d="M156.961 393.718C159.355 395.101 161.287 398.448 161.28 401.199C161.272 403.95 159.327 405.058 156.933 403.676L136.059 391.621C133.665 390.239 131.733 386.891 131.741 384.14C131.749 381.39 133.694 380.281 136.088 381.663L156.961 393.718Z" fill="white"/>
<path d="M158.879 404.719C158.205 404.719 157.466 404.499 156.71 404.061L135.835 392.006C133.322 390.555 131.286 387.026 131.295 384.138C131.299 382.648 131.83 381.522 132.789 380.97C133.754 380.415 135.004 380.523 136.309 381.277L157.184 393.332C159.697 394.783 161.733 398.313 161.724 401.2C161.721 402.691 161.19 403.817 160.23 404.369C159.824 404.602 159.368 404.719 158.879 404.719ZM134.144 381.512C133.808 381.512 133.502 381.589 133.233 381.742C132.561 382.129 132.19 382.981 132.187 384.141C132.178 386.744 134.015 389.926 136.281 391.234L157.156 403.29C158.173 403.878 159.105 403.984 159.786 403.596C160.458 403.209 160.829 402.357 160.833 401.197C160.841 398.594 159.004 395.412 156.738 394.104L135.863 382.048C135.247 381.692 134.66 381.512 134.144 381.512Z" fill="#373B42"/>
<path d="M101.102 332.128C93.601 336.46 93.5612 343.47 101.014 347.802L369.187 503.662C376.639 507.993 388.741 507.993 396.243 503.662L536.682 422.572C544.183 418.241 544.222 411.23 536.77 406.899L268.597 251.038C261.144 246.707 249.042 246.707 241.541 251.038L101.102 332.128Z" fill="#373B42"/>
<path d="M382.696 507.341C377.715 507.341 372.741 506.243 368.962 504.047L100.789 348.187C97.0539 346.016 94.9985 343.105 95.0039 339.991C95.0073 336.856 97.094 333.927 100.878 331.742L241.317 250.652C248.924 246.257 261.262 246.258 268.821 250.652L536.995 406.512C540.729 408.683 542.784 411.594 542.779 414.708C542.775 417.843 540.689 420.772 536.904 422.957L396.466 504.047C392.661 506.243 387.675 507.341 382.696 507.341ZM101.324 332.514C97.8268 334.533 95.8987 337.189 95.8953 339.993C95.892 342.775 97.7885 345.412 101.239 347.416L369.411 503.276C376.724 507.526 388.661 507.524 396.019 503.276L536.458 422.186C539.955 420.167 541.883 417.511 541.886 414.707C541.892 411.925 539.993 409.288 536.545 407.284L268.371 251.424C261.06 247.172 249.123 247.175 241.763 251.424L101.324 332.514Z" fill="#373B42"/>
<path d="M98.0645 339.996C98.0645 341.934 99.618 343.959 102.324 345.53L370.499 501.392C373.711 503.26 378.04 504.29 382.701 504.29C387.344 504.29 391.69 503.26 394.937 501.392L535.37 420.302C538.128 418.713 539.716 416.67 539.716 414.698C539.716 412.76 538.163 410.735 535.457 409.163L267.282 253.302C264.07 251.434 259.741 250.404 255.08 250.404C250.437 250.404 246.09 251.434 242.844 253.302L102.411 334.393C99.6527 335.981 98.0645 338.024 98.0645 339.996Z" fill="white"/>
<path d="M382.7 504.736C377.97 504.736 373.557 503.685 370.274 501.778L102.1 345.916C99.2527 344.263 97.6191 342.106 97.6191 339.997C97.6191 337.862 99.284 335.679 102.189 334.006L242.621 252.916C245.938 251.008 250.362 249.958 255.08 249.958C259.812 249.958 264.225 251.009 267.507 252.916L535.682 408.778C538.53 410.432 540.163 412.59 540.163 414.698C540.163 416.832 538.498 419.016 535.593 420.688L395.16 501.778C391.844 503.686 387.42 504.736 382.7 504.736ZM255.08 250.849C250.515 250.849 246.248 251.858 243.067 253.688L102.635 334.779C100.014 336.288 98.5111 338.19 98.5111 339.997C98.5111 341.779 99.9827 343.656 102.55 345.145L370.724 501.006C373.871 502.837 378.126 503.844 382.701 503.844C387.267 503.844 391.534 502.836 394.714 501.005L535.148 419.916C537.769 418.407 539.272 416.505 539.272 414.698C539.272 412.916 537.8 411.039 535.233 409.549L267.057 253.687C263.912 251.857 259.657 250.849 255.08 250.849Z" fill="#373B42"/>
<path d="M219.681 283.02C217.609 284.232 164.859 314.881 162.413 316.303C158.5 318.574 152.119 318.574 148.196 316.314L141.055 312.181C143.501 310.759 209.718 272.285 212.506 270.665L219.648 274.787C223.571 277.057 223.593 280.75 219.681 283.02Z" fill="#373B42"/>
<path d="M155.298 318.448C152.648 318.448 149.997 317.866 147.973 316.701L140.832 312.567C140.695 312.488 140.609 312.341 140.609 312.182C140.609 312.023 140.693 311.876 140.83 311.796C142.354 310.91 168.653 295.63 188.925 283.85L212.282 270.279C212.421 270.199 212.59 270.199 212.73 270.279L219.87 274.401C221.918 275.587 223.047 277.19 223.049 278.917C223.05 280.634 221.934 282.228 219.905 283.406C218.134 284.443 179.301 307.006 166.54 314.421L162.637 316.689C160.617 317.861 157.958 318.448 155.298 318.448ZM141.943 312.181L148.419 315.929C152.226 318.12 158.405 318.116 162.188 315.917L166.091 313.65C178.852 306.236 217.684 283.673 219.456 282.636C219.456 282.636 219.456 282.635 219.458 282.635C221.199 281.624 222.159 280.304 222.157 278.918C222.155 277.523 221.185 276.192 219.424 275.173L212.507 271.181L189.375 284.622C170.508 295.583 146.425 309.577 141.943 312.181Z" fill="#373B42"/>
<path d="M166.462 307.572C164.836 307.572 163.316 307.212 162.184 306.559C161.165 305.97 160.603 305.233 160.602 304.483C160.602 303.744 161.148 303.019 162.141 302.441L206.517 276.652C207.644 275.997 209.163 275.637 210.796 275.637C212.432 275.637 213.961 275.999 215.1 276.658C216.107 277.239 216.662 277.97 216.662 278.715C216.664 279.458 216.115 280.186 215.116 280.767L170.742 306.556C169.613 307.211 168.094 307.572 166.462 307.572Z" fill="white"/>
<path d="M154.952 314.258C153.325 314.258 151.807 313.899 150.675 313.245C149.656 312.658 149.095 311.92 149.094 311.171C149.092 310.431 149.642 309.704 150.639 309.124C151.766 308.469 153.285 308.108 154.918 308.108C156.555 308.108 158.084 308.471 159.222 309.129C160.228 309.71 160.783 310.441 160.785 311.186C160.786 311.929 160.237 312.658 159.238 313.239C158.107 313.897 156.585 314.258 154.952 314.258Z" fill="white"/>
<path d="M154.948 313.011C153.982 313.011 153.079 312.797 152.406 312.408C151.8 312.059 151.467 311.621 151.466 311.175C151.465 310.735 151.791 310.303 152.384 309.958C153.054 309.569 153.957 309.354 154.928 309.354C155.901 309.354 156.81 309.57 157.487 309.961C158.085 310.307 158.415 310.741 158.416 311.184C158.417 311.625 158.09 312.059 157.497 312.405C156.824 312.796 155.919 313.011 154.948 313.011Z" fill="#DA0000"/>
<path d="M409.743 510.635C411.289 509.742 412.539 510.478 412.544 512.255C412.549 514.056 411.308 516.205 409.761 517.098C408.174 518.015 406.925 517.303 406.92 515.502C406.915 513.725 408.156 511.552 409.743 510.635Z" fill="#373B42"/>
<path d="M421.318 503.951C422.865 503.058 424.114 503.793 424.119 505.57C424.124 507.371 422.883 509.521 421.336 510.414C419.75 511.33 418.5 510.618 418.495 508.818C418.49 507.041 419.731 504.867 421.318 503.951Z" fill="#373B42"/>
<path d="M432.895 497.268C434.442 496.375 435.691 497.11 435.696 498.887C435.701 500.688 434.46 502.838 432.913 503.731C431.327 504.647 430.077 503.936 430.072 502.135C430.067 500.358 431.308 498.184 432.895 497.268Z" fill="#373B42"/>
<path d="M505.463 455.371C507.01 454.478 508.26 455.213 508.265 456.99C508.27 458.791 507.028 460.941 505.482 461.833C503.895 462.75 502.646 462.038 502.641 460.237C502.636 458.46 503.877 456.287 505.463 455.371Z" fill="#373B42"/>
<path d="M517.038 448.687C518.584 447.794 519.834 448.529 519.839 450.306C519.844 452.107 518.603 454.257 517.056 455.15C515.469 456.066 514.22 455.355 514.215 453.554C514.21 451.777 515.451 449.603 517.038 448.687Z" fill="#373B42"/>
<path d="M484.504 474.007C486.088 473.093 487.37 470.872 487.365 469.052C487.36 467.232 486.069 466.496 484.486 467.411L453.824 485.115C452.241 486.029 450.963 488.248 450.968 490.068C450.973 491.888 452.259 492.626 453.843 491.712L484.504 474.007Z" fill="#373B42"/>
<path d="M351.783 526.639C351.537 526.639 351.337 526.439 351.337 526.193V493.545C351.337 493.299 351.537 493.1 351.783 493.1C352.028 493.1 352.228 493.299 352.228 493.545V526.193C352.229 526.439 352.028 526.639 351.783 526.639Z" fill="#373B42"/>
<path d="M116.751 390.039C116.505 390.039 116.305 389.84 116.305 389.593V356.948C116.305 356.701 116.505 356.502 116.751 356.502C116.996 356.502 117.196 356.701 117.196 356.948V389.593C117.197 389.84 116.996 390.039 116.751 390.039Z" fill="#373B42"/>
<path d="M288.423 467.726C291.018 469.225 293.112 472.853 293.104 475.836C293.095 478.818 290.987 480.02 288.392 478.521L237.988 449.412C235.393 447.913 233.298 444.285 233.307 441.302C233.315 438.32 235.423 437.118 238.019 438.617L288.423 467.726Z" fill="#F0F2F5"/>
<path d="M288.359 470.71C287.234 470.06 286.324 470.596 286.32 471.889C286.317 473.2 287.22 474.765 288.346 475.415C289.501 476.082 290.411 475.564 290.415 474.253C290.418 472.96 289.515 471.378 288.359 470.71Z" fill="#373B42"/>
<path d="M376.741 223.899L376.623 268.674C376.623 270.003 376.147 270.935 375.393 271.371L361.415 279.501C361.534 279.422 361.653 279.342 361.772 279.243C362.089 278.946 362.347 278.53 362.485 278.014C362.485 277.994 362.505 277.974 362.505 277.935C362.545 277.816 362.565 277.697 362.585 277.558C362.624 277.32 362.644 277.082 362.644 276.804L362.783 232.009C362.783 229.332 360.899 226.061 358.58 224.732L319.598 202.225C318.924 201.829 318.27 201.65 317.695 201.65C317.377 201.65 317.1 201.71 316.842 201.809C316.803 201.829 316.782 201.829 316.743 201.848L330.563 193.797C331.336 193.361 332.387 193.421 333.577 194.095L372.538 216.602C374.878 217.949 376.761 221.222 376.741 223.899Z" fill="#BEC4CD"/>
<path d="M361.414 279.946C361.264 279.946 361.119 279.872 361.034 279.736C360.907 279.53 360.966 279.261 361.168 279.129C361.274 279.058 361.379 278.989 361.485 278.902C361.741 278.659 361.945 278.307 362.055 277.899C362.058 277.884 362.061 277.87 362.067 277.857C362.07 277.836 362.075 277.817 362.08 277.796C362.112 277.702 362.128 277.608 362.141 277.497C362.18 277.269 362.197 277.055 362.197 276.804L362.337 232.007C362.337 229.467 360.551 226.375 358.357 225.118L319.374 202.61C318.537 202.119 317.72 201.947 317.002 202.224C316.792 202.335 316.497 202.266 316.379 202.054C316.262 201.842 316.309 201.585 316.518 201.463L330.338 193.412C331.291 192.873 332.515 192.982 333.795 193.707L372.76 216.216C375.221 217.632 377.207 221.079 377.187 223.899L377.069 268.675C377.069 270.119 376.553 271.214 375.616 271.756L361.638 279.886C361.567 279.927 361.49 279.946 361.414 279.946ZM362.934 278.057C362.931 278.074 362.925 278.092 362.922 278.108L375.169 270.985C375.82 270.609 376.177 269.788 376.177 268.674L376.296 223.898C376.296 223.897 376.296 223.896 376.296 223.895C376.313 221.361 374.528 218.262 372.314 216.988L333.353 194.48C332.358 193.919 331.444 193.811 330.782 194.185L318.551 201.312C318.974 201.416 319.404 201.593 319.824 201.841L358.801 224.346C361.241 225.743 363.228 229.181 363.228 232.009L363.089 276.806C363.089 277.109 363.068 277.37 363.023 277.632C363.004 277.781 362.978 277.919 362.934 278.057Z" fill="#373B42"/>
<path d="M362.782 232.009L362.643 276.804C362.643 277.082 362.623 277.319 362.583 277.557C362.563 277.697 362.544 277.815 362.504 277.934C362.504 277.974 362.484 277.994 362.484 278.013C362.345 278.529 362.088 278.946 361.77 279.243C361.651 279.342 361.532 279.421 361.413 279.501C360.64 279.957 359.589 279.877 358.419 279.203L319.438 256.697C317.098 255.348 315.215 252.096 315.215 249.419L315.354 204.643C315.354 203.236 315.869 202.284 316.702 201.867C316.722 201.867 316.722 201.848 316.742 201.848C316.781 201.828 316.801 201.828 316.841 201.808C317.098 201.709 317.376 201.649 317.693 201.649C318.268 201.649 318.922 201.828 319.597 202.224L358.578 224.731C360.898 226.06 362.782 229.331 362.782 232.009Z" fill="white"/>
<path d="M360.311 280.231C359.653 280.231 358.935 280.015 358.197 279.59L319.216 257.083C316.722 255.646 314.77 252.28 314.77 249.42L314.909 204.642C314.909 203.111 315.475 201.984 316.503 201.469C316.509 201.465 316.516 201.462 316.523 201.459C316.534 201.454 316.544 201.45 316.555 201.444C316.584 201.431 316.633 201.411 316.652 201.405C317.708 200.994 318.751 201.21 319.824 201.841L358.801 224.346C361.241 225.743 363.228 229.181 363.228 232.009C363.228 232.009 363.228 232.009 363.228 232.01L363.089 276.806C363.089 277.109 363.068 277.37 363.023 277.632C363.004 277.781 362.977 277.92 362.934 278.057C362.929 278.079 362.923 278.1 362.918 278.12C362.916 278.123 362.916 278.126 362.915 278.129C362.763 278.698 362.473 279.196 362.075 279.569C361.926 279.696 361.793 279.785 361.659 279.873C361.253 280.113 360.799 280.231 360.311 280.231ZM316.903 202.266C316.193 202.622 315.801 203.466 315.801 204.643L315.661 249.421C315.661 251.948 317.455 255.04 319.662 256.31L358.643 278.818C359.639 279.392 360.544 279.497 361.187 279.117C361.274 279.058 361.379 278.989 361.485 278.901C361.741 278.659 361.945 278.307 362.054 277.899C362.058 277.884 362.061 277.87 362.066 277.857C362.07 277.836 362.075 277.816 362.08 277.796C362.112 277.702 362.127 277.607 362.141 277.497C362.179 277.269 362.197 277.055 362.197 276.804L362.336 232.008C362.336 229.465 360.551 226.375 358.357 225.118L319.374 202.61C318.537 202.119 317.72 201.947 317.002 202.224C316.98 202.236 316.948 202.249 316.915 202.259C316.912 202.262 316.907 202.263 316.903 202.266Z" fill="#373B42"/>
<path d="M404.656 252.354C404.577 252.374 404.498 252.394 404.438 252.414C404.458 252.394 404.498 252.394 404.518 252.374C404.557 252.374 404.617 252.354 404.656 252.354Z" fill="white"/>
<path d="M404.437 252.86C404.284 252.86 404.139 252.782 404.056 252.645C403.948 252.466 403.977 252.236 404.129 252.092C404.167 252.055 404.239 252.013 404.296 251.986C404.362 251.949 404.439 251.928 404.517 251.928C404.764 251.873 405.066 252.046 405.097 252.298C405.125 252.521 404.982 252.73 404.764 252.786L404.747 252.79C404.686 252.806 404.625 252.821 404.58 252.837C404.533 252.852 404.484 252.86 404.437 252.86Z" fill="#373B42"/>
<path d="M464.382 274.484L464.243 319.28C464.243 320.608 463.787 321.54 463.014 321.976L449.055 330.107C449.134 330.047 449.214 330.007 449.273 329.948C449.392 329.849 449.511 329.73 449.61 329.611C449.709 329.472 449.808 329.333 449.888 329.175C449.967 329.036 450.027 328.877 450.086 328.719C450.145 328.52 450.205 328.302 450.225 328.064C450.264 327.846 450.284 327.628 450.284 327.39L450.403 282.614C450.403 279.937 448.54 276.666 446.2 275.317L407.218 252.81C406.267 252.255 405.374 252.116 404.66 252.354C404.621 252.354 404.561 252.374 404.521 252.374L418.183 244.403C418.956 243.947 420.027 244.026 421.197 244.7L460.178 267.207C462.498 268.535 464.382 271.807 464.382 274.484Z" fill="#BEC4CD"/>
<path d="M449.055 330.552C448.911 330.552 448.772 330.483 448.685 330.355C448.554 330.16 448.597 329.896 448.784 329.753C448.792 329.746 448.892 329.677 448.902 329.671C449.085 329.522 449.186 329.424 449.27 329.325C449.338 329.227 449.423 329.111 449.489 328.977C449.57 328.834 449.618 328.698 449.669 328.563C449.709 328.424 449.765 328.228 449.782 328.024C449.82 327.794 449.839 327.6 449.839 327.389L449.958 282.613C449.958 280.068 448.173 276.968 445.978 275.703L406.996 253.196C406.188 252.725 405.406 252.574 404.801 252.777C404.756 252.792 404.707 252.8 404.66 252.8C404.469 252.867 404.157 252.728 404.093 252.49C404.04 252.295 404.124 252.09 404.298 251.989L417.959 244.017C418.898 243.463 420.126 243.568 421.42 244.312L460.402 266.82C462.842 268.217 464.828 271.656 464.828 274.483C464.828 274.484 464.828 274.484 464.828 274.485L464.69 319.281C464.69 320.739 464.173 321.833 463.234 322.364L449.281 330.491C449.209 330.533 449.132 330.552 449.055 330.552ZM406.206 251.907C406.612 252.009 407.029 252.182 407.443 252.425L446.424 274.93C448.906 276.361 450.85 279.736 450.85 282.615L450.731 327.391C450.731 327.654 450.708 327.898 450.665 328.141C450.649 328.333 450.604 328.531 450.55 328.72L462.79 321.591C463.443 321.222 463.798 320.403 463.798 319.28L463.936 274.483C463.936 271.94 462.151 268.85 459.958 267.593L420.974 245.085C419.973 244.508 419.062 244.403 418.41 244.787L406.206 251.907Z" fill="#373B42"/>
<path d="M450.401 282.614L450.282 327.39C450.282 327.628 450.262 327.846 450.222 328.064C450.203 328.302 450.143 328.52 450.084 328.719C450.024 328.877 449.965 329.036 449.885 329.175C449.806 329.333 449.707 329.472 449.608 329.611C449.509 329.73 449.39 329.849 449.27 329.948C449.211 330.007 449.132 330.047 449.053 330.107C448.299 330.563 447.228 330.503 446.039 329.809L407.057 307.303C404.737 305.954 402.834 302.682 402.854 300.005L402.973 255.23C402.992 253.901 403.448 252.969 404.222 252.533C404.281 252.493 404.341 252.454 404.4 252.433C404.42 252.433 404.42 252.414 404.44 252.414C404.46 252.394 404.5 252.394 404.519 252.375C404.559 252.375 404.618 252.355 404.658 252.355C405.372 252.117 406.264 252.256 407.216 252.811L446.198 275.317C448.537 276.665 450.401 279.937 450.401 282.614Z" fill="white"/>
<path d="M447.952 330.843C447.285 330.843 446.553 330.625 445.815 330.194L406.834 307.688C404.371 306.257 402.386 302.81 402.408 300.002L402.527 255.229C402.548 253.762 403.072 252.669 404.002 252.144C404.049 252.112 404.128 252.061 404.225 252.023C404.232 252.019 404.239 252.016 404.246 252.013C404.263 252.004 404.282 251.995 404.298 251.987C404.364 251.949 404.441 251.929 404.519 251.929C404.53 251.925 404.54 251.922 404.55 251.92C405.402 251.651 406.424 251.831 407.44 252.426L446.421 274.931C448.902 276.362 450.846 279.737 450.846 282.615V282.616L450.728 327.391C450.728 327.655 450.705 327.899 450.662 328.142C450.643 328.376 450.578 328.621 450.51 328.846C450.434 329.057 450.364 329.238 450.272 329.397C450.197 329.55 450.087 329.707 449.976 329.863C449.835 330.036 449.695 330.174 449.556 330.289C449.519 330.331 449.446 330.379 449.389 330.416C449.384 330.42 449.288 330.486 449.284 330.488C448.892 330.725 448.44 330.843 447.952 330.843ZM404.537 252.859C404.521 252.87 404.45 252.916 404.441 252.921C403.798 253.283 403.435 254.105 403.419 255.236L403.3 300.007C403.281 302.488 405.105 305.652 407.282 306.917L446.263 329.423C447.254 330 448.185 330.11 448.821 329.726L448.955 329.633C449.082 329.523 449.183 329.424 449.267 329.325C449.335 329.228 449.42 329.112 449.487 328.978C449.567 328.834 449.615 328.698 449.666 328.563C449.706 328.425 449.762 328.229 449.779 328.025C449.817 327.794 449.837 327.601 449.837 327.39L449.955 282.614C449.955 280.069 448.17 276.968 445.976 275.703L406.993 253.196C406.185 252.725 405.403 252.575 404.799 252.777C404.753 252.792 404.701 252.777 404.661 252.802C404.658 252.803 404.656 252.804 404.654 252.805C404.614 252.831 404.573 252.848 404.537 252.859Z" fill="#373B42"/>
<path d="M491.962 303.06C491.942 303.06 491.942 303.079 491.922 303.099C491.882 303.099 491.862 303.099 491.843 303.119L491.962 303.06Z" fill="white"/>
<path d="M491.841 303.564C491.702 303.564 491.566 303.499 491.479 303.379C491.352 303.202 491.371 302.958 491.526 302.803C491.556 302.774 491.598 302.747 491.645 302.725L491.643 302.719L491.667 302.707C491.761 302.627 491.897 302.613 491.96 302.613C492.167 302.613 492.347 302.755 492.394 302.956C492.432 303.118 492.378 303.282 492.259 303.388C492.254 303.396 492.249 303.402 492.244 303.407C492.174 303.48 492.084 303.527 491.984 303.54C491.937 303.556 491.89 303.564 491.841 303.564Z" fill="#373B42"/>
<path d="M552.001 325.09L551.882 369.866C551.882 371.194 551.406 372.126 550.653 372.582L536.852 380.574C536.912 380.534 536.971 380.474 537.031 380.435C537.348 380.137 537.586 379.721 537.745 379.205C537.745 379.186 537.765 379.166 537.765 379.126C537.804 379.007 537.824 378.888 537.844 378.749C537.883 378.511 537.904 378.274 537.904 377.996L538.022 333.221C538.042 330.543 536.159 327.271 533.839 325.923L494.857 303.416C493.866 302.841 492.954 302.722 492.24 302.98C492.181 302.98 492.141 302.98 492.081 303.02C492.062 303.02 492.022 303.02 492.002 303.039L505.822 295.008C506.595 294.552 507.646 294.612 508.816 295.286L547.798 317.793C550.137 319.141 552.02 322.413 552.001 325.09Z" fill="#BEC4CD"/>
<path d="M536.854 381.019C536.706 381.019 536.562 380.945 536.476 380.81C536.349 380.607 536.405 380.339 536.605 380.204C536.697 380.128 536.741 380.093 536.783 380.065C536.983 379.869 537.182 379.523 537.319 379.077C537.321 379.069 537.323 379.062 537.324 379.055C537.328 379.03 537.335 379.006 537.342 378.983C537.375 378.889 537.387 378.793 537.405 378.683C537.441 378.46 537.458 378.246 537.458 377.995L537.577 333.219C537.596 330.689 535.82 327.59 533.615 326.309L494.636 303.802C493.805 303.322 493.007 303.175 492.393 303.399C492.352 303.413 492.311 303.422 492.269 303.425C492.231 303.443 492.189 303.455 492.145 303.461C491.969 303.521 491.76 303.463 491.644 303.303C491.508 303.12 491.534 302.864 491.701 302.71C491.722 302.691 491.75 302.673 491.782 302.656L491.778 302.653L505.598 294.622C506.544 294.067 507.766 294.164 509.039 294.9L548.022 317.407C550.483 318.826 552.468 322.272 552.447 325.091L552.329 369.866C552.329 371.3 551.815 372.4 550.885 372.964L537.078 380.959C537.008 381 536.931 381.019 536.854 381.019ZM538.195 379.245C538.192 379.26 538.188 379.274 538.185 379.287L550.43 372.196C551.076 371.805 551.437 370.975 551.437 369.865L551.555 325.089C551.555 325.088 551.555 325.087 551.555 325.087C551.574 322.553 549.789 319.455 547.576 318.179L508.593 295.672C507.612 295.106 506.707 295.005 506.049 295.392L493.807 302.506C494.223 302.606 494.653 302.781 495.082 303.03L534.063 325.537C536.515 326.962 538.492 330.411 538.469 333.223L538.35 377.996C538.35 378.3 538.33 378.561 538.284 378.823C538.261 378.974 538.239 379.11 538.195 379.245Z" fill="#373B42"/>
<path d="M538.024 333.219L537.905 377.995C537.905 378.273 537.885 378.51 537.845 378.748C537.826 378.887 537.806 379.006 537.766 379.125C537.766 379.164 537.746 379.185 537.746 379.204C537.588 379.72 537.35 380.136 537.032 380.434C536.973 380.473 536.914 380.533 536.854 380.573C536.795 380.632 536.735 380.672 536.676 380.692C535.902 381.148 534.852 381.068 533.682 380.394L494.7 357.888C492.36 356.559 490.477 353.287 490.477 350.61L490.616 305.834C490.616 304.446 491.111 303.494 491.924 303.098C491.944 303.078 491.944 303.058 491.964 303.058C491.984 303.058 491.984 303.058 492.003 303.038C492.023 303.019 492.063 303.019 492.083 303.019C492.142 302.979 492.182 302.979 492.241 302.979C492.955 302.721 493.867 302.84 494.859 303.415L533.84 325.922C536.16 327.27 538.044 330.542 538.024 333.219Z" fill="white"/>
<path d="M535.597 381.433C534.949 381.433 534.216 381.217 533.459 380.781L494.478 358.273C492.027 356.883 490.031 353.444 490.031 350.61L490.169 305.833C490.169 304.352 490.686 303.262 491.63 302.748C491.684 302.679 491.754 302.641 491.836 302.624C491.872 302.608 491.909 302.595 491.947 302.587C492.029 302.553 492.102 302.54 492.16 302.536C493.015 302.257 494.046 302.43 495.082 303.03L534.063 325.537C536.515 326.962 538.49 330.408 538.469 333.221L538.351 377.996C538.351 378.3 538.33 378.561 538.285 378.823C538.262 378.974 538.239 379.11 538.196 379.245C538.191 379.266 538.187 379.286 538.182 379.303C538.179 379.314 538.177 379.325 538.173 379.335C537.989 379.933 537.708 380.412 537.337 380.76C537.332 380.765 537.236 380.84 537.229 380.845C537.189 380.88 537.146 380.915 537.104 380.943C537.053 381.003 536.937 381.076 536.813 381.116C536.465 381.326 536.052 381.432 535.597 381.433ZM492.2 303.449C492.175 303.468 492.148 303.486 492.119 303.499C491.437 303.831 491.06 304.661 491.06 305.834L490.923 350.612C490.923 353.157 492.717 356.249 494.92 357.5L533.904 380.009C534.897 380.581 535.803 380.689 536.449 380.307C536.468 380.289 536.583 380.218 536.606 380.204C536.698 380.127 536.742 380.092 536.783 380.065C536.983 379.869 537.182 379.522 537.32 379.076C537.321 379.068 537.323 379.062 537.325 379.054C537.328 379.03 537.335 379.005 537.342 378.982C537.375 378.888 537.387 378.792 537.405 378.683C537.441 378.46 537.459 378.245 537.459 377.995L537.577 333.219C537.577 333.218 537.577 333.217 537.577 333.216C537.596 330.688 535.82 327.589 533.615 326.308L494.636 303.801C493.805 303.321 493.008 303.174 492.393 303.399C492.353 303.413 492.311 303.422 492.269 303.424C492.247 303.434 492.224 303.443 492.2 303.449Z" fill="#373B42"/>
<path d="M347.327 161.573L353.835 157.791L353.688 209.412L347.181 213.195L347.327 161.573Z" fill="#F0F2F5"/>
<path d="M347.181 213.641C347.104 213.641 347.028 213.621 346.958 213.581C346.821 213.501 346.735 213.353 346.735 213.194L346.882 161.572C346.882 161.413 346.967 161.267 347.103 161.187L353.611 157.405C353.75 157.325 353.919 157.325 354.059 157.405C354.196 157.484 354.281 157.632 354.281 157.791L354.135 209.414C354.135 209.572 354.05 209.719 353.914 209.799L347.406 213.581C347.336 213.621 347.258 213.641 347.181 213.641ZM347.773 161.829L347.629 212.419L353.243 209.156L353.388 158.566L347.773 161.829Z" fill="#373B42"/>
<path d="M434.979 211.807L441.486 208.025L441.34 259.647L434.832 263.429L434.979 211.807Z" fill="#F0F2F5"/>
<path d="M434.832 263.875C434.756 263.875 434.679 263.855 434.61 263.814C434.472 263.735 434.387 263.587 434.387 263.428L434.533 211.805C434.533 211.647 434.618 211.501 434.754 211.421L441.261 207.639C441.4 207.559 441.569 207.559 441.708 207.639C441.846 207.718 441.931 207.866 441.931 208.025L441.785 259.648C441.785 259.806 441.699 259.953 441.564 260.033L435.057 263.814C434.987 263.855 434.909 263.875 434.832 263.875ZM435.424 212.063L435.28 262.653L440.893 259.39L441.038 208.8L435.424 212.063Z" fill="#373B42"/>
<path d="M340.796 150.258L347.303 146.476L434.957 196.71L428.449 200.492L340.796 150.258Z" fill="#F0F2F5"/>
<path d="M428.449 200.938C428.372 200.938 428.295 200.918 428.227 200.879L340.575 150.644C340.436 150.565 340.351 150.418 340.351 150.26C340.351 150.1 340.434 149.952 340.572 149.872L347.078 146.09C347.218 146.01 347.388 146.011 347.524 146.089L435.178 196.324C435.317 196.403 435.402 196.55 435.402 196.709C435.402 196.868 435.319 197.016 435.181 197.096L428.673 200.878C428.603 200.918 428.525 200.938 428.449 200.938ZM341.688 150.255L428.447 199.978L434.065 196.713L347.305 146.991L341.688 150.255Z" fill="#373B42"/>
<path d="M435.14 155.375L441.647 151.593L441.508 200.494L435.001 204.276L435.14 155.375Z" fill="#F0F2F5"/>
<path d="M435 204.722C434.924 204.722 434.847 204.702 434.778 204.662C434.64 204.583 434.555 204.434 434.555 204.275L434.694 155.375C434.694 155.216 434.779 155.07 434.915 154.99L441.422 151.208C441.561 151.128 441.73 151.128 441.869 151.208C442.007 151.287 442.092 151.435 442.092 151.595L441.955 200.495C441.955 200.654 441.869 200.8 441.733 200.88L435.225 204.662C435.155 204.702 435.077 204.722 435 204.722ZM435.586 155.633L435.448 203.5L441.063 200.237L441.199 152.37L435.586 155.633Z" fill="#373B42"/>
<path d="M428.584 151.592L435.091 147.81L441.644 151.593L435.137 155.375L428.584 151.592Z" fill="white"/>
<path d="M435.137 155.821C435.06 155.821 434.984 155.801 434.914 155.761L428.361 151.978C428.223 151.898 428.138 151.751 428.138 151.593C428.138 151.433 428.221 151.286 428.359 151.206L434.867 147.423C435.006 147.343 435.175 147.343 435.315 147.423L441.867 151.208C442.004 151.287 442.09 151.434 442.09 151.593C442.09 151.752 442.006 151.899 441.869 151.979L435.362 155.761C435.292 155.801 435.214 155.821 435.137 155.821ZM429.473 151.591L435.137 154.86L440.754 151.595L435.092 148.325L429.473 151.591Z" fill="#373B42"/>
<path d="M522.107 254.898L528.614 251.116L528.447 310.269L521.939 314.05L522.107 254.898Z" fill="#F0F2F5"/>
<path d="M521.938 314.497C521.861 314.497 521.785 314.477 521.715 314.436C521.578 314.357 521.492 314.209 521.492 314.05L521.661 254.897C521.661 254.738 521.746 254.592 521.882 254.512L528.389 250.73C528.528 250.65 528.697 250.65 528.836 250.73C528.974 250.809 529.059 250.957 529.059 251.117L528.892 310.27C528.892 310.428 528.807 310.575 528.671 310.655L522.163 314.436C522.093 314.477 522.015 314.497 521.938 314.497ZM522.552 255.155L522.385 313.275L528 310.012L528.166 251.892L522.552 255.155Z" fill="#373B42"/>
<path d="M435.001 204.276L441.508 200.494L528.614 251.116L522.107 254.898L435.001 204.276Z" fill="#F0F2F5"/>
<path d="M522.107 255.343C522.031 255.343 521.952 255.323 521.883 255.283L434.776 204.662C434.64 204.581 434.555 204.434 434.555 204.276C434.555 204.117 434.64 203.97 434.776 203.89L441.284 200.108C441.423 200.028 441.594 200.028 441.733 200.108L528.839 250.73C528.974 250.81 529.06 250.957 529.06 251.116C529.06 251.274 528.974 251.421 528.839 251.501L522.332 255.283C522.262 255.323 522.184 255.343 522.107 255.343ZM435.889 204.276L522.107 254.382L527.728 251.116L441.509 201.009L435.889 204.276Z" fill="#373B42"/>
<path d="M435.139 155.376L435.001 204.276L522.107 254.898L521.939 314.051L515.386 310.267L515.532 258.645L434.979 211.807L434.833 263.429L428.28 259.645L428.426 208.023L347.326 161.573L347.179 213.195L340.626 209.411L340.794 150.258L428.447 200.492L428.586 151.592L435.139 155.376Z" fill="#DBDEE4"/>
<path d="M521.938 314.497C521.861 314.497 521.785 314.477 521.715 314.437L515.163 310.653C515.025 310.574 514.94 310.426 514.94 310.266L515.086 258.901L435.423 212.581L435.278 263.43C435.278 263.589 435.193 263.737 435.055 263.816C434.916 263.894 434.749 263.895 434.61 263.815L428.056 260.031C427.919 259.952 427.833 259.804 427.833 259.645L427.979 208.281L347.769 162.34L347.625 213.195C347.625 213.355 347.539 213.502 347.402 213.581C347.263 213.66 347.095 213.66 346.956 213.581L340.403 209.796C340.265 209.717 340.18 209.569 340.18 209.409L340.349 150.257C340.349 150.098 340.434 149.952 340.571 149.872C340.711 149.792 340.88 149.793 341.016 149.872L428.002 199.724L428.14 151.591C428.14 151.432 428.225 151.285 428.363 151.206C428.502 151.127 428.669 151.126 428.808 151.206L435.362 154.99C435.5 155.069 435.585 155.217 435.585 155.377L435.446 204.02L522.331 254.512C522.469 254.592 522.552 254.74 522.552 254.899L522.383 314.052C522.383 314.211 522.298 314.358 522.161 314.437C522.091 314.477 522.014 314.497 521.938 314.497ZM515.832 310.01L521.494 313.28L521.661 255.154L434.775 204.662C434.637 204.582 434.554 204.434 434.554 204.275L434.693 155.633L429.029 152.363L428.892 200.493C428.892 200.653 428.807 200.799 428.669 200.878C428.53 200.958 428.361 200.957 428.225 200.879L341.238 151.026L341.071 209.153L346.735 212.424L346.879 161.571C346.879 161.412 346.965 161.266 347.102 161.186C347.242 161.106 347.41 161.107 347.546 161.186L428.646 207.636C428.786 207.716 428.871 207.864 428.871 208.024L428.725 259.389L434.389 262.658L434.533 211.806C434.533 211.647 434.619 211.499 434.758 211.42C434.894 211.342 435.064 211.341 435.204 211.421L515.757 258.259C515.894 258.339 515.978 258.487 515.978 258.645L515.832 310.01Z" fill="#373B42"/>
<path d="M466.721 125.821L466.602 170.597C466.602 171.925 466.126 172.857 465.373 173.293L451.394 181.424C451.474 181.364 451.553 181.305 451.632 181.265C451.751 181.165 451.87 181.046 451.97 180.908C452.069 180.809 452.148 180.67 452.207 180.531C452.247 180.472 452.287 180.412 452.306 180.353C452.366 180.253 452.386 180.174 452.426 180.055C452.426 180.036 452.445 179.996 452.445 179.956C452.505 179.797 452.545 179.619 452.564 179.421C452.604 179.203 452.624 178.965 452.624 178.707L452.763 133.932C452.763 131.254 450.879 128.002 448.559 126.654L409.578 104.147C408.586 103.572 407.674 103.433 406.961 103.711C406.901 103.711 406.842 103.731 406.802 103.731L420.542 95.7395C421.316 95.283 422.367 95.3429 423.556 96.0367L462.538 118.544C464.857 119.892 466.741 123.144 466.721 125.821Z" fill="#BEC4CD"/>
<path d="M451.393 181.869C451.249 181.869 451.108 181.799 451.022 181.67C450.892 181.473 450.937 181.208 451.125 181.066C451.228 180.99 451.332 180.916 451.433 180.866C451.453 180.833 451.541 180.741 451.607 180.648C451.681 180.565 451.735 180.499 451.797 180.356C451.799 180.351 451.883 180.209 451.886 180.205C451.947 180.084 451.958 180.052 451.985 179.965C451.985 179.912 452.008 179.851 452.027 179.801C452.074 179.676 452.106 179.534 452.12 179.378C452.161 179.146 452.177 178.936 452.177 178.707L452.316 133.93C452.316 131.408 450.529 128.316 448.333 127.039L409.354 104.533C408.506 104.041 407.71 103.898 407.121 104.125C407.069 104.145 407.015 104.156 406.959 104.156C406.893 104.171 406.843 104.177 406.801 104.177C406.599 104.177 406.423 104.042 406.371 103.847C406.319 103.653 406.402 103.447 406.576 103.345L420.318 95.3539C421.265 94.7949 422.495 94.901 423.78 95.6519L462.761 118.158C465.212 119.582 467.188 123.02 467.167 125.825L467.047 170.598C467.047 172.042 466.532 173.136 465.596 173.679L451.618 181.81C451.547 181.85 451.47 181.869 451.393 181.869ZM408.546 103.232C408.95 103.335 409.372 103.511 409.802 103.761L448.781 126.267C451.265 127.711 453.208 131.077 453.208 133.932L453.069 178.709C453.069 178.993 453.046 179.258 453.003 179.501C452.987 179.673 452.949 179.862 452.89 180.038L465.149 172.907C465.798 172.531 466.156 171.711 466.156 170.597L466.276 125.82C466.276 125.819 466.276 125.818 466.276 125.818C466.293 123.299 464.517 120.209 462.313 118.93L423.333 96.4227C422.336 95.8428 421.429 95.7338 420.769 96.124L408.546 103.232Z" fill="#373B42"/>
<path d="M452.76 133.931L452.622 178.706C452.622 178.964 452.602 179.202 452.562 179.42C452.543 179.619 452.503 179.797 452.443 179.956C452.443 179.996 452.424 180.035 452.424 180.054C452.384 180.173 452.364 180.253 452.305 180.352C452.285 180.412 452.245 180.471 452.205 180.531C452.146 180.669 452.067 180.808 451.968 180.907C451.868 181.046 451.749 181.165 451.63 181.264C451.551 181.304 451.472 181.363 451.392 181.423C450.639 181.859 449.568 181.799 448.398 181.125L409.417 158.619C407.097 157.271 405.193 154.018 405.213 151.341L405.332 106.546C405.332 105.178 405.828 104.226 406.64 103.829C406.64 103.809 406.66 103.809 406.68 103.789C406.7 103.789 406.72 103.77 406.72 103.77H406.739C406.819 103.73 406.878 103.71 406.958 103.71C407.671 103.433 408.583 103.572 409.575 104.147L448.556 126.653C450.877 128.001 452.76 131.254 452.76 133.931Z" fill="white"/>
<path d="M450.283 182.141C449.618 182.141 448.898 181.928 448.176 181.512L409.195 159.005C406.734 157.575 404.748 154.136 404.768 151.338L404.888 106.546C404.888 105.088 405.426 103.972 406.368 103.468C406.387 103.453 406.405 103.439 406.426 103.426C406.48 103.375 406.523 103.355 406.579 103.348C406.591 103.345 406.601 103.341 406.614 103.337C406.685 103.307 406.767 103.28 406.864 103.27C407.713 102.971 408.724 103.137 409.801 103.762L448.78 126.268C451.264 127.712 453.207 131.077 453.207 133.932C453.207 133.933 453.207 133.933 453.207 133.934L453.068 178.709C453.068 178.994 453.045 179.258 453.002 179.501C452.984 179.686 452.941 179.89 452.875 180.078C452.869 180.108 452.862 180.137 452.857 180.154C452.801 180.341 452.767 180.451 452.688 180.581C452.69 180.612 452.624 180.709 452.575 180.781C452.525 180.921 452.413 181.096 452.284 181.224C452.222 181.321 452.082 181.469 451.917 181.607C451.774 181.692 451.718 181.738 451.661 181.781C451.246 182.022 450.779 182.141 450.283 182.141ZM406.931 104.169C406.903 104.192 406.872 104.213 406.837 104.23C406.164 104.558 405.779 105.402 405.779 106.546L405.659 151.342C405.642 153.856 407.427 156.947 409.642 158.233L448.621 180.74C449.597 181.301 450.525 181.41 451.17 181.038C451.227 180.99 451.331 180.917 451.432 180.866C451.452 180.833 451.54 180.741 451.607 180.649C451.68 180.566 451.734 180.5 451.796 180.356C451.798 180.352 451.882 180.21 451.885 180.206C451.946 180.085 451.957 180.052 451.984 179.965C451.984 179.912 452.007 179.851 452.026 179.802C452.073 179.676 452.105 179.534 452.119 179.378C452.16 179.147 452.176 178.936 452.176 178.707L452.315 133.931C452.315 131.407 450.528 128.316 448.332 127.039L409.353 104.533C408.505 104.041 407.709 103.898 407.12 104.126C407.068 104.146 407.014 104.156 406.959 104.156C406.95 104.16 406.939 104.165 406.931 104.169Z" fill="#373B42"/>
<path d="M432.076 140.676C434.449 139.3 434.445 134.862 432.068 130.764C429.691 126.666 425.841 124.459 423.469 125.836C421.096 127.212 421.1 131.649 423.476 135.747C425.853 139.845 429.703 142.052 432.076 140.676Z" fill="#DA0000"/>
<path d="M415.102 151.497C415.126 142.678 421.362 139.121 429.029 143.552C436.696 147.983 442.891 158.723 442.866 167.542L415.102 151.497Z" fill="#DA0000"/>
<path d="M342.09 238.479C344.462 237.103 344.459 232.666 342.082 228.568C339.705 224.47 335.855 222.263 333.482 223.639C331.11 225.015 331.113 229.453 333.49 233.551C335.867 237.649 339.717 239.855 342.09 238.479Z" fill="#DA0000"/>
<path d="M325.117 249.306C325.142 240.487 331.377 236.931 339.045 241.362C346.712 245.793 352.907 256.533 352.882 265.351L325.117 249.306Z" fill="#DA0000"/>
<path d="M431.672 288.91C434.044 287.534 434.041 283.096 431.664 278.998C429.287 274.9 425.437 272.694 423.064 274.07C420.692 275.446 420.695 279.884 423.072 283.982C425.449 288.08 429.299 290.286 431.672 288.91Z" fill="#DA0000"/>
<path d="M414.707 299.734C414.732 290.915 420.967 287.359 428.635 291.79C436.302 296.221 442.496 306.961 442.472 315.78L414.707 299.734Z" fill="#DA0000"/>
<path d="M517.329 338.988C519.702 337.612 519.698 333.174 517.321 329.076C514.944 324.978 511.094 322.772 508.722 324.148C506.349 325.524 506.353 329.962 508.729 334.06C511.106 338.158 514.956 340.364 517.329 338.988Z" fill="#DA0000"/>
<path d="M500.365 349.81C500.39 340.991 506.625 337.434 514.293 341.865C521.96 346.297 528.155 357.036 528.13 365.855L500.365 349.81Z" fill="#DA0000"/>
<path d="M243.498 333.491C236.154 337.731 236.116 344.607 243.411 348.848C250.707 353.088 262.578 353.088 269.921 348.848C277.265 344.607 277.303 337.731 270.008 333.491C262.712 329.25 250.841 329.25 243.498 333.491Z" fill="#BEC4CD"/>
<path d="M442.482 458.16C452.835 458.131 461.214 453.246 461.197 447.249C461.18 441.252 452.774 436.414 442.421 436.443C432.068 436.472 423.689 441.357 423.706 447.354C423.723 453.351 432.129 458.189 442.482 458.16Z" fill="#BEC4CD"/>
<path d="M442.407 458.57C437.526 458.57 432.651 457.495 428.945 455.342C425.286 453.215 423.274 450.361 423.277 447.305C423.282 444.228 425.325 441.355 429.033 439.213C436.491 434.907 448.583 434.909 455.992 439.213C459.651 441.341 461.662 444.195 461.659 447.251C461.654 450.327 459.611 453.201 455.903 455.342C452.176 457.495 447.287 458.57 442.407 458.57ZM429.479 439.985C426.059 441.961 424.173 444.561 424.169 447.306C424.165 450.03 426.02 452.611 429.394 454.571C436.556 458.733 448.247 458.733 455.457 454.571C458.878 452.595 460.764 449.995 460.768 447.25C460.771 444.525 458.916 441.945 455.543 439.985C448.381 435.822 436.69 435.822 429.479 439.985Z" fill="#373B42"/>
<path d="M277.183 353.055C260.321 362.791 254.162 376.399 258.767 388.93C280.371 391.632 303.87 388.101 320.732 378.365C337.582 368.636 343.742 355.041 339.159 342.51C317.533 339.808 294.033 343.325 277.183 353.055Z" fill="#DA0000"/>
<path d="M273.023 390.231C255.692 390.231 238.386 386.41 225.236 378.769C212.453 371.339 205.422 361.435 205.438 350.881C205.451 340.254 212.597 330.281 225.55 322.802C252.024 307.513 294.967 307.513 321.278 322.802C334.058 330.23 341.087 340.131 341.071 350.682C341.057 361.308 333.911 371.281 320.954 378.763C307.712 386.409 290.355 390.231 273.023 390.231ZM225.996 323.574C213.329 330.887 206.343 340.587 206.329 350.882C206.314 361.104 213.188 370.735 225.686 377.997C251.74 393.142 294.275 393.136 320.508 377.991C333.18 370.675 340.165 360.975 340.179 350.68C340.195 340.461 333.322 330.834 320.828 323.574C294.768 308.426 252.226 308.427 225.996 323.574Z" fill="#373B42"/>
<path d="M338.156 399.461C362.573 385.267 386.991 371.073 411.408 356.88Z" fill="white"/>
<path d="M338.156 399.907C338.003 399.907 337.853 399.828 337.772 399.685C337.648 399.472 337.719 399.199 337.932 399.075L411.182 356.494C411.395 356.371 411.668 356.441 411.792 356.656C411.915 356.869 411.844 357.142 411.631 357.266L338.381 399.847C338.31 399.888 338.233 399.907 338.156 399.907Z" fill="#373B42"/>
<path d="M288.227 428.485C300.078 421.595 311.93 414.706 323.782 407.816Z" fill="white"/>
<path d="M288.227 428.93C288.073 428.93 287.924 428.851 287.842 428.708C287.718 428.496 287.79 428.222 288.002 428.099L323.557 407.43C323.77 407.307 324.043 407.378 324.166 407.592C324.29 407.805 324.219 408.078 324.006 408.202L288.451 428.87C288.38 428.911 288.303 428.93 288.227 428.93Z" fill="#373B42"/>
<path d="M390.699 384.986C402.304 378.241 413.908 371.495 425.512 364.75Z" fill="white"/>
<path d="M390.699 385.432C390.546 385.432 390.396 385.353 390.315 385.21C390.191 384.997 390.262 384.724 390.475 384.6L425.288 364.364C425.502 364.24 425.774 364.31 425.897 364.525C426.021 364.738 425.949 365.011 425.737 365.135L390.924 385.372C390.853 385.412 390.776 385.432 390.699 385.432Z" fill="#373B42"/>
<path d="M302.33 436.355C326.85 422.101 351.37 407.848 375.89 393.595Z" fill="white"/>
<path d="M302.33 436.8C302.177 436.8 302.027 436.721 301.945 436.578C301.822 436.366 301.893 436.092 302.106 435.969L375.666 393.209C375.879 393.086 376.152 393.156 376.276 393.371C376.399 393.583 376.328 393.856 376.116 393.98L302.555 436.74C302.483 436.781 302.407 436.8 302.33 436.8Z" fill="#373B42"/>
<path d="M354.903 421.861C383.141 405.446 411.377 389.032 439.615 372.618Z" fill="white"/>
<path d="M354.904 422.307C354.751 422.307 354.601 422.227 354.52 422.085C354.396 421.872 354.467 421.599 354.68 421.475L439.39 372.233C439.604 372.109 439.876 372.179 440 372.395C440.123 372.607 440.052 372.88 439.839 373.004L355.129 422.246C355.058 422.287 354.981 422.307 354.904 422.307Z" fill="#373B42"/>
<path d="M316.433 444.224C324.379 439.604 332.326 434.985 340.273 430.365Z" fill="white"/>
<path d="M316.434 444.67C316.28 444.67 316.131 444.591 316.049 444.448C315.925 444.235 315.997 443.963 316.209 443.839L340.048 429.98C340.261 429.856 340.534 429.927 340.658 430.142C340.781 430.354 340.71 430.627 340.498 430.751L316.658 444.61C316.587 444.651 316.51 444.67 316.434 444.67Z" fill="#373B42"/>
<path d="M427.773 395.568C436.421 390.542 445.068 385.515 453.715 380.488Z" fill="white"/>
<path d="M427.774 396.014C427.62 396.014 427.47 395.935 427.389 395.792C427.265 395.579 427.337 395.306 427.549 395.182L453.49 380.102C453.704 379.979 453.976 380.05 454.1 380.264C454.223 380.477 454.152 380.75 453.939 380.874L427.998 395.953C427.927 395.995 427.85 396.014 427.774 396.014Z" fill="#373B42"/>
<path d="M330.533 452.092C358.141 436.043 385.75 419.995 413.358 403.946Z" fill="white"/>
<path d="M330.533 452.538C330.38 452.538 330.23 452.459 330.149 452.316C330.025 452.103 330.096 451.83 330.309 451.706L413.133 403.561C413.347 403.438 413.619 403.509 413.742 403.723C413.866 403.936 413.795 404.209 413.582 404.333L330.758 452.478C330.686 452.519 330.61 452.538 330.533 452.538Z" fill="#373B42"/>
<g opacity="0.1">
<path d="M178.634 209.499C193.618 218.149 193.696 232.181 178.803 240.836C163.91 249.49 139.694 249.486 124.71 240.836C109.719 232.181 109.627 218.149 124.52 209.495C139.413 200.84 163.643 200.844 178.634 209.499Z" fill="black"/>
</g>
<path d="M113.399 218.764C113.387 224.472 117.15 230.192 124.703 234.542C130.547 237.92 137.788 239.976 145.341 240.712C149.528 241.136 153.816 241.136 158.002 240.736C165.629 240.013 172.932 237.944 178.79 234.542C186.193 230.242 189.895 224.622 189.908 218.988L189.933 205.117C189.92 210.763 186.219 216.383 178.815 220.684C172.945 224.098 165.63 226.167 158.002 226.878C153.815 227.277 149.528 227.278 145.341 226.853C137.801 226.118 130.56 224.049 124.727 220.684C117.187 216.346 113.424 210.638 113.424 204.919L113.399 218.764Z" fill="#BEC4CD"/>
<path d="M145.34 226.852V240.71C149.527 241.134 153.815 241.134 158.001 240.735V226.876C153.815 227.274 149.527 227.274 145.34 226.852Z" fill="#DBDEE4"/>
<path d="M151.784 241.461C141.909 241.461 132.022 239.285 124.479 234.93C117.028 230.629 112.936 224.885 112.955 218.754L112.98 204.922C112.98 204.913 112.98 204.904 112.98 204.895C112.98 204.648 113.18 204.45 113.426 204.45C113.426 204.45 113.426 204.45 113.428 204.45C113.673 204.451 113.873 204.649 113.873 204.896V204.921C113.867 210.707 117.8 216.168 124.951 220.297C139.789 228.865 163.856 228.863 178.596 220.297C185.607 216.224 189.477 210.833 189.494 205.118C189.494 204.873 189.694 204.674 189.94 204.674C190.185 204.676 190.385 204.874 190.385 205.121V205.122L190.359 218.982C190.341 225.024 186.315 230.689 179.02 234.93C171.524 239.285 161.66 241.461 151.784 241.461ZM113.862 209.79L113.846 218.757C113.828 224.553 117.764 230.023 124.925 234.158C139.763 242.726 163.829 242.725 178.569 234.158C185.581 230.084 189.451 224.694 189.466 218.98L189.484 209.977C187.917 214.159 184.341 217.99 179.043 221.07C164.057 229.779 139.591 229.782 124.504 221.07C119.079 217.939 115.436 214.044 113.862 209.79Z" fill="#373B42"/>
<path d="M178.65 189.348C193.634 197.998 193.713 212.03 178.82 220.685C163.927 229.339 139.71 229.335 124.726 220.685C109.736 212.03 109.643 197.998 124.536 189.344C139.429 180.689 163.66 180.692 178.65 189.348Z" fill="white"/>
<path d="M151.808 227.602C141.933 227.602 132.046 225.425 124.503 221.071C117.08 216.785 112.988 211.061 112.98 204.953C112.971 198.891 116.996 193.211 124.312 188.958C139.302 180.249 163.778 180.249 178.873 188.963C186.287 193.244 190.376 198.963 190.385 205.068C190.393 211.132 186.365 216.817 179.043 221.071C171.55 225.425 161.686 227.602 151.808 227.602ZM151.549 183.304C141.833 183.304 132.131 185.446 124.762 189.73C117.732 193.815 113.862 199.222 113.872 204.952C113.88 210.727 117.814 216.178 124.951 220.299C139.789 228.867 163.855 228.866 178.595 220.299C185.631 216.211 189.5 210.802 189.493 205.069C189.485 199.296 185.555 193.85 178.427 189.734C171.003 185.447 161.268 183.304 151.549 183.304Z" fill="#373B42"/>
<path d="M113.399 218.764C113.387 224.472 117.15 230.192 124.703 234.542C130.547 237.92 137.788 239.976 145.341 240.712C149.528 241.136 153.816 241.136 158.002 240.736C165.629 240.013 172.932 237.944 178.79 234.542C186.193 230.242 189.895 224.622 189.908 218.988L189.933 205.117C189.92 210.763 186.219 216.383 178.815 220.684C172.945 224.098 165.63 226.167 158.002 226.878C153.815 227.277 149.528 227.278 145.341 226.853C137.801 226.118 130.56 224.049 124.727 220.684C117.187 216.346 113.424 210.638 113.424 204.919L113.399 218.764Z" fill="#BEC4CD"/>
<path d="M145.34 226.852V240.71C149.527 241.134 153.815 241.134 158.001 240.735V226.876C153.815 227.274 149.527 227.274 145.34 226.852Z" fill="#DBDEE4"/>
<path d="M151.784 241.461C141.909 241.461 132.022 239.285 124.479 234.93C117.028 230.629 112.936 224.885 112.955 218.754L112.98 204.922C112.98 204.913 112.98 204.904 112.98 204.895C112.98 204.648 113.18 204.45 113.426 204.45C113.426 204.45 113.426 204.45 113.428 204.45C113.673 204.451 113.873 204.649 113.873 204.896V204.921C113.867 210.707 117.8 216.168 124.951 220.297C139.789 228.865 163.856 228.863 178.596 220.297C185.607 216.224 189.477 210.833 189.494 205.118C189.494 204.873 189.694 204.674 189.94 204.674C190.185 204.676 190.385 204.874 190.385 205.121V205.122L190.359 218.982C190.341 225.024 186.315 230.689 179.02 234.93C171.524 239.285 161.66 241.461 151.784 241.461ZM113.862 209.79L113.846 218.757C113.828 224.553 117.764 230.023 124.925 234.158C139.763 242.726 163.829 242.725 178.569 234.158C185.581 230.084 189.451 224.694 189.466 218.98L189.484 209.977C187.917 214.159 184.341 217.99 179.043 221.07C164.057 229.779 139.591 229.782 124.504 221.07C119.079 217.939 115.436 214.044 113.862 209.79Z" fill="#373B42"/>
<path d="M178.65 189.348C193.634 197.998 193.713 212.03 178.82 220.685C163.927 229.339 139.71 229.335 124.726 220.685C109.736 212.03 109.643 197.998 124.536 189.344C139.429 180.689 163.66 180.692 178.65 189.348Z" fill="white"/>
<path d="M151.808 227.602C141.933 227.602 132.046 225.425 124.503 221.071C117.08 216.785 112.988 211.061 112.98 204.953C112.971 198.891 116.996 193.211 124.312 188.958C139.302 180.249 163.778 180.249 178.873 188.963C186.287 193.244 190.376 198.963 190.385 205.068C190.393 211.132 186.365 216.817 179.043 221.071C171.55 225.425 161.686 227.602 151.808 227.602ZM151.549 183.304C141.833 183.304 132.131 185.446 124.762 189.73C117.732 193.815 113.862 199.222 113.872 204.952C113.88 210.727 117.814 216.178 124.951 220.299C139.789 228.867 163.855 228.866 178.595 220.299C185.631 216.211 189.5 210.802 189.493 205.069C189.485 199.296 185.555 193.85 178.427 189.734C171.003 185.447 161.268 183.304 151.549 183.304Z" fill="#373B42"/>
<path d="M113.399 218.764C113.387 224.472 117.15 230.192 124.703 234.542C130.547 237.92 137.788 239.976 145.341 240.712C149.528 241.136 153.816 241.136 158.002 240.736C165.629 240.013 172.932 237.944 178.79 234.542C186.193 230.242 189.895 224.622 189.908 218.988L189.933 205.117C189.92 210.763 186.219 216.383 178.815 220.684C172.945 224.098 165.63 226.167 158.002 226.878C153.815 227.277 149.528 227.278 145.341 226.853C137.801 226.118 130.56 224.049 124.727 220.684C117.187 216.346 113.424 210.638 113.424 204.919L113.399 218.764Z" fill="#BEC4CD"/>
<path d="M145.34 226.852V240.71C149.527 241.134 153.815 241.134 158.001 240.735V226.876C153.815 227.274 149.527 227.274 145.34 226.852Z" fill="#F0F2F5"/>
<path d="M151.784 241.461C141.909 241.461 132.022 239.285 124.479 234.93C117.028 230.629 112.936 224.885 112.955 218.754L112.98 204.922C112.98 204.913 112.98 204.904 112.98 204.895C112.98 204.648 113.18 204.45 113.426 204.45C113.426 204.45 113.426 204.45 113.428 204.45C113.673 204.451 113.873 204.649 113.873 204.896V204.921C113.867 210.707 117.8 216.168 124.951 220.297C139.789 228.865 163.856 228.863 178.596 220.297C185.607 216.224 189.477 210.833 189.494 205.118C189.494 204.873 189.694 204.674 189.94 204.674C190.185 204.676 190.385 204.874 190.385 205.121V205.122L190.359 218.982C190.341 225.024 186.315 230.689 179.02 234.93C171.524 239.285 161.66 241.461 151.784 241.461ZM113.862 209.79L113.846 218.757C113.828 224.553 117.764 230.023 124.925 234.158C139.763 242.726 163.829 242.725 178.569 234.158C185.581 230.084 189.451 224.694 189.466 218.98L189.484 209.977C187.917 214.159 184.341 217.99 179.043 221.07C164.057 229.779 139.591 229.782 124.504 221.07C119.079 217.939 115.436 214.044 113.862 209.79Z" fill="#373B42"/>
<path d="M178.65 189.348C193.634 197.998 193.713 212.03 178.82 220.685C163.927 229.339 139.71 229.335 124.726 220.685C109.736 212.03 109.643 197.998 124.536 189.344C139.429 180.689 163.66 180.692 178.65 189.348Z" fill="white"/>
<path d="M151.808 227.602C141.933 227.602 132.046 225.425 124.503 221.071C117.08 216.785 112.988 211.061 112.98 204.953C112.971 198.891 116.996 193.211 124.312 188.958C139.302 180.249 163.778 180.249 178.873 188.963C186.287 193.244 190.376 198.963 190.385 205.068C190.393 211.132 186.365 216.817 179.043 221.071C171.55 225.425 161.686 227.602 151.808 227.602ZM151.549 183.304C141.833 183.304 132.131 185.446 124.762 189.73C117.732 193.815 113.862 199.222 113.872 204.952C113.88 210.727 117.814 216.178 124.951 220.299C139.789 228.867 163.855 228.866 178.595 220.299C185.631 216.211 189.5 210.802 189.493 205.069C189.485 199.296 185.555 193.85 178.427 189.734C171.003 185.447 161.268 183.304 151.549 183.304Z" fill="#373B42"/>
<g opacity="0.1">
<path d="M136.18 197.104C128.409 201.592 128.377 208.87 136.097 213.357C143.819 217.844 156.375 217.844 164.146 213.357C171.918 208.869 171.969 201.591 164.247 197.104C156.526 192.618 143.952 192.618 136.18 197.104Z" fill="black"/>
</g>
<path d="M199.097 86.5519L183.653 77.5765C183.072 77.239 182.291 77.2293 181.416 77.5888C176.409 79.6316 171.93 79.5021 168.53 77.5269L183.974 86.5023C187.374 88.4775 191.853 88.607 196.86 86.5643C197.736 86.2034 198.516 86.213 199.097 86.5519Z" fill="#373B42"/>
<path d="M189.969 88.4766C187.682 88.4766 185.572 87.9476 183.75 86.8897L168.31 77.9171L168.305 77.9143C168.092 77.7904 168.021 77.5177 168.145 77.3042C168.267 77.0893 168.54 77.019 168.755 77.143C172.148 79.1141 176.467 79.1265 181.247 77.1775C182.229 76.7725 183.164 76.7779 183.879 77.1912L199.322 86.1666C199.534 86.2906 199.605 86.5633 199.482 86.7768C199.358 86.9903 199.085 87.0592 198.871 86.9393C198.406 86.6666 197.751 86.6818 197.027 86.9779C194.578 87.9766 192.189 88.4766 189.969 88.4766ZM172.583 79.3675L184.199 86.117C187.591 88.0881 191.911 88.1005 196.689 86.1514C196.867 86.0784 197.041 86.0192 197.213 85.9723L183.427 77.9612C182.965 77.6884 182.308 77.7036 181.583 77.9998C178.405 79.3001 175.334 79.7546 172.583 79.3675Z" fill="#373B42"/>
<path d="M121.481 86.3002L158.494 64.9458C159.51 64.3686 160.406 64.308 161.064 64.6868L176.522 73.6705C175.865 73.2724 174.949 73.3316 173.952 73.9101L136.938 95.2852C136.109 95.7618 135.364 96.5194 134.758 97.4051L119.309 88.4256C119.917 87.5372 120.661 86.7754 121.481 86.3002Z" fill="#373B42"/>
<path d="M134.758 97.8484C134.681 97.8484 134.605 97.8291 134.534 97.7878L119.084 88.8083C118.978 88.7463 118.901 88.6416 118.873 88.5204C118.847 88.3992 118.872 88.2725 118.941 88.1706C119.619 87.1802 120.419 86.3992 121.255 85.9115L158.27 64.5571C159.395 63.9166 160.465 63.8257 161.286 64.2982L176.69 73.2501C176.711 73.2625 176.731 73.275 176.753 73.2874C176.963 73.4141 177.03 73.6854 176.905 73.8961C176.778 74.1069 176.508 74.1758 176.298 74.0546L176.251 74.0257C175.726 73.7378 174.974 73.83 174.175 74.2929L137.162 95.6679C136.433 96.0881 135.731 96.7741 135.126 97.6542C135.04 97.781 134.901 97.8484 134.758 97.8484ZM119.96 88.2862L134.633 96.8139C135.257 95.9847 135.972 95.3263 136.715 94.8966L173.729 73.5228C174.045 73.3396 174.361 73.2019 174.669 73.1096L160.84 65.0723C160.308 64.7638 159.553 64.8574 158.713 65.3326L121.704 86.6857C121.093 87.0424 120.495 87.5906 119.96 88.2862Z" fill="#373B42"/>
<path d="M98.7133 125.344C104.092 121.34 108.813 115.563 112.259 109.169C115.227 103.691 117.219 97.7749 117.857 92.137C118.002 90.8711 118.544 89.5447 119.31 88.4248L134.759 97.4043C133.996 98.52 133.459 99.8452 133.315 101.122C132.658 106.759 130.666 112.655 127.697 118.154C124.251 124.529 119.529 130.306 114.171 134.31C113.135 135.07 112.251 136.194 111.66 137.412L96.2188 128.438C96.811 127.224 97.6899 126.103 98.7133 125.344Z" fill="#373B42"/>
<path d="M111.66 137.855C111.582 137.855 111.505 137.835 111.436 137.795L95.9949 128.821C95.7924 128.704 95.7166 128.449 95.8186 128.239C96.4632 126.92 97.3971 125.764 98.4467 124.985C103.594 121.151 108.362 115.46 111.867 108.955C114.875 103.4 116.794 97.5666 117.414 92.0844C117.561 90.7855 118.104 89.3957 118.942 88.1711C119.072 87.9783 119.329 87.9191 119.534 88.0375L134.983 97.0157C135.089 97.0791 135.166 97.1823 135.194 97.3036C135.22 97.4248 135.198 97.5515 135.127 97.6535C134.377 98.7513 133.89 100.001 133.757 101.17C133.106 106.756 131.144 112.699 128.088 118.362C124.519 124.964 119.67 130.753 114.437 134.664C113.484 135.364 112.641 136.406 112.06 137.603C112.006 137.716 111.908 137.799 111.79 137.836C111.747 137.85 111.703 137.855 111.66 137.855ZM96.8089 128.264L111.479 136.789C112.107 135.642 112.957 134.645 113.908 133.949C119.038 130.117 123.796 124.431 127.305 117.94C130.308 112.377 132.234 106.542 132.873 101.071C133.005 99.9028 133.447 98.67 134.131 97.5543L119.453 89.0224C118.824 90.039 118.418 91.1492 118.3 92.1864C117.667 97.7816 115.716 103.727 112.652 109.381C109.087 115.997 104.232 121.793 98.9811 125.702C98.1395 126.325 97.3792 127.224 96.8089 128.264Z" fill="#373B42"/>
<path d="M111.66 137.411C111.184 138.393 110.896 139.435 110.904 140.404L110.944 154.787C110.984 171.341 114.948 184.986 122.04 194.688C124.768 198.393 128.513 201.54 132.797 204.031L117.359 195.047C113.056 192.557 109.311 189.43 106.601 185.704C99.5101 176.003 95.5459 162.356 95.4852 145.823L95.4453 131.421C95.4453 130.458 95.7401 129.418 96.2194 128.437L111.66 137.411Z" fill="#373B42"/>
<path d="M132.795 204.476C132.718 204.476 132.643 204.457 132.571 204.415C132.559 204.407 132.545 204.399 132.531 204.39L117.134 195.43C112.543 192.773 108.878 189.589 106.24 185.964C98.9711 176.021 95.0992 162.14 95.0399 145.822L95 131.418C95 130.434 95.2824 129.335 95.8182 128.237C95.8719 128.127 95.9697 128.043 96.0895 128.006C96.2066 127.969 96.3333 127.985 96.4435 128.047L111.885 137.021C112.084 137.138 112.163 137.392 112.061 137.601C111.588 138.578 111.343 139.545 111.35 140.396L111.39 154.782C111.429 170.915 115.236 184.621 122.4 194.421C124.991 197.94 128.545 201.029 132.959 203.607L133.02 203.641C133.232 203.765 133.304 204.038 133.18 204.251C133.098 204.397 132.95 204.476 132.795 204.476ZM96.4201 129.069C96.073 129.894 95.8912 130.699 95.8912 131.419L95.9311 145.82C95.989 161.947 99.8031 175.649 106.96 185.44C109.524 188.963 113.095 192.065 117.58 194.659L125.631 199.344C124.141 197.966 122.82 196.499 121.68 194.951C114.403 184.996 110.536 171.109 110.496 154.786L110.456 140.403C110.449 139.531 110.666 138.564 111.084 137.59L96.4201 129.069Z" fill="#373B42"/>
<path d="M136.934 95.2847C135.077 96.3563 133.567 98.8384 133.307 101.111C132.661 106.755 130.665 112.664 127.699 118.153C124.251 124.535 119.53 130.306 114.165 134.31C112.309 135.689 110.889 138.236 110.895 140.399L110.936 154.794C110.983 171.337 114.958 184.985 122.044 194.683C128.732 203.821 141.577 209.433 153.594 210.664C154.269 210.736 155.033 210.525 155.796 210.085C156.559 209.644 157.322 208.973 157.995 208.123C169.965 193.043 182.736 172.642 189.351 155.823C196.37 137.981 200.243 119.803 200.195 103.26L200.154 88.8644C200.147 86.7019 198.719 85.7997 196.86 86.5641C191.504 88.7501 186.751 88.4485 183.279 86.0614C180.305 84.0021 178.269 80.4194 177.593 75.5405C177.32 73.5763 175.815 72.8352 173.945 73.9137L136.934 95.2847Z" fill="white"/>
<path d="M153.853 211.126C153.748 211.126 153.647 211.12 153.545 211.109C140.189 209.743 127.978 203.548 121.68 194.948C114.406 184.987 110.535 171.103 110.489 154.797L110.447 140.401C110.442 138.153 111.892 135.442 113.898 133.953C119.041 130.114 123.804 124.427 127.306 117.941C130.313 112.373 132.236 106.535 132.864 101.06C133.145 98.6137 134.762 96.0227 136.71 94.8987L173.723 73.5305C174.768 72.9258 175.79 72.8074 176.6 73.2055C177.373 73.5829 177.881 74.3914 178.035 75.4823C178.679 80.1216 180.58 83.6534 183.534 85.6989C186.961 88.0557 191.635 88.2182 196.691 86.1548C197.74 85.7223 198.713 85.7567 199.439 86.2416C200.185 86.7388 200.596 87.6713 200.599 88.8655L200.641 103.261C200.687 119.551 196.926 137.784 189.764 155.988C183.596 171.674 171.555 191.759 158.342 208.402C157.649 209.278 156.845 209.995 156.017 210.473C155.27 210.902 154.531 211.126 153.853 211.126ZM137.154 95.6715C135.46 96.6509 133.995 99.0104 133.748 101.163C133.109 106.752 131.152 112.699 128.09 118.366C124.526 124.964 119.676 130.755 114.429 134.671C112.633 136.006 111.333 138.415 111.339 140.401L111.38 154.797C111.425 170.914 115.235 184.617 122.401 194.423C128.552 202.826 140.522 208.88 153.637 210.223C154.196 210.276 154.874 210.102 155.571 209.701C156.302 209.278 157.018 208.639 157.641 207.849C170.804 191.27 182.795 171.274 188.934 155.663C196.054 137.562 199.792 119.443 199.748 103.264L199.707 88.8683C199.705 87.9799 199.434 87.3104 198.944 86.9826C198.468 86.6671 197.786 86.6672 197.029 86.9785C191.679 89.1603 186.711 88.9634 183.024 86.4316C179.861 84.2401 177.827 80.4976 177.148 75.6036C177.041 74.8157 176.705 74.2482 176.208 74.0058C175.669 73.7455 174.95 73.8501 174.166 74.3019L137.154 95.6715Z" fill="#373B42"/>
<path d="M152.383 202.679C164.758 186.967 176.384 167.539 182.111 152.978C188.896 135.733 192.46 118.548 192.417 103.283L192.395 95.6879C191.58 95.7746 190.77 95.8187 189.969 95.8187C185.895 95.8187 182.059 94.6616 178.873 92.4715C175.869 90.3902 173.544 87.5348 171.968 84.0361L141.135 101.838C141.084 101.922 141.033 102.025 141.017 102.089C140.287 108.502 138.041 115.369 134.54 121.85C130.423 129.472 124.985 135.937 118.816 140.543C118.788 140.573 118.721 140.668 118.672 140.758L118.712 154.773C118.753 169.333 122.075 181.548 128.322 190.097C132.906 196.361 142.204 201.184 152.383 202.679Z" fill="#DA0000"/>
<path d="M157.446 130.346C166.556 124.894 173.97 129.252 174 140.125C174.03 150.975 166.663 164.201 157.554 169.653C148.444 175.105 141.03 170.725 141 159.875C140.97 149.002 148.337 135.798 157.446 130.346Z" fill="white"/>
<path d="M157.508 136.83C158.695 136.146 159.772 136.076 160.551 136.519C161.333 136.964 161.816 137.922 161.82 139.285L161.834 144.217L160.603 144.927L160.589 139.995C160.583 138.053 159.201 137.269 157.512 138.243C155.821 139.219 154.45 141.59 154.456 143.532L154.47 148.465L153.239 149.174L153.225 144.242C153.217 141.514 155.132 138.201 157.508 136.83Z" fill="#383C43"/>
<path d="M163.017 142.842C163.358 142.646 163.633 142.806 163.635 143.197L163.668 156.277C163.669 156.668 163.395 157.145 163.054 157.342L152.022 163.704C151.684 163.899 151.406 163.741 151.405 163.349L151.371 150.27C151.37 149.878 151.646 149.4 151.985 149.205L163.017 142.842Z" fill="#DA0000"/>
<path d="M157.633 150.337C156.913 150.752 156.329 151.764 156.331 152.594C156.333 153.176 156.624 153.516 157.051 153.516L156.438 156.885C156.39 157.157 156.551 157.299 156.771 157.172L158.533 156.156C158.754 156.028 158.913 155.701 158.863 155.486L158.233 152.834C158.659 152.342 158.948 151.667 158.946 151.085C158.944 150.255 158.355 149.92 157.633 150.337Z" fill="#383C43"/>
<path d="M237.488 161.198C234.263 163.061 234.245 166.08 237.448 167.941C240.652 169.803 245.865 169.802 249.09 167.94C252.315 166.077 252.33 163.059 249.127 161.198C245.923 159.338 240.712 159.338 237.488 161.198Z" fill="white"/>
<path d="M243.26 169.776C241.072 169.776 238.885 169.292 237.224 168.328C235.538 167.347 234.61 166.018 234.611 164.583C234.613 163.138 235.555 161.799 237.264 160.814C240.605 158.883 246.028 158.886 249.351 160.814C251.039 161.796 251.966 163.125 251.964 164.561C251.963 166.003 251.021 167.342 249.314 168.328C247.641 169.292 245.449 169.776 243.26 169.776ZM237.709 161.585C236.288 162.406 235.504 163.471 235.502 164.584C235.501 165.687 236.271 166.744 237.672 167.557C240.744 169.343 245.769 169.344 248.865 167.555C250.287 166.734 251.068 165.67 251.07 164.559C251.072 163.456 250.302 162.399 248.901 161.585C245.829 159.797 240.806 159.797 237.709 161.585Z" fill="#DBDEE4"/>
<path d="M243.269 166.697C244.525 166.697 245.743 166.411 246.607 165.912C247.301 165.511 247.699 165.02 247.699 164.562C247.699 164.111 247.309 163.624 246.627 163.228C245.77 162.729 244.558 162.444 243.303 162.444C242.047 162.444 240.832 162.73 239.969 163.229C239.274 163.63 238.875 164.123 238.875 164.58C238.875 165.032 239.265 165.518 239.945 165.914C240.802 166.411 242.013 166.697 243.269 166.697Z" fill="#DA0000"/>
<path d="M214.883 182.855C216.233 182.855 217.539 182.548 218.467 182.012C219.212 181.582 219.641 181.053 219.641 180.561C219.642 180.076 219.222 179.553 218.491 179.129C217.571 178.594 216.269 178.287 214.92 178.287C213.572 178.287 212.266 178.594 211.339 179.13C210.592 179.561 210.165 180.09 210.164 180.582C210.164 181.067 210.583 181.589 211.314 182.015C212.234 182.548 213.536 182.855 214.883 182.855Z" fill="#373B42"/>
<path d="M140.582 281.435C141.932 281.435 143.238 281.128 144.166 280.592C144.912 280.162 145.34 279.633 145.34 279.141C145.34 278.656 144.921 278.133 144.19 277.709C143.27 277.174 141.968 276.867 140.62 276.867C139.271 276.867 137.965 277.174 137.038 277.71C136.292 278.141 135.865 278.67 135.863 279.162C135.863 279.647 136.282 280.169 137.013 280.595C137.932 281.128 139.234 281.435 140.582 281.435Z" fill="#373B42"/>
<defs>
<filter id="filter0_d_399_1852" x="0" y="0" width="648" height="656" filterUnits="userSpaceOnUse" color-interpolation-filters="sRGB">
<feFlood flood-opacity="0" result="BackgroundImageFix"/>
<feColorMatrix in="SourceAlpha" type="matrix" values="0 0 0 0 0 0 0 0 0 0 0 0 0 0 0 0 0 0 127 0" result="hardAlpha"/>
<feOffset dy="4"/>
<feGaussianBlur stdDeviation="2"/>
<feComposite in2="hardAlpha" operator="out"/>
<feColorMatrix type="matrix" values="0 0 0 0 0 0 0 0 0 0 0 0 0 0 0 0 0 0 0.25 0"/>
<feBlend mode="normal" in2="BackgroundImageFix" result="effect1_dropShadow_399_1852"/>
<feBlend mode="normal" in="SourceGraphic" in2="effect1_dropShadow_399_1852" result="shape"/>
</filter>
</defs>
</svg>
