<svg width="402" height="403" viewBox="0 0 402 403" fill="none" xmlns="http://www.w3.org/2000/svg">
<path d="M208.506 164.514C208.421 164.512 208.338 164.483 208.27 164.431C208.203 164.378 208.154 164.305 208.132 164.222C208.11 164.14 208.115 164.052 208.146 163.972C208.178 163.893 208.235 163.826 208.308 163.781L322.825 97.086C322.915 97.0337 323.023 97.0196 323.124 97.0467C323.225 97.0739 323.311 97.1401 323.363 97.2309C323.415 97.3216 323.429 97.4294 323.402 97.5306C323.375 97.6318 323.309 97.718 323.219 97.7703L208.697 164.459C208.639 164.493 208.574 164.512 208.506 164.514Z" fill="#DBDEE4"/>
<path d="M208.506 164.513C208.421 164.512 208.338 164.483 208.27 164.43C208.203 164.378 208.154 164.305 208.132 164.222C208.11 164.139 208.115 164.051 208.146 163.972C208.178 163.892 208.235 163.825 208.308 163.781L269.264 128.279C269.309 128.253 269.358 128.235 269.409 128.228C269.46 128.221 269.512 128.224 269.562 128.237C269.612 128.251 269.659 128.274 269.7 128.305C269.741 128.336 269.776 128.375 269.801 128.42C269.853 128.511 269.867 128.618 269.841 128.718C269.814 128.819 269.75 128.905 269.66 128.959L208.697 164.458C208.639 164.493 208.574 164.512 208.506 164.513Z" fill="#DBDEE4"/>
<path d="M143.132 271.428C143.046 271.428 142.962 271.4 142.893 271.347C142.825 271.294 142.776 271.221 142.754 271.137C142.731 271.054 142.737 270.965 142.77 270.886C142.803 270.806 142.861 270.739 142.936 270.696L231.137 219.74C232.28 219.082 233.575 218.735 234.893 218.735C236.211 218.735 237.506 219.082 238.649 219.74L280.511 243.955C280.602 244.007 280.668 244.093 280.696 244.194C280.723 244.295 280.709 244.403 280.657 244.494C280.605 244.584 280.519 244.651 280.419 244.678C280.318 244.705 280.21 244.692 280.12 244.64L238.257 220.422C237.233 219.832 236.073 219.522 234.893 219.522C233.712 219.522 232.552 219.832 231.528 220.422L143.33 271.376C143.27 271.411 143.201 271.429 143.132 271.428Z" fill="#DBDEE4"/>
<path d="M314.46 356.78C313.278 356.779 312.118 356.464 311.098 355.868L261.892 327.222C261.801 327.17 261.735 327.084 261.708 326.983C261.681 326.881 261.695 326.774 261.747 326.683C261.799 326.592 261.885 326.526 261.986 326.499C262.087 326.471 262.195 326.486 262.285 326.538L311.491 355.19C312.391 355.711 313.412 355.985 314.451 355.985C315.489 355.985 316.51 355.711 317.41 355.19L366.953 326.529C366.997 326.503 367.047 326.486 367.098 326.48C367.149 326.473 367.202 326.477 367.251 326.49C367.301 326.504 367.348 326.527 367.389 326.559C367.43 326.59 367.464 326.63 367.49 326.675C367.516 326.72 367.532 326.769 367.539 326.821C367.545 326.872 367.542 326.924 367.528 326.974C367.515 327.024 367.492 327.071 367.46 327.112C367.428 327.153 367.389 327.187 367.344 327.213L317.801 355.874C316.786 356.465 315.634 356.777 314.46 356.78Z" fill="#DBDEE4"/>
<path d="M357.25 326.591C354.416 328.231 354.4 330.888 357.214 332.521C360.027 334.155 364.612 334.159 367.457 332.521C370.302 330.884 370.302 328.224 367.489 326.591C364.675 324.958 360.082 324.951 357.25 326.591Z" fill="white"/>
<path d="M362.322 334.144C360.399 334.144 358.478 333.717 357.018 332.869C355.559 332.02 354.719 330.834 354.722 329.57C354.724 328.306 355.553 327.12 357.053 326.251C359.994 324.552 364.755 324.554 367.674 326.251C369.155 327.116 369.973 328.286 369.97 329.55C369.968 330.813 369.142 331.999 367.642 332.869C366.142 333.738 364.246 334.144 362.322 334.144ZM357.444 326.931C356.197 327.654 355.507 328.592 355.505 329.57C355.502 330.549 356.188 331.473 357.412 332.189C360.112 333.763 364.528 333.763 367.25 332.189C368.498 331.466 369.185 330.528 369.187 329.55C369.19 328.571 368.504 327.647 367.28 326.931C364.58 325.357 360.167 325.357 357.444 326.931Z" fill="#DBDEE4"/>
<path d="M362.332 331.432C363.351 331.455 364.359 331.22 365.263 330.747C365.873 330.396 366.224 329.963 366.224 329.559C366.224 329.155 365.883 328.733 365.284 328.384C364.375 327.931 363.373 327.695 362.358 327.695C361.342 327.695 360.341 327.931 359.432 328.384C358.822 328.738 358.471 329.171 358.469 329.575C358.466 329.979 358.812 330.401 359.411 330.75C360.311 331.221 361.316 331.456 362.332 331.432Z" fill="#DA0000"/>
<path d="M337.386 345.658C338.482 345.68 339.566 345.424 340.537 344.914C341.192 344.535 341.568 344.07 341.568 343.639C341.568 343.208 341.201 342.752 340.557 342.378C339.591 341.868 338.512 341.612 337.42 341.636C336.325 341.613 335.243 341.868 334.272 342.378C333.617 342.756 333.241 343.222 333.241 343.655C333.241 344.088 333.608 344.542 334.252 344.916C335.217 345.426 336.296 345.681 337.386 345.658Z" fill="#373B42"/>
<path d="M99.8028 400.777C98.992 400.778 98.1955 400.563 97.4947 400.154L45.4615 369.996C45.4167 369.971 45.3773 369.936 45.3457 369.895C45.3141 369.854 45.2909 369.808 45.2774 369.758C45.2639 369.708 45.2603 369.655 45.2669 369.604C45.2735 369.553 45.2901 369.503 45.3158 369.458C45.3415 369.413 45.3758 369.374 45.4167 369.342C45.4576 369.31 45.5044 369.287 45.5542 369.274C45.6041 369.26 45.6562 369.256 45.7074 369.263C45.7587 369.27 45.8082 369.286 45.853 369.312L97.8793 399.474C98.4607 399.811 99.1201 399.988 99.7914 399.988C100.463 399.988 101.122 399.811 101.703 399.474L169.787 359.91C169.831 359.884 169.881 359.867 169.932 359.861C169.983 359.854 170.035 359.858 170.085 359.871C170.135 359.885 170.182 359.908 170.223 359.94C170.264 359.971 170.298 360.011 170.324 360.056C170.35 360.101 170.366 360.15 170.373 360.202C170.379 360.253 170.376 360.305 170.362 360.355C170.349 360.405 170.325 360.452 170.294 360.493C170.262 360.534 170.223 360.568 170.178 360.594L102.095 400.159C101.398 400.562 100.608 400.775 99.8028 400.777Z" fill="#DBDEE4"/>
<path d="M53.7194 368.459C56.5534 370.097 56.5693 372.756 53.7536 374.39C50.9378 376.023 46.3603 376.027 43.5263 374.39C40.6924 372.752 40.681 370.092 43.4945 368.459C46.3079 366.826 50.8923 366.819 53.7194 368.459Z" fill="white"/>
<path d="M48.6528 376.009C46.7317 376.009 44.8059 375.585 43.3377 374.734C41.8695 373.883 41.0091 372.681 41.0068 371.418C41.0046 370.154 41.8217 368.984 43.3036 368.119C46.2218 366.42 50.9837 366.417 53.9201 368.119C55.4224 368.988 56.2487 370.172 56.251 371.438C56.2533 372.704 55.4384 373.872 53.9565 374.736C52.4747 375.601 50.5763 376.009 48.6528 376.009ZM48.6073 367.617C46.8273 367.617 45.0495 368.012 43.6974 368.799C42.4659 369.515 41.7899 370.446 41.7899 371.418C41.7899 372.389 42.4728 373.331 43.7293 374.054C46.4608 375.631 50.8631 375.628 53.5627 374.054C54.7919 373.338 55.4702 372.408 55.468 371.436C55.4657 370.464 54.7851 369.52 53.5286 368.794C52.1697 368.012 50.3873 367.617 48.6073 367.617Z" fill="#DBDEE4"/>
<path d="M48.6463 373.3C47.6272 373.322 46.6189 373.087 45.7145 372.616C45.1045 372.262 44.7539 371.829 44.7539 371.427C44.7539 371.026 45.0953 370.599 45.694 370.252C46.5938 369.78 47.5988 369.544 48.6145 369.568C49.6329 369.546 50.6404 369.781 51.544 370.252C52.154 370.606 52.5046 371.039 52.5069 371.443C52.5091 371.847 52.1632 372.269 51.5645 372.618C50.665 373.089 49.661 373.324 48.6463 373.3Z" fill="#DA0000"/>
<path d="M73.5829 387.534C72.4872 387.556 71.4036 387.301 70.4325 386.792C69.7792 386.414 69.4037 385.948 69.4014 385.515C69.3991 385.081 69.7701 384.628 70.4143 384.253C71.3798 383.745 72.4582 383.49 73.5487 383.512C74.6436 383.49 75.7262 383.745 76.6968 384.253C77.3524 384.634 77.728 385.1 77.728 385.533C77.728 385.967 77.3615 386.42 76.7173 386.795C75.7516 387.302 74.6732 387.557 73.5829 387.534Z" fill="#373B42"/>
<path d="M301.706 394.559C301.636 394.559 301.568 394.541 301.508 394.506L203.467 337.434C203.376 337.382 203.31 337.296 203.283 337.195C203.256 337.093 203.27 336.986 203.322 336.895C203.374 336.804 203.461 336.738 203.561 336.711C203.662 336.684 203.77 336.698 203.861 336.75L301.904 393.822C301.993 393.875 302.058 393.961 302.084 394.062C302.11 394.163 302.095 394.27 302.043 394.36C302.009 394.42 301.961 394.471 301.901 394.505C301.842 394.54 301.775 394.559 301.706 394.559Z" fill="#DBDEE4"/>
<path d="M294.52 395.366C291.683 393.726 291.667 391.067 294.483 389.436C297.299 387.805 301.886 387.796 304.726 389.436C307.567 391.076 307.574 393.733 304.758 395.366C301.942 397 297.354 397.004 294.52 395.366Z" fill="white"/>
<path d="M299.641 396.979C297.717 396.979 295.792 396.555 294.321 395.706C292.819 394.837 291.99 393.653 291.99 392.387C291.99 391.121 292.803 389.951 294.287 389.089C297.207 387.389 301.974 387.387 304.917 389.089C306.419 389.958 307.248 391.142 307.248 392.406C307.248 393.669 306.433 394.842 304.949 395.704C303.465 396.566 301.566 396.979 299.641 396.979ZM294.713 395.026C297.444 396.598 301.849 396.6 304.555 395.026C305.789 394.31 306.467 393.38 306.465 392.408C306.463 391.436 305.782 390.492 304.523 389.769C301.792 388.195 297.385 388.195 294.681 389.769C293.449 390.485 292.771 391.413 292.773 392.385C292.776 393.357 293.456 394.303 294.713 395.026Z" fill="#DBDEE4"/>
<path d="M299.602 390.524C300.623 390.502 301.632 390.737 302.538 391.208C303.149 391.562 303.499 391.995 303.499 392.399C303.499 392.803 303.155 393.225 302.557 393.574C301.647 394.027 300.644 394.264 299.628 394.264C298.612 394.264 297.61 394.027 296.7 393.574C296.09 393.222 295.739 392.787 295.739 392.385C295.739 391.984 296.081 391.557 296.679 391.211C297.58 390.738 298.586 390.502 299.602 390.524Z" fill="#DA0000"/>
<path d="M274.643 376.299C275.738 376.276 276.822 376.532 277.793 377.041C278.449 377.419 278.827 377.885 278.827 378.318C278.827 378.751 278.458 379.205 277.814 379.579C276.847 380.089 275.767 380.345 274.675 380.321C273.58 380.343 272.497 380.088 271.527 379.579C270.869 379.199 270.493 378.733 270.493 378.3C270.493 377.866 270.86 377.412 271.504 377.038C272.471 376.53 273.551 376.276 274.643 376.299Z" fill="#373B42"/>
<path d="M186.552 324.524C186.483 324.524 186.416 324.506 186.356 324.471L84.2793 265.023C84.1896 264.97 84.1243 264.884 84.0979 264.783C84.0714 264.682 84.0859 264.575 84.1382 264.484C84.1636 264.439 84.1978 264.4 84.2386 264.369C84.2794 264.337 84.3261 264.314 84.3759 264.301C84.4258 264.288 84.4777 264.285 84.5287 264.292C84.5798 264.299 84.6288 264.316 84.6731 264.343L186.75 323.792C186.825 323.835 186.883 323.902 186.916 323.982C186.949 324.062 186.955 324.15 186.932 324.234C186.91 324.318 186.86 324.391 186.791 324.444C186.723 324.496 186.638 324.524 186.552 324.524Z" fill="#DBDEE4"/>
<path d="M186.551 324.524C186.483 324.524 186.415 324.506 186.356 324.471L132.023 292.826C131.934 292.774 131.868 292.687 131.842 292.586C131.816 292.486 131.83 292.378 131.882 292.288C131.908 292.243 131.942 292.204 131.983 292.172C132.024 292.141 132.07 292.118 132.12 292.105C132.17 292.091 132.222 292.088 132.273 292.096C132.324 292.103 132.373 292.12 132.417 292.147L186.754 323.792C186.829 323.835 186.887 323.902 186.92 323.982C186.953 324.062 186.959 324.151 186.936 324.234C186.914 324.318 186.864 324.391 186.795 324.444C186.727 324.496 186.642 324.524 186.556 324.524H186.551Z" fill="#DBDEE4"/>
<path d="M162.553 307.709C163.652 307.685 164.738 307.94 165.712 308.45C166.368 308.829 166.744 309.296 166.744 309.727C166.744 310.158 166.377 310.615 165.733 310.989C164.757 311.476 163.682 311.73 162.592 311.73C161.501 311.73 160.426 311.476 159.45 310.989C158.795 310.61 158.419 310.142 158.417 309.711C158.415 309.28 158.786 308.824 159.428 308.45C160.39 307.942 161.465 307.687 162.553 307.709Z" fill="#373B42"/>
<g opacity="0.1">
<path d="M79.4804 299.393C77.5069 300.534 77.4955 302.386 79.4577 303.527L113.417 323.328C115.379 324.469 118.566 324.469 120.54 323.328L174.392 292.185C176.365 291.045 176.374 289.193 174.414 288.052L140.446 268.234C138.484 267.094 135.297 267.094 133.323 268.234L79.4804 299.393Z" fill="black"/>
</g>
<path d="M171.512 282.542C171.512 283.805 171.057 284.695 170.342 285.11L117.383 315.947C118.107 315.53 118.537 314.643 118.55 313.39C118.55 310.847 116.764 307.74 114.562 306.477L85.3602 289.574C85.0789 289.408 84.8248 289.199 84.6067 288.956C84.2479 288.525 83.9785 288.026 83.8146 287.489C83.653 286.992 83.5073 286.157 84.0035 285.726L137.063 254.822C136.471 255.24 136.633 256.113 136.795 256.647C136.944 257.183 137.21 257.679 137.573 258.1C137.788 258.356 138.047 258.571 138.338 258.734L167.524 275.614C169.739 276.903 171.526 280.012 171.512 282.542Z" fill="#F0F2F5"/>
<path d="M117.383 316.34C117.296 316.34 117.212 316.312 117.143 316.26C117.075 316.207 117.025 316.134 117.002 316.05C116.98 315.967 116.986 315.878 117.018 315.798C117.051 315.718 117.11 315.651 117.185 315.608H117.203C117.808 315.249 118.148 314.467 118.159 313.397C118.159 310.975 116.459 308.025 114.369 306.826L85.1668 289.905C84.8486 289.718 84.562 289.482 84.3178 289.205C83.9221 288.737 83.6254 288.194 83.446 287.608C83.1387 286.654 83.2502 285.861 83.751 285.427L136.865 254.48C136.953 254.424 137.059 254.405 137.161 254.427C137.262 254.449 137.351 254.511 137.407 254.599C137.463 254.686 137.482 254.793 137.46 254.895C137.438 254.997 137.376 255.085 137.289 255.142C136.92 255.402 137.022 256.054 137.17 256.538C137.3 257.017 137.533 257.463 137.853 257.842C138.041 258.065 138.267 258.252 138.52 258.394L167.709 275.274C170.028 276.599 171.909 279.855 171.893 282.532C171.893 283.901 171.408 284.932 170.527 285.441L117.599 316.274L117.576 316.287C117.518 316.322 117.451 316.34 117.383 316.34ZM136.253 255.748L84.204 286.066C83.8967 286.342 84.1152 287.133 84.1926 287.368C84.3386 287.855 84.5818 288.308 84.9073 288.698C85.0975 288.91 85.3185 289.091 85.5629 289.236L114.758 306.137C117.064 307.46 118.942 310.715 118.942 313.39C118.943 313.83 118.882 314.268 118.76 314.691L170.147 284.77C170.775 284.41 171.121 283.63 171.121 282.542C171.121 280.16 169.398 277.149 167.329 275.97L138.142 259.09C137.812 258.904 137.517 258.66 137.273 258.369C136.874 257.907 136.583 257.361 136.419 256.773C136.312 256.442 136.256 256.096 136.253 255.748Z" fill="#373B42"/>
<path d="M167.533 275.625C169.748 276.891 171.535 280.011 171.522 282.541C171.522 283.805 171.066 284.694 170.352 285.11L117.383 315.947C118.107 315.53 118.537 314.642 118.551 313.39C118.551 310.847 116.764 307.74 114.562 306.476" fill="#DBDEE4"/>
<path d="M117.383 316.34C117.297 316.34 117.212 316.312 117.144 316.26C117.075 316.207 117.025 316.134 117.003 316.05C116.98 315.966 116.986 315.878 117.019 315.798C117.052 315.718 117.11 315.651 117.185 315.607H117.203C117.809 315.249 118.148 314.467 118.159 313.397C118.159 310.975 116.459 308.025 114.369 306.825C114.279 306.774 114.212 306.688 114.185 306.587C114.157 306.487 114.171 306.379 114.222 306.288C114.274 306.197 114.36 306.131 114.46 306.103C114.561 306.076 114.668 306.089 114.759 306.141C117.064 307.466 118.942 310.721 118.942 313.397C118.943 313.837 118.882 314.275 118.76 314.697L170.147 284.777C170.775 284.416 171.121 283.636 171.121 282.548C171.121 280.165 169.398 277.154 167.329 275.974C167.238 275.923 167.172 275.837 167.144 275.736C167.117 275.635 167.13 275.528 167.182 275.437C167.234 275.346 167.319 275.28 167.42 275.252C167.52 275.225 167.628 275.238 167.718 275.29C170.04 276.615 171.92 279.87 171.904 282.548C171.904 283.917 171.419 284.948 170.538 285.457L117.597 316.276L117.577 316.287C117.518 316.322 117.451 316.34 117.383 316.34Z" fill="#373B42"/>
<path d="M87.908 248.076C90.1228 249.356 91.9006 252.451 91.8937 254.992L91.8414 274.014C91.8277 278.654 90.248 282.121 87.3822 283.747L84.1954 285.572C83.4966 285.971 83.6537 286.941 83.8289 287.481C84.0604 288.351 84.6139 289.1 85.3768 289.575L114.568 306.455C116.767 307.728 118.56 310.842 118.553 313.373C118.547 315.905 116.732 316.934 114.543 315.655L85.3495 298.775C81.4229 296.494 77.9129 291.77 76.422 286.71C74.931 281.651 75.7755 277.374 78.5503 275.761L81.753 273.95C83.1005 273.181 83.8403 271.553 83.8471 269.363L83.9018 250.341C83.904 247.825 85.7091 246.803 87.908 248.076Z" fill="#373B42"/>
<path d="M116.331 316.617C115.627 316.595 114.941 316.386 114.342 316.013L85.1489 299.133C81.1313 296.809 77.5576 291.984 76.0439 286.84C74.5028 281.621 75.4088 277.148 78.3543 275.435L81.5592 273.626C82.7748 272.942 83.4485 271.423 83.4554 269.377L83.51 250.355C83.51 248.986 83.9994 247.953 84.8758 247.447C85.7521 246.94 86.9085 247.034 88.1035 247.725C90.4549 249.094 92.2918 252.273 92.2873 254.983L92.2304 274.005C92.219 278.795 90.5642 282.383 87.5754 284.08L84.3886 285.905C83.897 286.188 84.095 287.014 84.202 287.356C84.404 288.131 84.8922 288.8 85.5677 289.229L114.759 306.108C117.074 307.447 118.949 310.702 118.94 313.367C118.94 314.735 118.451 315.771 117.574 316.28C117.198 316.501 116.768 316.618 116.331 316.617ZM86.1209 247.919C85.8213 247.918 85.5268 247.997 85.2673 248.147C84.639 248.51 84.2908 249.301 84.2885 250.378L84.2339 269.4C84.2339 271.738 83.4144 273.489 81.9417 274.329L78.739 276.14C76.1212 277.65 75.3564 281.767 76.7905 286.633C78.2541 291.594 81.6867 296.241 85.5404 298.469L114.734 315.349C115.678 315.894 116.555 315.994 117.181 315.629C117.807 315.264 118.155 314.475 118.157 313.396C118.157 311.024 116.429 308.013 114.367 306.82L85.1762 289.94C84.3259 289.414 83.7079 288.583 83.4485 287.616C83.1026 286.519 83.2983 285.654 83.9948 285.255L87.1816 283.43C89.9131 281.877 91.4291 278.54 91.4405 274.037L91.4951 255.013C91.4951 252.6 89.8016 249.65 87.7052 248.437C87.2308 248.129 86.6848 247.951 86.1209 247.919Z" fill="#373B42"/>
<path d="M140.355 252.909C143.212 251.276 144.8 247.813 144.814 243.169L144.864 224.156C144.864 221.608 143.098 218.522 140.881 217.242C139.765 216.59 138.764 216.54 138.038 216.966L85.0643 247.802C85.7927 247.373 86.8057 247.437 87.9097 248.078C90.1268 249.357 91.9045 252.457 91.8909 254.991L91.8408 274.018C91.8294 278.352 90.4523 281.648 87.9461 283.37C87.9347 283.395 87.9211 283.406 87.9097 283.406L84.188 285.571C84.1184 285.606 84.0583 285.658 84.0127 285.722L137.061 254.823L140.355 252.909Z" fill="white"/>
<path d="M84.013 286.118C83.9428 286.118 83.874 286.099 83.8138 286.063C83.7535 286.027 83.7041 285.975 83.6706 285.913C83.637 285.851 83.6207 285.782 83.6233 285.711C83.6259 285.641 83.6473 285.573 83.6852 285.514C83.7616 285.398 83.8657 285.303 83.988 285.238L87.6664 283.103C87.6837 283.085 87.7028 283.069 87.7233 283.055C90.1134 281.403 91.4359 278.194 91.4518 274.015L91.4996 254.991C91.5133 252.578 89.8152 249.631 87.7142 248.417C86.7832 247.876 85.8932 247.776 85.274 248.134C85.2292 248.16 85.1797 248.177 85.1284 248.184C85.0771 248.19 85.0249 248.187 84.9749 248.174C84.874 248.146 84.7879 248.08 84.7357 247.989C84.6835 247.899 84.6694 247.791 84.6965 247.69C84.7236 247.588 84.7897 247.502 84.8803 247.45H84.8939L137.84 216.626C138.728 216.104 139.889 216.202 141.079 216.902C143.421 218.255 145.256 221.441 145.256 224.156L145.206 243.171C145.192 247.961 143.54 251.538 140.553 253.248L84.2224 286.066C84.1585 286.102 84.0862 286.12 84.013 286.118ZM86.8378 247.222C87.2836 247.33 87.7109 247.503 88.1057 247.737C90.423 249.074 92.2963 252.331 92.2827 254.993L92.2349 274.017C92.2349 277.142 91.5065 279.772 90.1748 281.684L140.157 252.569C142.889 251.006 144.405 247.669 144.418 243.171L144.468 224.158C144.468 221.74 142.768 218.791 140.681 217.584C139.736 217.03 138.86 216.932 138.234 217.306L86.8378 247.222Z" fill="#373B42"/>
<path d="M213.741 22.5049C213.725 16.5058 209.487 14.0879 204.276 17.1011L20.6933 123.293C15.4784 126.306 11.2742 133.612 11.2901 139.611L11.6406 272.872L214.089 155.766L213.741 22.5049Z" fill="#373B42"/>
<path d="M11.6405 273.264C11.5719 273.264 11.5046 273.246 11.4448 273.212C11.3853 273.177 11.3358 273.128 11.3015 273.068C11.2671 273.009 11.249 272.941 11.249 272.872L10.8985 139.611C10.8825 133.496 15.187 126.023 20.4975 122.959L204.076 16.7609C206.732 15.2235 209.25 14.9885 211.164 16.0925C213.079 17.1966 214.124 19.4685 214.124 22.5046L214.476 155.765C214.477 155.834 214.459 155.902 214.424 155.962C214.39 156.022 214.34 156.071 214.281 156.105L11.8363 273.212C11.7766 273.246 11.7092 273.264 11.6405 273.264ZM208.506 16.1929C207.277 16.1929 205.902 16.6126 204.47 17.4406L20.889 123.63C15.797 126.582 11.6656 133.744 11.6815 139.609L12.0321 272.192L213.709 155.54L213.345 22.5068C213.345 19.7696 212.435 17.7166 210.773 16.7746C210.082 16.383 209.299 16.1823 208.506 16.1929Z" fill="#373B42"/>
<path d="M15.5362 139.599C15.5225 135.124 18.9255 129.223 22.8202 126.974L206.394 20.782C207.532 20.1274 208.249 20.0566 208.507 20.0566C209.417 20.0566 209.492 21.9385 209.495 22.5156L209.838 158.224L15.8662 270.436L15.5362 139.599Z" fill="white"/>
<path d="M15.8639 270.828C15.7954 270.828 15.7281 270.81 15.6681 270.777C15.6087 270.743 15.5594 270.693 15.5251 270.634C15.4907 270.574 15.4726 270.506 15.4724 270.438L15.1446 139.599C15.1309 135.003 18.625 128.944 22.6198 126.634L206.201 20.4442C207.373 19.7599 208.149 19.6641 208.507 19.6641C209.699 19.6641 209.872 21.4501 209.886 22.5154L210.232 158.224C210.232 158.293 210.214 158.36 210.18 158.42C210.145 158.48 210.096 158.529 210.036 158.564L16.0596 270.775C16.0004 270.81 15.9327 270.828 15.8639 270.828ZM208.507 20.4487C208.331 20.4487 207.671 20.4966 206.592 21.1331L23.0113 127.313C19.2259 129.503 15.9139 135.249 15.9344 139.597L16.2622 269.758L209.447 157.998L209.101 22.5177C209.098 21.3383 208.843 20.4487 208.507 20.4487Z" fill="#373B42"/>
<path d="M11.6406 272.872L11.693 291.234C11.7112 297.233 15.9473 299.654 21.1577 296.64L204.736 190.451C209.947 187.438 214.158 180.131 214.14 174.132L214.089 155.768L11.6406 272.872Z" fill="#DBDEE4"/>
<path d="M16.9241 298.344C15.993 298.356 15.0755 298.12 14.2654 297.66C12.3624 296.562 11.3063 294.286 11.3063 291.25L11.2539 272.885C11.2539 272.816 11.272 272.749 11.3063 272.689C11.3407 272.629 11.3901 272.58 11.4497 272.545L213.894 155.427C213.953 155.392 214.021 155.374 214.089 155.373C214.158 155.373 214.226 155.39 214.286 155.425C214.345 155.459 214.395 155.509 214.429 155.568C214.464 155.628 214.482 155.696 214.481 155.765L214.534 174.13C214.549 180.243 210.243 187.715 204.932 190.781L21.356 296.975C19.8036 297.888 18.2921 298.344 16.9241 298.344ZM12.0324 273.097L12.0847 291.234C12.0847 293.971 12.9952 296.024 14.6569 296.966C16.3186 297.908 18.5607 297.689 20.9645 296.3L204.541 190.108C209.635 187.161 213.766 179.994 213.748 174.141L213.698 156.456L12.0324 273.097Z" fill="#373B42"/>
<path d="M210.994 16.4368C209.276 15.4331 206.897 15.5837 204.275 17.1074L20.694 123.292C19.0931 124.256 17.6644 125.481 16.4669 126.917C15.5688 127.94 14.7742 129.051 14.0951 130.231C13.2516 131.669 12.5778 133.2 12.0874 134.793C11.5725 136.347 11.3059 137.972 11.2975 139.609L11.6936 291.246C11.7073 294.211 12.7566 296.319 14.4456 297.309L3.54456 290.954C1.85557 289.964 0.813041 287.861 0.792555 284.891L0.396484 133.254C0.403483 131.635 0.65993 130.027 1.15676 128.486C1.65764 126.904 2.33092 125.382 3.16442 123.947C3.85238 122.757 4.65111 121.635 5.54995 120.596C6.74383 119.148 8.17756 117.916 9.78836 116.956L193.374 10.7547C196.003 9.23327 198.382 9.11009 200.093 10.1001L210.994 16.4368Z" fill="#BEC4CD"/>
<path d="M16.4667 126.917C15.5686 127.941 14.7741 129.051 14.0949 130.231C13.2514 131.669 12.5777 133.2 12.0872 134.794L1.16113 128.489C1.66201 126.906 2.3353 125.384 3.1688 123.949C3.85675 122.76 4.65549 121.638 5.55433 120.599L16.4667 126.917Z" fill="#F0F2F5"/>
<path d="M14.4431 297.701C14.3741 297.701 14.3066 297.682 14.2473 297.646L3.34175 291.293C1.457 290.187 0.409915 287.913 0.396257 284.886L0.000186816 133.254C-0.015747 130.288 0.988086 126.901 2.82048 123.748C4.65287 120.596 7.03385 118.091 9.59237 116.613L193.173 10.4147C195.83 8.87956 198.352 8.65146 200.284 9.76005L211.163 16.0854L211.19 16.1014C211.28 16.1537 211.347 16.2399 211.374 16.3411C211.401 16.4423 211.387 16.5501 211.334 16.6408C211.282 16.7316 211.196 16.7978 211.095 16.825C210.994 16.8521 210.887 16.838 210.796 16.7857H210.782C209.13 15.8299 206.885 16.0717 204.475 17.47L20.8895 123.634C18.4379 125.053 16.1617 127.469 14.434 130.436C12.6494 133.509 11.6752 136.766 11.6888 139.606L12.0849 291.246C12.0985 293.983 12.9954 296.008 14.6411 296.969C14.716 297.012 14.7745 297.079 14.8074 297.159C14.8404 297.239 14.846 297.328 14.8234 297.411C14.8008 297.495 14.7513 297.569 14.6825 297.621C14.6137 297.673 14.5295 297.702 14.4431 297.701ZM197.594 9.85129C196.362 9.85129 194.992 10.2687 193.565 11.0945L9.98389 117.293C7.54146 118.705 5.24015 121.137 3.49653 124.136C1.75291 127.136 0.765012 130.405 0.783222 133.244L1.17929 284.886C1.19295 287.623 2.10118 289.651 3.73554 290.609L12.292 295.607C11.6501 294.448 11.3087 292.972 11.2996 291.255L10.9058 139.609C10.8898 136.632 11.9028 133.222 13.7557 130.042C15.5448 126.958 17.9372 124.44 20.498 122.955L204.079 16.7697C205.608 15.8824 207.088 15.4262 208.433 15.4011L199.893 10.4398C199.192 10.0434 198.399 9.84035 197.594 9.85129Z" fill="#373B42"/>
<path d="M102.412 235.105C102.412 236.866 101.185 239.001 99.6527 239.895C98.1208 240.789 96.8893 240.073 96.8848 238.312C96.8802 236.551 98.1117 234.416 99.6368 233.533C101.162 232.65 102.407 233.334 102.412 235.105Z" fill="#373B42"/>
<path d="M115.48 227.545C115.48 229.306 114.253 231.441 112.721 232.335C111.189 233.229 109.958 232.515 109.953 230.754C109.949 228.993 111.18 226.856 112.705 225.964C114.23 225.072 115.475 225.784 115.48 227.545Z" fill="#373B42"/>
<path d="M128.548 219.985C128.548 221.746 127.318 223.882 125.789 224.764C124.259 225.647 123.025 224.944 123.019 223.184C123.012 221.423 124.248 219.288 125.773 218.393C127.298 217.499 128.541 218.225 128.548 219.985Z" fill="#373B42"/>
<path d="M176.654 6.31098C175.159 5.43278 173.092 5.5628 170.807 6.87212L57.9516 72.1647C56.8605 72.81 55.8645 73.6046 54.9924 74.5256C52.6267 76.9859 50.9518 80.0288 50.1372 83.3464C49.8958 84.3359 49.7705 85.3502 49.7638 86.3688L50.0211 247.283C50.0211 249.888 50.9566 251.701 52.4203 252.563L43.2492 247.249C41.7833 246.384 40.8659 244.557 40.85 241.952L40.5928 81.0243C40.5947 80.0162 40.7147 79.0117 40.9501 78.0316C41.7627 74.7125 43.4379 71.6683 45.8054 69.2085C46.677 68.2759 47.6755 67.4712 48.7714 66.818L161.629 1.54816C163.905 0.222872 165.981 0.10882 167.476 0.957368L176.654 6.31098Z" fill="#DBDEE4"/>
<path d="M54.9925 74.5255C52.6268 76.9857 50.9518 80.0287 50.1372 83.3463L40.9434 78.0223C41.7559 74.7032 43.4311 71.659 45.7986 69.1992L54.9925 74.5255Z" fill="#F0F2F5"/>
<path d="M52.4205 252.952C52.3515 252.951 52.2839 252.932 52.2247 252.897L43.0468 247.573C41.3874 246.594 40.4655 244.594 40.4519 241.939L40.1924 81.0109C40.1947 79.9704 40.3193 78.9338 40.5634 77.9224C41.3895 74.5346 43.1025 71.4291 45.5257 68.9259C46.4254 67.9727 47.4545 67.1511 48.5827 66.4852L161.433 1.20857C163.757 -0.13953 165.972 -0.347105 167.668 0.615496L176.828 5.9577L176.853 5.97139C176.897 5.99745 176.937 6.03211 176.968 6.07338C177 6.11465 177.023 6.16173 177.036 6.21193C177.049 6.26213 177.053 6.31447 177.046 6.36595C177.039 6.41744 177.022 6.46706 176.996 6.512C176.97 6.55693 176.935 6.59629 176.894 6.62783C176.853 6.65937 176.806 6.68247 176.756 6.69581C176.706 6.70916 176.654 6.71248 176.602 6.7056C176.551 6.69872 176.501 6.68176 176.457 6.6557L176.431 6.63974C175.011 5.81856 173.083 6.02385 171.003 7.21684L58.1453 72.5049C57.0864 73.1339 56.1197 73.9069 55.2726 74.8019C52.9589 77.2126 51.319 80.191 50.5175 83.438C50.2835 84.3984 50.1621 85.3828 50.1556 86.3714L50.4151 247.285C50.4151 249.635 51.1981 251.391 52.6208 252.228C52.6941 252.273 52.7509 252.34 52.7827 252.42C52.8144 252.5 52.8193 252.588 52.7967 252.67C52.774 252.753 52.725 252.826 52.6572 252.879C52.5893 252.931 52.5062 252.96 52.4205 252.961V252.952ZM165.326 0.804823C164.258 0.804823 163.068 1.16751 161.825 1.88604L48.9674 67.165C47.9025 67.7938 46.9316 68.5702 46.0834 69.4711C43.7678 71.8817 42.1269 74.8612 41.326 78.1094C41.0962 79.0611 40.9778 80.0364 40.9731 81.0155L41.2304 241.943C41.244 244.309 42.0271 246.07 43.4361 246.902L50.4105 250.946C49.8608 249.806 49.5915 248.55 49.6252 247.283L49.3726 86.3714C49.3772 85.3211 49.5064 84.2752 49.7573 83.2555C50.5926 79.8702 52.3016 76.7645 54.7127 74.2499C55.61 73.3083 56.6335 72.4961 57.7538 71.8366L170.611 6.53253C171.883 5.80259 173.115 5.41025 174.253 5.36007L167.279 1.29753C166.682 0.964341 166.008 0.794411 165.326 0.804823Z" fill="#373B42"/>
<path d="M49.8072 103.109C49.7382 103.109 49.6705 103.09 49.6114 103.055L40.4312 97.7307C40.3407 97.6787 40.2744 97.5927 40.2471 97.4918C40.2198 97.3908 40.2336 97.2831 40.2855 97.1924C40.3375 97.1016 40.4232 97.0353 40.524 97.0079C40.6247 96.9805 40.7322 96.9944 40.8227 97.0464L50.0029 102.373C50.0776 102.416 50.136 102.482 50.169 102.562C50.202 102.642 50.2078 102.731 50.1855 102.814C50.1632 102.897 50.114 102.971 50.0456 103.024C49.9772 103.076 49.8934 103.105 49.8072 103.105V103.109Z" fill="#373B42"/>
<path d="M50.0072 240.862C49.9384 240.862 49.8708 240.844 49.8114 240.809L40.6313 235.469C40.5407 235.417 40.4747 235.33 40.4478 235.229C40.4209 235.127 40.4353 235.019 40.4878 234.929C40.5404 234.838 40.6267 234.772 40.7279 234.745C40.8291 234.718 40.9368 234.732 41.0273 234.785L50.2052 240.122C50.2948 240.175 50.36 240.261 50.3864 240.361C50.4129 240.462 50.3985 240.569 50.3464 240.659C50.3132 240.72 50.2643 240.771 50.2046 240.807C50.1449 240.842 50.0767 240.861 50.0072 240.862Z" fill="#373B42"/>
<path d="M164.731 10.7754C164.662 10.775 164.595 10.7561 164.536 10.7207L155.374 5.39672C155.329 5.37095 155.289 5.3366 155.258 5.2956C155.226 5.2546 155.203 5.20778 155.189 5.15779C155.176 5.1078 155.172 5.05563 155.179 5.00426C155.186 4.95289 155.202 4.90332 155.228 4.85839C155.254 4.81346 155.288 4.77404 155.329 4.74238C155.37 4.71073 155.416 4.68746 155.466 4.6739C155.516 4.66035 155.568 4.65677 155.62 4.66338C155.671 4.66998 155.72 4.68664 155.765 4.7124L164.927 10.0432C165.002 10.0864 165.06 10.153 165.093 10.2328C165.126 10.3127 165.132 10.4012 165.11 10.4846C165.087 10.5681 165.038 10.6418 164.97 10.6944C164.901 10.747 164.818 10.7755 164.731 10.7754Z" fill="#373B42"/>
<path d="M179.054 11.5801C179.038 6.36106 175.339 4.26249 170.807 6.88341L57.9543 72.1624C53.4018 74.7901 49.7598 81.1497 49.7598 86.3687L49.8053 102.69L179.097 27.901L179.054 11.5801Z" fill="#373B42"/>
<path d="M49.8072 103.087C49.7388 103.087 49.6714 103.07 49.6115 103.036C49.5521 103.002 49.5028 102.952 49.4684 102.893C49.4341 102.833 49.4159 102.765 49.4157 102.697L49.3702 86.3735C49.3542 81.0381 53.1192 74.512 57.7582 71.8272L170.611 6.54372C172.942 5.19562 175.163 4.99032 176.839 5.96433C178.514 6.93834 179.436 8.92969 179.445 11.5803L179.493 27.9011C179.493 27.9703 179.475 28.0384 179.44 28.0981C179.405 28.1579 179.355 28.2072 179.295 28.241L50.003 103.03C49.9443 103.067 49.8765 103.086 49.8072 103.087ZM174.494 6.14225C173.431 6.14225 172.243 6.50494 171.005 7.22119L58.152 72.5024C53.7269 75.0617 50.1395 81.2822 50.1532 86.3666L50.1987 102.012L178.708 27.6753L178.66 11.5803C178.66 9.2171 177.87 7.46298 176.45 6.64408C175.854 6.30641 175.179 6.13324 174.494 6.14225Z" fill="#373B42"/>
<path d="M49.8066 102.69L50.0343 247.29C50.0479 252.518 53.7355 254.626 58.2789 251.998L171.125 186.717C175.657 184.096 179.333 177.73 179.319 172.501L179.092 27.9014L49.8066 102.69Z" fill="white"/>
<path d="M54.5825 253.525C53.7623 253.535 52.9541 253.327 52.2402 252.922C50.5694 251.957 49.643 249.957 49.6339 247.29L49.4062 102.693C49.4063 102.624 49.4244 102.556 49.4587 102.496C49.4931 102.436 49.5425 102.386 49.602 102.351L178.914 27.5619C178.974 27.5284 179.042 27.5107 179.11 27.5107C179.179 27.5107 179.246 27.5284 179.306 27.5619C179.366 27.5961 179.416 27.6455 179.451 27.7052C179.485 27.7649 179.504 27.8327 179.504 27.9018L179.732 172.5C179.745 177.844 175.98 184.375 171.341 187.057L58.4681 252.338C57.1046 253.128 55.7821 253.525 54.5825 253.525ZM50.1984 102.919L50.426 247.288C50.426 249.663 51.2182 251.421 52.6408 252.243C54.0635 253.064 56.0074 252.858 58.0834 251.659L170.929 186.377C175.352 183.82 178.942 177.595 178.926 172.502L178.71 28.5816L50.1984 102.919Z" fill="#373B42"/>
<path d="M63.4082 77.9818C65.3225 76.8755 66.8613 77.7537 66.8681 79.9572C66.875 82.1607 65.3453 84.8158 63.431 85.9244C61.5166 87.033 59.9756 86.1343 59.9688 83.9468C59.9619 81.7592 61.4939 79.0904 63.4082 77.9818Z" fill="white"/>
<path d="M77.8106 69.6517C79.709 68.5522 81.2636 69.4236 81.2705 71.6271C81.2773 73.8305 79.7294 76.4948 77.8333 77.592C75.9372 78.6892 74.3779 77.8018 74.3711 75.6166C74.3643 73.4314 75.8962 70.758 77.8106 69.6517Z" fill="white"/>
<path d="M92.2119 61.3095C94.1149 60.21 95.6582 61.0814 95.665 63.3008C95.6718 65.5203 94.1376 68.1709 92.2347 69.2703C90.3317 70.3698 88.7725 69.4802 88.7656 67.2904C88.7588 65.1006 90.293 62.4203 92.2119 61.3095Z" fill="white"/>
<g opacity="0.1">
<path d="M115.034 366.678C111.572 368.678 111.554 371.924 114.993 373.932L161.388 400.932C164.825 402.933 170.432 402.933 173.892 400.932L305.301 324.942C308.772 322.936 308.781 319.695 305.342 317.688L258.956 290.689C255.519 288.687 249.921 288.682 246.452 290.689L115.034 366.678Z" fill="black"/>
</g>
<path d="M114.387 349.226C110.927 351.229 110.909 354.472 114.346 356.482L160.732 383.48C164.171 385.481 169.776 385.481 173.238 383.48L304.647 307.492C308.116 305.484 308.125 302.245 304.688 300.236L258.302 273.237C254.865 271.237 249.267 271.23 245.798 273.237L114.387 349.226Z" fill="white"/>
<path d="M166.976 385.366C164.641 385.366 162.307 384.851 160.534 383.82L114.151 356.821C112.368 355.783 111.387 354.378 111.39 352.866C111.392 351.354 112.387 349.93 114.192 348.886L245.61 272.897C249.177 270.844 254.963 270.844 258.509 272.897L304.884 299.896C306.668 300.936 307.652 302.341 307.649 303.853C307.647 305.366 306.65 306.784 304.843 307.829L173.434 383.82C171.649 384.851 169.312 385.366 166.976 385.366ZM114.586 349.554C113.031 350.453 112.175 351.625 112.173 352.855C112.17 354.084 113.013 355.238 114.545 356.13L160.933 383.14C164.26 385.077 169.694 385.077 173.042 383.14L304.451 307.149C306.006 306.251 306.864 305.078 306.866 303.851C306.869 302.624 306.024 301.467 304.49 300.575L258.104 273.577C254.776 271.638 249.345 271.64 245.994 273.577L114.586 349.554Z" fill="#373B42"/>
<path d="M307.312 314.362C307.326 315.678 306.445 317.006 304.699 318.012L173.281 394C172.522 394.439 171.706 394.772 170.857 394.99C169.507 395.353 168.112 395.517 166.714 395.478C165.53 395.469 164.351 395.305 163.209 394.99C162.36 394.772 161.544 394.439 160.785 394L114.401 367.015C112.683 365.998 111.829 364.698 111.829 363.395L111.774 352.887C111.788 354.187 112.642 355.489 114.347 356.479L160.716 383.478C161.503 383.922 162.345 384.259 163.22 384.481C164.364 384.789 165.542 384.953 166.726 384.969C168.125 385.002 169.522 384.823 170.869 384.44C171.701 384.222 172.502 383.899 173.252 383.478L304.658 307.469C306.379 306.479 307.258 305.137 307.258 303.835L307.312 314.362Z" fill="#BEC4CD"/>
<path d="M170.857 384.44V394.99C169.507 395.353 168.112 395.517 166.714 395.478C165.53 395.47 164.351 395.305 163.209 394.99V384.482C164.353 384.789 165.53 384.953 166.714 384.97C168.114 385.002 169.51 384.823 170.857 384.44Z" fill="#DBDEE4"/>
<path d="M167.078 395.88H166.71C164.386 395.839 162.212 395.294 160.593 394.347L114.201 367.348C112.421 366.301 111.442 364.894 111.442 363.391L111.39 352.898C111.39 352.794 111.431 352.694 111.503 352.621C111.576 352.547 111.675 352.505 111.779 352.503C111.883 352.503 111.982 352.544 112.056 352.617C112.129 352.69 112.171 352.79 112.173 352.893C112.173 354.105 113.026 355.261 114.542 356.149L160.917 383.142C162.439 384.032 164.502 384.543 166.723 384.584C169.129 384.632 171.349 384.112 173.038 383.142L304.465 307.145C305.988 306.26 306.862 305.06 306.862 303.853C306.861 303.802 306.871 303.751 306.891 303.703C306.91 303.656 306.939 303.612 306.975 303.576C307.011 303.54 307.054 303.511 307.102 303.491C307.149 303.471 307.2 303.461 307.251 303.461C307.354 303.461 307.454 303.502 307.527 303.575C307.6 303.648 307.642 303.747 307.643 303.851L307.695 314.362C307.709 315.893 306.714 317.309 304.893 318.352L173.484 394.342C171.768 395.339 169.505 395.88 167.078 395.88ZM112.184 355.143L112.225 363.4C112.225 364.618 113.067 365.781 114.599 366.682L160.985 393.674C162.492 394.554 164.529 395.063 166.726 395.102C169.104 395.154 171.435 394.634 173.099 393.674L304.513 317.676C306.079 316.78 306.932 315.607 306.923 314.376L306.88 306.08C306.338 306.798 305.651 307.394 304.865 307.831L173.432 383.815C171.611 384.855 169.22 385.391 166.712 385.362C164.356 385.319 162.159 384.769 160.525 383.813L114.151 356.821C113.39 356.399 112.722 355.828 112.184 355.143Z" fill="#373B42"/>
<path d="M209.374 304.43C208.554 304.902 208.556 305.666 209.374 306.134L217.24 310.714C217.696 310.947 218.2 311.068 218.711 311.068C219.222 311.068 219.726 310.947 220.181 310.714L229.411 305.377C230.231 304.902 230.233 304.143 229.411 303.67L221.547 299.092C221.092 298.86 220.588 298.738 220.077 298.738C219.565 298.738 219.061 298.86 218.606 299.092L209.374 304.43Z" fill="#DBDEE4"/>
<path d="M226.147 294.728C225.328 295.203 225.332 295.967 226.147 296.434L234 301.012C234.455 301.246 234.959 301.368 235.471 301.368C235.982 301.368 236.486 301.246 236.941 301.012L246.171 295.675C246.991 295.203 246.995 294.443 246.171 293.969L238.325 289.39C237.869 289.159 237.366 289.038 236.855 289.038C236.344 289.038 235.84 289.159 235.384 289.39L226.147 294.728Z" fill="#DBDEE4"/>
<path d="M258.218 293.933C257.398 294.405 257.403 295.169 258.206 295.639L266.073 300.217C266.529 300.45 267.033 300.571 267.544 300.571C268.055 300.571 268.559 300.45 269.014 300.217L278.247 294.88C279.064 294.407 279.068 293.648 278.247 293.173L270.38 288.595C269.925 288.363 269.421 288.241 268.909 288.241C268.398 288.241 267.894 288.363 267.439 288.595L258.218 293.933Z" fill="#DBDEE4"/>
<path d="M242.922 285.03C242.104 285.502 242.107 286.266 242.922 286.736L250.788 291.314C251.244 291.547 251.748 291.668 252.259 291.668C252.77 291.668 253.274 291.547 253.729 291.314L262.96 285.976C263.777 285.504 263.781 284.742 262.96 284.27L255.093 279.692C254.637 279.459 254.134 279.338 253.622 279.338C253.111 279.338 252.607 279.459 252.152 279.692L242.922 285.03Z" fill="#DBDEE4"/>
<path d="M241.444 303.631C240.624 304.106 240.627 304.87 241.444 305.338L249.311 309.918C249.766 310.151 250.27 310.272 250.781 310.272C251.292 310.272 251.796 310.151 252.252 309.918L261.482 304.58C262.301 304.106 262.304 303.346 261.482 302.874L253.617 298.294C253.162 298.062 252.658 297.941 252.147 297.941C251.636 297.941 251.132 298.062 250.676 298.294L241.444 303.631Z" fill="#DBDEE4"/>
<path d="M239.965 322.236C239.147 322.708 239.15 323.472 239.965 323.942L247.831 328.52C248.287 328.752 248.791 328.873 249.302 328.873C249.813 328.873 250.317 328.752 250.772 328.52L260.003 323.182C260.82 322.71 260.817 321.946 260.003 321.476L252.136 316.898C251.68 316.665 251.176 316.544 250.665 316.544C250.154 316.544 249.65 316.665 249.195 316.898L239.965 322.236Z" fill="#DBDEE4"/>
<path d="M224.668 313.332C223.851 313.804 223.853 314.569 224.668 315.039L232.534 319.617C232.99 319.849 233.494 319.971 234.005 319.971C234.516 319.971 235.02 319.849 235.475 319.617L244.706 314.279C245.523 313.807 245.527 313.045 244.706 312.573L236.839 307.995C236.384 307.762 235.88 307.641 235.368 307.641C234.857 307.641 234.353 307.762 233.898 307.995L224.668 313.332Z" fill="#DBDEE4"/>
<path d="M142.267 343.233C141.455 343.703 141.45 344.471 142.267 344.939L150.134 349.517C150.59 349.75 151.094 349.871 151.605 349.871C152.116 349.871 152.62 349.75 153.075 349.517L162.299 344.177C163.116 343.703 163.12 342.943 162.299 342.471L154.432 337.89C153.976 337.659 153.472 337.538 152.961 337.538C152.45 337.538 151.947 337.659 151.491 337.89L142.267 343.233Z" fill="#DBDEE4"/>
<path d="M125.493 352.934C124.683 353.39 124.678 354.17 125.493 354.638L133.36 359.218C133.816 359.449 134.32 359.57 134.831 359.57C135.341 359.57 135.845 359.449 136.301 359.218L145.538 353.876C146.358 353.403 146.36 352.642 145.538 352.169L137.674 347.591C137.218 347.359 136.714 347.237 136.203 347.237C135.692 347.237 135.188 347.359 134.733 347.591L125.493 352.934Z" fill="#DBDEE4"/>
<path d="M157.564 352.136C156.753 352.606 156.749 353.374 157.564 353.842L165.43 358.42C165.886 358.653 166.39 358.774 166.901 358.774C167.412 358.774 167.916 358.653 168.371 358.42L177.599 353.089C178.419 352.615 178.421 351.855 177.599 351.383L169.735 346.803C169.279 346.571 168.775 346.45 168.264 346.45C167.753 346.45 167.25 346.571 166.794 346.803L157.564 352.136Z" fill="#DBDEE4"/>
<path d="M140.79 361.837C139.98 362.304 139.975 363.073 140.79 363.543L148.641 368.121C149.097 368.353 149.6 368.473 150.111 368.473C150.622 368.473 151.126 368.353 151.582 368.121L160.819 362.779C161.636 362.307 161.641 361.545 160.819 361.073L152.966 356.495C152.51 356.262 152.007 356.141 151.495 356.141C150.984 356.141 150.48 356.262 150.025 356.495L140.79 361.837Z" fill="#DBDEE4"/>
<path d="M159.043 333.534C158.233 333.99 158.228 334.77 159.043 335.24L166.908 339.818C167.363 340.05 167.867 340.171 168.378 340.171C168.889 340.171 169.393 340.05 169.848 339.818L179.088 334.476C179.905 334.004 179.91 333.242 179.088 332.77L171.221 328.192C170.766 327.959 170.262 327.838 169.751 327.838C169.239 327.838 168.736 327.959 168.28 328.192L159.043 333.534Z" fill="#DBDEE4"/>
<path d="M156.086 370.74C155.276 371.196 155.271 371.976 156.086 372.446L163.953 377.024C164.408 377.255 164.912 377.375 165.422 377.375C165.933 377.375 166.436 377.255 166.891 377.024L176.131 371.682C176.948 371.21 176.946 370.446 176.131 369.976L168.264 365.407C167.809 365.174 167.305 365.053 166.794 365.053C166.282 365.053 165.778 365.174 165.323 365.407L156.086 370.74Z" fill="#DBDEE4"/>
<path d="M172.86 361.039C172.05 361.509 172.046 362.278 172.86 362.745L180.727 367.326C181.183 367.556 181.687 367.676 182.198 367.676C182.708 367.676 183.212 367.556 183.668 367.326L192.896 361.986C193.713 361.511 193.711 360.747 192.896 360.279L185.029 355.699C184.574 355.467 184.07 355.347 183.559 355.347C183.048 355.347 182.544 355.467 182.088 355.699L172.86 361.039Z" fill="#DBDEE4"/>
<path d="M189.634 351.34C188.824 351.808 188.819 352.576 189.634 353.046L197.501 357.624C197.956 357.856 198.46 357.977 198.971 357.977C199.482 357.977 199.986 357.856 200.442 357.624L243.235 332.882C244.053 332.41 244.05 331.645 243.235 331.178L235.366 326.597C234.911 326.366 234.407 326.245 233.896 326.245C233.385 326.245 232.881 326.366 232.425 326.597L189.634 351.34Z" fill="#DBDEE4"/>
<path d="M191.114 332.736C190.303 333.205 190.299 333.974 191.102 334.442L198.969 339.022C199.425 339.254 199.929 339.375 200.44 339.375C200.951 339.375 201.454 339.254 201.91 339.022L211.15 333.68C211.967 333.205 211.971 332.446 211.15 331.974L203.283 327.393C202.827 327.162 202.323 327.041 201.812 327.041C201.301 327.041 200.798 327.162 200.342 327.393L191.114 332.736Z" fill="#DBDEE4"/>
<path d="M174.34 342.437C173.527 342.893 173.525 343.673 174.34 344.143L182.207 348.721C182.662 348.953 183.166 349.074 183.677 349.074C184.188 349.074 184.692 348.953 185.148 348.721L194.387 343.379C195.204 342.907 195.209 342.147 194.387 341.672L186.52 337.094C186.065 336.862 185.561 336.741 185.05 336.741C184.539 336.741 184.035 336.862 183.579 337.094L174.34 342.437Z" fill="#DBDEE4"/>
<path d="M207.894 323.032C207.077 323.504 207.079 324.27 207.894 324.738L215.761 329.316C216.216 329.55 216.72 329.672 217.232 329.672C217.743 329.672 218.247 329.55 218.702 329.316L227.932 323.978C228.749 323.506 228.754 322.747 227.932 322.272L220.065 317.694C219.61 317.463 219.106 317.342 218.595 317.342C218.084 317.342 217.58 317.463 217.125 317.694L207.894 323.032Z" fill="#DBDEE4"/>
<path d="M192.597 314.129C191.78 314.601 191.782 315.366 192.597 315.836L200.464 320.414C200.919 320.647 201.423 320.769 201.935 320.769C202.446 320.769 202.95 320.647 203.405 320.414L212.635 315.076C213.453 314.604 213.457 313.844 212.635 313.37L204.769 308.792C204.313 308.56 203.809 308.438 203.298 308.438C202.787 308.438 202.283 308.56 201.828 308.792L192.597 314.129Z" fill="#DBDEE4"/>
<path d="M175.817 323.832C175.006 324.302 175.002 325.071 175.817 325.538L183.683 330.119C184.139 330.35 184.643 330.471 185.154 330.471C185.665 330.471 186.169 330.35 186.624 330.119L195.861 324.777C196.678 324.302 196.683 323.543 195.861 323.07L187.995 318.49C187.539 318.258 187.035 318.138 186.524 318.138C186.013 318.138 185.509 318.258 185.054 318.49L175.817 323.832Z" fill="#DBDEE4"/>
<path d="M273.512 302.835C272.695 303.308 272.698 304.072 273.512 304.542L281.379 309.12C281.835 309.352 282.338 309.474 282.85 309.474C283.361 309.474 283.865 309.352 284.32 309.12L293.55 303.782C294.37 303.31 294.365 302.546 293.55 302.076L285.686 297.498C285.23 297.266 284.727 297.145 284.215 297.145C283.704 297.145 283.201 297.266 282.745 297.498L273.512 302.835Z" fill="#DBDEE4"/>
<path d="M256.738 312.535C255.921 313.009 255.923 313.773 256.738 314.241L264.605 318.821C265.06 319.053 265.564 319.174 266.075 319.174C266.586 319.174 267.09 319.053 267.546 318.821L276.776 313.484C277.593 313.009 277.591 312.245 276.776 311.777L268.909 307.197C268.453 306.965 267.95 306.845 267.439 306.845C266.928 306.845 266.424 306.965 265.968 307.197L256.738 312.535Z" fill="#DBDEE4"/>
<path d="M139.408 99.3852C138.932 99.1024 138.27 99.1411 137.555 99.5631L110.814 115.033C110.182 115.423 109.645 115.948 109.241 116.571C108.683 117.368 108.324 118.288 108.194 119.253C107.725 123.334 106.284 127.602 104.14 131.589C101.649 136.197 98.2394 140.38 94.363 143.279C93.59 143.87 92.9708 144.64 92.5579 145.522C92.2144 146.193 92.0254 146.932 92.0048 147.686L92.0321 158.102C92.0617 170.079 94.9206 179.959 100.047 186.984C102.023 189.667 104.729 191.939 107.818 193.747L103.343 191.122C100.236 189.322 97.5292 187.059 95.5717 184.359C90.4501 177.342 87.5865 167.463 87.5478 155.492L87.5205 145.07C87.5426 144.318 87.7316 143.581 88.0736 142.912C88.4966 142.036 89.115 141.27 89.881 140.672C93.7666 137.773 97.165 133.601 99.6689 128.964C101.813 125.004 103.245 120.718 103.714 116.646C103.846 115.681 104.206 114.761 104.763 113.963C105.166 113.343 105.699 112.817 106.325 112.424L133.066 96.965C133.797 96.5521 134.453 96.5088 134.919 96.778L139.408 99.3852Z" fill="#373B42"/>
<path d="M107.818 194.14C107.749 194.141 107.68 194.123 107.62 194.087L103.145 191.462C99.8126 189.532 97.1585 187.219 95.2532 184.589C89.9928 177.381 87.193 167.319 87.1543 155.494L87.127 145.072C87.1472 144.261 87.3494 143.464 87.7188 142.741C88.1681 141.809 88.8264 140.993 89.6422 140.357C93.3571 137.586 96.7943 133.473 99.3186 128.777C101.477 124.789 102.861 120.565 103.318 116.591C103.455 115.562 103.838 114.581 104.433 113.731C104.869 113.063 105.444 112.499 106.12 112.077L132.864 96.6161C133.706 96.1394 134.505 96.0755 135.108 96.429L139.593 99.0386H139.606C139.697 99.0912 139.763 99.1777 139.79 99.2791C139.817 99.3805 139.802 99.4884 139.75 99.5792C139.697 99.6699 139.611 99.736 139.51 99.763C139.408 99.7899 139.301 99.7755 139.21 99.7229H139.199C138.828 99.5085 138.313 99.5746 137.749 99.9054L111.012 115.373C110.431 115.734 109.937 116.218 109.564 116.792C109.041 117.538 108.704 118.398 108.581 119.301C108.126 123.343 106.701 127.657 104.483 131.781C101.893 136.571 98.3831 140.768 94.5999 143.597C93.876 144.149 93.2965 144.869 92.9109 145.695C92.5949 146.314 92.4193 146.996 92.3965 147.691L92.4238 158.104C92.4511 169.762 95.1963 179.669 100.363 186.758C102.228 189.288 104.798 191.526 107.998 193.403H108.009C108.083 193.447 108.141 193.514 108.173 193.593C108.205 193.673 108.21 193.761 108.188 193.844C108.165 193.927 108.116 194 108.048 194.052C107.98 194.104 107.897 194.133 107.811 194.133L107.818 194.14ZM134.241 96.9879C133.891 97.0056 133.551 97.1123 133.253 97.2981L106.516 112.754C105.94 113.118 105.45 113.603 105.08 114.176C104.557 114.922 104.22 115.782 104.097 116.685C103.628 120.768 102.214 125.081 99.9992 129.155C97.4248 133.945 93.9102 138.152 90.1043 140.992C89.3875 141.552 88.8101 142.271 88.4176 143.092C88.0994 143.706 87.9236 144.383 87.9032 145.075L87.9305 155.497C87.9692 167.155 90.7166 177.057 95.8815 184.131C97.5585 186.385 99.6283 188.317 101.991 189.833C101.17 189.023 100.413 188.149 99.7261 187.221C94.4656 179.993 91.6704 169.922 91.6408 158.102L91.6135 147.689C91.6339 146.874 91.8361 146.074 92.2053 145.348C92.6471 144.409 93.3085 143.591 94.1333 142.962C97.8277 140.2 101.258 136.094 103.794 131.402C105.965 127.367 107.352 123.149 107.805 119.21C107.94 118.18 108.322 117.199 108.918 116.349C109.354 115.676 109.935 115.11 110.618 114.691L137.36 99.2233C137.532 99.1196 137.714 99.0326 137.904 98.9633L134.717 97.1088C134.572 97.0256 134.408 96.9838 134.241 96.9879Z" fill="#373B42"/>
<path d="M110.812 115.034C109.469 115.809 108.379 117.604 108.19 119.251C107.723 123.334 106.283 127.614 104.141 131.585C101.65 136.204 98.2383 140.383 94.3527 143.28C93.012 144.279 91.9877 146.122 91.9922 147.689L92.0218 158.107C92.0559 170.082 94.9263 179.959 100.046 186.98C104.876 193.595 114.158 197.655 122.836 198.545C123.398 198.576 123.955 198.429 124.429 198.125C125.045 197.758 125.586 197.276 126.022 196.706C134.672 185.792 143.896 171.026 148.674 158.853C153.745 145.937 156.543 132.782 156.508 120.807L156.481 110.387C156.481 108.822 155.445 108.17 154.102 108.724C150.233 110.305 146.8 110.093 144.292 108.359C142.143 106.87 140.672 104.276 140.194 100.745C139.999 99.3218 138.911 98.7858 137.558 99.5659L110.812 115.034Z" fill="white"/>
<path d="M123.033 198.948C122.956 198.948 122.878 198.948 122.806 198.948C113.138 197.956 104.3 193.463 99.7402 187.222C94.4661 179.988 91.6708 169.922 91.639 158.109L91.6094 147.689C91.6094 146.042 92.6633 144.055 94.1292 142.965C97.835 140.193 101.268 136.085 103.794 131.4C105.964 127.376 107.35 123.161 107.803 119.205C108.005 117.417 109.189 115.519 110.614 114.693L137.351 99.2257C138.132 98.7695 138.894 98.6919 139.497 98.9976C140.101 99.3033 140.458 99.8872 140.572 100.699C141.027 104.036 142.393 106.575 144.514 108.046C146.973 109.739 150.326 109.853 153.954 108.368C154.73 108.046 155.456 108.074 156.003 108.439C156.549 108.804 156.868 109.506 156.87 110.396L156.9 120.816C156.934 132.618 154.214 145.825 149.037 159.005C144.583 170.353 135.88 184.897 126.334 196.95C125.868 197.558 125.293 198.072 124.638 198.467C124.154 198.765 123.601 198.93 123.033 198.948ZM111.008 115.373C109.799 116.073 108.754 117.757 108.579 119.294C108.124 123.348 106.699 127.663 104.482 131.772C101.903 136.562 98.3904 140.757 94.5936 143.594C93.312 144.55 92.3856 146.27 92.3901 147.687L92.4174 158.106C92.4493 169.756 95.199 179.66 100.366 186.747C104.73 192.721 113.569 197.199 122.881 198.152C123.363 198.174 123.84 198.045 124.246 197.783C124.816 197.438 125.317 196.989 125.721 196.46C135.225 184.464 143.884 170 148.316 158.706C153.453 145.62 156.153 132.513 156.119 120.809L156.089 110.387C156.089 109.766 155.903 109.303 155.568 109.08C155.233 108.856 154.78 108.865 154.25 109.08C150.38 110.677 146.754 110.524 144.068 108.676C141.765 107.079 140.287 104.342 139.793 100.79C139.718 100.245 139.491 99.853 139.154 99.6888C138.817 99.5245 138.289 99.5861 137.742 99.8986L111.008 115.373Z" fill="#373B42"/>
<path d="M121.972 192.767C130.911 181.394 139.31 167.333 143.446 156.793C148.349 144.311 150.923 131.872 150.892 120.823L150.876 115.326C150.294 115.389 149.708 115.421 149.123 115.421C146.268 115.447 143.473 114.602 141.108 112.999C138.918 111.461 137.192 109.348 136.121 106.893L113.848 119.778C113.812 119.834 113.784 119.895 113.763 119.958C113.235 124.6 111.612 129.571 109.083 134.261C106.111 139.778 102.182 144.457 97.7248 147.792C97.6853 147.84 97.6502 147.892 97.6201 147.947L97.6497 158.091C97.6793 168.629 100.078 177.48 104.592 183.659C107.895 188.194 114.619 191.686 121.972 192.767Z" fill="#DA0000"/>
<path d="M124.924 135.136C129.356 132.57 132.968 134.625 132.982 139.73C132.982 143.111 131.418 146.986 129.074 149.949L129.117 165.515L120.922 170.26L120.877 154.694C118.523 154.45 116.939 152.399 116.93 149.021C116.909 143.918 120.49 137.7 124.924 135.136Z" fill="#373B42"/>
<path d="M120.915 170.654C120.846 170.654 120.778 170.636 120.717 170.602C120.658 170.567 120.609 170.518 120.574 170.458C120.54 170.398 120.522 170.331 120.522 170.262L120.481 155.034C118.043 154.598 116.54 152.331 116.531 149.021C116.518 143.8 120.194 137.417 124.726 134.796C127.002 133.476 129.174 133.275 130.824 134.226C132.474 135.177 133.367 137.125 133.373 139.728C133.373 143.02 131.887 146.975 129.465 150.084L129.511 165.515C129.511 165.584 129.493 165.652 129.458 165.712C129.424 165.771 129.374 165.821 129.315 165.855L121.12 170.6C121.058 170.637 120.987 170.656 120.915 170.654ZM125.12 135.478C120.795 137.974 117.301 144.051 117.314 149.021C117.314 152.098 118.666 154.073 120.911 154.306C121.007 154.315 121.097 154.36 121.162 154.432C121.227 154.503 121.263 154.597 121.264 154.694L121.305 169.585L128.725 165.292L128.682 149.952C128.682 149.863 128.711 149.777 128.766 149.708C131.134 146.715 132.599 142.894 132.59 139.733C132.59 137.422 131.819 135.709 130.432 134.91C129.046 134.112 127.146 134.301 125.12 135.478Z" fill="#373B42"/>
<path d="M120.888 158.602L127.874 154.535L127.844 164.809L120.858 168.876L120.888 158.602Z" fill="#BEC4CD"/>
<path d="M120.87 169.269C120.801 169.268 120.734 169.25 120.674 169.216C120.615 169.181 120.565 169.131 120.531 169.071C120.497 169.011 120.479 168.943 120.479 168.874L120.508 158.61C120.508 158.541 120.526 158.474 120.56 158.414C120.594 158.354 120.643 158.305 120.702 158.27L127.687 154.203C127.747 154.168 127.815 154.15 127.884 154.15C127.952 154.15 128.02 154.169 128.08 154.203C128.139 154.237 128.189 154.287 128.223 154.346C128.258 154.406 128.277 154.474 128.277 154.542L128.247 164.807C128.247 164.875 128.229 164.942 128.195 165.002C128.161 165.061 128.113 165.11 128.054 165.145L121.068 169.214C121.008 169.249 120.94 169.268 120.87 169.269ZM121.291 158.829L121.264 168.181L127.464 164.57L127.492 155.206L121.291 158.829Z" fill="#373B42"/>
<path d="M164.067 165.152L157.088 169.219L129.09 153.024L117.253 146.181C117.79 143.868 118.772 141.682 120.144 139.746L131.377 146.238L160.379 163.024L164.067 165.152Z" fill="#F0F2F5"/>
<path d="M157.088 169.611C157.019 169.611 156.952 169.593 156.892 169.559L117.057 146.52C116.985 146.479 116.928 146.415 116.894 146.339C116.861 146.263 116.853 146.178 116.871 146.096C117.427 143.734 118.431 141.501 119.83 139.52C119.887 139.44 119.972 139.384 120.068 139.363C120.163 139.342 120.264 139.357 120.349 139.406L164.263 164.812C164.322 164.846 164.371 164.895 164.406 164.955C164.44 165.014 164.458 165.081 164.458 165.15C164.459 165.219 164.441 165.287 164.407 165.347C164.373 165.407 164.324 165.457 164.265 165.492L157.29 169.559C157.229 169.594 157.159 169.612 157.088 169.611ZM117.708 145.984L157.088 168.765L163.286 165.152L120.265 140.268C119.085 142.009 118.218 143.944 117.704 145.984H117.708Z" fill="#373B42"/>
<path d="M191.678 196.61L184.69 200.681C182.373 202.034 179.166 201.849 175.622 199.798C168.608 195.74 162.909 185.859 162.934 177.764C162.945 173.753 164.37 170.92 166.651 169.584L173.639 165.523C171.347 166.851 169.933 169.682 169.922 173.692C169.897 181.787 175.597 191.669 182.61 195.727C186.154 197.771 189.361 197.958 191.678 196.61Z" fill="#F0F2F5"/>
<path d="M181.332 201.941C179.511 201.941 177.501 201.336 175.414 200.134C168.285 196.008 162.505 185.971 162.53 177.759C162.53 173.742 163.93 170.715 166.439 169.239L173.452 165.179C173.542 165.127 173.65 165.113 173.751 165.141C173.851 165.168 173.937 165.234 173.989 165.325C174.041 165.416 174.055 165.524 174.027 165.625C174 165.726 173.934 165.811 173.843 165.864H173.83C171.581 167.175 170.333 169.953 170.322 173.688C170.297 181.648 175.899 191.379 182.814 195.38C186.117 197.287 189.188 197.602 191.489 196.263C191.58 196.21 191.687 196.196 191.788 196.223C191.89 196.25 191.976 196.316 192.028 196.407C192.081 196.497 192.095 196.605 192.069 196.707C192.042 196.808 191.976 196.895 191.885 196.947H191.869L184.897 201.012C183.813 201.636 182.582 201.957 181.332 201.941ZM171.107 167.442L166.851 169.921C164.593 171.249 163.341 174.027 163.329 177.764C163.304 185.725 168.911 195.456 175.821 199.459C179.122 201.366 182.206 201.678 184.496 200.339L188.751 197.86C186.839 197.965 184.653 197.36 182.416 196.067C175.289 191.938 169.509 181.899 169.534 173.69C169.537 171.165 170.083 169.039 171.107 167.442Z" fill="#373B42"/>
<path d="M202.21 192.372C202.196 198.481 200.041 202.776 196.571 204.799L189.583 208.871C193.052 206.847 195.21 202.552 195.222 196.444C195.258 184.142 186.622 169.169 175.955 162.999C170.577 159.883 165.712 159.598 162.188 161.646L169.177 157.575C172.684 155.522 177.565 155.825 182.943 158.927C193.61 165.097 202.246 180.082 202.21 192.372Z" fill="#F0F2F5"/>
<path d="M189.584 209.263C189.515 209.264 189.448 209.246 189.389 209.211C189.329 209.177 189.28 209.127 189.247 209.067C189.221 209.022 189.204 208.973 189.197 208.922C189.19 208.871 189.193 208.819 189.206 208.769C189.219 208.719 189.242 208.673 189.273 208.632C189.304 208.591 189.343 208.556 189.388 208.531C192.884 206.491 194.819 202.199 194.831 196.441C194.867 184.29 186.313 169.44 175.76 163.336C170.686 160.396 165.933 159.915 162.387 161.984C162.296 162.036 162.189 162.05 162.088 162.023C161.987 161.996 161.901 161.93 161.849 161.839C161.796 161.748 161.782 161.64 161.809 161.539C161.836 161.438 161.903 161.352 161.993 161.299L168.981 157.228C172.764 155.017 177.795 155.496 183.14 158.58C193.909 164.81 202.64 179.965 202.602 192.365C202.588 198.412 200.519 202.944 196.77 205.139L189.784 209.21C189.723 209.246 189.654 209.264 189.584 209.263ZM167.276 159.935C170.008 159.935 173.026 160.848 176.154 162.659C186.923 168.888 195.655 184.044 195.616 196.446C195.616 200.65 194.603 204.124 192.73 206.585L196.372 204.459C199.87 202.42 201.8 198.127 201.814 192.37C201.851 180.221 193.296 165.371 182.744 159.267C177.652 156.329 172.903 155.845 169.371 157.912L165.728 160.038C166.242 159.969 166.759 159.935 167.276 159.935Z" fill="#373B42"/>
<path d="M175.956 162.996C169.582 159.319 163.917 159.575 160.384 163.024C158.841 164.513 157.716 166.603 157.09 169.221L129.092 153.026L117.256 146.183C117.037 147.113 116.925 148.066 116.921 149.023C116.937 152.408 118.514 154.456 120.87 154.693L120.884 158.607L129.115 163.357L157.063 179.531C159.05 190.494 166.682 202.223 175.831 207.515C186.495 213.688 195.179 208.743 195.224 196.441C195.27 184.139 186.616 169.18 175.956 162.996ZM175.619 199.803C168.61 195.736 162.911 185.859 162.924 177.766C162.938 169.673 168.695 166.413 175.701 170.467C182.707 174.52 188.448 184.424 188.409 192.504C188.371 200.583 182.653 203.852 175.619 199.803Z" fill="#BEC4CD" stroke="#373B42" stroke-width="0.5" stroke-linecap="round" stroke-linejoin="round"/>
<path d="M58.8964 111.493C58.6374 111.494 58.3852 111.41 58.1792 111.252C57.9732 111.095 57.8249 110.874 57.7574 110.623C57.6899 110.372 57.7069 110.106 57.8059 109.866C57.9049 109.627 58.0802 109.426 58.3046 109.297L86.9287 92.6449C87.1982 92.4879 87.519 92.4446 87.8203 92.5246C88.1217 92.6046 88.379 92.8013 88.5357 93.0714C88.6924 93.3415 88.7355 93.663 88.6557 93.965C88.5759 94.267 88.3796 94.5249 88.11 94.6818L59.486 111.333C59.3068 111.437 59.1035 111.493 58.8964 111.493Z" fill="#BEC4CD"/>
<path d="M58.8964 121.306C58.6381 121.306 58.3869 121.221 58.1817 121.064C57.9765 120.907 57.8288 120.686 57.7614 120.436C57.694 120.186 57.7107 119.921 57.8089 119.682C57.9071 119.442 58.0813 119.242 58.3046 119.112L78.5633 107.319C78.6968 107.241 78.8442 107.19 78.9972 107.17C79.1502 107.149 79.3058 107.159 79.455 107.198C79.6042 107.238 79.7442 107.307 79.867 107.401C79.9897 107.494 80.0928 107.612 80.1704 107.745C80.248 107.879 80.2985 108.027 80.3191 108.18C80.3396 108.333 80.3299 108.489 80.2904 108.639C80.2509 108.788 80.1823 108.929 80.0887 109.052C79.9951 109.175 79.8782 109.278 79.7447 109.356L59.4859 121.146C59.3072 121.251 59.1036 121.307 58.8964 121.306Z" fill="#BEC4CD"/>
<path d="M140.446 66.403C140.188 66.4032 139.937 66.3181 139.732 66.1609C139.526 66.0036 139.379 65.783 139.311 65.5331C139.244 65.2832 139.26 65.018 139.359 64.7785C139.457 64.5391 139.631 64.3388 139.854 64.2086L168.478 47.557C168.748 47.4 169.069 47.3567 169.37 47.4367C169.671 47.5167 169.929 47.7134 170.085 47.9835C170.242 48.2537 170.285 48.5751 170.205 48.8771C170.126 49.1791 169.929 49.437 169.66 49.594L141.036 66.2456C140.856 66.3489 140.653 66.4031 140.446 66.403Z" fill="#BEC4CD"/>
<path d="M149.706 70.3533C149.448 70.353 149.197 70.2676 148.992 70.1103C148.787 69.9529 148.639 69.7323 148.571 69.4825C148.504 69.2326 148.52 68.9675 148.618 68.7279C148.715 68.4883 148.889 68.2875 149.112 68.1566L169.371 56.3636C169.504 56.2859 169.652 56.2353 169.805 56.2146C169.958 56.194 170.113 56.2038 170.262 56.2434C170.412 56.283 170.552 56.3517 170.674 56.4455C170.797 56.5393 170.9 56.6564 170.978 56.7902C171.055 56.9239 171.106 57.0717 171.126 57.225C171.147 57.3783 171.137 57.5342 171.098 57.6837C171.058 57.8333 170.99 57.9735 170.896 58.0965C170.802 58.2195 170.686 58.3229 170.552 58.4006L150.293 70.1936C150.115 70.2982 149.912 70.3533 149.706 70.3533Z" fill="#BEC4CD"/>
<path d="M388.825 113.505L394.222 110.364L394.247 101.5L388.85 104.641L388.825 113.505Z" fill="#373B42"/>
<path d="M388.825 113.897C388.756 113.897 388.689 113.879 388.629 113.845C388.57 113.81 388.52 113.761 388.486 113.701C388.451 113.641 388.433 113.574 388.434 113.505L388.459 104.641C388.459 104.572 388.477 104.504 388.511 104.444C388.546 104.385 388.595 104.335 388.654 104.301L394.049 101.16C394.109 101.125 394.176 101.107 394.245 101.107C394.314 101.107 394.382 101.126 394.441 101.16C394.501 101.194 394.551 101.244 394.585 101.303C394.62 101.363 394.638 101.431 394.639 101.5L394.614 110.364C394.613 110.432 394.595 110.499 394.561 110.559C394.527 110.619 394.479 110.668 394.42 110.704L389.014 113.845C388.957 113.878 388.892 113.896 388.825 113.897ZM389.242 104.866L389.217 112.823L393.828 110.138L393.851 102.182L389.242 104.866Z" fill="#373B42"/>
<path d="M318.678 3.86127C319.57 3.33663 320.813 3.40507 322.172 4.20115L391.304 44.1879C394.036 45.7618 396.223 49.5848 396.21 52.703L396.071 103.137C396.071 104.695 395.52 105.785 394.63 106.31L400.027 103.164C400.917 102.64 401.47 101.549 401.47 99.9913L401.611 49.5643C401.625 46.4324 399.419 42.6094 396.704 41.0377L327.569 1.04875C326.203 0.257224 324.967 0.184231 324.077 0.708871L318.678 3.86127Z" fill="#F0F2F5"/>
<path d="M394.626 106.702C394.54 106.701 394.457 106.672 394.39 106.62C394.322 106.567 394.274 106.494 394.251 106.411C394.229 106.328 394.234 106.241 394.266 106.161C394.298 106.082 394.354 106.015 394.428 105.97C395.233 105.496 395.677 104.49 395.677 103.135L395.818 52.6942C395.832 49.6923 393.72 46.0267 391.109 44.5235L321.974 4.54589C320.809 3.86158 319.698 3.7384 318.894 4.19461L318.876 4.20601C318.785 4.25865 318.678 4.27307 318.577 4.24612C318.475 4.21917 318.389 4.15305 318.336 4.06231C318.284 3.97156 318.27 3.86362 318.296 3.76224C318.323 3.66086 318.389 3.57433 318.48 3.5217H318.498L323.877 0.385263C324.919 -0.228338 326.335 -0.105162 327.763 0.72742L396.895 40.7141C399.724 42.3496 402.012 46.3301 401.998 49.5806L401.855 100.008C401.855 101.65 401.277 102.898 400.221 103.518L394.824 106.664C394.762 106.694 394.694 106.707 394.626 106.702ZM320.608 3.17726C321.23 3.29411 321.826 3.52121 322.368 3.84789L391.5 43.8346C394.327 45.4656 396.617 49.4369 396.601 52.6896L396.46 103.13C396.47 103.751 396.371 104.369 396.169 104.955L399.827 102.825C400.63 102.35 401.074 101.344 401.074 99.9917L401.218 49.5623C401.231 46.5605 399.117 42.8903 396.506 41.3779L327.373 1.38892C326.201 0.704609 325.07 0.581433 324.275 1.04905L320.608 3.17726Z" fill="#373B42"/>
<path d="M322.176 4.19042C319.458 2.61878 317.25 3.89161 317.241 7.01892L317.098 57.4505C317.098 60.5801 319.283 64.3986 322.001 65.9702L379.959 99.5016L388.836 113.509L388.861 104.645L391.138 105.966C393.853 107.538 396.064 106.267 396.073 103.138L396.216 52.706C396.216 49.5787 394.029 45.7579 391.311 44.1863L322.176 4.19042Z" fill="white"/>
<path d="M388.825 113.897C388.759 113.897 388.694 113.881 388.636 113.849C388.579 113.817 388.53 113.77 388.495 113.714L379.681 99.8L321.805 66.3097C318.985 64.6787 316.697 60.7052 316.706 57.4501L316.856 7.01848C316.856 5.36016 317.446 4.11243 318.502 3.50339C319.558 2.89435 320.94 3.01524 322.372 3.85011L391.504 43.8414C394.327 45.4746 396.614 49.4482 396.605 52.7032L396.462 103.135C396.462 104.791 395.872 106.039 394.818 106.648C393.765 107.257 392.381 107.138 390.949 106.301L389.251 105.32L389.226 113.507C389.225 113.592 389.198 113.674 389.147 113.742C389.096 113.81 389.025 113.859 388.943 113.883C388.905 113.893 388.865 113.897 388.825 113.897ZM319.977 3.90713C319.595 3.90167 319.218 3.99768 318.884 4.18542C318.081 4.64163 317.637 5.65441 317.633 7.02076L317.489 57.4524C317.489 60.4565 319.592 64.1244 322.196 65.6322L380.157 99.1636C380.212 99.1944 380.258 99.2383 380.291 99.2913L388.438 112.163L388.459 104.636C388.459 104.567 388.477 104.499 388.511 104.44C388.545 104.38 388.595 104.33 388.654 104.296C388.714 104.262 388.782 104.244 388.851 104.244C388.92 104.244 388.988 104.262 389.048 104.296L391.324 105.617C392.51 106.301 393.601 106.429 394.42 105.963C395.24 105.498 395.667 104.492 395.672 103.128L395.815 52.6964C395.815 49.6923 393.712 46.0243 391.106 44.5166L321.98 4.52986C321.378 4.15165 320.687 3.93704 319.977 3.90713Z" fill="#373B42"/>
<path d="M351.324 44.3045C350.204 43.6567 349.298 44.1745 349.296 45.4633C349.294 46.7521 350.193 48.3237 351.31 48.9716L380.504 65.8513C381.623 66.4991 382.538 65.9768 382.552 64.688C382.566 63.3992 381.642 61.8321 380.526 61.1843L351.324 44.3045Z" fill="#DBDEE4"/>
<path d="M368.489 66.5038C367.369 65.8559 366.463 66.3738 366.461 67.6625C366.459 68.9513 367.356 70.523 368.475 71.1708L380.503 78.128C381.623 78.7758 382.538 78.2534 382.552 76.9646C382.566 75.6759 381.641 74.1111 380.526 73.4632L368.489 66.5038Z" fill="white"/>
<path d="M381.414 78.8008C381.022 78.7889 380.641 78.674 380.308 78.4678L368.28 71.5106C367.037 70.7921 366.065 69.1018 366.067 67.6625C366.067 66.8961 366.35 66.3121 366.857 66.0201C367.365 65.7282 368.016 65.7761 368.678 66.1639L380.708 73.1233C381.956 73.8464 382.93 75.5344 382.925 76.9669C382.925 77.7333 382.643 78.3173 382.133 78.6115C381.914 78.7361 381.666 78.8014 381.414 78.8008ZM367.579 66.6178C367.463 66.6151 367.35 66.6435 367.249 66.6999C366.998 66.8436 366.853 67.1949 366.853 67.6648C366.853 68.8053 367.684 70.2583 368.674 70.8309L380.702 77.7903C381.114 78.0184 381.494 78.08 381.753 77.9295C382.013 77.7789 382.151 77.4322 382.151 76.9646C382.151 75.8241 381.318 74.3779 380.33 73.8031L368.3 66.8436C368.084 66.7068 367.835 66.629 367.579 66.6178Z" fill="#373B42"/>
<path d="M278.961 24.6191C279.853 24.0945 281.096 24.1629 282.469 24.959L351.587 64.9457C354.303 66.5174 356.509 70.329 356.509 73.4586L356.365 123.899C356.352 125.457 355.815 126.548 354.924 127.059L360.333 123.918C361.209 123.409 361.762 122.321 361.776 120.758L361.917 70.3176C361.917 67.188 359.711 63.3764 356.998 61.8047L287.866 21.818C286.5 21.0242 285.25 20.9535 284.36 21.4781L278.961 24.6191Z" fill="#F0F2F5"/>
<path d="M354.925 127.455C354.838 127.456 354.754 127.428 354.685 127.375C354.617 127.323 354.567 127.249 354.544 127.166C354.522 127.082 354.527 126.993 354.56 126.913C354.593 126.833 354.652 126.766 354.727 126.723L354.759 126.707C355.53 126.251 355.963 125.252 355.974 123.899L356.117 73.4629C356.117 70.4656 353.996 66.7976 351.392 65.2899L282.273 25.3032C281.078 24.6188 279.979 24.4888 279.175 24.9519L279.159 24.9633C279.069 25.0159 278.961 25.0303 278.86 25.0034C278.759 24.9764 278.672 24.9103 278.62 24.8196C278.567 24.7288 278.553 24.6209 278.58 24.5195C278.607 24.4181 278.673 24.3316 278.763 24.279H278.779L284.158 21.1425C285.216 20.5198 286.6 20.6384 288.057 21.4824L357.178 61.4691C359.998 63.1024 362.293 67.0759 362.293 70.3219L362.154 120.76C362.138 122.41 361.558 123.65 360.515 124.257L355.15 127.384L355.116 127.403C355.058 127.437 354.992 127.455 354.925 127.455ZM280.891 23.9482C281.515 24.0705 282.112 24.3021 282.656 24.6325L351.774 64.6192C354.595 66.2525 356.891 70.2238 356.891 73.472L356.748 123.913C356.753 124.527 356.654 125.138 356.454 125.719L360.117 123.587C360.909 123.13 361.351 122.124 361.364 120.765L361.503 70.3264C361.503 67.3291 359.386 63.6635 356.782 62.1534L287.67 22.1576C286.466 21.4733 285.362 21.341 284.558 21.8154L280.891 23.9482Z" fill="#373B42"/>
<path d="M282.467 24.9632C279.751 23.3916 277.532 24.6485 277.523 27.7758L277.382 78.2234C277.382 81.3507 279.576 85.1669 282.294 86.7385L284.57 88.0547L284.545 96.9188L293.47 93.203L351.42 126.734C354.138 128.306 356.357 127.051 356.366 123.922L356.507 73.4788C356.507 70.3515 354.313 66.5376 351.595 64.9659L282.467 24.9632Z" fill="white"/>
<path d="M353.632 127.793C352.778 127.764 351.947 127.511 351.222 127.059L293.439 93.6344L284.693 97.2841C284.634 97.3089 284.569 97.3186 284.505 97.3123C284.441 97.306 284.379 97.2839 284.325 97.248C284.272 97.2122 284.228 97.1636 284.198 97.1066C284.167 97.0496 284.151 96.986 284.151 96.9214L284.176 88.2831L282.096 87.081C279.271 85.4455 276.981 81.4742 276.99 78.226L277.131 27.783C277.131 26.1315 277.719 24.8883 278.77 24.2815C279.822 23.6748 281.215 23.7934 282.665 24.6305L351.788 64.6173C354.613 66.2505 356.905 70.2241 356.899 73.4723L356.753 123.915C356.753 125.565 356.168 126.808 355.114 127.414C354.662 127.67 354.151 127.801 353.632 127.793ZM293.468 92.8064C293.537 92.8054 293.605 92.8235 293.664 92.8589L351.615 126.39C352.81 127.075 353.917 127.205 354.725 126.737C355.533 126.269 355.968 125.273 355.97 123.915L356.113 73.4723C356.113 70.475 354.005 66.8071 351.397 65.2993L282.273 25.3035C281.078 24.6191 279.972 24.4868 279.162 24.9567C278.351 25.4266 277.919 26.4189 277.914 27.7784L277.773 78.2237C277.773 81.221 279.879 84.8866 282.487 86.3967L284.764 87.7128C284.823 87.7473 284.873 87.7968 284.907 87.8565C284.941 87.9162 284.959 87.9838 284.959 88.0527L284.937 96.3284L293.318 92.8384C293.365 92.8177 293.416 92.8068 293.468 92.8064Z" fill="#373B42"/>
<path d="M337.651 75.4564L337.571 100.121C337.557 102.418 335.939 103.335 333.929 102.193L299.819 82.4546C297.821 81.2982 296.202 78.4925 296.216 76.1955L296.286 51.5374C296.286 49.2563 297.905 48.3211 299.903 49.4844L334.027 69.2223C336.046 70.3811 337.651 73.1731 337.651 75.4564Z" fill="#DA0000"/>
<path d="M309.345 83.014C309.065 83.0132 308.791 82.9369 308.551 82.7933C308.31 82.6496 308.113 82.4437 307.979 82.1973L303.962 74.8501C303.856 74.6688 303.788 74.4681 303.761 74.2599C303.734 74.0516 303.749 73.8401 303.805 73.6378C303.861 73.4355 303.957 73.2465 304.087 73.0819C304.217 72.9174 304.379 72.7806 304.563 72.6797C304.746 72.5788 304.948 72.5158 305.157 72.4945C305.365 72.4731 305.576 72.4938 305.776 72.5554C305.976 72.6169 306.162 72.7181 306.323 72.8528C306.484 72.9876 306.616 73.1533 306.712 73.34L310.071 79.4875L328.011 72.6352C328.203 72.5617 328.408 72.5268 328.613 72.5325C328.819 72.5383 329.021 72.5846 329.209 72.6688C329.397 72.753 329.566 72.8735 329.708 73.0233C329.849 73.1731 329.96 73.3493 330.033 73.5419C330.106 73.7345 330.141 73.9397 330.135 74.1458C330.13 74.3519 330.084 74.5549 330 74.7431C329.915 74.9313 329.795 75.101 329.646 75.2427C329.496 75.3843 329.32 75.4951 329.128 75.5686L309.91 82.9181C309.729 82.9847 309.538 83.0172 309.345 83.014Z" fill="white"/>
<path d="M275.568 247.283C272.736 245.643 272.718 242.984 275.533 241.353C278.349 239.722 282.931 239.715 285.777 241.353C288.622 242.991 288.624 245.65 285.808 247.283C282.993 248.917 278.401 248.921 275.568 247.283Z" fill="white"/>
<path d="M280.689 248.896C278.766 248.896 276.84 248.472 275.374 247.621C273.872 246.755 273.043 245.568 273.041 244.305C273.039 243.041 273.856 241.869 275.335 241.004C278.256 239.305 283.022 239.305 285.961 241.004C287.463 241.871 288.29 243.057 288.292 244.321C288.294 245.584 287.477 246.755 285.995 247.619C284.513 248.484 282.613 248.896 280.689 248.896ZM280.644 240.504C278.861 240.504 277.084 240.897 275.732 241.684C274.5 242.4 273.822 243.331 273.824 244.302C273.826 245.274 274.507 246.221 275.766 246.942C278.484 248.516 282.895 248.518 285.599 246.942C286.833 246.225 287.511 245.295 287.509 244.323C287.507 243.351 286.826 242.407 285.57 241.686C284.208 240.899 282.424 240.504 280.644 240.504Z" fill="#DBDEE4"/>
<path d="M280.651 242.441C281.67 242.419 282.678 242.654 283.583 243.125C284.193 243.479 284.543 243.912 284.543 244.314C284.543 244.715 284.202 245.142 283.603 245.489C282.695 245.943 281.693 246.18 280.677 246.18C279.661 246.18 278.66 245.943 277.751 245.489C277.141 245.135 276.79 244.702 276.788 244.298C276.786 243.894 277.132 243.472 277.73 243.123C278.631 242.652 279.636 242.417 280.651 242.441Z" fill="#DA0000"/>
<path d="M255.703 228.213C256.799 228.191 257.882 228.447 258.853 228.957C259.509 229.336 259.884 229.801 259.886 230.234C259.889 230.668 259.518 231.122 258.874 231.496C257.898 231.984 256.822 232.238 255.731 232.238C254.64 232.238 253.565 231.984 252.589 231.496C251.933 231.117 251.558 230.652 251.558 230.218C251.558 229.785 251.924 229.331 252.566 228.957C253.532 228.448 254.611 228.192 255.703 228.213Z" fill="#373B42"/>
<path d="M265.775 128.762C264.68 128.739 263.596 128.994 262.625 129.504C261.969 129.882 261.594 130.348 261.594 130.781C261.594 131.214 261.963 131.668 262.604 132.042C263.57 132.552 264.65 132.807 265.741 132.784C266.836 132.805 267.919 132.55 268.889 132.042C269.542 131.661 269.92 131.196 269.92 130.763C269.92 130.329 269.554 129.875 268.91 129.501C267.944 128.993 266.866 128.739 265.775 128.762Z" fill="#373B42"/>
</svg>
