<svg width="302" height="403" viewBox="0 0 302 403" fill="none" xmlns="http://www.w3.org/2000/svg">
<path d="M175.105 206.592L95.1806 238.444L27.6054 185.193L39.9997 99.9837L119.924 68.1313L187.499 121.383L175.075 206.517L175.105 206.592ZM96.5729 228.845L167.492 200.581L178.448 125.077L118.532 77.7306L47.6129 105.994L36.6561 181.499L96.543 228.77L96.5729 228.845Z" fill="#DA0000" fill-opacity="0.1"/>
<path d="M336.328 230.348L256.404 262.201L188.828 208.949L201.253 123.815L281.177 91.9628L348.752 145.214L336.328 230.348ZM257.796 252.601L328.715 224.338L339.671 148.833L279.785 101.562L208.866 129.826L197.909 205.33L257.796 252.601Z" fill="#DA0000" fill-opacity="0.1"/>
<path d="M234.114 354.657L154.19 386.51L86.6146 333.258L99.0387 248.124L178.963 216.272L246.538 269.523L234.114 354.657ZM155.582 376.91L226.501 348.647L237.458 273.142L177.571 225.871L106.652 254.135L95.6952 329.639L155.582 376.91Z" fill="#DA0000" fill-opacity="0.1"/>
</svg>
