<svg width="648" height="656" viewBox="0 0 648 656" fill="none" xmlns="http://www.w3.org/2000/svg">
<g filter="url(#filter0_d_399_2444)">
<path d="M75.9101 0L644 0.336294V648H4V576.937V71.8492C28.719 47.1121 52.5226 24.3319 75.9101 0Z" fill="white"/>
</g>
<path d="M517.801 359.92C517.724 359.92 517.648 359.901 517.577 359.859L467.625 330.83C466.83 330.367 466.357 329.543 466.359 328.625C466.361 327.706 466.836 326.883 467.632 326.423L517.925 297.386C518.135 297.262 518.407 297.335 518.534 297.548C518.657 297.762 518.582 298.034 518.37 298.157L468.077 327.195C467.561 327.494 467.252 328.027 467.249 328.623C467.248 329.221 467.556 329.757 468.073 330.057L518.024 359.087C518.237 359.211 518.308 359.483 518.184 359.697C518.104 359.841 517.955 359.92 517.801 359.92Z" fill="#DBDEE4"/>
<path d="M512.83 362.543C509.606 360.683 509.588 357.663 512.79 355.802C515.992 353.941 521.203 353.943 524.426 355.804C527.649 357.665 527.665 360.683 524.463 362.543C521.261 364.403 516.053 364.404 512.83 362.543Z" fill="white"/>
<path d="M518.652 364.375C516.465 364.375 514.276 363.893 512.605 362.928C510.897 361.942 509.956 360.605 509.955 359.161C509.954 357.726 510.879 356.397 512.565 355.416C515.885 353.486 521.305 353.486 524.648 355.417C526.355 356.404 527.297 357.74 527.298 359.183C527.3 360.618 526.371 361.948 524.685 362.928C523.024 363.893 520.84 364.375 518.652 364.375ZM513.05 362.157C516.144 363.942 521.165 363.944 524.236 362.156C525.639 361.342 526.409 360.287 526.406 359.183C526.405 358.072 525.622 357.008 524.201 356.187C521.104 354.401 516.085 354.398 513.013 356.186C511.612 356.999 510.844 358.055 510.845 359.157C510.846 360.271 511.63 361.336 513.05 362.157Z" fill="#DBDEE4"/>
<path d="M518.608 357.046C519.864 357.046 521.081 357.332 521.944 357.831C522.638 358.232 523.036 358.724 523.036 359.181C523.036 359.633 522.647 360.119 521.966 360.514C521.109 361.012 519.899 361.298 518.644 361.298C517.389 361.298 516.173 361.012 515.31 360.514C514.616 360.113 514.218 359.622 514.217 359.163C514.217 358.711 514.607 358.225 515.287 357.83C516.141 357.331 517.353 357.046 518.608 357.046Z" fill="#DA0000"/>
<path d="M490.235 340.896C491.585 340.896 492.891 341.204 493.818 341.739C494.563 342.169 494.99 342.698 494.992 343.189C494.992 343.673 494.573 344.196 493.841 344.621C492.921 345.156 491.621 345.463 490.272 345.463C488.924 345.463 487.62 345.156 486.692 344.62C485.947 344.189 485.519 343.66 485.518 343.168C485.518 342.683 485.936 342.161 486.666 341.735C487.586 341.202 488.887 340.896 490.235 340.896Z" fill="#373B42"/>
<path d="M517.801 359.92C517.724 359.92 517.648 359.901 517.577 359.859L467.625 330.83C466.83 330.367 466.357 329.543 466.359 328.625C466.361 327.706 466.836 326.883 467.632 326.423L517.925 297.386C518.135 297.262 518.407 297.335 518.534 297.548C518.657 297.762 518.582 298.034 518.37 298.157L468.077 327.195C467.561 327.494 467.252 328.027 467.249 328.623C467.248 329.221 467.556 329.757 468.073 330.057L518.024 359.087C518.237 359.211 518.308 359.483 518.184 359.697C518.104 359.841 517.955 359.92 517.801 359.92Z" fill="#DBDEE4"/>
<path d="M512.83 362.543C509.606 360.683 509.588 357.663 512.79 355.802C515.992 353.941 521.203 353.943 524.426 355.804C527.649 357.665 527.665 360.683 524.463 362.543C521.261 364.403 516.053 364.404 512.83 362.543Z" fill="white"/>
<path d="M518.652 364.375C516.465 364.375 514.276 363.893 512.605 362.928C510.897 361.942 509.956 360.605 509.955 359.161C509.954 357.726 510.879 356.397 512.565 355.416C515.885 353.486 521.305 353.486 524.648 355.417C526.355 356.404 527.297 357.74 527.298 359.183C527.3 360.618 526.371 361.948 524.685 362.928C523.024 363.893 520.84 364.375 518.652 364.375ZM513.05 362.157C516.144 363.942 521.165 363.944 524.236 362.156C525.639 361.342 526.409 360.287 526.406 359.183C526.405 358.072 525.622 357.008 524.201 356.187C521.104 354.401 516.085 354.398 513.013 356.186C511.612 356.999 510.844 358.055 510.845 359.157C510.846 360.271 511.63 361.336 513.05 362.157Z" fill="#DBDEE4"/>
<path d="M518.608 357.046C519.864 357.046 521.081 357.332 521.944 357.831C522.638 358.232 523.036 358.724 523.036 359.181C523.036 359.633 522.647 360.119 521.966 360.514C521.109 361.012 519.899 361.298 518.644 361.298C517.389 361.298 516.173 361.012 515.31 360.514C514.616 360.113 514.218 359.622 514.217 359.163C514.217 358.711 514.607 358.225 515.287 357.83C516.141 357.331 517.353 357.046 518.608 357.046Z" fill="#DA0000"/>
<path d="M490.235 340.896C491.585 340.896 492.891 341.204 493.818 341.739C494.563 342.169 494.99 342.698 494.992 343.189C494.992 343.673 494.573 344.196 493.841 344.621C492.921 345.156 491.621 345.463 490.272 345.463C488.924 345.463 487.62 345.156 486.692 344.62C485.947 344.189 485.519 343.66 485.518 343.168C485.518 342.683 485.936 342.161 486.666 341.735C487.586 341.202 488.887 340.896 490.235 340.896Z" fill="#373B42"/>
<path d="M488.128 536.8C486.804 536.8 485.482 536.457 484.301 535.772L428.332 503.248C428.12 503.124 428.048 502.851 428.172 502.638C428.295 502.423 428.566 502.353 428.782 502.475L484.752 534.999C486.825 536.206 489.409 536.21 491.489 535.01L547.844 502.475C548.053 502.353 548.326 502.423 548.454 502.638C548.577 502.851 548.502 503.124 548.29 503.247L491.935 535.782C490.759 536.461 489.442 536.8 488.128 536.8Z" fill="#DBDEE4"/>
<path d="M536.883 502.533C533.659 504.394 533.641 507.412 536.843 509.273C540.047 511.134 545.261 511.133 548.484 509.272C551.709 507.411 551.724 504.394 548.521 502.533C545.319 500.672 540.108 500.672 536.883 502.533Z" fill="white"/>
<path d="M542.654 511.104C540.465 511.104 538.279 510.622 536.618 509.658C534.932 508.679 534.006 507.348 534.008 505.914C534.009 504.471 534.951 503.132 536.661 502.147C540.001 500.217 545.423 500.218 548.745 502.148C550.432 503.128 551.361 504.458 551.359 505.892C551.358 507.334 550.416 508.673 548.706 509.658C547.034 510.622 544.844 511.104 542.654 511.104ZM542.708 501.578C540.68 501.578 538.654 502.024 537.104 502.917C535.683 503.738 534.899 504.803 534.898 505.916C534.896 507.017 535.666 508.073 537.066 508.885C540.14 510.673 545.164 510.67 548.259 508.884C549.68 508.064 550.464 507 550.465 505.888C550.467 504.786 549.695 503.73 548.293 502.917C546.759 502.026 544.734 501.578 542.708 501.578Z" fill="#DBDEE4"/>
<path d="M542.664 508.028C543.921 508.028 545.137 507.741 546.001 507.242C546.695 506.842 547.093 506.35 547.093 505.892C547.093 505.441 546.704 504.955 546.022 504.559C545.165 504.062 543.953 503.775 542.698 503.775C541.442 503.775 540.227 504.062 539.363 504.559C538.669 504.96 538.27 505.452 538.27 505.91C538.27 506.362 538.659 506.848 539.34 507.244C540.198 507.742 541.409 508.028 542.664 508.028Z" fill="#DA0000"/>
<path d="M514.282 524.176C515.631 524.176 516.939 523.868 517.866 523.333C518.611 522.903 519.039 522.374 519.039 521.883C519.039 521.399 518.621 520.877 517.889 520.451C516.969 519.916 515.667 519.609 514.319 519.609C512.97 519.609 511.664 519.916 510.737 520.451C509.991 520.882 509.564 521.411 509.562 521.903C509.562 522.388 509.981 522.91 510.713 523.334C511.633 523.868 512.933 524.176 514.282 524.176Z" fill="#373B42"/>
<path d="M165.757 473.778C164.703 473.778 163.651 473.507 162.711 472.964L119.967 448.286C119.754 448.164 119.681 447.891 119.803 447.677C119.927 447.464 120.202 447.389 120.413 447.515L163.157 472.193C164.766 473.121 166.765 473.119 168.37 472.185L232.321 435.02C232.536 434.897 232.808 434.968 232.932 435.183C233.056 435.395 232.984 435.669 232.772 435.793L168.82 472.957C167.874 473.504 166.815 473.778 165.757 473.778Z" fill="#DBDEE4"/>
<path d="M186.282 526.151C186.13 526.151 185.979 526.072 185.897 525.929C185.773 525.717 185.844 525.443 186.057 525.319L297.575 460.534C297.787 460.41 298.062 460.48 298.186 460.696C298.309 460.908 298.238 461.182 298.026 461.305L186.507 526.09C186.435 526.131 186.358 526.151 186.282 526.151Z" fill="#DBDEE4"/>
<path d="M194.455 527.064C197.68 525.203 197.699 522.185 194.495 520.324C191.291 518.463 186.076 518.464 182.85 520.325C179.626 522.186 179.609 525.203 182.813 527.064C186.017 528.923 191.231 528.924 194.455 527.064Z" fill="white"/>
<path d="M188.628 528.896C186.439 528.896 184.253 528.414 182.589 527.449C180.902 526.469 179.973 525.139 179.975 523.704C179.976 522.262 180.918 520.923 182.628 519.938C185.972 518.008 191.394 518.01 194.72 519.937C196.406 520.916 197.334 522.247 197.333 523.681C197.332 525.124 196.389 526.462 194.68 527.448C193.008 528.414 190.816 528.896 188.628 528.896ZM188.681 519.369C186.652 519.369 184.622 519.816 183.074 520.71C181.652 521.531 180.868 522.594 180.867 523.706C180.866 524.808 181.637 525.864 183.039 526.678C186.117 528.466 191.14 528.462 194.234 526.678C195.655 525.857 196.439 524.794 196.44 523.681C196.442 522.579 195.672 521.522 194.271 520.71C192.732 519.817 190.709 519.369 188.681 519.369Z" fill="#DBDEE4"/>
<path d="M188.672 521.567C187.414 521.567 186.198 521.854 185.333 522.352C184.639 522.753 184.241 523.245 184.239 523.702C184.239 524.154 184.629 524.64 185.311 525.036C186.168 525.533 187.38 525.819 188.636 525.819C189.892 525.819 191.108 525.533 191.972 525.036C192.666 524.635 193.066 524.143 193.066 523.684C193.066 523.233 192.676 522.746 191.996 522.351C191.14 521.852 189.928 521.567 188.672 521.567Z" fill="#DA0000"/>
<path d="M217.063 505.421C215.713 505.421 214.406 505.728 213.477 506.264C212.732 506.694 212.304 507.223 212.304 507.713C212.304 508.198 212.722 508.72 213.455 509.145C214.375 509.68 215.677 509.987 217.026 509.987C218.374 509.987 219.68 509.68 220.608 509.145C221.355 508.714 221.783 508.185 221.783 507.695C221.783 507.21 221.364 506.688 220.633 506.264C219.713 505.727 218.413 505.421 217.063 505.421Z" fill="#373B42"/>
<path d="M186.282 526.151C186.13 526.151 185.979 526.072 185.897 525.929C185.773 525.717 185.844 525.443 186.057 525.319L297.575 460.534C297.787 460.41 298.062 460.48 298.186 460.696C298.309 460.908 298.238 461.182 298.026 461.305L186.507 526.09C186.435 526.131 186.358 526.151 186.282 526.151Z" fill="#DBDEE4"/>
<path d="M194.455 527.064C197.68 525.203 197.699 522.185 194.495 520.324C191.291 518.463 186.076 518.464 182.85 520.325C179.626 522.186 179.609 525.203 182.813 527.064C186.017 528.923 191.231 528.924 194.455 527.064Z" fill="white"/>
<path d="M188.628 528.896C186.439 528.896 184.253 528.414 182.589 527.449C180.902 526.469 179.973 525.139 179.975 523.704C179.976 522.262 180.918 520.923 182.628 519.938C185.972 518.008 191.394 518.01 194.72 519.937C196.406 520.916 197.334 522.247 197.333 523.681C197.332 525.124 196.389 526.462 194.68 527.448C193.008 528.414 190.816 528.896 188.628 528.896ZM188.681 519.369C186.652 519.369 184.622 519.816 183.074 520.71C181.652 521.531 180.868 522.594 180.867 523.706C180.866 524.808 181.637 525.864 183.039 526.678C186.117 528.466 191.14 528.462 194.234 526.678C195.655 525.857 196.439 524.794 196.44 523.681C196.442 522.579 195.672 521.522 194.271 520.71C192.732 519.817 190.709 519.369 188.681 519.369Z" fill="#DBDEE4"/>
<path d="M188.672 521.567C187.414 521.567 186.198 521.854 185.333 522.352C184.639 522.753 184.241 523.245 184.239 523.702C184.239 524.154 184.629 524.64 185.311 525.036C186.168 525.533 187.38 525.819 188.636 525.819C189.892 525.819 191.108 525.533 191.972 525.036C192.666 524.635 193.066 524.143 193.066 523.684C193.066 523.233 192.676 522.746 191.996 522.351C191.14 521.852 189.928 521.567 188.672 521.567Z" fill="#DA0000"/>
<path d="M217.063 505.421C215.713 505.421 214.406 505.728 213.477 506.264C212.732 506.694 212.304 507.223 212.304 507.713C212.304 508.198 212.722 508.72 213.455 509.145C214.375 509.68 215.677 509.987 217.026 509.987C218.374 509.987 219.68 509.68 220.608 509.145C221.355 508.714 221.783 508.185 221.783 507.695C221.783 507.21 221.364 506.688 220.633 506.264C219.713 505.727 218.413 505.421 217.063 505.421Z" fill="#373B42"/>
<path d="M362.657 349.577C362.504 349.577 362.354 349.497 362.273 349.355C362.149 349.143 362.22 348.869 362.432 348.745L534.611 248.679C534.823 248.555 535.097 248.625 535.221 248.842C535.345 249.054 535.273 249.328 535.061 249.452L362.883 349.517C362.81 349.557 362.734 349.577 362.657 349.577Z" fill="#DBDEE4"/>
<path d="M434.158 305.224C435.508 305.224 436.815 305.531 437.743 306.067C438.489 306.496 438.917 307.025 438.917 307.516C438.917 308.001 438.498 308.523 437.766 308.948C436.845 309.483 435.544 309.79 434.195 309.79C432.847 309.79 431.541 309.483 430.612 308.948C429.866 308.517 429.438 307.99 429.438 307.498C429.438 307.013 429.856 306.491 430.588 306.067C431.509 305.531 432.809 305.224 434.158 305.224Z" fill="#373B42"/>
<path d="M200.195 346.502C200.118 346.502 200.042 346.482 199.972 346.441L97.8524 287.482C96.5507 286.732 95.7752 285.387 95.7725 283.887C95.7711 282.386 96.5438 281.04 97.8414 280.287L240.432 198.195C240.644 198.073 240.914 198.145 241.041 198.359C241.164 198.573 241.089 198.846 240.877 198.968L98.2876 281.058C97.2683 281.649 96.6609 282.707 96.6623 283.884C96.6637 285.064 97.2739 286.12 98.296 286.71L200.415 345.668C200.627 345.791 200.7 346.063 200.579 346.277C200.498 346.42 200.348 346.502 200.195 346.502Z" fill="#DBDEE4"/>
<g opacity="0.1">
<path d="M414.58 247.178C413.098 248.033 413.089 249.419 414.562 250.274L537.527 323.291C538.997 324.145 541.391 324.146 542.873 323.291L549.806 319.288C551.288 318.432 551.292 317.045 549.824 316.191L426.858 243.175C425.386 242.319 422.995 242.319 421.512 243.175L414.58 247.178Z" fill="black"/>
</g>
<path d="M415.136 102.362C416.637 101.482 418.717 101.612 421.013 102.926L534.469 168.437C535.522 169.043 536.52 169.851 537.444 170.805C539.769 173.187 541.589 176.464 542.324 179.656C542.569 180.681 542.7 181.707 542.7 182.688L542.44 310.573C542.44 313.186 541.502 315.006 540.028 315.872L549.255 310.529C550.728 309.663 551.652 307.829 551.667 305.215L551.928 177.314C551.928 176.347 551.812 175.336 551.567 174.311C550.83 171.12 549.025 167.857 546.687 165.46C545.777 164.507 544.751 163.685 543.698 163.077L430.242 97.5813C427.946 96.2534 425.867 96.1378 424.365 96.989L415.136 102.362Z" fill="#DBDEE4"/>
<path d="M537.443 170.806C539.768 173.189 541.588 176.466 542.324 179.657L551.565 174.314C550.828 171.123 549.023 167.86 546.685 165.463L537.443 170.806Z" fill="#F0F2F5"/>
<path d="M540.027 316.319C539.874 316.319 539.724 316.241 539.643 316.097C539.519 315.885 539.59 315.612 539.801 315.488C541.216 314.656 541.994 312.911 541.994 310.574L542.253 182.687C542.253 181.753 542.13 180.768 541.889 179.76C541.178 176.677 539.399 173.447 537.125 171.118C536.196 170.162 535.228 169.39 534.246 168.824L420.79 103.313C418.71 102.125 416.788 101.919 415.377 102.74L415.366 102.746L415.362 102.75H415.36C415.146 102.874 414.874 102.802 414.75 102.59C414.626 102.378 414.698 102.105 414.91 101.98C414.918 101.974 414.928 101.969 414.936 101.965L424.137 96.6094C425.863 95.6272 428.11 95.838 430.461 97.2003L543.917 162.697C544.991 163.315 546.059 164.167 547.005 165.159C549.42 167.63 551.241 170.933 551.998 174.217C552.246 175.246 552.371 176.291 552.371 177.32L552.113 305.221C552.099 307.906 551.163 309.929 549.48 310.918L540.25 316.263C540.181 316.3 540.104 316.319 540.027 316.319ZM417.734 101.367C418.829 101.448 420.015 101.839 421.234 102.539L534.691 168.05C535.744 168.658 536.779 169.48 537.762 170.495C540.145 172.936 542.012 176.323 542.756 179.556C543.013 180.629 543.144 181.684 543.144 182.688L542.885 310.575C542.885 311.943 542.64 313.14 542.169 314.118L549.031 310.145C550.429 309.323 551.209 307.571 551.22 305.215L551.479 177.318C551.479 176.359 551.362 175.384 551.13 174.419C550.418 171.334 548.636 168.104 546.363 165.777C545.472 164.844 544.473 164.046 543.471 163.47L430.015 97.973C427.946 96.7746 426.018 96.5681 424.581 97.3821L417.734 101.367Z" fill="#373B42"/>
<path d="M542.656 199.536C542.503 199.536 542.353 199.456 542.269 199.314C542.146 199.101 542.218 198.828 542.433 198.705L551.66 193.362C551.868 193.238 552.142 193.311 552.27 193.525C552.393 193.738 552.321 194.011 552.106 194.135L542.879 199.477C542.81 199.517 542.733 199.536 542.656 199.536Z" fill="#373B42"/>
<path d="M542.455 304.179C542.302 304.179 542.152 304.099 542.071 303.957C541.947 303.745 542.018 303.471 542.23 303.349L551.458 297.992C551.67 297.868 551.944 297.938 552.068 298.154C552.192 298.366 552.12 298.64 551.908 298.764L542.681 304.121C542.608 304.16 542.531 304.179 542.455 304.179Z" fill="#373B42"/>
<path d="M427.121 106.893C426.968 106.893 426.818 106.814 426.736 106.671C426.613 106.458 426.684 106.185 426.899 106.061L436.113 100.719C436.319 100.597 436.598 100.667 436.72 100.882C436.844 101.095 436.772 101.368 436.559 101.492L427.345 106.834C427.274 106.874 427.197 106.893 427.121 106.893Z" fill="#373B42"/>
<path d="M412.725 107.649C412.74 102.415 416.458 100.308 421.014 102.938L534.466 168.436C539.032 171.072 542.717 177.452 542.701 182.688L542.655 199.064L412.677 124.027L412.725 107.649Z" fill="#373B42"/>
<path d="M542.654 199.51C542.577 199.51 542.501 199.49 542.431 199.45L412.455 124.411C412.317 124.331 412.231 124.184 412.231 124.024L412.278 107.648C412.285 104.962 413.225 102.945 414.924 101.967C416.638 100.981 418.878 101.189 421.236 102.551L534.687 168.048C539.366 170.751 543.162 177.317 543.146 182.688L543.099 199.064C543.099 199.224 543.014 199.371 542.876 199.45C542.807 199.49 542.731 199.51 542.654 199.51ZM413.124 123.769L542.211 198.293L542.256 182.685C542.271 177.601 538.677 171.38 534.243 168.82L420.792 103.323C418.718 102.127 416.794 101.922 415.371 102.741C413.96 103.553 413.179 105.296 413.172 107.65L413.124 123.769Z" fill="#373B42"/>
<path d="M542.656 199.064L542.435 310.58C542.42 315.827 538.712 317.94 534.146 315.303L420.695 249.806C416.138 247.175 412.444 240.789 412.459 235.541L412.679 124.025L542.656 199.064Z" fill="white"/>
<path d="M537.857 316.888C536.641 316.888 535.302 316.486 533.923 315.688L420.472 250.191C415.794 247.491 411.999 240.918 412.013 235.54L412.235 124.024C412.235 123.865 412.32 123.719 412.458 123.639C412.597 123.56 412.763 123.56 412.904 123.64L542.88 198.679C543.018 198.757 543.103 198.906 543.103 199.066L542.884 310.582C542.876 313.278 541.935 315.3 540.237 316.278C539.524 316.685 538.72 316.888 537.857 316.888ZM413.123 124.797L412.904 235.542C412.89 240.636 416.485 246.86 420.916 249.42L534.368 314.917C536.438 316.114 538.365 316.323 539.788 315.502C541.2 314.689 541.982 312.942 541.989 310.576L542.208 199.319L413.123 124.797Z" fill="#373B42"/>
<path d="M453.52 131.558C451.596 130.446 450.048 131.328 450.041 133.54C450.034 135.733 451.573 138.414 453.497 139.526C455.421 140.638 456.97 139.735 456.976 137.544C456.983 135.332 455.445 132.669 453.52 131.558Z" fill="white"/>
<path d="M439.043 123.198C437.135 122.096 435.57 122.969 435.563 125.18C435.557 127.373 437.112 130.064 439.02 131.166C440.944 132.278 442.492 131.375 442.499 129.184C442.506 126.973 440.967 124.309 439.043 123.198Z" fill="white"/>
<path d="M424.564 114.83C422.652 113.725 421.099 114.609 421.094 116.826C421.087 119.024 422.63 121.713 424.542 122.818C426.471 123.932 428.022 123.028 428.029 120.83C428.035 118.614 426.493 115.944 424.564 114.83Z" fill="white"/>
<path d="M458.434 173.191L458.329 210.433L490.748 229.147L490.853 191.904L458.434 173.191Z" fill="#DA0000"/>
<path d="M474.626 202.775C469.4 199.759 465.055 201.629 464.205 206.877C464.05 207.835 464.753 209.201 465.672 209.731L483.502 220.022C484.429 220.558 485.138 220.007 484.988 218.872C484.171 212.661 479.852 205.791 474.626 202.775Z" fill="white"/>
<path d="M474.662 189.919C472.161 188.476 470.12 189.638 470.111 192.511C470.103 195.386 472.131 198.897 474.633 200.341C477.136 201.784 479.176 200.622 479.185 197.748C479.191 194.874 477.164 191.363 474.662 189.919Z" fill="white"/>
<path d="M432.519 210.173C430.777 209.168 429.364 209.983 429.358 211.975L429.315 227.004C429.31 229.006 430.714 231.438 432.456 232.442L517.956 281.801C519.699 282.807 521.112 282.001 521.118 280L521.16 264.971C521.166 262.979 519.762 260.537 518.02 259.532L432.519 210.173Z" fill="white"/>
<path d="M519.371 282.683C518.859 282.683 518.303 282.517 517.732 282.188L432.232 232.829C430.341 231.737 428.864 229.178 428.868 227.004L428.912 211.975C428.916 210.847 429.323 209.991 430.062 209.567C430.805 209.14 431.757 209.22 432.742 209.789L518.245 259.149C520.104 260.222 521.612 262.835 521.607 264.975L521.563 280.004C521.559 281.135 521.152 281.99 520.416 282.414C520.101 282.593 519.749 282.683 519.371 282.683ZM431.108 210.187C430.885 210.187 430.681 210.238 430.505 210.338C430.053 210.597 429.805 211.18 429.802 211.976L429.758 227.005C429.752 228.859 431.062 231.125 432.675 232.058L518.176 281.417C518.88 281.823 519.515 281.902 519.968 281.639C520.417 281.38 520.666 280.798 520.668 280L520.712 264.97C520.717 263.148 519.381 260.834 517.794 259.919L432.291 210.559C431.865 210.312 431.462 210.187 431.108 210.187Z" fill="#373B42"/>
<path d="M505.613 256.248C505.405 256.129 505.233 256.226 505.231 256.466L505.219 260.79L501.968 256.748C501.908 256.673 501.842 256.615 501.777 256.576C501.646 256.5 501.519 256.506 501.453 256.607L500.562 257.85C500.461 258.001 500.525 258.297 500.705 258.527L503.956 262.568L500.693 262.85C500.511 262.871 500.448 263.094 500.547 263.359L501.428 265.627C501.494 265.804 501.621 265.957 501.751 266.031C501.815 266.068 501.883 266.087 501.942 266.081L505.204 265.798L505.191 270.122C505.191 270.362 505.362 270.658 505.57 270.778L507.335 271.796C507.543 271.915 507.715 271.818 507.716 271.578L507.729 267.254L510.979 271.296C511.04 271.371 511.105 271.429 511.17 271.466C511.298 271.541 511.423 271.534 511.496 271.437L512.387 270.192C512.488 270.042 512.424 269.746 512.244 269.516L508.993 265.475L512.255 265.192C512.437 265.171 512.5 264.948 512.401 264.684L511.519 262.415C511.448 262.235 511.322 262.085 511.194 262.01C511.13 261.973 511.065 261.955 511.004 261.962L507.742 262.244L507.755 257.921C507.756 257.682 507.584 257.385 507.376 257.265L505.613 256.248Z" fill="#DA0000"/>
<path d="M489.991 247.229C489.783 247.109 489.619 247.212 489.619 247.451L489.607 251.774L486.348 247.727C486.287 247.652 486.223 247.594 486.158 247.557C486.028 247.482 485.904 247.489 485.831 247.586L484.948 248.835C484.84 248.98 484.902 249.277 485.082 249.506L488.333 253.547L485.071 253.83C484.889 253.85 484.826 254.073 484.933 254.343L485.805 256.606C485.877 256.787 486.002 256.937 486.13 257.011C486.195 257.049 486.26 257.066 486.32 257.06L489.592 256.783L489.579 261.107C489.578 261.345 489.741 261.637 489.949 261.757L491.713 262.775C491.921 262.894 492.093 262.797 492.095 262.557L492.107 258.233L495.358 262.275C495.418 262.352 495.484 262.408 495.549 262.447C495.68 262.522 495.807 262.517 495.873 262.416L496.764 261.171C496.865 261.021 496.811 260.729 496.631 260.5L493.371 256.453L496.643 256.177C496.825 256.156 496.88 255.927 496.781 255.663L495.899 253.394C495.833 253.218 495.706 253.066 495.575 252.991C495.511 252.953 495.443 252.934 495.384 252.941L492.121 253.223L492.133 248.9C492.133 248.661 491.962 248.364 491.754 248.244L489.991 247.229Z" fill="#DA0000"/>
<path d="M474.38 238.218C474.164 238.092 474 238.196 473.998 238.435L473.986 242.759L470.727 238.712C470.669 238.638 470.606 238.581 470.541 238.544C470.413 238.47 470.286 238.475 470.22 238.576L469.329 239.821C469.228 239.971 469.282 240.263 469.463 240.492L472.722 244.539L469.45 244.816C469.268 244.836 469.213 245.065 469.312 245.329L470.194 247.598C470.26 247.776 470.387 247.926 470.515 248C470.578 248.037 470.643 248.055 470.701 248.046L473.972 247.769L473.96 252.093C473.96 252.332 474.121 252.623 474.339 252.748L476.103 253.766C476.311 253.886 476.475 253.783 476.475 253.544L476.488 249.221L479.747 253.268C479.807 253.345 479.872 253.401 479.937 253.438C480.066 253.513 480.19 253.506 480.263 253.409L481.146 252.16C481.255 252.015 481.193 251.718 481.012 251.489L477.753 247.442L481.025 247.166C481.207 247.145 481.27 246.922 481.163 246.652L480.291 244.389C480.219 244.208 480.094 244.058 479.966 243.984C479.901 243.946 479.836 243.929 479.775 243.935L476.504 244.212L476.516 239.889C476.518 239.65 476.355 239.358 476.147 239.238L474.38 238.218Z" fill="#DA0000"/>
<path d="M458.758 229.199C458.55 229.079 458.377 229.177 458.376 229.416L458.364 233.74L455.113 229.699C455.052 229.623 454.986 229.565 454.921 229.527C454.79 229.451 454.664 229.456 454.598 229.557L453.706 230.802C453.606 230.952 453.669 231.248 453.85 231.478L457.1 235.52L453.837 235.802C453.655 235.823 453.592 236.046 453.691 236.31L454.573 238.579C454.639 238.755 454.766 238.907 454.895 238.983C454.96 239.02 455.027 239.039 455.088 239.032L458.35 238.75L458.337 243.074C458.337 243.313 458.508 243.609 458.716 243.729L460.479 244.747C460.687 244.867 460.859 244.769 460.861 244.53L460.873 240.206L464.124 244.247C464.185 244.324 464.249 244.381 464.314 244.418C464.442 244.492 464.568 244.485 464.641 244.389L465.532 243.144C465.632 242.994 465.569 242.698 465.388 242.468L462.138 238.426L465.401 238.144C465.581 238.123 465.646 237.9 465.547 237.635L464.665 235.367C464.594 235.186 464.468 235.036 464.34 234.962C464.276 234.925 464.211 234.907 464.15 234.914L460.887 235.196L460.899 230.872C460.899 230.634 460.729 230.336 460.521 230.217L458.758 229.199Z" fill="#DA0000"/>
<path d="M443.137 220.181C442.929 220.061 442.765 220.164 442.765 220.403L442.752 224.727L439.493 220.68C439.433 220.604 439.368 220.546 439.303 220.509C439.174 220.434 439.05 220.441 438.977 220.538L438.094 221.787C437.985 221.932 438.047 222.229 438.228 222.458L441.478 226.499L438.217 226.782C438.035 226.802 437.971 227.026 438.079 227.296L438.951 229.559C439.022 229.739 439.148 229.889 439.276 229.964C439.34 230.001 439.405 230.019 439.466 230.012L442.737 229.735L442.725 234.059C442.724 234.298 442.886 234.589 443.094 234.709L444.859 235.727C445.075 235.852 445.239 235.749 445.24 235.509L445.252 231.185L448.503 235.227C448.564 235.304 448.63 235.36 448.695 235.399C448.826 235.475 448.952 235.469 449.018 235.369L449.91 234.123C450.01 233.973 449.956 233.681 449.776 233.453L446.517 229.406L449.788 229.129C449.97 229.108 450.025 228.879 449.926 228.615L449.045 226.346C448.978 226.17 448.852 226.019 448.722 225.943C448.658 225.906 448.59 225.886 448.529 225.893L445.266 226.176L445.279 221.852C445.279 221.614 445.117 221.322 444.9 221.196L443.137 220.181Z" fill="#DA0000"/>
<g opacity="0.1">
<path d="M136.982 395.112C130.205 399.024 130.169 405.358 136.902 409.271L379.177 550.066C385.91 553.978 396.843 553.978 403.62 550.066L530.496 476.814C537.273 472.902 537.308 466.568 530.575 462.655L288.301 321.862C281.568 317.948 270.635 317.948 263.858 321.862L136.982 395.112Z" fill="black"/>
</g>
<path d="M535.43 455.429C535.43 457.983 533.721 460.573 530.321 462.529L403.43 535.778C401.386 536.959 398.973 537.786 396.401 538.244C394.746 538.56 393.002 538.719 391.274 538.719C389.547 538.719 387.839 538.578 386.165 538.278C383.54 537.821 381.075 536.992 379.014 535.777L136.735 394.987C133.37 393.049 131.696 390.512 131.696 387.976L131.626 358.415C131.626 360.969 133.3 363.524 136.647 365.444L378.926 506.253C381.022 507.485 383.506 508.315 386.165 508.754C387.839 509.053 389.549 509.177 391.274 509.177C393 509.177 394.728 509.019 396.401 508.702C398.955 508.244 401.352 507.415 403.378 506.253L530.235 433.003C533.652 431.013 535.343 428.458 535.343 425.85L535.43 455.429Z" fill="#BEC4CD"/>
<path d="M396.401 508.701V538.244C394.745 538.561 393.001 538.72 391.274 538.72C389.547 538.72 387.839 538.579 386.165 538.279V508.753C387.839 509.052 389.548 509.176 391.274 509.176C393 509.176 394.727 509.018 396.401 508.701Z" fill="#F0F2F5"/>
<path d="M391.161 539.165C386.482 539.165 382.089 538.103 378.782 536.172L136.505 395.376C133.117 393.42 131.252 390.791 131.252 387.972L131.174 358.452C131.174 358.441 131.174 358.431 131.174 358.422V358.42C131.174 358.175 131.372 357.973 131.62 357.973C131.865 357.973 132.066 358.171 132.066 358.418V358.449C132.08 360.948 133.785 363.296 136.874 365.065L379.153 505.861C382.33 507.715 386.596 508.735 391.174 508.735C391.207 508.735 391.241 508.735 391.274 508.735C395.752 508.719 399.968 507.697 403.149 505.861L530.019 432.609C533.169 430.77 534.906 428.371 534.906 425.851C534.906 425.606 535.105 425.405 535.353 425.405C535.598 425.405 535.799 425.603 535.799 425.85L535.877 455.419C535.877 458.28 533.985 460.944 530.547 462.92L403.66 536.17C400.329 538.085 395.933 539.147 391.278 539.164C391.238 539.165 391.2 539.165 391.161 539.165ZM132.075 361.748L132.145 387.97C132.145 390.457 133.853 392.814 136.954 394.603L379.233 535.399C382.406 537.253 386.64 538.272 391.163 538.272C391.198 538.272 391.236 538.272 391.274 538.272C395.776 538.257 400.017 537.237 403.212 535.399L530.099 462.148C533.249 460.338 534.985 457.95 534.985 455.421L534.915 429.149C534.04 430.73 532.532 432.177 530.467 433.38L403.594 506.634C400.281 508.547 395.908 509.611 391.277 509.627C391.242 509.627 391.207 509.627 391.172 509.627C386.441 509.627 382.015 508.565 378.702 506.633L136.427 365.838C134.416 364.686 132.941 363.29 132.075 361.748Z" fill="#373B42"/>
<path d="M522.276 467.622C522.031 467.622 521.83 467.422 521.83 467.176V437.594C521.83 437.347 522.03 437.147 522.276 437.147C522.522 437.147 522.723 437.347 522.723 437.594V467.176C522.721 467.424 522.522 467.622 522.276 467.622Z" fill="#373B42"/>
<path d="M193.693 412.179C193.675 413.414 193.251 414.297 192.551 414.701L189.961 416.207C190.661 415.784 191.084 414.919 191.103 413.685C191.103 411.2 189.354 408.181 187.201 406.929L168.346 396.045C167.242 395.42 166.266 395.365 165.549 395.77L168.138 394.264C168.856 393.86 169.833 393.915 170.936 394.54L189.79 405.423C191.943 406.675 193.693 409.695 193.693 412.179Z" fill="#373B42"/>
<path d="M189.962 416.653C189.81 416.653 189.663 416.575 189.579 416.434C189.453 416.224 189.521 415.952 189.732 415.826C190.313 415.474 190.642 414.711 190.659 413.678C190.659 411.352 189.007 408.493 186.977 407.314L168.124 396.431C167.208 395.915 166.37 395.816 165.767 396.158C165.551 396.278 165.281 396.205 165.161 395.992C165.038 395.78 165.113 395.508 165.323 395.384L167.913 393.879C168.811 393.373 169.957 393.474 171.154 394.153L190.014 405.037C192.327 406.383 194.138 409.52 194.138 412.179C194.138 412.181 194.138 412.184 194.138 412.185C194.119 413.56 193.635 414.589 192.774 415.087L190.186 416.593C190.114 416.634 190.039 416.653 189.962 416.653ZM167.439 395.186C167.805 395.284 168.183 395.441 168.566 395.659L187.424 406.544C189.738 407.889 191.55 411.027 191.55 413.686C191.543 414.111 191.492 414.503 191.398 414.857L192.327 414.316C192.905 413.983 193.23 413.222 193.247 412.177C193.245 409.845 191.595 406.988 189.566 405.809L170.712 394.926C169.801 394.41 168.963 394.309 168.356 394.653L167.439 395.186Z" fill="#373B42"/>
<path d="M187.197 406.932C189.359 408.18 191.104 411.205 191.098 413.689C191.091 416.174 189.333 417.176 187.171 415.928L168.312 405.038C166.149 403.79 164.404 400.765 164.411 398.28C164.418 395.795 166.176 394.794 168.338 396.042L187.197 406.932Z" fill="white"/>
<path d="M188.928 416.913C188.311 416.913 187.638 416.712 186.947 416.312L168.089 405.422C165.769 404.083 163.958 400.945 163.965 398.279C163.969 396.914 164.457 395.883 165.337 395.376C166.22 394.868 167.367 394.966 168.559 395.655L187.417 406.545C189.737 407.884 191.548 411.023 191.541 413.688C191.537 415.053 191.049 416.084 190.171 416.589C189.797 416.805 189.38 416.913 188.928 416.913ZM166.583 395.95C166.287 395.95 166.017 396.017 165.782 396.152C165.188 396.494 164.86 397.25 164.857 398.281C164.851 400.62 166.502 403.477 168.535 404.652L187.394 415.542C188.3 416.066 189.132 416.165 189.726 415.819C190.319 415.477 190.647 414.721 190.65 413.689C190.657 411.352 189.005 408.494 186.972 407.319L168.114 396.429C167.564 396.111 167.042 395.95 166.583 395.95Z" fill="#373B42"/>
<path d="M136.731 351.297C129.954 355.211 129.918 361.543 136.651 365.456L378.926 506.251C385.659 510.164 396.592 510.164 403.369 506.251L530.245 432.999C537.022 429.086 537.057 422.753 530.325 418.84L288.05 278.045C281.317 274.132 270.384 274.132 263.607 278.045L136.731 351.297Z" fill="#373B42"/>
<path d="M391.13 509.615C386.623 509.615 382.12 508.622 378.7 506.634L136.425 365.839C133.038 363.87 131.174 361.228 131.177 358.398C131.182 355.55 133.074 352.89 136.506 350.909L263.382 277.657C270.265 273.683 281.432 273.683 288.272 277.657L530.546 418.452C533.933 420.422 535.798 423.064 535.794 425.893C535.79 428.74 533.898 431.4 530.466 433.382L403.59 506.633C400.15 508.621 395.638 509.615 391.13 509.615ZM136.952 351.681C133.806 353.498 132.073 355.882 132.069 358.398C132.065 360.896 133.773 363.265 136.874 365.067L379.149 505.86C385.742 509.692 396.506 509.692 403.145 505.86L530.021 432.609C533.165 430.793 534.9 428.407 534.902 425.892C534.907 423.393 533.201 421.025 530.098 419.223L287.824 278.43C281.231 274.598 270.467 274.598 263.828 278.43L136.952 351.681Z" fill="#373B42"/>
<path d="M133.985 358.404C133.985 360.155 135.389 361.984 137.833 363.403L380.109 504.199C383.011 505.887 386.922 506.818 391.132 506.818C395.327 506.818 399.254 505.887 402.188 504.199L529.058 430.947C531.55 429.512 532.985 427.667 532.985 425.885C532.985 424.134 531.581 422.305 529.138 420.885L286.862 280.09C283.959 278.403 280.049 277.472 275.838 277.472C271.644 277.472 267.717 278.403 264.783 280.09L137.912 353.342C135.421 354.776 133.985 356.622 133.985 358.404Z" fill="white"/>
<path d="M391.134 507.262C386.851 507.262 382.855 506.312 379.884 504.585L137.609 363.788C135.023 362.287 133.539 360.323 133.539 358.404C133.539 356.46 135.053 354.474 137.689 352.955L264.56 279.704C267.561 277.977 271.564 277.026 275.837 277.026C280.12 277.026 284.116 277.977 287.086 279.704L529.361 420.499C531.948 422.002 533.431 423.965 533.431 425.883C533.431 427.828 531.918 429.813 529.281 431.332L402.411 504.583C399.409 506.31 395.405 507.262 391.134 507.262ZM275.837 277.918C271.719 277.918 267.872 278.825 265.006 280.475L138.136 353.726C135.781 355.082 134.432 356.785 134.432 358.403C134.432 359.996 135.754 361.678 138.06 363.016L380.335 503.812C383.172 505.461 387.007 506.37 391.134 506.37C395.251 506.37 399.098 505.462 401.965 503.812L528.835 430.561C531.19 429.206 532.539 427.5 532.539 425.883C532.539 424.288 531.216 422.608 528.911 421.27L286.637 280.475C283.802 278.825 279.966 277.918 275.837 277.918Z" fill="#373B42"/>
<path d="M243.858 306.934C241.986 308.029 194.331 335.716 192.12 337C188.586 339.051 182.821 339.051 179.277 337.009L172.825 333.275C175.036 331.991 234.858 297.236 237.376 295.771L243.828 299.495C247.374 301.548 247.393 304.883 243.858 306.934Z" fill="#373B42"/>
<path d="M185.693 338.98C183.29 338.98 180.887 338.452 179.053 337.397L172.6 333.663C172.462 333.584 172.377 333.437 172.377 333.277C172.377 333.119 172.461 332.971 172.597 332.892C174.807 331.608 234.63 296.852 237.148 295.388C237.287 295.308 237.457 295.308 237.596 295.388L244.049 299.111C245.914 300.19 246.94 301.653 246.942 303.23C246.942 304.796 245.927 306.249 244.081 307.319C242.544 308.22 209.706 327.298 197.343 334.481L192.343 337.388C190.514 338.45 188.103 338.98 185.693 338.98ZM173.713 333.277L179.501 336.626C182.927 338.597 188.486 338.594 191.898 336.616L196.898 333.71C209.261 326.528 242.096 307.45 243.635 306.551L243.636 306.549C245.195 305.644 246.053 304.465 246.053 303.23C246.053 301.986 245.184 300.797 243.607 299.883L237.377 296.29C232.896 298.892 180.522 329.321 173.713 333.277Z" fill="#373B42"/>
<path d="M195.778 329.113C194.309 329.113 192.935 328.788 191.913 328.197C190.993 327.666 190.485 327 190.483 326.323C190.483 325.655 190.977 325 191.875 324.478L231.965 301.183C232.983 300.591 234.356 300.266 235.831 300.266C237.309 300.266 238.691 300.594 239.72 301.189C240.63 301.713 241.132 302.373 241.132 303.047C241.133 303.718 240.637 304.376 239.735 304.901L199.646 328.196C198.625 328.787 197.252 329.113 195.778 329.113Z" fill="white"/>
<path d="M185.384 335.153C183.916 335.153 182.542 334.828 181.52 334.238C180.6 333.708 180.093 333.041 180.092 332.365C180.09 331.697 180.586 331.04 181.487 330.515C182.505 329.924 183.878 329.598 185.354 329.598C186.832 329.598 188.213 329.924 189.242 330.519C190.151 331.044 190.653 331.704 190.654 332.377C190.655 333.048 190.159 333.708 189.257 334.233C188.234 334.825 186.859 335.153 185.384 335.153Z" fill="white"/>
<path d="M185.378 334.027C184.504 334.027 183.689 333.834 183.08 333.483C182.533 333.167 182.231 332.771 182.231 332.368C182.23 331.97 182.526 331.58 183.061 331.269C183.667 330.918 184.482 330.724 185.36 330.724C186.238 330.724 187.059 330.918 187.671 331.272C188.211 331.585 188.51 331.976 188.51 332.377C188.511 332.776 188.215 333.167 187.679 333.48C187.073 333.833 186.255 334.027 185.378 334.027Z" fill="#DA0000"/>
<path d="M415.567 512.548C416.965 511.741 418.093 512.406 418.098 514.011C418.102 515.637 416.98 517.58 415.584 518.387C414.15 519.215 413.022 518.571 413.018 516.945C413.013 515.338 414.135 513.376 415.567 512.548Z" fill="#373B42"/>
<path d="M426.024 506.51C427.421 505.703 428.551 506.368 428.555 507.973C428.559 509.599 427.438 511.541 426.041 512.349C424.607 513.177 423.479 512.533 423.475 510.906C423.469 509.3 424.59 507.338 426.024 506.51Z" fill="#373B42"/>
<path d="M436.48 500.473C437.878 499.665 439.007 500.331 439.011 501.935C439.015 503.562 437.894 505.504 436.497 506.312C435.063 507.139 433.935 506.496 433.931 504.869C433.927 503.263 435.048 501.299 436.48 500.473Z" fill="#373B42"/>
<path d="M502.042 462.625C503.439 461.818 504.568 462.483 504.572 464.088C504.576 465.715 503.455 467.657 502.058 468.464C500.625 469.292 499.496 468.649 499.492 467.022C499.488 465.417 500.609 463.453 502.042 462.625Z" fill="#373B42"/>
<path d="M512.499 456.588C513.896 455.781 515.025 456.446 515.029 458.051C515.033 459.677 513.912 461.62 512.515 462.427C511.081 463.255 509.953 462.611 509.949 460.985C509.944 459.38 511.065 457.416 512.499 456.588Z" fill="#373B42"/>
<path d="M483.106 479.461C484.537 478.634 485.695 476.627 485.69 474.984C485.686 473.341 484.519 472.675 483.088 473.502L455.388 489.495C453.956 490.322 452.802 492.326 452.808 493.969C452.812 495.612 453.974 496.279 455.406 495.454L483.106 479.461Z" fill="#373B42"/>
<path d="M363.202 527.048C362.957 527.048 362.756 526.848 362.756 526.601V497.11C362.756 496.864 362.956 496.664 363.202 496.664C363.447 496.664 363.648 496.864 363.648 497.11V526.601C363.647 526.848 363.447 527.048 363.202 527.048Z" fill="#373B42"/>
<path d="M150.869 403.652C150.624 403.652 150.423 403.452 150.423 403.206V373.715C150.423 373.468 150.623 373.269 150.869 373.269C151.114 373.269 151.315 373.468 151.315 373.715V403.206C151.315 403.452 151.114 403.652 150.869 403.652Z" fill="#373B42"/>
<path d="M305.96 473.785C308.304 475.139 310.197 478.416 310.188 481.111C310.181 483.805 308.276 484.89 305.932 483.536L260.397 457.241C258.052 455.887 256.16 452.61 256.168 449.916C256.176 447.221 258.08 446.136 260.426 447.49L305.96 473.785Z" fill="#F0F2F5"/>
<path d="M305.907 476.482C304.889 475.896 304.068 476.379 304.065 477.547C304.061 478.732 304.878 480.145 305.896 480.732C306.94 481.334 307.761 480.867 307.765 479.682C307.767 478.514 306.951 477.084 305.907 476.482Z" fill="#373B42"/>
<g opacity="0.1">
<path d="M178.634 241.504C193.618 250.154 193.696 264.186 178.803 272.84C163.91 281.495 139.694 281.491 124.71 272.84C109.719 264.186 109.627 250.154 124.52 241.499C139.413 232.845 163.643 232.849 178.634 241.504Z" fill="black"/>
</g>
<path d="M113.399 250.768C113.387 256.477 117.15 262.197 124.703 266.547C130.547 269.924 137.788 271.981 145.341 272.717C149.528 273.141 153.816 273.141 158.002 272.741C165.629 272.018 172.932 269.949 178.79 266.547C186.193 262.247 189.895 256.627 189.908 250.993L189.933 237.122C189.92 242.768 186.219 248.388 178.815 252.689C172.945 256.103 165.63 258.172 158.002 258.883C153.815 259.282 149.528 259.282 145.341 258.858C137.801 258.123 130.56 256.054 124.727 252.689C117.187 248.351 113.424 242.643 113.424 236.924L113.399 250.768Z" fill="#BEC4CD"/>
<path d="M145.34 258.856V272.715C149.527 273.139 153.815 273.139 158.001 272.74V258.881C153.815 259.279 149.527 259.279 145.34 258.856Z" fill="#DBDEE4"/>
<path d="M151.784 273.468C141.909 273.468 132.022 271.291 124.479 266.936C117.028 262.636 112.936 256.892 112.955 250.761L112.98 236.929C112.98 236.919 112.98 236.911 112.98 236.901C112.98 236.654 113.18 236.456 113.426 236.456C113.426 236.456 113.426 236.456 113.428 236.456C113.673 236.457 113.873 236.656 113.873 236.902V236.927C113.867 242.714 117.8 248.174 124.951 252.303C139.789 260.871 163.856 260.87 178.596 252.303C185.607 248.23 189.477 242.839 189.494 237.124C189.494 236.879 189.694 236.681 189.94 236.681C190.185 236.682 190.385 236.88 190.385 237.127V237.128L190.359 250.988C190.341 257.031 186.315 262.695 179.02 266.936C171.524 271.291 161.66 273.468 151.784 273.468ZM113.862 241.796L113.846 250.764C113.828 256.56 117.764 262.03 124.925 266.165C139.763 274.732 163.829 274.731 178.569 266.165C185.581 262.09 189.451 256.7 189.466 250.987L189.484 241.984C187.917 246.166 184.341 249.996 179.043 253.076C164.057 261.786 139.591 261.789 124.504 253.076C119.079 249.945 115.436 246.05 113.862 241.796Z" fill="#373B42"/>
<path d="M178.65 221.353C193.634 230.003 193.713 244.035 178.82 252.689C163.927 261.344 139.71 261.34 124.726 252.689C109.736 244.035 109.643 230.003 124.536 221.349C139.429 212.694 163.66 212.697 178.65 221.353Z" fill="white"/>
<path d="M151.808 259.607C141.933 259.607 132.046 257.43 124.503 253.076C117.08 248.79 112.988 243.066 112.98 236.958C112.971 230.896 116.996 225.215 124.312 220.963C139.302 212.254 163.778 212.254 178.873 220.967C186.287 225.248 190.376 230.968 190.385 237.072C190.393 243.137 186.365 248.822 179.043 253.076C171.55 257.43 161.686 259.607 151.808 259.607ZM151.549 215.309C141.833 215.309 132.131 217.451 124.762 221.735C117.732 225.82 113.862 231.227 113.872 236.957C113.88 242.732 117.814 248.183 124.951 252.304C139.789 260.872 163.855 260.87 178.595 252.304C185.631 248.216 189.5 242.807 189.493 237.074C189.485 231.301 185.555 225.855 178.427 221.739C171.003 217.452 161.268 215.309 151.549 215.309Z" fill="#373B42"/>
<path d="M113.399 250.768C113.387 256.477 117.15 262.197 124.703 266.547C130.547 269.924 137.788 271.981 145.341 272.717C149.528 273.141 153.816 273.141 158.002 272.741C165.629 272.018 172.932 269.949 178.79 266.547C186.193 262.247 189.895 256.627 189.908 250.993L189.933 237.122C189.92 242.768 186.219 248.388 178.815 252.689C172.945 256.103 165.63 258.172 158.002 258.883C153.815 259.282 149.528 259.282 145.341 258.858C137.801 258.123 130.56 256.054 124.727 252.689C117.187 248.351 113.424 242.643 113.424 236.924L113.399 250.768Z" fill="#BEC4CD"/>
<path d="M145.34 258.856V272.715C149.527 273.139 153.815 273.139 158.001 272.74V258.881C153.815 259.279 149.527 259.279 145.34 258.856Z" fill="#DBDEE4"/>
<path d="M151.784 273.468C141.909 273.468 132.022 271.291 124.479 266.936C117.028 262.636 112.936 256.892 112.955 250.761L112.98 236.929C112.98 236.919 112.98 236.911 112.98 236.901C112.98 236.654 113.18 236.456 113.426 236.456C113.426 236.456 113.426 236.456 113.428 236.456C113.673 236.457 113.873 236.656 113.873 236.902V236.927C113.867 242.714 117.8 248.174 124.951 252.303C139.789 260.871 163.856 260.87 178.596 252.303C185.607 248.23 189.477 242.839 189.494 237.124C189.494 236.879 189.694 236.681 189.94 236.681C190.185 236.682 190.385 236.88 190.385 237.127V237.128L190.359 250.988C190.341 257.031 186.315 262.695 179.02 266.936C171.524 271.291 161.66 273.468 151.784 273.468ZM113.862 241.796L113.846 250.764C113.828 256.56 117.764 262.03 124.925 266.165C139.763 274.732 163.829 274.731 178.569 266.165C185.581 262.09 189.451 256.7 189.466 250.987L189.484 241.984C187.917 246.166 184.341 249.996 179.043 253.076C164.057 261.786 139.591 261.789 124.504 253.076C119.079 249.945 115.436 246.05 113.862 241.796Z" fill="#373B42"/>
<path d="M178.65 221.353C193.634 230.003 193.713 244.035 178.82 252.689C163.927 261.344 139.71 261.34 124.726 252.689C109.736 244.035 109.643 230.003 124.536 221.349C139.429 212.694 163.66 212.697 178.65 221.353Z" fill="white"/>
<path d="M151.808 259.607C141.933 259.607 132.046 257.43 124.503 253.076C117.08 248.79 112.988 243.066 112.98 236.958C112.971 230.896 116.996 225.215 124.312 220.963C139.302 212.254 163.778 212.254 178.873 220.967C186.287 225.248 190.376 230.968 190.385 237.072C190.393 243.137 186.365 248.822 179.043 253.076C171.55 257.43 161.686 259.607 151.808 259.607ZM151.549 215.309C141.833 215.309 132.131 217.451 124.762 221.735C117.732 225.82 113.862 231.227 113.872 236.957C113.88 242.732 117.814 248.183 124.951 252.304C139.789 260.872 163.855 260.87 178.595 252.304C185.631 248.216 189.5 242.807 189.493 237.074C189.485 231.301 185.555 225.855 178.427 221.739C171.003 217.452 161.268 215.309 151.549 215.309Z" fill="#373B42"/>
<path d="M113.399 250.768C113.387 256.477 117.15 262.197 124.703 266.547C130.547 269.924 137.788 271.981 145.341 272.717C149.528 273.141 153.816 273.141 158.002 272.741C165.629 272.018 172.932 269.949 178.79 266.547C186.193 262.247 189.895 256.627 189.908 250.993L189.933 237.122C189.92 242.768 186.219 248.388 178.815 252.689C172.945 256.103 165.63 258.172 158.002 258.883C153.815 259.282 149.528 259.282 145.341 258.858C137.801 258.123 130.56 256.054 124.727 252.689C117.187 248.351 113.424 242.643 113.424 236.924L113.399 250.768Z" fill="#BEC4CD"/>
<path d="M145.34 258.856V272.715C149.527 273.139 153.815 273.139 158.001 272.74V258.881C153.815 259.279 149.527 259.279 145.34 258.856Z" fill="#F0F2F5"/>
<path d="M151.784 273.468C141.909 273.468 132.022 271.291 124.479 266.936C117.028 262.636 112.936 256.892 112.955 250.761L112.98 236.929C112.98 236.919 112.98 236.911 112.98 236.901C112.98 236.654 113.18 236.456 113.426 236.456C113.426 236.456 113.426 236.456 113.428 236.456C113.673 236.457 113.873 236.656 113.873 236.902V236.927C113.867 242.714 117.8 248.174 124.951 252.303C139.789 260.871 163.856 260.87 178.596 252.303C185.607 248.23 189.477 242.839 189.494 237.124C189.494 236.879 189.694 236.681 189.94 236.681C190.185 236.682 190.385 236.88 190.385 237.127V237.128L190.359 250.988C190.341 257.031 186.315 262.695 179.02 266.936C171.524 271.291 161.66 273.468 151.784 273.468ZM113.862 241.796L113.846 250.764C113.828 256.56 117.764 262.03 124.925 266.165C139.763 274.732 163.829 274.731 178.569 266.165C185.581 262.09 189.451 256.7 189.466 250.987L189.484 241.984C187.917 246.166 184.341 249.996 179.043 253.076C164.057 261.786 139.591 261.789 124.504 253.076C119.079 249.945 115.436 246.05 113.862 241.796Z" fill="#373B42"/>
<path d="M178.65 221.353C193.634 230.003 193.713 244.035 178.82 252.689C163.927 261.344 139.71 261.34 124.726 252.689C109.736 244.035 109.643 230.003 124.536 221.349C139.429 212.694 163.66 212.697 178.65 221.353Z" fill="white"/>
<path d="M151.808 259.607C141.933 259.607 132.046 257.43 124.503 253.076C117.08 248.79 112.988 243.066 112.98 236.958C112.971 230.896 116.996 225.215 124.312 220.963C139.302 212.254 163.778 212.254 178.873 220.967C186.287 225.248 190.376 230.968 190.385 237.072C190.393 243.137 186.365 248.822 179.043 253.076C171.55 257.43 161.686 259.607 151.808 259.607ZM151.549 215.309C141.833 215.309 132.131 217.451 124.762 221.735C117.732 225.82 113.862 231.227 113.872 236.957C113.88 242.732 117.814 248.183 124.951 252.304C139.789 260.872 163.855 260.87 178.595 252.304C185.631 248.216 189.5 242.807 189.493 237.074C189.485 231.301 185.555 225.855 178.427 221.739C171.003 217.452 161.268 215.309 151.549 215.309Z" fill="#373B42"/>
<g opacity="0.1">
<path d="M136.18 229.106C128.409 233.594 128.377 240.872 136.097 245.358C143.819 249.846 156.375 249.846 164.146 245.358C171.918 240.871 171.969 233.592 164.247 229.106C156.526 224.62 143.952 224.62 136.18 229.106Z" fill="black"/>
</g>
<path d="M199.097 118.555L183.653 109.579C183.072 109.242 182.291 109.232 181.416 109.592C176.409 111.635 171.93 111.505 168.53 109.53L183.974 118.505C187.374 120.48 191.853 120.61 196.86 118.567C197.736 118.206 198.516 118.216 199.097 118.555Z" fill="#373B42"/>
<path d="M189.969 120.479C187.682 120.479 185.572 119.95 183.75 118.892L168.31 109.92L168.305 109.917C168.092 109.793 168.021 109.52 168.145 109.307C168.267 109.092 168.54 109.021 168.755 109.145C172.148 111.117 176.467 111.129 181.247 109.18C182.229 108.775 183.164 108.78 183.879 109.194L199.322 118.169C199.534 118.293 199.605 118.566 199.482 118.779C199.358 118.993 199.085 119.062 198.871 118.942C198.406 118.669 197.751 118.684 197.027 118.98C194.578 119.979 192.189 120.479 189.969 120.479ZM172.583 111.37L184.199 118.119C187.591 120.091 191.911 120.103 196.689 118.154C196.867 118.081 197.041 118.022 197.213 117.975L183.427 109.964C182.965 109.691 182.308 109.706 181.583 110.002C178.405 111.303 175.334 111.757 172.583 111.37Z" fill="#373B42"/>
<path d="M121.481 118.302L158.494 96.9472C159.51 96.3701 160.406 96.3095 161.064 96.6883L176.522 105.672C175.865 105.274 174.949 105.333 173.952 105.912L136.938 127.287C136.109 127.763 135.364 128.521 134.758 129.407L119.309 120.427C119.917 119.539 120.661 118.777 121.481 118.302Z" fill="#373B42"/>
<path d="M134.758 129.849C134.681 129.849 134.605 129.83 134.534 129.789L119.084 120.809C118.978 120.747 118.901 120.643 118.873 120.521C118.847 120.4 118.872 120.273 118.941 120.172C119.619 119.181 120.419 118.4 121.255 117.913L158.27 96.5581C159.395 95.9176 160.465 95.8267 161.286 96.2992L176.69 105.251C176.711 105.263 176.731 105.276 176.753 105.288C176.963 105.415 177.03 105.686 176.905 105.897C176.778 106.108 176.508 106.177 176.298 106.056L176.251 106.027C175.726 105.739 174.974 105.831 174.175 106.294L137.162 127.669C136.433 128.089 135.731 128.775 135.126 129.655C135.04 129.782 134.901 129.849 134.758 129.849ZM119.96 120.287L134.633 128.815C135.257 127.986 135.972 127.327 136.715 126.898L173.729 105.524C174.045 105.341 174.361 105.203 174.669 105.111L160.84 97.0733C160.308 96.7648 159.553 96.8584 158.713 97.3336L121.704 118.687C121.093 119.043 120.495 119.592 119.96 120.287Z" fill="#373B42"/>
<path d="M98.7133 157.346C104.092 153.342 108.813 147.565 112.259 141.171C115.227 135.693 117.219 129.777 117.857 124.139C118.002 122.873 118.544 121.547 119.31 120.427L134.759 129.406C133.996 130.522 133.459 131.847 133.315 133.124C132.658 138.76 130.666 144.657 127.697 150.156C124.251 156.531 119.529 162.308 114.171 166.312C113.135 167.072 112.251 168.196 111.66 169.414L96.2188 160.44C96.811 159.226 97.6899 158.105 98.7133 157.346Z" fill="#373B42"/>
<path d="M111.66 169.857C111.582 169.857 111.505 169.837 111.436 169.797L95.9949 160.823C95.7924 160.706 95.7166 160.451 95.8186 160.241C96.4632 158.922 97.3971 157.766 98.4467 156.987C103.594 153.153 108.362 147.461 111.867 140.957C114.875 135.402 116.794 129.569 117.414 124.086C117.561 122.787 118.104 121.398 118.942 120.173C119.072 119.98 119.329 119.921 119.534 120.039L134.983 129.018C135.089 129.081 135.166 129.184 135.194 129.306C135.22 129.427 135.198 129.553 135.127 129.655C134.377 130.753 133.89 132.003 133.757 133.172C133.106 138.757 131.144 144.701 128.088 150.364C124.519 156.966 119.67 162.755 114.437 166.666C113.484 167.365 112.641 168.408 112.06 169.605C112.006 169.718 111.908 169.801 111.79 169.838C111.747 169.852 111.703 169.857 111.66 169.857ZM96.8089 160.266L111.479 168.791C112.107 167.644 112.957 166.646 113.908 165.951C119.038 162.119 123.796 156.433 127.305 149.942C130.308 144.379 132.234 138.544 132.873 133.073C133.005 131.905 133.447 130.672 134.131 129.556L119.453 121.024C118.824 122.041 118.418 123.151 118.3 124.188C117.667 129.784 115.716 135.729 112.652 141.383C109.087 147.999 104.232 153.795 98.9811 157.704C98.1395 158.327 97.3792 159.226 96.8089 160.266Z" fill="#373B42"/>
<path d="M111.66 169.413C111.184 170.395 110.896 171.436 110.904 172.406L110.944 186.789C110.984 203.343 114.948 216.988 122.04 226.689C124.768 230.394 128.513 233.542 132.797 236.032L117.359 227.049C113.056 224.558 109.311 221.431 106.601 217.705C99.5101 208.004 95.5459 194.358 95.4852 177.825L95.4453 163.422C95.4453 162.459 95.7401 161.419 96.2194 160.438L111.66 169.413Z" fill="#373B42"/>
<path d="M132.795 236.477C132.718 236.477 132.643 236.457 132.571 236.416C132.559 236.408 132.545 236.4 132.531 236.391L117.134 227.431C112.543 224.774 108.878 221.589 106.24 217.965C98.9711 208.022 95.0992 194.141 95.0399 177.823L95 163.419C95 162.435 95.2824 161.336 95.8182 160.238C95.8719 160.128 95.9697 160.044 96.0895 160.007C96.2066 159.97 96.3333 159.986 96.4435 160.048L111.885 169.022C112.084 169.139 112.163 169.393 112.061 169.602C111.588 170.579 111.343 171.546 111.35 172.397L111.39 186.783C111.429 202.916 115.236 216.622 122.4 226.422C124.991 229.941 128.545 233.03 132.959 235.608L133.02 235.642C133.232 235.766 133.304 236.039 133.18 236.252C133.098 236.398 132.95 236.477 132.795 236.477ZM96.4201 161.07C96.073 161.895 95.8912 162.7 95.8912 163.42L95.9311 177.821C95.989 193.948 99.8031 207.65 106.96 217.441C109.524 220.964 113.095 224.066 117.58 226.66L125.631 231.345C124.141 229.967 122.82 228.5 121.68 226.952C114.403 216.997 110.536 203.11 110.496 186.787L110.456 172.404C110.449 171.532 110.666 170.565 111.084 169.591L96.4201 161.07Z" fill="#373B42"/>
<path d="M136.934 127.286C135.077 128.358 133.567 130.84 133.307 133.113C132.661 138.756 130.665 144.665 127.699 150.154C124.251 156.536 119.53 162.307 114.165 166.312C112.309 167.69 110.889 170.237 110.895 172.4L110.936 186.796C110.983 203.339 114.958 216.986 122.044 226.685C128.732 235.823 141.577 241.434 153.594 242.666C154.269 242.737 155.033 242.527 155.796 242.086C156.559 241.645 157.322 240.974 157.995 240.124C169.965 225.044 182.736 204.643 189.351 187.825C196.37 169.983 200.243 151.805 200.195 135.261L200.154 120.866C200.147 118.703 198.719 117.801 196.86 118.566C191.504 120.752 186.751 120.45 183.279 118.063C180.305 116.004 178.269 112.421 177.593 107.542C177.32 105.578 175.815 104.837 173.945 105.915L136.934 127.286Z" fill="white"/>
<path d="M153.853 243.127C153.748 243.127 153.647 243.121 153.545 243.11C140.189 241.744 127.978 235.549 121.68 226.949C114.406 216.988 110.535 203.104 110.489 186.798L110.447 172.402C110.442 170.154 111.892 167.443 113.898 165.954C119.041 162.115 123.804 156.428 127.306 149.942C130.313 144.374 132.236 138.536 132.864 133.061C133.145 130.615 134.762 128.024 136.71 126.9L173.723 105.532C174.768 104.927 175.79 104.808 176.6 105.206C177.373 105.584 177.881 106.392 178.035 107.483C178.679 112.123 180.58 115.654 183.534 117.7C186.961 120.057 191.635 120.219 196.691 118.156C197.74 117.723 198.713 117.758 199.439 118.243C200.185 118.74 200.596 119.672 200.599 120.867L200.641 135.262C200.687 151.552 196.926 169.785 189.764 187.989C183.596 203.675 171.555 223.76 158.342 240.403C157.649 241.279 156.845 241.996 156.017 242.474C155.27 242.903 154.531 243.127 153.853 243.127ZM137.154 127.672C135.46 128.652 133.995 131.011 133.748 133.164C133.109 138.753 131.152 144.7 128.09 150.367C124.526 156.965 119.676 162.756 114.429 166.672C112.633 168.007 111.333 170.416 111.339 172.402L111.38 186.798C111.425 202.915 115.235 216.618 122.401 226.424C128.552 234.827 140.522 240.881 153.637 242.224C154.196 242.277 154.874 242.103 155.571 241.702C156.302 241.279 157.018 240.64 157.641 239.85C170.804 223.271 182.795 203.275 188.934 187.664C196.054 169.563 199.792 151.444 199.748 135.265L199.707 120.869C199.705 119.981 199.434 119.311 198.944 118.984C198.468 118.668 197.786 118.668 197.029 118.979C191.679 121.161 186.711 120.964 183.024 118.433C179.861 116.241 177.827 112.499 177.148 107.605C177.041 106.817 176.705 106.249 176.208 106.007C175.669 105.746 174.95 105.851 174.166 106.303L137.154 127.672Z" fill="#373B42"/>
<path d="M152.383 234.682C164.758 218.969 176.384 199.542 182.111 184.981C188.896 167.736 192.46 150.551 192.417 135.286L192.395 127.691C191.58 127.778 190.77 127.822 189.969 127.822C185.895 127.822 182.059 126.665 178.873 124.474C175.869 122.393 173.544 119.538 171.968 116.039L141.135 133.841C141.084 133.925 141.033 134.028 141.017 134.092C140.287 140.505 138.041 147.372 134.54 153.852C130.423 161.475 124.985 167.939 118.816 172.546C118.788 172.576 118.721 172.671 118.672 172.761L118.712 186.776C118.753 201.335 122.075 213.551 128.322 222.1C132.906 228.364 142.204 233.187 152.383 234.682Z" fill="#DA0000"/>
<path d="M157.446 162.349C166.556 156.897 173.97 161.254 174 172.128C174.03 182.978 166.663 196.204 157.554 201.655C148.444 207.107 141.03 202.727 141 191.877C140.97 181.004 148.337 167.8 157.446 162.349Z" fill="white"/>
<path d="M157.508 168.831C158.695 168.146 159.772 168.076 160.551 168.52C161.333 168.965 161.816 169.923 161.82 171.285L161.834 176.218L160.603 176.928L160.589 171.995C160.583 170.054 159.201 169.27 157.512 170.244C155.821 171.219 154.45 173.591 154.456 175.532L154.47 180.465L153.239 181.175L153.225 176.242C153.217 173.515 155.132 170.201 157.508 168.831Z" fill="#383C43"/>
<path d="M163.017 174.843C163.358 174.646 163.633 174.806 163.635 175.198L163.668 188.277C163.669 188.669 163.395 189.145 163.054 189.342L152.022 195.705C151.684 195.9 151.406 195.741 151.405 195.35L151.371 182.27C151.37 181.879 151.646 181.401 151.985 181.206L163.017 174.843Z" fill="#DA0000"/>
<path d="M157.633 182.339C156.913 182.755 156.329 183.766 156.331 184.596C156.333 185.179 156.624 185.519 157.051 185.519L156.438 188.887C156.39 189.159 156.551 189.302 156.771 189.175L158.533 188.158C158.754 188.031 158.913 187.704 158.863 187.488L158.233 184.836C158.659 184.345 158.948 183.67 158.946 183.087C158.944 182.257 158.355 181.923 157.633 182.339Z" fill="#383C43"/>
<path d="M235.58 362.245C235.69 361.828 235.477 361.419 234.988 361.117C218.989 351.303 218.829 336.08 234.858 326.824C250.887 317.569 277.154 317.721 294.06 327.012C294.565 327.305 295.27 327.429 296.036 327.359C298 327.199 299.992 327.465 301.905 328.078C302.977 328.415 303.924 328.842 304.719 329.304C309.638 332.162 309.842 336.971 304.566 340.015C302.289 341.329 302.492 343.603 304.738 344.909L315.605 351.224C317.882 352.548 317.87 354.679 315.594 355.995L284.934 373.696C282.642 375.02 278.961 375.02 276.684 373.696L265.818 367.38C263.571 366.075 259.662 365.942 257.328 367.288C252.094 370.31 243.827 370.159 238.907 367.301C238.112 366.839 237.347 366.306 236.663 365.551C235.751 364.554 235.298 363.4 235.58 362.245ZM246.608 353.47C251.06 353.989 255.279 353.362 257.626 352.007C258.535 351.482 259.162 350.848 259.415 350.129C260.334 347.58 256.086 344.898 249.911 344.197C245.462 343.671 241.239 344.299 238.889 345.654C237.985 346.176 237.358 346.806 237.103 347.518C236.2 350.077 240.448 352.741 246.608 353.47ZM280.807 333.725C279.57 330.155 274.983 327.685 270.549 328.21C269.322 328.354 268.235 328.713 267.333 329.234C264.984 330.589 263.879 333.038 264.773 335.617C265.995 339.179 270.597 341.657 275.001 341.132C276.242 340.989 277.34 340.626 278.25 340.1C280.599 338.745 281.698 336.3 280.807 333.725ZM282.916 362.236L295.822 354.784C296.961 354.127 296.399 352.999 294.806 352.803L278.608 350.858C277.896 350.774 277.224 350.913 276.767 351.178C276.309 351.442 276.066 351.831 276.209 352.244L279.498 361.641C279.832 362.565 281.776 362.893 282.916 362.236Z" fill="#BEC4CD"/>
<path d="M276.059 395.515C272.991 397.287 271.875 400.01 273.601 402.474C274.727 404.091 276.837 405.298 279.378 405.938C278.312 407.422 278.24 409.145 279.367 410.743C281.648 414.029 288.079 415.611 293.776 414.269C295.186 413.937 296.416 413.455 297.429 412.869C300.482 411.108 301.603 408.398 299.925 405.938L376.158 387.989C378.486 391.248 384.887 392.811 390.537 391.479C391.944 391.146 393.172 390.665 394.186 390.078C397.258 388.304 398.383 385.576 396.656 383.113C395.546 381.505 393.405 380.315 390.894 379.676C391.93 378.192 392.032 376.469 390.907 374.854C388.625 371.567 382.163 369.986 376.497 371.327C375.073 371.661 373.836 372.144 372.817 372.732C369.771 374.49 368.673 377.188 370.348 379.658L294.115 397.606C291.788 394.346 285.356 392.784 279.706 394.116C278.3 394.449 277.072 394.93 276.059 395.515Z" fill="#BEC4CD"/>
<path d="M340.023 358.587C339.011 359.172 338.176 359.88 337.596 360.694C335.278 363.963 337.956 367.693 343.576 369.052L312.338 413.151C308.082 412.173 303.411 412.805 300.368 414.562C299.349 415.15 298.514 415.863 297.936 416.686C295.602 419.962 298.31 423.71 303.976 425.044C306.762 425.701 309.737 425.648 312.302 425.053C313.383 426.519 315.445 427.753 318.202 428.41C322.461 429.412 327.179 428.767 330.252 426.993C331.265 426.407 332.101 425.698 332.681 424.884C335 421.615 332.322 417.903 326.702 416.544L357.939 372.445C362.181 373.424 366.861 372.784 369.915 371.022C370.929 370.437 371.765 369.726 372.343 368.91C374.677 365.616 371.969 361.886 366.303 360.552C363.532 359.903 360.572 359.931 358.008 360.544C356.913 359.07 354.835 357.844 352.047 357.187C347.796 356.177 343.089 356.815 340.023 358.587Z" fill="#BEC4CD"/>
<path d="M458 454.823C458.014 457.396 456.432 459.594 453.252 461.442C450.223 463.202 446.5 464.089 442.06 464.089C437.621 464.089 433.8 463.178 430.6 461.329C427.55 459.569 426.029 457.395 426.016 454.822C426.002 452.249 427.498 450.077 430.527 448.315C433.706 446.467 437.516 445.555 441.955 445.555C446.395 445.555 450.15 446.429 453.2 448.19C456.399 450.041 457.985 452.252 458 454.823Z" fill="#BEC4CD"/>
<path d="M442.059 464.535C437.548 464.535 433.618 463.588 430.377 461.716C427.202 459.882 425.586 457.564 425.569 454.826C425.554 452.085 427.148 449.765 430.301 447.93C433.52 446.06 437.44 445.111 441.954 445.109C446.468 445.109 450.326 446.016 453.421 447.805C456.74 449.721 458.428 452.081 458.446 454.82C458.46 457.544 456.788 459.9 453.478 461.827C450.384 463.625 446.544 464.535 442.059 464.535ZM441.955 446.002C437.601 446.003 433.831 446.911 430.751 448.703C427.892 450.364 426.45 452.424 426.462 454.822C426.474 457.221 427.943 459.282 430.823 460.946C433.926 462.736 437.707 463.646 442.06 463.646C446.384 463.646 450.075 462.775 453.029 461.059C456.087 459.281 457.567 457.242 457.555 454.829C457.54 452.395 456.044 450.351 452.976 448.579C450.019 446.868 446.311 446.002 441.955 446.002Z" fill="#373B42"/>
<path d="M125.933 444.239C129.158 446.102 129.175 449.121 125.973 450.983C122.769 452.844 117.555 452.844 114.332 450.982C111.108 449.12 111.092 446.102 114.295 444.241C117.497 442.378 122.708 442.378 125.933 444.239Z" fill="white"/>
<path d="M120.16 452.817C117.971 452.817 115.779 452.334 114.107 451.368C112.401 450.382 111.458 449.045 111.457 447.602C111.456 446.167 112.384 444.836 114.07 443.856C117.392 441.927 122.813 441.925 126.157 443.854C127.865 444.841 128.807 446.181 128.81 447.624C128.811 449.06 127.883 450.389 126.197 451.368C124.534 452.334 122.348 452.817 120.16 452.817ZM120.106 443.285C118.081 443.285 116.056 443.732 114.519 444.627C113.117 445.44 112.347 446.496 112.35 447.6C112.351 448.711 113.133 449.776 114.555 450.596C117.651 452.385 122.676 452.385 125.748 450.597C127.15 449.783 127.92 448.728 127.917 447.624C127.916 446.511 127.132 445.447 125.711 444.626C124.161 443.733 122.134 443.285 120.106 443.285Z" fill="#DBDEE4"/>
<path d="M120.151 449.738C118.893 449.738 117.677 449.451 116.813 448.953C116.119 448.552 115.721 448.06 115.72 447.603C115.72 447.151 116.11 446.665 116.791 446.268C117.648 445.77 118.86 445.484 120.115 445.484C121.371 445.484 122.586 445.771 123.45 446.27C124.144 446.67 124.544 447.164 124.544 447.621C124.544 448.073 124.154 448.559 123.473 448.954C122.617 449.453 121.406 449.738 120.151 449.738Z" fill="#DA0000"/>
<path d="M148.536 465.896C147.186 465.896 145.879 465.589 144.952 465.053C144.207 464.623 143.778 464.094 143.778 463.602C143.778 463.117 144.197 462.594 144.929 462.17C145.849 461.635 147.15 461.328 148.499 461.328C149.847 461.328 151.153 461.635 152.08 462.171C152.827 462.602 153.254 463.131 153.255 463.623C153.255 464.108 152.836 464.63 152.105 465.055C151.185 465.589 149.884 465.896 148.536 465.896Z" fill="#373B42"/>
<path d="M237.488 193.204C234.263 195.067 234.245 198.086 237.448 199.947C240.652 201.809 245.865 201.808 249.09 199.945C252.315 198.083 252.33 195.065 249.127 193.204C245.923 191.343 240.712 191.343 237.488 193.204Z" fill="white"/>
<path d="M243.26 201.782C241.072 201.782 238.885 201.299 237.224 200.334C235.538 199.354 234.61 198.024 234.611 196.589C234.613 195.144 235.555 193.805 237.264 192.82C240.605 190.889 246.028 190.892 249.351 192.82C251.039 193.803 251.966 195.132 251.964 196.567C251.963 198.009 251.021 199.348 249.314 200.334C247.641 201.299 245.449 201.782 243.26 201.782ZM237.709 193.592C236.288 194.413 235.504 195.477 235.502 196.59C235.501 197.694 236.271 198.75 237.672 199.563C240.744 201.349 245.769 201.351 248.865 199.562C250.287 198.741 251.068 197.676 251.07 196.566C251.072 195.462 250.302 194.406 248.901 193.592C245.829 191.804 240.806 191.804 237.709 193.592Z" fill="#DBDEE4"/>
<path d="M243.269 198.703C244.525 198.703 245.743 198.416 246.607 197.918C247.301 197.517 247.699 197.025 247.699 196.568C247.699 196.116 247.309 195.63 246.627 195.233C245.77 194.734 244.558 194.449 243.303 194.449C242.047 194.449 240.832 194.736 239.969 195.234C239.274 195.635 238.875 196.128 238.875 196.586C238.875 197.037 239.265 197.524 239.945 197.919C240.802 198.416 242.013 198.703 243.269 198.703Z" fill="#DA0000"/>
<path d="M214.883 214.86C216.233 214.86 217.539 214.552 218.467 214.017C219.212 213.587 219.641 213.058 219.641 212.566C219.642 212.081 219.222 211.558 218.491 211.134C217.571 210.599 216.269 210.292 214.92 210.292C213.572 210.292 212.266 210.599 211.339 211.135C210.592 211.566 210.165 212.095 210.164 212.587C210.164 213.072 210.583 213.594 211.314 214.019C212.234 214.552 213.536 214.86 214.883 214.86Z" fill="#373B42"/>
<path d="M140.582 313.44C141.932 313.44 143.238 313.132 144.166 312.597C144.912 312.167 145.34 311.638 145.34 311.146C145.34 310.661 144.921 310.138 144.19 309.714C143.27 309.179 141.968 308.872 140.62 308.872C139.271 308.872 137.965 309.179 137.038 309.715C136.292 310.146 135.865 310.675 135.863 311.167C135.863 311.652 136.282 312.174 137.013 312.599C137.932 313.132 139.234 313.44 140.582 313.44Z" fill="#373B42"/>
<path d="M358.467 422.032C382.886 407.839 407.305 393.644 431.726 379.451Z" fill="white"/>
<path d="M358.468 422.477C358.315 422.477 358.165 422.397 358.083 422.255C357.959 422.043 358.031 421.769 358.243 421.645L431.502 379.064C431.717 378.94 431.988 379.01 432.112 379.225C432.236 379.437 432.165 379.711 431.953 379.835L358.693 422.416C358.62 422.457 358.543 422.477 358.468 422.477Z" fill="#373B42"/>
<path d="M308.532 451.056C320.385 444.166 332.238 437.278 344.091 430.388Z" fill="white"/>
<path d="M308.532 451.503C308.38 451.503 308.229 451.424 308.147 451.281C308.023 451.069 308.094 450.795 308.307 450.671L343.866 430.002C344.079 429.878 344.353 429.95 344.477 430.165C344.601 430.377 344.529 430.651 344.317 430.775L308.757 451.443C308.685 451.483 308.608 451.503 308.532 451.503Z" fill="#373B42"/>
<path d="M411.013 407.556C422.618 400.811 434.224 394.066 445.829 387.32Z" fill="white"/>
<path d="M411.012 408.002C410.859 408.002 410.708 407.923 410.627 407.78C410.503 407.568 410.575 407.294 410.787 407.17L445.603 386.934C445.815 386.81 446.089 386.88 446.213 387.097C446.337 387.309 446.266 387.583 446.054 387.707L411.237 407.943C411.166 407.983 411.089 408.002 411.012 408.002Z" fill="#373B42"/>
<path d="M322.635 458.926C347.157 444.672 371.678 430.42 396.201 416.166Z" fill="white"/>
<path d="M322.637 459.371C322.484 459.371 322.333 459.292 322.252 459.149C322.128 458.937 322.2 458.663 322.412 458.539L395.977 415.779C396.192 415.655 396.463 415.725 396.587 415.941C396.711 416.153 396.639 416.428 396.427 416.552L322.861 459.31C322.789 459.351 322.712 459.371 322.637 459.371Z" fill="#373B42"/>
<path d="M375.213 444.432C403.453 428.018 431.692 411.603 459.932 395.189Z" fill="white"/>
<path d="M375.213 444.878C375.06 444.878 374.91 444.8 374.828 444.656C374.704 444.444 374.776 444.17 374.988 444.046L459.708 394.804C459.92 394.682 460.194 394.752 460.318 394.967C460.442 395.179 460.37 395.453 460.158 395.577L375.439 444.819C375.366 444.859 375.29 444.878 375.213 444.878Z" fill="#373B42"/>
<path d="M336.739 466.794C344.687 462.174 352.635 457.555 360.581 452.936Z" fill="white"/>
<path d="M336.74 467.239C336.588 467.239 336.437 467.16 336.355 467.017C336.231 466.805 336.302 466.531 336.515 466.407L360.357 452.548C360.569 452.424 360.843 452.495 360.967 452.711C361.091 452.923 361.019 453.197 360.807 453.321L336.965 467.179C336.893 467.219 336.816 467.239 336.74 467.239Z" fill="#373B42"/>
<path d="M448.092 418.137C456.739 413.111 465.388 408.083 474.036 403.057Z" fill="white"/>
<path d="M448.092 418.584C447.939 418.584 447.789 418.504 447.707 418.362C447.583 418.15 447.655 417.876 447.867 417.752L473.81 402.671C474.025 402.549 474.296 402.619 474.42 402.834C474.544 403.046 474.472 403.32 474.26 403.444L448.317 418.524C448.246 418.564 448.169 418.584 448.092 418.584Z" fill="#373B42"/>
<path d="M350.845 474.662C378.455 458.614 406.066 442.565 433.677 426.517Z" fill="white"/>
<path d="M350.845 475.109C350.692 475.109 350.541 475.029 350.46 474.887C350.336 474.675 350.408 474.401 350.62 474.278L433.452 426.132C433.664 426.01 433.938 426.08 434.062 426.295C434.186 426.507 434.115 426.781 433.903 426.905L351.07 475.051C350.997 475.089 350.92 475.109 350.845 475.109Z" fill="#373B42"/>
<defs>
<filter id="filter0_d_399_2444" x="0" y="0" width="648" height="656" filterUnits="userSpaceOnUse" color-interpolation-filters="sRGB">
<feFlood flood-opacity="0" result="BackgroundImageFix"/>
<feColorMatrix in="SourceAlpha" type="matrix" values="0 0 0 0 0 0 0 0 0 0 0 0 0 0 0 0 0 0 127 0" result="hardAlpha"/>
<feOffset dy="4"/>
<feGaussianBlur stdDeviation="2"/>
<feComposite in2="hardAlpha" operator="out"/>
<feColorMatrix type="matrix" values="0 0 0 0 0 0 0 0 0 0 0 0 0 0 0 0 0 0 0.25 0"/>
<feBlend mode="normal" in2="BackgroundImageFix" result="effect1_dropShadow_399_2444"/>
<feBlend mode="normal" in="SourceGraphic" in2="effect1_dropShadow_399_2444" result="shape"/>
</filter>
</defs>
</svg>
