<svg width="648" height="656" viewBox="0 0 648 656" fill="none" xmlns="http://www.w3.org/2000/svg">
<g filter="url(#filter0_d_399_2740)">
<path d="M75.9101 0L644 0.336294V648H4V576.937V71.8492C28.719 47.1121 52.5226 24.3319 75.9101 0Z" fill="white"/>
</g>
<path d="M247.967 515.074C247.813 515.074 247.664 514.995 247.582 514.853C247.459 514.639 247.53 514.367 247.743 514.243L317.356 473.799C318.025 473.411 318.423 472.718 318.422 471.946C318.422 471.175 318.022 470.483 317.352 470.097L247.263 429.641C247.049 429.518 246.977 429.246 247.099 429.032C247.222 428.818 247.498 428.747 247.708 428.869L317.798 469.324C318.745 469.871 319.311 470.851 319.313 471.945C319.315 473.038 318.751 474.02 317.806 474.57L248.191 515.015C248.121 515.056 248.043 515.074 247.967 515.074Z" fill="#DBDEE4"/>
<path d="M253.281 517.546C256.505 515.685 256.523 512.666 253.32 510.804C250.116 508.944 244.903 508.944 241.679 510.806C238.455 512.666 238.44 515.684 241.642 517.546C244.847 519.405 250.057 519.406 253.281 517.546Z" fill="white"/>
<path d="M247.457 519.378C245.268 519.378 243.082 518.895 241.42 517.931C239.734 516.951 238.805 515.621 238.808 514.185C238.809 512.743 239.752 511.406 241.458 510.42C244.8 508.492 250.221 508.489 253.546 510.419C255.232 511.399 256.159 512.729 256.158 514.165C256.157 515.607 255.214 516.946 253.506 517.931C251.835 518.896 249.644 519.378 247.457 519.378ZM247.51 509.851C245.484 509.851 243.452 510.298 241.904 511.193C240.483 512.012 239.7 513.077 239.699 514.188C239.698 515.29 240.467 516.346 241.87 517.16C244.94 518.946 249.961 518.946 253.06 517.161C254.482 516.341 255.265 515.276 255.267 514.165C255.268 513.061 254.497 512.005 253.096 511.193C251.559 510.297 249.536 509.851 247.51 509.851Z" fill="#DBDEE4"/>
<path d="M247.501 512.05C246.244 512.05 245.028 512.336 244.164 512.835C243.47 513.235 243.072 513.728 243.07 514.184C243.07 514.636 243.461 515.123 244.142 515.519C244.999 516.017 246.21 516.302 247.465 516.302C248.721 516.302 249.936 516.017 250.8 515.519C251.495 515.117 251.894 514.626 251.894 514.168C251.894 513.716 251.505 513.231 250.824 512.835C249.968 512.335 248.757 512.05 247.501 512.05Z" fill="#DA0000"/>
<path d="M275.883 495.899C274.533 495.899 273.226 496.207 272.299 496.742C271.554 497.173 271.126 497.7 271.125 498.192C271.125 498.678 271.543 499.199 272.275 499.624C273.196 500.159 274.497 500.466 275.845 500.466C277.194 500.466 278.499 500.159 279.426 499.623C280.173 499.193 280.6 498.664 280.602 498.172C280.603 497.687 280.184 497.166 279.453 496.741C278.531 496.205 277.231 495.899 275.883 495.899Z" fill="#373B42"/>
<path d="M163.694 471.862C162.378 471.862 161.063 471.523 159.887 470.845L103.517 438.298C103.304 438.175 103.232 437.902 103.354 437.689C103.477 437.474 103.754 437.404 103.963 437.525L160.335 470.072C162.415 471.272 164.998 471.268 167.073 470.061L223.06 437.524C223.274 437.399 223.546 437.471 223.669 437.686C223.792 437.899 223.721 438.172 223.508 438.295L167.522 470.832C166.341 471.52 165.017 471.862 163.694 471.862Z" fill="#DBDEE4"/>
<path d="M115.006 437.581C118.23 439.443 118.248 442.462 115.045 444.324C111.842 446.186 106.629 446.185 103.405 444.323C100.181 442.461 100.166 439.443 103.369 437.581C106.572 435.721 111.782 435.72 115.006 437.581Z" fill="white"/>
<path d="M109.235 446.157C107.047 446.157 104.856 445.674 103.184 444.709C101.475 443.725 100.533 442.386 100.531 440.942C100.53 439.508 101.457 438.178 103.145 437.196C106.466 435.268 111.886 435.265 115.228 437.195C116.936 438.182 117.879 439.521 117.88 440.964C117.882 442.4 116.956 443.729 115.269 444.709C113.608 445.674 111.423 446.157 109.235 446.157ZM109.18 436.628C107.154 436.628 105.13 437.075 103.593 437.968C102.191 438.781 101.42 439.838 101.421 440.941C101.423 442.052 102.206 443.116 103.628 443.936C106.723 445.724 111.745 445.724 114.82 443.938C116.22 443.124 116.99 442.07 116.987 440.967C116.986 439.854 116.202 438.788 114.781 437.968C113.236 437.073 111.207 436.628 109.18 436.628Z" fill="#DBDEE4"/>
<path d="M109.225 443.078C107.968 443.078 106.751 442.791 105.887 442.293C105.194 441.893 104.795 441.4 104.795 440.943C104.795 440.492 105.185 440.005 105.866 439.609C106.723 439.11 107.934 438.825 109.19 438.825C110.445 438.825 111.661 439.11 112.525 439.61C113.22 440.012 113.618 440.503 113.618 440.961C113.618 441.414 113.229 441.9 112.548 442.295C111.691 442.792 110.48 443.078 109.225 443.078Z" fill="#DA0000"/>
<path d="M137.604 459.233C136.255 459.233 134.948 458.925 134.021 458.39C133.276 457.959 132.848 457.43 132.847 456.94C132.847 456.454 133.265 455.933 133.997 455.508C134.918 454.973 136.219 454.666 137.567 454.666C138.915 454.666 140.221 454.973 141.148 455.509C141.894 455.94 142.322 456.468 142.323 456.961C142.323 457.447 141.905 457.969 141.174 458.394C140.254 458.927 138.953 459.233 137.604 459.233Z" fill="#373B42"/>
<path d="M386.573 457.725C386.497 457.725 386.42 457.705 386.349 457.665L274.798 392.857C274.585 392.734 274.514 392.46 274.638 392.248C274.759 392.033 275.034 391.963 275.247 392.086L386.798 456.894C387.009 457.017 387.081 457.292 386.958 457.503C386.876 457.646 386.726 457.725 386.573 457.725Z" fill="#DBDEE4"/>
<path d="M378.397 458.641C375.17 456.78 375.152 453.76 378.358 451.899C381.562 450.037 386.78 450.038 390.005 451.9C393.23 453.762 393.247 456.78 390.041 458.641C386.836 460.502 381.622 460.503 378.397 458.641Z" fill="white"/>
<path d="M384.226 460.474C382.036 460.474 379.846 459.993 378.174 459.028C376.463 458.041 375.522 456.702 375.521 455.258C375.519 453.823 376.447 452.494 378.133 451.514C381.46 449.584 386.885 449.586 390.228 451.515C391.936 452.5 392.881 453.838 392.883 455.282C392.885 456.716 391.957 458.046 390.267 459.028C388.602 459.991 386.415 460.474 384.226 460.474ZM378.62 458.257C381.716 460.042 386.741 460.042 389.817 458.255C391.221 457.441 391.993 456.385 391.99 455.282C391.989 454.17 391.206 453.107 389.783 452.288C386.682 450.498 381.658 450.498 378.582 452.286C377.182 453.1 376.411 454.155 376.412 455.257C376.413 456.369 377.197 457.434 378.62 458.257Z" fill="#DBDEE4"/>
<path d="M384.182 453.143C385.44 453.143 386.657 453.429 387.522 453.927C388.217 454.328 388.614 454.82 388.615 455.277C388.615 455.728 388.225 456.216 387.544 456.612C386.687 457.11 385.474 457.395 384.218 457.395C382.961 457.395 381.745 457.108 380.88 456.61C380.185 456.209 379.787 455.716 379.785 455.259C379.785 454.808 380.174 454.321 380.857 453.925C381.713 453.429 382.925 453.143 384.182 453.143Z" fill="#DA0000"/>
<path d="M355.781 436.988C357.132 436.988 358.439 437.296 359.368 437.831C360.114 438.262 360.541 438.791 360.543 439.281C360.543 439.767 360.123 440.288 359.391 440.713C358.471 441.248 357.168 441.555 355.82 441.555C354.47 441.555 353.165 441.248 352.236 440.712C351.49 440.281 351.061 439.753 351.061 439.26C351.059 438.774 351.479 438.252 352.211 437.827C353.131 437.296 354.433 436.988 355.781 436.988Z" fill="#373B42"/>
<path d="M481.513 366.106C481.36 366.106 481.21 366.025 481.127 365.883C481.005 365.67 481.079 365.397 481.291 365.274L546.467 327.637C547.465 327.06 548.059 326.029 548.059 324.877C548.059 323.725 547.465 322.693 546.467 322.117L424.293 251.573C422.421 250.478 420.077 250.481 418.176 251.575L291.367 325.281C291.152 325.402 290.88 325.332 290.758 325.119C290.635 324.906 290.705 324.633 290.918 324.51L417.731 250.802C419.912 249.548 422.599 249.549 424.742 250.804L546.914 321.347C548.191 322.083 548.952 323.405 548.952 324.88C548.952 326.354 548.191 327.675 546.914 328.412L481.738 366.048C481.667 366.086 481.59 366.106 481.513 366.106Z" fill="#DBDEE4"/>
<path d="M260.882 160.248C259.11 159.48 256.916 159.653 254.627 160.97L113.777 242.313C112.915 242.814 112.084 243.441 111.331 244.179C108.808 246.593 106.911 250.105 106.158 253.694C105.814 255.31 105.704 256.939 105.861 258.491L116.855 373.522C117.184 376.798 118.672 379.056 120.773 379.964L110.429 375.418C108.329 374.509 106.839 372.251 106.51 368.976L95.5161 253.945C95.3597 252.393 95.4691 250.763 95.8137 249.149C96.5654 245.559 98.4632 242.047 100.987 239.633C101.74 238.897 102.57 238.27 103.433 237.767L244.283 156.424C246.571 155.107 248.765 154.934 250.537 155.702L260.882 160.248Z" fill="#BEC4CD"/>
<path d="M111.33 244.178C108.807 246.592 106.91 250.104 106.157 253.693L95.8125 249.147C96.5642 245.558 98.462 242.046 100.985 239.632L111.33 244.178Z" fill="#DBDEE4"/>
<g opacity="0.1">
<path d="M121.426 405.21C117.487 407.485 117.466 411.182 121.379 413.457L216.107 468.513C220.021 470.787 226.402 470.787 230.342 468.513L379.92 382.145C383.869 379.863 383.88 376.174 379.967 373.898L285.239 318.842C281.325 316.568 274.955 316.561 271.004 318.842L121.426 405.21Z" fill="black"/>
</g>
<path d="M123.949 381.034C120.009 383.308 119.989 387.004 123.902 389.28L218.63 444.336C222.543 446.61 228.925 446.61 232.864 444.336L382.442 357.968C386.393 355.687 386.402 351.996 382.489 349.722L287.761 294.665C283.848 292.391 277.478 292.384 273.527 294.665L123.949 381.034Z" fill="white"/>
<path d="M225.739 446.481C223.08 446.481 220.425 445.896 218.406 444.722L123.678 389.665C121.649 388.486 120.533 386.889 120.536 385.171C120.538 383.442 121.671 381.835 123.727 380.648L273.305 294.279C277.365 291.932 283.951 291.934 287.986 294.28L382.714 349.336C384.745 350.518 385.863 352.115 385.861 353.831C385.857 355.56 384.723 357.166 382.664 358.353L233.086 444.723C231.057 445.894 228.397 446.481 225.739 446.481ZM124.174 381.421C122.406 382.442 121.43 383.774 121.429 385.172C121.425 386.559 122.386 387.882 124.128 388.894L218.856 443.951C222.642 446.154 228.828 446.154 232.642 443.951L382.22 357.582C383.992 356.559 384.966 355.228 384.971 353.831C384.972 352.445 384.013 351.123 382.266 350.109L287.538 295.051C283.753 292.849 277.567 292.847 273.751 295.05L124.174 381.421Z" fill="#373B42"/>
<path d="M385.463 367.888C385.48 369.386 384.497 370.882 382.501 372.025L232.919 458.401C232.291 458.77 231.598 459.061 230.874 459.302C229.216 459.865 227.332 460.123 225.45 460.091H225.433C223.631 460.059 221.859 459.753 220.314 459.173C219.734 458.947 219.187 458.69 218.687 458.401L123.968 403.355C122.02 402.212 121.039 400.731 121.039 399.235L120.974 385.195C120.99 386.66 121.972 388.141 123.903 389.284L218.622 444.33C219.137 444.636 219.701 444.893 220.313 445.119C221.857 445.699 223.644 446.005 225.432 446.036V446.02C227.316 446.052 229.215 445.794 230.873 445.214C231.582 444.972 232.257 444.683 232.869 444.328L382.451 357.953C384.416 356.826 385.414 355.297 385.414 353.815L385.463 367.888Z" fill="#BEC4CD"/>
<path d="M129.33 406.908C129.085 406.908 128.884 406.709 128.884 406.462V392.44C128.884 392.194 129.085 391.994 129.33 391.994C129.575 391.994 129.775 392.194 129.775 392.44V406.462C129.775 406.709 129.575 406.908 129.33 406.908Z" fill="#373B42"/>
<path d="M239.003 455.337C238.758 455.337 238.558 455.137 238.558 454.891V440.787C238.558 440.54 238.758 440.341 239.003 440.341C239.248 440.341 239.449 440.54 239.449 440.787V454.891C239.449 455.137 239.25 455.337 239.003 455.337Z" fill="#373B42"/>
<path d="M230.874 445.215V459.303C229.216 459.866 227.332 460.124 225.449 460.092H225.432C223.63 460.06 221.858 459.754 220.313 459.174V445.118C221.858 445.698 223.645 446.004 225.432 446.036V446.019C227.316 446.051 229.216 445.794 230.874 445.215Z" fill="#DBDEE4"/>
<path d="M225.783 460.539C225.669 460.539 225.556 460.537 225.441 460.536C222.772 460.483 220.301 459.86 218.464 458.784L123.743 403.74C121.711 402.546 120.592 400.945 120.592 399.232L120.527 385.199V385.195C120.526 384.95 120.724 384.749 120.969 384.748C121.244 384.768 121.415 384.943 121.419 385.189C121.419 385.191 121.419 385.191 121.419 385.192C121.434 386.557 122.397 387.875 124.129 388.899L218.849 443.943C220.564 444.941 222.863 445.524 225.333 445.586C225.367 445.576 225.36 445.564 225.442 445.573C228.179 445.626 230.745 445.043 232.647 443.943L382.229 357.568C383.971 356.568 384.969 355.2 384.969 353.815C384.969 353.57 385.167 353.369 385.414 353.369C385.659 353.369 385.86 353.567 385.86 353.813L385.907 367.884C385.927 369.616 384.794 371.223 382.722 372.41L233.143 458.784C231.194 459.921 228.591 460.539 225.783 460.539ZM121.431 387.726L121.484 399.231C121.484 400.617 122.446 401.944 124.194 402.97L218.914 458.014C220.622 459.017 222.942 459.595 225.443 459.645C228.266 459.694 230.807 459.114 232.696 458.014L382.279 371.639C384.061 370.617 385.032 369.288 385.017 367.893C385.017 367.891 385.017 367.89 385.017 367.889L384.978 356.354C384.437 357.1 383.656 357.778 382.675 358.341L233.096 444.715C231.08 445.881 228.422 446.515 225.539 446.468C225.504 446.477 225.46 446.483 225.427 446.482C222.768 446.43 220.272 445.803 218.402 444.715L123.681 389.67C122.719 389.101 121.963 388.442 121.431 387.726Z" fill="#373B42"/>
<path d="M245.029 390.139C242.406 391.653 242.392 394.106 244.999 395.622L268.383 409.213C270.99 410.727 275.224 410.727 277.847 409.213L321.656 383.917C324.293 382.394 324.307 379.941 321.702 378.427L298.319 364.836C295.713 363.322 291.478 363.322 288.841 364.844L245.029 390.139Z" fill="#DBDEE4"/>
<path d="M235.43 331.794C234.482 332.343 234.485 333.227 235.419 333.77L244.539 339.07C245.481 339.618 247 339.618 247.948 339.07L258.65 332.891C259.598 332.343 259.604 331.464 258.661 330.915L249.541 325.615C248.608 325.072 247.08 325.067 246.132 325.615L235.43 331.794Z" fill="#DBDEE4"/>
<path d="M254.878 320.568C253.929 321.116 253.932 322.001 254.866 322.543L263.986 327.844C264.929 328.392 266.447 328.392 267.395 327.844L278.097 321.664C279.045 321.116 279.05 320.237 278.108 319.689L268.989 314.389C268.056 313.846 266.527 313.84 265.579 314.389L254.878 320.568Z" fill="#DBDEE4"/>
<path d="M292.056 319.645C291.108 320.193 291.111 321.078 292.045 321.62L301.165 326.921C302.107 327.469 303.626 327.469 304.574 326.921L315.276 320.741C316.224 320.193 316.228 319.314 315.287 318.766L306.167 313.466C305.234 312.923 303.706 312.918 302.758 313.466L292.056 319.645Z" fill="#DBDEE4"/>
<path d="M274.324 309.338C273.376 309.887 273.378 310.771 274.313 311.314L283.432 316.614C284.374 317.162 285.893 317.162 286.842 316.614L297.543 310.435C298.492 309.888 298.497 309.008 297.555 308.459L288.435 303.159C287.502 302.616 285.974 302.611 285.026 303.159L274.324 309.338Z" fill="#DBDEE4"/>
<path d="M272.609 330.873C271.661 331.421 271.664 332.305 272.598 332.848L281.717 338.148C282.66 338.696 284.179 338.696 285.127 338.148L295.829 331.969C296.777 331.421 296.782 330.542 295.84 329.994L286.72 324.693C285.787 324.151 284.259 324.145 283.311 324.693L272.609 330.873Z" fill="#DBDEE4"/>
<path d="M270.896 352.409C269.947 352.957 269.952 353.841 270.884 354.384L280.004 359.684C280.937 360.227 282.465 360.233 283.413 359.684L294.115 353.505C295.063 352.957 295.061 352.072 294.126 351.53L285.007 346.229C284.074 345.687 282.546 345.681 281.597 346.229L270.896 352.409Z" fill="#DBDEE4"/>
<path d="M253.164 342.102C252.215 342.65 252.218 343.535 253.153 344.077L262.272 349.378C263.215 349.926 264.733 349.926 265.682 349.378L276.383 343.198C277.332 342.65 277.337 341.771 276.394 341.223L267.275 335.923C266.342 335.38 264.814 335.375 263.865 335.923L253.164 342.102Z" fill="#DBDEE4"/>
<path d="M157.634 376.717C156.694 377.26 156.689 378.15 157.623 378.692L166.743 383.993C167.685 384.541 169.212 384.535 170.152 383.993L180.862 377.809C181.81 377.261 181.814 376.382 180.873 375.834L171.754 370.534C170.821 369.991 169.292 369.987 168.344 370.534L157.634 376.717Z" fill="#DBDEE4"/>
<path d="M138.187 387.945C137.247 388.488 137.241 389.378 138.176 389.92L147.295 395.221C148.238 395.769 149.765 395.763 150.705 395.221L161.415 389.037C162.363 388.489 162.367 387.61 161.426 387.062L152.306 381.762C151.373 381.219 149.845 381.213 148.897 381.762L138.187 387.945Z" fill="#DBDEE4"/>
<path d="M175.369 387.023C174.429 387.566 174.423 388.456 175.357 388.999L184.477 394.299C185.42 394.847 186.947 394.842 187.886 394.299L198.597 388.115C199.545 387.567 199.549 386.688 198.608 386.14L189.488 380.84C188.555 380.297 187.027 380.292 186.079 380.84L175.369 387.023Z" fill="#DBDEE4"/>
<path d="M155.919 398.253C154.979 398.795 154.974 399.685 155.908 400.228L165.028 405.528C165.97 406.077 167.497 406.071 168.437 405.528L179.147 399.345C180.096 398.797 180.101 397.918 179.158 397.37L170.039 392.069C169.106 391.527 167.578 391.521 166.629 392.069L155.919 398.253Z" fill="#DBDEE4"/>
<path d="M177.081 365.488C176.142 366.031 176.136 366.921 177.07 367.463L186.19 372.764C187.131 373.311 188.659 373.306 189.599 372.764L200.309 366.58C201.258 366.032 201.262 365.153 200.32 364.605L191.201 359.305C190.268 358.762 188.74 358.756 187.791 359.305L177.081 365.488Z" fill="#DBDEE4"/>
<path d="M173.652 408.558C172.712 409.101 172.708 409.991 173.641 410.534L182.761 415.834C183.694 416.377 185.23 416.377 186.17 415.834L196.88 409.651C197.828 409.102 197.826 408.218 196.891 407.675L187.772 402.375C186.839 401.832 185.311 401.827 184.362 402.375L173.652 408.558Z" fill="#DBDEE4"/>
<path d="M193.099 397.33C192.16 397.872 192.155 398.763 193.088 399.305L202.208 404.606C203.141 405.148 204.677 405.148 205.617 404.606L216.327 398.422C217.276 397.874 217.273 396.989 216.339 396.447L207.219 391.146C206.286 390.604 204.758 390.598 203.81 391.146L193.099 397.33Z" fill="#DBDEE4"/>
<path d="M212.547 386.101C211.607 386.643 211.603 387.533 212.536 388.076L221.655 393.376C222.588 393.919 224.125 393.919 225.065 393.376L274.668 364.735C275.617 364.186 275.614 363.302 274.679 362.759L265.56 357.459C264.626 356.916 263.099 356.911 262.15 357.459L212.547 386.101Z" fill="#DBDEE4"/>
<path d="M214.261 364.564C213.321 365.107 213.316 365.997 214.25 366.54L223.37 371.84C224.311 372.388 225.839 372.383 226.779 371.84L237.489 365.656C238.437 365.108 238.441 364.229 237.5 363.681L228.381 358.381C227.448 357.838 225.919 357.833 224.971 358.381L214.261 364.564Z" fill="#DBDEE4"/>
<path d="M194.814 375.793C193.874 376.336 193.868 377.226 194.803 377.769L203.922 383.069C204.865 383.617 206.392 383.612 207.332 383.069L218.042 376.885C218.99 376.339 218.996 375.458 218.053 374.91L208.933 369.61C208 369.067 206.472 369.063 205.524 369.61L194.814 375.793Z" fill="#DBDEE4"/>
<path d="M233.716 353.332C232.768 353.878 232.771 354.764 233.705 355.307L242.825 360.607C243.766 361.155 245.286 361.155 246.234 360.607L256.936 354.428C257.884 353.88 257.888 353.001 256.947 352.453L247.828 347.152C246.895 346.61 245.366 346.604 244.418 347.152L233.716 353.332Z" fill="#DBDEE4"/>
<path d="M215.984 343.025C215.036 343.574 215.039 344.458 215.973 345.001L225.092 350.301C226.035 350.849 227.554 350.849 228.502 350.301L239.204 344.122C240.152 343.574 240.157 342.695 239.215 342.146L230.095 336.846C229.162 336.303 227.634 336.299 226.686 336.846L215.984 343.025Z" fill="#DBDEE4"/>
<path d="M196.527 354.259C195.587 354.802 195.581 355.692 196.516 356.234L205.635 361.535C206.578 362.083 208.105 362.077 209.045 361.535L219.755 355.351C220.703 354.803 220.708 353.924 219.766 353.376L210.646 348.076C209.713 347.533 208.185 347.529 207.237 348.076L196.527 354.259Z" fill="#DBDEE4"/>
<path d="M309.789 329.951C308.841 330.499 308.845 331.383 309.778 331.926L318.898 337.226C319.831 337.769 321.359 337.773 322.307 337.226L333.009 331.047C333.957 330.499 333.954 329.614 333.02 329.072L323.9 323.771C322.967 323.229 321.439 323.223 320.491 323.771L309.789 329.951Z" fill="#DBDEE4"/>
<path d="M290.343 341.18C289.395 341.728 289.399 342.613 290.332 343.156L299.451 348.456C300.384 348.999 301.912 349.003 302.861 348.456L313.562 342.277C314.511 341.728 314.508 340.844 313.574 340.301L304.454 335.001C303.521 334.458 301.993 334.453 301.045 335.001L290.343 341.18Z" fill="#DBDEE4"/>
<path d="M120.774 380.409C120.715 380.409 120.654 380.398 120.597 380.373C120.577 380.365 120.558 380.356 120.541 380.348L110.251 375.826C107.928 374.819 106.401 372.339 106.068 369.019L95.0724 253.987C94.9132 252.41 95.017 250.75 95.3783 249.053C96.1563 245.338 98.0887 241.786 100.679 239.309C101.44 238.563 102.293 237.914 103.208 237.381L244.061 156.038C246.382 154.701 248.744 154.438 250.715 155.293L261.057 159.839L261.059 159.84L261.061 159.842C261.285 159.941 261.388 160.203 261.291 160.429C261.191 160.653 260.925 160.755 260.704 160.66C258.997 159.921 256.918 160.168 254.85 161.359L113.999 242.698C113.148 243.195 112.355 243.8 111.643 244.498C109.177 246.856 107.338 250.241 106.596 253.786C106.253 255.393 106.153 256.96 106.306 258.447L117.301 373.479C117.599 376.44 118.908 378.643 120.899 379.533L120.954 379.557C121.178 379.657 121.281 379.919 121.184 380.144C121.11 380.309 120.946 380.409 120.774 380.409ZM248.285 155.692C247.084 155.692 245.791 156.068 244.505 156.809L103.653 238.152C102.804 238.648 102.009 239.251 101.297 239.95C98.8321 242.309 96.9924 245.694 96.2504 249.239C95.9071 250.846 95.8102 252.414 95.9597 253.9L106.955 368.93C107.254 371.916 108.586 374.133 110.607 375.007L118.053 378.28C117.171 377.053 116.602 375.443 116.412 373.565L105.417 258.533C105.258 256.956 105.362 255.296 105.724 253.601C106.502 249.885 108.435 246.333 111.023 243.857C111.785 243.112 112.636 242.461 113.552 241.929L254.404 160.584C255.551 159.923 256.711 159.523 257.827 159.395L250.356 156.111C249.714 155.83 249.015 155.692 248.285 155.692Z" fill="#373B42"/>
<path d="M254.631 160.972C259.625 158.088 264.178 160.653 264.799 166.703L275.79 281.732C276.411 287.78 272.864 295.024 267.87 297.907L127.02 379.248C122.025 382.131 117.472 379.566 116.851 373.517L105.86 258.488C105.238 252.44 108.786 245.196 113.779 242.312L254.631 160.972Z" fill="#373B42"/>
<path d="M123.021 380.879C122.052 380.88 121.13 380.664 120.283 380.232C118.111 379.122 116.734 376.754 116.406 373.563L105.415 258.531C104.779 252.336 108.43 244.887 113.554 241.926L254.406 160.586C256.865 159.165 259.335 158.951 261.363 159.986C263.535 161.098 264.912 163.466 265.242 166.657L276.233 281.689C276.868 287.884 273.218 295.333 268.093 298.294L127.242 379.634C125.809 380.461 124.372 380.879 123.021 380.879ZM254.851 161.357L114 242.697C109.151 245.499 105.697 252.56 106.302 258.442L117.293 373.474C117.588 376.351 118.794 378.469 120.687 379.438C122.436 380.333 124.605 380.124 126.795 378.862L267.646 297.521C272.495 294.719 275.949 287.658 275.344 281.777L264.353 166.744C264.057 163.868 262.852 161.748 260.957 160.781C259.209 159.888 257.043 160.093 254.851 161.357Z" fill="#373B42"/>
<path d="M122.279 369.197C121.096 369.197 120.813 366.78 120.786 366.505L110.541 258.04C110.105 253.786 112.717 248.355 116.13 246.386L256.982 165.045C257.817 164.563 258.372 164.491 258.628 164.491C259.811 164.491 260.094 166.907 260.122 167.182L270.366 275.648C270.803 279.9 268.19 285.332 264.777 287.302L123.925 368.642C123.091 369.125 122.537 369.197 122.279 369.197Z" fill="white"/>
<path d="M122.279 369.643C120.733 369.643 120.392 367.067 120.341 366.55L110.095 258.081C109.645 253.691 112.361 248.045 115.906 245.999L256.757 164.658C257.634 164.15 258.257 164.045 258.626 164.045C260.172 164.045 260.513 166.621 260.564 167.136L270.81 275.606C271.26 279.994 268.544 285.641 264.998 287.687L124.148 369.028C123.272 369.536 122.647 369.643 122.279 369.643ZM258.626 164.936C258.456 164.936 257.974 164.985 257.203 165.431L116.352 246.771C113.072 248.664 110.563 253.907 110.982 257.994L121.228 366.463C121.324 367.411 121.714 368.751 122.279 368.751C122.449 368.751 122.931 368.703 123.702 368.257L264.552 286.916C267.832 285.023 270.341 279.779 269.922 275.693L259.675 167.223C259.58 166.275 259.19 164.936 258.626 164.936Z" fill="#373B42"/>
<path d="M235.086 172.995C235.025 172.995 234.966 172.983 234.906 172.958L224.562 168.412C224.337 168.312 224.235 168.049 224.333 167.824C224.433 167.597 224.696 167.5 224.92 167.595L235.265 172.141C235.489 172.241 235.591 172.504 235.493 172.729C235.42 172.895 235.256 172.995 235.086 172.995Z" fill="#373B42"/>
<path d="M115.663 359.768C115.602 359.768 115.543 359.756 115.483 359.731L105.138 355.185C104.914 355.085 104.81 354.822 104.91 354.597C105.01 354.37 105.27 354.271 105.497 354.368L115.842 358.914C116.066 359.014 116.168 359.277 116.07 359.502C115.998 359.669 115.835 359.768 115.663 359.768Z" fill="#373B42"/>
<path d="M108.026 269.281C107.965 269.281 107.905 269.269 107.846 269.244L96.5915 264.298C96.3673 264.198 96.2635 263.935 96.3631 263.709C96.4628 263.482 96.723 263.385 96.9501 263.481L108.204 268.427C108.428 268.527 108.532 268.79 108.433 269.015C108.361 269.181 108.196 269.281 108.026 269.281Z" fill="#373B42"/>
<path d="M202.378 253.413C199.59 262.158 193.867 270.202 186.819 274.267C179.843 278.296 173.249 277.448 169.049 272.831C171.849 264.086 177.572 256.053 184.62 251.977C191.596 247.948 198.203 248.796 202.378 253.413Z" fill="#DA0000"/>
<path d="M182.728 233.597C186.06 231.673 189.093 233.381 189.505 237.408C189.919 241.443 187.556 246.258 184.224 248.182C180.899 250.102 177.869 248.402 177.454 244.367C177.041 240.34 179.403 235.516 182.728 233.597Z" fill="#DBDEE4"/>
<path d="M178.078 277.307C174.49 277.307 171.242 275.904 168.72 273.13C166.242 270.392 164.684 266.477 164.209 261.809C162.845 248.488 170.687 232.472 181.695 226.106C186.911 223.1 192.125 222.641 196.376 224.816C200.946 227.153 203.846 232.168 204.541 238.936C205.01 243.498 204.406 248.551 202.801 253.546C199.863 262.764 193.973 270.653 187.041 274.652C183.969 276.428 180.915 277.307 178.078 277.307ZM190.641 224.356C187.942 224.356 185.047 225.204 182.14 226.88C171.411 233.086 163.764 248.715 165.097 261.721C165.55 266.199 167.03 269.937 169.38 272.533C173.595 277.17 180.032 277.673 186.596 273.884C193.341 269.993 199.08 262.291 201.952 253.281V253.279C203.522 248.4 204.11 243.472 203.653 239.031C202.992 232.575 200.262 227.81 195.971 225.613C194.332 224.773 192.534 224.356 190.641 224.356Z" fill="#373B42"/>
<path d="M229.897 262.874C231.526 261.933 233.009 262.769 233.21 264.733L234.853 280.74C235.055 282.713 233.9 285.069 232.271 286.011L158.307 328.718C156.685 329.655 155.204 328.819 155 326.847L153.357 310.84C153.155 308.876 154.309 306.519 155.932 305.581L229.897 262.874Z" fill="#DA0000"/>
<path d="M163.307 306.228C163.495 306.118 163.665 306.215 163.689 306.444L164.113 310.574L166.856 306.808C166.907 306.738 166.963 306.687 167.021 306.654C167.139 306.586 167.26 306.594 167.342 306.684L168.311 307.908C168.425 308.047 168.393 308.334 168.246 308.541L165.504 312.317L168.67 312.671C168.841 312.694 168.924 312.914 168.851 313.17L168.227 315.304C168.173 315.477 168.069 315.614 167.953 315.681C167.893 315.715 167.832 315.731 167.771 315.725L164.605 315.371L165.029 319.501C165.052 319.73 164.92 320.001 164.731 320.11L163.131 321.035C162.943 321.144 162.771 321.048 162.749 320.819L162.325 316.688L159.582 320.455C159.529 320.526 159.471 320.58 159.41 320.614C159.293 320.682 159.171 320.675 159.095 320.578L158.126 319.363C158.011 319.216 158.036 318.932 158.191 318.722L160.934 314.955L157.767 314.591C157.589 314.573 157.512 314.348 157.587 314.101L158.211 311.957C158.261 311.791 158.369 311.65 158.49 311.581C158.548 311.547 158.609 311.531 158.667 311.536L161.833 311.891L161.409 307.76C161.386 307.532 161.518 307.26 161.707 307.151L163.307 306.228Z" fill="white"/>
<path d="M178.747 297.31C178.943 297.197 179.114 297.294 179.138 297.522L179.561 301.653L182.305 297.886C182.353 297.818 182.409 297.767 182.467 297.735C182.585 297.667 182.708 297.674 182.784 297.768L183.761 298.988C183.868 299.131 183.843 299.414 183.688 299.625L180.946 303.401L184.111 303.755C184.29 303.773 184.366 303.999 184.3 304.25L183.668 306.39C183.62 306.56 183.513 306.697 183.397 306.763C183.339 306.798 183.277 306.813 183.22 306.806L180.054 306.452L180.478 310.583C180.501 310.811 180.368 311.082 180.172 311.196L178.572 312.121C178.383 312.228 178.212 312.133 178.188 311.905L177.765 307.774L175.021 311.54C174.971 311.61 174.914 311.662 174.855 311.697C174.739 311.763 174.618 311.758 174.542 311.66L173.566 310.448C173.451 310.302 173.483 310.014 173.638 309.803L176.382 306.037L173.215 305.673C173.036 305.655 172.952 305.433 173.026 305.187L173.657 303.038C173.707 302.872 173.815 302.731 173.933 302.663C173.99 302.63 174.049 302.615 174.106 302.622L177.272 302.976L176.848 298.845C176.825 298.617 176.958 298.346 177.146 298.236L178.747 297.31Z" fill="white"/>
<path d="M194.194 288.392C194.382 288.284 194.554 288.38 194.577 288.608L195.001 292.739L197.744 288.972C197.796 288.903 197.852 288.852 197.911 288.818C198.031 288.749 198.154 288.756 198.23 288.85L199.199 290.074C199.313 290.212 199.281 290.5 199.134 290.707L196.392 294.483L199.558 294.837C199.729 294.859 199.813 295.081 199.739 295.337L199.115 297.471C199.066 297.642 198.96 297.779 198.842 297.847C198.783 297.881 198.719 297.898 198.659 297.892L195.494 297.538L195.917 301.669C195.941 301.897 195.808 302.168 195.62 302.278L194.019 303.202C193.831 303.312 193.659 303.215 193.637 302.986L193.214 298.856L190.47 302.622C190.418 302.693 190.359 302.747 190.298 302.781C190.181 302.849 190.059 302.844 189.983 302.745L189.014 301.53C188.899 301.383 188.924 301.1 189.079 300.889L191.823 297.123L188.655 296.758C188.477 296.74 188.401 296.516 188.474 296.269L189.098 294.124C189.148 293.958 189.256 293.817 189.377 293.748C189.435 293.714 189.496 293.698 189.554 293.703L192.72 294.058L192.296 289.927C192.272 289.699 192.405 289.427 192.594 289.318L194.194 288.392Z" fill="white"/>
<path d="M209.634 279.476C209.829 279.363 210.001 279.46 210.024 279.688L210.448 283.819L213.191 280.052C213.24 279.984 213.295 279.933 213.353 279.901C213.471 279.833 213.594 279.84 213.67 279.934L214.648 281.154C214.761 281.293 214.729 281.58 214.574 281.791L211.832 285.567L214.998 285.921C215.176 285.939 215.259 286.16 215.187 286.416L214.555 288.554C214.506 288.725 214.4 288.862 214.283 288.93C214.225 288.963 214.163 288.979 214.106 288.972L210.94 288.618L211.364 292.749C211.388 292.977 211.255 293.248 211.058 293.362L209.458 294.287C209.27 294.395 209.098 294.299 209.076 294.071L208.652 289.94L205.909 293.707C205.859 293.776 205.802 293.828 205.743 293.863C205.626 293.929 205.506 293.924 205.43 293.826L204.454 292.614C204.339 292.468 204.371 292.18 204.526 291.969L207.269 288.203L204.102 287.839C203.924 287.821 203.839 287.601 203.914 287.353L204.545 285.204C204.595 285.038 204.703 284.897 204.821 284.829C204.877 284.796 204.937 284.781 204.994 284.788L208.159 285.142L207.736 281.011C207.712 280.783 207.845 280.512 208.034 280.402L209.634 279.476Z" fill="white"/>
<path d="M225.081 270.557C225.269 270.449 225.44 270.545 225.465 270.773L225.888 274.904L228.632 271.137C228.683 271.068 228.74 271.017 228.798 270.983C228.918 270.914 229.041 270.921 229.118 271.015L230.087 272.239C230.2 272.377 230.168 272.665 230.022 272.872L227.279 276.648L230.445 277.002C230.617 277.024 230.7 277.244 230.626 277.501L230.002 279.635C229.954 279.805 229.847 279.942 229.729 280.01C229.67 280.045 229.606 280.061 229.547 280.056L226.381 279.702L226.804 283.832C226.828 284.061 226.695 284.332 226.507 284.441L224.907 285.366C224.718 285.475 224.548 285.378 224.525 285.15L224.101 281.019L221.357 284.786C221.305 284.857 221.247 284.91 221.187 284.945C221.069 285.013 220.948 285.006 220.872 284.909L219.903 283.694C219.788 283.547 219.813 283.263 219.968 283.053L222.711 279.286L219.544 278.922C219.365 278.904 219.289 278.68 219.363 278.432L219.987 276.288C220.037 276.122 220.145 275.981 220.265 275.911C220.323 275.878 220.384 275.862 220.442 275.867L223.608 276.221L223.185 272.091C223.161 271.862 223.294 271.591 223.482 271.482L225.081 270.557Z" fill="white"/>
<path d="M283.525 224.018C282.376 223.344 280.784 223.444 279.027 224.449L192.213 274.585C191.406 275.049 190.645 275.668 189.937 276.397C188.159 278.22 186.766 280.729 186.203 283.172C186.014 283.957 185.915 284.74 185.915 285.492L186.114 377.08C186.114 379.081 186.832 380.473 187.959 381.136L180.898 377.047C179.771 376.384 179.064 374.98 179.053 372.98L178.854 281.381C178.854 280.64 178.942 279.866 179.13 279.083C179.694 276.641 181.075 274.144 182.865 272.308C183.561 271.579 184.346 270.949 185.152 270.485L271.966 220.36C273.723 219.344 275.315 219.255 276.463 219.907L283.525 224.018Z" fill="#DBDEE4"/>
<path d="M189.936 276.399C188.157 278.222 186.765 280.73 186.201 283.173L179.129 279.084C179.692 276.642 181.074 274.145 182.864 272.31L189.936 276.399Z" fill="#F0F2F5"/>
<path d="M187.958 381.584C187.882 381.584 187.805 381.564 187.735 381.524L180.676 377.435C179.354 376.657 178.619 375.078 178.606 372.986L178.408 281.384C178.408 280.589 178.505 279.781 178.698 278.981C179.279 276.454 180.683 273.909 182.547 271.999C183.277 271.234 184.103 270.577 184.929 270.101L271.745 219.977C273.578 218.915 275.333 218.754 276.684 219.523L283.738 223.627L283.745 223.631L283.751 223.635C283.964 223.76 284.034 224.032 283.911 224.244C283.785 224.457 283.514 224.529 283.302 224.405L283.287 224.396C282.24 223.793 280.809 223.947 279.252 224.838L192.438 274.973C191.694 275.402 190.961 275.987 190.259 276.711C188.533 278.48 187.18 280.933 186.638 283.275C186.455 284.04 186.362 284.785 186.362 285.495L186.56 377.083C186.56 378.833 187.139 380.139 188.187 380.756C188.397 380.881 188.469 381.153 188.346 381.365C188.26 381.505 188.112 381.584 187.958 381.584ZM274.81 219.934C274.014 219.934 273.122 220.206 272.191 220.746L185.375 270.872C184.619 271.308 183.864 271.91 183.188 272.617C181.459 274.391 180.105 276.843 179.565 279.183C179.39 279.919 179.301 280.659 179.301 281.381L179.499 372.981C179.51 374.744 180.087 376.052 181.126 376.663L186.096 379.541C185.814 378.839 185.669 378.01 185.669 377.081L185.471 285.494C185.471 284.713 185.572 283.898 185.77 283.069C186.344 280.578 187.785 277.966 189.618 276.086C190.375 275.304 191.175 274.667 191.991 274.198L278.806 224.063C279.637 223.587 280.448 223.293 281.212 223.185L276.241 220.292C275.816 220.054 275.333 219.934 274.81 219.934Z" fill="#373B42"/>
<path d="M185.948 298.491C185.872 298.491 185.795 298.471 185.725 298.431L178.664 294.344C178.45 294.22 178.379 293.948 178.501 293.734C178.624 293.521 178.901 293.448 179.11 293.572L186.171 297.662C186.386 297.785 186.456 298.057 186.334 298.271C186.251 298.412 186.102 298.491 185.948 298.491Z" fill="#373B42"/>
<path d="M186.103 372.293C186.027 372.293 185.949 372.273 185.879 372.233L178.818 368.133C178.605 368.01 178.534 367.736 178.657 367.524C178.779 367.309 179.053 367.237 179.266 367.362L186.327 371.462C186.541 371.585 186.611 371.859 186.488 372.071C186.406 372.214 186.257 372.293 186.103 372.293Z" fill="#373B42"/>
<path d="M274.354 227.59C274.278 227.59 274.2 227.57 274.131 227.53L267.081 223.442C266.866 223.319 266.796 223.047 266.919 222.833C267.041 222.619 267.316 222.547 267.527 222.671L274.577 226.76C274.791 226.884 274.862 227.156 274.739 227.37C274.657 227.511 274.507 227.59 274.354 227.59Z" fill="#373B42"/>
<path d="M285.371 228.065C285.36 224.059 282.514 222.447 279.028 224.459L192.217 274.586C188.723 276.604 185.903 281.487 185.914 285.494L185.95 298.027L285.407 240.6L285.371 228.065Z" fill="#373B42"/>
<path d="M185.949 298.473C185.872 298.473 185.795 298.453 185.726 298.413C185.589 298.334 185.503 298.186 185.503 298.027L185.467 285.494C185.456 281.349 188.383 276.283 191.992 274.2L278.802 224.074C280.643 223.011 282.393 222.854 283.738 223.627C285.073 224.394 285.809 225.97 285.816 228.063V228.065L285.851 240.598C285.851 240.757 285.765 240.905 285.628 240.984L186.171 298.412C186.102 298.452 186.026 298.473 185.949 298.473ZM281.861 224.035C281.068 224.035 280.181 224.307 279.249 224.844L192.439 274.969C189.076 276.91 186.349 281.63 186.36 285.491L186.394 297.254L284.961 240.34L284.926 228.066C284.921 226.303 284.341 225.001 283.294 224.399C282.872 224.156 282.387 224.035 281.861 224.035Z" fill="#373B42"/>
<path d="M185.949 298.025L186.118 377.086C186.129 381.102 188.967 382.719 192.461 380.702L279.272 330.575C282.758 328.562 285.586 323.674 285.575 319.658L285.406 240.598L185.949 298.025Z" fill="white"/>
<path d="M189.621 382.018C188.941 382.018 188.31 381.857 187.751 381.534C186.416 380.768 185.678 379.187 185.671 377.087L185.504 298.026C185.504 297.867 185.59 297.719 185.727 297.64L285.183 240.212C285.323 240.132 285.489 240.133 285.629 240.211C285.766 240.291 285.852 240.438 285.852 240.597L286.021 319.658C286.032 323.806 283.104 328.877 279.495 330.96L192.685 381.086C191.611 381.706 190.569 382.018 189.621 382.018ZM186.395 298.282L186.563 377.084C186.568 378.853 187.148 380.16 188.195 380.762C189.25 381.37 190.685 381.209 192.238 380.315L279.048 330.189C282.412 328.247 285.139 323.524 285.128 319.659L284.96 241.369L186.395 298.282Z" fill="#373B42"/>
<path d="M219.619 310.229C220.102 309.95 220.508 309.895 220.828 310.086C221.156 310.273 221.312 310.64 221.315 311.195C221.318 312.037 220.945 312.87 220.183 313.696L204.975 330.269L220.227 329.254C220.991 329.207 221.368 329.608 221.369 330.45C221.37 330.997 221.215 331.552 220.89 332.117C220.572 332.668 220.168 333.09 219.684 333.369C219.459 333.5 219.233 333.585 219.006 333.617L202.1 334.654C201.085 334.729 200.577 334.171 200.575 333.007L200.573 332.612C200.57 331.448 201.074 330.314 202.085 329.211L218.941 310.763C219.168 310.533 219.394 310.359 219.619 310.229Z" fill="#DA0000"/>
<path d="M238.571 289.952C239.084 289.656 239.498 289.615 239.826 289.82C240.147 290.02 240.312 290.391 240.313 290.946C240.313 291.072 240.298 291.225 240.276 291.381C240.245 291.542 240.214 291.668 240.191 291.744L229.081 335.909C228.973 336.357 228.78 336.8 228.492 337.226C228.212 337.649 227.862 337.975 227.441 338.219C226.927 338.515 226.514 338.557 226.186 338.362C225.866 338.152 225.7 337.782 225.698 337.226C225.698 337.1 225.713 336.958 225.736 336.792C225.766 336.631 225.79 336.509 225.82 336.429L236.923 292.268C237.04 291.816 237.233 291.381 237.52 290.955C237.799 290.532 238.15 290.196 238.571 289.952Z" fill="#DA0000"/>
<path d="M246.316 294.814C246.574 294.666 246.799 294.58 247.002 294.562L263.906 293.517C264.921 293.452 265.429 294 265.433 295.164L265.434 295.559C265.437 296.723 264.933 297.865 263.923 298.96L247.067 317.418C246.865 317.634 246.639 317.808 246.381 317.957C245.937 318.213 245.54 318.255 245.195 318.086C244.859 317.903 244.687 317.537 244.684 316.991C244.682 316.15 245.062 315.312 245.824 314.477L261.031 297.905L245.779 298.92C245.015 298.975 244.632 298.578 244.629 297.737C244.628 297.182 244.798 296.627 245.131 296.057C245.475 295.48 245.872 295.07 246.316 294.814Z" fill="#DA0000"/>
<path d="M196.409 279.052C197.882 278.202 199.067 278.876 199.071 280.569C199.076 282.247 197.898 284.3 196.426 285.151C194.953 286.001 193.768 285.311 193.764 283.634C193.76 281.941 194.936 279.902 196.409 279.052Z" fill="white"/>
<path d="M207.487 272.653C208.948 271.81 210.145 272.478 210.149 274.17C210.153 275.848 208.964 277.909 207.504 278.752C206.031 279.602 204.846 278.913 204.842 277.235C204.839 275.544 206.016 273.505 207.487 272.653Z" fill="white"/>
<path d="M218.568 266.251C220.031 265.407 221.219 266.082 221.223 267.779C221.227 269.461 220.048 271.52 218.585 272.364C217.109 273.217 215.922 272.525 215.916 270.843C215.912 269.147 217.091 267.104 218.568 266.251Z" fill="white"/>
<path d="M367.302 243.682C366.153 243.008 364.561 243.107 362.804 244.112L275.99 294.249C275.183 294.713 274.422 295.332 273.715 296.061C271.936 297.884 270.543 300.392 269.98 302.836C269.792 303.62 269.692 304.405 269.692 305.157L269.891 396.745C269.891 398.746 270.61 400.138 271.737 400.801L264.675 396.712C263.549 396.049 262.841 394.645 262.83 392.645L262.631 301.046C262.631 300.305 262.719 299.531 262.908 298.748C263.471 296.306 264.853 293.809 266.642 291.973C267.339 291.244 268.122 290.614 268.929 290.15L355.745 240.025C357.501 239.009 359.093 238.92 360.242 239.572L367.302 243.682Z" fill="#DBDEE4"/>
<path d="M273.714 296.061C271.935 297.884 270.543 300.392 269.979 302.835L262.907 298.746C263.471 296.304 264.852 293.807 266.642 291.972L273.714 296.061Z" fill="#F0F2F5"/>
<path d="M271.736 401.246C271.66 401.246 271.582 401.227 271.513 401.187L264.452 397.098C263.129 396.32 262.394 394.74 262.383 392.649L262.185 301.048C262.185 300.256 262.28 299.448 262.472 298.645C263.055 296.117 264.46 293.572 266.324 291.663C267.053 290.899 267.879 290.241 268.706 289.765L355.521 239.641C357.351 238.579 359.105 238.414 360.46 239.185L367.512 243.291C367.516 243.294 367.519 243.295 367.524 243.298L367.526 243.299C367.739 243.424 367.809 243.697 367.686 243.908C367.559 244.122 367.289 244.193 367.077 244.069L367.062 244.059C366.014 243.457 364.584 243.612 363.027 244.502L276.213 294.637C275.469 295.065 274.736 295.651 274.034 296.375C272.306 298.147 270.952 300.599 270.413 302.938C270.23 303.704 270.137 304.449 270.137 305.158L270.336 396.746C270.336 398.499 270.915 399.803 271.963 400.42C272.173 400.545 272.245 400.816 272.122 401.029C272.039 401.166 271.89 401.246 271.736 401.246ZM358.586 239.596C357.791 239.596 356.899 239.869 355.967 240.409L269.152 290.534C268.396 290.969 267.64 291.573 266.964 292.28C265.235 294.052 263.882 296.505 263.34 298.846C263.166 299.583 263.077 300.323 263.077 301.044L263.275 392.642C263.284 394.405 263.862 395.714 264.902 396.325L269.871 399.203C269.592 398.5 269.445 397.671 269.445 396.742L269.246 305.154C269.246 304.374 269.347 303.559 269.546 302.728C270.119 300.241 271.557 297.63 273.396 295.748C274.154 294.964 274.954 294.329 275.768 293.859L362.584 243.724C363.414 243.248 364.226 242.955 364.988 242.848L360.017 239.954C359.595 239.715 359.112 239.596 358.586 239.596Z" fill="#373B42"/>
<path d="M269.725 318.154C269.649 318.154 269.572 318.134 269.502 318.094L262.443 314.005C262.228 313.882 262.157 313.609 262.279 313.396C262.402 313.181 262.678 313.109 262.888 313.234L269.949 317.323C270.164 317.446 270.235 317.719 270.113 317.932C270.028 318.075 269.879 318.154 269.725 318.154Z" fill="#373B42"/>
<path d="M269.881 391.955C269.805 391.955 269.727 391.936 269.657 391.896L262.597 387.795C262.384 387.672 262.313 387.398 262.436 387.186C262.558 386.972 262.83 386.901 263.046 387.024L270.105 391.124C270.318 391.248 270.389 391.522 270.266 391.734C270.184 391.876 270.035 391.955 269.881 391.955Z" fill="#373B42"/>
<path d="M358.131 247.252C358.055 247.252 357.977 247.233 357.908 247.193L350.858 243.105C350.644 242.982 350.573 242.709 350.696 242.496C350.818 242.281 351.093 242.211 351.304 242.334L358.354 246.422C358.569 246.545 358.639 246.818 358.516 247.031C358.434 247.173 358.285 247.252 358.131 247.252Z" fill="#373B42"/>
<path d="M369.147 247.727C369.136 243.721 366.29 242.109 362.804 244.121L275.993 294.247C272.499 296.265 269.679 301.147 269.69 305.155L269.726 317.688L369.183 260.26L369.147 247.727Z" fill="#373B42"/>
<path d="M269.726 318.135C269.65 318.135 269.572 318.115 269.503 318.076C269.366 317.997 269.28 317.849 269.28 317.69L269.244 305.156C269.233 301.012 272.161 295.946 275.77 293.862L362.58 243.737C364.421 242.675 366.169 242.517 367.516 243.29C368.847 244.058 369.587 245.633 369.592 247.728L369.628 260.261C369.628 260.42 369.542 260.568 369.405 260.647L269.949 318.076C269.88 318.115 269.803 318.135 269.726 318.135ZM365.639 243.698C364.846 243.698 363.958 243.969 363.027 244.506L276.217 294.632C272.853 296.573 270.126 301.293 270.137 305.152L270.172 316.916L368.738 260L368.702 247.726V247.725C368.697 245.963 368.119 244.66 367.071 244.059C366.648 243.818 366.165 243.698 365.639 243.698Z" fill="#373B42"/>
<path d="M269.727 317.688L269.895 396.749C269.907 400.765 272.744 402.382 276.238 400.365L363.049 350.238C366.535 348.225 369.363 343.337 369.352 339.322L369.183 260.261L269.727 317.688Z" fill="white"/>
<path d="M273.396 401.681C272.719 401.681 272.086 401.52 271.527 401.198C270.193 400.431 269.455 398.852 269.448 396.75L269.28 317.689C269.28 317.53 269.366 317.382 269.503 317.303L368.96 259.874C369.099 259.794 369.266 259.795 369.405 259.873C369.542 259.953 369.628 260.1 369.628 260.259L369.797 339.32C369.808 343.469 366.881 348.541 363.272 350.624L276.459 400.749C275.388 401.368 274.345 401.681 273.396 401.681ZM270.172 317.946L270.339 396.748C270.345 398.517 270.925 399.823 271.971 400.425C273.029 401.032 274.462 400.875 276.013 399.977L362.826 349.851C366.19 347.909 368.917 343.186 368.906 339.321L368.738 261.032L270.172 317.946Z" fill="#373B42"/>
<path d="M280.187 298.716C281.66 297.866 282.845 298.54 282.849 300.233C282.855 301.911 281.677 303.964 280.204 304.815C278.731 305.665 277.546 304.976 277.542 303.298C277.538 301.605 278.714 299.566 280.187 298.716Z" fill="white"/>
<path d="M291.265 292.317C292.726 291.474 293.922 292.142 293.927 293.834C293.932 295.512 292.742 297.573 291.282 298.416C289.809 299.266 288.624 298.577 288.62 296.899C288.616 295.206 289.793 293.169 291.265 292.317Z" fill="white"/>
<path d="M302.345 285.914C303.808 285.07 304.995 285.745 305 287.442C305.004 289.124 303.824 291.183 302.361 292.027C300.886 292.88 299.698 292.188 299.692 290.506C299.69 288.81 300.869 286.767 302.345 285.914Z" fill="white"/>
<path d="M301.688 330.877L301.76 356.284L298.856 357.96L298.821 346.05L288.138 352.22L288.171 364.13L285.315 365.778L285.243 340.372L288.099 338.723L288.129 349.361L298.813 343.191L298.784 332.553L301.688 330.877Z" fill="#DA0000"/>
<path d="M320.497 320.017L320.505 322.817L313.735 326.726L313.798 349.333L310.918 350.995L310.854 328.39L304.133 332.27L304.125 329.47L320.497 320.017Z" fill="#DA0000"/>
<path d="M343.567 306.696L345.017 331.307L342.235 332.913L341.637 322.092C341.454 318.655 341.245 314.497 341.285 311.299L341.187 311.356C340.433 314.767 339.53 318.461 338.408 322.624L334.552 337.206L332.386 338.457L328.781 328.408C327.713 325.454 326.817 322.685 326.193 320.013L326.119 320.056C326.054 323.267 325.919 327.625 325.733 331.53L325.174 342.763L322.441 344.341L323.92 318.039L327.563 315.935L331.364 326.068C332.285 328.653 333.055 331.014 333.604 333.332L333.702 333.276C334.262 330.402 335.041 327.146 336.017 323.381L339.92 308.799L343.567 306.696Z" fill="#DA0000"/>
<path d="M352.206 301.706L352.271 324.368L361.725 318.91L361.733 321.653L349.424 328.762L349.351 303.355L352.206 301.706Z" fill="#DA0000"/>
<path d="M371.105 378.761C370.86 378.761 370.659 378.562 370.659 378.315V364.626C370.659 364.38 370.86 364.181 371.105 364.181C371.35 364.181 371.551 364.38 371.551 364.626V378.315C371.551 378.562 371.35 378.761 371.105 378.761Z" fill="#373B42"/>
<g opacity="0.1">
<path d="M446.031 508.04C428.215 518.326 428.141 534.998 445.84 545.285C463.539 555.571 492.301 555.571 510.117 545.285C527.932 534.998 528.065 518.315 510.365 508.029C492.665 497.742 463.846 497.753 446.031 508.04Z" fill="black"/>
</g>
<path d="M432.625 506.808L432.679 520.552C432.715 527.253 437.116 533.936 445.919 539.057C453.321 543.351 462.646 545.848 472.292 546.548C476.173 546.836 480.107 546.836 483.97 546.53C493.545 545.812 502.797 543.315 510.181 539.057C519.164 533.864 523.654 527.073 523.636 520.264L523.564 506.556C523.564 513.347 519.072 520.138 510.109 525.312C502.743 529.552 493.509 532.05 483.97 532.786C480.108 533.092 476.174 533.092 472.292 532.804C462.61 532.122 453.269 529.624 445.849 525.312C437.045 520.193 432.643 513.509 432.625 506.808Z" fill="#BEC4CD"/>
<path d="M472.291 532.806V546.55C476.171 546.838 480.105 546.838 483.969 546.532V532.788C480.107 533.093 476.171 533.093 472.291 532.806Z" fill="#DBDEE4"/>
<path d="M478.005 547.191C466.285 547.191 454.581 544.607 445.684 539.438C437.035 534.41 432.261 527.703 432.24 520.549L432.171 506.881C432.171 506.856 432.171 506.831 432.171 506.806V506.805C432.171 506.56 432.369 506.358 432.615 506.357C432.86 506.357 433.061 506.555 433.062 506.8V506.878C433.115 513.674 437.729 520.079 446.063 524.921C463.599 535.113 492.233 535.116 509.892 524.922C518.435 519.989 523.131 513.456 523.113 506.531C523.113 506.53 523.113 506.528 523.113 506.528C523.113 506.283 523.311 506.082 523.557 506.081H523.559C523.804 506.081 524.003 506.279 524.004 506.524L524.074 520.27C524.094 527.533 519.241 534.339 510.409 539.438C501.46 544.607 489.723 547.191 478.005 547.191ZM433.091 512.144L433.133 520.545C433.152 527.371 437.769 533.805 446.134 538.667C463.674 548.86 492.309 548.862 509.964 538.667C518.509 533.733 523.201 527.202 523.182 520.274L523.139 511.809C521.383 517.047 516.987 521.855 510.339 525.695C492.435 536.032 463.401 536.03 445.615 525.693C439.16 521.941 434.865 517.253 433.091 512.144Z" fill="#373B42"/>
<path d="M446.031 488.063C428.215 498.35 428.141 515.022 445.84 525.308C463.539 535.595 492.301 535.595 510.117 525.308C527.932 515.022 528.065 498.339 510.365 488.052C492.665 477.766 463.846 477.777 446.031 488.063Z" fill="white"/>
<path d="M477.936 533.445C466.216 533.445 454.511 530.862 445.615 525.692C436.935 520.648 432.162 513.916 432.17 506.737C432.181 499.517 437.025 492.747 445.806 487.676C463.733 477.326 492.791 477.323 510.588 487.665C519.25 492.7 524.014 499.422 524.003 506.593C523.992 513.828 519.139 520.612 510.337 525.694C501.389 530.861 489.654 533.445 477.936 533.445ZM446.253 488.449C437.758 493.354 433.072 499.849 433.063 506.74C433.055 513.587 437.671 520.044 446.065 524.921C463.601 535.113 492.235 535.116 509.894 524.923C518.41 520.006 523.104 513.495 523.115 506.593C523.126 499.754 518.516 493.305 510.141 488.437C492.592 478.237 463.93 478.245 446.253 488.449Z" fill="#373B42"/>
<path d="M479.396 413.5C495.539 413.5 510.103 417.059 519.946 423.185C528.783 428.685 532.228 435.284 530.528 441.608L509.978 501.723H509.824L509.82 502.219C509.79 506.412 506.827 510.524 501.231 513.758C495.358 517.145 487.494 519.028 479.087 519.028C470.687 519.028 462.855 517.152 457.021 513.759H457.021C451.489 510.549 448.579 506.447 448.587 502.27V502.186L448.56 502.106L427.913 441.739C426.273 435.572 429.525 429.139 437.886 423.709L438.712 423.186C448.642 417.044 463.252 413.5 479.396 413.5Z" fill="url(#paint0_linear_399_2740)" stroke="#F91313"/>
<path d="M404.3 429.065L404.35 446.089C404.35 447.286 405.763 448.299 407.774 448.582L424.016 450.792C424.997 453.02 426.376 455.182 428.205 457.26L421.622 453.436C420.775 452.938 420.325 452.289 420.325 451.624L420.375 468.665C420.375 469.33 420.824 469.978 421.672 470.477L429.934 475.281C430.365 475.531 430.865 475.713 431.413 475.846C432.71 476.162 434.207 476.112 435.469 475.647L449.683 470.56C454.187 472.106 458.992 473.27 463.93 473.984L467.687 483.395C467.952 484.042 468.633 484.592 469.532 484.941C470.248 485.24 471.111 485.389 472.025 485.389H483.777C484.875 485.406 485.905 485.19 486.687 484.775C486.787 484.741 486.886 484.692 486.969 484.642C487.551 484.31 487.966 483.894 488.15 483.411L492.023 473.984C496.978 473.253 501.781 472.123 506.303 470.56L520.467 475.663C520.667 475.73 520.866 475.796 521.082 475.846C521.381 475.913 521.68 475.946 521.995 475.979C523.409 476.129 524.922 475.896 525.985 475.28L534.313 470.459C535.193 469.96 535.659 469.278 535.659 468.597L535.61 451.573C535.61 452.256 535.145 452.92 534.263 453.435L528.262 456.893C529.958 454.931 531.255 452.885 532.185 450.791L548.476 448.58C549.307 448.464 550.039 448.231 550.621 447.898C551.418 447.433 551.918 446.784 551.918 446.086V446.036L551.951 439.237L551.901 422.213L551.868 429.012V429.046C551.868 429.743 551.369 430.391 550.571 430.858C549.989 431.19 549.257 431.424 548.427 431.54L532.135 433.751C530.855 436.627 528.893 439.403 526.201 442.013L526.251 458.056L525.935 458.238C525.07 458.737 523.907 459.004 522.743 459.004V458.971C522.344 458.971 521.946 458.954 521.546 458.904C521.163 458.838 520.765 458.755 520.415 458.622L506.251 453.535C501.73 455.081 496.925 456.21 491.971 456.943L488.098 466.369C487.915 466.851 487.5 467.268 486.917 467.6C486.834 467.65 486.767 467.683 486.684 467.716C485.887 468.132 484.839 468.366 483.726 468.349H471.99C471.092 468.349 470.245 468.2 469.529 467.917C468.599 467.585 467.916 467.019 467.651 466.371L463.877 456.962C458.939 456.23 454.136 455.067 449.63 453.537L435.435 458.608C434.671 458.89 433.822 459.023 432.975 459.007V458.973C432.41 458.973 431.844 458.907 431.329 458.791C430.797 458.674 430.299 458.492 429.882 458.243L429.866 458.226L429.816 442.018C427.173 439.408 425.229 436.631 423.965 433.755L407.723 431.544C405.961 431.312 404.664 430.496 404.365 429.5V429.483C404.316 429.347 404.3 429.215 404.3 429.065Z" fill="#373B42"/>
<path d="M483.89 485.836C483.85 485.836 483.81 485.836 483.768 485.835H472.023C471.033 485.835 470.11 485.667 469.357 485.35C468.324 484.949 467.579 484.313 467.271 483.563L463.608 474.388C458.824 473.681 454.142 472.551 449.684 471.033L435.617 476.067C434.31 476.551 432.735 476.629 431.305 476.281C430.682 476.13 430.159 475.929 429.71 475.669L421.446 470.864C420.467 470.288 419.929 469.507 419.929 468.666L419.879 451.635C419.879 451.634 419.879 451.631 419.879 451.628C419.879 451.627 419.879 451.625 419.879 451.625C419.879 451.38 420.077 451.18 420.325 451.18C420.57 451.18 420.771 451.378 420.771 451.624V451.632C420.775 452.142 421.155 452.646 421.846 453.054L426.344 455.666C425.289 454.233 424.406 452.74 423.708 451.203L407.711 449.026C405.433 448.705 403.902 447.525 403.902 446.091L403.854 429.079C403.854 429.074 403.854 429.072 403.854 429.068V429.066C403.854 428.821 404.051 428.619 404.299 428.619C404.544 428.619 404.745 428.817 404.745 429.065V429.076C404.745 429.182 404.757 429.256 404.781 429.321C404.793 429.35 404.8 429.38 404.806 429.411C405.083 430.225 406.269 430.9 407.782 431.1L424.024 433.312C424.177 433.332 424.307 433.432 424.37 433.573C425.629 436.436 427.566 439.168 430.127 441.698C430.21 441.781 430.26 441.894 430.26 442.013L430.31 457.981C430.591 458.118 430.989 458.259 431.423 458.354C431.921 458.468 432.455 458.527 432.973 458.527C433.034 458.527 433.092 458.54 433.146 458.562C433.893 458.558 434.626 458.432 435.278 458.19L449.48 453.118C449.574 453.083 449.678 453.082 449.772 453.115C454.3 454.653 459.066 455.799 463.94 456.522C464.097 456.544 464.23 456.649 464.289 456.796L468.063 466.206C468.28 466.737 468.87 467.21 469.677 467.499C470.354 467.766 471.148 467.904 471.988 467.904H483.723C484.737 467.942 485.729 467.713 486.476 467.323C486.577 467.28 486.624 467.257 486.685 467.221C487.197 466.927 487.539 466.581 487.678 466.214L491.555 456.776C491.616 456.631 491.746 456.529 491.904 456.505C496.915 455.766 501.692 454.627 506.104 453.116C506.2 453.083 506.306 453.084 506.4 453.118L520.565 458.205C520.898 458.334 521.286 458.41 521.62 458.469C521.978 458.512 522.36 458.529 522.74 458.529C522.796 458.529 522.853 458.54 522.903 458.561C523.955 458.536 524.97 458.284 525.709 457.857L525.802 457.805L525.752 442.02C525.752 441.898 525.8 441.782 525.887 441.698C528.479 439.186 530.443 436.454 531.725 433.575C531.787 433.433 531.92 433.335 532.074 433.314L548.365 431.104C549.132 430.996 549.817 430.778 550.347 430.477C551.028 430.079 551.42 429.559 551.42 429.051L551.453 422.217C551.455 421.972 551.654 421.772 551.899 421.772C552.144 421.772 552.345 421.972 552.345 422.217L552.393 439.241L552.36 446.043C552.36 446.925 551.808 447.725 550.843 448.287C550.203 448.652 549.431 448.9 548.537 449.026L532.488 451.203C531.836 452.626 531.022 454.013 530.057 455.346L534.038 453.051C534.761 452.628 535.161 452.104 535.161 451.576C535.161 451.331 535.359 451.13 535.606 451.13C535.851 451.13 536.052 451.328 536.052 451.574L536.101 468.598C536.101 469.463 535.527 470.283 534.528 470.849L526.203 475.667C525.101 476.307 523.506 476.591 521.944 476.423C521.611 476.389 521.294 476.353 520.98 476.282C520.752 476.229 520.544 476.162 520.337 476.092L506.296 471.033C501.973 472.515 497.277 473.644 492.337 474.388L488.559 483.581C488.346 484.139 487.885 484.629 487.188 485.028C487.08 485.094 486.947 485.156 486.825 485.197C486.079 485.601 485.02 485.836 483.89 485.836ZM449.681 470.115C449.729 470.115 449.778 470.123 449.825 470.14C454.354 471.693 459.12 472.838 463.991 473.544C464.148 473.566 464.282 473.673 464.342 473.819L468.099 483.23C468.308 483.74 468.889 484.214 469.692 484.525C470.348 484.801 471.151 484.945 472.024 484.945H483.777C484.815 484.974 485.765 484.759 486.476 484.381C486.603 484.331 486.674 484.298 486.735 484.261C487.25 483.966 487.592 483.62 487.732 483.254L491.609 473.815C491.67 473.67 491.8 473.567 491.958 473.544C496.994 472.801 501.772 471.656 506.155 470.14C506.25 470.107 506.357 470.108 506.452 470.141L520.615 475.245C520.799 475.307 520.98 475.367 521.18 475.413C521.461 475.475 521.742 475.505 522.041 475.537C523.416 475.683 524.812 475.445 525.76 474.896L534.088 470.075C534.803 469.671 535.212 469.132 535.212 468.599L535.169 453.335C534.972 453.509 534.745 453.673 534.488 453.822L528.484 457.282C528.296 457.39 528.058 457.348 527.918 457.179C527.778 457.012 527.782 456.768 527.924 456.603C529.55 454.719 530.847 452.705 531.777 450.612C531.84 450.471 531.973 450.373 532.126 450.352L548.418 448.141C549.185 448.033 549.87 447.816 550.4 447.514C551.08 447.118 551.471 446.598 551.471 446.09L551.505 439.238L551.48 430.745C551.283 430.928 551.055 431.095 550.794 431.246C550.155 431.612 549.383 431.86 548.488 431.984L532.439 434.162C531.132 437.01 529.186 439.715 526.645 442.203L526.694 458.057C526.694 458.217 526.611 458.364 526.472 458.444L526.156 458.627C525.246 459.152 524.002 459.452 522.741 459.452C522.68 459.452 522.622 459.44 522.571 459.418C522.173 459.412 521.82 459.39 521.49 459.348C521.092 459.279 520.653 459.192 520.256 459.04L506.246 454.008C501.897 455.485 497.204 456.607 492.287 457.348L488.51 466.541C488.296 467.102 487.834 467.592 487.139 467.989C487.042 468.048 486.956 468.09 486.848 468.133C486.014 468.57 484.906 468.817 483.719 468.796H471.991C471.04 468.796 470.133 468.635 469.367 468.332C468.335 467.964 467.556 467.311 467.239 466.542L463.558 457.366C458.773 456.642 454.091 455.512 449.635 454.011L435.584 459.029C434.788 459.323 433.889 459.47 432.966 459.454C432.906 459.452 432.852 459.44 432.8 459.419C432.272 459.406 431.733 459.341 431.229 459.226C430.629 459.096 430.099 458.893 429.652 458.626C429.617 458.605 429.584 458.58 429.557 458.55C429.478 458.467 429.419 458.342 429.419 458.228L429.37 442.204C426.861 439.7 424.941 436.997 423.657 434.164L407.662 431.987C406.442 431.826 405.426 431.408 404.749 430.821L404.792 446.091C404.792 447.032 406.071 447.895 407.833 448.144L424.073 450.355C424.227 450.376 424.357 450.475 424.42 450.616C425.4 452.841 426.785 454.978 428.535 456.969C428.679 457.132 428.683 457.377 428.546 457.546C428.406 457.715 428.168 457.756 427.977 457.648L421.394 453.825C421.162 453.688 420.955 453.54 420.773 453.382L420.819 468.666C420.819 469.181 421.201 469.687 421.895 470.096L430.155 474.898C430.53 475.115 430.973 475.284 431.513 475.415C432.756 475.72 434.176 475.649 435.31 475.231L449.529 470.143C449.58 470.123 449.63 470.115 449.681 470.115Z" fill="#373B42"/>
<path d="M420.591 399.641L420.641 416.681C420.641 417.146 420.857 417.612 421.306 418.044L430.05 426.241L430 409.2L421.255 401.004C420.807 400.589 420.591 400.106 420.591 399.641Z" fill="#373B42"/>
<path d="M430.051 426.685C429.938 426.685 429.829 426.644 429.746 426.565L421.002 418.369C420.471 417.859 420.196 417.276 420.196 416.68L420.147 399.648C420.147 399.646 420.147 399.644 420.147 399.641V399.639C420.147 399.394 420.345 399.192 420.593 399.192C420.838 399.192 421.039 399.39 421.039 399.637V399.645C421.04 400.004 421.222 400.359 421.559 400.675L430.305 408.871C430.395 408.956 430.446 409.072 430.446 409.195L430.496 426.235C430.496 426.414 430.391 426.575 430.228 426.645C430.171 426.673 430.111 426.685 430.051 426.685ZM421.043 401.416L421.086 416.678C421.086 417.033 421.263 417.384 421.616 417.722L429.602 425.208L429.555 409.393L421.043 401.416Z" fill="#373B42"/>
<path d="M526.385 409.216L526.435 426.256L535.262 418.043C535.727 417.611 535.943 417.128 535.943 416.647L535.893 399.623C535.893 400.088 535.677 400.571 535.212 401.003L526.385 409.216Z" fill="#373B42"/>
<path d="M526.433 426.702C526.374 426.702 526.313 426.689 526.256 426.666C526.094 426.595 525.987 426.434 525.987 426.259L525.938 409.218C525.938 409.094 525.987 408.975 526.08 408.89L534.909 400.679C535.261 400.351 535.447 399.987 535.447 399.625C535.447 399.38 535.645 399.18 535.893 399.18C536.138 399.18 536.339 399.378 536.339 399.624L536.389 416.648C536.389 417.273 536.104 417.87 535.564 418.372L526.738 426.585C526.653 426.66 526.542 426.702 526.433 426.702ZM526.829 409.408L526.876 425.234L534.957 417.716C535.316 417.383 535.497 417.023 535.497 416.646L535.452 401.388L526.829 409.408Z" fill="#373B42"/>
<path d="M453.372 425.674L453.427 442.698C453.416 439.01 455.847 435.32 460.713 432.511C470.407 426.913 486.068 426.913 495.699 432.511C500.483 435.292 502.879 438.93 502.889 442.573L502.833 425.55C502.824 421.906 500.427 418.269 495.643 415.488C486.012 409.89 470.351 409.89 460.657 415.488C455.793 418.296 453.361 421.987 453.372 425.674Z" fill="#373B42"/>
<path d="M453.428 443.146C453.183 443.146 452.982 442.948 452.982 442.702L452.927 425.678C452.914 421.662 455.58 417.905 460.435 415.104C470.233 409.445 486.127 409.445 495.869 415.104C500.635 417.875 503.268 421.585 503.279 425.552L503.335 442.574C503.335 442.576 503.335 442.574 503.335 442.576C503.335 442.821 503.137 443.021 502.89 443.023H502.889C502.644 443.023 502.443 442.825 502.443 442.578V442.576C502.431 438.941 499.956 435.503 495.474 432.9C485.986 427.383 470.49 427.383 460.936 432.898C456.371 435.534 453.864 439.015 453.874 442.699C453.874 442.697 453.874 442.7 453.874 442.699C453.874 442.944 453.676 443.146 453.429 443.147L453.428 443.146ZM453.818 425.674L453.861 438.763C455.013 436.266 457.269 433.986 460.49 432.127C470.288 426.468 486.184 426.47 495.923 432.129C499.067 433.956 501.285 436.191 502.432 438.64L502.389 425.556C502.378 421.92 499.905 418.481 495.421 415.877C485.929 410.36 470.432 410.364 460.881 415.877C456.315 418.51 453.807 421.99 453.818 425.674Z" fill="#373B42"/>
<path d="M429.822 442.018C427.177 439.399 425.236 436.636 423.96 433.753L407.728 431.541C405.697 431.265 404.278 430.22 404.303 429.02L404.342 422.219C404.324 421.509 404.814 420.853 405.633 420.379C406.212 420.046 406.953 419.803 407.794 419.698L424.032 417.475C425.34 414.614 427.332 411.818 430.006 409.199L421.256 401C420.16 399.966 420.453 398.634 421.921 397.787L430.25 392.978C431.717 392.131 434.016 391.964 435.799 392.604L449.924 397.699C454.455 396.159 459.268 395.025 464.231 394.267L468.12 384.867C468.304 384.38 468.724 383.951 469.303 383.617C470.122 383.144 471.257 382.863 472.482 382.875H484.223C486.294 382.864 488.095 383.689 488.544 384.878L492.328 394.278C497.283 395.038 502.064 396.16 506.577 397.701L520.797 392.628C522.568 391.978 524.846 392.132 526.323 392.992L534.579 397.789C536.056 398.648 536.315 399.968 535.207 401.004L526.384 409.214C529.029 411.833 530.989 414.628 532.246 417.479L548.459 419.702C550.509 419.967 551.928 421.012 551.903 422.212L551.864 429.013C551.882 429.727 551.385 430.387 550.562 430.862C549.988 431.193 549.256 431.435 548.43 431.543L532.136 433.755C530.847 436.628 528.894 439.402 526.2 442.01L534.95 450.231C536.046 451.265 535.733 452.586 534.266 453.433L525.937 458.242C524.47 459.089 522.188 459.266 520.407 458.626L506.243 453.531C501.732 455.083 496.919 456.216 491.975 456.942L488.104 466.373C487.914 466.852 487.494 467.274 486.921 467.605C486.098 468.081 484.956 468.366 483.724 468.354H471.982C469.912 468.365 468.111 467.54 467.643 466.362L463.878 456.951C458.943 456.225 454.142 455.069 449.629 453.528L435.428 458.613C433.64 459.251 431.36 459.097 429.883 458.237L421.627 453.44C420.15 452.581 419.891 451.261 421.018 450.236L429.822 442.018ZM495.53 435.754C505.224 430.156 505.275 421.085 495.644 415.487C486.012 409.889 470.352 409.889 460.658 415.487C450.986 421.071 450.935 430.144 460.565 435.742C470.197 441.338 485.857 441.338 495.53 435.754Z" fill="white"/>
<path d="M483.806 468.801C483.779 468.801 483.75 468.8 483.719 468.8H471.982C471.968 468.8 471.954 468.8 471.94 468.8C469.697 468.8 467.764 467.868 467.23 466.526L463.56 457.355C458.751 456.632 454.068 455.504 449.633 454.001L435.579 459.033C433.677 459.712 431.242 459.546 429.658 458.624L421.401 453.826C420.504 453.303 419.964 452.593 419.884 451.822C419.81 451.141 420.108 450.461 420.719 449.908L429.181 442.006C426.766 439.549 424.909 436.913 423.655 434.16L407.666 431.981C405.395 431.674 403.828 430.452 403.857 429.011L403.896 422.215C403.875 421.375 404.427 420.56 405.411 419.992C406.058 419.62 406.862 419.365 407.74 419.256L423.731 417.067C425.026 414.306 426.92 411.665 429.363 409.209L420.951 401.327C420.363 400.772 420.082 400.092 420.161 399.414C420.251 398.636 420.796 397.922 421.697 397.402L430.028 392.594C431.618 391.674 434.056 391.507 435.95 392.185L449.931 397.229C454.252 395.769 458.956 394.638 463.916 393.866L467.709 384.699C467.922 384.14 468.397 383.629 469.081 383.233C469.997 382.703 471.179 382.433 472.487 382.432H484.224C484.238 382.432 484.252 382.432 484.266 382.432C486.521 382.432 488.451 383.37 488.961 384.724L492.649 393.878C497.61 394.652 502.295 395.78 506.575 397.231L520.65 392.21C522.527 391.521 524.955 391.683 526.551 392.607L534.807 397.405C535.7 397.924 536.239 398.636 536.327 399.405C536.403 400.085 536.116 400.77 535.515 401.331L527.027 409.228C529.451 411.694 531.31 414.331 532.555 417.073L548.522 419.263C550.806 419.556 552.381 420.774 552.35 422.224L552.311 429.018C552.333 429.859 551.778 430.679 550.785 431.252C550.147 431.62 549.354 431.875 548.487 431.988L532.44 434.167C531.156 436.949 529.275 439.584 526.844 442.005L535.257 449.909C535.839 450.46 536.119 451.133 536.04 451.805C535.947 452.583 535.398 453.299 534.49 453.822L526.162 458.631C524.569 459.553 522.142 459.725 520.258 459.051L506.241 454.008C501.904 455.489 497.214 456.613 492.292 457.351L488.516 466.548C488.294 467.104 487.819 467.607 487.144 467.997C486.241 468.515 485.058 468.801 483.806 468.801ZM471.981 467.908H483.725C484.857 467.928 485.92 467.67 486.699 467.219C487.199 466.93 487.542 466.58 487.691 466.209L491.564 456.772C491.625 456.625 491.755 456.523 491.913 456.499C496.928 455.763 501.702 454.622 506.101 453.108C506.198 453.075 506.303 453.076 506.398 453.109L520.56 458.205C522.184 458.786 524.353 458.638 525.716 457.853L534.044 453.044C534.703 452.665 535.096 452.185 535.153 451.693C535.211 451.2 534.909 450.799 534.645 450.551L525.895 442.331C525.806 442.248 525.755 442.132 525.754 442.01C525.752 441.888 525.802 441.771 525.889 441.686C528.468 439.191 530.434 436.459 531.73 433.57C531.795 433.431 531.925 433.332 532.078 433.312L548.371 431.1C549.121 431.001 549.801 430.785 550.34 430.474C551.04 430.07 551.433 429.541 551.419 429.022L551.458 422.206C551.479 421.237 550.196 420.371 548.403 420.14L532.186 417.916C532.033 417.895 531.903 417.795 531.84 417.654C530.586 414.809 528.647 412.076 526.072 409.527C525.985 409.441 525.938 409.325 525.939 409.203C525.941 409.083 525.993 408.967 526.082 408.883L534.906 400.673C535.18 400.417 535.497 400.005 535.441 399.501C535.385 399.018 535.001 398.546 534.355 398.172L526.1 393.374C524.72 392.573 522.603 392.438 520.952 393.045L506.726 398.119C506.629 398.154 506.525 398.154 506.431 398.122C502.088 396.64 497.321 395.495 492.259 394.717C492.104 394.693 491.972 394.588 491.914 394.443L488.129 385.045C487.745 384.032 486.088 383.331 484.223 383.32H472.479C471.384 383.301 470.292 383.557 469.524 384.003C469.02 384.293 468.679 384.648 468.534 385.024L464.64 394.436C464.579 394.58 464.449 394.682 464.295 394.706C459.237 395.48 454.452 396.629 450.065 398.121C449.972 398.154 449.867 398.153 449.77 398.118L435.644 393.023C434.003 392.434 431.827 392.58 430.469 393.363L422.139 398.172C421.49 398.549 421.099 399.025 421.044 399.516C420.984 400.017 421.292 400.424 421.559 400.675L430.307 408.874C430.396 408.957 430.447 409.073 430.449 409.195C430.45 409.317 430.401 409.433 430.314 409.519C427.723 412.056 425.745 414.796 424.435 417.663C424.37 417.801 424.241 417.898 424.091 417.919L407.853 420.14C407.086 420.237 406.397 420.453 405.854 420.766C405.161 421.165 404.773 421.689 404.786 422.207L404.747 429.023C404.728 429.987 406.004 430.859 407.784 431.1L424.017 433.312C424.171 433.332 424.301 433.431 424.363 433.573C425.627 436.43 427.569 439.164 430.132 441.702C430.219 441.787 430.266 441.904 430.264 442.024C430.263 442.146 430.212 442.261 430.123 442.344L421.319 450.564C421.036 450.821 420.713 451.228 420.767 451.729C420.817 452.21 421.2 452.68 421.847 453.055L430.104 457.853C431.474 458.651 433.603 458.789 435.275 458.194L449.477 453.109C449.571 453.075 449.673 453.073 449.771 453.107C454.277 454.646 459.043 455.791 463.941 456.51C464.097 456.534 464.231 456.639 464.291 456.786L468.056 466.195C468.452 467.19 470.081 467.907 471.942 467.907C471.956 467.908 471.968 467.908 471.981 467.908ZM478.044 440.375C471.626 440.375 465.213 438.959 460.34 436.127C455.555 433.345 452.921 429.62 452.926 425.637C452.932 421.635 455.598 417.894 460.434 415.102C470.232 409.443 486.126 409.443 495.869 415.102C500.653 417.883 503.284 421.606 503.279 425.586C503.273 429.592 500.6 433.341 495.751 436.14C490.862 438.963 484.449 440.375 478.044 440.375ZM478.174 411.736C471.918 411.736 465.657 413.115 460.88 415.874C456.331 418.5 453.823 421.969 453.818 425.639C453.812 429.29 456.287 432.74 460.789 435.356C470.279 440.872 485.766 440.877 495.305 435.369C499.867 432.734 502.382 429.26 502.387 425.585C502.393 421.937 499.918 418.488 495.419 415.874C490.675 413.117 484.426 411.736 478.174 411.736Z" fill="#373B42"/>
<g opacity="0.1">
<path d="M453.23 278.215C434.473 289.045 434.375 306.612 453.018 317.448C471.661 328.282 501.977 328.278 520.733 317.448C539.498 306.613 539.615 289.046 520.971 278.211C502.327 267.375 471.993 267.379 453.23 278.215Z" fill="black"/>
</g>
<path d="M534.892 291.234C534.907 298.381 530.196 305.542 520.742 310.988C513.424 315.216 504.36 317.79 494.906 318.71C489.664 319.241 484.297 319.241 479.055 318.742C469.506 317.837 460.364 315.247 453.032 310.988C443.764 305.604 439.131 298.568 439.116 291.515L439.084 274.15C439.099 281.218 443.734 288.255 453 293.637C460.348 297.912 469.506 300.503 479.055 301.392C484.297 301.892 489.664 301.892 494.906 301.361C504.345 300.441 513.409 297.851 520.71 293.637C530.149 288.208 534.86 281.061 534.86 273.9L534.892 291.234Z" fill="#BEC4CD"/>
<path d="M494.906 301.361V318.712C489.664 319.242 484.297 319.242 479.055 318.744V301.393C484.297 301.891 489.665 301.892 494.906 301.361Z" fill="#DBDEE4"/>
<path d="M486.841 319.543C474.496 319.543 462.171 316.822 452.805 311.379C443.706 306.091 438.685 299.036 438.665 291.511L438.633 274.158C438.633 273.911 438.832 273.711 439.077 273.709C439.322 273.709 439.524 273.907 439.524 274.153C439.544 281.347 444.408 288.13 453.222 293.252C471.706 303.995 501.88 303.994 520.49 293.252C529.478 288.063 534.421 281.19 534.414 273.9V273.875C534.414 273.629 534.612 273.428 534.859 273.427C534.86 273.427 534.86 273.427 534.86 273.427C535.105 273.427 535.306 273.625 535.306 273.871C535.306 273.881 535.306 273.89 535.306 273.9L535.337 291.224C535.36 298.856 530.257 306.012 520.967 311.375C511.542 316.822 499.182 319.543 486.841 319.543ZM439.535 279.583L439.556 291.508C439.575 298.702 444.44 305.485 453.253 310.607C471.737 321.35 501.912 321.348 520.522 310.607C529.522 305.409 534.467 298.528 534.446 291.228L534.425 279.342C532.595 284.883 527.963 289.969 520.937 294.026C502.082 304.912 471.504 304.91 452.773 294.026C445.904 290.032 441.358 285.032 439.535 279.583Z" fill="#373B42"/>
<path d="M453.208 254.408C434.452 265.239 434.353 282.805 452.997 293.641C471.64 304.477 501.955 304.472 520.712 293.641C539.477 282.807 539.593 265.239 520.95 254.404C502.307 243.568 471.973 243.572 453.208 254.408Z" fill="white"/>
<path d="M486.809 302.191C474.464 302.193 462.139 299.47 452.773 294.027C443.644 288.72 438.623 281.639 438.633 274.088C438.644 266.487 443.741 259.359 452.988 254.022C471.851 243.13 502.44 243.127 521.175 254.017C530.297 259.319 535.317 266.397 535.307 273.945C535.296 281.551 530.194 288.682 520.937 294.027C511.51 299.468 499.15 302.191 486.809 302.191ZM487.133 246.729C474.945 246.729 462.744 249.416 453.433 254.793C444.474 259.966 439.535 266.819 439.524 274.088C439.513 281.308 444.379 288.115 453.222 293.254C471.706 303.998 501.88 303.996 520.49 293.254C529.458 288.075 534.403 281.217 534.414 273.943C534.425 266.726 529.562 259.924 520.725 254.789C511.485 249.416 499.316 246.729 487.133 246.729Z" fill="#373B42"/>
<path d="M534.892 291.234C534.907 298.381 530.196 305.542 520.742 310.988C513.424 315.216 504.36 317.79 494.906 318.71C489.664 319.241 484.297 319.241 479.055 318.742C469.506 317.837 460.364 315.247 453.032 310.988C443.764 305.604 439.131 298.568 439.116 291.515L439.084 274.15C439.099 281.218 443.734 288.255 453 293.637C460.348 297.912 469.506 300.503 479.055 301.392C484.297 301.892 489.664 301.892 494.906 301.361C504.345 300.441 513.409 297.851 520.71 293.637C530.149 288.208 534.86 281.061 534.86 273.9L534.892 291.234Z" fill="#BEC4CD"/>
<path d="M494.906 301.361V318.712C489.664 319.242 484.297 319.242 479.055 318.744V301.393C484.297 301.891 489.665 301.892 494.906 301.361Z" fill="#DBDEE4"/>
<path d="M486.841 319.543C474.496 319.543 462.171 316.822 452.805 311.379C443.706 306.091 438.685 299.036 438.665 291.511L438.633 274.158C438.633 273.911 438.832 273.711 439.077 273.709C439.322 273.709 439.524 273.907 439.524 274.153C439.544 281.347 444.408 288.13 453.222 293.252C471.706 303.995 501.88 303.994 520.49 293.252C529.478 288.063 534.421 281.19 534.414 273.9V273.875C534.414 273.629 534.612 273.428 534.859 273.427C534.86 273.427 534.86 273.427 534.86 273.427C535.105 273.427 535.306 273.625 535.306 273.871C535.306 273.881 535.306 273.89 535.306 273.9L535.337 291.224C535.36 298.856 530.257 306.012 520.967 311.375C511.542 316.822 499.182 319.543 486.841 319.543ZM439.535 279.583L439.556 291.508C439.575 298.702 444.44 305.485 453.253 310.607C471.737 321.35 501.912 321.348 520.522 310.607C529.522 305.409 534.467 298.528 534.446 291.228L534.425 279.342C532.595 284.883 527.963 289.969 520.937 294.026C502.082 304.912 471.504 304.91 452.773 294.026C445.904 290.032 441.358 285.032 439.535 279.583Z" fill="#373B42"/>
<path d="M453.208 254.408C434.452 265.239 434.353 282.805 452.997 293.641C471.64 304.477 501.955 304.472 520.712 293.641C539.477 282.807 539.593 265.239 520.95 254.404C502.307 243.568 471.973 243.572 453.208 254.408Z" fill="white"/>
<path d="M486.809 302.191C474.464 302.193 462.139 299.47 452.773 294.027C443.644 288.72 438.623 281.639 438.633 274.088C438.644 266.487 443.741 259.359 452.988 254.022C471.851 243.13 502.44 243.127 521.175 254.017C530.297 259.319 535.317 266.397 535.307 273.945C535.296 281.551 530.194 288.682 520.937 294.027C511.51 299.468 499.15 302.191 486.809 302.191ZM487.133 246.729C474.945 246.729 462.744 249.416 453.433 254.793C444.474 259.966 439.535 266.819 439.524 274.088C439.513 281.308 444.379 288.115 453.222 293.254C471.706 303.998 501.88 303.996 520.49 293.254C529.458 288.075 534.403 281.217 534.414 273.943C534.425 266.726 529.562 259.924 520.725 254.789C511.485 249.416 499.316 246.729 487.133 246.729Z" fill="#373B42"/>
<path d="M534.892 291.234C534.907 298.381 530.196 305.542 520.742 310.988C513.424 315.216 504.36 317.79 494.906 318.71C489.664 319.241 484.297 319.241 479.055 318.742C469.506 317.837 460.364 315.247 453.032 310.988C443.764 305.604 439.131 298.568 439.116 291.515L439.084 274.15C439.099 281.218 443.734 288.255 453 293.637C460.348 297.912 469.506 300.503 479.055 301.392C484.297 301.892 489.664 301.892 494.906 301.361C504.345 300.441 513.409 297.851 520.71 293.637C530.149 288.208 534.86 281.061 534.86 273.9L534.892 291.234Z" fill="#BEC4CD"/>
<path d="M494.906 301.361V318.712C489.664 319.242 484.297 319.242 479.055 318.744V301.393C484.297 301.891 489.665 301.892 494.906 301.361Z" fill="#DBDEE4"/>
<path d="M486.841 319.543C474.496 319.543 462.171 316.822 452.805 311.379C443.706 306.091 438.685 299.036 438.665 291.511L438.633 274.158C438.633 273.911 438.832 273.711 439.077 273.709C439.322 273.709 439.524 273.907 439.524 274.153C439.544 281.347 444.408 288.13 453.222 293.252C471.706 303.995 501.88 303.994 520.49 293.252C529.478 288.063 534.421 281.19 534.414 273.9V273.875C534.414 273.629 534.612 273.428 534.859 273.427C534.86 273.427 534.86 273.427 534.86 273.427C535.105 273.427 535.306 273.625 535.306 273.871C535.306 273.881 535.306 273.89 535.306 273.9L535.337 291.224C535.36 298.856 530.257 306.012 520.967 311.375C511.542 316.822 499.182 319.543 486.841 319.543ZM439.535 279.583L439.556 291.508C439.575 298.702 444.44 305.485 453.253 310.607C471.737 321.35 501.912 321.348 520.522 310.607C529.522 305.409 534.467 298.528 534.446 291.228L534.425 279.342C532.595 284.883 527.963 289.969 520.937 294.026C502.082 304.912 471.504 304.91 452.773 294.026C445.904 290.032 441.358 285.032 439.535 279.583Z" fill="#373B42"/>
<path d="M453.208 254.408C434.452 265.239 434.353 282.805 452.997 293.641C471.64 304.477 501.955 304.472 520.712 293.641C539.477 282.807 539.593 265.239 520.95 254.404C502.307 243.568 471.973 243.572 453.208 254.408Z" fill="white"/>
<path d="M486.809 302.191C474.464 302.193 462.139 299.47 452.773 294.027C443.644 288.72 438.623 281.639 438.633 274.088C438.644 266.487 443.741 259.359 452.988 254.022C471.851 243.13 502.44 243.127 521.175 254.017C530.297 259.319 535.317 266.397 535.307 273.945C535.296 281.551 530.194 288.682 520.937 294.027C511.51 299.468 499.15 302.191 486.809 302.191ZM487.133 246.729C474.945 246.729 462.744 249.416 453.433 254.793C444.474 259.966 439.535 266.819 439.524 274.088C439.513 281.308 444.379 288.115 453.222 293.254C471.706 303.998 501.88 303.996 520.49 293.254C529.458 288.075 534.403 281.217 534.414 273.943C534.425 266.726 529.562 259.924 520.725 254.789C511.485 249.416 499.316 246.729 487.133 246.729Z" fill="#373B42"/>
<g opacity="0.1">
<path d="M504.141 265.43C514.799 271.585 514.842 281.565 504.254 287.72C493.665 293.874 476.448 293.874 465.79 287.72C455.133 281.567 455.064 271.585 465.652 265.43C476.24 259.277 493.484 259.277 504.141 265.43Z" fill="black"/>
</g>
<path d="M438.683 121.691L460.44 109.078C457.369 110.864 453.115 110.612 448.421 107.901L426.663 120.515C431.357 123.227 435.611 123.477 438.683 121.691Z" fill="#373B42"/>
<path d="M434.241 123.286C431.839 123.286 429.186 122.486 426.441 120.901C426.304 120.822 426.218 120.674 426.218 120.515C426.218 120.356 426.304 120.209 426.441 120.129L448.198 107.515C448.334 107.435 448.504 107.435 448.644 107.515C453.031 110.05 457.134 110.472 460.201 108.7L460.214 108.692L460.215 108.691H460.217C460.426 108.567 460.701 108.638 460.824 108.852C460.948 109.066 460.877 109.338 460.664 109.462C460.657 109.466 460.651 109.468 460.644 109.473L438.907 122.076C437.519 122.885 435.942 123.286 434.241 123.286ZM427.567 120.507C431.708 122.706 435.55 122.997 438.459 121.307H438.46L456.86 110.638C454.309 110.853 451.42 110.104 448.421 108.418L427.567 120.507Z" fill="#373B42"/>
<path d="M512.102 277.071L533.847 264.439C545.202 257.85 551.763 243.785 551.816 224.902L551.999 167.707L530.227 180.314L530.071 237.509C530.018 256.391 523.43 270.455 512.102 277.071Z" fill="#373B42"/>
<path d="M512.102 277.519C511.948 277.519 511.798 277.44 511.717 277.297C511.594 277.084 511.664 276.811 511.877 276.688C523.271 270.034 529.574 256.121 529.626 237.509L529.781 180.314C529.781 180.155 529.867 180.008 530.004 179.929L551.776 167.323C551.912 167.243 552.086 167.243 552.222 167.323C552.361 167.403 552.445 167.55 552.445 167.71L552.262 224.905C552.209 243.871 545.75 258.049 534.071 264.826L512.327 277.458C512.255 277.499 512.178 277.519 512.102 277.519ZM530.673 180.573L530.518 237.511C530.475 253.021 526.137 265.343 518.152 273.042L533.623 264.054C545.017 257.443 551.318 243.538 551.37 224.903L551.552 168.484L530.673 180.573Z" fill="#373B42"/>
<path d="M513.407 149.347V151.144C513.38 156.509 515.256 162.473 518.303 167.734C521.349 173.021 525.569 177.632 530.231 180.315L552.003 167.708C547.315 164.999 543.096 160.416 540.076 155.129C537.029 149.841 535.153 143.878 535.153 138.539V136.742L513.407 149.347Z" fill="#373B42"/>
<path d="M530.227 180.761C530.15 180.761 530.073 180.742 530.004 180.702C525.423 178.063 521.129 173.538 517.914 167.958C514.694 162.398 512.933 156.424 512.959 151.143V149.348C512.959 149.189 513.045 149.042 513.182 148.962L534.926 136.357C535.062 136.276 535.232 136.278 535.372 136.355C535.509 136.436 535.595 136.582 535.595 136.742V138.538C535.595 143.653 537.322 149.466 540.459 154.906C543.549 160.314 547.725 164.723 552.221 167.323C552.358 167.402 552.444 167.55 552.444 167.709C552.444 167.868 552.358 168.015 552.221 168.095L530.449 180.7C530.382 180.742 530.304 180.761 530.227 180.761ZM513.851 149.604V151.145C513.826 156.274 515.544 162.086 518.687 167.512C521.773 172.869 525.865 177.223 530.227 179.8L551.121 167.703C546.741 164.989 542.7 160.631 539.685 155.352C536.472 149.779 534.703 143.808 534.703 138.54V137.517L513.851 149.604Z" fill="#373B42"/>
<path d="M513.4 149.354L535.158 136.741L465.374 96.4463L443.616 109.06L513.4 149.354Z" fill="#373B42"/>
<path d="M513.401 149.8C513.325 149.8 513.248 149.781 513.179 149.741L443.394 109.446C443.257 109.367 443.171 109.219 443.171 109.06C443.171 108.901 443.257 108.754 443.394 108.674L465.152 96.0602C465.287 95.9799 465.458 95.9799 465.597 96.0602L535.382 136.353C535.519 136.432 535.605 136.58 535.605 136.74C535.605 136.899 535.519 137.046 535.382 137.126L513.624 149.739C513.555 149.779 513.478 149.8 513.401 149.8ZM444.507 109.06L513.401 148.839L534.269 136.742L465.374 96.9628L444.507 109.06Z" fill="#373B42"/>
<path d="M443.617 109.06L443.611 110.855C443.581 121.575 435.991 125.901 426.664 120.514L426.507 175.488C426.435 200.652 438.009 230.685 456.911 254.306L480.859 284.249L501.853 280.715C519.382 277.746 530.003 261.504 530.071 237.505L530.233 180.316C525.561 177.618 521.343 173.019 518.312 167.729C515.262 162.466 513.381 156.498 513.396 151.148L513.402 149.353L443.617 109.06Z" fill="white"/>
<path d="M480.858 284.698C480.724 284.698 480.595 284.637 480.509 284.53L456.563 254.587C437.679 230.985 425.99 200.677 426.062 175.489L426.217 120.516C426.217 120.356 426.303 120.21 426.44 120.129C426.58 120.051 426.746 120.051 426.885 120.131C431.269 122.661 435.368 123.086 438.43 121.324C441.469 119.576 443.152 115.858 443.166 110.856L443.169 109.059C443.169 108.9 443.254 108.754 443.391 108.673C443.531 108.594 443.697 108.594 443.837 108.675L513.622 148.969C513.759 149.048 513.845 149.196 513.845 149.355L513.839 151.152C513.824 156.267 515.548 162.075 518.695 167.507C521.81 172.94 525.986 177.352 530.455 179.932C530.592 180.011 530.678 180.159 530.678 180.319L530.516 237.508C530.446 261.817 519.76 278.135 501.928 281.157L480.931 284.689C480.906 284.695 480.883 284.698 480.858 284.698ZM427.107 121.273L426.953 175.49C426.881 200.485 438.495 230.58 457.259 254.029L481.042 283.767L501.78 280.278C519.147 277.335 529.556 261.345 529.624 237.507L529.786 180.573C525.266 177.899 521.061 173.428 517.923 167.953C514.7 162.388 512.933 156.421 512.949 151.149L512.955 149.611L444.06 109.832L444.059 110.858C444.043 116.19 442.202 120.181 438.876 122.095C435.685 123.932 431.528 123.633 427.107 121.273Z" fill="#373B42"/>
<path d="M500.123 270.444C517.674 267.471 519.627 246.4 519.652 237.478L519.8 185.661C515.763 182.279 512.135 177.903 509.274 172.913C506.039 167.329 503.956 161.285 503.247 155.523L450.13 124.852C447.134 129.361 442.577 132.321 437.046 133.066L436.924 175.52C436.86 198.344 447.634 226.04 465.044 247.8L485.171 272.962L500.123 270.444Z" fill="#DA0000"/>
<path d="M480.023 176.038C485.902 179.432 490.678 187.705 490.658 194.492C490.644 199.254 488.263 202.037 484.774 202.035L489.781 229.579C490.176 231.805 488.863 232.969 487.063 231.929L472.664 223.615C470.865 222.576 469.562 219.901 469.969 218.139L475.114 196.456C471.637 192.436 469.278 186.916 469.292 182.154C469.31 175.37 474.118 172.629 480.023 176.038Z" fill="#FAF2F2"/>
<path d="M488.316 232.758C487.852 232.758 487.35 232.61 486.839 232.315L472.44 224.001C470.463 222.859 469.077 220.017 469.533 218.039L474.627 196.575C471.043 192.353 468.831 186.846 468.845 182.153C468.856 178.718 470.048 176.14 472.209 174.898C474.382 173.648 477.236 173.917 480.246 175.653C486.252 179.122 491.122 187.573 491.102 194.493C491.088 199.12 488.831 202.185 485.305 202.46L490.218 229.499C490.455 230.827 490.151 231.895 489.389 232.432C489.077 232.65 488.712 232.758 488.316 232.758ZM475.228 175.015C474.284 175.015 473.414 175.232 472.652 175.671C470.781 176.749 469.745 179.051 469.736 182.156C469.722 186.709 471.911 192.077 475.451 196.166C475.543 196.274 475.579 196.421 475.546 196.561L470.399 218.242C470.035 219.823 471.267 222.296 472.884 223.23L487.283 231.544C487.925 231.915 488.49 231.97 488.875 231.7C489.335 231.378 489.509 230.612 489.339 229.657L484.333 202.114C484.311 201.984 484.346 201.85 484.43 201.749C484.513 201.647 484.639 201.588 484.772 201.588H484.778C488.116 201.588 490.197 198.868 490.209 194.49C490.229 187.854 485.557 179.75 479.798 176.424C478.176 175.488 476.62 175.015 475.228 175.015Z" fill="#FAF2F2"/>
<path d="M489.007 367.758C492.231 365.897 492.249 362.878 489.046 361.016C485.843 359.156 480.63 359.156 477.406 361.018C474.182 362.878 474.167 365.896 477.369 367.756C480.573 369.617 485.783 369.618 489.007 367.758Z" fill="white"/>
<path d="M483.182 369.591C480.995 369.591 478.806 369.107 477.145 368.144C475.459 367.164 474.532 365.834 474.533 364.398C474.535 362.956 475.477 361.619 477.184 360.633C480.526 358.705 485.946 358.702 489.271 360.632C490.957 361.612 491.885 362.942 491.884 364.377C491.882 365.82 490.94 367.158 489.231 368.144C487.561 369.109 485.371 369.591 483.182 369.591ZM483.236 360.063C481.208 360.063 479.177 360.51 477.63 361.404C476.208 362.225 475.427 363.288 475.425 364.4C475.423 365.501 476.193 366.558 477.595 367.372C480.671 369.16 485.689 369.157 488.786 367.373C490.207 366.552 490.991 365.488 490.992 364.376C490.993 363.273 490.222 362.218 488.822 361.404C487.286 360.51 485.263 360.063 483.236 360.063Z" fill="#DBDEE4"/>
<path d="M483.226 362.261C481.97 362.261 480.753 362.547 479.889 363.046C479.196 363.446 478.797 363.938 478.797 364.395C478.797 364.847 479.187 365.334 479.868 365.73C480.725 366.228 481.936 366.513 483.192 366.513C484.447 366.513 485.663 366.228 486.527 365.728C487.221 365.327 487.62 364.835 487.62 364.377C487.62 363.926 487.231 363.44 486.55 363.044C485.693 362.546 484.482 362.261 483.226 362.261Z" fill="#DA0000"/>
<path d="M511.607 346.111C510.258 346.111 508.951 346.419 508.023 346.954C507.279 347.385 506.851 347.912 506.85 348.404C506.85 348.888 507.268 349.411 508 349.836C508.92 350.371 510.222 350.678 511.57 350.678C512.918 350.678 514.224 350.371 515.151 349.835C515.897 349.404 516.325 348.876 516.326 348.384C516.328 347.898 515.908 347.378 515.177 346.953C514.257 346.419 512.956 346.111 511.607 346.111Z" fill="#373B42"/>
<path d="M390.173 264.605C388.823 264.605 387.516 264.913 386.589 265.448C385.844 265.879 385.416 266.406 385.415 266.898C385.415 267.382 385.833 267.906 386.565 268.331C387.486 268.865 388.787 269.172 390.135 269.172C391.484 269.172 392.789 268.865 393.716 268.331C394.463 267.9 394.89 267.371 394.892 266.88C394.892 266.395 394.474 265.873 393.743 265.448C392.821 264.913 391.521 264.605 390.173 264.605Z" fill="#373B42"/>
<defs>
<filter id="filter0_d_399_2740" x="0" y="0" width="648" height="656" filterUnits="userSpaceOnUse" color-interpolation-filters="sRGB">
<feFlood flood-opacity="0" result="BackgroundImageFix"/>
<feColorMatrix in="SourceAlpha" type="matrix" values="0 0 0 0 0 0 0 0 0 0 0 0 0 0 0 0 0 0 127 0" result="hardAlpha"/>
<feOffset dy="4"/>
<feGaussianBlur stdDeviation="2"/>
<feComposite in2="hardAlpha" operator="out"/>
<feColorMatrix type="matrix" values="0 0 0 0 0 0 0 0 0 0 0 0 0 0 0 0 0 0 0.25 0"/>
<feBlend mode="normal" in2="BackgroundImageFix" result="effect1_dropShadow_399_2740"/>
<feBlend mode="normal" in="SourceGraphic" in2="effect1_dropShadow_399_2740" result="shape"/>
</filter>
<linearGradient id="paint0_linear_399_2740" x1="479.225" y1="413" x2="479.225" y2="519.529" gradientUnits="userSpaceOnUse">
<stop stop-color="#FFEEEE"/>
<stop offset="1" stop-color="#FF0000"/>
</linearGradient>
</defs>
</svg>
