<?xml version="1.0" encoding="UTF-8" standalone="no"?>
<!-- Created with Inkscape (http://www.inkscape.org/) -->

<svg
   version="1.1"
   id="svg633"
   xml:space="preserve"
   width="682.66669"
   height="682.66669"
   viewBox="0 0 682.66669 682.66669"
   xmlns="http://www.w3.org/2000/svg"
   xmlns:svg="http://www.w3.org/2000/svg"><defs
     id="defs637"><clipPath
       clipPathUnits="userSpaceOnUse"
       id="clipPath651"><path
         d="M 0,512 H 512 V 0 H 0 Z"
         id="path649" /></clipPath></defs><g
     id="g639"
     transform="matrix(1.3333333,0,0,-1.3333333,0,682.66667)"><g
       id="g641"
       transform="translate(418.1436,332.8706)"><path
         d="m 0,0 24.357,-24.309 -204.568,-204.22 -134.247,134.217 204.562,204.209 86.044,-86.043"
         style="fill:none;stroke:#000000;stroke-width:15;stroke-linecap:round;stroke-linejoin:round;stroke-miterlimit:10;stroke-dasharray:none;stroke-opacity:1"
         id="path643" /></g><g
       id="g645"><g
         id="g647"
         clip-path="url(#clipPath651)"><g
           id="g653"
           transform="translate(308.248,442.7676)"><path
             d="m 0,0 c 0,0 86.957,80.132 192.396,57.804 l -0.073,0.071 c 22.368,-105.26 -58.07,-192.081 -58.07,-192.081"
             style="fill:none;stroke:#000000;stroke-width:15;stroke-linecap:round;stroke-linejoin:round;stroke-miterlimit:10;stroke-dasharray:none;stroke-opacity:1"
             id="path655" /></g><g
           id="g657"
           transform="translate(209.1396,112.9575)"><path
             d="m 0,0 c -5.77,-5.752 -15.119,-5.753 -20.889,0 l -75.968,75.969 c -5.768,5.757 -5.829,15.032 -0.061,20.785 l -0.323,-0.311 c 5.77,5.752 15.188,5.82 20.957,0.061 L -0.315,20.543 c 5.763,-5.763 5.763,-15.1 0,-20.853 z"
             style="fill:none;stroke:#000000;stroke-width:15;stroke-linecap:round;stroke-linejoin:round;stroke-miterlimit:10;stroke-dasharray:none;stroke-opacity:1"
             id="path659" /></g><g
           id="g661"
           transform="translate(346.4531,268.1855)"><path
             d="m 0,0 c -21.74,-21.704 -57.002,-21.706 -78.746,-0.001 -21.752,21.705 -21.754,56.899 0.002,78.605 21.741,21.706 57.004,21.706 78.744,0 C 21.756,56.898 21.756,21.704 0,0 Z"
             style="fill:none;stroke:#000000;stroke-width:15;stroke-linecap:round;stroke-linejoin:round;stroke-miterlimit:10;stroke-dasharray:none;stroke-opacity:1"
             id="path663" /></g><g
           id="g665"
           transform="translate(237.9219,104.3306)"><path
             d="m 0,0 21.243,-21.25 -28.114,-53.128 22.097,-22.098 95.911,95.905 c 11.826,11.804 11.824,30.935 0,42.741 L 76.722,76.589"
             style="fill:none;stroke:#000000;stroke-width:15;stroke-linecap:round;stroke-linejoin:round;stroke-miterlimit:10;stroke-dasharray:none;stroke-opacity:1"
             id="path667" /></g><g
           id="g669"
           transform="translate(146.748,348.5234)"><path
             d="M 0,0 33.889,-33.886"
             style="fill:none;stroke:#000000;stroke-width:15;stroke-linecap:round;stroke-linejoin:round;stroke-miterlimit:10;stroke-dasharray:none;stroke-opacity:1"
             id="path671" /></g><g
           id="g673"
           transform="translate(58.1768,302.9111)"><path
             d="m 0,0 -50.044,-50.042 22.028,-22.031 52.234,29.011 21.291,-21.29"
             style="fill:none;stroke:#000000;stroke-width:15;stroke-linecap:round;stroke-linejoin:round;stroke-miterlimit:10;stroke-dasharray:none;stroke-opacity:1"
             id="path675" /></g><g
           id="g677"
           transform="translate(146.748,348.5234)"><path
             d="m 0,0 c -11.823,11.802 -31.094,11.847 -42.916,0.042 l -23.03,-23.024"
             style="fill:none;stroke:#000000;stroke-width:15;stroke-linecap:round;stroke-linejoin:round;stroke-miterlimit:10;stroke-dasharray:none;stroke-opacity:1"
             id="path679" /></g><g
           id="g681"
           transform="translate(64.8643,151.3838)"><path
             d="m 0,0 c 23.846,23.431 62.201,23.137 85.673,-0.664 23.473,-23.797 23.759,-61.505 -0.077,-84.934 z"
             style="fill:none;stroke:#000000;stroke-width:15;stroke-linecap:round;stroke-linejoin:round;stroke-miterlimit:10;stroke-dasharray:none;stroke-opacity:1"
             id="path683" /></g><g
           id="g685"
           transform="translate(62.9063,112.6406)"><path
             d="M 0,0 -55.406,-55.33"
             style="fill:none;stroke:#000000;stroke-width:15;stroke-linecap:round;stroke-linejoin:round;stroke-miterlimit:10;stroke-dasharray:none;stroke-opacity:1"
             id="path687" /></g><g
           id="g689"
           transform="translate(87.8496,87.7373)"><path
             d="M 0,0 -79.858,-79.753"
             style="fill:none;stroke:#000000;stroke-width:15;stroke-linecap:round;stroke-linejoin:round;stroke-miterlimit:10;stroke-dasharray:none;stroke-opacity:1"
             id="path691" /></g><g
           id="g693"
           transform="translate(112.7969,62.8364)"><path
             d="M 0,0 -55.398,-55.336"
             style="fill:none;stroke:#000000;stroke-width:15;stroke-linecap:round;stroke-linejoin:round;stroke-miterlimit:10;stroke-dasharray:none;stroke-opacity:1"
             id="path695" /></g><g
           id="g697"
           transform="translate(257.7031,282.1826)"><path
             d="M 0,0 -98.85,-98.856"
             style="fill:none;stroke:#000000;stroke-width:15;stroke-linecap:round;stroke-linejoin:round;stroke-miterlimit:10;stroke-dasharray:none;stroke-opacity:1"
             id="path699" /></g><g
           id="g701"
           transform="translate(282.6406,257.5967)"><path
             d="M 0,0 -99.025,-99.029"
             style="fill:none;stroke:#000000;stroke-width:15;stroke-linecap:round;stroke-linejoin:round;stroke-miterlimit:10;stroke-dasharray:none;stroke-opacity:1"
             id="path703" /></g></g></g></g></svg>
