<?xml version="1.0" encoding="UTF-8"?>
<svg xmlns="http://www.w3.org/2000/svg" xmlns:xlink="http://www.w3.org/1999/xlink" version="1.1" id="Capa_1" x="0px" y="0px" viewBox="0 0 512 512" style="enable-background:new 0 0 512 512;" xml:space="preserve" width="512" height="512">
<g>
	<g>
		<path style="fill:none;stroke:#000000;stroke-width:15;stroke-linecap:round;stroke-linejoin:round;stroke-miterlimit:10;" d="&#10;&#9;&#9;&#9;M226.211,152.679V12.5c0-2.761,2.239-5,5-5h34c2.761,0,5,2.239,5,5v161.195"/>
		<path style="fill:none;stroke:#000000;stroke-width:15;stroke-linecap:round;stroke-linejoin:round;stroke-miterlimit:10;" d="&#10;&#9;&#9;&#9;M150.211,116.378V12.5c0-2.761,2.239-5,5-5h34c2.761,0,5,2.239,5,5v124.894"/>
		<path style="fill:none;stroke:#000000;stroke-width:15;stroke-linecap:round;stroke-linejoin:round;stroke-miterlimit:10;" d="&#10;&#9;&#9;&#9;M21.711,119.333V70.859c0-7.355,7.673-12.194,14.31-9.023l263.312,125.77c3.487,1.666,5.703,5.192,5.69,9.057l-0.234,58.458"/>
		<path style="fill:none;stroke:#000000;stroke-width:15;stroke-linecap:round;stroke-linejoin:round;stroke-miterlimit:10;" d="&#10;&#9;&#9;&#9;M208.875,359.667H31.711c-5.523,0-10-4.477-10-10V152.333"/>
		<g>
			
				<line style="fill:none;stroke:#000000;stroke-width:15;stroke-linecap:round;stroke-linejoin:round;stroke-miterlimit:10;" x1="26.211" y1="210.048" x2="159.211" y2="210.048"/>
			
				<line style="fill:none;stroke:#000000;stroke-width:15;stroke-linecap:round;stroke-linejoin:round;stroke-miterlimit:10;" x1="26.211" y1="255.619" x2="159.211" y2="255.619"/>
			
				<line style="fill:none;stroke:#000000;stroke-width:15;stroke-linecap:round;stroke-linejoin:round;stroke-miterlimit:10;" x1="26.211" y1="301.19" x2="159.211" y2="301.19"/>
		</g>
		
			<line style="fill:none;stroke:#000000;stroke-width:15;stroke-linecap:round;stroke-linejoin:round;stroke-miterlimit:10;" x1="194.211" y1="83" x2="150.211" y2="83"/>
		
			<line style="fill:none;stroke:#000000;stroke-width:15;stroke-linecap:round;stroke-linejoin:round;stroke-miterlimit:10;" x1="150.211" y1="47" x2="194.211" y2="47"/>
		
			<line style="fill:none;stroke:#000000;stroke-width:15;stroke-linecap:round;stroke-linejoin:round;stroke-miterlimit:10;" x1="270.211" y1="83" x2="226.211" y2="83"/>
		
			<line style="fill:none;stroke:#000000;stroke-width:15;stroke-linecap:round;stroke-linejoin:round;stroke-miterlimit:10;" x1="226.211" y1="47" x2="270.211" y2="47"/>
	</g>
	<g>
		<g>
			<path style="fill:none;stroke:#000000;stroke-width:15;stroke-linecap:round;stroke-linejoin:round;stroke-miterlimit:10;" d="&#10;&#9;&#9;&#9;&#9;M210.571,358.895c-3.864-0.859-7.932-2.43-11.892-4.716c-12.925-7.462-19.818-19.721-15.396-27.381&#10;&#9;&#9;&#9;&#9;c4.422-7.66,18.485-7.82,31.411-0.358c3.231,1.866,6.086,4.031,8.48,6.349"/>
			<path style="fill:none;stroke:#000000;stroke-width:15;stroke-linecap:round;stroke-linejoin:round;stroke-miterlimit:10;" d="&#10;&#9;&#9;&#9;&#9;M447.718,358.781c3.715-0.88,7.605-2.413,11.397-4.603c12.925-7.462,19.818-19.721,15.396-27.381s-18.485-7.82-31.411-0.358&#10;&#9;&#9;&#9;&#9;c-3.231,1.866-6.086,4.031-8.48,6.349"/>
		</g>
		<g>
			<g>
				<path style="fill:none;stroke:#000000;stroke-width:15;stroke-linecap:round;stroke-linejoin:round;stroke-miterlimit:10;" d="&#10;&#9;&#9;&#9;&#9;&#9;M426.224,287.842L426.224,287.842c-4.035-19.075-20.87-32.722-40.367-32.722H271.936c-19.497,0-36.332,13.647-40.367,32.722v0&#10;&#9;&#9;&#9;&#9;&#9;H426.224z"/>
				
					<polygon style="fill:none;stroke:#000000;stroke-width:15;stroke-linecap:round;stroke-linejoin:round;stroke-miterlimit:10;" points="&#10;&#9;&#9;&#9;&#9;&#9;231.569,287.842 220.613,347.872 437.18,347.872 426.224,287.842 &#9;&#9;&#9;&#9;"/>
			</g>
			<path style="fill:none;stroke:#000000;stroke-width:15;stroke-linecap:round;stroke-linejoin:round;stroke-miterlimit:10;" d="&#10;&#9;&#9;&#9;&#9;M437.18,347.872H220.613l-36.756,40.337c-3.622,3.896-5.635,9.018-5.635,14.337v37.378h301.349v-37.378&#10;&#9;&#9;&#9;&#9;c0-5.319-2.013-10.441-5.635-14.337L437.18,347.872z"/>
			<g>
				<path style="fill:none;stroke:#000000;stroke-width:15;stroke-linecap:round;stroke-linejoin:round;stroke-miterlimit:10;" d="&#10;&#9;&#9;&#9;&#9;&#9;M253.759,439.924h-46.326v-10.529c0-12.114,9.82-21.935,21.935-21.935h12.985c12.114,0,21.935,9.82,21.935,21.935v0&#10;&#9;&#9;&#9;&#9;&#9;C264.288,435.21,259.574,439.924,253.759,439.924z"/>
				<path style="fill:none;stroke:#000000;stroke-width:15;stroke-linecap:round;stroke-linejoin:round;stroke-miterlimit:10;" d="&#10;&#9;&#9;&#9;&#9;&#9;M404.034,439.924h46.326v-10.529c0-12.114-9.82-21.935-21.935-21.935H415.44c-12.114,0-21.935,9.82-21.935,21.935v0&#10;&#9;&#9;&#9;&#9;&#9;C393.505,435.21,398.219,439.924,404.034,439.924z"/>
			</g>
			<path style="fill:none;stroke:#000000;stroke-width:15;stroke-linecap:round;stroke-linejoin:round;stroke-miterlimit:10;" d="&#10;&#9;&#9;&#9;&#9;M397.541,472.212h82.219c5.815,0,10.529-4.714,10.529-10.529v-11.231c0-5.815-4.714-10.529-10.529-10.529H178.033&#10;&#9;&#9;&#9;&#9;c-5.815,0-10.529,4.714-10.529,10.529v11.231c0,5.815,4.714,10.529,10.529,10.529h189.861"/>
			<g>
				<path style="fill:none;stroke:#000000;stroke-width:15;stroke-linecap:round;stroke-linejoin:round;stroke-miterlimit:10;" d="&#10;&#9;&#9;&#9;&#9;&#9;M221.725,504.5h-16.539c-7.256,0-13.139-5.882-13.139-13.139v-19.149h42.816v19.149&#10;&#9;&#9;&#9;&#9;&#9;C234.864,498.618,228.982,504.5,221.725,504.5z"/>
				<path style="fill:none;stroke:#000000;stroke-width:15;stroke-linecap:round;stroke-linejoin:round;stroke-miterlimit:10;" d="&#10;&#9;&#9;&#9;&#9;&#9;M452.607,504.5h-16.539c-7.256,0-13.139-5.882-13.139-13.139v-19.149h42.816v19.149&#10;&#9;&#9;&#9;&#9;&#9;C465.745,498.618,459.863,504.5,452.607,504.5z"/>
			</g>
		</g>
		
			<line style="fill:none;stroke:#000000;stroke-width:15;stroke-linecap:round;stroke-linejoin:round;stroke-miterlimit:10;" x1="301.758" y1="414.656" x2="357.209" y2="414.656"/>
	</g>
</g>















</svg>
