<?xml version="1.0" encoding="UTF-8"?>
<svg xmlns="http://www.w3.org/2000/svg" xmlns:xlink="http://www.w3.org/1999/xlink" version="1.1" id="Capa_1" x="0px" y="0px" viewBox="0 0 512 512" style="enable-background:new 0 0 512 512;" xml:space="preserve" width="512" height="512">
<g>
	
		<line style="fill:none;stroke:#000000;stroke-width:15;stroke-linecap:round;stroke-linejoin:round;stroke-miterlimit:10;" x1="165.23" y1="380.55" x2="159.99" y2="428.58"/>
	
		<line style="fill:none;stroke:#000000;stroke-width:15;stroke-linecap:round;stroke-linejoin:round;stroke-miterlimit:10;" x1="255.04" y1="428.58" x2="249.8" y2="380.55"/>
	
		<line style="fill:none;stroke:#000000;stroke-width:15;stroke-linecap:round;stroke-linejoin:round;stroke-miterlimit:10;" x1="339.79" y1="340.56" x2="7.5" y2="340.56"/>
	
		<line style="fill:none;stroke:#000000;stroke-width:15;stroke-linecap:round;stroke-linejoin:round;stroke-miterlimit:10;" x1="407.535" y1="92.272" x2="7.5" y2="92.272"/>
	<path style="fill:none;stroke:#000000;stroke-width:15;stroke-linecap:round;stroke-linejoin:round;stroke-miterlimit:10;" d="&#10;&#9;&#9;M106.496,459.71h202.043c1.645,0,2.904-1.43,2.744-3.068c-1.541-15.75-14.821-28.057-30.976-28.057h-145.58&#10;&#9;&#9;c-16.155,0-29.435,12.307-30.976,28.057C103.591,458.279,104.851,459.71,106.496,459.71z"/>
	<path style="fill:none;stroke:#000000;stroke-width:15;stroke-linecap:round;stroke-linejoin:round;stroke-miterlimit:10;" d="&#10;&#9;&#9;M76.59,52.29h321.75c5.08,0,9.2,4.12,9.2,9.19v105.87"/>
	<path style="fill:none;stroke:#000000;stroke-width:15;stroke-linecap:round;stroke-linejoin:round;stroke-miterlimit:10;" d="&#10;&#9;&#9;M41.59,52.29h-24.9c-5.07,0-9.19,4.12-9.19,9.19v309.88c0,5.07,4.12,9.19,9.19,9.19h323.1"/>
	
		<line style="fill:none;stroke:#000000;stroke-width:15;stroke-linecap:round;stroke-linejoin:round;stroke-miterlimit:10;" x1="339.789" y1="424.709" x2="504.5" y2="424.709"/>
	<path style="fill:none;stroke:#000000;stroke-width:15;stroke-linecap:round;stroke-linejoin:round;stroke-miterlimit:10;" d="&#10;&#9;&#9;M504.5,202.348h-60.15c-0.888,0-1.708,0.474-2.15,1.244l-5.103,8.869c-0.626,1.089-1.787,1.76-3.043,1.76h-23.819&#10;&#9;&#9;c-1.256,0-2.417-0.671-3.043-1.76l-5.103-8.869c-0.443-0.769-1.263-1.244-2.15-1.244h-60.15"/>
	<path style="fill:none;stroke:#000000;stroke-width:15;stroke-linecap:round;stroke-linejoin:round;stroke-miterlimit:10;" d="&#10;&#9;&#9;M504.5,367.47V183.347c0-8.837-7.163-16-16-16H355.789c-8.837,0-16,7.163-16,16V443.71c0,8.837,7.163,16,16,16H488.5&#10;&#9;&#9;c8.837,0,16-7.163,16-16v-41.24"/>
	<g>
		<path style="fill:none;stroke:#000000;stroke-width:15;stroke-linecap:round;stroke-linejoin:round;stroke-miterlimit:10;" d="&#10;&#9;&#9;&#9;M144.497,266.252c-10.405,0-18.84,8.435-18.84,18.841c0,10.405,8.435,18.841,18.84,18.841c10.405,0,18.841-8.435,18.841-18.841&#10;&#9;&#9;&#9;C163.337,274.688,154.902,266.252,144.497,266.252z"/>
		<path style="fill:none;stroke:#000000;stroke-width:15;stroke-linecap:round;stroke-linejoin:round;stroke-miterlimit:10;" d="&#10;&#9;&#9;&#9;M235.282,266.252c-10.405,0-18.84,8.435-18.84,18.841c0,10.405,8.435,18.841,18.84,18.841c10.405,0,18.841-8.435,18.841-18.841&#10;&#9;&#9;&#9;C254.123,274.688,245.688,266.252,235.282,266.252z"/>
		<path style="fill:none;stroke:#000000;stroke-width:15;stroke-linecap:round;stroke-linejoin:round;stroke-miterlimit:10;" d="&#10;&#9;&#9;&#9;M144.497,266.252h114.835c4.172,0,7.554-3.382,7.554-7.554V135.757c0-3.785,3.068-6.854,6.854-6.854h24.987"/>
		<path style="fill:none;stroke:#000000;stroke-width:15;stroke-linecap:round;stroke-linejoin:round;stroke-miterlimit:10;" d="&#10;&#9;&#9;&#9;M266.886,237.53v-89.412H121.923c-3.685,0-6.369,3.492-5.422,7.053l19.406,72.97c1.445,5.434,6.358,9.375,11.98,9.389H266.886z"/>
		<g>
			
				<line style="fill:none;stroke:#000000;stroke-width:15;stroke-linecap:round;stroke-linejoin:round;stroke-miterlimit:10;" x1="165.379" y1="148.117" x2="181.199" y2="237.462"/>
			
				<line style="fill:none;stroke:#000000;stroke-width:15;stroke-linecap:round;stroke-linejoin:round;stroke-miterlimit:10;" x1="216.132" y1="148.117" x2="224.042" y2="237.573"/>
		</g>
		
			<line style="fill:none;stroke:#000000;stroke-width:15;stroke-linecap:round;stroke-linejoin:round;stroke-miterlimit:10;" x1="266.882" y1="192.9" x2="126.538" y2="192.9"/>
	</g>
	<g>
		<path style="fill:none;stroke:#000000;stroke-width:15;stroke-linecap:round;stroke-linejoin:round;stroke-miterlimit:10;" d="&#10;&#9;&#9;&#9;M379.5,304.402v54.419c0,5.523,4.477,10,10,10h65.288c5.523,0,10-4.477,10-10v-54.419c0-5.523-4.477-10-10-10H389.5&#10;&#9;&#9;&#9;C383.977,294.402,379.5,298.879,379.5,304.402z"/>
		<path style="fill:none;stroke:#000000;stroke-width:15;stroke-linecap:round;stroke-linejoin:round;stroke-miterlimit:10;" d="&#10;&#9;&#9;&#9;M405.026,308.871v-33.517c0-9.454,7.664-17.119,17.119-17.119c9.454,0,17.119,7.664,17.119,17.119v33.517"/>
	</g>
</g>















</svg>
