<svg version="1.1" id="Capa_1" xmlns="http://www.w3.org/2000/svg" xmlns:xlink="http://www.w3.org/1999/xlink" x="0px" y="0px" viewBox="0 0 512 512" style="enable-background:new 0 0 512 512;" xml:space="preserve">
<g>
	<g>
		<path style="fill:none;stroke:#000000;stroke-width:15;stroke-linecap:round;stroke-linejoin:round;stroke-miterlimit:10;" d="&#10;&#9;&#9;&#9;M496.808,446.691H15.192c-4.248,0-7.692,3.444-7.692,7.692v40.332c0,4.248,3.444,7.692,7.692,7.692h481.616&#10;&#9;&#9;&#9;c4.248,0,7.692-3.444,7.692-7.692v-40.332C504.5,450.135,501.056,446.691,496.808,446.691z"/>
		<path style="fill:none;stroke:#000000;stroke-width:15;stroke-linecap:round;stroke-linejoin:round;stroke-miterlimit:10;" d="&#10;&#9;&#9;&#9;M348.622,212.097l-38.087-23.43v101.762h34.582c3.695,0,6.691-2.996,6.691-6.691v-65.942&#10;&#9;&#9;&#9;C351.807,215.472,350.601,213.314,348.622,212.097z"/>
		
			<circle style="fill:none;stroke:#000000;stroke-width:15;stroke-linecap:round;stroke-linejoin:round;stroke-miterlimit:10;" cx="255.901" cy="180.69" r="22.5"/>
		<path style="fill:none;stroke:#000000;stroke-width:15;stroke-linecap:round;stroke-linejoin:round;stroke-miterlimit:10;" d="&#10;&#9;&#9;&#9;M360.331,131.17c-3.043,7.614-3.452,13.274-0.659,16.067c8.849,8.849,46.415-14.371,83.906-51.862&#10;&#9;&#9;&#9;c37.491-37.491,60.711-75.057,51.862-83.906c-3.125-3.125-9.838-2.242-18.861,1.853"/>
		<path style="fill:none;stroke:#000000;stroke-width:15;stroke-linecap:round;stroke-linejoin:round;stroke-miterlimit:10;" d="&#10;&#9;&#9;&#9;M121.565,46.114l11.719,21.427c0.373,0.682,0.934,1.243,1.615,1.615l21.427,11.719c2.818,1.541,2.818,5.589,0,7.131&#10;&#9;&#9;&#9;l-21.427,11.719c-0.682,0.373-1.243,0.934-1.615,1.615l-11.719,21.427c-1.541,2.818-5.589,2.818-7.131,0l-11.719-21.427&#10;&#9;&#9;&#9;c-0.373-0.682-0.934-1.243-1.615-1.615L79.673,88.006c-2.818-1.541-2.818-5.589,0-7.131L101.1,69.156&#10;&#9;&#9;&#9;c0.682-0.373,1.243-0.934,1.615-1.615l11.719-21.427C115.976,43.295,120.024,43.295,121.565,46.114z"/>
		<path style="fill:none;stroke:#000000;stroke-width:15;stroke-linecap:round;stroke-linejoin:round;stroke-miterlimit:10;" d="&#10;&#9;&#9;&#9;M438.977,256.96l10.867,19.869c0.346,0.632,0.866,1.152,1.498,1.498l19.869,10.867c2.614,1.429,2.614,5.183,0,6.612&#10;&#9;&#9;&#9;l-19.869,10.867c-0.632,0.346-1.152,0.866-1.498,1.498l-10.867,19.869c-1.429,2.614-5.183,2.614-6.612,0l-10.867-19.869&#10;&#9;&#9;&#9;c-0.346-0.632-0.866-1.152-1.498-1.498l-19.869-10.867c-2.614-1.429-2.614-5.183,0-6.612L420,278.327&#10;&#9;&#9;&#9;c0.632-0.346,1.152-0.866,1.498-1.498l10.867-19.869C433.794,254.347,437.547,254.347,438.977,256.96z"/>
		<path style="fill:none;stroke:#000000;stroke-width:15;stroke-linecap:round;stroke-linejoin:round;stroke-miterlimit:10;" d="&#10;&#9;&#9;&#9;M86.919,299.536l-21.454-21.454c-1.953-1.953-1.953-5.118,0-7.071l21.454-21.454c1.953-1.953,5.118-1.953,7.071,0l21.454,21.454&#10;&#9;&#9;&#9;c1.953,1.953,1.953,5.118,0,7.071L93.99,299.536C92.037,301.488,88.871,301.488,86.919,299.536z"/>
		<path style="fill:none;stroke:#000000;stroke-width:15;stroke-linecap:round;stroke-linejoin:round;stroke-miterlimit:10;" d="&#10;&#9;&#9;&#9;M201.268,256v49.726c0,6.705,5.436,12.141,12.141,12.141h84.985c6.705,0,12.141-5.436,12.141-12.141V161.312&#10;&#9;&#9;&#9;c0-15.774-4.515-31.218-13.012-44.507l-36.507-57.101c-2.387-3.734-7.841-3.734-10.229,0l-36.507,57.101&#10;&#9;&#9;&#9;c-8.497,13.29-13.012,28.733-13.012,44.507V221"/>
		<path style="fill:none;stroke:#000000;stroke-width:15;stroke-linecap:round;stroke-linejoin:round;stroke-miterlimit:10;" d="&#10;&#9;&#9;&#9;M72,381.309H43.83c-2.761,0-5,2.239-5,5v60.382H473.17v-60.382c0-2.761-2.239-5-5-5H320.083C284.691,381.309,256,410,256,445.392&#10;&#9;&#9;&#9;c0-35.392-28.691-64.083-64.083-64.083H107"/>
		<path style="fill:none;stroke:#000000;stroke-width:15;stroke-linecap:round;stroke-linejoin:round;stroke-miterlimit:10;" d="&#10;&#9;&#9;&#9;M384.542,80.543c-0.297,2.237-0.465,4.514-0.465,6.832c0,28.443,23.058,51.501,51.501,51.501&#10;&#9;&#9;&#9;c28.443,0,51.501-23.058,51.501-51.501s-23.058-51.501-51.501-51.501c-13.446,0-25.684,5.157-34.856,13.596"/>
		<path style="fill:none;stroke:#000000;stroke-width:15;stroke-linejoin:round;stroke-miterlimit:10;" d="M201.268,188.667&#10;&#9;&#9;&#9;l-38.088,23.43c-1.979,1.218-3.185,3.375-3.185,5.699v65.942c0,3.695,2.996,6.691,6.691,6.691h34.582"/>
		<path style="fill:none;stroke:#000000;stroke-width:15;stroke-linejoin:round;stroke-miterlimit:10;" d="M201.268,290.429"/>
		
			<line style="fill:none;stroke:#000000;stroke-width:15;stroke-linejoin:round;stroke-miterlimit:10;" x1="214.28" y1="116.805" x2="297.523" y2="116.805"/>
	</g>
</g>
<g>
</g>
<g>
</g>
<g>
</g>
<g>
</g>
<g>
</g>
<g>
</g>
<g>
</g>
<g>
</g>
<g>
</g>
<g>
</g>
<g>
</g>
<g>
</g>
<g>
</g>
<g>
</g>
<g>
</g>
</svg>