<?xml version="1.0" encoding="UTF-8"?>
<svg xmlns="http://www.w3.org/2000/svg" xmlns:xlink="http://www.w3.org/1999/xlink" version="1.1" id="Capa_1" x="0px" y="0px" viewBox="0 0 512 512" style="enable-background:new 0 0 512 512;" xml:space="preserve" width="512" height="512">
<g>
	<g>
		<path style="fill:none;stroke:#000000;stroke-width:15;stroke-linecap:round;stroke-linejoin:round;stroke-miterlimit:10;" d="&#10;&#9;&#9;&#9;M415.82,455.63h30.75V264.06c32.18-1.41,57.93-28.04,57.93-60.57c0-19.87-9.75-38.5-26.08-49.82l-15.08-10.46"/>
		
			<polyline style="fill:none;stroke:#000000;stroke-width:15;stroke-linecap:round;stroke-linejoin:round;stroke-miterlimit:10;" points="&#10;&#9;&#9;&#9;65.43,299.193 65.43,455.63 96.18,455.63 &#9;&#9;"/>
		<path style="fill:none;stroke:#000000;stroke-width:15;stroke-linecap:round;stroke-linejoin:round;stroke-miterlimit:10;" d="&#10;&#9;&#9;&#9;M322.82,45.76l-34.19-23.71C279,15.37,267.72,11.84,256,11.84s-23,3.53-32.63,10.21L33.58,153.67&#10;&#9;&#9;&#9;C17.25,164.99,7.5,183.62,7.5,203.49c0,32.53,25.75,59.16,57.93,60.57"/>
		<path style="fill:none;stroke:#000000;stroke-width:15;stroke-linecap:round;stroke-linejoin:round;stroke-miterlimit:10;" d="&#10;&#9;&#9;&#9;M96.18,455.63V233.37H68.13c-8.25,0-15.72-3.34-21.13-8.75c-5.4-5.4-8.75-12.88-8.75-21.13c0-9.79,4.8-18.97,12.85-24.55&#10;&#9;&#9;&#9;L240.89,47.31c9.09-6.3,21.13-6.3,30.22,0l9.817,6.809"/>
		<path style="fill:none;stroke:#000000;stroke-width:15;stroke-linecap:round;stroke-linejoin:round;stroke-miterlimit:10;" d="&#10;&#9;&#9;&#9;M440.71,164.94l20.19,14c4.02,2.79,7.24,6.48,9.44,10.7c2.21,4.21,3.41,8.96,3.41,13.85c0,16.51-13.38,29.88-29.88,29.88h-28.05&#10;&#9;&#9;&#9;v222.26"/>
	</g>
	
		<circle style="fill:none;stroke:#000000;stroke-width:15;stroke-linecap:round;stroke-linejoin:round;stroke-miterlimit:10;" cx="393.801" cy="93.449" r="85.503"/>
	<path style="fill:none;stroke:#000000;stroke-width:15;stroke-linecap:round;stroke-linejoin:round;stroke-miterlimit:10;" d="&#10;&#9;&#9;M415.818,455.629h53.839c5.328,0,9.647,4.319,9.647,9.647v29.131c0,5.328-4.319,9.647-9.647,9.647H42.343&#10;&#9;&#9;c-5.328,0-9.647-4.319-9.647-9.647v-29.131c0-5.328,4.319-9.647,9.647-9.647H380.72"/>
	<path style="fill:none;stroke:#000000;stroke-width:15;stroke-linecap:round;stroke-linejoin:round;stroke-miterlimit:10;" d="&#10;&#9;&#9;M133.972,84.045l-55.357,38.391v-92.21c0-5.736,4.65-10.385,10.385-10.385h34.587c5.736,0,10.385,4.65,10.385,10.385V84.045z"/>
	<g>
		<path style="fill:none;stroke:#000000;stroke-width:15;stroke-linecap:round;stroke-linejoin:round;stroke-miterlimit:10;" d="&#10;&#9;&#9;&#9;M339.777,304.196h-15.841c-1.645-6.335-4.164-12.314-7.401-17.82l11.215-11.215c3.071-3.071,3.071-8.05,0-11.122l-13.9-13.9&#10;&#9;&#9;&#9;c-3.071-3.071-8.05-3.071-11.121,0l-11.215,11.215c-5.506-3.237-11.485-5.756-17.82-7.401v-15.841&#10;&#9;&#9;&#9;c0-4.343-3.521-7.864-7.864-7.864h-19.658c-4.343,0-7.864,3.521-7.864,7.864v15.841c-6.335,1.645-12.314,4.164-17.82,7.401&#10;&#9;&#9;&#9;l-11.215-11.215c-3.071-3.071-8.05-3.071-11.121,0l-13.9,13.9c-3.071,3.071-3.071,8.05,0,11.122l11.215,11.215&#10;&#9;&#9;&#9;c-3.237,5.506-5.756,11.486-7.401,17.82h-15.841c-4.343,0-7.864,3.521-7.864,7.864v19.658c0,4.343,3.521,7.864,7.864,7.864h15.841&#10;&#9;&#9;&#9;c1.645,6.335,4.164,12.314,7.401,17.82l-11.215,11.215c-3.071,3.071-3.071,8.05,0,11.121l13.9,13.9&#10;&#9;&#9;&#9;c3.071,3.071,8.05,3.071,11.121,0l11.215-11.215c5.506,3.237,11.486,5.756,17.82,7.401v15.841c0,4.343,3.521,7.864,7.864,7.864&#10;&#9;&#9;&#9;h19.658c4.343,0,7.864-3.521,7.864-7.864v-15.841c6.335-1.645,12.314-4.164,17.82-7.401l11.215,11.215&#10;&#9;&#9;&#9;c3.071,3.071,8.05,3.071,11.121,0l13.9-13.9c3.071-3.071,3.071-8.05,0-11.121l-11.215-11.215&#10;&#9;&#9;&#9;c3.237-5.506,5.756-11.486,7.401-17.82h15.841c4.343,0,7.864-3.521,7.864-7.864V312.06&#10;&#9;&#9;&#9;C347.641,307.717,344.121,304.196,339.777,304.196z"/>
		
			<circle style="fill:none;stroke:#000000;stroke-width:15;stroke-linecap:round;stroke-linejoin:round;stroke-miterlimit:10;" cx="256" cy="321.889" r="27.054"/>
	</g>
	<g>
		
			<line style="fill:none;stroke:#000000;stroke-width:15;stroke-linecap:round;stroke-linejoin:round;stroke-miterlimit:10;" x1="168.787" y1="199.361" x2="168.787" y2="225.693"/>
		
			<line style="fill:none;stroke:#000000;stroke-width:15;stroke-linecap:round;stroke-linejoin:round;stroke-miterlimit:10;" x1="181.953" y1="212.527" x2="155.621" y2="212.527"/>
	</g>
	<path style="fill:none;stroke:#000000;stroke-width:15;stroke-linecap:round;stroke-linejoin:round;stroke-miterlimit:10;" d="&#10;&#9;&#9;M388.127,36.908l-26.936,60.12c-2.132,4.759,1.35,10.134,6.564,10.134h26.215v41.597c0,3.293,4.492,4.256,5.842,1.253&#10;&#9;&#9;l26.594-59.159c2.14-4.76-1.342-10.142-6.561-10.142h-25.875V38.157C393.971,34.862,389.474,33.901,388.127,36.908z"/>
</g>















</svg>
