<?xml version="1.0" encoding="UTF-8"?>
<svg xmlns="http://www.w3.org/2000/svg" xmlns:xlink="http://www.w3.org/1999/xlink" version="1.1" id="Capa_1" x="0px" y="0px" viewBox="0 0 512 512" style="enable-background:new 0 0 512 512;" xml:space="preserve" width="512" height="512">
<g>
	<g>
		<g>
			<path style="fill:none;stroke:#000000;stroke-width:15;stroke-linecap:round;stroke-linejoin:round;stroke-miterlimit:10;" d="&#10;&#9;&#9;&#9;&#9;M196.206,155.971c-5.427-3.666-11.97-5.807-19.012-5.807c-18.78,0-34.004,15.224-34.004,34.004s15.224,34.004,34.004,34.004&#10;&#9;&#9;&#9;&#9;s29.354-15.224,29.354-34.004h-20.344"/>
		</g>
		<g>
			<path style="fill:none;stroke:#000000;stroke-width:15;stroke-linecap:round;stroke-linejoin:round;stroke-miterlimit:10;" d="&#10;&#9;&#9;&#9;&#9;M320.447,150.163l23.252,66.987c0.487,1.371,2.431,1.358,2.9-0.02l22.206-66.843"/>
		</g>
		
			<circle style="fill:none;stroke:#000000;stroke-width:15;stroke-linecap:round;stroke-linejoin:round;stroke-miterlimit:10;" cx="266.342" cy="184.167" r="34.004"/>
	</g>
	<path style="fill:none;stroke:#000000;stroke-width:15;stroke-linecap:round;stroke-linejoin:round;stroke-miterlimit:10;" d="&#10;&#9;&#9;M337.974,117.639h54.713c6.867,0,12.434,5.567,12.434,12.434v108.189c0,6.867-5.567,12.434-12.434,12.434H119.308&#10;&#9;&#9;c-6.867,0-12.434-5.567-12.434-12.434V130.073c0-6.867,5.567-12.434,12.434-12.434H302.92"/>
	
		<polyline style="fill:none;stroke:#000000;stroke-width:15;stroke-linecap:round;stroke-linejoin:round;stroke-miterlimit:10;" points="&#10;&#9;&#9;106.87,221.196 31.31,221.196 31.31,184.166 106.87,184.166 &#9;"/>
	
		<polyline style="fill:none;stroke:#000000;stroke-width:15;stroke-linecap:round;stroke-linejoin:round;stroke-miterlimit:10;" points="&#10;&#9;&#9;405.12,184.166 480.68,184.166 480.68,221.196 405.12,221.196 &#9;"/>
	
		<polyline style="fill:none;stroke:#000000;stroke-width:15;stroke-linecap:round;stroke-linejoin:round;stroke-miterlimit:10;" points="&#10;&#9;&#9;31.313,256.219 31.313,440.621 77.041,440.621 77.041,221.192 31.313,221.192 &#9;"/>
	
		<polyline style="fill:none;stroke:#000000;stroke-width:15;stroke-linecap:round;stroke-linejoin:round;stroke-miterlimit:10;" points="&#10;&#9;&#9;211.59,250.696 211.59,440.626 165.86,440.626 165.86,250.696 &#9;"/>
	
		<polyline style="fill:none;stroke:#000000;stroke-width:15;stroke-linecap:round;stroke-linejoin:round;stroke-miterlimit:10;" points="&#10;&#9;&#9;346.13,250.696 346.13,440.626 300.41,440.626 300.41,250.696 &#9;"/>
	
		<rect x="434.953" y="221.192" style="fill:none;stroke:#000000;stroke-width:15;stroke-linecap:round;stroke-linejoin:round;stroke-miterlimit:10;" width="45.728" height="219.43"/>
	<path style="fill:none;stroke:#000000;stroke-width:15;stroke-linecap:round;stroke-linejoin:round;stroke-miterlimit:10;" d="&#10;&#9;&#9;M405.12,184.166h75.56h17.22c3.64,0,6.6-2.96,6.6-6.6v-20.8c0-3.65-2.96-6.6-6.6-6.6h-17.22h-75.56"/>
	<path style="fill:none;stroke:#000000;stroke-width:15;stroke-linecap:round;stroke-linejoin:round;stroke-miterlimit:10;" d="&#10;&#9;&#9;M106.87,150.166H31.31H14.1c-3.64,0-6.6,2.95-6.6,6.6v20.8c0,3.64,2.96,6.6,6.6,6.6h17.21h75.56"/>
	<path style="fill:none;stroke:#000000;stroke-width:15;stroke-linecap:round;stroke-linejoin:round;stroke-miterlimit:10;" d="&#10;&#9;&#9;M106.87,150.166H31.31v-26.15c0-11.23,6.76-21.34,17.13-25.64l199.18-82.53c5.36-2.22,11.39-2.22,16.75,0l199.18,82.53&#10;&#9;&#9;c10.37,4.3,17.13,14.41,17.13,25.64v26.15h-75.56"/>
	
		<line style="fill:none;stroke:#000000;stroke-width:15;stroke-linecap:round;stroke-linejoin:round;stroke-miterlimit:10;" x1="268.1" y1="58.235" x2="243.894" y2="82.441"/>
	
		<polyline style="fill:none;stroke:#000000;stroke-width:15;stroke-linecap:round;stroke-linejoin:round;stroke-miterlimit:10;" points="&#10;&#9;&#9;31.313,469.22 31.313,440.621 480.681,440.621 480.681,469.22 &#9;"/>
	<path style="fill:none;stroke:#000000;stroke-width:15;stroke-linecap:round;stroke-linejoin:round;stroke-miterlimit:10;" d="&#10;&#9;&#9;M408.407,469.22h89.488c3.648,0,6.605,2.957,6.605,6.605v15.389c0,3.648-2.957,6.605-6.605,6.605H14.105&#10;&#9;&#9;c-3.648,0-6.605-2.957-6.605-6.605v-15.389c0-3.648,2.957-6.605,6.605-6.605h359.166"/>
	<path style="fill:none;stroke:#000000;stroke-width:15;stroke-linecap:round;stroke-linejoin:round;stroke-miterlimit:10;" d="&#10;&#9;&#9;M300.346,440.621h-88.758v-91.738c0-6.001,2.678-11.689,7.303-15.512l25.513-21.09c6.729-5.562,16.461-5.559,23.185,0.009&#10;&#9;&#9;l25.465,21.082c4.618,3.823,7.292,9.507,7.292,15.503V440.621z"/>
	<g>
		
			<line style="fill:none;stroke:#000000;stroke-width:15;stroke-linecap:round;stroke-linejoin:round;stroke-miterlimit:10;" x1="390.871" y1="281.901" x2="390.871" y2="300.303"/>
		
			<line style="fill:none;stroke:#000000;stroke-width:15;stroke-linecap:round;stroke-linejoin:round;stroke-miterlimit:10;" x1="390.871" y1="333.486" x2="390.871" y2="351.888"/>
		
			<line style="fill:none;stroke:#000000;stroke-width:15;stroke-linecap:round;stroke-linejoin:round;stroke-miterlimit:10;" x1="390.871" y1="385.071" x2="390.871" y2="403.473"/>
	</g>
	<g>
		
			<line style="fill:none;stroke:#000000;stroke-width:15;stroke-linecap:round;stroke-linejoin:round;stroke-miterlimit:10;" x1="122.403" y1="281.901" x2="122.403" y2="300.303"/>
		
			<line style="fill:none;stroke:#000000;stroke-width:15;stroke-linecap:round;stroke-linejoin:round;stroke-miterlimit:10;" x1="122.403" y1="333.486" x2="122.403" y2="351.888"/>
		
			<line style="fill:none;stroke:#000000;stroke-width:15;stroke-linecap:round;stroke-linejoin:round;stroke-miterlimit:10;" x1="122.403" y1="385.071" x2="122.403" y2="403.473"/>
	</g>
	
		<line style="fill:none;stroke:#000000;stroke-width:15;stroke-linecap:round;stroke-linejoin:round;stroke-miterlimit:10;" x1="256" y1="351.888" x2="256" y2="440.621"/>
</g>















</svg>
