<?xml version="1.0" encoding="UTF-8" standalone="no"?>
<!-- Created with Inkscape (http://www.inkscape.org/) -->

<svg
   version="1.1"
   id="svg4446"
   xml:space="preserve"
   width="682.66669"
   height="682.66669"
   viewBox="0 0 682.66669 682.66669"
   xmlns="http://www.w3.org/2000/svg"
   xmlns:svg="http://www.w3.org/2000/svg"><defs
     id="defs4450"><clipPath
       clipPathUnits="userSpaceOnUse"
       id="clipPath4460"><path
         d="M 0,512 H 512 V 0 H 0 Z"
         id="path4458" /></clipPath></defs><g
     id="g4452"
     transform="matrix(1.3333333,0,0,-1.3333333,0,682.66667)"><g
       id="g4454"><g
         id="g4456"
         clip-path="url(#clipPath4460)"><g
           id="g4462"
           transform="translate(378.1299,398.3203)"><path
             d="m 0,0 h 96.37 c 16.57,0 30,-13.44 30,-30 v -254.641 c 0,-16.559 -13.43,-30 -30,-30 h -437 c -16.57,0 -30,13.441 -30,30 V -30 c 0,16.56 13.43,30 30,30 h 131.37"
             style="fill:none;stroke:#000000;stroke-width:15;stroke-linecap:round;stroke-linejoin:round;stroke-miterlimit:10;stroke-dasharray:none;stroke-opacity:1"
             id="path4464" /></g><g
           id="g4466"
           transform="translate(37.5,179.3086)"><path
             d="m 0,0 v 186.012 c 0,1.656 1.343,3 3,3 h 129.64"
             style="fill:none;stroke:#000000;stroke-width:15;stroke-linecap:round;stroke-linejoin:round;stroke-miterlimit:10;stroke-dasharray:none;stroke-opacity:1"
             id="path4468" /></g><g
           id="g4470"
           transform="translate(342,368.3203)"><path
             d="m 0,0 h 129.5 c 1.657,0 3,-1.344 3,-3 v -248.641 c 0,-1.656 -1.343,-3 -3,-3 h -431 c -1.657,0 -3,1.344 -3,3 v 27.629"
             style="fill:none;stroke:#000000;stroke-width:15;stroke-linecap:round;stroke-linejoin:round;stroke-miterlimit:10;stroke-dasharray:none;stroke-opacity:1"
             id="path4472" /></g><g
           id="g4474"
           transform="translate(285.2285,83.6836)"><path
             d="M 0,0 V -46.184"
             style="fill:none;stroke:#000000;stroke-width:15;stroke-linecap:round;stroke-linejoin:round;stroke-miterlimit:10;stroke-dasharray:none;stroke-opacity:1"
             id="path4476" /></g><g
           id="g4478"
           transform="translate(226.7715,37.5)"><path
             d="M 0,0 V 46.184"
             style="fill:none;stroke:#000000;stroke-width:15;stroke-linecap:round;stroke-linejoin:round;stroke-miterlimit:10;stroke-dasharray:none;stroke-opacity:1"
             id="path4480" /></g><g
           id="g4482"
           transform="translate(302.2021,37.5)"><path
             d="m 0,0 h -92.404 c -14.912,0 -27,-12.088 -27,-27 0,-1.657 1.342,-3 3,-3 H 24 c 1.657,0 3,1.343 3,3 C 27,-12.088 14.912,0 0,0 Z"
             style="fill:none;stroke:#000000;stroke-width:15;stroke-linecap:round;stroke-linejoin:round;stroke-miterlimit:10;stroke-dasharray:none;stroke-opacity:1"
             id="path4484" /></g><g
           id="g4486"
           transform="translate(218.9004,303.6602)"><path
             d="m 0,0 v -21.37 c 0,-7.16 -4.57,-13.51 -11.36,-15.79 L -83.75,-61.5 c -20.36,-6.84 -34.07,-25.9 -34.07,-47.36 v -81.12"
             style="fill:none;stroke:#000000;stroke-width:15;stroke-linecap:round;stroke-linejoin:round;stroke-miterlimit:10;stroke-dasharray:none;stroke-opacity:1"
             id="path4488" /></g><g
           id="g4490"
           transform="translate(293.0996,303.5498)"><path
             d="m 0,0 v -21.26 c 0,-7.16 4.57,-13.51 11.36,-15.79 l 72.39,-24.34 c 20.36,-6.839 34.07,-25.9 34.07,-47.36 v -81.12"
             style="fill:none;stroke:#000000;stroke-width:15;stroke-linecap:round;stroke-linejoin:round;stroke-miterlimit:10;stroke-dasharray:none;stroke-opacity:1"
             id="path4492" /></g><g
           id="g4494"
           transform="translate(168.8652,402.4072)"><path
             d="m 0,0 v 64.262 c 0,20.893 16.937,37.831 37.831,37.831 h 98.607 c 20.894,0 37.832,-16.938 37.832,-37.831 L 174.27,0"
             style="fill:none;stroke:#000000;stroke-width:15;stroke-linecap:round;stroke-linejoin:round;stroke-miterlimit:10;stroke-dasharray:none;stroke-opacity:1"
             id="path4496" /></g><g
           id="g4498"
           transform="translate(255.6924,295.2822)"><path
             d="m 0,0 c -48.157,0.166 -86.827,39.881 -86.827,87.99 v 30.479 c 17.374,-0.051 43.476,2.144 72.339,13.758 13.464,5.417 24.771,11.774 33.941,17.852 1.984,1.315 4.637,0.851 6.095,-1.028 4.612,-5.941 12.359,-14.166 24.106,-20.679 15.813,-8.766 30.609,-9.848 37.788,-9.903 V 87.045 C 87.442,38.868 48.265,-0.167 0,0 Z"
             style="fill:none;stroke:#000000;stroke-width:15;stroke-linecap:round;stroke-linejoin:round;stroke-miterlimit:10;stroke-dasharray:none;stroke-opacity:1"
             id="path4500" /></g><g
           id="g4502"
           transform="translate(306.2666,265.8906)"><path
             d="m 0,0 -45.192,-45.146 c -2.343,-2.34 -6.139,-2.34 -8.482,0 L -99.286,0.419"
             style="fill:none;stroke:#000000;stroke-width:15;stroke-linecap:round;stroke-linejoin:round;stroke-miterlimit:10;stroke-dasharray:none;stroke-opacity:1"
             id="path4504" /></g><g
           id="g4506"
           transform="translate(146.5293,142.1748)"><path
             d="m 0,0 h -7.008 c -2.851,0 -5.163,2.312 -5.163,5.163 v 24.683 c 0,16.974 13.761,30.735 30.735,30.735 C 35.539,60.581 49.3,46.82 49.3,29.846 V 5.163 C 49.3,2.312 46.988,0 44.137,0 h -7.008"
             style="fill:none;stroke:#000000;stroke-width:15;stroke-linecap:round;stroke-linejoin:round;stroke-miterlimit:10;stroke-dasharray:none;stroke-opacity:1"
             id="path4508" /></g><g
           id="g4510"
           transform="translate(377.6416,169.0713)"><path
             d="m 0,0 c 0,-14.854 -12.054,-26.896 -26.924,-26.896 -14.869,0 -26.923,12.042 -26.923,26.896 0,14.854 12.054,26.896 26.923,26.896 C -12.054,26.896 0,14.854 0,0 Z"
             style="fill:none;stroke:#000000;stroke-width:15;stroke-linecap:round;stroke-linejoin:round;stroke-miterlimit:10;stroke-dasharray:none;stroke-opacity:1"
             id="path4512" /></g><g
           id="g4514"
           transform="translate(350.7178,195.9678)"><path
             d="M 0,0 C 2.357,5.284 5.739,14.688 5.855,26.849 5.978,39.697 2.395,49.611 0,54.981"
             style="fill:none;stroke:#000000;stroke-width:15;stroke-linecap:round;stroke-linejoin:round;stroke-miterlimit:10;stroke-dasharray:none;stroke-opacity:1"
             id="path4516" /></g><g
           id="g4518"
           transform="translate(165.0937,202.7559)"><path
             d="M 0,0 C -1.866,5.093 -3.934,12.529 -4.279,21.676 -4.727,33.505 -2.096,42.969 0,48.703"
             style="fill:none;stroke:#000000;stroke-width:15;stroke-linecap:round;stroke-linejoin:round;stroke-miterlimit:10;stroke-dasharray:none;stroke-opacity:1"
             id="path4520" /></g></g></g></g></svg>
