<?xml version="1.0" encoding="UTF-8"?>
<svg xmlns="http://www.w3.org/2000/svg" xmlns:xlink="http://www.w3.org/1999/xlink" version="1.1" id="Capa_1" x="0px" y="0px" viewBox="0 0 511.996 511.996" style="enable-background:new 0 0 511.996 511.996;" xml:space="preserve" width="512" height="512">
<g>
	<path style="fill:none;stroke:#000000;stroke-width:15;stroke-linecap:round;stroke-linejoin:round;stroke-miterlimit:10;" d="&#10;&#9;&#9;M407.095,76.531h50.646L388.71,7.5v50.646C388.71,68.299,396.942,76.531,407.095,76.531z"/>
	<path style="fill:none;stroke:#000000;stroke-width:15;stroke-linecap:round;stroke-linejoin:round;stroke-miterlimit:10;" d="&#10;&#9;&#9;M221.367,424.29H98.256c-12.466,0-22.571,10.105-22.571,22.571v20.633h168.253v-20.633&#10;&#9;&#9;C243.938,434.395,233.833,424.29,221.367,424.29z"/>
	<path style="fill:none;stroke:#000000;stroke-width:15;stroke-linecap:round;stroke-linejoin:round;stroke-miterlimit:10;" d="&#10;&#9;&#9;M225.855,379.674L383.63,490.149c8.369,5.86,19.904,3.826,25.764-4.543l0,0c5.86-8.369,3.826-19.904-4.543-25.764L247.076,349.367&#10;&#9;&#9;L225.855,379.674z"/>
	<path style="fill:none;stroke:#000000;stroke-width:15;stroke-linecap:round;stroke-linejoin:round;stroke-miterlimit:10;" d="&#10;&#9;&#9;M210.262,264.397l-76.843,109.743c-3.514,5.019-2.294,11.935,2.724,15.449l46.451,32.526c5.019,3.514,11.936,2.295,15.45-2.724&#10;&#9;&#9;l76.843-109.743c3.514-5.018,2.294-11.936-2.724-15.45l-46.451-32.526C220.693,258.159,213.776,259.379,210.262,264.397z"/>
	
		<rect x="161.438" y="302.448" transform="matrix(0.5736 -0.8192 0.8192 0.5736 -193.0082 313.0242)" style="fill:none;stroke:#000000;stroke-width:15;stroke-linecap:round;stroke-linejoin:round;stroke-miterlimit:10;" width="85.43" height="78.893"/>
	
		<line style="fill:none;stroke:#000000;stroke-width:15;stroke-linecap:round;stroke-linejoin:round;stroke-miterlimit:10;" x1="244.633" y1="96.512" x2="332.479" y2="96.512"/>
	
		<line style="fill:none;stroke:#000000;stroke-width:15;stroke-linecap:round;stroke-linejoin:round;stroke-miterlimit:10;" x1="173.183" y1="143.087" x2="403.929" y2="143.087"/>
	
		<line style="fill:none;stroke:#000000;stroke-width:15;stroke-linecap:round;stroke-linejoin:round;stroke-miterlimit:10;" x1="173.183" y1="177.204" x2="403.929" y2="177.204"/>
	
		<line style="fill:none;stroke:#000000;stroke-width:15;stroke-linecap:round;stroke-linejoin:round;stroke-miterlimit:10;" x1="173.183" y1="211.321" x2="403.929" y2="211.321"/>
	<path style="fill:none;stroke:#000000;stroke-width:15;stroke-linecap:round;stroke-linejoin:round;stroke-miterlimit:10;" d="&#10;&#9;&#9;M177.311,504.496h76.884c6.167,0,11.167-5,11.167-11.167v-14.665c0-6.167-5-11.167-11.167-11.167H65.422&#10;&#9;&#9;c-6.167,0-11.167,5-11.167,11.167v14.665c0,6.167,5,11.167,11.167,11.167h76.89"/>
	<path style="fill:none;stroke:#000000;stroke-width:15;stroke-linecap:round;stroke-linejoin:round;stroke-miterlimit:10;" d="&#10;&#9;&#9;M457.741,239.934V76.531L388.711,7.5H137.756c-10.154,0-18.385,8.231-18.385,18.385V424.29h101.997&#10;&#9;&#9;c12.465,0,22.571,10.105,22.571,22.571v20.633l10.257,0.004c6.167,0,11.167,5,11.167,11.167v14.665c0,6.167-5,11.167-11.167,11.167&#10;&#9;&#9;h185.162c10.153,0,18.385-8.231,18.385-18.385V274.934"/>
</g>















</svg>
