<svg version="1.1" id="Capa_1" xmlns="http://www.w3.org/2000/svg" xmlns:xlink="http://www.w3.org/1999/xlink" x="0px" y="0px" viewBox="0 0 512 512" style="enable-background:new 0 0 512 512;" xml:space="preserve">
<g>
	<g>
		
			<circle style="fill:none;stroke:#000000;stroke-width:15;stroke-linecap:round;stroke-linejoin:round;stroke-miterlimit:10;" cx="95.384" cy="378.735" r="55.559"/>
		
			<circle style="fill:none;stroke:#000000;stroke-width:15;stroke-linecap:round;stroke-linejoin:round;stroke-miterlimit:10;" cx="416.616" cy="378.735" r="55.559"/>
		
			<circle style="fill:none;stroke:#000000;stroke-width:15;stroke-linecap:round;stroke-linejoin:round;stroke-miterlimit:10;" cx="416.616" cy="378.735" r="16.163"/>
		
			<circle style="fill:none;stroke:#000000;stroke-width:15;stroke-linecap:round;stroke-linejoin:round;stroke-miterlimit:10;" cx="95.384" cy="378.735" r="16.163"/>
		<path style="fill:none;stroke:#000000;stroke-width:15;stroke-linecap:round;stroke-linejoin:round;stroke-miterlimit:10;" d="&#10;&#9;&#9;&#9;M472.175,295.901h-26.264c-3.347,0-6.061-2.714-6.061-6.061v-20.203c0-3.347,2.714-6.061,6.061-6.061h26.264V295.901z"/>
		
			<line style="fill:none;stroke:#000000;stroke-width:15;stroke-linecap:round;stroke-linejoin:round;stroke-miterlimit:10;" x1="472.175" y1="295.901" x2="504.5" y2="295.901"/>
		
			<line style="fill:none;stroke:#000000;stroke-width:15;stroke-linecap:round;stroke-linejoin:round;stroke-miterlimit:10;" x1="504.5" y1="263.576" x2="472.175" y2="263.576"/>
		<path style="fill:none;stroke:#000000;stroke-width:15;stroke-linecap:round;stroke-linejoin:round;stroke-miterlimit:10;" d="&#10;&#9;&#9;&#9;M363.077,221.149V162.56c0-5.579,4.523-10.102,10.102-10.102h49.097c2.679,0,5.249,1.064,7.143,2.959l39.797,39.797&#10;&#9;&#9;&#9;c1.894,1.894,2.959,4.464,2.959,7.143v18.792c0,5.579-4.523,10.102-10.102,10.102h-88.894&#10;&#9;&#9;&#9;C367.6,231.251,363.077,226.728,363.077,221.149z"/>
		
			<line style="fill:none;stroke:#000000;stroke-width:15;stroke-linecap:round;stroke-linejoin:round;stroke-miterlimit:10;" x1="330.75" y1="362.57" x2="330.75" y2="204.33"/>
		<path style="fill:none;stroke:#000000;stroke-width:15;stroke-linecap:round;stroke-linejoin:round;stroke-miterlimit:10;" d="&#10;&#9;&#9;&#9;M330.75,169.23v-34.95c0-7.82,6.33-14.15,14.14-14.15h86.59c5.36,0,10.5,2.13,14.29,5.92l52.81,52.82&#10;&#9;&#9;&#9;c3.79,3.78,5.92,8.92,5.92,14.28v169.42"/>
		<path style="fill:none;stroke:#000000;stroke-width:15;stroke-linecap:round;stroke-linejoin:round;stroke-miterlimit:10;" d="&#10;&#9;&#9;&#9;M469.791,362.572H504.5v20.203c0,6.697-5.425,12.122-12.122,12.122h-22.587"/>
		
			<line style="fill:none;stroke:#000000;stroke-width:15;stroke-linecap:round;stroke-linejoin:round;stroke-miterlimit:10;" x1="268.38" y1="394.9" x2="148.56" y2="394.9"/>
		
			<line style="fill:none;stroke:#000000;stroke-width:15;stroke-linecap:round;stroke-linejoin:round;stroke-miterlimit:10;" x1="363.44" y1="394.9" x2="303.48" y2="394.9"/>
		
			<line style="fill:none;stroke:#000000;stroke-width:15;stroke-linecap:round;stroke-linejoin:round;stroke-miterlimit:10;" x1="363.441" y1="362.572" x2="148.559" y2="362.572"/>
		<path style="fill:none;stroke:#000000;stroke-width:15;stroke-linecap:round;stroke-linejoin:round;stroke-miterlimit:10;" d="&#10;&#9;&#9;&#9;M42.209,394.897H19.622c-6.697,0-12.122-5.425-12.122-12.122v-20.203h34.709"/>
		
			<line style="fill:none;stroke:#000000;stroke-width:15;stroke-linecap:round;stroke-linejoin:round;stroke-miterlimit:10;" x1="7.5" y1="362.57" x2="7.5" y2="333.65"/>
		<path style="fill:none;stroke:#000000;stroke-width:15;stroke-linecap:round;stroke-linejoin:round;stroke-miterlimit:10;" d="&#10;&#9;&#9;&#9;M7.5,298.55v-16.79c0-6.7,5.43-12.12,12.12-12.12h311.13"/>
		<path style="fill:none;stroke:#000000;stroke-width:15;stroke-linecap:round;stroke-linejoin:round;stroke-miterlimit:10;" d="&#10;&#9;&#9;&#9;M124.679,178.723v33.116c0,3.174-3.491,5.109-6.182,3.426l-7.839-4.899c-1.31-0.819-2.973-0.819-4.283,0l-7.839,4.899&#10;&#9;&#9;&#9;c-2.691,1.682-6.182-0.253-6.182-3.426v-33.116"/>
		<path style="fill:none;stroke:#000000;stroke-width:15;stroke-linecap:round;stroke-linejoin:round;stroke-miterlimit:10;" d="&#10;&#9;&#9;&#9;M169.126,269.637H47.907v-80.813c0-5.579,4.523-10.102,10.102-10.102h111.118V269.637z"/>
		<path style="fill:none;stroke:#000000;stroke-width:15;stroke-linecap:round;stroke-linejoin:round;stroke-miterlimit:10;" d="&#10;&#9;&#9;&#9;M245.898,178.723v33.116c0,3.174-3.491,5.109-6.182,3.426l-7.839-4.899c-1.31-0.819-2.973-0.819-4.283,0l-7.839,4.899&#10;&#9;&#9;&#9;c-2.691,1.682-6.182-0.253-6.182-3.426v-33.116"/>
		<path style="fill:none;stroke:#000000;stroke-width:15;stroke-linecap:round;stroke-linejoin:round;stroke-miterlimit:10;" d="&#10;&#9;&#9;&#9;M290.346,269.637h-121.22v-90.915h111.118c5.579,0,10.102,4.523,10.102,10.102V269.637z"/>
		<path style="fill:none;stroke:#000000;stroke-width:15;stroke-linecap:round;stroke-linejoin:round;stroke-miterlimit:10;" d="&#10;&#9;&#9;&#9;M185.289,77.706v33.116c0,3.174-3.491,5.109-6.182,3.426l-7.839-4.899c-1.31-0.819-2.973-0.819-4.283,0l-7.839,4.899&#10;&#9;&#9;&#9;c-2.691,1.682-6.182-0.253-6.182-3.426V77.706"/>
		<path style="fill:none;stroke:#000000;stroke-width:15;stroke-linecap:round;stroke-linejoin:round;stroke-miterlimit:10;" d="&#10;&#9;&#9;&#9;M229.736,178.723h-121.22V87.808c0-5.579,4.523-10.102,10.102-10.102h101.016c5.579,0,10.102,4.523,10.102,10.102V178.723z"/>
		<g>
			
				<line style="fill:none;stroke:#000000;stroke-width:15;stroke-linecap:round;stroke-linejoin:round;stroke-miterlimit:10;" x1="76.191" y1="77.706" x2="7.5" y2="77.706"/>
			
				<line style="fill:none;stroke:#000000;stroke-width:15;stroke-linecap:round;stroke-linejoin:round;stroke-miterlimit:10;" x1="76.191" y1="110.032" x2="41.846" y2="110.032"/>
			
				<line style="fill:none;stroke:#000000;stroke-width:15;stroke-linecap:round;stroke-linejoin:round;stroke-miterlimit:10;" x1="76.191" y1="142.357" x2="25.266" y2="142.357"/>
		</g>
	</g>
</g>
<g>
</g>
<g>
</g>
<g>
</g>
<g>
</g>
<g>
</g>
<g>
</g>
<g>
</g>
<g>
</g>
<g>
</g>
<g>
</g>
<g>
</g>
<g>
</g>
<g>
</g>
<g>
</g>
<g>
</g>
</svg>