<?xml version="1.0" encoding="UTF-8" standalone="no"?>
<!-- Created with Inkscape (http://www.inkscape.org/) -->

<svg
   version="1.1"
   id="svg1521"
   xml:space="preserve"
   width="682.66669"
   height="682.66669"
   viewBox="0 0 682.66669 682.66669"
   xmlns="http://www.w3.org/2000/svg"
   xmlns:svg="http://www.w3.org/2000/svg"><defs
     id="defs1525"><clipPath
       clipPathUnits="userSpaceOnUse"
       id="clipPath1535"><path
         d="M 0,512 H 512 V 0 H 0 Z"
         id="path1533" /></clipPath></defs><g
     id="g1527"
     transform="matrix(1.3333333,0,0,-1.3333333,0,682.66667)"><g
       id="g1529"><g
         id="g1531"
         clip-path="url(#clipPath1535)"><g
           id="g1537"
           transform="translate(219.6025,264.8403)"><path
             d="m 0,0 -88.201,-44.402 c -2.056,-1.036 -3.354,-3.141 -3.354,-5.444 V -228.029 H 8.835 V -5.443 C 8.835,-0.906 4.053,2.041 0,0 Z"
             style="fill:none;stroke:#000000;stroke-width:15;stroke-linecap:round;stroke-linejoin:round;stroke-miterlimit:10;stroke-dasharray:none;stroke-opacity:1"
             id="path1539" /></g><g
           id="g1541"
           transform="translate(94.7578,192.6382)"><path
             d="m 0,0 h -33.81 c -3.42,0 -6.193,-2.772 -6.193,-6.192 v -37.81 c 0,-3.42 2.773,-6.193 6.193,-6.193 H 0 c 3.42,0 6.192,2.773 6.192,6.193 v 37.81 C 6.192,-2.772 3.42,0 0,0 Z"
             style="fill:none;stroke:#000000;stroke-width:15;stroke-linecap:round;stroke-linejoin:round;stroke-miterlimit:10;stroke-dasharray:none;stroke-opacity:1"
             id="path1543" /></g><g
           id="g1545"
           transform="translate(119.2124,264.8403)"><path
             d="m 0,0 -88.201,-44.402 c -2.056,-1.036 -3.354,-3.141 -3.354,-5.444 V -228.029 H 8.835 V -5.443 C 8.835,-0.906 4.054,2.041 0,0 Z"
             style="fill:none;stroke:#000000;stroke-width:15;stroke-linecap:round;stroke-linejoin:round;stroke-miterlimit:10;stroke-dasharray:none;stroke-opacity:1"
             id="path1547" /></g><g
           id="g1549"
           transform="translate(195.1474,192.6382)"><path
             d="m 0,0 h -33.81 c -3.419,0 -6.192,-2.772 -6.192,-6.192 v -37.81 c 0,-3.42 2.773,-6.193 6.192,-6.193 H 0 c 3.42,0 6.193,2.773 6.193,6.193 v 37.81 C 6.193,-2.772 3.42,0 0,0 Z"
             style="fill:none;stroke:#000000;stroke-width:15;stroke-linecap:round;stroke-linejoin:round;stroke-miterlimit:10;stroke-dasharray:none;stroke-opacity:1"
             id="path1551" /></g><g
           id="g1553"
           transform="translate(319.9926,264.8403)"><path
             d="m 0,0 -88.201,-44.402 c -2.056,-1.036 -3.354,-3.141 -3.354,-5.444 V -228.029 H 8.835 V -5.443 C 8.835,-0.906 4.053,2.041 0,0 Z"
             style="fill:none;stroke:#000000;stroke-width:15;stroke-linecap:round;stroke-linejoin:round;stroke-miterlimit:10;stroke-dasharray:none;stroke-opacity:1"
             id="path1555" /></g><g
           id="g1557"
           transform="translate(295.5376,192.6382)"><path
             d="m 0,0 h -33.811 c -3.418,0 -6.192,-2.772 -6.192,-6.192 v -37.81 c 0,-3.42 2.774,-6.193 6.192,-6.193 H 0 c 3.42,0 6.192,2.773 6.192,6.193 v 37.81 C 6.192,-2.772 3.42,0 0,0 Z"
             style="fill:none;stroke:#000000;stroke-width:15;stroke-linecap:round;stroke-linejoin:round;stroke-miterlimit:10;stroke-dasharray:none;stroke-opacity:1"
             id="path1559" /></g><g
           id="g1561"
           transform="translate(478.7651,214.9946)"><path
             d="M 0,0 H -149.937 V -178.183 H 5.577 V -5.577 C 5.577,-2.497 3.08,0 0,0 Z"
             style="fill:none;stroke:#000000;stroke-width:15;stroke-linecap:round;stroke-linejoin:round;stroke-miterlimit:10;stroke-dasharray:none;stroke-opacity:1"
             id="path1563" /></g><g
           id="g1565"
           transform="translate(450.0356,175.1655)"><path
             d="m 0,0 h -86.901 c -2.881,0 -5.216,-2.335 -5.216,-5.216 v -18.29 c 0,-2.881 2.335,-5.216 5.216,-5.216 H 0 c 2.881,0 5.216,2.335 5.216,5.216 v 18.29 C 5.216,-2.335 2.881,0 0,0 Z"
             style="fill:none;stroke:#000000;stroke-width:15;stroke-linecap:round;stroke-linejoin:round;stroke-miterlimit:10;stroke-dasharray:none;stroke-opacity:1"
             id="path1567" /></g><g
           id="g1569"
           transform="translate(437.0356,415.1763)"><path
             d="m 0,0 h -60.901 c -2.881,0 -5.216,-2.335 -5.216,-5.216 v -18.29 c 0,-2.881 2.335,-5.216 5.216,-5.216 H 0 c 2.881,0 5.216,2.335 5.216,5.216 v 18.29 C 5.216,-2.335 2.881,0 0,0 Z"
             style="fill:none;stroke:#000000;stroke-width:15;stroke-linecap:round;stroke-linejoin:round;stroke-miterlimit:10;stroke-dasharray:none;stroke-opacity:1"
             id="path1571" /></g><path
           d="m 361.793,36.812 h 89.583 v 27.457 h -89.583 z"
           style="fill:none;stroke:#000000;stroke-width:15;stroke-linecap:round;stroke-linejoin:round;stroke-miterlimit:10;stroke-dasharray:none;stroke-opacity:1"
           id="path1573" /><g
           id="g1575"
           transform="translate(450.0356,146.4433)"><path
             d="m 0,0 h -86.901 c -0.466,0 -0.911,0.081 -1.341,0.196 V -27.261 H 1.341 V 0.196 C 0.91,0.081 0.467,0 0,0 Z"
             style="fill:none;stroke:#000000;stroke-width:15;stroke-linecap:round;stroke-linejoin:round;stroke-miterlimit:10;stroke-dasharray:none;stroke-opacity:1"
             id="path1577" /></g><path
           d="m 361.793,91.726 h 89.583 v 27.457 h -89.583 z"
           style="fill:none;stroke:#000000;stroke-width:15;stroke-linecap:round;stroke-linejoin:round;stroke-miterlimit:10;stroke-dasharray:none;stroke-opacity:1"
           id="path1579" /><path
           d="m 361.793,64.269 h 89.583 v 27.457 h -89.583 z"
           style="fill:none;stroke:#000000;stroke-width:15;stroke-linecap:round;stroke-linejoin:round;stroke-miterlimit:10;stroke-dasharray:none;stroke-opacity:1"
           id="path1581" /><g
           id="g1583"
           transform="translate(372.771,318.2603)"><path
             d="m 0,0 h 67.628 l -2.68,28.722 H 2.681 Z"
             style="fill:none;stroke:#000000;stroke-width:15;stroke-linecap:round;stroke-linejoin:round;stroke-miterlimit:10;stroke-dasharray:none;stroke-opacity:1"
             id="path1585" /></g><g
           id="g1587"
           transform="translate(397.6342,486.0112)"><path
             d="m 0,0 c -2.002,-0.451 -4.017,0.615 -4.935,2.45 -8.632,17.253 -31.785,21.422 -45.902,8.344 -1.685,-1.561 -4.319,-1.554 -6.009,0.003 -11.13,10.252 -28.404,10.26 -39.542,0.007 -1.691,-1.557 -4.331,-1.569 -6.012,-10e-4 -17.946,16.745 -49.05,4.541 -49.05,-21.573 0,-26.118 31.108,-38.312 49.05,-21.572 1.681,1.568 4.321,1.556 6.012,-0.001 11.136,-10.249 28.415,-10.25 39.549,0.014 1.688,1.556 4.315,1.56 6.003,0.006 10.036,-9.24 25.228,-10.281 36.419,-2.523 1.7,1.179 3.988,1.132 5.538,-0.237 12.47,-11.015 33.525,-2.577 33.525,15.304 C 24.646,-6.507 12.263,2.765 0,0 Z"
             style="fill:none;stroke:#000000;stroke-width:15;stroke-linecap:round;stroke-linejoin:round;stroke-miterlimit:10;stroke-dasharray:none;stroke-opacity:1"
             id="path1589" /></g><g
           id="g1591"
           transform="translate(273.5005,7.499)"><path
             d="m 0,0 h 223.752 c 4.003,0 7.249,3.245 7.249,7.249 v 14.815 c 0,4.004 -3.246,7.249 -7.249,7.249 h -482.505 c -4.003,0 -7.248,-3.245 -7.248,-7.249 V 7.249 c 0,-4.004 3.245,-7.249 7.248,-7.249 L -35,0"
             style="fill:none;stroke:#000000;stroke-width:15;stroke-linecap:round;stroke-linejoin:round;stroke-miterlimit:10;stroke-dasharray:none;stroke-opacity:1"
             id="path1593" /></g><g
           id="g1595"
           transform="translate(443.1606,288.665)"><path
             d="m 0,0 -9.126,97.789 h -54.9 l -16,-171.459 h 86.9 L 3.266,-35"
             style="fill:none;stroke:#000000;stroke-width:15;stroke-linecap:round;stroke-linejoin:round;stroke-miterlimit:10;stroke-dasharray:none;stroke-opacity:1"
             id="path1597" /></g></g></g></g></svg>
