<?xml version="1.0" encoding="UTF-8" standalone="no"?>
<!-- Created with Inkscape (http://www.inkscape.org/) -->

<svg
   version="1.1"
   id="svg4449"
   xml:space="preserve"
   width="682.66669"
   height="682.66669"
   viewBox="0 0 682.66669 682.66669"
   xmlns="http://www.w3.org/2000/svg"
   xmlns:svg="http://www.w3.org/2000/svg"><defs
     id="defs4453"><clipPath
       clipPathUnits="userSpaceOnUse"
       id="clipPath4463"><path
         d="M 0,512 H 512 V 0 H 0 Z"
         id="path4461" /></clipPath></defs><g
     id="g4455"
     transform="matrix(1.3333333,0,0,-1.3333333,0,682.66667)"><g
       id="g4457"><g
         id="g4459"
         clip-path="url(#clipPath4463)"><g
           id="g4465"
           transform="translate(136.3867,45.7168)"><path
             d="M 0,0 V 67.077 L 45.319,1.389 c 0.849,-1.219 1.727,-0.623 1.727,0.879 l -0.623,64.951"
             style="fill:none;stroke:#000000;stroke-width:15;stroke-linecap:round;stroke-linejoin:round;stroke-miterlimit:10;stroke-dasharray:none;stroke-opacity:1"
             id="path4467" /></g><g
           id="g4469"
           transform="translate(277.2998,107.1807)"><path
             d="m 0,0 c -5.382,3.629 -11.84,5.755 -18.779,5.755 -18.553,0 -33.593,-15.054 -33.593,-33.624 0,-18.569 15.04,-33.595 33.593,-33.595 18.524,0 28.976,15.026 28.976,33.595 H -9.885"
             style="fill:none;stroke:#000000;stroke-width:15;stroke-linecap:round;stroke-linejoin:round;stroke-miterlimit:10;stroke-dasharray:none;stroke-opacity:1"
             id="path4471" /></g><g
           id="g4473"
           transform="translate(386.7168,79.3115)"><path
             d="m 0,0 c 0,18.514 -15.068,33.624 -33.564,33.624 -18.497,0 -33.593,-15.11 -33.593,-33.624 0,-18.513 15.096,-33.595 33.593,-33.595 C -15.068,-33.595 0,-18.513 0,0 Z"
             style="fill:none;stroke:#000000;stroke-width:15;stroke-linecap:round;stroke-linejoin:round;stroke-miterlimit:10;stroke-dasharray:none;stroke-opacity:1"
             id="path4475" /></g><g
           id="g4477"
           transform="translate(284.5225,151.1807)"><path
             d="m 0,0 152.81,-0.028 c 2.775,0 5.07,-2.297 5.07,-5.076 v -133.501 c 0,-2.808 -2.295,-5.076 -5.07,-5.076 h -351.561 c -2.776,0 -5.07,2.268 -5.07,5.076 V -5.104 c 0,2.779 2.294,5.076 5.07,5.076 L -40.362,0"
             style="fill:none;stroke:#000000;stroke-width:15;stroke-linecap:round;stroke-linejoin:round;stroke-miterlimit:10;stroke-dasharray:none;stroke-opacity:1"
             id="path4479" /></g><g
           id="g4481"
           transform="translate(450.418,192.9687)"><path
             d="m 0,0 c 0.708,0.028 1.388,0.624 2.775,1.701 l 31.894,31.668 4.362,4.309 c 10.735,11.142 10.735,29.343 0,40.457 C 29.287,88.228 13.539,85.704 3.144,76.32 1.218,74.591 0.538,73.712 0,73.74 c -0.51,-0.028 -1.189,0.851 -3.115,2.58 -10.396,9.384 -26.144,11.908 -35.888,1.815 -10.734,-11.114 -10.734,-29.315 0,-40.457 L -34.641,33.369 -2.747,1.701 C -1.359,0.624 -0.68,0.028 0,0 Z"
             style="fill:none;stroke:#000000;stroke-width:15;stroke-linecap:round;stroke-linejoin:round;stroke-miterlimit:10;stroke-dasharray:none;stroke-opacity:1"
             id="path4483" /></g><g
           id="g4485"
           transform="translate(61.5537,192.9687)"><path
             d="m 0,0 c 0.68,0.028 1.388,0.624 2.748,1.701 l 31.921,31.668 4.362,4.309 c 10.706,11.142 10.706,29.343 0,40.457 C 29.287,88.228 13.539,85.704 3.116,76.32 1.189,74.591 0.51,73.712 0,73.74 c -0.51,-0.028 -1.189,0.851 -3.116,2.58 -10.395,9.384 -26.143,11.908 -35.886,1.815 -10.735,-11.114 -10.735,-29.315 0,-40.457 L -34.669,33.369 -2.748,1.701 C -1.359,0.624 -0.68,0.028 0,0 Z"
             style="fill:none;stroke:#000000;stroke-width:15;stroke-linecap:round;stroke-linejoin:round;stroke-miterlimit:10;stroke-dasharray:none;stroke-opacity:1"
             id="path4487" /></g><g
           id="g4489"
           transform="translate(309.0234,415.0674)"><path
             d="M 0,0 C -19.827,24.296 -76.561,24.296 -96.388,0"
             style="fill:none;stroke:#000000;stroke-width:15;stroke-linecap:round;stroke-linejoin:round;stroke-miterlimit:10;stroke-dasharray:none;stroke-opacity:1"
             id="path4491" /></g><g
           id="g4493"
           transform="translate(306.4736,378.3535)"><path
             d="M 0,0 C -20.847,20.554 -70.442,20.554 -91.289,0"
             style="fill:none;stroke:#000000;stroke-width:15;stroke-linecap:round;stroke-linejoin:round;stroke-miterlimit:10;stroke-dasharray:none;stroke-opacity:1"
             id="path4495" /></g><g
           id="g4497"
           transform="translate(299.5625,224.7217)"><path
             d="m 0,0 -20.45,20.497 -18.269,18.286 -29.514,29.939 c -40.759,41.42 -64.098,68.665 -18.694,121.624 -1.558,-36.8 3.541,-49.926 27.871,-74.676 l 48.038,-48.763 38.974,-39.18"
             style="fill:none;stroke:#000000;stroke-width:15;stroke-linecap:round;stroke-linejoin:round;stroke-miterlimit:10;stroke-dasharray:none;stroke-opacity:1"
             id="path4499" /></g><g
           id="g4501"
           transform="translate(233.1138,291.6289)"><path
             d="M 0,0 -38.974,-39.181 M 55.431,0 57.215,1.814 C 98.002,43.234 121.313,70.479 75.91,123.438 77.467,86.639 72.397,73.513 48.039,48.763 L 27.73,28.152 M -11.018,-66.907 9.46,-46.41 27.73,-28.124"
             style="fill:none;stroke:#000000;stroke-width:15;stroke-linecap:round;stroke-linejoin:round;stroke-miterlimit:10;stroke-dasharray:none;stroke-opacity:1"
             id="path4503" /></g><g
           id="g4505"
           transform="translate(137.9727,308.1572)"><path
             d="m 0,0 -22.093,21.943 c -39.852,41.335 -39.852,108.952 0,150.286 36.198,37.537 94.688,28.124 133.379,-6.748 7.138,-6.435 9.658,-9.638 11.585,-9.638 1.898,0 4.418,3.203 11.556,9.638 38.691,34.872 97.18,44.285 133.38,6.748 39.851,-41.334 39.851,-108.951 0,-150.286 L 251.661,5.896 133.067,-111.729 c -5.098,-4.054 -7.647,-6.266 -10.196,-6.351 -2.578,0.085 -5.127,2.297 -10.225,6.351 l -89.562,88.85"
             style="fill:none;stroke:#000000;stroke-width:15;stroke-linecap:round;stroke-linejoin:round;stroke-miterlimit:10;stroke-dasharray:none;stroke-opacity:1"
             id="path4507" /></g></g></g></g></svg>
