<svg version="1.1" id="Capa_1" xmlns="http://www.w3.org/2000/svg" xmlns:xlink="http://www.w3.org/1999/xlink" x="0px" y="0px" viewBox="0 0 512 512" style="enable-background:new 0 0 512 512;" xml:space="preserve">
<g>
	<path style="fill:none;stroke:#000000;stroke-width:15;stroke-linecap:round;stroke-linejoin:round;stroke-miterlimit:10;" d="&#10;&#9;&#9;M256,99.688V30.797C256,17.93,266.43,7.5,279.297,7.5h0c12.866,0,23.297,10.43,23.297,23.297v68.891"/>
	
		<line style="fill:none;stroke:#000000;stroke-width:15;stroke-linecap:round;stroke-linejoin:round;stroke-miterlimit:10;" x1="257" y1="54.094" x2="301.594" y2="54.094"/>
	<path style="fill:none;stroke:#000000;stroke-width:15;stroke-linecap:round;stroke-linejoin:round;stroke-miterlimit:10;" d="&#10;&#9;&#9;M287.062,264.695v48.43c0,2.761-2.239,5-5,5H105.688c-2.761,0-5-2.239-5-5V136.75c0-2.761,2.239-5,5-5h176.375c2.761,0,5,2.239,5,5&#10;&#9;&#9;v92.945"/>
	<path style="fill:none;stroke:#000000;stroke-width:15;stroke-linecap:round;stroke-linejoin:round;stroke-miterlimit:10;" d="&#10;&#9;&#9;M146.75,349.187c-8.284,0-15,6.716-15,15v16.594c0,8.284,6.716,15,15,15h47.125v-46.594H146.75z"/>
	<path style="fill:none;stroke:#000000;stroke-width:15;stroke-linecap:round;stroke-linejoin:round;stroke-miterlimit:10;" d="&#10;&#9;&#9;M193.875,395.781H241c8.284,0,15-6.716,15-15v-16.594c0-8.284-6.716-15-15-15h-47.125"/>
	<path style="fill:none;stroke:#000000;stroke-width:15;stroke-linecap:round;stroke-linejoin:round;stroke-miterlimit:10;" d="&#10;&#9;&#9;M119.043,100.688h-36.05c-7.383,0-13.368,5.985-13.368,13.368v258.429"/>
	<path style="fill:none;stroke:#000000;stroke-width:15;stroke-linecap:round;stroke-linejoin:round;stroke-miterlimit:10;" d="&#10;&#9;&#9;M318.125,372.484V114.056c0-7.383-5.985-13.368-13.368-13.368H154.043"/>
	<path style="fill:none;stroke:#000000;stroke-width:15;stroke-linecap:round;stroke-linejoin:round;stroke-miterlimit:10;" d="&#10;&#9;&#9;M69.625,468.492v22.64c0,7.383,5.985,13.368,13.368,13.368h221.764c7.383,0,13.368-5.985,13.368-13.368V372.484H257"/>
	
		<polyline style="fill:none;stroke:#000000;stroke-width:15;stroke-linecap:round;stroke-linejoin:round;stroke-miterlimit:10;" points="&#10;&#9;&#9;130.75,372.484 69.625,372.484 69.625,433.492 &#9;"/>
	<g>
		<g>
			
				<line style="fill:none;stroke:#000000;stroke-width:15;stroke-linecap:round;stroke-linejoin:round;stroke-miterlimit:10;" x1="193.875" y1="442.375" x2="193.875" y2="442.375"/>
		</g>
	</g>
	<g>
		<g>
			
				<line style="fill:none;stroke:#000000;stroke-width:15;stroke-linecap:round;stroke-linejoin:round;stroke-miterlimit:10;" x1="162.812" y1="442.375" x2="162.812" y2="442.375"/>
		</g>
	</g>
	<g>
		<g>
			
				<line style="fill:none;stroke:#000000;stroke-width:15;stroke-linecap:round;stroke-linejoin:round;stroke-miterlimit:10;" x1="224.938" y1="442.375" x2="224.938" y2="442.375"/>
		</g>
	</g>
	<path style="fill:none;stroke:#000000;stroke-width:15;stroke-linecap:round;stroke-linejoin:round;stroke-miterlimit:10;" d="&#10;&#9;&#9;M406.664,126.96c47.615,47.615,47.615,124.814,0,172.429"/>
	<path style="fill:none;stroke:#000000;stroke-width:15;stroke-linecap:round;stroke-linejoin:round;stroke-miterlimit:10;" d="&#10;&#9;&#9;M377.926,155.698c31.743,31.743,31.743,83.209,0,114.953"/>
	<path style="fill:none;stroke:#000000;stroke-width:15;stroke-linecap:round;stroke-linejoin:round;stroke-miterlimit:10;" d="&#10;&#9;&#9;M349.188,184.437c15.872,15.872,15.872,41.605,0,57.476"/>
	<path style="fill:none;stroke:#000000;stroke-width:15;stroke-linecap:round;stroke-linejoin:round;stroke-miterlimit:10;" d="&#10;&#9;&#9;M193.875,224.937L193.875,224.937c-8.578,0-15.531-6.954-15.531-15.531v-31.063c0-8.578,6.954-15.531,15.531-15.531h0&#10;&#9;&#9;c8.578,0,15.531,6.954,15.531,15.531v31.063C209.406,217.984,202.453,224.937,193.875,224.937z"/>
	
		<circle style="fill:none;stroke:#000000;stroke-width:15;stroke-linecap:round;stroke-linejoin:round;stroke-miterlimit:10;" cx="193.875" cy="271.531" r="15.531"/>
	<path style="fill:none;stroke:#000000;stroke-width:15;stroke-linecap:round;stroke-linejoin:round;stroke-miterlimit:10;" d="&#10;&#9;&#9;M255.5,503.5l-13.649-27.299c-0.847-1.694-2.578-2.764-4.472-2.764h-87.007c-1.894,0-3.625,1.07-4.472,2.764L132.25,503.5"/>
</g>
<g>
</g>
<g>
</g>
<g>
</g>
<g>
</g>
<g>
</g>
<g>
</g>
<g>
</g>
<g>
</g>
<g>
</g>
<g>
</g>
<g>
</g>
<g>
</g>
<g>
</g>
<g>
</g>
<g>
</g>
</svg>