<svg id="Capa_1" enable-background="new 0 0 512 512" height="512" viewBox="0 0 512 512" width="512" xmlns="http://www.w3.org/2000/svg"><g><g><path d="m48.817 88.701c1.785 0 3.578-.635 5.009-1.924 1.787-1.609 3.627-3.217 5.468-4.779 3.154-2.675 3.543-7.401.867-10.555-2.675-3.154-7.4-3.544-10.555-.867-1.954 1.657-3.906 3.364-5.803 5.072-3.074 2.768-3.321 7.503-.553 10.577 1.478 1.641 3.518 2.476 5.567 2.476z"/><path d="m251.442 27.039c4.837.705 9.71 1.566 14.483 2.561.516.107 1.03.159 1.536.159 3.472 0 6.587-2.429 7.324-5.963.844-4.049-1.755-8.015-5.804-8.859-5.07-1.057-10.245-1.971-15.38-2.72-4.094-.595-7.894 2.238-8.49 6.332-.597 4.093 2.238 7.894 6.331 8.49z"/><path d="m370.943 80.262c3.763 3.12 7.477 6.394 11.041 9.731 1.444 1.352 3.282 2.022 5.116 2.022 2 0 3.994-.796 5.469-2.37 2.827-3.019 2.672-7.758-.347-10.585-3.782-3.542-7.725-7.016-11.719-10.327-3.186-2.64-7.904-2.198-10.545.985-2.639 3.183-2.198 7.904.985 10.544z"/><path d="m294.309 37.351c4.628 1.574 9.268 3.311 13.789 5.164.93.381 1.891.561 2.837.561 2.949 0 5.745-1.754 6.933-4.652 1.568-3.827-.263-8.201-4.091-9.769-4.802-1.968-9.731-3.813-14.647-5.484-3.913-1.332-8.169.764-9.501 4.679-1.332 3.916.764 8.169 4.68 9.501z"/><path d="m207.145 24.652c.09 0 .18-.001.27-.005 4.864-.172 9.825-.199 14.721-.082 4.133.119 7.568-3.172 7.667-7.307s-3.172-7.567-7.307-7.667c-5.19-.123-10.451-.094-15.61.088-4.134.146-7.366 3.616-7.219 7.749.142 4.043 3.464 7.224 7.478 7.224z"/><path d="m434.211 160.544c1.301 2.654 3.962 4.195 6.731 4.195 1.106 0 2.229-.246 3.289-.766 3.714-1.82 5.25-6.306 3.43-10.02-2.28-4.654-4.732-9.297-7.289-13.801-2.042-3.597-6.613-4.856-10.209-2.816-3.597 2.042-4.858 6.613-2.816 10.21 2.406 4.242 4.716 8.615 6.864 12.998z"/><path d="m411.313 122.905c1.469 1.983 3.731 3.032 6.023 3.032 1.549 0 3.112-.479 4.452-1.472 3.323-2.462 4.021-7.152 1.559-10.475-3.087-4.168-6.339-8.293-9.664-12.26-2.659-3.17-7.381-3.586-10.551-.928-3.169 2.657-3.584 7.381-.928 10.55 3.135 3.738 6.199 7.626 9.109 11.553z"/><path d="m445.505 187.666c1.601 4.617 3.078 9.34 4.389 14.036.924 3.309 3.933 5.476 7.209 5.476.667 0 1.345-.09 2.019-.278 3.983-1.113 6.311-5.244 5.198-9.228-1.393-4.989-2.962-10.006-4.662-14.911-1.354-3.907-5.622-5.977-9.529-4.624-3.908 1.355-5.978 5.622-4.624 9.529z"/><path d="m162.069 30.355c.534 0 1.076-.058 1.619-.177 4.761-1.049 9.623-1.966 14.45-2.725 4.086-.643 6.877-4.476 6.235-8.562-.642-4.085-4.477-6.878-8.562-6.235-5.126.806-10.289 1.78-15.347 2.895-4.039.89-6.592 4.886-5.701 8.925.771 3.496 3.868 5.879 7.306 5.879z"/><path d="m334.589 55.305c4.257 2.385 8.503 4.936 12.618 7.582 1.253.805 2.655 1.19 4.043 1.19 2.463 0 4.876-1.214 6.306-3.44 2.237-3.479 1.229-8.113-2.25-10.349-4.369-2.808-8.876-5.517-13.396-8.049-3.61-2.022-8.173-.736-10.194 2.873-2.021 3.608-.735 8.172 2.873 10.193z"/><path d="m118.789 44.152c.973 0 1.961-.191 2.914-.593 4.499-1.903 9.112-3.69 13.714-5.313 3.9-1.375 5.947-5.653 4.571-9.553-1.375-3.901-5.654-5.948-9.553-4.571-4.888 1.723-9.788 3.623-14.566 5.643-3.809 1.611-5.591 6.005-3.98 9.815 1.207 2.855 3.981 4.572 6.9 4.572z"/><path d="m78.728 65.594c1.414 0 2.844-.4 4.113-1.236 4.08-2.687 8.294-5.283 12.526-7.717 3.585-2.062 4.82-6.64 2.759-10.225-2.061-3.586-6.639-4.82-10.225-2.759-4.493 2.584-8.967 5.34-13.298 8.193-3.454 2.275-4.41 6.919-2.135 10.373 1.439 2.186 3.826 3.371 6.26 3.371z"/><path d="m462.373 222.055c-4.09.617-6.905 4.433-6.288 8.522.361 2.388.689 4.811.978 7.202.46 3.801 3.691 6.591 7.425 6.591.3 0 .604-.018.908-.055 4.106-.496 7.032-4.227 6.537-8.333-.307-2.536-.656-5.107-1.038-7.64-.617-4.089-4.445-6.901-8.522-6.287z"/><path d="m94.002 207.717c0-4.136-3.353-7.489-7.489-7.489h-14.382c-4.136 0-7.489 3.353-7.489 7.489s3.353 7.489 7.489 7.489h14.382c4.136 0 7.489-3.353 7.489-7.489z"/><path d="m110.851 234.526h-14.382c-4.136 0-7.489 3.353-7.489 7.489s3.353 7.489 7.489 7.489h14.381c4.136 0 7.489-3.353 7.489-7.489.001-4.136-3.352-7.489-7.488-7.489z"/><path d="m76.558 302.005h-14.382c-4.136 0-7.489 3.353-7.489 7.489s3.353 7.489 7.489 7.489h14.381c4.136 0 7.489-3.353 7.489-7.489.001-4.136-3.352-7.489-7.488-7.489z"/><path d="m230.538 87.384h-14.382c-4.136 0-7.489 3.353-7.489 7.489s3.353 7.489 7.489 7.489h14.382c4.136 0 7.489-3.353 7.489-7.489s-3.353-7.489-7.489-7.489z"/><path d="m280.043 375.941c0-4.136-3.352-7.489-7.489-7.489h-14.382c-4.136 0-7.489 3.353-7.489 7.489s3.353 7.489 7.489 7.489h14.382c4.136 0 7.489-3.353 7.489-7.489z"/><path d="m241.076 396.162h-14.382c-4.136 0-7.489 3.353-7.489 7.489s3.353 7.489 7.489 7.489h14.382c4.136 0 7.489-3.353 7.489-7.489s-3.353-7.489-7.489-7.489z"/><path d="m504.055 270.954c-5.28-5.281-12.581-8.174-20.054-7.93-19.606.632-38.389 8.666-52.439 22.212.493-5.979.747-12.007.747-18.074 0-16.059-1.748-31.987-5.282-47.668-5.917-26.25-16.805-51.324-31.91-73.591-7.556-11.138-16.152-21.567-25.641-31.112-7.55-7.594-15.531-14.508-24.049-20.888-12.662-9.484-27.154-17.972-41.103-24.209-27.665-12.37-57.874-18.685-88.168-18.685-57.737 0-112.018 22.484-152.843 63.309-3.934 3.934-7.67 7.967-11.286 12.187-33.55 39.116-52.027 89.07-52.027 140.658 0 62.386 26.448 120.779 72.91 161.856 21.395 18.985 46.657 33.767 73.852 42.961 22.315 7.544 45.844 11.336 69.395 11.336 35.551 0 69.775-8.557 100.371-24.64l15.417 33.918c2.292 5.043 6.914 8.643 12.365 9.632 5.286.959 11.071-.788 14.959-4.677l11.196-11.196c2.984-2.984 4.735-6.95 4.93-11.167l1.357-29.418 29.034-26.358 35.553 53.795c2.808 4.25 7.325 6.981 12.394 7.494 4.9.495 10.066-1.284 13.644-4.862l11.194-11.193c3.816-3.817 5.586-9.277 4.736-14.606l-14.042-88.028 16.167-14.361c16.176-14.37 25.853-35.015 26.552-56.641.243-7.464-2.647-14.774-7.929-20.054zm-172.492-168.592c44.518 31.223 74.441 78.922 83.132 132.164h-123.559c-4.501 0-8.733-1.753-11.917-4.937-3.183-3.183-4.936-7.415-4.936-11.917 0-9.293 7.56-16.853 16.853-16.853h29.902c8.494 0 16.485-3.305 22.508-9.313 6.011-6.013 9.323-14.006 9.323-22.508 0-17.552-14.28-31.831-31.831-31.831h-13.82c-4.65 0-9.02-1.809-12.311-5.1-3.287-3.28-5.098-7.647-5.098-12.298 0-9.599 7.81-17.408 17.409-17.408h24.345zm-115.406 365.975c-39.221 0-75.853-11.286-106.827-30.776h51.301c9.683 0 18.789-3.772 25.639-10.621 6.849-6.85 10.621-15.951 10.621-25.628 0-19.988-16.266-36.249-36.26-36.249h-26.551c-2.725 0-5.288-1.061-7.216-2.989-1.927-1.927-2.989-4.494-2.989-7.227 0-5.627 4.578-10.205 10.205-10.205h97.725c11.344 0 22.01-4.419 30.036-12.443 8.024-8.025 12.443-18.695 12.443-30.046 0-23.423-19.056-42.479-42.479-42.479h-38.686c-15.615 0-28.318-12.703-28.318-28.318v-2.387c0-6.934 2.696-13.443 7.596-18.335 4.898-4.898 11.413-7.596 18.345-7.596 10.575 0 20.511-4.12 27.968-11.591 7.481-7.467 11.601-17.403 11.601-27.978 0-21.824-17.75-39.579-39.568-39.579h-51.049c-4.136 0-7.489 3.353-7.489 7.489s3.353 7.489 7.489 7.489h51.049c13.559 0 24.591 11.036 24.591 24.601 0 6.569-2.558 12.74-7.213 17.387-4.637 4.646-10.808 7.204-17.377 7.204-10.933 0-21.209 4.255-28.932 11.978-7.73 7.717-11.987 17.991-11.987 28.93v2.387c0 23.873 19.422 43.296 43.296 43.296h38.686c15.164 0 27.501 12.337 27.501 27.501 0 7.35-2.861 14.26-8.057 19.455s-12.101 8.057-19.444 8.057h-97.725c-13.886 0-25.182 11.297-25.182 25.182 0 6.734 2.619 13.061 7.376 17.817 4.757 4.757 11.08 7.376 17.807 7.376h26.551c11.735 0 21.282 9.542 21.282 21.271 0 5.676-2.214 11.016-6.234 15.037-4.021 4.021-9.365 6.235-15.048 6.235h-72.216c-46.708-38.404-73.44-94.899-73.44-155.42 0-46.871 16.389-92.293 46.216-128.294h43.465c4.136 0 7.489-3.353 7.489-7.489s-3.353-7.489-7.489-7.489h-29.557c36.335-35.78 86.153-57.905 141.055-57.905 32.432 0 63.088 7.726 90.243 21.418-17.481.437-31.569 14.781-31.569 32.365 0 8.658 3.373 16.791 9.491 22.895 6.114 6.114 14.245 9.481 22.896 9.481h13.82c9.293 0 16.853 7.561 16.853 16.853 0 4.501-1.753 8.733-4.93 11.911-3.189 3.181-7.423 4.932-11.923 4.932h-29.902c-17.551 0-31.831 14.28-31.831 31.831 0 8.502 3.311 16.495 9.323 22.508 6.014 6.012 14.007 9.323 22.508 9.323h125.416c.513 5.819.78 11.708.78 17.658 0 12.891-1.238 25.496-3.566 37.719l-.741.834-38.629-6.162c-4.089-.656-7.924 2.132-8.575 6.215-.651 4.084 2.132 7.924 6.215 8.575l29.021 4.63-35.339 38.971-55.695-36.808c-.627-.414-.808-.993-.849-1.406-.042-.412.02-1.016.55-1.547l11.194-11.193c.432-.432 1.051-.631 1.655-.537l14.661 2.339c4.085.651 7.923-2.132 8.575-6.215.651-4.084-2.132-7.924-6.215-8.575l-14.662-2.339c-5.325-.849-10.79.921-14.604 4.737l-11.194 11.193c-3.602 3.603-5.374 8.575-4.862 13.643.513 5.068 3.243 9.586 7.494 12.395l53.841 35.583-26.366 29.043-29.418 1.357c-4.215.195-8.18 1.946-11.164 4.93l-11.198 11.197c-3.916 3.917-5.664 9.509-4.676 14.96.988 5.45 4.589 10.073 9.631 12.365l16.421 7.464c-25.237 11.427-53.224 17.809-82.68 17.809zm251.826-14.284-11.193 11.192c-.531.531-1.137.591-1.547.552-.412-.042-.991-.223-1.405-.85l-36.809-55.695 38.971-35.338 12.52 78.484c.096.603-.105 1.223-.537 1.655zm7.504-117.601-27.862 24.75-83.243 75.568c-1.475 1.339-2.356 3.21-2.448 5.2l-1.501 32.525c-.021.478-.22.928-.56 1.267l-11.196 11.196c-.585.587-1.246.61-1.696.53-.45-.082-1.059-.337-1.401-1.092l-16.64-36.609c-.75-1.648-2.071-2.969-3.719-3.719l-36.609-16.64c-.755-.343-1.01-.952-1.092-1.402s-.056-1.11.529-1.696l11.198-11.197c.338-.338.788-.537 1.265-.559l32.526-1.501c1.99-.092 3.86-.973 5.199-2.448l100.319-111.103c11.652-13.117 28.391-20.964 45.927-21.53.135-.004.271-.006.406-.006 3.239 0 6.271 1.254 8.574 3.558 2.4 2.399 3.661 5.588 3.551 8.98-.564 17.536-8.411 34.275-21.527 45.928z"/></g></g></svg>